<?xml version="1.0" encoding="utf-8" standalone="no"?>
<!DOCTYPE svg PUBLIC "-//W3C//DTD SVG 1.1//EN"
  "http://www.w3.org/Graphics/SVG/1.1/DTD/svg11.dtd">
<!-- Created with matplotlib (http://matplotlib.org/) -->
<svg height="434pt" version="1.1" viewBox="0 0 677 434" width="677pt" xmlns="http://www.w3.org/2000/svg" xmlns:xlink="http://www.w3.org/1999/xlink">
 <defs>
  <style type="text/css">
*{stroke-linecap:butt;stroke-linejoin:round;}
  </style>
 </defs>
 <g id="figure_1">
  <g id="patch_1">
   <path d="M 0 434.582437 
L 677.05525 434.582437 
L 677.05525 0 
L 0 0 
z
" style="fill:none;"/>
  </g>
  <g id="axes_1">
   <g id="patch_2">
    <path d="M 57.85525 171.080187 
L 336.037068 171.080187 
L 336.037068 23.912188 
L 57.85525 23.912188 
z
" style="fill:#ffffff;"/>
   </g>
   <g id="matplotlib.axis_1">
    <g id="xtick_1">
     <g id="line2d_1"/>
     <g id="text_1">
      <!-- −15 -->
      <defs>
       <path d="M 10.59375 35.5 
L 73.1875 35.5 
L 73.1875 27.203125 
L 10.59375 27.203125 
z
" id="DejaVuSans-2212"/>
       <path d="M 12.40625 8.296875 
L 28.515625 8.296875 
L 28.515625 63.921875 
L 10.984375 60.40625 
L 10.984375 69.390625 
L 28.421875 72.90625 
L 38.28125 72.90625 
L 38.28125 8.296875 
L 54.390625 8.296875 
L 54.390625 0 
L 12.40625 0 
z
" id="DejaVuSans-31"/>
       <path d="M 10.796875 72.90625 
L 49.515625 72.90625 
L 49.515625 64.59375 
L 19.828125 64.59375 
L 19.828125 46.734375 
Q 21.96875 47.46875 24.109375 47.828125 
Q 26.265625 48.1875 28.421875 48.1875 
Q 40.625 48.1875 47.75 41.5 
Q 54.890625 34.8125 54.890625 23.390625 
Q 54.890625 11.625 47.5625 5.09375 
Q 40.234375 -1.421875 26.90625 -1.421875 
Q 22.3125 -1.421875 17.546875 -0.640625 
Q 12.796875 0.140625 7.71875 1.703125 
L 7.71875 11.625 
Q 12.109375 9.234375 16.796875 8.0625 
Q 21.484375 6.890625 26.703125 6.890625 
Q 35.15625 6.890625 40.078125 11.328125 
Q 45.015625 15.765625 45.015625 23.390625 
Q 45.015625 31 40.078125 35.4375 
Q 35.15625 39.890625 26.703125 39.890625 
Q 22.75 39.890625 18.8125 39.015625 
Q 14.890625 38.140625 10.796875 36.28125 
z
" id="DejaVuSans-35"/>
      </defs>
      <g style="fill:#565656;" transform="translate(57.710864 186.198312)scale(0.12 -0.12)">
       <use xlink:href="#DejaVuSans-2212"/>
       <use x="83.789062" xlink:href="#DejaVuSans-31"/>
       <use x="147.412109" xlink:href="#DejaVuSans-35"/>
      </g>
     </g>
    </g>
    <g id="xtick_2">
     <g id="line2d_2"/>
     <g id="text_2">
      <!-- −10 -->
      <defs>
       <path d="M 31.78125 66.40625 
Q 24.171875 66.40625 20.328125 58.90625 
Q 16.5 51.421875 16.5 36.375 
Q 16.5 21.390625 20.328125 13.890625 
Q 24.171875 6.390625 31.78125 6.390625 
Q 39.453125 6.390625 43.28125 13.890625 
Q 47.125 21.390625 47.125 36.375 
Q 47.125 51.421875 43.28125 58.90625 
Q 39.453125 66.40625 31.78125 66.40625 
M 31.78125 74.21875 
Q 44.046875 74.21875 50.515625 64.515625 
Q 56.984375 54.828125 56.984375 36.375 
Q 56.984375 17.96875 50.515625 8.265625 
Q 44.046875 -1.421875 31.78125 -1.421875 
Q 19.53125 -1.421875 13.0625 8.265625 
Q 6.59375 17.96875 6.59375 36.375 
Q 6.59375 54.828125 13.0625 64.515625 
Q 19.53125 74.21875 31.78125 74.21875 
" id="DejaVuSans-30"/>
      </defs>
      <g style="fill:#565656;" transform="translate(98.975459 186.198312)scale(0.12 -0.12)">
       <use xlink:href="#DejaVuSans-2212"/>
       <use x="83.789062" xlink:href="#DejaVuSans-31"/>
       <use x="147.412109" xlink:href="#DejaVuSans-30"/>
      </g>
     </g>
    </g>
    <g id="xtick_3">
     <g id="line2d_3"/>
     <g id="text_3">
      <!-- −5 -->
      <g style="fill:#565656;" transform="translate(144.057554 186.198312)scale(0.12 -0.12)">
       <use xlink:href="#DejaVuSans-2212"/>
       <use x="83.789062" xlink:href="#DejaVuSans-35"/>
      </g>
     </g>
    </g>
    <g id="xtick_4">
     <g id="line2d_4"/>
     <g id="text_4">
      <!-- 0 -->
      <g style="fill:#565656;" transform="translate(190.349962 186.198312)scale(0.12 -0.12)">
       <use xlink:href="#DejaVuSans-30"/>
      </g>
     </g>
    </g>
    <g id="xtick_5">
     <g id="line2d_5"/>
     <g id="text_5">
      <!-- 5 -->
      <g style="fill:#565656;" transform="translate(231.614557 186.198312)scale(0.12 -0.12)">
       <use xlink:href="#DejaVuSans-35"/>
      </g>
     </g>
    </g>
    <g id="xtick_6">
     <g id="line2d_6"/>
     <g id="text_6">
      <!-- 10 -->
      <g style="fill:#565656;" transform="translate(269.061652 186.198312)scale(0.12 -0.12)">
       <use xlink:href="#DejaVuSans-31"/>
       <use x="63.623047" xlink:href="#DejaVuSans-30"/>
      </g>
     </g>
    </g>
    <g id="xtick_7">
     <g id="line2d_7"/>
     <g id="text_7">
      <!-- 15 -->
      <g style="fill:#565656;" transform="translate(310.326247 186.198312)scale(0.12 -0.12)">
       <use xlink:href="#DejaVuSans-31"/>
       <use x="63.623047" xlink:href="#DejaVuSans-35"/>
      </g>
     </g>
    </g>
    <g id="text_8">
     <!-- t -->
     <defs>
      <path d="M 18.3125 70.21875 
L 18.3125 54.6875 
L 36.8125 54.6875 
L 36.8125 47.703125 
L 18.3125 47.703125 
L 18.3125 18.015625 
Q 18.3125 11.328125 20.140625 9.421875 
Q 21.96875 7.515625 27.59375 7.515625 
L 36.8125 7.515625 
L 36.8125 0 
L 27.59375 0 
Q 17.1875 0 13.234375 3.875 
Q 9.28125 7.765625 9.28125 18.015625 
L 9.28125 47.703125 
L 2.6875 47.703125 
L 2.6875 54.6875 
L 9.28125 54.6875 
L 9.28125 70.21875 
z
" id="DejaVuSans-74"/>
     </defs>
     <g transform="translate(194.123534 203.635687)scale(0.144 -0.144)">
      <use xlink:href="#DejaVuSans-74"/>
     </g>
    </g>
   </g>
   <g id="matplotlib.axis_2">
    <g id="ytick_1">
     <g id="line2d_8"/>
     <g id="text_9">
      <!-- 0.00 -->
      <defs>
       <path d="M 10.6875 12.40625 
L 21 12.40625 
L 21 0 
L 10.6875 0 
z
" id="DejaVuSans-2e"/>
      </defs>
      <g style="fill:#565656;" transform="translate(25.1365 175.63925)scale(0.12 -0.12)">
       <use xlink:href="#DejaVuSans-30"/>
       <use x="63.623047" xlink:href="#DejaVuSans-2e"/>
       <use x="95.410156" xlink:href="#DejaVuSans-30"/>
       <use x="159.033203" xlink:href="#DejaVuSans-30"/>
      </g>
     </g>
    </g>
    <g id="ytick_2">
     <g id="line2d_9"/>
     <g id="text_10">
      <!-- 0.05 -->
      <g style="fill:#565656;" transform="translate(25.1365 133.064698)scale(0.12 -0.12)">
       <use xlink:href="#DejaVuSans-30"/>
       <use x="63.623047" xlink:href="#DejaVuSans-2e"/>
       <use x="95.410156" xlink:href="#DejaVuSans-30"/>
       <use x="159.033203" xlink:href="#DejaVuSans-35"/>
      </g>
     </g>
    </g>
    <g id="ytick_3">
     <g id="line2d_10"/>
     <g id="text_11">
      <!-- 0.10 -->
      <g style="fill:#565656;" transform="translate(25.1365 90.490146)scale(0.12 -0.12)">
       <use xlink:href="#DejaVuSans-30"/>
       <use x="63.623047" xlink:href="#DejaVuSans-2e"/>
       <use x="95.410156" xlink:href="#DejaVuSans-31"/>
       <use x="159.033203" xlink:href="#DejaVuSans-30"/>
      </g>
     </g>
    </g>
    <g id="ytick_4">
     <g id="line2d_11"/>
     <g id="text_12">
      <!-- 0.15 -->
      <g style="fill:#565656;" transform="translate(25.1365 47.915595)scale(0.12 -0.12)">
       <use xlink:href="#DejaVuSans-30"/>
       <use x="63.623047" xlink:href="#DejaVuSans-2e"/>
       <use x="95.410156" xlink:href="#DejaVuSans-31"/>
       <use x="159.033203" xlink:href="#DejaVuSans-35"/>
      </g>
     </g>
    </g>
    <g id="text_13">
     <!-- P(t) -->
     <defs>
      <path d="M 19.671875 64.796875 
L 19.671875 37.40625 
L 32.078125 37.40625 
Q 38.96875 37.40625 42.71875 40.96875 
Q 46.484375 44.53125 46.484375 51.125 
Q 46.484375 57.671875 42.71875 61.234375 
Q 38.96875 64.796875 32.078125 64.796875 
z
M 9.8125 72.90625 
L 32.078125 72.90625 
Q 44.34375 72.90625 50.609375 67.359375 
Q 56.890625 61.8125 56.890625 51.125 
Q 56.890625 40.328125 50.609375 34.8125 
Q 44.34375 29.296875 32.078125 29.296875 
L 19.671875 29.296875 
L 19.671875 0 
L 9.8125 0 
z
" id="DejaVuSans-50"/>
      <path d="M 31 75.875 
Q 24.46875 64.65625 21.28125 53.65625 
Q 18.109375 42.671875 18.109375 31.390625 
Q 18.109375 20.125 21.3125 9.0625 
Q 24.515625 -2 31 -13.1875 
L 23.1875 -13.1875 
Q 15.875 -1.703125 12.234375 9.375 
Q 8.59375 20.453125 8.59375 31.390625 
Q 8.59375 42.28125 12.203125 53.3125 
Q 15.828125 64.359375 23.1875 75.875 
z
" id="DejaVuSans-28"/>
      <path d="M 8.015625 75.875 
L 15.828125 75.875 
Q 23.140625 64.359375 26.78125 53.3125 
Q 30.421875 42.28125 30.421875 31.390625 
Q 30.421875 20.453125 26.78125 9.375 
Q 23.140625 -1.703125 15.828125 -13.1875 
L 8.015625 -13.1875 
Q 14.5 -2 17.703125 9.0625 
Q 20.90625 20.125 20.90625 31.390625 
Q 20.90625 42.671875 17.703125 53.65625 
Q 14.5 64.65625 8.015625 75.875 
" id="DejaVuSans-29"/>
     </defs>
     <g transform="translate(18.14175 110.278437)rotate(-90)scale(0.144 -0.144)">
      <use xlink:href="#DejaVuSans-50"/>
      <use x="60.302734" xlink:href="#DejaVuSans-28"/>
      <use x="99.316406" xlink:href="#DejaVuSans-74"/>
      <use x="138.525391" xlink:href="#DejaVuSans-29"/>
     </g>
    </g>
   </g>
   <g id="patch_3">
    <path clip-path="url(#p27f86f9dd7)" d="M 70.499878 171.080187 
L 70.499878 169.160187 
L 78.163289 169.160187 
L 78.163289 168.200187 
L 85.8267 168.200187 
L 85.8267 168.200187 
L 93.490111 168.200187 
L 93.490111 167.240187 
L 101.153522 167.240187 
L 101.153522 166.280187 
L 108.816933 166.280187 
L 108.816933 166.280187 
L 116.480344 166.280187 
L 116.480344 164.744187 
L 124.143755 164.744187 
L 124.143755 159.752187 
L 131.807166 159.752187 
L 131.807166 154.184188 
L 139.470577 154.184188 
L 139.470577 142.280188 
L 147.133988 142.280188 
L 147.133988 114.824188 
L 154.797399 114.824188 
L 154.797399 30.920188 
L 162.46081 30.920188 
L 162.46081 67.208188 
L 170.124221 67.208188 
L 170.124221 120.968188 
L 177.787632 120.968188 
L 177.787632 113.672188 
L 185.451043 113.672188 
L 185.451043 109.256188 
L 193.114454 109.256188 
L 193.114454 140.936188 
L 200.777865 140.936188 
L 200.777865 119.240188 
L 208.441276 119.240188 
L 208.441276 90.440187 
L 216.104687 90.440187 
L 216.104687 119.816188 
L 223.768097 119.816188 
L 223.768097 119.240187 
L 231.431508 119.240187 
L 231.431508 136.136188 
L 239.094919 136.136188 
L 239.094919 152.648187 
L 246.75833 152.648187 
L 246.75833 159.368187 
L 254.421741 159.368187 
L 254.421741 163.208188 
L 262.085152 163.208188 
L 262.085152 165.128187 
L 269.748563 165.128187 
L 269.748563 167.240187 
L 277.411974 167.240187 
L 277.411974 166.088187 
L 285.075385 166.088187 
L 285.075385 169.352187 
L 292.738796 169.352187 
L 292.738796 168.008187 
L 300.402207 168.008187 
L 300.402207 168.968187 
L 308.065618 168.968187 
L 308.065618 168.968187 
L 315.729029 168.968187 
L 315.729029 170.696187 
L 323.39244 170.696187 
L 323.39244 171.080187 
L 315.729029 171.080187 
L 315.729029 171.080187 
L 308.065618 171.080187 
L 308.065618 171.080187 
L 300.402207 171.080187 
L 300.402207 171.080187 
L 292.738796 171.080187 
L 292.738796 171.080187 
L 285.075385 171.080187 
L 285.075385 171.080187 
L 277.411974 171.080187 
L 277.411974 171.080187 
L 269.748563 171.080187 
L 269.748563 171.080187 
L 262.085152 171.080187 
L 262.085152 171.080187 
L 254.421741 171.080187 
L 254.421741 171.080187 
L 246.75833 171.080187 
L 246.75833 171.080187 
L 239.094919 171.080187 
L 239.094919 171.080187 
L 231.431508 171.080187 
L 231.431508 171.080187 
L 223.768097 171.080187 
L 223.768097 171.080187 
L 216.104687 171.080187 
L 216.104687 171.080187 
L 208.441276 171.080187 
L 208.441276 171.080187 
L 200.777865 171.080187 
L 200.777865 171.080187 
L 193.114454 171.080187 
L 193.114454 171.080187 
L 185.451043 171.080187 
L 185.451043 171.080187 
L 177.787632 171.080187 
L 177.787632 171.080187 
L 170.124221 171.080187 
L 170.124221 171.080187 
L 162.46081 171.080187 
L 162.46081 171.080187 
L 154.797399 171.080187 
L 154.797399 171.080187 
L 147.133988 171.080187 
L 147.133988 171.080187 
L 139.470577 171.080187 
L 139.470577 171.080187 
L 131.807166 171.080187 
L 131.807166 171.080187 
L 124.143755 171.080187 
L 124.143755 171.080187 
L 116.480344 171.080187 
L 116.480344 171.080187 
L 108.816933 171.080187 
L 108.816933 171.080187 
L 101.153522 171.080187 
L 101.153522 171.080187 
L 93.490111 171.080187 
L 93.490111 171.080187 
L 85.8267 171.080187 
L 85.8267 171.080187 
L 78.163289 171.080187 
L 78.163289 171.080187 
z
" style="fill:#e24a33;opacity:0.4;"/>
   </g>
   <g id="patch_4">
    <path d="M 57.85525 171.080187 
L 57.85525 23.912188 
" style="fill:none;stroke:#aaaaaa;stroke-linecap:square;stroke-linejoin:miter;"/>
   </g>
   <g id="patch_5">
    <path d="M 336.037068 171.080187 
L 336.037068 23.912188 
" style="fill:none;stroke:#aaaaaa;stroke-linecap:square;stroke-linejoin:miter;"/>
   </g>
   <g id="patch_6">
    <path d="M 57.85525 171.080187 
L 336.037068 171.080187 
" style="fill:none;stroke:#aaaaaa;stroke-linecap:square;stroke-linejoin:miter;"/>
   </g>
   <g id="patch_7">
    <path d="M 57.85525 23.912188 
L 336.037068 23.912188 
" style="fill:none;stroke:#aaaaaa;stroke-linecap:square;stroke-linejoin:miter;"/>
   </g>
   <g id="text_14">
    <!-- hist(t, bins="scott") -->
    <defs>
     <path d="M 51.3125 33.890625 
L 51.3125 0 
L 42.28125 0 
L 42.28125 33.890625 
Q 42.28125 41.265625 39.6875 44.71875 
Q 37.109375 48.1875 31.59375 48.1875 
Q 25.296875 48.1875 21.890625 43.71875 
Q 18.5 39.265625 18.5 30.90625 
L 18.5 0 
L 9.515625 0 
L 9.515625 75.984375 
L 18.5 75.984375 
L 18.5 46.484375 
Q 20.90625 51.171875 25 53.578125 
Q 29.109375 56 34.71875 56 
Q 43.0625 56 47.1875 50.5 
Q 51.3125 45.015625 51.3125 33.890625 
" id="DejaVuSansMono-68"/>
     <path d="M 12.5 54.6875 
L 35.5 54.6875 
L 35.5 6.984375 
L 53.328125 6.984375 
L 53.328125 0 
L 8.6875 0 
L 8.6875 6.984375 
L 26.515625 6.984375 
L 26.515625 47.703125 
L 12.5 47.703125 
z
M 26.515625 75.984375 
L 35.5 75.984375 
L 35.5 64.59375 
L 26.515625 64.59375 
z
" id="DejaVuSansMono-69"/>
     <path d="M 47.515625 52.78125 
L 47.515625 44 
Q 43.65625 46.234375 39.75 47.359375 
Q 35.84375 48.484375 31.78125 48.484375 
Q 25.6875 48.484375 22.671875 46.5 
Q 19.671875 44.53125 19.671875 40.484375 
Q 19.671875 36.8125 21.921875 35 
Q 24.171875 33.203125 33.109375 31.5 
L 36.71875 30.8125 
Q 43.40625 29.546875 46.84375 25.734375 
Q 50.296875 21.921875 50.296875 15.828125 
Q 50.296875 7.71875 44.53125 3.140625 
Q 38.765625 -1.421875 28.515625 -1.421875 
Q 24.46875 -1.421875 20.015625 -0.5625 
Q 15.578125 0.296875 10.40625 2 
L 10.40625 11.28125 
Q 15.4375 8.6875 20.015625 7.390625 
Q 24.609375 6.109375 28.71875 6.109375 
Q 34.671875 6.109375 37.9375 8.515625 
Q 41.21875 10.9375 41.21875 15.28125 
Q 41.21875 21.53125 29.25 23.921875 
L 28.859375 24.03125 
L 25.484375 24.703125 
Q 17.71875 26.21875 14.15625 29.8125 
Q 10.59375 33.40625 10.59375 39.59375 
Q 10.59375 47.46875 15.90625 51.734375 
Q 21.234375 56 31.109375 56 
Q 35.5 56 39.546875 55.1875 
Q 43.609375 54.390625 47.515625 52.78125 
" id="DejaVuSansMono-73"/>
     <path d="M 29.984375 70.21875 
L 29.984375 54.6875 
L 50.390625 54.6875 
L 50.390625 47.703125 
L 29.984375 47.703125 
L 29.984375 18.015625 
Q 29.984375 11.96875 32.28125 9.5625 
Q 34.578125 7.171875 40.28125 7.171875 
L 50.390625 7.171875 
L 50.390625 0 
L 39.40625 0 
Q 29.296875 0 25.140625 4.046875 
Q 21 8.109375 21 18.015625 
L 21 47.703125 
L 6.390625 47.703125 
L 6.390625 54.6875 
L 21 54.6875 
L 21 70.21875 
z
" id="DejaVuSansMono-74"/>
     <path d="M 43.21875 75.875 
Q 36.71875 64.75 33.515625 53.6875 
Q 30.328125 42.625 30.328125 31.390625 
Q 30.328125 20.21875 33.515625 9.125 
Q 36.71875 -1.953125 43.21875 -13.1875 
L 35.40625 -13.1875 
Q 28.03125 -1.5625 24.40625 9.4375 
Q 20.796875 20.453125 20.796875 31.390625 
Q 20.796875 42.28125 24.40625 53.3125 
Q 28.03125 64.359375 35.40625 75.875 
z
" id="DejaVuSansMono-28"/>
     <path d="M 24.515625 14.796875 
L 36.8125 14.796875 
L 36.8125 4.6875 
L 27.203125 -14.015625 
L 19.671875 -14.015625 
L 24.515625 4.6875 
z
" id="DejaVuSansMono-2c"/>
     <path id="DejaVuSansMono-20"/>
     <path d="M 44.828125 27.296875 
Q 44.828125 37.75 41.5 43.0625 
Q 38.1875 48.390625 31.6875 48.390625 
Q 25.140625 48.390625 21.765625 43.046875 
Q 18.40625 37.703125 18.40625 27.296875 
Q 18.40625 16.9375 21.765625 11.5625 
Q 25.140625 6.203125 31.6875 6.203125 
Q 38.1875 6.203125 41.5 11.515625 
Q 44.828125 16.84375 44.828125 27.296875 
M 18.40625 47.703125 
Q 20.5625 51.703125 24.34375 53.84375 
Q 28.125 56 33.109375 56 
Q 42.96875 56 48.625 48.40625 
Q 54.296875 40.828125 54.296875 27.484375 
Q 54.296875 13.96875 48.609375 6.265625 
Q 42.921875 -1.421875 33.015625 -1.421875 
Q 28.125 -1.421875 24.390625 0.703125 
Q 20.65625 2.828125 18.40625 6.890625 
L 18.40625 0 
L 9.421875 0 
L 9.421875 75.984375 
L 18.40625 75.984375 
z
" id="DejaVuSansMono-62"/>
     <path d="M 51.3125 33.890625 
L 51.3125 0 
L 42.28125 0 
L 42.28125 33.890625 
Q 42.28125 41.265625 39.6875 44.71875 
Q 37.109375 48.1875 31.59375 48.1875 
Q 25.296875 48.1875 21.890625 43.71875 
Q 18.5 39.265625 18.5 30.90625 
L 18.5 0 
L 9.515625 0 
L 9.515625 54.6875 
L 18.5 54.6875 
L 18.5 46.484375 
Q 20.90625 51.171875 25 53.578125 
Q 29.109375 56 34.71875 56 
Q 43.0625 56 47.1875 50.5 
Q 51.3125 45.015625 51.3125 33.890625 
" id="DejaVuSansMono-6e"/>
     <path d="M 4.296875 25.59375 
L 55.90625 25.59375 
L 55.90625 17.1875 
L 4.296875 17.1875 
z
M 4.296875 45.40625 
L 55.90625 45.40625 
L 55.90625 37.109375 
L 4.296875 37.109375 
z
" id="DejaVuSansMono-3d"/>
     <path d="M 43.703125 72.90625 
L 43.703125 45.796875 
L 35.203125 45.796875 
L 35.203125 72.90625 
z
M 25 72.90625 
L 25 45.796875 
L 16.5 45.796875 
L 16.5 72.90625 
z
" id="DejaVuSansMono-22"/>
     <path d="M 51.8125 2.78125 
Q 48.1875 0.6875 44.359375 -0.359375 
Q 40.53125 -1.421875 36.53125 -1.421875 
Q 23.828125 -1.421875 16.671875 6.1875 
Q 9.515625 13.8125 9.515625 27.296875 
Q 9.515625 40.765625 16.671875 48.375 
Q 23.828125 56 36.53125 56 
Q 40.484375 56 44.234375 54.96875 
Q 48 53.953125 51.8125 51.8125 
L 51.8125 42.390625 
Q 48.25 45.5625 44.65625 46.96875 
Q 41.0625 48.390625 36.53125 48.390625 
Q 28.078125 48.390625 23.53125 42.921875 
Q 19 37.453125 19 27.296875 
Q 19 17.1875 23.5625 11.6875 
Q 28.125 6.203125 36.53125 6.203125 
Q 41.21875 6.203125 44.921875 7.640625 
Q 48.640625 9.078125 51.8125 12.109375 
z
" id="DejaVuSansMono-63"/>
     <path d="M 30.078125 48.390625 
Q 23.25 48.390625 19.734375 43.0625 
Q 16.21875 37.75 16.21875 27.296875 
Q 16.21875 16.890625 19.734375 11.546875 
Q 23.25 6.203125 30.078125 6.203125 
Q 36.96875 6.203125 40.484375 11.546875 
Q 44 16.890625 44 27.296875 
Q 44 37.75 40.484375 43.0625 
Q 36.96875 48.390625 30.078125 48.390625 
M 30.078125 56 
Q 41.453125 56 47.484375 48.625 
Q 53.515625 41.265625 53.515625 27.296875 
Q 53.515625 13.28125 47.5 5.921875 
Q 41.5 -1.421875 30.078125 -1.421875 
Q 18.703125 -1.421875 12.6875 5.921875 
Q 6.6875 13.28125 6.6875 27.296875 
Q 6.6875 41.265625 12.6875 48.625 
Q 18.703125 56 30.078125 56 
" id="DejaVuSansMono-6f"/>
     <path d="M 17 75.875 
L 24.8125 75.875 
Q 32.171875 64.359375 35.78125 53.3125 
Q 39.40625 42.28125 39.40625 31.390625 
Q 39.40625 20.40625 35.78125 9.375 
Q 32.171875 -1.65625 24.8125 -13.1875 
L 17 -13.1875 
Q 23.484375 -1.859375 26.6875 9.21875 
Q 29.890625 20.3125 29.890625 31.390625 
Q 29.890625 42.53125 26.6875 53.609375 
Q 23.484375 64.703125 17 75.875 
" id="DejaVuSansMono-29"/>
    </defs>
    <g transform="translate(108.447565 17.912188)scale(0.14 -0.14)">
     <use xlink:href="#DejaVuSansMono-68"/>
     <use x="60.205078" xlink:href="#DejaVuSansMono-69"/>
     <use x="120.410156" xlink:href="#DejaVuSansMono-73"/>
     <use x="180.615234" xlink:href="#DejaVuSansMono-74"/>
     <use x="240.820312" xlink:href="#DejaVuSansMono-28"/>
     <use x="301.025391" xlink:href="#DejaVuSansMono-74"/>
     <use x="361.230469" xlink:href="#DejaVuSansMono-2c"/>
     <use x="421.435547" xlink:href="#DejaVuSansMono-20"/>
     <use x="481.640625" xlink:href="#DejaVuSansMono-62"/>
     <use x="541.845703" xlink:href="#DejaVuSansMono-69"/>
     <use x="602.050781" xlink:href="#DejaVuSansMono-6e"/>
     <use x="662.255859" xlink:href="#DejaVuSansMono-73"/>
     <use x="722.460938" xlink:href="#DejaVuSansMono-3d"/>
     <use x="782.666016" xlink:href="#DejaVuSansMono-22"/>
     <use x="842.871094" xlink:href="#DejaVuSansMono-73"/>
     <use x="903.076172" xlink:href="#DejaVuSansMono-63"/>
     <use x="963.28125" xlink:href="#DejaVuSansMono-6f"/>
     <use x="1023.486328" xlink:href="#DejaVuSansMono-74"/>
     <use x="1083.691406" xlink:href="#DejaVuSansMono-74"/>
     <use x="1143.896484" xlink:href="#DejaVuSansMono-22"/>
     <use x="1204.101562" xlink:href="#DejaVuSansMono-29"/>
    </g>
   </g>
  </g>
  <g id="axes_2">
   <g id="patch_8">
    <path d="M 391.673432 171.080187 
L 669.85525 171.080187 
L 669.85525 23.912188 
L 391.673432 23.912188 
z
" style="fill:#ffffff;"/>
   </g>
   <g id="matplotlib.axis_3">
    <g id="xtick_8">
     <g id="line2d_12"/>
     <g id="text_15">
      <!-- −15 -->
      <g style="fill:#565656;" transform="translate(391.52731 186.198312)scale(0.12 -0.12)">
       <use xlink:href="#DejaVuSans-2212"/>
       <use x="83.789062" xlink:href="#DejaVuSans-31"/>
       <use x="147.412109" xlink:href="#DejaVuSans-35"/>
      </g>
     </g>
    </g>
    <g id="xtick_9">
     <g id="line2d_13"/>
     <g id="text_16">
      <!-- −10 -->
      <g style="fill:#565656;" transform="translate(433.359436 186.198312)scale(0.12 -0.12)">
       <use xlink:href="#DejaVuSans-2212"/>
       <use x="83.789062" xlink:href="#DejaVuSans-31"/>
       <use x="147.412109" xlink:href="#DejaVuSans-30"/>
      </g>
     </g>
    </g>
    <g id="xtick_10">
     <g id="line2d_14"/>
     <g id="text_17">
      <!-- −5 -->
      <g style="fill:#565656;" transform="translate(479.009061 186.198312)scale(0.12 -0.12)">
       <use xlink:href="#DejaVuSans-2212"/>
       <use x="83.789062" xlink:href="#DejaVuSans-35"/>
      </g>
     </g>
    </g>
    <g id="xtick_11">
     <g id="line2d_15"/>
     <g id="text_18">
      <!-- 0 -->
      <g style="fill:#565656;" transform="translate(525.868999 186.198312)scale(0.12 -0.12)">
       <use xlink:href="#DejaVuSans-30"/>
      </g>
     </g>
    </g>
    <g id="xtick_12">
     <g id="line2d_16"/>
     <g id="text_19">
      <!-- 5 -->
      <g style="fill:#565656;" transform="translate(567.701124 186.198312)scale(0.12 -0.12)">
       <use xlink:href="#DejaVuSans-35"/>
      </g>
     </g>
    </g>
    <g id="xtick_13">
     <g id="line2d_17"/>
     <g id="text_20">
      <!-- 10 -->
      <g style="fill:#565656;" transform="translate(605.71575 186.198312)scale(0.12 -0.12)">
       <use xlink:href="#DejaVuSans-31"/>
       <use x="63.623047" xlink:href="#DejaVuSans-30"/>
      </g>
     </g>
    </g>
    <g id="xtick_14">
     <g id="line2d_18"/>
     <g id="text_21">
      <!-- 15 -->
      <g style="fill:#565656;" transform="translate(647.547875 186.198312)scale(0.12 -0.12)">
       <use xlink:href="#DejaVuSans-31"/>
       <use x="63.623047" xlink:href="#DejaVuSans-35"/>
      </g>
     </g>
    </g>
    <g id="text_22">
     <!-- t -->
     <g transform="translate(527.941716 203.635687)scale(0.144 -0.144)">
      <use xlink:href="#DejaVuSans-74"/>
     </g>
    </g>
   </g>
   <g id="matplotlib.axis_4">
    <g id="ytick_5">
     <g id="line2d_19"/>
     <g id="text_23">
      <!-- 0.00 -->
      <g style="fill:#565656;" transform="translate(358.954682 175.63925)scale(0.12 -0.12)">
       <use xlink:href="#DejaVuSans-30"/>
       <use x="63.623047" xlink:href="#DejaVuSans-2e"/>
       <use x="95.410156" xlink:href="#DejaVuSans-30"/>
       <use x="159.033203" xlink:href="#DejaVuSans-30"/>
      </g>
     </g>
    </g>
    <g id="ytick_6">
     <g id="line2d_20"/>
     <g id="text_24">
      <!-- 0.05 -->
      <g style="fill:#565656;" transform="translate(358.954682 137.490438)scale(0.12 -0.12)">
       <use xlink:href="#DejaVuSans-30"/>
       <use x="63.623047" xlink:href="#DejaVuSans-2e"/>
       <use x="95.410156" xlink:href="#DejaVuSans-30"/>
       <use x="159.033203" xlink:href="#DejaVuSans-35"/>
      </g>
     </g>
    </g>
    <g id="ytick_7">
     <g id="line2d_21"/>
     <g id="text_25">
      <!-- 0.10 -->
      <g style="fill:#565656;" transform="translate(358.954682 99.341625)scale(0.12 -0.12)">
       <use xlink:href="#DejaVuSans-30"/>
       <use x="63.623047" xlink:href="#DejaVuSans-2e"/>
       <use x="95.410156" xlink:href="#DejaVuSans-31"/>
       <use x="159.033203" xlink:href="#DejaVuSans-30"/>
      </g>
     </g>
    </g>
    <g id="ytick_8">
     <g id="line2d_22"/>
     <g id="text_26">
      <!-- 0.15 -->
      <g style="fill:#565656;" transform="translate(358.954682 61.192813)scale(0.12 -0.12)">
       <use xlink:href="#DejaVuSans-30"/>
       <use x="63.623047" xlink:href="#DejaVuSans-2e"/>
       <use x="95.410156" xlink:href="#DejaVuSans-31"/>
       <use x="159.033203" xlink:href="#DejaVuSans-35"/>
      </g>
     </g>
    </g>
    <g id="text_27">
     <!-- P(t) -->
     <g transform="translate(351.959932 110.278437)rotate(-90)scale(0.144 -0.144)">
      <use xlink:href="#DejaVuSans-50"/>
      <use x="60.302734" xlink:href="#DejaVuSans-28"/>
      <use x="99.316406" xlink:href="#DejaVuSans-74"/>
      <use x="138.525391" xlink:href="#DejaVuSans-29"/>
     </g>
    </g>
   </g>
   <g id="patch_9">
    <path clip-path="url(#p185defcfbf)" d="M 404.31806 171.080187 
L 404.31806 169.388966 
L 410.640374 169.388966 
L 410.640374 168.96616 
L 416.962688 168.96616 
L 416.962688 167.697744 
L 423.285002 167.697744 
L 423.285002 167.909147 
L 429.607316 167.909147 
L 429.607316 168.543355 
L 435.92963 168.543355 
L 435.92963 166.852133 
L 442.251944 166.852133 
L 442.251944 166.64073 
L 448.574258 166.64073 
L 448.574258 167.063536 
L 454.896572 167.063536 
L 454.896572 162.835482 
L 461.218886 162.835482 
L 461.218886 160.298649 
L 467.5412 160.298649 
L 467.5412 155.647789 
L 473.863514 155.647789 
L 473.863514 148.882902 
L 480.185829 148.882902 
L 480.185829 129.433853 
L 486.508143 129.433853 
L 486.508143 91.169961 
L 492.830457 91.169961 
L 492.830457 30.920188 
L 499.152771 30.920188 
L 499.152771 89.267337 
L 505.475085 89.267337 
L 505.475085 125.628604 
L 511.797399 125.628604 
L 511.797399 131.970685 
L 518.119713 131.970685 
L 518.119713 93.283988 
L 524.442027 93.283988 
L 524.442027 139.792586 
L 530.764341 139.792586 
L 530.764341 143.597835 
L 537.086655 143.597835 
L 537.086655 124.782993 
L 543.408969 124.782993 
L 543.408969 94.763807 
L 549.731283 94.763807 
L 549.731283 123.091771 
L 556.053597 123.091771 
L 556.053597 124.360188 
L 562.375911 124.360188 
L 562.375911 125.840007 
L 568.698225 125.840007 
L 568.698225 140.849599 
L 575.020539 140.849599 
L 575.020539 153.745165 
L 581.342853 153.745165 
L 581.342853 158.396025 
L 587.665167 158.396025 
L 587.665167 163.258287 
L 593.987481 163.258287 
L 593.987481 162.835482 
L 600.309795 162.835482 
L 600.309795 166.852133 
L 606.63211 166.852133 
L 606.63211 167.909147 
L 612.954424 167.909147 
L 612.954424 166.006522 
L 619.276738 166.006522 
L 619.276738 169.600368 
L 625.599052 169.600368 
L 625.599052 169.177563 
L 631.921366 169.177563 
L 631.921366 167.697744 
L 638.24368 167.697744 
L 638.24368 169.177563 
L 644.565994 169.177563 
L 644.565994 169.177563 
L 650.888308 169.177563 
L 650.888308 170.234577 
L 657.210622 170.234577 
L 657.210622 171.080187 
L 650.888308 171.080187 
L 650.888308 171.080187 
L 644.565994 171.080187 
L 644.565994 171.080187 
L 638.24368 171.080187 
L 638.24368 171.080187 
L 631.921366 171.080187 
L 631.921366 171.080187 
L 625.599052 171.080187 
L 625.599052 171.080187 
L 619.276738 171.080187 
L 619.276738 171.080187 
L 612.954424 171.080187 
L 612.954424 171.080187 
L 606.63211 171.080187 
L 606.63211 171.080187 
L 600.309795 171.080187 
L 600.309795 171.080187 
L 593.987481 171.080187 
L 593.987481 171.080187 
L 587.665167 171.080187 
L 587.665167 171.080187 
L 581.342853 171.080187 
L 581.342853 171.080187 
L 575.020539 171.080187 
L 575.020539 171.080187 
L 568.698225 171.080187 
L 568.698225 171.080187 
L 562.375911 171.080187 
L 562.375911 171.080187 
L 556.053597 171.080187 
L 556.053597 171.080187 
L 549.731283 171.080187 
L 549.731283 171.080187 
L 543.408969 171.080187 
L 543.408969 171.080187 
L 537.086655 171.080187 
L 537.086655 171.080187 
L 530.764341 171.080187 
L 530.764341 171.080187 
L 524.442027 171.080187 
L 524.442027 171.080187 
L 518.119713 171.080187 
L 518.119713 171.080187 
L 511.797399 171.080187 
L 511.797399 171.080187 
L 505.475085 171.080187 
L 505.475085 171.080187 
L 499.152771 171.080187 
L 499.152771 171.080187 
L 492.830457 171.080187 
L 492.830457 171.080187 
L 486.508143 171.080187 
L 486.508143 171.080187 
L 480.185829 171.080187 
L 480.185829 171.080187 
L 473.863514 171.080187 
L 473.863514 171.080187 
L 467.5412 171.080187 
L 467.5412 171.080187 
L 461.218886 171.080187 
L 461.218886 171.080187 
L 454.896572 171.080187 
L 454.896572 171.080187 
L 448.574258 171.080187 
L 448.574258 171.080187 
L 442.251944 171.080187 
L 442.251944 171.080187 
L 435.92963 171.080187 
L 435.92963 171.080187 
L 429.607316 171.080187 
L 429.607316 171.080187 
L 423.285002 171.080187 
L 423.285002 171.080187 
L 416.962688 171.080187 
L 416.962688 171.080187 
L 410.640374 171.080187 
L 410.640374 171.080187 
z
" style="fill:#e24a33;opacity:0.4;"/>
   </g>
   <g id="patch_10">
    <path d="M 391.673432 171.080187 
L 391.673432 23.912188 
" style="fill:none;stroke:#aaaaaa;stroke-linecap:square;stroke-linejoin:miter;"/>
   </g>
   <g id="patch_11">
    <path d="M 669.85525 171.080187 
L 669.85525 23.912188 
" style="fill:none;stroke:#aaaaaa;stroke-linecap:square;stroke-linejoin:miter;"/>
   </g>
   <g id="patch_12">
    <path d="M 391.673432 171.080187 
L 669.85525 171.080187 
" style="fill:none;stroke:#aaaaaa;stroke-linecap:square;stroke-linejoin:miter;"/>
   </g>
   <g id="patch_13">
    <path d="M 391.673432 23.912188 
L 669.85525 23.912188 
" style="fill:none;stroke:#aaaaaa;stroke-linecap:square;stroke-linejoin:miter;"/>
   </g>
   <g id="text_28">
    <!-- hist(t, bins="freedman") -->
    <defs>
     <path d="M 51.90625 75.984375 
L 51.90625 68.5 
L 41.703125 68.5 
Q 36.859375 68.5 34.984375 66.515625 
Q 33.109375 64.546875 33.109375 59.515625 
L 33.109375 54.6875 
L 51.90625 54.6875 
L 51.90625 47.703125 
L 33.109375 47.703125 
L 33.109375 0 
L 24.125 0 
L 24.125 47.703125 
L 9.515625 47.703125 
L 9.515625 54.6875 
L 24.125 54.6875 
L 24.125 58.5 
Q 24.125 67.484375 28.25 71.734375 
Q 32.375 75.984375 41.109375 75.984375 
z
" id="DejaVuSansMono-66"/>
     <path d="M 56.390625 43.40625 
Q 53.515625 45.65625 50.53125 46.671875 
Q 47.5625 47.703125 44 47.703125 
Q 35.59375 47.703125 31.140625 42.421875 
Q 26.703125 37.15625 26.703125 27.203125 
L 26.703125 0 
L 17.671875 0 
L 17.671875 54.6875 
L 26.703125 54.6875 
L 26.703125 44 
Q 28.953125 49.8125 33.609375 52.90625 
Q 38.28125 56 44.671875 56 
Q 48 56 50.875 55.171875 
Q 53.765625 54.34375 56.390625 52.59375 
z
" id="DejaVuSansMono-72"/>
     <path d="M 54.296875 29.59375 
L 54.296875 25.203125 
L 15.375 25.203125 
L 15.375 24.90625 
Q 15.375 15.96875 20.03125 11.078125 
Q 24.703125 6.203125 33.203125 6.203125 
Q 37.5 6.203125 42.1875 7.5625 
Q 46.875 8.9375 52.203125 11.71875 
L 52.203125 2.78125 
Q 47.078125 0.6875 42.3125 -0.359375 
Q 37.546875 -1.421875 33.109375 -1.421875 
Q 20.359375 -1.421875 13.171875 6.21875 
Q 6 13.875 6 27.296875 
Q 6 40.375 13.03125 48.1875 
Q 20.0625 56 31.78125 56 
Q 42.234375 56 48.265625 48.921875 
Q 54.296875 41.84375 54.296875 29.59375 
M 45.3125 32.234375 
Q 45.125 40.140625 41.578125 44.265625 
Q 38.03125 48.390625 31.390625 48.390625 
Q 24.90625 48.390625 20.703125 44.09375 
Q 16.5 39.796875 15.71875 32.171875 
z
" id="DejaVuSansMono-65"/>
     <path d="M 41.890625 47.703125 
L 41.890625 75.984375 
L 50.875 75.984375 
L 50.875 0 
L 41.890625 0 
L 41.890625 6.890625 
Q 39.65625 2.828125 35.90625 0.703125 
Q 32.171875 -1.421875 27.296875 -1.421875 
Q 17.390625 -1.421875 11.6875 6.265625 
Q 6 13.96875 6 27.484375 
Q 6 40.828125 11.71875 48.40625 
Q 17.4375 56 27.296875 56 
Q 32.234375 56 35.984375 53.875 
Q 39.75 51.765625 41.890625 47.703125 
M 15.484375 27.296875 
Q 15.484375 16.84375 18.796875 11.515625 
Q 22.125 6.203125 28.609375 6.203125 
Q 35.109375 6.203125 38.5 11.5625 
Q 41.890625 16.9375 41.890625 27.296875 
Q 41.890625 37.703125 38.5 43.046875 
Q 35.109375 48.390625 28.609375 48.390625 
Q 22.125 48.390625 18.796875 43.0625 
Q 15.484375 37.75 15.484375 27.296875 
" id="DejaVuSansMono-64"/>
     <path d="M 33.015625 49.125 
Q 34.671875 52.640625 37.234375 54.3125 
Q 39.796875 56 43.40625 56 
Q 50 56 52.703125 50.890625 
Q 55.421875 45.796875 55.421875 31.6875 
L 55.421875 0 
L 47.21875 0 
L 47.21875 31.296875 
Q 47.21875 42.875 45.921875 45.671875 
Q 44.625 48.484375 41.21875 48.484375 
Q 37.3125 48.484375 35.859375 45.484375 
Q 34.421875 42.484375 34.421875 31.296875 
L 34.421875 0 
L 26.21875 0 
L 26.21875 31.296875 
Q 26.21875 43.015625 24.828125 45.75 
Q 23.4375 48.484375 19.828125 48.484375 
Q 16.265625 48.484375 14.875 45.484375 
Q 13.484375 42.484375 13.484375 31.296875 
L 13.484375 0 
L 5.328125 0 
L 5.328125 54.6875 
L 13.484375 54.6875 
L 13.484375 50 
Q 15.09375 52.9375 17.5 54.46875 
Q 19.921875 56 23 56 
Q 26.703125 56 29.171875 54.296875 
Q 31.640625 52.59375 33.015625 49.125 
" id="DejaVuSansMono-6d"/>
     <path d="M 34.28125 27.484375 
L 31.296875 27.484375 
Q 23.4375 27.484375 19.453125 24.71875 
Q 15.484375 21.96875 15.484375 16.5 
Q 15.484375 11.578125 18.453125 8.84375 
Q 21.4375 6.109375 26.703125 6.109375 
Q 34.125 6.109375 38.375 11.25 
Q 42.625 16.40625 42.671875 25.484375 
L 42.671875 27.484375 
z
M 51.703125 31.203125 
L 51.703125 0 
L 42.671875 0 
L 42.671875 8.109375 
Q 39.796875 3.21875 35.421875 0.890625 
Q 31.0625 -1.421875 24.8125 -1.421875 
Q 16.453125 -1.421875 11.46875 3.296875 
Q 6.5 8.015625 6.5 15.921875 
Q 6.5 25.046875 12.625 29.78125 
Q 18.75 34.515625 30.609375 34.515625 
L 42.671875 34.515625 
L 42.671875 35.9375 
Q 42.625 42.484375 39.34375 45.4375 
Q 36.078125 48.390625 28.90625 48.390625 
Q 24.3125 48.390625 19.625 47.0625 
Q 14.9375 45.75 10.5 43.21875 
L 10.5 52.203125 
Q 15.484375 54.109375 20.046875 55.046875 
Q 24.609375 56 28.90625 56 
Q 35.6875 56 40.5 54 
Q 45.3125 52 48.296875 48 
Q 50.140625 45.5625 50.921875 41.96875 
Q 51.703125 38.375 51.703125 31.203125 
" id="DejaVuSansMono-61"/>
    </defs>
    <g transform="translate(429.623091 17.912188)scale(0.14 -0.14)">
     <use xlink:href="#DejaVuSansMono-68"/>
     <use x="60.205078" xlink:href="#DejaVuSansMono-69"/>
     <use x="120.410156" xlink:href="#DejaVuSansMono-73"/>
     <use x="180.615234" xlink:href="#DejaVuSansMono-74"/>
     <use x="240.820312" xlink:href="#DejaVuSansMono-28"/>
     <use x="301.025391" xlink:href="#DejaVuSansMono-74"/>
     <use x="361.230469" xlink:href="#DejaVuSansMono-2c"/>
     <use x="421.435547" xlink:href="#DejaVuSansMono-20"/>
     <use x="481.640625" xlink:href="#DejaVuSansMono-62"/>
     <use x="541.845703" xlink:href="#DejaVuSansMono-69"/>
     <use x="602.050781" xlink:href="#DejaVuSansMono-6e"/>
     <use x="662.255859" xlink:href="#DejaVuSansMono-73"/>
     <use x="722.460938" xlink:href="#DejaVuSansMono-3d"/>
     <use x="782.666016" xlink:href="#DejaVuSansMono-22"/>
     <use x="842.871094" xlink:href="#DejaVuSansMono-66"/>
     <use x="903.076172" xlink:href="#DejaVuSansMono-72"/>
     <use x="963.28125" xlink:href="#DejaVuSansMono-65"/>
     <use x="1023.486328" xlink:href="#DejaVuSansMono-65"/>
     <use x="1083.691406" xlink:href="#DejaVuSansMono-64"/>
     <use x="1143.896484" xlink:href="#DejaVuSansMono-6d"/>
     <use x="1204.101562" xlink:href="#DejaVuSansMono-61"/>
     <use x="1264.306641" xlink:href="#DejaVuSansMono-6e"/>
     <use x="1324.511719" xlink:href="#DejaVuSansMono-22"/>
     <use x="1384.716797" xlink:href="#DejaVuSansMono-29"/>
    </g>
   </g>
  </g>
  <g id="axes_3">
   <g id="patch_14">
    <path d="M 57.85525 391.832187 
L 336.037068 391.832187 
L 336.037068 244.664187 
L 57.85525 244.664187 
z
" style="fill:#ffffff;"/>
   </g>
   <g id="matplotlib.axis_5">
    <g id="xtick_15">
     <g id="line2d_23"/>
     <g id="text_29">
      <!-- −15 -->
      <g style="fill:#565656;" transform="translate(57.707443 406.950312)scale(0.12 -0.12)">
       <use xlink:href="#DejaVuSans-2212"/>
       <use x="83.789062" xlink:href="#DejaVuSans-31"/>
       <use x="147.412109" xlink:href="#DejaVuSans-35"/>
      </g>
     </g>
    </g>
    <g id="xtick_16">
     <g id="line2d_24"/>
     <g id="text_30">
      <!-- −10 -->
      <g style="fill:#565656;" transform="translate(100.090866 406.950312)scale(0.12 -0.12)">
       <use xlink:href="#DejaVuSans-2212"/>
       <use x="83.789062" xlink:href="#DejaVuSans-31"/>
       <use x="147.412109" xlink:href="#DejaVuSans-30"/>
      </g>
     </g>
    </g>
    <g id="xtick_17">
     <g id="line2d_25"/>
     <g id="text_31">
      <!-- −5 -->
      <g style="fill:#565656;" transform="translate(146.29179 406.950312)scale(0.12 -0.12)">
       <use xlink:href="#DejaVuSans-2212"/>
       <use x="83.789062" xlink:href="#DejaVuSans-35"/>
      </g>
     </g>
    </g>
    <g id="xtick_18">
     <g id="line2d_26"/>
     <g id="text_32">
      <!-- 0 -->
      <g style="fill:#565656;" transform="translate(193.703026 406.950312)scale(0.12 -0.12)">
       <use xlink:href="#DejaVuSans-30"/>
      </g>
     </g>
    </g>
    <g id="xtick_19">
     <g id="line2d_27"/>
     <g id="text_33">
      <!-- 5 -->
      <g style="fill:#565656;" transform="translate(236.08645 406.950312)scale(0.12 -0.12)">
       <use xlink:href="#DejaVuSans-35"/>
      </g>
     </g>
    </g>
    <g id="xtick_20">
     <g id="line2d_28"/>
     <g id="text_34">
      <!-- 10 -->
      <g style="fill:#565656;" transform="translate(274.652373 406.950312)scale(0.12 -0.12)">
       <use xlink:href="#DejaVuSans-31"/>
       <use x="63.623047" xlink:href="#DejaVuSans-30"/>
      </g>
     </g>
    </g>
    <g id="xtick_21">
     <g id="line2d_29"/>
     <g id="text_35">
      <!-- 15 -->
      <g style="fill:#565656;" transform="translate(317.035797 406.950312)scale(0.12 -0.12)">
       <use xlink:href="#DejaVuSans-31"/>
       <use x="63.623047" xlink:href="#DejaVuSans-35"/>
      </g>
     </g>
    </g>
    <g id="text_36">
     <!-- t -->
     <g transform="translate(194.123534 424.387687)scale(0.144 -0.144)">
      <use xlink:href="#DejaVuSans-74"/>
     </g>
    </g>
   </g>
   <g id="matplotlib.axis_6">
    <g id="ytick_9">
     <g id="line2d_30"/>
     <g id="text_37">
      <!-- 0.00 -->
      <g style="fill:#565656;" transform="translate(25.1365 396.39125)scale(0.12 -0.12)">
       <use xlink:href="#DejaVuSans-30"/>
       <use x="63.623047" xlink:href="#DejaVuSans-2e"/>
       <use x="95.410156" xlink:href="#DejaVuSans-30"/>
       <use x="159.033203" xlink:href="#DejaVuSans-30"/>
      </g>
     </g>
    </g>
    <g id="ytick_10">
     <g id="line2d_31"/>
     <g id="text_38">
      <!-- 0.05 -->
      <g style="fill:#565656;" transform="translate(25.1365 358.504362)scale(0.12 -0.12)">
       <use xlink:href="#DejaVuSans-30"/>
       <use x="63.623047" xlink:href="#DejaVuSans-2e"/>
       <use x="95.410156" xlink:href="#DejaVuSans-30"/>
       <use x="159.033203" xlink:href="#DejaVuSans-35"/>
      </g>
     </g>
    </g>
    <g id="ytick_11">
     <g id="line2d_32"/>
     <g id="text_39">
      <!-- 0.10 -->
      <g style="fill:#565656;" transform="translate(25.1365 320.617473)scale(0.12 -0.12)">
       <use xlink:href="#DejaVuSans-30"/>
       <use x="63.623047" xlink:href="#DejaVuSans-2e"/>
       <use x="95.410156" xlink:href="#DejaVuSans-31"/>
       <use x="159.033203" xlink:href="#DejaVuSans-30"/>
      </g>
     </g>
    </g>
    <g id="ytick_12">
     <g id="line2d_33"/>
     <g id="text_40">
      <!-- 0.15 -->
      <g style="fill:#565656;" transform="translate(25.1365 282.730585)scale(0.12 -0.12)">
       <use xlink:href="#DejaVuSans-30"/>
       <use x="63.623047" xlink:href="#DejaVuSans-2e"/>
       <use x="95.410156" xlink:href="#DejaVuSans-31"/>
       <use x="159.033203" xlink:href="#DejaVuSans-35"/>
      </g>
     </g>
    </g>
    <g id="text_41">
     <!-- P(t) -->
     <g transform="translate(18.14175 331.030437)rotate(-90)scale(0.144 -0.144)">
      <use xlink:href="#DejaVuSans-50"/>
      <use x="60.302734" xlink:href="#DejaVuSans-28"/>
      <use x="99.316406" xlink:href="#DejaVuSans-74"/>
      <use x="138.525391" xlink:href="#DejaVuSans-29"/>
     </g>
    </g>
   </g>
   <g id="patch_15">
    <path clip-path="url(#pa508364a32)" d="M 70.499878 391.832187 
L 70.499878 389.960268 
L 76.247436 389.960268 
L 76.247436 389.960268 
L 81.994995 389.960268 
L 81.994995 389.726278 
L 87.742553 389.726278 
L 87.742553 388.322338 
L 93.490111 388.322338 
L 93.490111 388.556328 
L 99.237669 388.556328 
L 99.237669 388.322338 
L 104.985227 388.322338 
L 104.985227 387.620368 
L 110.732786 387.620368 
L 110.732786 387.152388 
L 116.480344 387.152388 
L 116.480344 387.854358 
L 122.227902 387.854358 
L 122.227902 383.642538 
L 127.97546 383.642538 
L 127.97546 381.536628 
L 133.723019 381.536628 
L 133.723019 378.494758 
L 139.470577 378.494758 
L 139.470577 371.943039 
L 145.218135 371.943039 
L 145.218135 356.96768 
L 150.965693 356.96768 
L 150.965693 340.822371 
L 156.713252 340.822371 
L 156.713252 286.536695 
L 162.46081 286.536695 
L 162.46081 251.672187 
L 168.208368 251.672187 
L 168.208368 324.443072 
L 173.955926 324.443072 
L 173.955926 346.906111 
L 179.703484 346.906111 
L 179.703484 355.09576 
L 185.451043 355.09576 
L 185.451043 311.807613 
L 191.198601 311.807613 
L 191.198601 356.4997 
L 196.946159 356.4997 
L 196.946159 364.689349 
L 202.693717 364.689349 
L 202.693717 355.32975 
L 208.441276 355.32975 
L 208.441276 326.548982 
L 214.188834 326.548982 
L 214.188834 324.209082 
L 219.936392 324.209082 
L 219.936392 346.672121 
L 225.68395 346.672121 
L 225.68395 345.034191 
L 231.431508 345.034191 
L 231.431508 349.012021 
L 237.179067 349.012021 
L 237.179067 362.11546 
L 242.926625 362.11546 
L 242.926625 371.709049 
L 248.674183 371.709049 
L 248.674183 378.962738 
L 254.421741 378.962738 
L 254.421741 383.408548 
L 260.1693 383.408548 
L 260.1693 384.344508 
L 265.916858 384.344508 
L 265.916858 385.982438 
L 271.664416 385.982438 
L 271.664416 386.684408 
L 277.411974 386.684408 
L 277.411974 389.024308 
L 283.159532 389.024308 
L 283.159532 386.684408 
L 288.907091 386.684408 
L 288.907091 390.662238 
L 294.654649 390.662238 
L 294.654649 389.960268 
L 300.402207 389.960268 
L 300.402207 388.556328 
L 306.149765 388.556328 
L 306.149765 389.492288 
L 311.897324 389.492288 
L 311.897324 389.960268 
L 317.644882 389.960268 
L 317.644882 390.194258 
L 323.39244 390.194258 
L 323.39244 391.832187 
L 317.644882 391.832187 
L 317.644882 391.832187 
L 311.897324 391.832187 
L 311.897324 391.832187 
L 306.149765 391.832187 
L 306.149765 391.832187 
L 300.402207 391.832187 
L 300.402207 391.832187 
L 294.654649 391.832187 
L 294.654649 391.832187 
L 288.907091 391.832187 
L 288.907091 391.832187 
L 283.159532 391.832187 
L 283.159532 391.832187 
L 277.411974 391.832187 
L 277.411974 391.832187 
L 271.664416 391.832187 
L 271.664416 391.832187 
L 265.916858 391.832187 
L 265.916858 391.832187 
L 260.1693 391.832187 
L 260.1693 391.832187 
L 254.421741 391.832187 
L 254.421741 391.832187 
L 248.674183 391.832187 
L 248.674183 391.832187 
L 242.926625 391.832187 
L 242.926625 391.832187 
L 237.179067 391.832187 
L 237.179067 391.832187 
L 231.431508 391.832187 
L 231.431508 391.832187 
L 225.68395 391.832187 
L 225.68395 391.832187 
L 219.936392 391.832187 
L 219.936392 391.832187 
L 214.188834 391.832187 
L 214.188834 391.832187 
L 208.441276 391.832187 
L 208.441276 391.832187 
L 202.693717 391.832187 
L 202.693717 391.832187 
L 196.946159 391.832187 
L 196.946159 391.832187 
L 191.198601 391.832187 
L 191.198601 391.832187 
L 185.451043 391.832187 
L 185.451043 391.832187 
L 179.703484 391.832187 
L 179.703484 391.832187 
L 173.955926 391.832187 
L 173.955926 391.832187 
L 168.208368 391.832187 
L 168.208368 391.832187 
L 162.46081 391.832187 
L 162.46081 391.832187 
L 156.713252 391.832187 
L 156.713252 391.832187 
L 150.965693 391.832187 
L 150.965693 391.832187 
L 145.218135 391.832187 
L 145.218135 391.832187 
L 139.470577 391.832187 
L 139.470577 391.832187 
L 133.723019 391.832187 
L 133.723019 391.832187 
L 127.97546 391.832187 
L 127.97546 391.832187 
L 122.227902 391.832187 
L 122.227902 391.832187 
L 116.480344 391.832187 
L 116.480344 391.832187 
L 110.732786 391.832187 
L 110.732786 391.832187 
L 104.985227 391.832187 
L 104.985227 391.832187 
L 99.237669 391.832187 
L 99.237669 391.832187 
L 93.490111 391.832187 
L 93.490111 391.832187 
L 87.742553 391.832187 
L 87.742553 391.832187 
L 81.994995 391.832187 
L 81.994995 391.832187 
L 76.247436 391.832187 
L 76.247436 391.832187 
z
" style="fill:#e24a33;opacity:0.4;"/>
   </g>
   <g id="patch_16">
    <path d="M 57.85525 391.832187 
L 57.85525 244.664187 
" style="fill:none;stroke:#aaaaaa;stroke-linecap:square;stroke-linejoin:miter;"/>
   </g>
   <g id="patch_17">
    <path d="M 336.037068 391.832187 
L 336.037068 244.664187 
" style="fill:none;stroke:#aaaaaa;stroke-linecap:square;stroke-linejoin:miter;"/>
   </g>
   <g id="patch_18">
    <path d="M 57.85525 391.832187 
L 336.037068 391.832187 
" style="fill:none;stroke:#aaaaaa;stroke-linecap:square;stroke-linejoin:miter;"/>
   </g>
   <g id="patch_19">
    <path d="M 57.85525 244.664187 
L 336.037068 244.664187 
" style="fill:none;stroke:#aaaaaa;stroke-linecap:square;stroke-linejoin:miter;"/>
   </g>
   <g id="text_42">
    <!-- hist(t, bins="knuth") -->
    <defs>
     <path d="M 11.53125 75.984375 
L 20.796875 75.984375 
L 20.796875 31.984375 
L 44.390625 54.6875 
L 55.328125 54.6875 
L 33.796875 34.078125 
L 58.6875 0 
L 47.703125 0 
L 27.484375 28.21875 
L 20.796875 21.921875 
L 20.796875 0 
L 11.53125 0 
z
" id="DejaVuSansMono-6b"/>
     <path d="M 9.515625 20.703125 
L 9.515625 54.59375 
L 18.5 54.59375 
L 18.5 20.703125 
Q 18.5 13.328125 21.109375 9.859375 
Q 23.734375 6.390625 29.203125 6.390625 
Q 35.546875 6.390625 38.90625 10.859375 
Q 42.28125 15.328125 42.28125 23.6875 
L 42.28125 54.59375 
L 51.3125 54.59375 
L 51.3125 0 
L 42.28125 0 
L 42.28125 8.203125 
Q 39.890625 3.46875 35.765625 1.015625 
Q 31.640625 -1.421875 26.125 -1.421875 
Q 17.71875 -1.421875 13.609375 4.078125 
Q 9.515625 9.578125 9.515625 20.703125 
" id="DejaVuSansMono-75"/>
    </defs>
    <g transform="translate(108.447565 238.664187)scale(0.14 -0.14)">
     <use xlink:href="#DejaVuSansMono-68"/>
     <use x="60.205078" xlink:href="#DejaVuSansMono-69"/>
     <use x="120.410156" xlink:href="#DejaVuSansMono-73"/>
     <use x="180.615234" xlink:href="#DejaVuSansMono-74"/>
     <use x="240.820312" xlink:href="#DejaVuSansMono-28"/>
     <use x="301.025391" xlink:href="#DejaVuSansMono-74"/>
     <use x="361.230469" xlink:href="#DejaVuSansMono-2c"/>
     <use x="421.435547" xlink:href="#DejaVuSansMono-20"/>
     <use x="481.640625" xlink:href="#DejaVuSansMono-62"/>
     <use x="541.845703" xlink:href="#DejaVuSansMono-69"/>
     <use x="602.050781" xlink:href="#DejaVuSansMono-6e"/>
     <use x="662.255859" xlink:href="#DejaVuSansMono-73"/>
     <use x="722.460938" xlink:href="#DejaVuSansMono-3d"/>
     <use x="782.666016" xlink:href="#DejaVuSansMono-22"/>
     <use x="842.871094" xlink:href="#DejaVuSansMono-6b"/>
     <use x="903.076172" xlink:href="#DejaVuSansMono-6e"/>
     <use x="963.28125" xlink:href="#DejaVuSansMono-75"/>
     <use x="1023.486328" xlink:href="#DejaVuSansMono-74"/>
     <use x="1083.691406" xlink:href="#DejaVuSansMono-68"/>
     <use x="1143.896484" xlink:href="#DejaVuSansMono-22"/>
     <use x="1204.101562" xlink:href="#DejaVuSansMono-29"/>
    </g>
   </g>
  </g>
  <g id="axes_4">
   <g id="patch_20">
    <path d="M 391.673432 391.832187 
L 669.85525 391.832187 
L 669.85525 244.664187 
L 391.673432 244.664187 
z
" style="fill:#ffffff;"/>
   </g>
   <g id="matplotlib.axis_7">
    <g id="xtick_22">
     <g id="line2d_34"/>
     <g id="text_43">
      <!-- −15 -->
      <g style="fill:#565656;" transform="translate(391.525624 406.950312)scale(0.12 -0.12)">
       <use xlink:href="#DejaVuSans-2212"/>
       <use x="83.789062" xlink:href="#DejaVuSans-31"/>
       <use x="147.412109" xlink:href="#DejaVuSans-35"/>
      </g>
     </g>
    </g>
    <g id="xtick_23">
     <g id="line2d_35"/>
     <g id="text_44">
      <!-- −10 -->
      <g style="fill:#565656;" transform="translate(433.909048 406.950312)scale(0.12 -0.12)">
       <use xlink:href="#DejaVuSans-2212"/>
       <use x="83.789062" xlink:href="#DejaVuSans-31"/>
       <use x="147.412109" xlink:href="#DejaVuSans-30"/>
      </g>
     </g>
    </g>
    <g id="xtick_24">
     <g id="line2d_36"/>
     <g id="text_45">
      <!-- −5 -->
      <g style="fill:#565656;" transform="translate(480.109972 406.950312)scale(0.12 -0.12)">
       <use xlink:href="#DejaVuSans-2212"/>
       <use x="83.789062" xlink:href="#DejaVuSans-35"/>
      </g>
     </g>
    </g>
    <g id="xtick_25">
     <g id="line2d_37"/>
     <g id="text_46">
      <!-- 0 -->
      <g style="fill:#565656;" transform="translate(527.521208 406.950312)scale(0.12 -0.12)">
       <use xlink:href="#DejaVuSans-30"/>
      </g>
     </g>
    </g>
    <g id="xtick_26">
     <g id="line2d_38"/>
     <g id="text_47">
      <!-- 5 -->
      <g style="fill:#565656;" transform="translate(569.904631 406.950312)scale(0.12 -0.12)">
       <use xlink:href="#DejaVuSans-35"/>
      </g>
     </g>
    </g>
    <g id="xtick_27">
     <g id="line2d_39"/>
     <g id="text_48">
      <!-- 10 -->
      <g style="fill:#565656;" transform="translate(608.470555 406.950312)scale(0.12 -0.12)">
       <use xlink:href="#DejaVuSans-31"/>
       <use x="63.623047" xlink:href="#DejaVuSans-30"/>
      </g>
     </g>
    </g>
    <g id="xtick_28">
     <g id="line2d_40"/>
     <g id="text_49">
      <!-- 15 -->
      <g style="fill:#565656;" transform="translate(650.853979 406.950312)scale(0.12 -0.12)">
       <use xlink:href="#DejaVuSans-31"/>
       <use x="63.623047" xlink:href="#DejaVuSans-35"/>
      </g>
     </g>
    </g>
    <g id="text_50">
     <!-- t -->
     <g transform="translate(527.941716 424.387687)scale(0.144 -0.144)">
      <use xlink:href="#DejaVuSans-74"/>
     </g>
    </g>
   </g>
   <g id="matplotlib.axis_8">
    <g id="ytick_13">
     <g id="line2d_41"/>
     <g id="text_51">
      <!-- 0.00 -->
      <g style="fill:#565656;" transform="translate(358.954682 396.39125)scale(0.12 -0.12)">
       <use xlink:href="#DejaVuSans-30"/>
       <use x="63.623047" xlink:href="#DejaVuSans-2e"/>
       <use x="95.410156" xlink:href="#DejaVuSans-30"/>
       <use x="159.033203" xlink:href="#DejaVuSans-30"/>
      </g>
     </g>
    </g>
    <g id="ytick_14">
     <g id="line2d_42"/>
     <g id="text_52">
      <!-- 0.05 -->
      <g style="fill:#565656;" transform="translate(358.954682 363.044203)scale(0.12 -0.12)">
       <use xlink:href="#DejaVuSans-30"/>
       <use x="63.623047" xlink:href="#DejaVuSans-2e"/>
       <use x="95.410156" xlink:href="#DejaVuSans-30"/>
       <use x="159.033203" xlink:href="#DejaVuSans-35"/>
      </g>
     </g>
    </g>
    <g id="ytick_15">
     <g id="line2d_43"/>
     <g id="text_53">
      <!-- 0.10 -->
      <g style="fill:#565656;" transform="translate(358.954682 329.697157)scale(0.12 -0.12)">
       <use xlink:href="#DejaVuSans-30"/>
       <use x="63.623047" xlink:href="#DejaVuSans-2e"/>
       <use x="95.410156" xlink:href="#DejaVuSans-31"/>
       <use x="159.033203" xlink:href="#DejaVuSans-30"/>
      </g>
     </g>
    </g>
    <g id="ytick_16">
     <g id="line2d_44"/>
     <g id="text_54">
      <!-- 0.15 -->
      <g style="fill:#565656;" transform="translate(358.954682 296.35011)scale(0.12 -0.12)">
       <use xlink:href="#DejaVuSans-30"/>
       <use x="63.623047" xlink:href="#DejaVuSans-2e"/>
       <use x="95.410156" xlink:href="#DejaVuSans-31"/>
       <use x="159.033203" xlink:href="#DejaVuSans-35"/>
      </g>
     </g>
    </g>
    <g id="ytick_17">
     <g id="line2d_45"/>
     <g id="text_55">
      <!-- 0.20 -->
      <defs>
       <path d="M 19.1875 8.296875 
L 53.609375 8.296875 
L 53.609375 0 
L 7.328125 0 
L 7.328125 8.296875 
Q 12.9375 14.109375 22.625 23.890625 
Q 32.328125 33.6875 34.8125 36.53125 
Q 39.546875 41.84375 41.421875 45.53125 
Q 43.3125 49.21875 43.3125 52.78125 
Q 43.3125 58.59375 39.234375 62.25 
Q 35.15625 65.921875 28.609375 65.921875 
Q 23.96875 65.921875 18.8125 64.3125 
Q 13.671875 62.703125 7.8125 59.421875 
L 7.8125 69.390625 
Q 13.765625 71.78125 18.9375 73 
Q 24.125 74.21875 28.421875 74.21875 
Q 39.75 74.21875 46.484375 68.546875 
Q 53.21875 62.890625 53.21875 53.421875 
Q 53.21875 48.921875 51.53125 44.890625 
Q 49.859375 40.875 45.40625 35.40625 
Q 44.1875 33.984375 37.640625 27.21875 
Q 31.109375 20.453125 19.1875 8.296875 
" id="DejaVuSans-32"/>
      </defs>
      <g style="fill:#565656;" transform="translate(358.954682 263.003063)scale(0.12 -0.12)">
       <use xlink:href="#DejaVuSans-30"/>
       <use x="63.623047" xlink:href="#DejaVuSans-2e"/>
       <use x="95.410156" xlink:href="#DejaVuSans-32"/>
       <use x="159.033203" xlink:href="#DejaVuSans-30"/>
      </g>
     </g>
    </g>
    <g id="text_56">
     <!-- P(t) -->
     <g transform="translate(351.959932 331.030437)rotate(-90)scale(0.144 -0.144)">
      <use xlink:href="#DejaVuSans-50"/>
      <use x="60.302734" xlink:href="#DejaVuSans-28"/>
      <use x="99.316406" xlink:href="#DejaVuSans-74"/>
      <use x="138.525391" xlink:href="#DejaVuSans-29"/>
     </g>
    </g>
   </g>
   <g id="patch_21">
    <path clip-path="url(#pa4503f051a)" d="M 404.31806 391.832187 
L 404.31806 389.114883 
L 453.543459 389.114883 
L 453.543459 385.791691 
L 463.929554 385.791691 
L 463.929554 378.955512 
L 477.810603 378.955512 
L 477.810603 359.80911 
L 488.345514 359.80911 
L 488.345514 330.075591 
L 491.757331 330.075591 
L 491.757331 295.041123 
L 495.756425 295.041123 
L 495.756425 251.672187 
L 499.337314 251.672187 
L 499.337314 289.834994 
L 502.470777 289.834994 
L 502.470777 336.69672 
L 509.383894 336.69672 
L 509.383894 357.930068 
L 520.27763 357.930068 
L 520.27763 317.684485 
L 525.561831 317.684485 
L 525.561831 365.339893 
L 540.440832 365.339893 
L 540.440832 347.453506 
L 545.695447 347.453506 
L 545.695447 319.388611 
L 550.744474 319.388611 
L 550.744474 350.705922 
L 571.122544 350.705922 
L 571.122544 366.943414 
L 579.445616 366.943414 
L 579.445616 380.376529 
L 591.018646 380.376529 
L 591.018646 387.268244 
L 623.698444 387.268244 
L 623.698444 390.066083 
L 657.210622 390.066083 
L 657.210622 391.832187 
L 623.698444 391.832187 
L 623.698444 391.832187 
L 591.018646 391.832187 
L 591.018646 391.832187 
L 579.445616 391.832187 
L 579.445616 391.832187 
L 571.122544 391.832187 
L 571.122544 391.832187 
L 550.744474 391.832187 
L 550.744474 391.832187 
L 545.695447 391.832187 
L 545.695447 391.832187 
L 540.440832 391.832187 
L 540.440832 391.832187 
L 525.561831 391.832187 
L 525.561831 391.832187 
L 520.27763 391.832187 
L 520.27763 391.832187 
L 509.383894 391.832187 
L 509.383894 391.832187 
L 502.470777 391.832187 
L 502.470777 391.832187 
L 499.337314 391.832187 
L 499.337314 391.832187 
L 495.756425 391.832187 
L 495.756425 391.832187 
L 491.757331 391.832187 
L 491.757331 391.832187 
L 488.345514 391.832187 
L 488.345514 391.832187 
L 477.810603 391.832187 
L 477.810603 391.832187 
L 463.929554 391.832187 
L 463.929554 391.832187 
L 453.543459 391.832187 
L 453.543459 391.832187 
z
" style="fill:#e24a33;opacity:0.4;"/>
   </g>
   <g id="patch_22">
    <path d="M 391.673432 391.832187 
L 391.673432 244.664187 
" style="fill:none;stroke:#aaaaaa;stroke-linecap:square;stroke-linejoin:miter;"/>
   </g>
   <g id="patch_23">
    <path d="M 669.85525 391.832187 
L 669.85525 244.664187 
" style="fill:none;stroke:#aaaaaa;stroke-linecap:square;stroke-linejoin:miter;"/>
   </g>
   <g id="patch_24">
    <path d="M 391.673432 391.832187 
L 669.85525 391.832187 
" style="fill:none;stroke:#aaaaaa;stroke-linecap:square;stroke-linejoin:miter;"/>
   </g>
   <g id="patch_25">
    <path d="M 391.673432 244.664187 
L 669.85525 244.664187 
" style="fill:none;stroke:#aaaaaa;stroke-linecap:square;stroke-linejoin:miter;"/>
   </g>
   <g id="text_57">
    <!-- hist(t, bins="blocks") -->
    <defs>
     <path d="M 31.203125 19.828125 
Q 31.203125 13.765625 33.421875 10.6875 
Q 35.640625 7.625 39.984375 7.625 
L 50.484375 7.625 
L 50.484375 0 
L 39.109375 0 
Q 31.0625 0 26.640625 5.171875 
Q 22.21875 10.359375 22.21875 19.828125 
L 22.21875 69.484375 
L 7.8125 69.484375 
L 7.8125 76.515625 
L 31.203125 76.515625 
z
" id="DejaVuSansMono-6c"/>
    </defs>
    <g transform="translate(438.051528 238.664187)scale(0.14 -0.14)">
     <use xlink:href="#DejaVuSansMono-68"/>
     <use x="60.205078" xlink:href="#DejaVuSansMono-69"/>
     <use x="120.410156" xlink:href="#DejaVuSansMono-73"/>
     <use x="180.615234" xlink:href="#DejaVuSansMono-74"/>
     <use x="240.820312" xlink:href="#DejaVuSansMono-28"/>
     <use x="301.025391" xlink:href="#DejaVuSansMono-74"/>
     <use x="361.230469" xlink:href="#DejaVuSansMono-2c"/>
     <use x="421.435547" xlink:href="#DejaVuSansMono-20"/>
     <use x="481.640625" xlink:href="#DejaVuSansMono-62"/>
     <use x="541.845703" xlink:href="#DejaVuSansMono-69"/>
     <use x="602.050781" xlink:href="#DejaVuSansMono-6e"/>
     <use x="662.255859" xlink:href="#DejaVuSansMono-73"/>
     <use x="722.460938" xlink:href="#DejaVuSansMono-3d"/>
     <use x="782.666016" xlink:href="#DejaVuSansMono-22"/>
     <use x="842.871094" xlink:href="#DejaVuSansMono-62"/>
     <use x="903.076172" xlink:href="#DejaVuSansMono-6c"/>
     <use x="963.28125" xlink:href="#DejaVuSansMono-6f"/>
     <use x="1023.486328" xlink:href="#DejaVuSansMono-63"/>
     <use x="1083.691406" xlink:href="#DejaVuSansMono-6b"/>
     <use x="1143.896484" xlink:href="#DejaVuSansMono-73"/>
     <use x="1204.101562" xlink:href="#DejaVuSansMono-22"/>
     <use x="1264.306641" xlink:href="#DejaVuSansMono-29"/>
    </g>
   </g>
  </g>
 </g>
 <defs>
  <clipPath id="p27f86f9dd7">
   <rect height="147.168" width="278.181818" x="57.85525" y="23.912188"/>
  </clipPath>
  <clipPath id="p185defcfbf">
   <rect height="147.168" width="278.181818" x="391.673432" y="23.912188"/>
  </clipPath>
  <clipPath id="pa508364a32">
   <rect height="147.168" width="278.181818" x="57.85525" y="244.664187"/>
  </clipPath>
  <clipPath id="pa4503f051a">
   <rect height="147.168" width="278.181818" x="391.673432" y="244.664187"/>
  </clipPath>
 </defs>
</svg>
