<?xml version="1.0" encoding="utf-8" standalone="no"?>
<!DOCTYPE svg PUBLIC "-//W3C//DTD SVG 1.1//EN"
  "http://www.w3.org/Graphics/SVG/1.1/DTD/svg11.dtd">
<!-- Created with matplotlib (http://matplotlib.org/) -->
<svg height="355pt" version="1.1" viewBox="0 0 826 355" width="826pt" xmlns="http://www.w3.org/2000/svg" xmlns:xlink="http://www.w3.org/1999/xlink">
 <defs>
  <style type="text/css">
*{stroke-linecap:butt;stroke-linejoin:round;}
  </style>
 </defs>
 <g id="figure_1">
  <g id="patch_1">
   <path d="M 0 355.291875 
L 826.550937 355.291875 
L 826.550937 0 
L 0 0 
z
" style="fill:none;"/>
  </g>
  <g id="axes_1">
   <g id="patch_2">
    <path d="M 51.079375 316.8 
L 396.679375 316.8 
L 396.679375 43.2 
L 51.079375 43.2 
z
" style="fill:#e5e5e5;"/>
   </g>
   <g id="matplotlib.axis_1">
    <g id="xtick_1">
     <g id="line2d_1">
      <path clip-path="url(#pd8daacba8b)" d="M 51.079375 316.8 
L 51.079375 43.2 
" style="fill:none;stroke:#ffffff;stroke-linecap:square;stroke-width:0.8;"/>
     </g>
     <g id="line2d_2"/>
     <g id="text_1">
      <!-- 0 -->
      <defs>
       <path d="M 31.78125 66.40625 
Q 24.171875 66.40625 20.328125 58.90625 
Q 16.5 51.421875 16.5 36.375 
Q 16.5 21.390625 20.328125 13.890625 
Q 24.171875 6.390625 31.78125 6.390625 
Q 39.453125 6.390625 43.28125 13.890625 
Q 47.125 21.390625 47.125 36.375 
Q 47.125 51.421875 43.28125 58.90625 
Q 39.453125 66.40625 31.78125 66.40625 
M 31.78125 74.21875 
Q 44.046875 74.21875 50.515625 64.515625 
Q 56.984375 54.828125 56.984375 36.375 
Q 56.984375 17.96875 50.515625 8.265625 
Q 44.046875 -1.421875 31.78125 -1.421875 
Q 19.53125 -1.421875 13.0625 8.265625 
Q 6.59375 17.96875 6.59375 36.375 
Q 6.59375 54.828125 13.0625 64.515625 
Q 19.53125 74.21875 31.78125 74.21875 
" id="DejaVuSans-30"/>
      </defs>
      <g style="fill:#555555;" transform="translate(47.898125 330.398437)scale(0.1 -0.1)">
       <use xlink:href="#DejaVuSans-30"/>
      </g>
     </g>
    </g>
    <g id="xtick_2">
     <g id="line2d_3">
      <path clip-path="url(#pd8daacba8b)" d="M 120.199375 316.8 
L 120.199375 43.2 
" style="fill:none;stroke:#ffffff;stroke-linecap:square;stroke-width:0.8;"/>
     </g>
     <g id="line2d_4"/>
     <g id="text_2">
      <!-- 10 -->
      <defs>
       <path d="M 12.40625 8.296875 
L 28.515625 8.296875 
L 28.515625 63.921875 
L 10.984375 60.40625 
L 10.984375 69.390625 
L 28.421875 72.90625 
L 38.28125 72.90625 
L 38.28125 8.296875 
L 54.390625 8.296875 
L 54.390625 0 
L 12.40625 0 
z
" id="DejaVuSans-31"/>
      </defs>
      <g style="fill:#555555;" transform="translate(113.836875 330.398437)scale(0.1 -0.1)">
       <use xlink:href="#DejaVuSans-31"/>
       <use x="63.623047" xlink:href="#DejaVuSans-30"/>
      </g>
     </g>
    </g>
    <g id="xtick_3">
     <g id="line2d_5">
      <path clip-path="url(#pd8daacba8b)" d="M 189.319375 316.8 
L 189.319375 43.2 
" style="fill:none;stroke:#ffffff;stroke-linecap:square;stroke-width:0.8;"/>
     </g>
     <g id="line2d_6"/>
     <g id="text_3">
      <!-- 20 -->
      <defs>
       <path d="M 19.1875 8.296875 
L 53.609375 8.296875 
L 53.609375 0 
L 7.328125 0 
L 7.328125 8.296875 
Q 12.9375 14.109375 22.625 23.890625 
Q 32.328125 33.6875 34.8125 36.53125 
Q 39.546875 41.84375 41.421875 45.53125 
Q 43.3125 49.21875 43.3125 52.78125 
Q 43.3125 58.59375 39.234375 62.25 
Q 35.15625 65.921875 28.609375 65.921875 
Q 23.96875 65.921875 18.8125 64.3125 
Q 13.671875 62.703125 7.8125 59.421875 
L 7.8125 69.390625 
Q 13.765625 71.78125 18.9375 73 
Q 24.125 74.21875 28.421875 74.21875 
Q 39.75 74.21875 46.484375 68.546875 
Q 53.21875 62.890625 53.21875 53.421875 
Q 53.21875 48.921875 51.53125 44.890625 
Q 49.859375 40.875 45.40625 35.40625 
Q 44.1875 33.984375 37.640625 27.21875 
Q 31.109375 20.453125 19.1875 8.296875 
" id="DejaVuSans-32"/>
      </defs>
      <g style="fill:#555555;" transform="translate(182.956875 330.398437)scale(0.1 -0.1)">
       <use xlink:href="#DejaVuSans-32"/>
       <use x="63.623047" xlink:href="#DejaVuSans-30"/>
      </g>
     </g>
    </g>
    <g id="xtick_4">
     <g id="line2d_7">
      <path clip-path="url(#pd8daacba8b)" d="M 258.439375 316.8 
L 258.439375 43.2 
" style="fill:none;stroke:#ffffff;stroke-linecap:square;stroke-width:0.8;"/>
     </g>
     <g id="line2d_8"/>
     <g id="text_4">
      <!-- 30 -->
      <defs>
       <path d="M 40.578125 39.3125 
Q 47.65625 37.796875 51.625 33 
Q 55.609375 28.21875 55.609375 21.1875 
Q 55.609375 10.40625 48.1875 4.484375 
Q 40.765625 -1.421875 27.09375 -1.421875 
Q 22.515625 -1.421875 17.65625 -0.515625 
Q 12.796875 0.390625 7.625 2.203125 
L 7.625 11.71875 
Q 11.71875 9.328125 16.59375 8.109375 
Q 21.484375 6.890625 26.8125 6.890625 
Q 36.078125 6.890625 40.9375 10.546875 
Q 45.796875 14.203125 45.796875 21.1875 
Q 45.796875 27.640625 41.28125 31.265625 
Q 36.765625 34.90625 28.71875 34.90625 
L 20.21875 34.90625 
L 20.21875 43.015625 
L 29.109375 43.015625 
Q 36.375 43.015625 40.234375 45.921875 
Q 44.09375 48.828125 44.09375 54.296875 
Q 44.09375 59.90625 40.109375 62.90625 
Q 36.140625 65.921875 28.71875 65.921875 
Q 24.65625 65.921875 20.015625 65.03125 
Q 15.375 64.15625 9.8125 62.3125 
L 9.8125 71.09375 
Q 15.4375 72.65625 20.34375 73.4375 
Q 25.25 74.21875 29.59375 74.21875 
Q 40.828125 74.21875 47.359375 69.109375 
Q 53.90625 64.015625 53.90625 55.328125 
Q 53.90625 49.265625 50.4375 45.09375 
Q 46.96875 40.921875 40.578125 39.3125 
" id="DejaVuSans-33"/>
      </defs>
      <g style="fill:#555555;" transform="translate(252.076875 330.398437)scale(0.1 -0.1)">
       <use xlink:href="#DejaVuSans-33"/>
       <use x="63.623047" xlink:href="#DejaVuSans-30"/>
      </g>
     </g>
    </g>
    <g id="xtick_5">
     <g id="line2d_9">
      <path clip-path="url(#pd8daacba8b)" d="M 327.559375 316.8 
L 327.559375 43.2 
" style="fill:none;stroke:#ffffff;stroke-linecap:square;stroke-width:0.8;"/>
     </g>
     <g id="line2d_10"/>
     <g id="text_5">
      <!-- 40 -->
      <defs>
       <path d="M 37.796875 64.3125 
L 12.890625 25.390625 
L 37.796875 25.390625 
z
M 35.203125 72.90625 
L 47.609375 72.90625 
L 47.609375 25.390625 
L 58.015625 25.390625 
L 58.015625 17.1875 
L 47.609375 17.1875 
L 47.609375 0 
L 37.796875 0 
L 37.796875 17.1875 
L 4.890625 17.1875 
L 4.890625 26.703125 
z
" id="DejaVuSans-34"/>
      </defs>
      <g style="fill:#555555;" transform="translate(321.196875 330.398437)scale(0.1 -0.1)">
       <use xlink:href="#DejaVuSans-34"/>
       <use x="63.623047" xlink:href="#DejaVuSans-30"/>
      </g>
     </g>
    </g>
    <g id="xtick_6">
     <g id="line2d_11">
      <path clip-path="url(#pd8daacba8b)" d="M 396.679375 316.8 
L 396.679375 43.2 
" style="fill:none;stroke:#ffffff;stroke-linecap:square;stroke-width:0.8;"/>
     </g>
     <g id="line2d_12"/>
     <g id="text_6">
      <!-- 50 -->
      <defs>
       <path d="M 10.796875 72.90625 
L 49.515625 72.90625 
L 49.515625 64.59375 
L 19.828125 64.59375 
L 19.828125 46.734375 
Q 21.96875 47.46875 24.109375 47.828125 
Q 26.265625 48.1875 28.421875 48.1875 
Q 40.625 48.1875 47.75 41.5 
Q 54.890625 34.8125 54.890625 23.390625 
Q 54.890625 11.625 47.5625 5.09375 
Q 40.234375 -1.421875 26.90625 -1.421875 
Q 22.3125 -1.421875 17.546875 -0.640625 
Q 12.796875 0.140625 7.71875 1.703125 
L 7.71875 11.625 
Q 12.109375 9.234375 16.796875 8.0625 
Q 21.484375 6.890625 26.703125 6.890625 
Q 35.15625 6.890625 40.078125 11.328125 
Q 45.015625 15.765625 45.015625 23.390625 
Q 45.015625 31 40.078125 35.4375 
Q 35.15625 39.890625 26.703125 39.890625 
Q 22.75 39.890625 18.8125 39.015625 
Q 14.890625 38.140625 10.796875 36.28125 
z
" id="DejaVuSans-35"/>
      </defs>
      <g style="fill:#555555;" transform="translate(390.316875 330.398437)scale(0.1 -0.1)">
       <use xlink:href="#DejaVuSans-35"/>
       <use x="63.623047" xlink:href="#DejaVuSans-30"/>
      </g>
     </g>
    </g>
    <g id="text_7">
     <!-- Observation time (days) -->
     <defs>
      <path d="M 39.40625 66.21875 
Q 28.65625 66.21875 22.328125 58.203125 
Q 16.015625 50.203125 16.015625 36.375 
Q 16.015625 22.609375 22.328125 14.59375 
Q 28.65625 6.59375 39.40625 6.59375 
Q 50.140625 6.59375 56.421875 14.59375 
Q 62.703125 22.609375 62.703125 36.375 
Q 62.703125 50.203125 56.421875 58.203125 
Q 50.140625 66.21875 39.40625 66.21875 
M 39.40625 74.21875 
Q 54.734375 74.21875 63.90625 63.9375 
Q 73.09375 53.65625 73.09375 36.375 
Q 73.09375 19.140625 63.90625 8.859375 
Q 54.734375 -1.421875 39.40625 -1.421875 
Q 24.03125 -1.421875 14.8125 8.828125 
Q 5.609375 19.09375 5.609375 36.375 
Q 5.609375 53.65625 14.8125 63.9375 
Q 24.03125 74.21875 39.40625 74.21875 
" id="DejaVuSans-4f"/>
      <path d="M 48.6875 27.296875 
Q 48.6875 37.203125 44.609375 42.84375 
Q 40.53125 48.484375 33.40625 48.484375 
Q 26.265625 48.484375 22.1875 42.84375 
Q 18.109375 37.203125 18.109375 27.296875 
Q 18.109375 17.390625 22.1875 11.75 
Q 26.265625 6.109375 33.40625 6.109375 
Q 40.53125 6.109375 44.609375 11.75 
Q 48.6875 17.390625 48.6875 27.296875 
M 18.109375 46.390625 
Q 20.953125 51.265625 25.265625 53.625 
Q 29.59375 56 35.59375 56 
Q 45.5625 56 51.78125 48.09375 
Q 58.015625 40.1875 58.015625 27.296875 
Q 58.015625 14.40625 51.78125 6.484375 
Q 45.5625 -1.421875 35.59375 -1.421875 
Q 29.59375 -1.421875 25.265625 0.953125 
Q 20.953125 3.328125 18.109375 8.203125 
L 18.109375 0 
L 9.078125 0 
L 9.078125 75.984375 
L 18.109375 75.984375 
z
" id="DejaVuSans-62"/>
      <path d="M 44.28125 53.078125 
L 44.28125 44.578125 
Q 40.484375 46.53125 36.375 47.5 
Q 32.28125 48.484375 27.875 48.484375 
Q 21.1875 48.484375 17.84375 46.4375 
Q 14.5 44.390625 14.5 40.28125 
Q 14.5 37.15625 16.890625 35.375 
Q 19.28125 33.59375 26.515625 31.984375 
L 29.59375 31.296875 
Q 39.15625 29.25 43.1875 25.515625 
Q 47.21875 21.78125 47.21875 15.09375 
Q 47.21875 7.46875 41.1875 3.015625 
Q 35.15625 -1.421875 24.609375 -1.421875 
Q 20.21875 -1.421875 15.453125 -0.5625 
Q 10.6875 0.296875 5.421875 2 
L 5.421875 11.28125 
Q 10.40625 8.6875 15.234375 7.390625 
Q 20.0625 6.109375 24.8125 6.109375 
Q 31.15625 6.109375 34.5625 8.28125 
Q 37.984375 10.453125 37.984375 14.40625 
Q 37.984375 18.0625 35.515625 20.015625 
Q 33.0625 21.96875 24.703125 23.78125 
L 21.578125 24.515625 
Q 13.234375 26.265625 9.515625 29.90625 
Q 5.8125 33.546875 5.8125 39.890625 
Q 5.8125 47.609375 11.28125 51.796875 
Q 16.75 56 26.8125 56 
Q 31.78125 56 36.171875 55.265625 
Q 40.578125 54.546875 44.28125 53.078125 
" id="DejaVuSans-73"/>
      <path d="M 56.203125 29.59375 
L 56.203125 25.203125 
L 14.890625 25.203125 
Q 15.484375 15.921875 20.484375 11.0625 
Q 25.484375 6.203125 34.421875 6.203125 
Q 39.59375 6.203125 44.453125 7.46875 
Q 49.3125 8.734375 54.109375 11.28125 
L 54.109375 2.78125 
Q 49.265625 0.734375 44.1875 -0.34375 
Q 39.109375 -1.421875 33.890625 -1.421875 
Q 20.796875 -1.421875 13.15625 6.1875 
Q 5.515625 13.8125 5.515625 26.8125 
Q 5.515625 40.234375 12.765625 48.109375 
Q 20.015625 56 32.328125 56 
Q 43.359375 56 49.78125 48.890625 
Q 56.203125 41.796875 56.203125 29.59375 
M 47.21875 32.234375 
Q 47.125 39.59375 43.09375 43.984375 
Q 39.0625 48.390625 32.421875 48.390625 
Q 24.90625 48.390625 20.390625 44.140625 
Q 15.875 39.890625 15.1875 32.171875 
z
" id="DejaVuSans-65"/>
      <path d="M 41.109375 46.296875 
Q 39.59375 47.171875 37.8125 47.578125 
Q 36.03125 48 33.890625 48 
Q 26.265625 48 22.1875 43.046875 
Q 18.109375 38.09375 18.109375 28.8125 
L 18.109375 0 
L 9.078125 0 
L 9.078125 54.6875 
L 18.109375 54.6875 
L 18.109375 46.1875 
Q 20.953125 51.171875 25.484375 53.578125 
Q 30.03125 56 36.53125 56 
Q 37.453125 56 38.578125 55.875 
Q 39.703125 55.765625 41.0625 55.515625 
z
" id="DejaVuSans-72"/>
      <path d="M 2.984375 54.6875 
L 12.5 54.6875 
L 29.59375 8.796875 
L 46.6875 54.6875 
L 56.203125 54.6875 
L 35.6875 0 
L 23.484375 0 
z
" id="DejaVuSans-76"/>
      <path d="M 34.28125 27.484375 
Q 23.390625 27.484375 19.1875 25 
Q 14.984375 22.515625 14.984375 16.5 
Q 14.984375 11.71875 18.140625 8.90625 
Q 21.296875 6.109375 26.703125 6.109375 
Q 34.1875 6.109375 38.703125 11.40625 
Q 43.21875 16.703125 43.21875 25.484375 
L 43.21875 27.484375 
z
M 52.203125 31.203125 
L 52.203125 0 
L 43.21875 0 
L 43.21875 8.296875 
Q 40.140625 3.328125 35.546875 0.953125 
Q 30.953125 -1.421875 24.3125 -1.421875 
Q 15.921875 -1.421875 10.953125 3.296875 
Q 6 8.015625 6 15.921875 
Q 6 25.140625 12.171875 29.828125 
Q 18.359375 34.515625 30.609375 34.515625 
L 43.21875 34.515625 
L 43.21875 35.40625 
Q 43.21875 41.609375 39.140625 45 
Q 35.0625 48.390625 27.6875 48.390625 
Q 23 48.390625 18.546875 47.265625 
Q 14.109375 46.140625 10.015625 43.890625 
L 10.015625 52.203125 
Q 14.9375 54.109375 19.578125 55.046875 
Q 24.21875 56 28.609375 56 
Q 40.484375 56 46.34375 49.84375 
Q 52.203125 43.703125 52.203125 31.203125 
" id="DejaVuSans-61"/>
      <path d="M 18.3125 70.21875 
L 18.3125 54.6875 
L 36.8125 54.6875 
L 36.8125 47.703125 
L 18.3125 47.703125 
L 18.3125 18.015625 
Q 18.3125 11.328125 20.140625 9.421875 
Q 21.96875 7.515625 27.59375 7.515625 
L 36.8125 7.515625 
L 36.8125 0 
L 27.59375 0 
Q 17.1875 0 13.234375 3.875 
Q 9.28125 7.765625 9.28125 18.015625 
L 9.28125 47.703125 
L 2.6875 47.703125 
L 2.6875 54.6875 
L 9.28125 54.6875 
L 9.28125 70.21875 
z
" id="DejaVuSans-74"/>
      <path d="M 9.421875 54.6875 
L 18.40625 54.6875 
L 18.40625 0 
L 9.421875 0 
z
M 9.421875 75.984375 
L 18.40625 75.984375 
L 18.40625 64.59375 
L 9.421875 64.59375 
z
" id="DejaVuSans-69"/>
      <path d="M 30.609375 48.390625 
Q 23.390625 48.390625 19.1875 42.75 
Q 14.984375 37.109375 14.984375 27.296875 
Q 14.984375 17.484375 19.15625 11.84375 
Q 23.34375 6.203125 30.609375 6.203125 
Q 37.796875 6.203125 41.984375 11.859375 
Q 46.1875 17.53125 46.1875 27.296875 
Q 46.1875 37.015625 41.984375 42.703125 
Q 37.796875 48.390625 30.609375 48.390625 
M 30.609375 56 
Q 42.328125 56 49.015625 48.375 
Q 55.71875 40.765625 55.71875 27.296875 
Q 55.71875 13.875 49.015625 6.21875 
Q 42.328125 -1.421875 30.609375 -1.421875 
Q 18.84375 -1.421875 12.171875 6.21875 
Q 5.515625 13.875 5.515625 27.296875 
Q 5.515625 40.765625 12.171875 48.375 
Q 18.84375 56 30.609375 56 
" id="DejaVuSans-6f"/>
      <path d="M 54.890625 33.015625 
L 54.890625 0 
L 45.90625 0 
L 45.90625 32.71875 
Q 45.90625 40.484375 42.875 44.328125 
Q 39.84375 48.1875 33.796875 48.1875 
Q 26.515625 48.1875 22.3125 43.546875 
Q 18.109375 38.921875 18.109375 30.90625 
L 18.109375 0 
L 9.078125 0 
L 9.078125 54.6875 
L 18.109375 54.6875 
L 18.109375 46.1875 
Q 21.34375 51.125 25.703125 53.5625 
Q 30.078125 56 35.796875 56 
Q 45.21875 56 50.046875 50.171875 
Q 54.890625 44.34375 54.890625 33.015625 
" id="DejaVuSans-6e"/>
      <path id="DejaVuSans-20"/>
      <path d="M 52 44.1875 
Q 55.375 50.25 60.0625 53.125 
Q 64.75 56 71.09375 56 
Q 79.640625 56 84.28125 50.015625 
Q 88.921875 44.046875 88.921875 33.015625 
L 88.921875 0 
L 79.890625 0 
L 79.890625 32.71875 
Q 79.890625 40.578125 77.09375 44.375 
Q 74.3125 48.1875 68.609375 48.1875 
Q 61.625 48.1875 57.5625 43.546875 
Q 53.515625 38.921875 53.515625 30.90625 
L 53.515625 0 
L 44.484375 0 
L 44.484375 32.71875 
Q 44.484375 40.625 41.703125 44.40625 
Q 38.921875 48.1875 33.109375 48.1875 
Q 26.21875 48.1875 22.15625 43.53125 
Q 18.109375 38.875 18.109375 30.90625 
L 18.109375 0 
L 9.078125 0 
L 9.078125 54.6875 
L 18.109375 54.6875 
L 18.109375 46.1875 
Q 21.1875 51.21875 25.484375 53.609375 
Q 29.78125 56 35.6875 56 
Q 41.65625 56 45.828125 52.96875 
Q 50 49.953125 52 44.1875 
" id="DejaVuSans-6d"/>
      <path d="M 31 75.875 
Q 24.46875 64.65625 21.28125 53.65625 
Q 18.109375 42.671875 18.109375 31.390625 
Q 18.109375 20.125 21.3125 9.0625 
Q 24.515625 -2 31 -13.1875 
L 23.1875 -13.1875 
Q 15.875 -1.703125 12.234375 9.375 
Q 8.59375 20.453125 8.59375 31.390625 
Q 8.59375 42.28125 12.203125 53.3125 
Q 15.828125 64.359375 23.1875 75.875 
z
" id="DejaVuSans-28"/>
      <path d="M 45.40625 46.390625 
L 45.40625 75.984375 
L 54.390625 75.984375 
L 54.390625 0 
L 45.40625 0 
L 45.40625 8.203125 
Q 42.578125 3.328125 38.25 0.953125 
Q 33.9375 -1.421875 27.875 -1.421875 
Q 17.96875 -1.421875 11.734375 6.484375 
Q 5.515625 14.40625 5.515625 27.296875 
Q 5.515625 40.1875 11.734375 48.09375 
Q 17.96875 56 27.875 56 
Q 33.9375 56 38.25 53.625 
Q 42.578125 51.265625 45.40625 46.390625 
M 14.796875 27.296875 
Q 14.796875 17.390625 18.875 11.75 
Q 22.953125 6.109375 30.078125 6.109375 
Q 37.203125 6.109375 41.296875 11.75 
Q 45.40625 17.390625 45.40625 27.296875 
Q 45.40625 37.203125 41.296875 42.84375 
Q 37.203125 48.484375 30.078125 48.484375 
Q 22.953125 48.484375 18.875 42.84375 
Q 14.796875 37.203125 14.796875 27.296875 
" id="DejaVuSans-64"/>
      <path d="M 32.171875 -5.078125 
Q 28.375 -14.84375 24.75 -17.8125 
Q 21.140625 -20.796875 15.09375 -20.796875 
L 7.90625 -20.796875 
L 7.90625 -13.28125 
L 13.1875 -13.28125 
Q 16.890625 -13.28125 18.9375 -11.515625 
Q 21 -9.765625 23.484375 -3.21875 
L 25.09375 0.875 
L 2.984375 54.6875 
L 12.5 54.6875 
L 29.59375 11.921875 
L 46.6875 54.6875 
L 56.203125 54.6875 
z
" id="DejaVuSans-79"/>
      <path d="M 8.015625 75.875 
L 15.828125 75.875 
Q 23.140625 64.359375 26.78125 53.3125 
Q 30.421875 42.28125 30.421875 31.390625 
Q 30.421875 20.453125 26.78125 9.375 
Q 23.140625 -1.703125 15.828125 -13.1875 
L 8.015625 -13.1875 
Q 14.5 -2 17.703125 9.0625 
Q 20.90625 20.125 20.90625 31.390625 
Q 20.90625 42.671875 17.703125 53.65625 
Q 14.5 64.65625 8.015625 75.875 
" id="DejaVuSans-29"/>
     </defs>
     <g style="fill:#555555;" transform="translate(151.128437 345.59625)scale(0.12 -0.12)">
      <use xlink:href="#DejaVuSans-4f"/>
      <use x="78.710938" xlink:href="#DejaVuSans-62"/>
      <use x="142.1875" xlink:href="#DejaVuSans-73"/>
      <use x="194.287109" xlink:href="#DejaVuSans-65"/>
      <use x="255.810547" xlink:href="#DejaVuSans-72"/>
      <use x="296.923828" xlink:href="#DejaVuSans-76"/>
      <use x="356.103516" xlink:href="#DejaVuSans-61"/>
      <use x="417.382812" xlink:href="#DejaVuSans-74"/>
      <use x="456.591797" xlink:href="#DejaVuSans-69"/>
      <use x="484.375" xlink:href="#DejaVuSans-6f"/>
      <use x="545.556641" xlink:href="#DejaVuSans-6e"/>
      <use x="608.935547" xlink:href="#DejaVuSans-20"/>
      <use x="640.722656" xlink:href="#DejaVuSans-74"/>
      <use x="679.931641" xlink:href="#DejaVuSans-69"/>
      <use x="707.714844" xlink:href="#DejaVuSans-6d"/>
      <use x="805.126953" xlink:href="#DejaVuSans-65"/>
      <use x="866.650391" xlink:href="#DejaVuSans-20"/>
      <use x="898.4375" xlink:href="#DejaVuSans-28"/>
      <use x="937.451172" xlink:href="#DejaVuSans-64"/>
      <use x="1000.927734" xlink:href="#DejaVuSans-61"/>
      <use x="1062.207031" xlink:href="#DejaVuSans-79"/>
      <use x="1121.386719" xlink:href="#DejaVuSans-73"/>
      <use x="1173.486328" xlink:href="#DejaVuSans-29"/>
     </g>
    </g>
   </g>
   <g id="matplotlib.axis_2">
    <g id="ytick_1">
     <g id="line2d_13">
      <path clip-path="url(#pd8daacba8b)" d="M 51.079375 73.64022 
L 396.679375 73.64022 
" style="fill:none;stroke:#ffffff;stroke-linecap:square;stroke-width:0.8;"/>
     </g>
     <g id="line2d_14"/>
     <g id="text_8">
      <!-- 14.6 -->
      <defs>
       <path d="M 10.6875 12.40625 
L 21 12.40625 
L 21 0 
L 10.6875 0 
z
" id="DejaVuSans-2e"/>
       <path d="M 33.015625 40.375 
Q 26.375 40.375 22.484375 35.828125 
Q 18.609375 31.296875 18.609375 23.390625 
Q 18.609375 15.53125 22.484375 10.953125 
Q 26.375 6.390625 33.015625 6.390625 
Q 39.65625 6.390625 43.53125 10.953125 
Q 47.40625 15.53125 47.40625 23.390625 
Q 47.40625 31.296875 43.53125 35.828125 
Q 39.65625 40.375 33.015625 40.375 
M 52.59375 71.296875 
L 52.59375 62.3125 
Q 48.875 64.0625 45.09375 64.984375 
Q 41.3125 65.921875 37.59375 65.921875 
Q 27.828125 65.921875 22.671875 59.328125 
Q 17.53125 52.734375 16.796875 39.40625 
Q 19.671875 43.65625 24.015625 45.921875 
Q 28.375 48.1875 33.59375 48.1875 
Q 44.578125 48.1875 50.953125 41.515625 
Q 57.328125 34.859375 57.328125 23.390625 
Q 57.328125 12.15625 50.6875 5.359375 
Q 44.046875 -1.421875 33.015625 -1.421875 
Q 20.359375 -1.421875 13.671875 8.265625 
Q 6.984375 17.96875 6.984375 36.375 
Q 6.984375 53.65625 15.1875 63.9375 
Q 23.390625 74.21875 37.203125 74.21875 
Q 40.921875 74.21875 44.703125 73.484375 
Q 48.484375 72.75 52.59375 71.296875 
" id="DejaVuSans-36"/>
      </defs>
      <g style="fill:#555555;" transform="translate(22.81375 77.439439)scale(0.1 -0.1)">
       <use xlink:href="#DejaVuSans-31"/>
       <use x="63.623047" xlink:href="#DejaVuSans-34"/>
       <use x="127.246094" xlink:href="#DejaVuSans-2e"/>
       <use x="159.033203" xlink:href="#DejaVuSans-36"/>
      </g>
     </g>
    </g>
    <g id="ytick_2">
     <g id="line2d_15">
      <path clip-path="url(#pd8daacba8b)" d="M 51.079375 107.73084 
L 396.679375 107.73084 
" style="fill:none;stroke:#ffffff;stroke-linecap:square;stroke-width:0.8;"/>
     </g>
     <g id="line2d_16"/>
     <g id="text_9">
      <!-- 14.7 -->
      <defs>
       <path d="M 8.203125 72.90625 
L 55.078125 72.90625 
L 55.078125 68.703125 
L 28.609375 0 
L 18.3125 0 
L 43.21875 64.59375 
L 8.203125 64.59375 
z
" id="DejaVuSans-37"/>
      </defs>
      <g style="fill:#555555;" transform="translate(22.81375 111.530059)scale(0.1 -0.1)">
       <use xlink:href="#DejaVuSans-31"/>
       <use x="63.623047" xlink:href="#DejaVuSans-34"/>
       <use x="127.246094" xlink:href="#DejaVuSans-2e"/>
       <use x="159.033203" xlink:href="#DejaVuSans-37"/>
      </g>
     </g>
    </g>
    <g id="ytick_3">
     <g id="line2d_17">
      <path clip-path="url(#pd8daacba8b)" d="M 51.079375 141.82146 
L 396.679375 141.82146 
" style="fill:none;stroke:#ffffff;stroke-linecap:square;stroke-width:0.8;"/>
     </g>
     <g id="line2d_18"/>
     <g id="text_10">
      <!-- 14.8 -->
      <defs>
       <path d="M 31.78125 34.625 
Q 24.75 34.625 20.71875 30.859375 
Q 16.703125 27.09375 16.703125 20.515625 
Q 16.703125 13.921875 20.71875 10.15625 
Q 24.75 6.390625 31.78125 6.390625 
Q 38.8125 6.390625 42.859375 10.171875 
Q 46.921875 13.96875 46.921875 20.515625 
Q 46.921875 27.09375 42.890625 30.859375 
Q 38.875 34.625 31.78125 34.625 
M 21.921875 38.8125 
Q 15.578125 40.375 12.03125 44.71875 
Q 8.5 49.078125 8.5 55.328125 
Q 8.5 64.0625 14.71875 69.140625 
Q 20.953125 74.21875 31.78125 74.21875 
Q 42.671875 74.21875 48.875 69.140625 
Q 55.078125 64.0625 55.078125 55.328125 
Q 55.078125 49.078125 51.53125 44.71875 
Q 48 40.375 41.703125 38.8125 
Q 48.828125 37.15625 52.796875 32.3125 
Q 56.78125 27.484375 56.78125 20.515625 
Q 56.78125 9.90625 50.3125 4.234375 
Q 43.84375 -1.421875 31.78125 -1.421875 
Q 19.734375 -1.421875 13.25 4.234375 
Q 6.78125 9.90625 6.78125 20.515625 
Q 6.78125 27.484375 10.78125 32.3125 
Q 14.796875 37.15625 21.921875 38.8125 
M 18.3125 54.390625 
Q 18.3125 48.734375 21.84375 45.5625 
Q 25.390625 42.390625 31.78125 42.390625 
Q 38.140625 42.390625 41.71875 45.5625 
Q 45.3125 48.734375 45.3125 54.390625 
Q 45.3125 60.0625 41.71875 63.234375 
Q 38.140625 66.40625 31.78125 66.40625 
Q 25.390625 66.40625 21.84375 63.234375 
Q 18.3125 60.0625 18.3125 54.390625 
" id="DejaVuSans-38"/>
      </defs>
      <g style="fill:#555555;" transform="translate(22.81375 145.620678)scale(0.1 -0.1)">
       <use xlink:href="#DejaVuSans-31"/>
       <use x="63.623047" xlink:href="#DejaVuSans-34"/>
       <use x="127.246094" xlink:href="#DejaVuSans-2e"/>
       <use x="159.033203" xlink:href="#DejaVuSans-38"/>
      </g>
     </g>
    </g>
    <g id="ytick_4">
     <g id="line2d_19">
      <path clip-path="url(#pd8daacba8b)" d="M 51.079375 175.91208 
L 396.679375 175.91208 
" style="fill:none;stroke:#ffffff;stroke-linecap:square;stroke-width:0.8;"/>
     </g>
     <g id="line2d_20"/>
     <g id="text_11">
      <!-- 14.9 -->
      <defs>
       <path d="M 10.984375 1.515625 
L 10.984375 10.5 
Q 14.703125 8.734375 18.5 7.8125 
Q 22.3125 6.890625 25.984375 6.890625 
Q 35.75 6.890625 40.890625 13.453125 
Q 46.046875 20.015625 46.78125 33.40625 
Q 43.953125 29.203125 39.59375 26.953125 
Q 35.25 24.703125 29.984375 24.703125 
Q 19.046875 24.703125 12.671875 31.3125 
Q 6.296875 37.9375 6.296875 49.421875 
Q 6.296875 60.640625 12.9375 67.421875 
Q 19.578125 74.21875 30.609375 74.21875 
Q 43.265625 74.21875 49.921875 64.515625 
Q 56.59375 54.828125 56.59375 36.375 
Q 56.59375 19.140625 48.40625 8.859375 
Q 40.234375 -1.421875 26.421875 -1.421875 
Q 22.703125 -1.421875 18.890625 -0.6875 
Q 15.09375 0.046875 10.984375 1.515625 
M 30.609375 32.421875 
Q 37.25 32.421875 41.125 36.953125 
Q 45.015625 41.5 45.015625 49.421875 
Q 45.015625 57.28125 41.125 61.84375 
Q 37.25 66.40625 30.609375 66.40625 
Q 23.96875 66.40625 20.09375 61.84375 
Q 16.21875 57.28125 16.21875 49.421875 
Q 16.21875 41.5 20.09375 36.953125 
Q 23.96875 32.421875 30.609375 32.421875 
" id="DejaVuSans-39"/>
      </defs>
      <g style="fill:#555555;" transform="translate(22.81375 179.711298)scale(0.1 -0.1)">
       <use xlink:href="#DejaVuSans-31"/>
       <use x="63.623047" xlink:href="#DejaVuSans-34"/>
       <use x="127.246094" xlink:href="#DejaVuSans-2e"/>
       <use x="159.033203" xlink:href="#DejaVuSans-39"/>
      </g>
     </g>
    </g>
    <g id="ytick_5">
     <g id="line2d_21">
      <path clip-path="url(#pd8daacba8b)" d="M 51.079375 210.002699 
L 396.679375 210.002699 
" style="fill:none;stroke:#ffffff;stroke-linecap:square;stroke-width:0.8;"/>
     </g>
     <g id="line2d_22"/>
     <g id="text_12">
      <!-- 15.0 -->
      <g style="fill:#555555;" transform="translate(22.81375 213.801918)scale(0.1 -0.1)">
       <use xlink:href="#DejaVuSans-31"/>
       <use x="63.623047" xlink:href="#DejaVuSans-35"/>
       <use x="127.246094" xlink:href="#DejaVuSans-2e"/>
       <use x="159.033203" xlink:href="#DejaVuSans-30"/>
      </g>
     </g>
    </g>
    <g id="ytick_6">
     <g id="line2d_23">
      <path clip-path="url(#pd8daacba8b)" d="M 51.079375 244.093319 
L 396.679375 244.093319 
" style="fill:none;stroke:#ffffff;stroke-linecap:square;stroke-width:0.8;"/>
     </g>
     <g id="line2d_24"/>
     <g id="text_13">
      <!-- 15.1 -->
      <g style="fill:#555555;" transform="translate(22.81375 247.892538)scale(0.1 -0.1)">
       <use xlink:href="#DejaVuSans-31"/>
       <use x="63.623047" xlink:href="#DejaVuSans-35"/>
       <use x="127.246094" xlink:href="#DejaVuSans-2e"/>
       <use x="159.033203" xlink:href="#DejaVuSans-31"/>
      </g>
     </g>
    </g>
    <g id="ytick_7">
     <g id="line2d_25">
      <path clip-path="url(#pd8daacba8b)" d="M 51.079375 278.183939 
L 396.679375 278.183939 
" style="fill:none;stroke:#ffffff;stroke-linecap:square;stroke-width:0.8;"/>
     </g>
     <g id="line2d_26"/>
     <g id="text_14">
      <!-- 15.2 -->
      <g style="fill:#555555;" transform="translate(22.81375 281.983158)scale(0.1 -0.1)">
       <use xlink:href="#DejaVuSans-31"/>
       <use x="63.623047" xlink:href="#DejaVuSans-35"/>
       <use x="127.246094" xlink:href="#DejaVuSans-2e"/>
       <use x="159.033203" xlink:href="#DejaVuSans-32"/>
      </g>
     </g>
    </g>
    <g id="ytick_8">
     <g id="line2d_27">
      <path clip-path="url(#pd8daacba8b)" d="M 51.079375 312.274559 
L 396.679375 312.274559 
" style="fill:none;stroke:#ffffff;stroke-linecap:square;stroke-width:0.8;"/>
     </g>
     <g id="line2d_28"/>
     <g id="text_15">
      <!-- 15.3 -->
      <g style="fill:#555555;" transform="translate(22.81375 316.073777)scale(0.1 -0.1)">
       <use xlink:href="#DejaVuSans-31"/>
       <use x="63.623047" xlink:href="#DejaVuSans-35"/>
       <use x="127.246094" xlink:href="#DejaVuSans-2e"/>
       <use x="159.033203" xlink:href="#DejaVuSans-33"/>
      </g>
     </g>
    </g>
    <g id="text_16">
     <!-- Observed Magnitude -->
     <defs>
      <path d="M 9.8125 72.90625 
L 24.515625 72.90625 
L 43.109375 23.296875 
L 61.8125 72.90625 
L 76.515625 72.90625 
L 76.515625 0 
L 66.890625 0 
L 66.890625 64.015625 
L 48.09375 14.015625 
L 38.1875 14.015625 
L 19.390625 64.015625 
L 19.390625 0 
L 9.8125 0 
z
" id="DejaVuSans-4d"/>
      <path d="M 45.40625 27.984375 
Q 45.40625 37.75 41.375 43.109375 
Q 37.359375 48.484375 30.078125 48.484375 
Q 22.859375 48.484375 18.828125 43.109375 
Q 14.796875 37.75 14.796875 27.984375 
Q 14.796875 18.265625 18.828125 12.890625 
Q 22.859375 7.515625 30.078125 7.515625 
Q 37.359375 7.515625 41.375 12.890625 
Q 45.40625 18.265625 45.40625 27.984375 
M 54.390625 6.78125 
Q 54.390625 -7.171875 48.1875 -13.984375 
Q 42 -20.796875 29.203125 -20.796875 
Q 24.46875 -20.796875 20.265625 -20.09375 
Q 16.0625 -19.390625 12.109375 -17.921875 
L 12.109375 -9.1875 
Q 16.0625 -11.328125 19.921875 -12.34375 
Q 23.78125 -13.375 27.78125 -13.375 
Q 36.625 -13.375 41.015625 -8.765625 
Q 45.40625 -4.15625 45.40625 5.171875 
L 45.40625 9.625 
Q 42.625 4.78125 38.28125 2.390625 
Q 33.9375 0 27.875 0 
Q 17.828125 0 11.671875 7.65625 
Q 5.515625 15.328125 5.515625 27.984375 
Q 5.515625 40.671875 11.671875 48.328125 
Q 17.828125 56 27.875 56 
Q 33.9375 56 38.28125 53.609375 
Q 42.625 51.21875 45.40625 46.390625 
L 45.40625 54.6875 
L 54.390625 54.6875 
z
" id="DejaVuSans-67"/>
      <path d="M 8.5 21.578125 
L 8.5 54.6875 
L 17.484375 54.6875 
L 17.484375 21.921875 
Q 17.484375 14.15625 20.5 10.265625 
Q 23.53125 6.390625 29.59375 6.390625 
Q 36.859375 6.390625 41.078125 11.03125 
Q 45.3125 15.671875 45.3125 23.6875 
L 45.3125 54.6875 
L 54.296875 54.6875 
L 54.296875 0 
L 45.3125 0 
L 45.3125 8.40625 
Q 42.046875 3.421875 37.71875 1 
Q 33.40625 -1.421875 27.6875 -1.421875 
Q 18.265625 -1.421875 13.375 4.4375 
Q 8.5 10.296875 8.5 21.578125 
M 31.109375 56 
z
" id="DejaVuSans-75"/>
     </defs>
     <g style="fill:#555555;" transform="translate(16.318125 242.563125)rotate(-90)scale(0.12 -0.12)">
      <use xlink:href="#DejaVuSans-4f"/>
      <use x="78.710938" xlink:href="#DejaVuSans-62"/>
      <use x="142.1875" xlink:href="#DejaVuSans-73"/>
      <use x="194.287109" xlink:href="#DejaVuSans-65"/>
      <use x="255.810547" xlink:href="#DejaVuSans-72"/>
      <use x="296.923828" xlink:href="#DejaVuSans-76"/>
      <use x="356.103516" xlink:href="#DejaVuSans-65"/>
      <use x="417.626953" xlink:href="#DejaVuSans-64"/>
      <use x="481.103516" xlink:href="#DejaVuSans-20"/>
      <use x="512.890625" xlink:href="#DejaVuSans-4d"/>
      <use x="599.169922" xlink:href="#DejaVuSans-61"/>
      <use x="660.449219" xlink:href="#DejaVuSans-67"/>
      <use x="723.925781" xlink:href="#DejaVuSans-6e"/>
      <use x="787.304688" xlink:href="#DejaVuSans-69"/>
      <use x="815.087891" xlink:href="#DejaVuSans-74"/>
      <use x="854.296875" xlink:href="#DejaVuSans-75"/>
      <use x="917.675781" xlink:href="#DejaVuSans-64"/>
      <use x="981.152344" xlink:href="#DejaVuSans-65"/>
     </g>
    </g>
   </g>
   <g id="LineCollection_1">
    <path clip-path="url(#pd8daacba8b)" d="M 50.791312 123.609022 
L 50.791312 137.92045 
" style="fill:none;stroke:#000000;stroke-width:1.5;"/>
    <path clip-path="url(#pd8daacba8b)" d="M 57.952483 255.262017 
L 57.952483 279.483753 
" style="fill:none;stroke:#000000;stroke-width:1.5;"/>
    <path clip-path="url(#pd8daacba8b)" d="M 63.426836 243.047253 
L 63.426836 258.175478 
" style="fill:none;stroke:#000000;stroke-width:1.5;"/>
    <path clip-path="url(#pd8daacba8b)" d="M 72.94913 136.023715 
L 72.94913 143.398247 
" style="fill:none;stroke:#000000;stroke-width:1.5;"/>
    <path clip-path="url(#pd8daacba8b)" d="M 77.487752 228.321172 
L 77.487752 240.195151 
" style="fill:none;stroke:#000000;stroke-width:1.5;"/>
    <path clip-path="url(#pd8daacba8b)" d="M 85.057559 155.145317 
L 85.057559 163.336837 
" style="fill:none;stroke:#000000;stroke-width:1.5;"/>
    <path clip-path="url(#pd8daacba8b)" d="M 92.898967 71.283714 
L 92.898967 98.430456 
" style="fill:none;stroke:#000000;stroke-width:1.5;"/>
    <path clip-path="url(#pd8daacba8b)" d="M 98.602632 55.636364 
L 98.602632 82.307098 
" style="fill:none;stroke:#000000;stroke-width:1.5;"/>
    <path clip-path="url(#pd8daacba8b)" d="M 105.644118 243.692573 
L 105.644118 266.879478 
" style="fill:none;stroke:#000000;stroke-width:1.5;"/>
    <path clip-path="url(#pd8daacba8b)" d="M 112.659069 81.054719 
L 112.659069 100.182634 
" style="fill:none;stroke:#000000;stroke-width:1.5;"/>
    <path clip-path="url(#pd8daacba8b)" d="M 120.58054 281.121935 
L 120.58054 303.586833 
" style="fill:none;stroke:#000000;stroke-width:1.5;"/>
    <path clip-path="url(#pd8daacba8b)" d="M 128.695749 251.788073 
L 128.695749 262.067597 
" style="fill:none;stroke:#000000;stroke-width:1.5;"/>
    <path clip-path="url(#pd8daacba8b)" d="M 134.052087 229.622057 
L 134.052087 242.433787 
" style="fill:none;stroke:#000000;stroke-width:1.5;"/>
    <path clip-path="url(#pd8daacba8b)" d="M 140.162665 256.428784 
L 140.162665 273.966366 
" style="fill:none;stroke:#000000;stroke-width:1.5;"/>
    <path clip-path="url(#pd8daacba8b)" d="M 148.219972 234.063665 
L 148.219972 248.176315 
" style="fill:none;stroke:#000000;stroke-width:1.5;"/>
    <path clip-path="url(#pd8daacba8b)" d="M 154.347309 267.97487 
L 154.347309 275.727329 
" style="fill:none;stroke:#000000;stroke-width:1.5;"/>
    <path clip-path="url(#pd8daacba8b)" d="M 161.658152 180.079015 
L 161.658152 207.006925 
" style="fill:none;stroke:#000000;stroke-width:1.5;"/>
    <path clip-path="url(#pd8daacba8b)" d="M 169.395536 81.515282 
L 169.395536 97.361043 
" style="fill:none;stroke:#000000;stroke-width:1.5;"/>
    <path clip-path="url(#pd8daacba8b)" d="M 174.978447 114.492424 
L 174.978447 131.61956 
" style="fill:none;stroke:#000000;stroke-width:1.5;"/>
    <path clip-path="url(#pd8daacba8b)" d="M 182.413613 236.373211 
L 182.413613 249.80917 
" style="fill:none;stroke:#000000;stroke-width:1.5;"/>
    <path clip-path="url(#pd8daacba8b)" d="M 188.712427 292.232597 
L 188.712427 304.363636 
" style="fill:none;stroke:#000000;stroke-width:1.5;"/>
    <path clip-path="url(#pd8daacba8b)" d="M 196.123248 211.877656 
L 196.123248 226.609369 
" style="fill:none;stroke:#000000;stroke-width:1.5;"/>
    <path clip-path="url(#pd8daacba8b)" d="M 203.320716 104.596914 
L 203.320716 128.433421 
" style="fill:none;stroke:#000000;stroke-width:1.5;"/>
    <path clip-path="url(#pd8daacba8b)" d="M 209.371931 89.398128 
L 209.371931 111.28595 
" style="fill:none;stroke:#000000;stroke-width:1.5;"/>
    <path clip-path="url(#pd8daacba8b)" d="M 216.733181 253.55507 
L 216.733181 268.129708 
" style="fill:none;stroke:#000000;stroke-width:1.5;"/>
    <path clip-path="url(#pd8daacba8b)" d="M 223.716125 128.385255 
L 223.716125 135.46964 
" style="fill:none;stroke:#000000;stroke-width:1.5;"/>
    <path clip-path="url(#pd8daacba8b)" d="M 230.350628 222.523431 
L 230.350628 245.651973 
" style="fill:none;stroke:#000000;stroke-width:1.5;"/>
    <path clip-path="url(#pd8daacba8b)" d="M 236.882497 287.338046 
L 236.882497 299.666349 
" style="fill:none;stroke:#000000;stroke-width:1.5;"/>
    <path clip-path="url(#pd8daacba8b)" d="M 243.63303 154.917397 
L 243.63303 173.653974 
" style="fill:none;stroke:#000000;stroke-width:1.5;"/>
    <path clip-path="url(#pd8daacba8b)" d="M 251.421279 171.398929 
L 251.421279 178.739681 
" style="fill:none;stroke:#000000;stroke-width:1.5;"/>
    <path clip-path="url(#pd8daacba8b)" d="M 258.253403 180.367085 
L 258.253403 200.730135 
" style="fill:none;stroke:#000000;stroke-width:1.5;"/>
    <path clip-path="url(#pd8daacba8b)" d="M 266.893696 210.179521 
L 266.893696 224.924193 
" style="fill:none;stroke:#000000;stroke-width:1.5;"/>
    <path clip-path="url(#pd8daacba8b)" d="M 270.580464 251.687831 
L 270.580464 268.673287 
" style="fill:none;stroke:#000000;stroke-width:1.5;"/>
    <path clip-path="url(#pd8daacba8b)" d="M 279.253292 270.801436 
L 279.253292 286.106198 
" style="fill:none;stroke:#000000;stroke-width:1.5;"/>
    <path clip-path="url(#pd8daacba8b)" d="M 286.343426 166.201427 
L 286.343426 180.196415 
" style="fill:none;stroke:#000000;stroke-width:1.5;"/>
    <path clip-path="url(#pd8daacba8b)" d="M 293.939154 176.153812 
L 293.939154 194.241843 
" style="fill:none;stroke:#000000;stroke-width:1.5;"/>
    <path clip-path="url(#pd8daacba8b)" d="M 300.258259 132.665375 
L 300.258259 159.383776 
" style="fill:none;stroke:#000000;stroke-width:1.5;"/>
    <path clip-path="url(#pd8daacba8b)" d="M 306.239854 168.38308 
L 306.239854 177.507971 
" style="fill:none;stroke:#000000;stroke-width:1.5;"/>
    <path clip-path="url(#pd8daacba8b)" d="M 313.735382 204.928865 
L 313.735382 218.154496 
" style="fill:none;stroke:#000000;stroke-width:1.5;"/>
    <path clip-path="url(#pd8daacba8b)" d="M 321.022249 231.081056 
L 321.022249 238.754126 
" style="fill:none;stroke:#000000;stroke-width:1.5;"/>
    <path clip-path="url(#pd8daacba8b)" d="M 327.342678 254.123318 
L 327.342678 276.044945 
" style="fill:none;stroke:#000000;stroke-width:1.5;"/>
    <path clip-path="url(#pd8daacba8b)" d="M 335.004298 210.453407 
L 335.004298 230.720533 
" style="fill:none;stroke:#000000;stroke-width:1.5;"/>
    <path clip-path="url(#pd8daacba8b)" d="M 340.092151 140.777024 
L 340.092151 151.985387 
" style="fill:none;stroke:#000000;stroke-width:1.5;"/>
    <path clip-path="url(#pd8daacba8b)" d="M 349.49197 240.69879 
L 349.49197 256.041344 
" style="fill:none;stroke:#000000;stroke-width:1.5;"/>
    <path clip-path="url(#pd8daacba8b)" d="M 356.221834 208.483814 
L 356.221834 228.471321 
" style="fill:none;stroke:#000000;stroke-width:1.5;"/>
    <path clip-path="url(#pd8daacba8b)" d="M 361.887355 222.146463 
L 361.887355 242.494772 
" style="fill:none;stroke:#000000;stroke-width:1.5;"/>
    <path clip-path="url(#pd8daacba8b)" d="M 369.453934 234.296584 
L 369.453934 244.601711 
" style="fill:none;stroke:#000000;stroke-width:1.5;"/>
    <path clip-path="url(#pd8daacba8b)" d="M 375.976532 269.47634 
L 375.976532 294.328106 
" style="fill:none;stroke:#000000;stroke-width:1.5;"/>
    <path clip-path="url(#pd8daacba8b)" d="M 382.282277 110.010423 
L 382.282277 132.742215 
" style="fill:none;stroke:#000000;stroke-width:1.5;"/>
    <path clip-path="url(#pd8daacba8b)" d="M 389.828 279.438854 
L 389.828 288.996927 
" style="fill:none;stroke:#000000;stroke-width:1.5;"/>
   </g>
   <g id="line2d_29">
    <defs>
     <path d="M 0 3 
C 0.795609 3 1.55874 2.683901 2.12132 2.12132 
C 2.683901 1.55874 3 0.795609 3 0 
C 3 -0.795609 2.683901 -1.55874 2.12132 -2.12132 
C 1.55874 -2.683901 0.795609 -3 0 -3 
C -0.795609 -3 -1.55874 -2.683901 -2.12132 -2.12132 
C -2.683901 -1.55874 -3 -0.795609 -3 0 
C -3 0.795609 -2.683901 1.55874 -2.12132 2.12132 
C -1.55874 2.683901 -0.795609 3 0 3 
z
" id="m4ff464a531" style="stroke:#000000;"/>
    </defs>
    <g clip-path="url(#pd8daacba8b)">
     <use style="stroke:#000000;" x="50.791312" xlink:href="#m4ff464a531" y="130.764736"/>
     <use style="stroke:#000000;" x="57.952483" xlink:href="#m4ff464a531" y="267.372885"/>
     <use style="stroke:#000000;" x="63.426836" xlink:href="#m4ff464a531" y="250.611366"/>
     <use style="stroke:#000000;" x="72.94913" xlink:href="#m4ff464a531" y="139.710981"/>
     <use style="stroke:#000000;" x="77.487752" xlink:href="#m4ff464a531" y="234.258161"/>
     <use style="stroke:#000000;" x="85.057559" xlink:href="#m4ff464a531" y="159.241077"/>
     <use style="stroke:#000000;" x="92.898967" xlink:href="#m4ff464a531" y="84.857085"/>
     <use style="stroke:#000000;" x="98.602632" xlink:href="#m4ff464a531" y="68.971731"/>
     <use style="stroke:#000000;" x="105.644118" xlink:href="#m4ff464a531" y="255.286026"/>
     <use style="stroke:#000000;" x="112.659069" xlink:href="#m4ff464a531" y="90.618677"/>
     <use style="stroke:#000000;" x="120.58054" xlink:href="#m4ff464a531" y="292.354384"/>
     <use style="stroke:#000000;" x="128.695749" xlink:href="#m4ff464a531" y="256.927835"/>
     <use style="stroke:#000000;" x="134.052087" xlink:href="#m4ff464a531" y="236.027922"/>
     <use style="stroke:#000000;" x="140.162665" xlink:href="#m4ff464a531" y="265.197575"/>
     <use style="stroke:#000000;" x="148.219972" xlink:href="#m4ff464a531" y="241.11999"/>
     <use style="stroke:#000000;" x="154.347309" xlink:href="#m4ff464a531" y="271.8511"/>
     <use style="stroke:#000000;" x="161.658152" xlink:href="#m4ff464a531" y="193.54297"/>
     <use style="stroke:#000000;" x="169.395536" xlink:href="#m4ff464a531" y="89.438163"/>
     <use style="stroke:#000000;" x="174.978447" xlink:href="#m4ff464a531" y="123.055992"/>
     <use style="stroke:#000000;" x="182.413613" xlink:href="#m4ff464a531" y="243.09119"/>
     <use style="stroke:#000000;" x="188.712427" xlink:href="#m4ff464a531" y="298.298117"/>
     <use style="stroke:#000000;" x="196.123248" xlink:href="#m4ff464a531" y="219.243512"/>
     <use style="stroke:#000000;" x="203.320716" xlink:href="#m4ff464a531" y="116.515167"/>
     <use style="stroke:#000000;" x="209.371931" xlink:href="#m4ff464a531" y="100.342039"/>
     <use style="stroke:#000000;" x="216.733181" xlink:href="#m4ff464a531" y="260.842389"/>
     <use style="stroke:#000000;" x="223.716125" xlink:href="#m4ff464a531" y="131.927448"/>
     <use style="stroke:#000000;" x="230.350628" xlink:href="#m4ff464a531" y="234.087702"/>
     <use style="stroke:#000000;" x="236.882497" xlink:href="#m4ff464a531" y="293.502198"/>
     <use style="stroke:#000000;" x="243.63303" xlink:href="#m4ff464a531" y="164.285686"/>
     <use style="stroke:#000000;" x="251.421279" xlink:href="#m4ff464a531" y="175.069305"/>
     <use style="stroke:#000000;" x="258.253403" xlink:href="#m4ff464a531" y="190.54861"/>
     <use style="stroke:#000000;" x="266.893696" xlink:href="#m4ff464a531" y="217.551857"/>
     <use style="stroke:#000000;" x="270.580464" xlink:href="#m4ff464a531" y="260.180559"/>
     <use style="stroke:#000000;" x="279.253292" xlink:href="#m4ff464a531" y="278.453817"/>
     <use style="stroke:#000000;" x="286.343426" xlink:href="#m4ff464a531" y="173.198921"/>
     <use style="stroke:#000000;" x="293.939154" xlink:href="#m4ff464a531" y="185.197828"/>
     <use style="stroke:#000000;" x="300.258259" xlink:href="#m4ff464a531" y="146.024575"/>
     <use style="stroke:#000000;" x="306.239854" xlink:href="#m4ff464a531" y="172.945526"/>
     <use style="stroke:#000000;" x="313.735382" xlink:href="#m4ff464a531" y="211.541681"/>
     <use style="stroke:#000000;" x="321.022249" xlink:href="#m4ff464a531" y="234.917591"/>
     <use style="stroke:#000000;" x="327.342678" xlink:href="#m4ff464a531" y="265.084131"/>
     <use style="stroke:#000000;" x="335.004298" xlink:href="#m4ff464a531" y="220.58697"/>
     <use style="stroke:#000000;" x="340.092151" xlink:href="#m4ff464a531" y="146.381206"/>
     <use style="stroke:#000000;" x="349.49197" xlink:href="#m4ff464a531" y="248.370067"/>
     <use style="stroke:#000000;" x="356.221834" xlink:href="#m4ff464a531" y="218.477567"/>
     <use style="stroke:#000000;" x="361.887355" xlink:href="#m4ff464a531" y="232.320617"/>
     <use style="stroke:#000000;" x="369.453934" xlink:href="#m4ff464a531" y="239.449148"/>
     <use style="stroke:#000000;" x="375.976532" xlink:href="#m4ff464a531" y="281.902223"/>
     <use style="stroke:#000000;" x="382.282277" xlink:href="#m4ff464a531" y="121.376319"/>
     <use style="stroke:#000000;" x="389.828" xlink:href="#m4ff464a531" y="284.21789"/>
    </g>
   </g>
   <g id="patch_3">
    <path d="M 51.079375 316.8 
L 51.079375 43.2 
" style="fill:none;stroke:#ffffff;stroke-linecap:square;stroke-linejoin:miter;"/>
   </g>
   <g id="patch_4">
    <path d="M 396.679375 316.8 
L 396.679375 43.2 
" style="fill:none;stroke:#ffffff;stroke-linecap:square;stroke-linejoin:miter;"/>
   </g>
   <g id="patch_5">
    <path d="M 51.079375 316.8 
L 396.679375 316.8 
" style="fill:none;stroke:#ffffff;stroke-linecap:square;stroke-linejoin:miter;"/>
   </g>
   <g id="patch_6">
    <path d="M 51.079375 43.2 
L 396.679375 43.2 
" style="fill:none;stroke:#ffffff;stroke-linecap:square;stroke-linejoin:miter;"/>
   </g>
  </g>
  <g id="axes_2">
   <g id="patch_7">
    <path d="M 465.799375 316.8 
L 811.399375 316.8 
L 811.399375 43.2 
L 465.799375 43.2 
z
" style="fill:#e5e5e5;"/>
   </g>
   <g id="matplotlib.axis_3">
    <g id="xtick_7">
     <g id="line2d_30">
      <path clip-path="url(#pa4cfed69f0)" d="M 465.799375 316.8 
L 465.799375 43.2 
" style="fill:none;stroke:#ffffff;stroke-linecap:square;stroke-width:0.8;"/>
     </g>
     <g id="line2d_31"/>
     <g id="text_17">
      <!-- 0.2 -->
      <g style="fill:#555555;" transform="translate(457.847812 330.398437)scale(0.1 -0.1)">
       <use xlink:href="#DejaVuSans-30"/>
       <use x="63.623047" xlink:href="#DejaVuSans-2e"/>
       <use x="95.410156" xlink:href="#DejaVuSans-32"/>
      </g>
     </g>
    </g>
    <g id="xtick_8">
     <g id="line2d_32">
      <path clip-path="url(#pa4cfed69f0)" d="M 534.919375 316.8 
L 534.919375 43.2 
" style="fill:none;stroke:#ffffff;stroke-linecap:square;stroke-width:0.8;"/>
     </g>
     <g id="line2d_33"/>
     <g id="text_18">
      <!-- 0.4 -->
      <g style="fill:#555555;" transform="translate(526.967812 330.398437)scale(0.1 -0.1)">
       <use xlink:href="#DejaVuSans-30"/>
       <use x="63.623047" xlink:href="#DejaVuSans-2e"/>
       <use x="95.410156" xlink:href="#DejaVuSans-34"/>
      </g>
     </g>
    </g>
    <g id="xtick_9">
     <g id="line2d_34">
      <path clip-path="url(#pa4cfed69f0)" d="M 604.039375 316.8 
L 604.039375 43.2 
" style="fill:none;stroke:#ffffff;stroke-linecap:square;stroke-width:0.8;"/>
     </g>
     <g id="line2d_35"/>
     <g id="text_19">
      <!-- 0.6 -->
      <g style="fill:#555555;" transform="translate(596.087812 330.398437)scale(0.1 -0.1)">
       <use xlink:href="#DejaVuSans-30"/>
       <use x="63.623047" xlink:href="#DejaVuSans-2e"/>
       <use x="95.410156" xlink:href="#DejaVuSans-36"/>
      </g>
     </g>
    </g>
    <g id="xtick_10">
     <g id="line2d_36">
      <path clip-path="url(#pa4cfed69f0)" d="M 673.159375 316.8 
L 673.159375 43.2 
" style="fill:none;stroke:#ffffff;stroke-linecap:square;stroke-width:0.8;"/>
     </g>
     <g id="line2d_37"/>
     <g id="text_20">
      <!-- 0.8 -->
      <g style="fill:#555555;" transform="translate(665.207812 330.398437)scale(0.1 -0.1)">
       <use xlink:href="#DejaVuSans-30"/>
       <use x="63.623047" xlink:href="#DejaVuSans-2e"/>
       <use x="95.410156" xlink:href="#DejaVuSans-38"/>
      </g>
     </g>
    </g>
    <g id="xtick_11">
     <g id="line2d_38">
      <path clip-path="url(#pa4cfed69f0)" d="M 742.279375 316.8 
L 742.279375 43.2 
" style="fill:none;stroke:#ffffff;stroke-linecap:square;stroke-width:0.8;"/>
     </g>
     <g id="line2d_39"/>
     <g id="text_21">
      <!-- 1.0 -->
      <g style="fill:#555555;" transform="translate(734.327812 330.398437)scale(0.1 -0.1)">
       <use xlink:href="#DejaVuSans-31"/>
       <use x="63.623047" xlink:href="#DejaVuSans-2e"/>
       <use x="95.410156" xlink:href="#DejaVuSans-30"/>
      </g>
     </g>
    </g>
    <g id="xtick_12">
     <g id="line2d_40">
      <path clip-path="url(#pa4cfed69f0)" d="M 811.399375 316.8 
L 811.399375 43.2 
" style="fill:none;stroke:#ffffff;stroke-linecap:square;stroke-width:0.8;"/>
     </g>
     <g id="line2d_41"/>
     <g id="text_22">
      <!-- 1.2 -->
      <g style="fill:#555555;" transform="translate(803.447812 330.398437)scale(0.1 -0.1)">
       <use xlink:href="#DejaVuSans-31"/>
       <use x="63.623047" xlink:href="#DejaVuSans-2e"/>
       <use x="95.410156" xlink:href="#DejaVuSans-32"/>
      </g>
     </g>
    </g>
    <g id="text_23">
     <!-- period (days) -->
     <defs>
      <path d="M 18.109375 8.203125 
L 18.109375 -20.796875 
L 9.078125 -20.796875 
L 9.078125 54.6875 
L 18.109375 54.6875 
L 18.109375 46.390625 
Q 20.953125 51.265625 25.265625 53.625 
Q 29.59375 56 35.59375 56 
Q 45.5625 56 51.78125 48.09375 
Q 58.015625 40.1875 58.015625 27.296875 
Q 58.015625 14.40625 51.78125 6.484375 
Q 45.5625 -1.421875 35.59375 -1.421875 
Q 29.59375 -1.421875 25.265625 0.953125 
Q 20.953125 3.328125 18.109375 8.203125 
M 48.6875 27.296875 
Q 48.6875 37.203125 44.609375 42.84375 
Q 40.53125 48.484375 33.40625 48.484375 
Q 26.265625 48.484375 22.1875 42.84375 
Q 18.109375 37.203125 18.109375 27.296875 
Q 18.109375 17.390625 22.1875 11.75 
Q 26.265625 6.109375 33.40625 6.109375 
Q 40.53125 6.109375 44.609375 11.75 
Q 48.6875 17.390625 48.6875 27.296875 
" id="DejaVuSans-70"/>
     </defs>
     <g style="fill:#555555;" transform="translate(598.733125 345.59625)scale(0.12 -0.12)">
      <use xlink:href="#DejaVuSans-70"/>
      <use x="63.476562" xlink:href="#DejaVuSans-65"/>
      <use x="125" xlink:href="#DejaVuSans-72"/>
      <use x="166.113281" xlink:href="#DejaVuSans-69"/>
      <use x="193.896484" xlink:href="#DejaVuSans-6f"/>
      <use x="255.078125" xlink:href="#DejaVuSans-64"/>
      <use x="318.554688" xlink:href="#DejaVuSans-20"/>
      <use x="350.341797" xlink:href="#DejaVuSans-28"/>
      <use x="389.355469" xlink:href="#DejaVuSans-64"/>
      <use x="452.832031" xlink:href="#DejaVuSans-61"/>
      <use x="514.111328" xlink:href="#DejaVuSans-79"/>
      <use x="573.291016" xlink:href="#DejaVuSans-73"/>
      <use x="625.390625" xlink:href="#DejaVuSans-29"/>
     </g>
    </g>
   </g>
   <g id="matplotlib.axis_4">
    <g id="ytick_9">
     <g id="line2d_42">
      <path clip-path="url(#pa4cfed69f0)" d="M 465.799375 316.8 
L 811.399375 316.8 
" style="fill:none;stroke:#ffffff;stroke-linecap:square;stroke-width:0.8;"/>
     </g>
     <g id="line2d_43"/>
     <g id="text_24">
      <!-- 0.0 -->
      <g style="fill:#555555;" transform="translate(443.89625 320.599219)scale(0.1 -0.1)">
       <use xlink:href="#DejaVuSans-30"/>
       <use x="63.623047" xlink:href="#DejaVuSans-2e"/>
       <use x="95.410156" xlink:href="#DejaVuSans-30"/>
      </g>
     </g>
    </g>
    <g id="ytick_10">
     <g id="line2d_44">
      <path clip-path="url(#pa4cfed69f0)" d="M 465.799375 262.08 
L 811.399375 262.08 
" style="fill:none;stroke:#ffffff;stroke-linecap:square;stroke-width:0.8;"/>
     </g>
     <g id="line2d_45"/>
     <g id="text_25">
      <!-- 0.2 -->
      <g style="fill:#555555;" transform="translate(443.89625 265.879219)scale(0.1 -0.1)">
       <use xlink:href="#DejaVuSans-30"/>
       <use x="63.623047" xlink:href="#DejaVuSans-2e"/>
       <use x="95.410156" xlink:href="#DejaVuSans-32"/>
      </g>
     </g>
    </g>
    <g id="ytick_11">
     <g id="line2d_46">
      <path clip-path="url(#pa4cfed69f0)" d="M 465.799375 207.36 
L 811.399375 207.36 
" style="fill:none;stroke:#ffffff;stroke-linecap:square;stroke-width:0.8;"/>
     </g>
     <g id="line2d_47"/>
     <g id="text_26">
      <!-- 0.4 -->
      <g style="fill:#555555;" transform="translate(443.89625 211.159219)scale(0.1 -0.1)">
       <use xlink:href="#DejaVuSans-30"/>
       <use x="63.623047" xlink:href="#DejaVuSans-2e"/>
       <use x="95.410156" xlink:href="#DejaVuSans-34"/>
      </g>
     </g>
    </g>
    <g id="ytick_12">
     <g id="line2d_48">
      <path clip-path="url(#pa4cfed69f0)" d="M 465.799375 152.64 
L 811.399375 152.64 
" style="fill:none;stroke:#ffffff;stroke-linecap:square;stroke-width:0.8;"/>
     </g>
     <g id="line2d_49"/>
     <g id="text_27">
      <!-- 0.6 -->
      <g style="fill:#555555;" transform="translate(443.89625 156.439219)scale(0.1 -0.1)">
       <use xlink:href="#DejaVuSans-30"/>
       <use x="63.623047" xlink:href="#DejaVuSans-2e"/>
       <use x="95.410156" xlink:href="#DejaVuSans-36"/>
      </g>
     </g>
    </g>
    <g id="ytick_13">
     <g id="line2d_50">
      <path clip-path="url(#pa4cfed69f0)" d="M 465.799375 97.92 
L 811.399375 97.92 
" style="fill:none;stroke:#ffffff;stroke-linecap:square;stroke-width:0.8;"/>
     </g>
     <g id="line2d_51"/>
     <g id="text_28">
      <!-- 0.8 -->
      <g style="fill:#555555;" transform="translate(443.89625 101.719219)scale(0.1 -0.1)">
       <use xlink:href="#DejaVuSans-30"/>
       <use x="63.623047" xlink:href="#DejaVuSans-2e"/>
       <use x="95.410156" xlink:href="#DejaVuSans-38"/>
      </g>
     </g>
    </g>
    <g id="ytick_14">
     <g id="line2d_52">
      <path clip-path="url(#pa4cfed69f0)" d="M 465.799375 43.2 
L 811.399375 43.2 
" style="fill:none;stroke:#ffffff;stroke-linecap:square;stroke-width:0.8;"/>
     </g>
     <g id="line2d_53"/>
     <g id="text_29">
      <!-- 1.0 -->
      <g style="fill:#555555;" transform="translate(443.89625 46.999219)scale(0.1 -0.1)">
       <use xlink:href="#DejaVuSans-31"/>
       <use x="63.623047" xlink:href="#DejaVuSans-2e"/>
       <use x="95.410156" xlink:href="#DejaVuSans-30"/>
      </g>
     </g>
    </g>
    <g id="text_30">
     <!-- Lomb-Scargle Power -->
     <defs>
      <path d="M 9.8125 72.90625 
L 19.671875 72.90625 
L 19.671875 8.296875 
L 55.171875 8.296875 
L 55.171875 0 
L 9.8125 0 
z
" id="DejaVuSans-4c"/>
      <path d="M 4.890625 31.390625 
L 31.203125 31.390625 
L 31.203125 23.390625 
L 4.890625 23.390625 
z
" id="DejaVuSans-2d"/>
      <path d="M 53.515625 70.515625 
L 53.515625 60.890625 
Q 47.90625 63.578125 42.921875 64.890625 
Q 37.9375 66.21875 33.296875 66.21875 
Q 25.25 66.21875 20.875 63.09375 
Q 16.5 59.96875 16.5 54.203125 
Q 16.5 49.359375 19.40625 46.890625 
Q 22.3125 44.4375 30.421875 42.921875 
L 36.375 41.703125 
Q 47.40625 39.59375 52.65625 34.296875 
Q 57.90625 29 57.90625 20.125 
Q 57.90625 9.515625 50.796875 4.046875 
Q 43.703125 -1.421875 29.984375 -1.421875 
Q 24.8125 -1.421875 18.96875 -0.25 
Q 13.140625 0.921875 6.890625 3.21875 
L 6.890625 13.375 
Q 12.890625 10.015625 18.65625 8.296875 
Q 24.421875 6.59375 29.984375 6.59375 
Q 38.421875 6.59375 43.015625 9.90625 
Q 47.609375 13.234375 47.609375 19.390625 
Q 47.609375 24.75 44.3125 27.78125 
Q 41.015625 30.8125 33.5 32.328125 
L 27.484375 33.5 
Q 16.453125 35.6875 11.515625 40.375 
Q 6.59375 45.0625 6.59375 53.421875 
Q 6.59375 63.09375 13.40625 68.65625 
Q 20.21875 74.21875 32.171875 74.21875 
Q 37.3125 74.21875 42.625 73.28125 
Q 47.953125 72.359375 53.515625 70.515625 
" id="DejaVuSans-53"/>
      <path d="M 48.78125 52.59375 
L 48.78125 44.1875 
Q 44.96875 46.296875 41.140625 47.34375 
Q 37.3125 48.390625 33.40625 48.390625 
Q 24.65625 48.390625 19.8125 42.84375 
Q 14.984375 37.3125 14.984375 27.296875 
Q 14.984375 17.28125 19.8125 11.734375 
Q 24.65625 6.203125 33.40625 6.203125 
Q 37.3125 6.203125 41.140625 7.25 
Q 44.96875 8.296875 48.78125 10.40625 
L 48.78125 2.09375 
Q 45.015625 0.34375 40.984375 -0.53125 
Q 36.96875 -1.421875 32.421875 -1.421875 
Q 20.0625 -1.421875 12.78125 6.34375 
Q 5.515625 14.109375 5.515625 27.296875 
Q 5.515625 40.671875 12.859375 48.328125 
Q 20.21875 56 33.015625 56 
Q 37.15625 56 41.109375 55.140625 
Q 45.0625 54.296875 48.78125 52.59375 
" id="DejaVuSans-63"/>
      <path d="M 9.421875 75.984375 
L 18.40625 75.984375 
L 18.40625 0 
L 9.421875 0 
z
" id="DejaVuSans-6c"/>
      <path d="M 19.671875 64.796875 
L 19.671875 37.40625 
L 32.078125 37.40625 
Q 38.96875 37.40625 42.71875 40.96875 
Q 46.484375 44.53125 46.484375 51.125 
Q 46.484375 57.671875 42.71875 61.234375 
Q 38.96875 64.796875 32.078125 64.796875 
z
M 9.8125 72.90625 
L 32.078125 72.90625 
Q 44.34375 72.90625 50.609375 67.359375 
Q 56.890625 61.8125 56.890625 51.125 
Q 56.890625 40.328125 50.609375 34.8125 
Q 44.34375 29.296875 32.078125 29.296875 
L 19.671875 29.296875 
L 19.671875 0 
L 9.8125 0 
z
" id="DejaVuSans-50"/>
      <path d="M 4.203125 54.6875 
L 13.1875 54.6875 
L 24.421875 12.015625 
L 35.59375 54.6875 
L 46.1875 54.6875 
L 57.421875 12.015625 
L 68.609375 54.6875 
L 77.59375 54.6875 
L 63.28125 0 
L 52.6875 0 
L 40.921875 44.828125 
L 29.109375 0 
L 18.5 0 
z
" id="DejaVuSans-77"/>
     </defs>
     <g style="fill:#555555;" transform="translate(437.400625 241.508437)rotate(-90)scale(0.12 -0.12)">
      <use xlink:href="#DejaVuSans-4c"/>
      <use x="55.697266" xlink:href="#DejaVuSans-6f"/>
      <use x="116.878906" xlink:href="#DejaVuSans-6d"/>
      <use x="214.291016" xlink:href="#DejaVuSans-62"/>
      <use x="277.767578" xlink:href="#DejaVuSans-2d"/>
      <use x="313.851562" xlink:href="#DejaVuSans-53"/>
      <use x="377.328125" xlink:href="#DejaVuSans-63"/>
      <use x="432.308594" xlink:href="#DejaVuSans-61"/>
      <use x="493.587891" xlink:href="#DejaVuSans-72"/>
      <use x="534.685547" xlink:href="#DejaVuSans-67"/>
      <use x="598.162109" xlink:href="#DejaVuSans-6c"/>
      <use x="625.945312" xlink:href="#DejaVuSans-65"/>
      <use x="687.46875" xlink:href="#DejaVuSans-20"/>
      <use x="719.255859" xlink:href="#DejaVuSans-50"/>
      <use x="779.511719" xlink:href="#DejaVuSans-6f"/>
      <use x="840.693359" xlink:href="#DejaVuSans-77"/>
      <use x="922.480469" xlink:href="#DejaVuSans-65"/>
      <use x="984.003906" xlink:href="#DejaVuSans-72"/>
     </g>
    </g>
   </g>
   <g id="line2d_54">
    <path clip-path="url(#pa4cfed69f0)" d="M 811.399375 277.724773 
L 809.380063 288.334104 
L 807.38032 294.412641 
L 805.399863 296.495779 
L 803.438414 296.952605 
L 801.495702 300.669026 
L 799.571458 305.394536 
L 795.777334 312.62993 
L 793.906944 315.218059 
L 792.054004 313.391872 
L 788.399504 298.677954 
L 786.597471 295.508567 
L 784.811943 300.440819 
L 783.042693 310.808388 
L 781.289499 313.612945 
L 779.552144 310.794743 
L 777.830415 309.846275 
L 776.124101 311.681007 
L 774.432996 314.196656 
L 772.756899 313.698872 
L 771.095609 310.064982 
L 769.448932 307.877928 
L 767.816676 308.739555 
L 766.198652 312.358678 
L 764.594675 315.00349 
L 763.004562 313.218645 
L 761.428135 308.553624 
L 759.865217 305.442584 
L 758.315637 303.864256 
L 756.779223 297.058358 
L 755.255809 289.506702 
L 753.74523 291.737426 
L 750.761935 312.946461 
L 749.288904 316.550506 
L 747.828079 310.20949 
L 746.379307 301.944889 
L 744.942441 301.226121 
L 743.517335 309.528428 
L 742.103844 316.258097 
L 740.701827 300.059865 
L 739.311145 294.933614 
L 737.931662 300.587912 
L 736.563242 307.247119 
L 735.205753 306.304708 
L 733.859064 293.090671 
L 732.523047 272.605053 
L 731.197577 255.206485 
L 729.882527 253.831381 
L 727.283204 299.824539 
L 725.998691 288.78918 
L 724.724121 266.793603 
L 723.45938 260.290494 
L 722.204353 265.203321 
L 720.958929 278.469488 
L 719.722998 297.595109 
L 718.496453 308.329497 
L 717.279187 305.169414 
L 716.071094 301.631049 
L 713.682019 308.144263 
L 712.500834 304.640787 
L 711.328419 298.825567 
L 710.164677 296.417836 
L 709.009511 298.142689 
L 707.862827 304.950189 
L 706.724532 313.0437 
L 705.594535 315.530733 
L 704.472744 314.716823 
L 703.359072 314.460709 
L 702.253429 315.712549 
L 701.15573 315.928581 
L 700.065889 309.953601 
L 697.909446 283.806983 
L 696.84268 276.230245 
L 695.783443 267.221867 
L 694.731655 251.118356 
L 693.687239 240.85883 
L 692.650116 253.181741 
L 690.59745 306.52167 
L 689.581757 316.215554 
L 688.57306 312.128921 
L 687.571286 306.351704 
L 686.576365 306.034901 
L 685.588226 312.249329 
L 684.606801 316.588071 
L 683.632021 306.970536 
L 682.663819 296.121638 
L 681.702129 294.753747 
L 680.746885 301.089041 
L 679.798022 309.97378 
L 678.855477 308.152866 
L 677.919188 293.530857 
L 676.989091 276.832122 
L 676.065125 264.794482 
L 675.147231 262.938321 
L 673.329418 280.551944 
L 672.429383 285.52188 
L 671.535185 289.437998 
L 670.646767 291.270907 
L 669.764075 290.124901 
L 668.887052 287.940275 
L 668.015644 289.187765 
L 666.289459 303.235442 
L 665.434577 302.608911 
L 664.585099 296.023357 
L 663.740974 291.668129 
L 662.902151 295.208505 
L 662.068582 303.893653 
L 661.240216 307.34125 
L 660.417006 301.158814 
L 659.598902 292.59975 
L 658.785859 287.869402 
L 657.977828 290.362012 
L 656.376621 310.156757 
L 655.583354 313.550196 
L 654.794918 311.267047 
L 654.01127 308.10486 
L 653.232366 306.10024 
L 651.688619 300.113566 
L 650.923691 300.880628 
L 649.40752 313.847837 
L 648.656195 316.70168 
L 647.909325 315.237383 
L 647.166869 312.884746 
L 646.428788 312.873152 
L 645.695044 313.259465 
L 644.965599 314.3341 
L 644.240415 312.524924 
L 643.519455 305.3052 
L 642.802682 301.751104 
L 642.09006 302.263722 
L 641.381552 303.367462 
L 640.677123 303.271446 
L 639.976739 298.161264 
L 639.280364 280.962627 
L 638.587964 247.497018 
L 637.899505 206.73945 
L 637.214953 197.074307 
L 635.85744 273.179534 
L 635.184414 299.326506 
L 634.515164 313.402691 
L 633.84966 315.966958 
L 633.18787 315.487064 
L 632.529762 315.462951 
L 631.875308 315.583333 
L 631.224475 313.610858 
L 630.577234 310.443644 
L 629.933555 310.152835 
L 629.29341 311.310258 
L 628.656769 311.292069 
L 628.023603 312.477698 
L 627.393884 315.371872 
L 626.767583 316.010511 
L 626.144674 312.911838 
L 625.525129 307.218147 
L 624.90892 302.858529 
L 624.29602 301.22523 
L 623.686404 301.950842 
L 622.476915 307.950003 
L 621.876991 306.276473 
L 621.280247 302.926571 
L 620.686656 302.275211 
L 620.096195 298.233528 
L 619.508839 287.305544 
L 618.924562 282.667681 
L 618.343342 288.282005 
L 617.189974 305.146975 
L 616.617779 309.139273 
L 615.482253 298.374972 
L 614.918875 301.23795 
L 614.358391 309.737508 
L 613.800778 315.037392 
L 613.246015 313.438312 
L 612.69408 309.486543 
L 612.144951 308.542663 
L 611.598607 310.983148 
L 611.055026 310.990904 
L 609.976072 295.294688 
L 609.440658 294.06438 
L 608.907925 302.1918 
L 608.377853 312.753009 
L 607.850422 313.42117 
L 607.325613 296.259796 
L 606.803406 270.349541 
L 606.283781 258.331768 
L 605.766721 264.069538 
L 605.252205 273.099858 
L 604.230733 280.123669 
L 603.723739 289.450759 
L 603.219217 301.986004 
L 602.717147 308.430196 
L 602.217512 302.450274 
L 601.720295 292.401515 
L 601.225478 289.759762 
L 600.733043 297.079574 
L 600.242973 307.626442 
L 599.755252 311.402616 
L 598.786787 299.400735 
L 598.30601 299.109493 
L 597.827515 303.299729 
L 597.351286 308.640635 
L 596.877307 304.828167 
L 596.405561 293.403913 
L 595.936034 286.437257 
L 595.468708 288.767905 
L 594.540603 301.874354 
L 594.079793 299.288024 
L 593.621124 294.141798 
L 593.164582 293.3157 
L 592.710152 298.591723 
L 592.257819 308.247777 
L 591.807568 314.071233 
L 591.359386 309.008813 
L 590.913258 299.358807 
L 590.469169 293.251811 
L 590.027107 293.822546 
L 589.149006 306.009398 
L 588.71294 308.778278 
L 588.278845 309.790626 
L 587.846708 313.435463 
L 587.416516 315.295658 
L 586.988256 310.336745 
L 586.561915 302.932787 
L 585.714937 283.21771 
L 585.294276 278.389099 
L 584.875482 276.939225 
L 584.458544 280.213791 
L 583.218742 309.228752 
L 582.809104 312.299417 
L 581.995204 312.539001 
L 581.590916 313.783396 
L 581.18839 313.754627 
L 580.787611 305.212856 
L 580.38857 294.02004 
L 579.991256 290.995981 
L 579.595656 297.300614 
L 579.201759 309.240918 
L 578.809556 316.692699 
L 578.030184 307.296708 
L 577.642994 305.538634 
L 577.257454 306.346809 
L 576.873553 308.046858 
L 576.491281 306.163132 
L 575.731583 288.400485 
L 575.354135 285.878441 
L 574.978276 293.519883 
L 574.603995 303.698243 
L 574.231282 309.342035 
L 573.860127 310.706947 
L 573.490521 309.095911 
L 572.755915 302.243574 
L 572.390896 304.005958 
L 571.66538 313.500352 
L 571.304865 315.362327 
L 570.945831 311.026384 
L 570.588271 302.828361 
L 570.232176 301.985297 
L 569.524341 316.055964 
L 569.172585 314.989383 
L 568.47335 294.623019 
L 567.435062 275.364293 
L 567.09175 276.362235 
L 566.749815 275.770876 
L 566.40925 276.229881 
L 565.732194 302.538813 
L 565.395688 304.279408 
L 564.72668 292.436562 
L 564.394161 290.594955 
L 564.062955 295.458198 
L 563.733055 305.563435 
L 563.404453 311.566869 
L 562.751112 306.707853 
L 562.426358 309.22779 
L 562.102872 314.468064 
L 561.780645 315.435182 
L 561.139944 301.283391 
L 560.821455 299.280848 
L 560.504197 303.852083 
L 560.188162 311.390593 
L 559.873345 314.996606 
L 559.247334 307.855455 
L 558.936125 310.125377 
L 558.626106 314.767896 
L 558.31727 315.383673 
L 558.009609 308.138814 
L 557.703117 295.018235 
L 557.397788 287.011698 
L 557.093614 286.374847 
L 556.790589 282.215306 
L 556.488707 273.376913 
L 556.187961 271.835239 
L 555.888346 281.697112 
L 555.292478 311.808601 
L 554.996213 315.280254 
L 554.406992 305.876979 
L 554.114024 305.357466 
L 553.531339 316.594667 
L 552.952952 309.460525 
L 552.665355 309.580042 
L 552.378814 312.62586 
L 552.093325 308.05429 
L 551.80888 295.646525 
L 551.525475 289.637049 
L 550.961759 284.350425 
L 550.681438 283.819808 
L 550.402133 281.805343 
L 550.12384 276.633648 
L 549.846553 276.578419 
L 549.020671 309.152133 
L 548.475013 300.099349 
L 548.203648 301.787452 
L 547.933251 304.42463 
L 547.663817 302.681358 
L 546.861244 283.388312 
L 546.595613 284.163254 
L 546.067159 307.676074 
L 545.804327 309.72536 
L 545.542418 305.830059 
L 545.281427 304.623548 
L 544.762182 308.064964 
L 544.503917 306.780368 
L 543.990082 301.775602 
L 543.734501 302.75433 
L 543.225991 315.214702 
L 542.973053 316.700693 
L 542.720986 315.545407 
L 542.469787 315.695543 
L 542.21945 316.764248 
L 541.969971 314.86348 
L 541.473571 302.197176 
L 541.226641 303.863964 
L 540.735298 315.714651 
L 540.490878 310.793198 
L 540.247285 301.407376 
L 540.004516 298.514388 
L 539.762567 302.008444 
L 539.521433 298.511028 
L 539.281111 259.680769 
L 538.802884 115.380072 
L 538.564971 91.427003 
L 538.327854 111.652898 
L 537.621233 301.006145 
L 537.387257 313.191347 
L 537.154056 312.708353 
L 536.921627 313.988082 
L 536.689966 316.560481 
L 536.459069 314.764532 
L 535.999552 307.167899 
L 535.770925 308.835385 
L 535.315914 314.668822 
L 534.86387 315.93544 
L 534.638952 315.34223 
L 534.414765 307.709775 
L 533.96857 278.726268 
L 533.746554 271.460511 
L 533.525256 273.042868 
L 532.865627 311.99155 
L 532.647162 315.107461 
L 532.429396 315.689323 
L 532.212327 314.280598 
L 531.780265 307.792433 
L 531.565265 308.120212 
L 530.924352 316.391316 
L 530.500449 311.439317 
L 530.2895 312.903393 
L 530.079216 315.410422 
L 529.869592 315.72996 
L 529.452314 310.01086 
L 529.244654 310.204989 
L 529.037643 310.678333 
L 528.831277 310.831318 
L 528.625554 310.11243 
L 528.42047 308.076342 
L 528.216022 307.838652 
L 527.809026 312.435715 
L 527.60647 312.288345 
L 527.40454 308.949882 
L 526.205917 273.803658 
L 526.00828 281.636514 
L 525.418972 312.139402 
L 525.223728 313.087486 
L 525.029075 312.756793 
L 524.641532 316.755346 
L 524.448637 312.973671 
L 524.064586 297.945912 
L 523.873425 294.766479 
L 523.682837 296.503278 
L 523.30337 302.737447 
L 523.114485 303.160102 
L 522.926163 302.48612 
L 522.738401 302.572936 
L 522.551196 302.242888 
L 521.992905 285.352804 
L 521.807907 286.225094 
L 521.256175 315.724295 
L 520.891049 297.999892 
L 520.528057 272.737787 
L 520.347355 275.307126 
L 519.8084 300.623161 
L 519.451699 315.782873 
L 519.274123 314.227502 
L 518.920506 308.379642 
L 518.744462 306.094074 
L 518.219358 286.031343 
L 518.045326 286.272724 
L 517.871792 290.205493 
L 517.354153 315.002047 
L 517.182588 316.226127 
L 517.011511 316.346281 
L 516.840918 314.674067 
L 516.50118 306.727203 
L 516.33203 306.737139 
L 515.827434 316.40324 
L 515.493394 314.938468 
L 515.327076 315.834523 
L 515.161222 315.760465 
L 514.995832 309.779628 
L 514.666432 279.493066 
L 514.50242 275.947433 
L 514.338862 279.297497 
L 513.850903 296.693158 
L 513.689148 296.694437 
L 513.527839 299.07648 
L 513.04657 314.177831 
L 512.887026 312.370967 
L 512.72792 307.699222 
L 512.569249 307.382982 
L 512.253204 314.747582 
L 511.938879 310.035021 
L 511.782356 311.676493 
L 511.626258 316.220395 
L 511.470583 312.855171 
L 511.160495 260.836724 
L 511.006078 233.328881 
L 510.852077 229.418165 
L 510.2402 304.693575 
L 509.936714 311.751776 
L 509.785579 313.254165 
L 509.634846 312.942416 
L 509.484515 311.727969 
L 509.334583 311.828918 
L 509.035912 316.478568 
L 508.88717 314.517924 
L 508.590864 308.725554 
L 508.296118 314.162941 
L 508.002921 293.479805 
L 507.856899 290.267302 
L 507.71126 292.278434 
L 507.421124 313.363429 
L 506.988751 293.578749 
L 506.845376 295.644365 
L 506.559741 312.988722 
L 506.417479 312.889727 
L 506.134056 309.922305 
L 505.711656 307.770509 
L 505.571579 308.865508 
L 505.153501 316.252966 
L 504.876561 311.827816 
L 504.738621 312.46244 
L 504.463793 315.766693 
L 504.326902 316.438946 
L 504.190359 316.071681 
L 504.054162 313.128593 
L 503.7828 297.844379 
L 503.512806 285.900903 
L 503.24417 297.206757 
L 503.110358 292.754103 
L 502.843739 272.361992 
L 502.710931 277.609712 
L 502.183001 315.835057 
L 501.921003 312.708046 
L 501.790491 312.139499 
L 501.660303 310.293416 
L 501.271665 289.983467 
L 501.142758 290.040665 
L 500.757936 312.557182 
L 500.630292 313.236061 
L 500.502959 313.001216 
L 500.375939 311.814464 
L 499.996736 299.802059 
L 499.87095 300.82827 
L 499.495424 312.085532 
L 499.370856 308.321173 
L 499.246589 308.602398 
L 498.998954 316.689309 
L 498.875585 312.636477 
L 498.629737 297.870092 
L 498.507256 299.730042 
L 498.263175 316.311188 
L 498.020261 309.753365 
L 497.778506 314.748411 
L 497.65806 286.891078 
L 497.29844 112.780992 
L 497.179135 124.123689 
L 496.941372 216.550147 
L 496.704731 300.646131 
L 496.469204 313.365818 
L 496.351857 316.24346 
L 496.234784 314.753491 
L 495.769233 296.909729 
L 495.653525 297.249962 
L 495.422917 307.520669 
L 495.193382 315.24856 
L 494.737497 240.458415 
L 494.624185 250.32595 
L 494.285813 305.837147 
L 494.061527 310.166955 
L 493.727025 316.762927 
L 493.394813 310.188376 
L 493.284581 310.412361 
L 493.064868 313.919643 
L 492.955386 314.074534 
L 492.737166 311.614321 
L 492.628427 311.708465 
L 492.519933 312.489866 
L 492.303681 312.094948 
L 492.19592 312.895183 
L 491.981126 315.729701 
L 491.66074 313.334151 
L 491.448343 313.658757 
L 491.236894 315.752422 
L 491.131523 315.316984 
L 490.921484 303.705355 
L 490.712377 292.92597 
L 490.608171 294.203276 
L 490.296934 316.416398 
L 490.090587 312.464011 
L 489.885147 315.95565 
L 489.476966 298.306466 
L 489.375478 299.182011 
L 489.072344 314.183726 
L 488.97174 312.347221 
L 488.571502 288.2965 
L 488.372683 306.00039 
L 488.273595 315.279829 
L 487.879377 299.302911 
L 487.488539 269.302346 
L 487.294373 288.469776 
L 487.101035 311.199079 
L 486.908521 314.732902 
L 486.812571 313.884558 
L 486.621282 291.208187 
L 486.430803 262.35143 
L 486.335866 267.402681 
L 485.864177 313.397175 
L 485.770434 316.384495 
L 485.676888 315.600791 
L 485.490384 311.341122 
L 485.30466 315.462859 
L 485.212089 313.544592 
L 484.935533 301.659994 
L 484.843731 305.571445 
L 484.75212 304.434595 
L 484.478426 270.184406 
L 484.387572 274.537429 
L 484.116135 301.809284 
L 484.026029 300.531743 
L 483.936109 303.677616 
L 483.756822 316.217107 
L 483.489269 295.676557 
L 483.311812 312.735526 
L 483.223356 310.882586 
L 483.046983 299.287271 
L 482.871328 315.269065 
L 482.783768 305.218809 
L 482.522152 239.099731 
L 482.4353 240.513443 
L 482.175795 273.239961 
L 482.003662 296.455439 
L 481.83222 315.136874 
L 481.661467 299.348629 
L 481.576347 300.574464 
L 481.406617 314.659393 
L 481.237564 302.960234 
L 481.15329 304.294168 
L 481.069185 310.072223 
L 480.985246 309.480891 
L 480.73443 269.649673 
L 480.485101 316.577486 
L 480.40232 306.492765 
L 480.237247 274.516625 
L 480.154955 278.533423 
L 479.909047 314.627591 
L 479.745912 310.985885 
L 479.583415 315.608885 
L 479.502405 314.795726 
L 479.340858 311.722064 
L 479.099716 316.07193 
L 479.019648 315.916955 
L 478.859978 314.612968 
L 478.780374 314.505109 
L 478.700925 308.674177 
L 478.463497 279.284466 
L 478.070824 311.029829 
L 477.992742 308.294317 
L 477.75939 298.410833 
L 477.681904 297.880899 
L 477.604566 298.644654 
L 477.220078 315.705803 
L 477.143618 316.566853 
L 476.991134 307.364452 
L 476.839226 299.3444 
L 476.537129 315.797993 
L 476.46196 314.537247 
L 476.312046 307.559227 
L 476.162694 293.826675 
L 475.939714 308.760448 
L 475.865665 304.574269 
L 475.791754 301.943647 
L 475.644345 309.822188 
L 475.570847 315.60456 
L 475.497485 315.023183 
L 475.278217 291.843769 
L 475.060164 313.577886 
L 474.915467 298.791745 
L 474.556051 215.271328 
L 474.413207 250.553943 
L 474.199922 298.306299 
L 473.917355 311.421269 
L 473.776843 308.283218 
L 473.636841 298.025643 
L 473.497346 287.937896 
L 473.427789 289.857163 
L 473.28905 307.439777 
L 473.219869 303.576943 
L 473.013073 242.846414 
L 472.944389 249.648886 
L 472.670885 305.753236 
L 472.534867 308.834822 
L 472.399336 313.840393 
L 472.264288 302.663433 
L 472.12972 288.05992 
L 471.928765 291.531868 
L 471.728878 314.842925 
L 471.596209 310.214593 
L 471.464007 311.509873 
L 471.332272 292.302435 
L 471.201 280.118559 
L 470.939836 314.633291 
L 470.874831 311.99049 
L 470.809939 312.934073 
L 470.745161 316.295391 
L 470.680496 314.008134 
L 470.551504 298.253246 
L 470.487177 298.301252 
L 470.294865 315.224627 
L 470.230984 314.665579 
L 470.167213 314.459144 
L 470.103553 315.54875 
L 469.913232 298.545738 
L 469.850011 301.307449 
L 469.661001 308.926789 
L 469.535536 304.637303 
L 469.472965 305.589019 
L 469.410502 306.850611 
L 469.285896 303.276168 
L 469.223752 304.720641 
L 469.03796 316.766179 
L 468.97624 315.146562 
L 468.914626 313.745918 
L 468.853117 314.668122 
L 468.791712 314.763595 
L 468.669215 291.75256 
L 468.547134 273.149914 
L 468.486249 274.694331 
L 468.243735 313.824272 
L 468.183362 311.132553 
L 467.883021 269.596834 
L 467.763589 270.121839 
L 467.644558 286.427161 
L 467.407687 312.427849 
L 467.289843 309.097375 
L 467.172392 316.106163 
L 467.113812 314.95132 
L 466.880465 280.638805 
L 466.246661 315.075248 
L 466.132652 302.211351 
L 466.075787 295.797855 
L 466.019015 297.802882 
L 465.90575 305.344807 
L 465.792854 294.044138 
L 465.792854 294.044138 
" style="fill:none;stroke:#e24a33;stroke-linecap:square;stroke-width:1.7;"/>
   </g>
   <g id="patch_8">
    <path d="M 465.799375 316.8 
L 465.799375 43.2 
" style="fill:none;stroke:#ffffff;stroke-linecap:square;stroke-linejoin:miter;"/>
   </g>
   <g id="patch_9">
    <path d="M 811.399375 316.8 
L 811.399375 43.2 
" style="fill:none;stroke:#ffffff;stroke-linecap:square;stroke-linejoin:miter;"/>
   </g>
   <g id="patch_10">
    <path d="M 465.799375 316.8 
L 811.399375 316.8 
" style="fill:none;stroke:#ffffff;stroke-linecap:square;stroke-linejoin:miter;"/>
   </g>
   <g id="patch_11">
    <path d="M 465.799375 43.2 
L 811.399375 43.2 
" style="fill:none;stroke:#ffffff;stroke-linecap:square;stroke-linejoin:miter;"/>
   </g>
  </g>
  <g id="axes_3">
   <g id="patch_12">
    <path d="M 664.519375 158.4 
L 794.119375 158.4 
L 794.119375 50.4 
L 664.519375 50.4 
z
" style="fill:#e5e5e5;"/>
   </g>
   <g id="matplotlib.axis_5">
    <g id="xtick_13">
     <g id="line2d_55">
      <path clip-path="url(#p59495b7027)" d="M 670.410284 158.4 
L 670.410284 50.4 
" style="fill:none;stroke:#ffffff;stroke-linecap:square;stroke-width:0.8;"/>
     </g>
     <g id="line2d_56"/>
     <g id="text_31">
      <!-- 0.0 -->
      <g style="fill:#555555;" transform="translate(662.458722 171.998437)scale(0.1 -0.1)">
       <use xlink:href="#DejaVuSans-30"/>
       <use x="63.623047" xlink:href="#DejaVuSans-2e"/>
       <use x="95.410156" xlink:href="#DejaVuSans-30"/>
      </g>
     </g>
    </g>
    <g id="xtick_14">
     <g id="line2d_57">
      <path clip-path="url(#p59495b7027)" d="M 729.319375 158.4 
L 729.319375 50.4 
" style="fill:none;stroke:#ffffff;stroke-linecap:square;stroke-width:0.8;"/>
     </g>
     <g id="line2d_58"/>
     <g id="text_32">
      <!-- 0.5 -->
      <g style="fill:#555555;" transform="translate(721.367813 171.998437)scale(0.1 -0.1)">
       <use xlink:href="#DejaVuSans-30"/>
       <use x="63.623047" xlink:href="#DejaVuSans-2e"/>
       <use x="95.410156" xlink:href="#DejaVuSans-35"/>
      </g>
     </g>
    </g>
    <g id="xtick_15">
     <g id="line2d_59">
      <path clip-path="url(#p59495b7027)" d="M 788.228466 158.4 
L 788.228466 50.4 
" style="fill:none;stroke:#ffffff;stroke-linecap:square;stroke-width:0.8;"/>
     </g>
     <g id="line2d_60"/>
     <g id="text_33">
      <!-- 1.0 -->
      <g style="fill:#555555;" transform="translate(780.276903 171.998437)scale(0.1 -0.1)">
       <use xlink:href="#DejaVuSans-31"/>
       <use x="63.623047" xlink:href="#DejaVuSans-2e"/>
       <use x="95.410156" xlink:href="#DejaVuSans-30"/>
      </g>
     </g>
    </g>
    <g id="text_34">
     <!-- phase -->
     <defs>
      <path d="M 54.890625 33.015625 
L 54.890625 0 
L 45.90625 0 
L 45.90625 32.71875 
Q 45.90625 40.484375 42.875 44.328125 
Q 39.84375 48.1875 33.796875 48.1875 
Q 26.515625 48.1875 22.3125 43.546875 
Q 18.109375 38.921875 18.109375 30.90625 
L 18.109375 0 
L 9.078125 0 
L 9.078125 75.984375 
L 18.109375 75.984375 
L 18.109375 46.1875 
Q 21.34375 51.125 25.703125 53.5625 
Q 30.078125 56 35.796875 56 
Q 45.21875 56 50.046875 50.171875 
Q 54.890625 44.34375 54.890625 33.015625 
" id="DejaVuSans-68"/>
     </defs>
     <g style="fill:#555555;" transform="translate(711.213438 187.19625)scale(0.12 -0.12)">
      <use xlink:href="#DejaVuSans-70"/>
      <use x="63.476562" xlink:href="#DejaVuSans-68"/>
      <use x="126.855469" xlink:href="#DejaVuSans-61"/>
      <use x="188.134766" xlink:href="#DejaVuSans-73"/>
      <use x="240.234375" xlink:href="#DejaVuSans-65"/>
     </g>
    </g>
   </g>
   <g id="matplotlib.axis_6">
    <g id="ytick_15">
     <g id="line2d_61">
      <path clip-path="url(#p59495b7027)" d="M 664.519375 62.415876 
L 794.119375 62.415876 
" style="fill:none;stroke:#ffffff;stroke-linecap:square;stroke-width:0.8;"/>
     </g>
     <g id="line2d_62"/>
     <g id="text_35">
      <!-- 14.6 -->
      <g style="fill:#555555;" transform="translate(636.25375 66.215095)scale(0.1 -0.1)">
       <use xlink:href="#DejaVuSans-31"/>
       <use x="63.623047" xlink:href="#DejaVuSans-34"/>
       <use x="127.246094" xlink:href="#DejaVuSans-2e"/>
       <use x="159.033203" xlink:href="#DejaVuSans-36"/>
      </g>
     </g>
    </g>
    <g id="ytick_16">
     <g id="line2d_63">
      <path clip-path="url(#p59495b7027)" d="M 664.519375 89.329524 
L 794.119375 89.329524 
" style="fill:none;stroke:#ffffff;stroke-linecap:square;stroke-width:0.8;"/>
     </g>
     <g id="line2d_64"/>
     <g id="text_36">
      <!-- 14.8 -->
      <g style="fill:#555555;" transform="translate(636.25375 93.128742)scale(0.1 -0.1)">
       <use xlink:href="#DejaVuSans-31"/>
       <use x="63.623047" xlink:href="#DejaVuSans-34"/>
       <use x="127.246094" xlink:href="#DejaVuSans-2e"/>
       <use x="159.033203" xlink:href="#DejaVuSans-38"/>
      </g>
     </g>
    </g>
    <g id="ytick_17">
     <g id="line2d_65">
      <path clip-path="url(#p59495b7027)" d="M 664.519375 116.243171 
L 794.119375 116.243171 
" style="fill:none;stroke:#ffffff;stroke-linecap:square;stroke-width:0.8;"/>
     </g>
     <g id="line2d_66"/>
     <g id="text_37">
      <!-- 15.0 -->
      <g style="fill:#555555;" transform="translate(636.25375 120.04239)scale(0.1 -0.1)">
       <use xlink:href="#DejaVuSans-31"/>
       <use x="63.623047" xlink:href="#DejaVuSans-35"/>
       <use x="127.246094" xlink:href="#DejaVuSans-2e"/>
       <use x="159.033203" xlink:href="#DejaVuSans-30"/>
      </g>
     </g>
    </g>
    <g id="ytick_18">
     <g id="line2d_67">
      <path clip-path="url(#p59495b7027)" d="M 664.519375 143.156818 
L 794.119375 143.156818 
" style="fill:none;stroke:#ffffff;stroke-linecap:square;stroke-width:0.8;"/>
     </g>
     <g id="line2d_68"/>
     <g id="text_38">
      <!-- 15.2 -->
      <g style="fill:#555555;" transform="translate(636.25375 146.956037)scale(0.1 -0.1)">
       <use xlink:href="#DejaVuSans-31"/>
       <use x="63.623047" xlink:href="#DejaVuSans-35"/>
       <use x="127.246094" xlink:href="#DejaVuSans-2e"/>
       <use x="159.033203" xlink:href="#DejaVuSans-32"/>
      </g>
     </g>
    </g>
    <g id="text_39">
     <!-- mag -->
     <g style="fill:#555555;" transform="translate(629.758125 117.730312)rotate(-90)scale(0.12 -0.12)">
      <use xlink:href="#DejaVuSans-6d"/>
      <use x="97.412109" xlink:href="#DejaVuSans-61"/>
      <use x="158.691406" xlink:href="#DejaVuSans-67"/>
     </g>
    </g>
   </g>
   <g id="LineCollection_2">
    <path clip-path="url(#p59495b7027)" d="M 776.268456 82.140404 
L 776.268456 87.789651 
" style="fill:none;stroke:#000000;stroke-width:1.7;"/>
    <path clip-path="url(#p59495b7027)" d="M 720.136619 134.108691 
L 720.136619 143.669903 
" style="fill:none;stroke:#000000;stroke-width:1.7;"/>
    <path clip-path="url(#p59495b7027)" d="M 711.788409 129.287074 
L 711.788409 135.258741 
" style="fill:none;stroke:#000000;stroke-width:1.7;"/>
    <path clip-path="url(#p59495b7027)" d="M 753.68737 87.04094 
L 753.68737 89.95194 
" style="fill:none;stroke:#000000;stroke-width:1.7;"/>
    <path clip-path="url(#p59495b7027)" d="M 706.488812 123.474147 
L 706.488812 128.161244 
" style="fill:none;stroke:#000000;stroke-width:1.7;"/>
    <path clip-path="url(#p59495b7027)" d="M 785.141182 94.588941 
L 785.141182 97.822436 
" style="fill:none;stroke:#000000;stroke-width:1.7;"/>
    <path clip-path="url(#p59495b7027)" d="M 757.251877 61.485676 
L 757.251877 72.201496 
" style="fill:none;stroke:#000000;stroke-width:1.7;"/>
    <path clip-path="url(#p59495b7027)" d="M 758.424424 55.309091 
L 758.424424 65.837012 
" style="fill:none;stroke:#000000;stroke-width:1.7;"/>
    <path clip-path="url(#p59495b7027)" d="M 697.323425 129.541805 
L 697.323425 138.694531 
" style="fill:none;stroke:#000000;stroke-width:1.7;"/>
    <path clip-path="url(#p59495b7027)" d="M 752.938865 65.342652 
L 752.938865 72.893145 
" style="fill:none;stroke:#000000;stroke-width:1.7;"/>
    <path clip-path="url(#p59495b7027)" d="M 728.373702 144.316553 
L 728.373702 153.184276 
" style="fill:none;stroke:#000000;stroke-width:1.7;"/>
    <path clip-path="url(#p59495b7027)" d="M 711.852296 132.737397 
L 711.852296 136.795104 
" style="fill:none;stroke:#000000;stroke-width:1.7;"/>
    <path clip-path="url(#p59495b7027)" d="M 698.604252 123.987654 
L 698.604252 129.044916 
" style="fill:none;stroke:#000000;stroke-width:1.7;"/>
    <path clip-path="url(#p59495b7027)" d="M 716.671294 134.569257 
L 716.671294 141.491987 
" style="fill:none;stroke:#000000;stroke-width:1.7;"/>
    <path clip-path="url(#p59495b7027)" d="M 697.745873 125.74092 
L 697.745873 131.311703 
" style="fill:none;stroke:#000000;stroke-width:1.7;"/>
    <path clip-path="url(#p59495b7027)" d="M 716.508744 139.126922 
L 716.508744 142.187103 
" style="fill:none;stroke:#000000;stroke-width:1.7;"/>
    <path clip-path="url(#p59495b7027)" d="M 784.409245 104.43119 
L 784.409245 115.060628 
" style="fill:none;stroke:#000000;stroke-width:1.7;"/>
    <path clip-path="url(#p59495b7027)" d="M 752.201014 65.524453 
L 752.201014 71.779359 
" style="fill:none;stroke:#000000;stroke-width:1.7;"/>
    <path clip-path="url(#p59495b7027)" d="M 748.359989 78.541746 
L 748.359989 85.302458 
" style="fill:none;stroke:#000000;stroke-width:1.7;"/>
    <path clip-path="url(#p59495b7027)" d="M 703.604086 126.652583 
L 703.604086 131.956251 
" style="fill:none;stroke:#000000;stroke-width:1.7;"/>
    <path clip-path="url(#p59495b7027)" d="M 729.486432 148.702341 
L 729.486432 153.490909 
" style="fill:none;stroke:#000000;stroke-width:1.7;"/>
    <path clip-path="url(#p59495b7027)" d="M 683.719724 116.983285 
L 683.719724 122.798435 
" style="fill:none;stroke:#000000;stroke-width:1.7;"/>
    <path clip-path="url(#p59495b7027)" d="M 746.91309 74.635624 
L 746.91309 84.044771 
" style="fill:none;stroke:#000000;stroke-width:1.7;"/>
    <path clip-path="url(#p59495b7027)" d="M 762.515436 68.636103 
L 762.515436 77.276033 
" style="fill:none;stroke:#000000;stroke-width:1.7;"/>
    <path clip-path="url(#p59495b7027)" d="M 714.690621 133.434896 
L 714.690621 139.188043 
" style="fill:none;stroke:#000000;stroke-width:1.7;"/>
    <path clip-path="url(#p59495b7027)" d="M 768.977164 84.025759 
L 768.977164 86.822227 
" style="fill:none;stroke:#000000;stroke-width:1.7;"/>
    <path clip-path="url(#p59495b7027)" d="M 690.978737 121.185565 
L 690.978737 130.315252 
" style="fill:none;stroke:#000000;stroke-width:1.7;"/>
    <path clip-path="url(#p59495b7027)" d="M 726.537271 146.770281 
L 726.537271 151.636717 
" style="fill:none;stroke:#000000;stroke-width:1.7;"/>
    <path clip-path="url(#p59495b7027)" d="M 771.174402 94.498972 
L 771.174402 101.89499 
" style="fill:none;stroke:#000000;stroke-width:1.7;"/>
    <path clip-path="url(#p59495b7027)" d="M 741.078047 101.00484 
L 741.078047 103.902506 
" style="fill:none;stroke:#000000;stroke-width:1.7;"/>
    <path clip-path="url(#p59495b7027)" d="M 671.284569 104.544902 
L 671.284569 112.582948 
" style="fill:none;stroke:#000000;stroke-width:1.7;"/>
    <path clip-path="url(#p59495b7027)" d="M 676.563971 116.312969 
L 676.563971 122.133234 
" style="fill:none;stroke:#000000;stroke-width:1.7;"/>
    <path clip-path="url(#p59495b7027)" d="M 711.815694 132.697828 
L 711.815694 139.402613 
" style="fill:none;stroke:#000000;stroke-width:1.7;"/>
    <path clip-path="url(#p59495b7027)" d="M 718.445909 140.242672 
L 718.445909 146.284025 
" style="fill:none;stroke:#000000;stroke-width:1.7;"/>
    <path clip-path="url(#p59495b7027)" d="M 777.182901 98.953195 
L 777.182901 104.477532 
" style="fill:none;stroke:#000000;stroke-width:1.7;"/>
    <path clip-path="url(#p59495b7027)" d="M 739.093286 102.881768 
L 739.093286 110.02178 
" style="fill:none;stroke:#000000;stroke-width:1.7;"/>
    <path clip-path="url(#p59495b7027)" d="M 765.818097 85.71528 
L 765.818097 96.262017 
" style="fill:none;stroke:#000000;stroke-width:1.7;"/>
    <path clip-path="url(#p59495b7027)" d="M 778.529966 99.814374 
L 778.529966 103.416304 
" style="fill:none;stroke:#000000;stroke-width:1.7;"/>
    <path clip-path="url(#p59495b7027)" d="M 736.280158 114.240342 
L 736.280158 119.460985 
" style="fill:none;stroke:#000000;stroke-width:1.7;"/>
    <path clip-path="url(#p59495b7027)" d="M 685.367057 124.563575 
L 685.367057 127.592418 
" style="fill:none;stroke:#000000;stroke-width:1.7;"/>
    <path clip-path="url(#p59495b7027)" d="M 712.146851 133.659204 
L 712.146851 142.312478 
" style="fill:none;stroke:#000000;stroke-width:1.7;"/>
    <path clip-path="url(#p59495b7027)" d="M 676.793009 116.421082 
L 676.793009 124.421263 
" style="fill:none;stroke:#000000;stroke-width:1.7;"/>
    <path clip-path="url(#p59495b7027)" d="M 770.215975 88.917246 
L 770.215975 93.3416 
" style="fill:none;stroke:#000000;stroke-width:1.7;"/>
    <path clip-path="url(#p59495b7027)" d="M 689.211755 128.360049 
L 689.211755 134.41632 
" style="fill:none;stroke:#000000;stroke-width:1.7;"/>
    <path clip-path="url(#p59495b7027)" d="M 732.990774 115.643611 
L 732.990774 123.533416 
" style="fill:none;stroke:#000000;stroke-width:1.7;"/>
    <path clip-path="url(#p59495b7027)" d="M 732.579612 121.036762 
L 732.579612 129.068989 
" style="fill:none;stroke:#000000;stroke-width:1.7;"/>
    <path clip-path="url(#p59495b7027)" d="M 693.279779 125.832862 
L 693.279779 129.900675 
" style="fill:none;stroke:#000000;stroke-width:1.7;"/>
    <path clip-path="url(#p59495b7027)" d="M 728.453392 139.719608 
L 728.453392 149.529516 
" style="fill:none;stroke:#000000;stroke-width:1.7;"/>
    <path clip-path="url(#p59495b7027)" d="M 754.623498 76.772535 
L 754.623498 85.745611 
" style="fill:none;stroke:#000000;stroke-width:1.7;"/>
    <path clip-path="url(#p59495b7027)" d="M 714.457779 143.652179 
L 714.457779 147.425103 
" style="fill:none;stroke:#000000;stroke-width:1.7;"/>
   </g>
   <g id="line2d_69">
    <path clip-path="url(#p59495b7027)" d="M 670.410284 102.144493 
L 672.814737 105.532247 
L 675.219189 109.043138 
L 677.623642 112.619518 
L 680.028095 116.202663 
L 682.432548 119.733737 
L 684.837 123.154761 
L 687.241453 126.409561 
L 689.645906 129.444693 
L 692.050358 132.210321 
L 694.454811 134.661034 
L 696.859264 136.75659 
L 699.263716 138.46258 
L 701.668169 139.750993 
L 704.072622 140.600673 
L 706.477074 140.997667 
L 708.881527 140.935458 
L 711.28598 140.415066 
L 713.690433 139.445037 
L 716.094885 138.041299 
L 718.499338 136.2269 
L 720.903791 134.031633 
L 723.308243 131.491545 
L 725.712696 128.648343 
L 728.117149 125.548712 
L 730.521601 122.24355 
L 732.926054 118.787126 
L 735.330507 115.236194 
L 737.734959 111.649062 
L 740.139412 108.084629 
L 742.543865 104.601424 
L 744.948317 101.25664 
L 747.35277 98.105198 
L 749.757223 95.198847 
L 752.161676 92.585307 
L 754.566128 90.307492 
L 756.970581 88.402806 
L 759.375034 86.902521 
L 761.779486 85.831274 
L 764.183939 85.206654 
L 766.588392 85.038917 
L 768.992844 85.330817 
L 771.397297 86.077561 
L 773.80175 87.266889 
L 776.206202 88.87927 
L 778.610655 90.888231 
L 781.015108 93.260783 
L 783.419561 95.95797 
L 785.824013 98.935504 
L 788.228466 102.144493 
" style="fill:none;stroke:#e24a33;stroke-linecap:square;stroke-width:1.7;"/>
   </g>
   <g id="line2d_70">
    <defs>
     <path d="M 0 1.5 
C 0.397805 1.5 0.77937 1.341951 1.06066 1.06066 
C 1.341951 0.77937 1.5 0.397805 1.5 0 
C 1.5 -0.397805 1.341951 -0.77937 1.06066 -1.06066 
C 0.77937 -1.341951 0.397805 -1.5 0 -1.5 
C -0.397805 -1.5 -0.77937 -1.341951 -1.06066 -1.06066 
C -1.341951 -0.77937 -1.5 -0.397805 -1.5 0 
C -1.5 0.397805 -1.341951 0.77937 -1.06066 1.06066 
C -0.77937 1.341951 -0.397805 1.5 0 1.5 
z
" id="me2a2c6196f" style="stroke:#000000;"/>
    </defs>
    <g clip-path="url(#p59495b7027)">
     <use style="stroke:#000000;" x="776.268456" xlink:href="#me2a2c6196f" y="84.965027"/>
     <use style="stroke:#000000;" x="720.136619" xlink:href="#me2a2c6196f" y="138.889297"/>
     <use style="stroke:#000000;" x="711.788409" xlink:href="#me2a2c6196f" y="132.272907"/>
     <use style="stroke:#000000;" x="753.68737" xlink:href="#me2a2c6196f" y="88.49644"/>
     <use style="stroke:#000000;" x="706.488812" xlink:href="#me2a2c6196f" y="125.817695"/>
     <use style="stroke:#000000;" x="785.141182" xlink:href="#me2a2c6196f" y="96.205688"/>
     <use style="stroke:#000000;" x="757.251877" xlink:href="#me2a2c6196f" y="66.843586"/>
     <use style="stroke:#000000;" x="758.424424" xlink:href="#me2a2c6196f" y="60.573052"/>
     <use style="stroke:#000000;" x="697.323425" xlink:href="#me2a2c6196f" y="134.118168"/>
     <use style="stroke:#000000;" x="752.938865" xlink:href="#me2a2c6196f" y="69.117899"/>
     <use style="stroke:#000000;" x="728.373702" xlink:href="#me2a2c6196f" y="148.750415"/>
     <use style="stroke:#000000;" x="711.852296" xlink:href="#me2a2c6196f" y="134.766251"/>
     <use style="stroke:#000000;" x="698.604252" xlink:href="#me2a2c6196f" y="126.516285"/>
     <use style="stroke:#000000;" x="716.671294" xlink:href="#me2a2c6196f" y="138.030622"/>
     <use style="stroke:#000000;" x="697.745873" xlink:href="#me2a2c6196f" y="128.526312"/>
     <use style="stroke:#000000;" x="716.508744" xlink:href="#me2a2c6196f" y="140.657013"/>
     <use style="stroke:#000000;" x="784.409245" xlink:href="#me2a2c6196f" y="109.745909"/>
     <use style="stroke:#000000;" x="752.201014" xlink:href="#me2a2c6196f" y="68.651906"/>
     <use style="stroke:#000000;" x="748.359989" xlink:href="#me2a2c6196f" y="81.922102"/>
     <use style="stroke:#000000;" x="703.604086" xlink:href="#me2a2c6196f" y="129.304417"/>
     <use style="stroke:#000000;" x="729.486432" xlink:href="#me2a2c6196f" y="151.096625"/>
     <use style="stroke:#000000;" x="683.719724" xlink:href="#me2a2c6196f" y="119.89086"/>
     <use style="stroke:#000000;" x="746.91309" xlink:href="#me2a2c6196f" y="79.340198"/>
     <use style="stroke:#000000;" x="762.515436" xlink:href="#me2a2c6196f" y="72.956068"/>
     <use style="stroke:#000000;" x="714.690621" xlink:href="#me2a2c6196f" y="136.311469"/>
     <use style="stroke:#000000;" x="768.977164" xlink:href="#me2a2c6196f" y="85.423993"/>
     <use style="stroke:#000000;" x="690.978737" xlink:href="#me2a2c6196f" y="125.750409"/>
     <use style="stroke:#000000;" x="726.537271" xlink:href="#me2a2c6196f" y="149.203499"/>
     <use style="stroke:#000000;" x="771.174402" xlink:href="#me2a2c6196f" y="98.196981"/>
     <use style="stroke:#000000;" x="741.078047" xlink:href="#me2a2c6196f" y="102.453673"/>
     <use style="stroke:#000000;" x="671.284569" xlink:href="#me2a2c6196f" y="108.563925"/>
     <use style="stroke:#000000;" x="676.563971" xlink:href="#me2a2c6196f" y="119.223101"/>
     <use style="stroke:#000000;" x="711.815694" xlink:href="#me2a2c6196f" y="136.050221"/>
     <use style="stroke:#000000;" x="718.445909" xlink:href="#me2a2c6196f" y="143.263349"/>
     <use style="stroke:#000000;" x="777.182901" xlink:href="#me2a2c6196f" y="101.715364"/>
     <use style="stroke:#000000;" x="739.093286" xlink:href="#me2a2c6196f" y="106.451774"/>
     <use style="stroke:#000000;" x="765.818097" xlink:href="#me2a2c6196f" y="90.988648"/>
     <use style="stroke:#000000;" x="778.529966" xlink:href="#me2a2c6196f" y="101.615339"/>
     <use style="stroke:#000000;" x="736.280158" xlink:href="#me2a2c6196f" y="116.850663"/>
     <use style="stroke:#000000;" x="685.367057" xlink:href="#me2a2c6196f" y="126.077996"/>
     <use style="stroke:#000000;" x="712.146851" xlink:href="#me2a2c6196f" y="137.985841"/>
     <use style="stroke:#000000;" x="676.793009" xlink:href="#me2a2c6196f" y="120.421172"/>
     <use style="stroke:#000000;" x="770.215975" xlink:href="#me2a2c6196f" y="91.129423"/>
     <use style="stroke:#000000;" x="689.211755" xlink:href="#me2a2c6196f" y="131.388184"/>
     <use style="stroke:#000000;" x="732.990774" xlink:href="#me2a2c6196f" y="119.588513"/>
     <use style="stroke:#000000;" x="732.579612" xlink:href="#me2a2c6196f" y="125.052875"/>
     <use style="stroke:#000000;" x="693.279779" xlink:href="#me2a2c6196f" y="127.866769"/>
     <use style="stroke:#000000;" x="728.453392" xlink:href="#me2a2c6196f" y="144.624562"/>
     <use style="stroke:#000000;" x="754.623498" xlink:href="#me2a2c6196f" y="81.259073"/>
     <use style="stroke:#000000;" x="714.457779" xlink:href="#me2a2c6196f" y="145.538641"/>
    </g>
   </g>
   <g id="patch_13">
    <path d="M 664.519375 158.4 
L 664.519375 50.4 
" style="fill:none;stroke:#ffffff;stroke-linecap:square;stroke-linejoin:miter;"/>
   </g>
   <g id="patch_14">
    <path d="M 794.119375 158.4 
L 794.119375 50.4 
" style="fill:none;stroke:#ffffff;stroke-linecap:square;stroke-linejoin:miter;"/>
   </g>
   <g id="patch_15">
    <path d="M 664.519375 158.4 
L 794.119375 158.4 
" style="fill:none;stroke:#ffffff;stroke-linecap:square;stroke-linejoin:miter;"/>
   </g>
   <g id="patch_16">
    <path d="M 664.519375 50.4 
L 794.119375 50.4 
" style="fill:none;stroke:#ffffff;stroke-linecap:square;stroke-linejoin:miter;"/>
   </g>
  </g>
  <g id="text_40">
   <!-- Lomb-Scargle Periodogram (period=0.41 days) -->
   <defs>
    <path d="M 10.59375 45.40625 
L 73.1875 45.40625 
L 73.1875 37.203125 
L 10.59375 37.203125 
z
M 10.59375 25.484375 
L 73.1875 25.484375 
L 73.1875 17.1875 
L 10.59375 17.1875 
z
" id="DejaVuSans-3d"/>
   </defs>
   <g transform="translate(280.893438 16.318125)scale(0.12 -0.12)">
    <use xlink:href="#DejaVuSans-4c"/>
    <use x="55.697266" xlink:href="#DejaVuSans-6f"/>
    <use x="116.878906" xlink:href="#DejaVuSans-6d"/>
    <use x="214.291016" xlink:href="#DejaVuSans-62"/>
    <use x="277.767578" xlink:href="#DejaVuSans-2d"/>
    <use x="313.851562" xlink:href="#DejaVuSans-53"/>
    <use x="377.328125" xlink:href="#DejaVuSans-63"/>
    <use x="432.308594" xlink:href="#DejaVuSans-61"/>
    <use x="493.587891" xlink:href="#DejaVuSans-72"/>
    <use x="534.685547" xlink:href="#DejaVuSans-67"/>
    <use x="598.162109" xlink:href="#DejaVuSans-6c"/>
    <use x="625.945312" xlink:href="#DejaVuSans-65"/>
    <use x="687.46875" xlink:href="#DejaVuSans-20"/>
    <use x="719.255859" xlink:href="#DejaVuSans-50"/>
    <use x="779.511719" xlink:href="#DejaVuSans-65"/>
    <use x="841.035156" xlink:href="#DejaVuSans-72"/>
    <use x="882.148438" xlink:href="#DejaVuSans-69"/>
    <use x="909.931641" xlink:href="#DejaVuSans-6f"/>
    <use x="971.113281" xlink:href="#DejaVuSans-64"/>
    <use x="1034.589844" xlink:href="#DejaVuSans-6f"/>
    <use x="1095.771484" xlink:href="#DejaVuSans-67"/>
    <use x="1159.248047" xlink:href="#DejaVuSans-72"/>
    <use x="1200.361328" xlink:href="#DejaVuSans-61"/>
    <use x="1261.640625" xlink:href="#DejaVuSans-6d"/>
    <use x="1359.052734" xlink:href="#DejaVuSans-20"/>
    <use x="1390.839844" xlink:href="#DejaVuSans-28"/>
    <use x="1429.853516" xlink:href="#DejaVuSans-70"/>
    <use x="1493.330078" xlink:href="#DejaVuSans-65"/>
    <use x="1554.853516" xlink:href="#DejaVuSans-72"/>
    <use x="1595.966797" xlink:href="#DejaVuSans-69"/>
    <use x="1623.75" xlink:href="#DejaVuSans-6f"/>
    <use x="1684.931641" xlink:href="#DejaVuSans-64"/>
    <use x="1748.408203" xlink:href="#DejaVuSans-3d"/>
    <use x="1832.197266" xlink:href="#DejaVuSans-30"/>
    <use x="1895.820312" xlink:href="#DejaVuSans-2e"/>
    <use x="1927.607422" xlink:href="#DejaVuSans-34"/>
    <use x="1991.230469" xlink:href="#DejaVuSans-31"/>
    <use x="2054.853516" xlink:href="#DejaVuSans-20"/>
    <use x="2086.640625" xlink:href="#DejaVuSans-64"/>
    <use x="2150.117188" xlink:href="#DejaVuSans-61"/>
    <use x="2211.396484" xlink:href="#DejaVuSans-79"/>
    <use x="2270.576172" xlink:href="#DejaVuSans-73"/>
    <use x="2322.675781" xlink:href="#DejaVuSans-29"/>
   </g>
  </g>
 </g>
 <defs>
  <clipPath id="pd8daacba8b">
   <rect height="273.6" width="345.6" x="51.079375" y="43.2"/>
  </clipPath>
  <clipPath id="pa4cfed69f0">
   <rect height="273.6" width="345.6" x="465.799375" y="43.2"/>
  </clipPath>
  <clipPath id="p59495b7027">
   <rect height="108" width="129.6" x="664.519375" y="50.4"/>
  </clipPath>
 </defs>
</svg>
