<?xml version="1.0" encoding="utf-8" standalone="no"?>
<!DOCTYPE svg PUBLIC "-//W3C//DTD SVG 1.1//EN"
  "http://www.w3.org/Graphics/SVG/1.1/DTD/svg11.dtd">
<!-- Created with matplotlib (http://matplotlib.org/) -->
<svg height="364pt" version="1.1" viewBox="0 0 381 364" width="381pt" xmlns="http://www.w3.org/2000/svg" xmlns:xlink="http://www.w3.org/1999/xlink">
 <defs>
  <style type="text/css">
*{stroke-linecap:butt;stroke-linejoin:round;}
  </style>
 </defs>
 <g id="figure_1">
  <g id="patch_1">
   <path d="M 0 364.65375 
L 381.91875 364.65375 
L 381.91875 0 
L 0 0 
z
" style="fill:none;"/>
  </g>
  <g id="axes_1">
   <g id="patch_2">
    <path d="M 39.91875 339.84 
L 374.71875 339.84 
L 374.71875 7.2 
L 39.91875 7.2 
z
" style="fill:#ffffff;"/>
   </g>
   <g id="matplotlib.axis_1">
    <g id="xtick_1">
     <g id="line2d_1"/>
     <g id="text_1">
      <!-- 0.0 -->
      <defs>
       <path d="M 31.78125 66.40625 
Q 24.171875 66.40625 20.328125 58.90625 
Q 16.5 51.421875 16.5 36.375 
Q 16.5 21.390625 20.328125 13.890625 
Q 24.171875 6.390625 31.78125 6.390625 
Q 39.453125 6.390625 43.28125 13.890625 
Q 47.125 21.390625 47.125 36.375 
Q 47.125 51.421875 43.28125 58.90625 
Q 39.453125 66.40625 31.78125 66.40625 
M 31.78125 74.21875 
Q 44.046875 74.21875 50.515625 64.515625 
Q 56.984375 54.828125 56.984375 36.375 
Q 56.984375 17.96875 50.515625 8.265625 
Q 44.046875 -1.421875 31.78125 -1.421875 
Q 19.53125 -1.421875 13.0625 8.265625 
Q 6.59375 17.96875 6.59375 36.375 
Q 6.59375 54.828125 13.0625 64.515625 
Q 19.53125 74.21875 31.78125 74.21875 
" id="DejaVuSans-30"/>
       <path d="M 10.6875 12.40625 
L 21 12.40625 
L 21 0 
L 10.6875 0 
z
" id="DejaVuSans-2e"/>
      </defs>
      <g style="fill:#565656;" transform="translate(45.595057 354.958125)scale(0.12 -0.12)">
       <use xlink:href="#DejaVuSans-30"/>
       <use x="63.623047" xlink:href="#DejaVuSans-2e"/>
       <use x="95.410156" xlink:href="#DejaVuSans-30"/>
      </g>
     </g>
    </g>
    <g id="xtick_2">
     <g id="line2d_2"/>
     <g id="text_2">
      <!-- 0.5 -->
      <defs>
       <path d="M 10.796875 72.90625 
L 49.515625 72.90625 
L 49.515625 64.59375 
L 19.828125 64.59375 
L 19.828125 46.734375 
Q 21.96875 47.46875 24.109375 47.828125 
Q 26.265625 48.1875 28.421875 48.1875 
Q 40.625 48.1875 47.75 41.5 
Q 54.890625 34.8125 54.890625 23.390625 
Q 54.890625 11.625 47.5625 5.09375 
Q 40.234375 -1.421875 26.90625 -1.421875 
Q 22.3125 -1.421875 17.546875 -0.640625 
Q 12.796875 0.140625 7.71875 1.703125 
L 7.71875 11.625 
Q 12.109375 9.234375 16.796875 8.0625 
Q 21.484375 6.890625 26.703125 6.890625 
Q 35.15625 6.890625 40.078125 11.328125 
Q 45.015625 15.765625 45.015625 23.390625 
Q 45.015625 31 40.078125 35.4375 
Q 35.15625 39.890625 26.703125 39.890625 
Q 22.75 39.890625 18.8125 39.015625 
Q 14.890625 38.140625 10.796875 36.28125 
z
" id="DejaVuSans-35"/>
      </defs>
      <g style="fill:#565656;" transform="translate(106.467784 354.958125)scale(0.12 -0.12)">
       <use xlink:href="#DejaVuSans-30"/>
       <use x="63.623047" xlink:href="#DejaVuSans-2e"/>
       <use x="95.410156" xlink:href="#DejaVuSans-35"/>
      </g>
     </g>
    </g>
    <g id="xtick_3">
     <g id="line2d_3"/>
     <g id="text_3">
      <!-- 1.0 -->
      <defs>
       <path d="M 12.40625 8.296875 
L 28.515625 8.296875 
L 28.515625 63.921875 
L 10.984375 60.40625 
L 10.984375 69.390625 
L 28.421875 72.90625 
L 38.28125 72.90625 
L 38.28125 8.296875 
L 54.390625 8.296875 
L 54.390625 0 
L 12.40625 0 
z
" id="DejaVuSans-31"/>
      </defs>
      <g style="fill:#565656;" transform="translate(167.340511 354.958125)scale(0.12 -0.12)">
       <use xlink:href="#DejaVuSans-31"/>
       <use x="63.623047" xlink:href="#DejaVuSans-2e"/>
       <use x="95.410156" xlink:href="#DejaVuSans-30"/>
      </g>
     </g>
    </g>
    <g id="xtick_4">
     <g id="line2d_4"/>
     <g id="text_4">
      <!-- 1.5 -->
      <g style="fill:#565656;" transform="translate(228.213239 354.958125)scale(0.12 -0.12)">
       <use xlink:href="#DejaVuSans-31"/>
       <use x="63.623047" xlink:href="#DejaVuSans-2e"/>
       <use x="95.410156" xlink:href="#DejaVuSans-35"/>
      </g>
     </g>
    </g>
    <g id="xtick_5">
     <g id="line2d_5"/>
     <g id="text_5">
      <!-- 2.0 -->
      <defs>
       <path d="M 19.1875 8.296875 
L 53.609375 8.296875 
L 53.609375 0 
L 7.328125 0 
L 7.328125 8.296875 
Q 12.9375 14.109375 22.625 23.890625 
Q 32.328125 33.6875 34.8125 36.53125 
Q 39.546875 41.84375 41.421875 45.53125 
Q 43.3125 49.21875 43.3125 52.78125 
Q 43.3125 58.59375 39.234375 62.25 
Q 35.15625 65.921875 28.609375 65.921875 
Q 23.96875 65.921875 18.8125 64.3125 
Q 13.671875 62.703125 7.8125 59.421875 
L 7.8125 69.390625 
Q 13.765625 71.78125 18.9375 73 
Q 24.125 74.21875 28.421875 74.21875 
Q 39.75 74.21875 46.484375 68.546875 
Q 53.21875 62.890625 53.21875 53.421875 
Q 53.21875 48.921875 51.53125 44.890625 
Q 49.859375 40.875 45.40625 35.40625 
Q 44.1875 33.984375 37.640625 27.21875 
Q 31.109375 20.453125 19.1875 8.296875 
" id="DejaVuSans-32"/>
      </defs>
      <g style="fill:#565656;" transform="translate(289.085966 354.958125)scale(0.12 -0.12)">
       <use xlink:href="#DejaVuSans-32"/>
       <use x="63.623047" xlink:href="#DejaVuSans-2e"/>
       <use x="95.410156" xlink:href="#DejaVuSans-30"/>
      </g>
     </g>
    </g>
    <g id="xtick_6">
     <g id="line2d_6"/>
     <g id="text_6">
      <!-- 2.5 -->
      <g style="fill:#565656;" transform="translate(349.958693 354.958125)scale(0.12 -0.12)">
       <use xlink:href="#DejaVuSans-32"/>
       <use x="63.623047" xlink:href="#DejaVuSans-2e"/>
       <use x="95.410156" xlink:href="#DejaVuSans-35"/>
      </g>
     </g>
    </g>
   </g>
   <g id="matplotlib.axis_2">
    <g id="ytick_1">
     <g id="line2d_7"/>
     <g id="text_7">
      <!-- 0.0 -->
      <g style="fill:#565656;" transform="translate(14.835 329.279063)scale(0.12 -0.12)">
       <use xlink:href="#DejaVuSans-30"/>
       <use x="63.623047" xlink:href="#DejaVuSans-2e"/>
       <use x="95.410156" xlink:href="#DejaVuSans-30"/>
      </g>
     </g>
    </g>
    <g id="ytick_2">
     <g id="line2d_8"/>
     <g id="text_8">
      <!-- 2.5 -->
      <g style="fill:#565656;" transform="translate(14.835 290.776299)scale(0.12 -0.12)">
       <use xlink:href="#DejaVuSans-32"/>
       <use x="63.623047" xlink:href="#DejaVuSans-2e"/>
       <use x="95.410156" xlink:href="#DejaVuSans-35"/>
      </g>
     </g>
    </g>
    <g id="ytick_3">
     <g id="line2d_9"/>
     <g id="text_9">
      <!-- 5.0 -->
      <g style="fill:#565656;" transform="translate(14.835 252.273535)scale(0.12 -0.12)">
       <use xlink:href="#DejaVuSans-35"/>
       <use x="63.623047" xlink:href="#DejaVuSans-2e"/>
       <use x="95.410156" xlink:href="#DejaVuSans-30"/>
      </g>
     </g>
    </g>
    <g id="ytick_4">
     <g id="line2d_10"/>
     <g id="text_10">
      <!-- 7.5 -->
      <defs>
       <path d="M 8.203125 72.90625 
L 55.078125 72.90625 
L 55.078125 68.703125 
L 28.609375 0 
L 18.3125 0 
L 43.21875 64.59375 
L 8.203125 64.59375 
z
" id="DejaVuSans-37"/>
      </defs>
      <g style="fill:#565656;" transform="translate(14.835 213.770771)scale(0.12 -0.12)">
       <use xlink:href="#DejaVuSans-37"/>
       <use x="63.623047" xlink:href="#DejaVuSans-2e"/>
       <use x="95.410156" xlink:href="#DejaVuSans-35"/>
      </g>
     </g>
    </g>
    <g id="ytick_5">
     <g id="line2d_11"/>
     <g id="text_11">
      <!-- 10.0 -->
      <g style="fill:#565656;" transform="translate(7.2 175.268007)scale(0.12 -0.12)">
       <use xlink:href="#DejaVuSans-31"/>
       <use x="63.623047" xlink:href="#DejaVuSans-30"/>
       <use x="127.246094" xlink:href="#DejaVuSans-2e"/>
       <use x="159.033203" xlink:href="#DejaVuSans-30"/>
      </g>
     </g>
    </g>
    <g id="ytick_6">
     <g id="line2d_12"/>
     <g id="text_12">
      <!-- 12.5 -->
      <g style="fill:#565656;" transform="translate(7.2 136.765243)scale(0.12 -0.12)">
       <use xlink:href="#DejaVuSans-31"/>
       <use x="63.623047" xlink:href="#DejaVuSans-32"/>
       <use x="127.246094" xlink:href="#DejaVuSans-2e"/>
       <use x="159.033203" xlink:href="#DejaVuSans-35"/>
      </g>
     </g>
    </g>
    <g id="ytick_7">
     <g id="line2d_13"/>
     <g id="text_13">
      <!-- 15.0 -->
      <g style="fill:#565656;" transform="translate(7.2 98.26248)scale(0.12 -0.12)">
       <use xlink:href="#DejaVuSans-31"/>
       <use x="63.623047" xlink:href="#DejaVuSans-35"/>
       <use x="127.246094" xlink:href="#DejaVuSans-2e"/>
       <use x="159.033203" xlink:href="#DejaVuSans-30"/>
      </g>
     </g>
    </g>
    <g id="ytick_8">
     <g id="line2d_14"/>
     <g id="text_14">
      <!-- 17.5 -->
      <g style="fill:#565656;" transform="translate(7.2 59.759716)scale(0.12 -0.12)">
       <use xlink:href="#DejaVuSans-31"/>
       <use x="63.623047" xlink:href="#DejaVuSans-37"/>
       <use x="127.246094" xlink:href="#DejaVuSans-2e"/>
       <use x="159.033203" xlink:href="#DejaVuSans-35"/>
      </g>
     </g>
    </g>
    <g id="ytick_9">
     <g id="line2d_15"/>
     <g id="text_15">
      <!-- 20.0 -->
      <g style="fill:#565656;" transform="translate(7.2 21.256952)scale(0.12 -0.12)">
       <use xlink:href="#DejaVuSans-32"/>
       <use x="63.623047" xlink:href="#DejaVuSans-30"/>
       <use x="127.246094" xlink:href="#DejaVuSans-2e"/>
       <use x="159.033203" xlink:href="#DejaVuSans-30"/>
      </g>
     </g>
    </g>
   </g>
   <g id="line2d_16">
    <path clip-path="url(#pf96ad5d8be)" d="M 55.136932 324.72 
L 58.211312 324.689146 
L 61.285692 324.596584 
L 64.360072 324.442314 
L 67.434452 324.226336 
L 70.508833 323.94865 
L 73.583213 323.609256 
L 76.657593 323.208154 
L 79.731973 322.745344 
L 82.806353 322.220826 
L 85.880733 321.634601 
L 88.955114 320.986667 
L 92.029494 320.277025 
L 95.103874 319.505675 
L 98.178254 318.672617 
L 101.252634 317.777851 
L 104.327014 316.821377 
L 107.401395 315.803196 
L 110.475775 314.723306 
L 113.550155 313.581708 
L 116.624535 312.378402 
L 119.698915 311.113388 
L 122.773295 309.786667 
L 125.847676 308.398237 
L 128.922056 306.948099 
L 131.996436 305.436253 
L 135.070816 303.8627 
L 138.145196 302.227438 
L 141.219576 300.530468 
L 144.293957 298.771791 
L 147.368337 296.951405 
L 150.442717 295.069311 
L 153.517097 293.12551 
L 156.591477 291.12 
L 159.665857 289.052782 
L 162.740238 286.923857 
L 165.814618 284.733223 
L 168.888998 282.480882 
L 171.963378 280.166832 
L 175.037758 277.791074 
L 178.112138 275.353609 
L 181.186519 272.854435 
L 184.260899 270.293554 
L 187.335279 267.670964 
L 190.409659 264.986667 
L 193.484039 262.240661 
L 196.558419 259.432948 
L 199.6328 256.563526 
L 202.70718 253.632397 
L 205.78156 250.639559 
L 208.85594 247.585014 
L 211.93032 244.46876 
L 215.0047 241.290799 
L 218.079081 238.051129 
L 221.153461 234.749752 
L 224.227841 231.386667 
L 227.302221 227.961873 
L 230.376601 224.475372 
L 233.450981 220.927163 
L 236.525362 217.317245 
L 239.599742 213.64562 
L 242.674122 209.912287 
L 245.748502 206.117245 
L 248.822882 202.260496 
L 251.897262 198.342039 
L 254.971643 194.361873 
L 258.046023 190.32 
L 261.120403 186.216419 
L 264.194783 182.051129 
L 267.269163 177.824132 
L 270.343543 173.535427 
L 273.417924 169.185014 
L 276.492304 164.772893 
L 279.566684 160.299063 
L 282.641064 155.763526 
L 285.715444 151.166281 
L 288.789824 146.507328 
L 291.864205 141.786667 
L 294.938585 137.004298 
L 298.012965 132.16022 
L 301.087345 127.254435 
L 304.161725 122.286942 
L 307.236105 117.257741 
L 310.310486 112.166832 
L 313.384866 107.014215 
L 316.459246 101.79989 
L 319.533626 96.523857 
L 322.608006 91.186116 
L 325.682386 85.786667 
L 328.756767 80.32551 
L 331.831147 74.802645 
L 334.905527 69.218072 
L 337.979907 63.571791 
L 341.054287 57.863802 
L 344.128667 52.094105 
L 347.203048 46.2627 
L 350.277428 40.369587 
L 353.351808 34.414766 
L 356.426188 28.398237 
L 359.500568 22.32 
" style="fill:none;stroke:#e24a33;stroke-linecap:square;stroke-width:1.7;"/>
   </g>
   <g id="line2d_17">
    <path clip-path="url(#pf96ad5d8be)" d="M 55.136932 324.72 
L 58.211312 324.642217 
L 61.285692 324.564433 
L 64.360072 324.2533 
L 67.434452 323.7866 
L 70.508833 323.631033 
L 73.583213 323.475466 
L 76.657593 323.397683 
L 79.731973 322.775416 
L 82.806353 322.386499 
L 85.880733 321.764232 
L 88.955114 320.908615 
L 92.029494 320.519698 
L 95.103874 319.586298 
L 98.178254 318.886248 
L 101.252634 318.030631 
L 104.327014 317.330581 
L 107.401395 316.941664 
L 110.475775 315.93048 
L 113.550155 315.074863 
L 116.624535 314.219246 
L 119.698915 312.819146 
L 122.773295 311.963529 
L 125.847676 310.485645 
L 128.922056 309.396678 
L 131.996436 308.696628 
L 135.070816 307.841011 
L 138.145196 306.67426 
L 141.219576 305.04081 
L 144.293957 303.562926 
L 147.368337 302.240609 
L 150.442717 300.918291 
L 153.517097 299.673758 
L 156.591477 297.806957 
L 159.665857 296.95134 
L 162.740238 295.862373 
L 165.814618 294.073356 
L 168.888998 292.517688 
L 171.963378 290.573104 
L 175.037758 289.250787 
L 178.112138 287.150637 
L 181.186519 285.828319 
L 184.260899 284.506002 
L 187.335279 282.716985 
L 190.409659 281.161318 
L 193.484039 278.983384 
L 196.558419 276.649883 
L 199.6328 273.849682 
L 202.70718 272.060664 
L 205.78156 270.271647 
L 208.85594 268.01593 
L 211.93032 265.993562 
L 215.0047 264.126762 
L 218.079081 262.104394 
L 221.153461 259.304193 
L 224.227841 256.581776 
L 227.302221 254.637191 
L 230.376601 252.770391 
L 233.450981 250.592457 
L 236.525362 248.025606 
L 239.599742 245.769888 
L 242.674122 243.203037 
L 245.748502 241.025103 
L 248.822882 238.613819 
L 251.897262 236.824802 
L 254.971643 235.191351 
L 258.046023 233.246767 
L 261.120403 231.535533 
L 264.194783 228.501982 
L 267.269163 226.712965 
L 270.343543 224.301681 
L 273.417924 221.73483 
L 276.492304 219.479112 
L 279.566684 218.079012 
L 282.641064 216.056644 
L 285.715444 214.034277 
L 288.789824 211.389643 
L 291.864205 209.211709 
L 294.938585 206.567074 
L 298.012965 204.15579 
L 301.087345 201.744506 
L 304.161725 199.333222 
L 307.236105 195.910754 
L 310.310486 194.043953 
L 313.384866 191.554885 
L 316.459246 188.832468 
L 319.533626 185.798917 
L 322.608006 183.465416 
L 325.682386 181.598615 
L 328.756767 178.876198 
L 331.831147 176.15378 
L 334.905527 173.664712 
L 337.979907 171.797912 
L 341.054287 168.531011 
L 344.128667 165.886376 
L 347.203048 163.475092 
L 350.277428 159.897057 
L 353.351808 158.030257 
L 356.426188 155.618973 
L 359.500568 152.818772 
" style="fill:none;stroke:#348abd;stroke-linecap:square;stroke-width:1.7;"/>
   </g>
   <g id="line2d_18">
    <path clip-path="url(#pf96ad5d8be)" d="M 55.136932 324.72 
L 58.211312 324.642032 
L 61.285692 324.563456 
L 64.360072 324.246952 
L 67.434452 323.769855 
L 70.508833 323.609731 
L 73.583213 323.448198 
L 76.657593 323.366925 
L 79.731973 322.713247 
L 82.806353 322.301516 
L 85.880733 321.640805 
L 88.955114 320.72576 
L 92.029494 320.30598 
L 95.103874 319.294629 
L 98.178254 318.526671 
L 101.252634 317.586509 
L 104.327014 316.808634 
L 107.401395 316.377487 
L 110.475775 315.234521 
L 113.550155 314.265419 
L 116.624535 313.289222 
L 119.698915 311.684212 
L 122.773295 310.688266 
L 125.847676 308.975243 
L 128.922056 307.698769 
L 131.996436 306.870365 
L 135.070816 305.862682 
L 138.145196 304.462085 
L 141.219576 302.477834 
L 144.293957 300.692055 
L 147.368337 299.067185 
L 150.442717 297.44723 
L 153.517097 295.898346 
L 156.591477 293.546947 
L 159.665857 292.488234 
L 162.740238 291.105016 
L 165.814618 288.801631 
L 168.888998 286.798953 
L 171.963378 284.299173 
L 175.037758 282.572133 
L 178.112138 279.7933 
L 181.186519 278.044178 
L 184.260899 276.273201 
L 187.335279 273.846877 
L 190.409659 271.758894 
L 193.484039 268.747608 
L 196.558419 265.542779 
L 199.6328 261.655878 
L 202.70718 259.148798 
L 205.78156 256.611035 
L 208.85594 253.400289 
L 211.93032 250.472214 
L 215.0047 247.780255 
L 218.079081 244.84876 
L 221.153461 240.709379 
L 224.227841 236.68706 
L 227.302221 233.7666 
L 230.376601 231.003315 
L 233.450981 227.671203 
L 236.525362 223.743883 
L 239.599742 220.266487 
L 242.674122 216.318349 
L 245.748502 212.926891 
L 248.822882 209.126556 
L 251.897262 206.231535 
L 254.971643 203.61475 
L 258.046023 200.440841 
L 261.120403 197.633762 
L 264.194783 192.565297 
L 267.269163 189.590757 
L 270.343543 185.505016 
L 273.417924 181.110435 
L 276.492304 177.23534 
L 279.566684 174.789645 
L 282.641064 171.286558 
L 285.715444 167.742518 
L 288.789824 163.029598 
L 291.864205 159.127101 
L 294.938585 154.318971 
L 298.012965 149.87767 
L 301.087345 145.382713 
L 304.161725 140.862287 
L 307.236105 134.342928 
L 310.310486 130.811655 
L 313.384866 126.08404 
L 316.459246 120.782372 
L 319.533626 114.836966 
L 322.608006 110.186659 
L 325.682386 106.413495 
L 328.756767 100.931799 
L 331.831147 95.331308 
L 334.905527 90.204023 
L 337.979907 86.222558 
L 341.054287 79.393039 
L 344.128667 73.756761 
L 347.203048 68.571962 
L 350.277428 60.817286 
L 353.351808 56.679005 
L 356.426188 51.415447 
L 359.500568 45.057046 
" style="fill:none;stroke:#467821;stroke-linecap:square;stroke-width:1.7;"/>
   </g>
   <g id="line2d_19">
    <path clip-path="url(#pf96ad5d8be)" d="M 55.136932 324.72 
L 58.211312 324.642047 
L 61.285692 324.563549 
L 64.360072 324.24718 
L 67.434452 323.770302 
L 70.508833 323.610028 
L 73.583213 323.448752 
L 76.657593 323.367426 
L 79.731973 322.713438 
L 82.806353 322.302905 
L 85.880733 321.640671 
L 88.955114 320.72397 
L 92.029494 320.304731 
L 95.103874 319.291574 
L 98.178254 318.525858 
L 101.252634 317.583941 
L 104.327014 316.808509 
L 107.401395 316.375006 
L 110.475775 315.239006 
L 113.550155 314.271681 
L 116.624535 313.297029 
L 119.698915 311.688875 
L 122.773295 310.69976 
L 125.847676 308.979728 
L 128.922056 307.704064 
L 131.996436 306.877629 
L 135.070816 305.860588 
L 138.145196 304.464186 
L 141.219576 302.493657 
L 144.293957 300.699462 
L 147.368337 299.081025 
L 150.442717 297.451701 
L 153.517097 295.907846 
L 156.591477 293.572432 
L 159.665857 292.495236 
L 162.740238 291.113386 
L 165.814618 288.824683 
L 168.888998 286.821479 
L 171.963378 284.296556 
L 175.037758 282.567293 
L 178.112138 279.79966 
L 181.186519 278.043305 
L 184.260899 276.272689 
L 187.335279 273.857299 
L 190.409659 271.74196 
L 193.484039 268.758223 
L 196.558419 265.534818 
L 199.6328 261.637458 
L 202.70718 259.125648 
L 205.78156 256.595845 
L 208.85594 253.381124 
L 211.93032 250.474659 
L 215.0047 247.770027 
L 218.079081 244.818489 
L 221.153461 240.694365 
L 224.227841 236.654726 
L 227.302221 233.746561 
L 230.376601 230.926685 
L 233.450981 227.611918 
L 236.525362 223.672674 
L 239.599742 220.18223 
L 242.674122 216.173771 
L 245.748502 212.74397 
L 248.822882 208.914415 
L 251.897262 206.04951 
L 254.971643 203.409201 
L 258.046023 200.235587 
L 261.120403 197.422406 
L 264.194783 192.394764 
L 267.269163 189.402588 
L 270.343543 185.335414 
L 273.417924 180.960045 
L 276.492304 177.082322 
L 279.566684 174.655111 
L 282.641064 171.114176 
L 285.715444 167.542522 
L 288.789824 162.830082 
L 291.864205 158.908428 
L 294.938585 154.103125 
L 298.012965 149.684522 
L 301.087345 145.222916 
L 304.161725 140.71865 
L 307.236105 134.25913 
L 310.310486 130.699257 
L 313.384866 125.911707 
L 316.459246 120.622337 
L 319.533626 114.665341 
L 322.608006 110.042704 
L 325.682386 106.30396 
L 328.756767 100.800069 
L 331.831147 95.242949 
L 334.905527 90.104219 
L 337.979907 86.214089 
L 341.054287 79.33021 
L 344.128667 73.703973 
L 347.203048 68.515605 
L 350.277428 60.738354 
L 353.351808 56.635926 
L 356.426188 51.274222 
L 359.500568 44.985514 
" style="fill:none;stroke:#a60628;stroke-linecap:square;stroke-width:1.7;"/>
   </g>
   <g id="line2d_20">
    <path clip-path="url(#pf96ad5d8be)" d="M 55.136932 324.72 
L 58.211312 324.641423 
L 61.285692 324.559572 
L 64.360072 324.264591 
L 67.434452 323.789164 
L 70.508833 323.619921 
L 73.583213 323.407406 
L 76.657593 323.348062 
L 79.731973 322.591024 
L 82.806353 322.121063 
L 85.880733 321.569774 
L 88.955114 320.717739 
L 92.029494 320.349416 
L 95.103874 319.188617 
L 98.178254 318.394546 
L 101.252634 317.465856 
L 104.327014 317.139768 
L 107.401395 316.897216 
L 110.475775 315.839524 
L 113.550155 314.970107 
L 116.624535 314.179079 
L 119.698915 312.903635 
L 122.773295 311.683099 
L 125.847676 309.994382 
L 128.922056 308.618844 
L 131.996436 308.261956 
L 135.070816 307.239745 
L 138.145196 305.970828 
L 141.219576 304.551886 
L 144.293957 302.901767 
L 147.368337 301.712251 
L 150.442717 300.463259 
L 153.517097 299.89585 
L 156.591477 298.409778 
L 159.665857 297.881309 
L 162.740238 295.78459 
L 165.814618 294.399073 
L 168.888998 292.353614 
L 171.963378 290.812727 
L 175.037758 289.322298 
L 178.112138 287.243977 
L 181.186519 285.287859 
L 184.260899 284.292098 
L 187.335279 281.796548 
L 190.409659 280.886084 
L 193.484039 277.776246 
L 196.558419 277.010054 
L 199.6328 273.016289 
L 202.70718 271.36617 
L 205.78156 271.269104 
L 208.85594 268.169066 
L 211.93032 266.452484 
L 215.0047 263.757291 
L 218.079081 261.015427 
L 221.153461 257.865201 
L 224.227841 253.314874 
L 227.302221 248.764548 
L 230.376601 248.869555 
L 233.450981 247.714472 
L 236.525362 248.264512 
L 239.599742 243.314156 
L 242.674122 238.913841 
L 245.748502 233.963485 
L 248.822882 229.01313 
L 251.897262 226.537952 
L 254.971643 222.687676 
L 258.046023 219.479112 
L 261.120403 215.628836 
L 264.194783 209.211709 
L 267.269163 205.361432 
L 270.343543 200.7411 
L 273.417924 194.580658 
L 276.492304 189.960327 
L 279.566684 183.799884 
L 282.641064 176.869387 
L 285.715444 173.789166 
L 288.789824 169.938889 
L 291.864205 165.318558 
L 294.938585 159.158116 
L 298.012965 155.307839 
L 301.087345 149.532425 
L 304.161725 144.719579 
L 307.236105 132.206181 
L 310.310486 129.318474 
L 313.384866 129.63933 
L 316.459246 118.730213 
L 319.533626 109.104523 
L 322.608006 101.40397 
L 325.682386 97.553693 
L 328.756767 82.152588 
L 331.831147 82.152588 
L 334.905527 324.72 
L 337.979907 324.72 
L 341.054287 324.72 
L 344.128667 324.72 
L 347.203048 324.72 
L 350.277428 324.72 
L 353.351808 324.72 
L 356.426188 324.72 
L 359.500568 324.72 
" style="fill:none;stroke:#7a68a6;stroke-linecap:square;stroke-width:1.7;"/>
   </g>
   <g id="line2d_21">
    <path clip-path="url(#pf96ad5d8be)" d="M 55.136932 324.72 
L 58.211312 324.642217 
L 61.285692 324.564433 
L 64.360072 324.2533 
L 67.434452 323.7866 
L 70.508833 323.631033 
L 73.583213 323.475466 
L 76.657593 323.397683 
L 79.731973 322.775416 
L 82.806353 322.380007 
L 85.880733 321.718949 
L 88.955114 320.625054 
L 92.029494 320.212905 
L 95.103874 319.254631 
L 98.178254 318.445571 
L 101.252634 317.535704 
L 104.327014 316.657351 
L 107.401395 316.185107 
L 110.475775 315.161843 
L 113.550155 314.173257 
L 116.624535 313.167773 
L 119.698915 311.498173 
L 122.773295 310.617732 
L 125.847676 308.732112 
L 128.922056 307.362767 
L 131.996436 306.429907 
L 135.070816 305.513166 
L 138.145196 304.018568 
L 141.219576 302.141357 
L 144.293957 300.262582 
L 147.368337 298.405548 
L 150.442717 296.705849 
L 153.517097 294.900251 
L 156.591477 292.433332 
L 159.665857 291.253338 
L 162.740238 289.97294 
L 165.814618 287.43325 
L 168.888998 285.382812 
L 171.963378 282.671442 
L 175.037758 280.928411 
L 178.112138 278.05143 
L 181.186519 276.150137 
L 184.260899 274.024235 
L 187.335279 271.602615 
L 190.409659 269.349473 
L 193.484039 266.14593 
L 196.558419 262.757342 
L 199.6328 258.426481 
L 202.70718 255.628653 
L 205.78156 252.97086 
L 208.85594 249.713771 
L 211.93032 246.290919 
L 215.0047 243.563532 
L 218.079081 240.62034 
L 221.153461 235.82853 
L 224.227841 231.090757 
L 227.302221 228.169241 
L 230.376601 225.198369 
L 233.450981 220.986167 
L 236.525362 216.957087 
L 239.599742 213.213071 
L 242.674122 208.822645 
L 245.748502 205.487217 
L 248.822882 201.171715 
L 251.897262 197.898319 
L 254.971643 195.23992 
L 258.046023 191.99245 
L 261.120403 188.849732 
L 264.194783 183.939522 
L 267.269163 180.726823 
L 270.343543 176.650228 
L 273.417924 172.177057 
L 276.492304 168.147132 
L 279.566684 165.475814 
L 282.641064 161.895261 
L 285.715444 158.379669 
L 288.789824 153.391176 
L 291.864205 149.254373 
L 294.938585 144.08596 
L 298.012965 139.227098 
L 301.087345 134.826201 
L 304.161725 130.362719 
L 307.236105 124.127803 
L 310.310486 120.230795 
L 313.384866 115.455447 
L 316.459246 109.993042 
L 319.533626 104.191603 
L 322.608006 99.903529 
L 325.682386 96.121259 
L 328.756767 90.878941 
L 331.831147 85.111257 
L 334.905527 79.750899 
L 337.979907 75.823148 
L 341.054287 69.064471 
L 344.128667 63.49705 
L 347.203048 58.347198 
L 350.277428 51.240808 
L 353.351808 47.331118 
L 356.426188 42.057232 
L 359.500568 36.107594 
" style="fill:none;stroke:#cf4457;stroke-linecap:square;stroke-width:1.7;"/>
   </g>
   <g id="patch_3">
    <path d="M 39.91875 339.84 
L 39.91875 7.2 
" style="fill:none;stroke:#aaaaaa;stroke-linecap:square;stroke-linejoin:miter;"/>
   </g>
   <g id="patch_4">
    <path d="M 374.71875 339.84 
L 374.71875 7.2 
" style="fill:none;stroke:#aaaaaa;stroke-linecap:square;stroke-linejoin:miter;"/>
   </g>
   <g id="patch_5">
    <path d="M 39.91875 339.84 
L 374.71875 339.84 
" style="fill:none;stroke:#aaaaaa;stroke-linecap:square;stroke-linejoin:miter;"/>
   </g>
   <g id="patch_6">
    <path d="M 39.91875 7.2 
L 374.71875 7.2 
" style="fill:none;stroke:#aaaaaa;stroke-linecap:square;stroke-linejoin:miter;"/>
   </g>
   <g id="legend_1">
    <g id="patch_7">
     <path d="M 48.31875 122.4825 
L 151.239375 122.4825 
Q 153.639375 122.4825 153.639375 120.0825 
L 153.639375 15.6 
Q 153.639375 13.2 151.239375 13.2 
L 48.31875 13.2 
Q 45.91875 13.2 45.91875 15.6 
L 45.91875 120.0825 
Q 45.91875 122.4825 48.31875 122.4825 
z
" style="fill:#ffffff;opacity:0.8;stroke:#cccccc;stroke-linejoin:miter;"/>
    </g>
    <g id="line2d_22">
     <path d="M 50.71875 22.918125 
L 74.71875 22.918125 
" style="fill:none;stroke:#e24a33;stroke-linecap:square;stroke-width:1.7;"/>
    </g>
    <g id="line2d_23"/>
    <g id="text_16">
     <!-- poisson -->
     <defs>
      <path d="M 18.109375 8.203125 
L 18.109375 -20.796875 
L 9.078125 -20.796875 
L 9.078125 54.6875 
L 18.109375 54.6875 
L 18.109375 46.390625 
Q 20.953125 51.265625 25.265625 53.625 
Q 29.59375 56 35.59375 56 
Q 45.5625 56 51.78125 48.09375 
Q 58.015625 40.1875 58.015625 27.296875 
Q 58.015625 14.40625 51.78125 6.484375 
Q 45.5625 -1.421875 35.59375 -1.421875 
Q 29.59375 -1.421875 25.265625 0.953125 
Q 20.953125 3.328125 18.109375 8.203125 
M 48.6875 27.296875 
Q 48.6875 37.203125 44.609375 42.84375 
Q 40.53125 48.484375 33.40625 48.484375 
Q 26.265625 48.484375 22.1875 42.84375 
Q 18.109375 37.203125 18.109375 27.296875 
Q 18.109375 17.390625 22.1875 11.75 
Q 26.265625 6.109375 33.40625 6.109375 
Q 40.53125 6.109375 44.609375 11.75 
Q 48.6875 17.390625 48.6875 27.296875 
" id="DejaVuSans-70"/>
      <path d="M 30.609375 48.390625 
Q 23.390625 48.390625 19.1875 42.75 
Q 14.984375 37.109375 14.984375 27.296875 
Q 14.984375 17.484375 19.15625 11.84375 
Q 23.34375 6.203125 30.609375 6.203125 
Q 37.796875 6.203125 41.984375 11.859375 
Q 46.1875 17.53125 46.1875 27.296875 
Q 46.1875 37.015625 41.984375 42.703125 
Q 37.796875 48.390625 30.609375 48.390625 
M 30.609375 56 
Q 42.328125 56 49.015625 48.375 
Q 55.71875 40.765625 55.71875 27.296875 
Q 55.71875 13.875 49.015625 6.21875 
Q 42.328125 -1.421875 30.609375 -1.421875 
Q 18.84375 -1.421875 12.171875 6.21875 
Q 5.515625 13.875 5.515625 27.296875 
Q 5.515625 40.765625 12.171875 48.375 
Q 18.84375 56 30.609375 56 
" id="DejaVuSans-6f"/>
      <path d="M 9.421875 54.6875 
L 18.40625 54.6875 
L 18.40625 0 
L 9.421875 0 
z
M 9.421875 75.984375 
L 18.40625 75.984375 
L 18.40625 64.59375 
L 9.421875 64.59375 
z
" id="DejaVuSans-69"/>
      <path d="M 44.28125 53.078125 
L 44.28125 44.578125 
Q 40.484375 46.53125 36.375 47.5 
Q 32.28125 48.484375 27.875 48.484375 
Q 21.1875 48.484375 17.84375 46.4375 
Q 14.5 44.390625 14.5 40.28125 
Q 14.5 37.15625 16.890625 35.375 
Q 19.28125 33.59375 26.515625 31.984375 
L 29.59375 31.296875 
Q 39.15625 29.25 43.1875 25.515625 
Q 47.21875 21.78125 47.21875 15.09375 
Q 47.21875 7.46875 41.1875 3.015625 
Q 35.15625 -1.421875 24.609375 -1.421875 
Q 20.21875 -1.421875 15.453125 -0.5625 
Q 10.6875 0.296875 5.421875 2 
L 5.421875 11.28125 
Q 10.40625 8.6875 15.234375 7.390625 
Q 20.0625 6.109375 24.8125 6.109375 
Q 31.15625 6.109375 34.5625 8.28125 
Q 37.984375 10.453125 37.984375 14.40625 
Q 37.984375 18.0625 35.515625 20.015625 
Q 33.0625 21.96875 24.703125 23.78125 
L 21.578125 24.515625 
Q 13.234375 26.265625 9.515625 29.90625 
Q 5.8125 33.546875 5.8125 39.890625 
Q 5.8125 47.609375 11.28125 51.796875 
Q 16.75 56 26.8125 56 
Q 31.78125 56 36.171875 55.265625 
Q 40.578125 54.546875 44.28125 53.078125 
" id="DejaVuSans-73"/>
      <path d="M 54.890625 33.015625 
L 54.890625 0 
L 45.90625 0 
L 45.90625 32.71875 
Q 45.90625 40.484375 42.875 44.328125 
Q 39.84375 48.1875 33.796875 48.1875 
Q 26.515625 48.1875 22.3125 43.546875 
Q 18.109375 38.921875 18.109375 30.90625 
L 18.109375 0 
L 9.078125 0 
L 9.078125 54.6875 
L 18.109375 54.6875 
L 18.109375 46.1875 
Q 21.34375 51.125 25.703125 53.5625 
Q 30.078125 56 35.796875 56 
Q 45.21875 56 50.046875 50.171875 
Q 54.890625 44.34375 54.890625 33.015625 
" id="DejaVuSans-6e"/>
     </defs>
     <g transform="translate(84.31875 27.118125)scale(0.12 -0.12)">
      <use xlink:href="#DejaVuSans-70"/>
      <use x="63.476562" xlink:href="#DejaVuSans-6f"/>
      <use x="124.658203" xlink:href="#DejaVuSans-69"/>
      <use x="152.441406" xlink:href="#DejaVuSans-73"/>
      <use x="204.541016" xlink:href="#DejaVuSans-73"/>
      <use x="256.640625" xlink:href="#DejaVuSans-6f"/>
      <use x="317.822266" xlink:href="#DejaVuSans-6e"/>
     </g>
    </g>
    <g id="line2d_24">
     <path d="M 50.71875 40.531875 
L 74.71875 40.531875 
" style="fill:none;stroke:#348abd;stroke-linecap:square;stroke-width:1.7;"/>
    </g>
    <g id="line2d_25"/>
    <g id="text_17">
     <!-- none -->
     <defs>
      <path d="M 56.203125 29.59375 
L 56.203125 25.203125 
L 14.890625 25.203125 
Q 15.484375 15.921875 20.484375 11.0625 
Q 25.484375 6.203125 34.421875 6.203125 
Q 39.59375 6.203125 44.453125 7.46875 
Q 49.3125 8.734375 54.109375 11.28125 
L 54.109375 2.78125 
Q 49.265625 0.734375 44.1875 -0.34375 
Q 39.109375 -1.421875 33.890625 -1.421875 
Q 20.796875 -1.421875 13.15625 6.1875 
Q 5.515625 13.8125 5.515625 26.8125 
Q 5.515625 40.234375 12.765625 48.109375 
Q 20.015625 56 32.328125 56 
Q 43.359375 56 49.78125 48.890625 
Q 56.203125 41.796875 56.203125 29.59375 
M 47.21875 32.234375 
Q 47.125 39.59375 43.09375 43.984375 
Q 39.0625 48.390625 32.421875 48.390625 
Q 24.90625 48.390625 20.390625 44.140625 
Q 15.875 39.890625 15.1875 32.171875 
z
" id="DejaVuSans-65"/>
     </defs>
     <g transform="translate(84.31875 44.731875)scale(0.12 -0.12)">
      <use xlink:href="#DejaVuSans-6e"/>
      <use x="63.378906" xlink:href="#DejaVuSans-6f"/>
      <use x="124.560547" xlink:href="#DejaVuSans-6e"/>
      <use x="187.939453" xlink:href="#DejaVuSans-65"/>
     </g>
    </g>
    <g id="line2d_26">
     <path d="M 50.71875 58.145625 
L 74.71875 58.145625 
" style="fill:none;stroke:#467821;stroke-linecap:square;stroke-width:1.7;"/>
    </g>
    <g id="line2d_27"/>
    <g id="text_18">
     <!-- translation -->
     <defs>
      <path d="M 18.3125 70.21875 
L 18.3125 54.6875 
L 36.8125 54.6875 
L 36.8125 47.703125 
L 18.3125 47.703125 
L 18.3125 18.015625 
Q 18.3125 11.328125 20.140625 9.421875 
Q 21.96875 7.515625 27.59375 7.515625 
L 36.8125 7.515625 
L 36.8125 0 
L 27.59375 0 
Q 17.1875 0 13.234375 3.875 
Q 9.28125 7.765625 9.28125 18.015625 
L 9.28125 47.703125 
L 2.6875 47.703125 
L 2.6875 54.6875 
L 9.28125 54.6875 
L 9.28125 70.21875 
z
" id="DejaVuSans-74"/>
      <path d="M 41.109375 46.296875 
Q 39.59375 47.171875 37.8125 47.578125 
Q 36.03125 48 33.890625 48 
Q 26.265625 48 22.1875 43.046875 
Q 18.109375 38.09375 18.109375 28.8125 
L 18.109375 0 
L 9.078125 0 
L 9.078125 54.6875 
L 18.109375 54.6875 
L 18.109375 46.1875 
Q 20.953125 51.171875 25.484375 53.578125 
Q 30.03125 56 36.53125 56 
Q 37.453125 56 38.578125 55.875 
Q 39.703125 55.765625 41.0625 55.515625 
z
" id="DejaVuSans-72"/>
      <path d="M 34.28125 27.484375 
Q 23.390625 27.484375 19.1875 25 
Q 14.984375 22.515625 14.984375 16.5 
Q 14.984375 11.71875 18.140625 8.90625 
Q 21.296875 6.109375 26.703125 6.109375 
Q 34.1875 6.109375 38.703125 11.40625 
Q 43.21875 16.703125 43.21875 25.484375 
L 43.21875 27.484375 
z
M 52.203125 31.203125 
L 52.203125 0 
L 43.21875 0 
L 43.21875 8.296875 
Q 40.140625 3.328125 35.546875 0.953125 
Q 30.953125 -1.421875 24.3125 -1.421875 
Q 15.921875 -1.421875 10.953125 3.296875 
Q 6 8.015625 6 15.921875 
Q 6 25.140625 12.171875 29.828125 
Q 18.359375 34.515625 30.609375 34.515625 
L 43.21875 34.515625 
L 43.21875 35.40625 
Q 43.21875 41.609375 39.140625 45 
Q 35.0625 48.390625 27.6875 48.390625 
Q 23 48.390625 18.546875 47.265625 
Q 14.109375 46.140625 10.015625 43.890625 
L 10.015625 52.203125 
Q 14.9375 54.109375 19.578125 55.046875 
Q 24.21875 56 28.609375 56 
Q 40.484375 56 46.34375 49.84375 
Q 52.203125 43.703125 52.203125 31.203125 
" id="DejaVuSans-61"/>
      <path d="M 9.421875 75.984375 
L 18.40625 75.984375 
L 18.40625 0 
L 9.421875 0 
z
" id="DejaVuSans-6c"/>
     </defs>
     <g transform="translate(84.31875 62.345625)scale(0.12 -0.12)">
      <use xlink:href="#DejaVuSans-74"/>
      <use x="39.208984" xlink:href="#DejaVuSans-72"/>
      <use x="80.322266" xlink:href="#DejaVuSans-61"/>
      <use x="141.601562" xlink:href="#DejaVuSans-6e"/>
      <use x="204.980469" xlink:href="#DejaVuSans-73"/>
      <use x="257.080078" xlink:href="#DejaVuSans-6c"/>
      <use x="284.863281" xlink:href="#DejaVuSans-61"/>
      <use x="346.142578" xlink:href="#DejaVuSans-74"/>
      <use x="385.351562" xlink:href="#DejaVuSans-69"/>
      <use x="413.134766" xlink:href="#DejaVuSans-6f"/>
      <use x="474.316406" xlink:href="#DejaVuSans-6e"/>
     </g>
    </g>
    <g id="line2d_28">
     <path d="M 50.71875 75.759375 
L 74.71875 75.759375 
" style="fill:none;stroke:#a60628;stroke-linecap:square;stroke-width:1.7;"/>
    </g>
    <g id="line2d_29"/>
    <g id="text_19">
     <!-- ohser -->
     <defs>
      <path d="M 54.890625 33.015625 
L 54.890625 0 
L 45.90625 0 
L 45.90625 32.71875 
Q 45.90625 40.484375 42.875 44.328125 
Q 39.84375 48.1875 33.796875 48.1875 
Q 26.515625 48.1875 22.3125 43.546875 
Q 18.109375 38.921875 18.109375 30.90625 
L 18.109375 0 
L 9.078125 0 
L 9.078125 75.984375 
L 18.109375 75.984375 
L 18.109375 46.1875 
Q 21.34375 51.125 25.703125 53.5625 
Q 30.078125 56 35.796875 56 
Q 45.21875 56 50.046875 50.171875 
Q 54.890625 44.34375 54.890625 33.015625 
" id="DejaVuSans-68"/>
     </defs>
     <g transform="translate(84.31875 79.959375)scale(0.12 -0.12)">
      <use xlink:href="#DejaVuSans-6f"/>
      <use x="61.181641" xlink:href="#DejaVuSans-68"/>
      <use x="124.560547" xlink:href="#DejaVuSans-73"/>
      <use x="176.660156" xlink:href="#DejaVuSans-65"/>
      <use x="238.183594" xlink:href="#DejaVuSans-72"/>
     </g>
    </g>
    <g id="line2d_30">
     <path d="M 50.71875 93.373125 
L 74.71875 93.373125 
" style="fill:none;stroke:#7a68a6;stroke-linecap:square;stroke-width:1.7;"/>
    </g>
    <g id="line2d_31"/>
    <g id="text_20">
     <!-- var-width -->
     <defs>
      <path d="M 2.984375 54.6875 
L 12.5 54.6875 
L 29.59375 8.796875 
L 46.6875 54.6875 
L 56.203125 54.6875 
L 35.6875 0 
L 23.484375 0 
z
" id="DejaVuSans-76"/>
      <path d="M 4.890625 31.390625 
L 31.203125 31.390625 
L 31.203125 23.390625 
L 4.890625 23.390625 
z
" id="DejaVuSans-2d"/>
      <path d="M 4.203125 54.6875 
L 13.1875 54.6875 
L 24.421875 12.015625 
L 35.59375 54.6875 
L 46.1875 54.6875 
L 57.421875 12.015625 
L 68.609375 54.6875 
L 77.59375 54.6875 
L 63.28125 0 
L 52.6875 0 
L 40.921875 44.828125 
L 29.109375 0 
L 18.5 0 
z
" id="DejaVuSans-77"/>
      <path d="M 45.40625 46.390625 
L 45.40625 75.984375 
L 54.390625 75.984375 
L 54.390625 0 
L 45.40625 0 
L 45.40625 8.203125 
Q 42.578125 3.328125 38.25 0.953125 
Q 33.9375 -1.421875 27.875 -1.421875 
Q 17.96875 -1.421875 11.734375 6.484375 
Q 5.515625 14.40625 5.515625 27.296875 
Q 5.515625 40.1875 11.734375 48.09375 
Q 17.96875 56 27.875 56 
Q 33.9375 56 38.25 53.625 
Q 42.578125 51.265625 45.40625 46.390625 
M 14.796875 27.296875 
Q 14.796875 17.390625 18.875 11.75 
Q 22.953125 6.109375 30.078125 6.109375 
Q 37.203125 6.109375 41.296875 11.75 
Q 45.40625 17.390625 45.40625 27.296875 
Q 45.40625 37.203125 41.296875 42.84375 
Q 37.203125 48.484375 30.078125 48.484375 
Q 22.953125 48.484375 18.875 42.84375 
Q 14.796875 37.203125 14.796875 27.296875 
" id="DejaVuSans-64"/>
     </defs>
     <g transform="translate(84.31875 97.573125)scale(0.12 -0.12)">
      <use xlink:href="#DejaVuSans-76"/>
      <use x="59.179688" xlink:href="#DejaVuSans-61"/>
      <use x="120.458984" xlink:href="#DejaVuSans-72"/>
      <use x="161.478516" xlink:href="#DejaVuSans-2d"/>
      <use x="197.5625" xlink:href="#DejaVuSans-77"/>
      <use x="279.349609" xlink:href="#DejaVuSans-69"/>
      <use x="307.132812" xlink:href="#DejaVuSans-64"/>
      <use x="370.609375" xlink:href="#DejaVuSans-74"/>
      <use x="409.818359" xlink:href="#DejaVuSans-68"/>
     </g>
    </g>
    <g id="line2d_32">
     <path d="M 50.71875 110.986875 
L 74.71875 110.986875 
" style="fill:none;stroke:#cf4457;stroke-linecap:square;stroke-width:1.7;"/>
    </g>
    <g id="line2d_33"/>
    <g id="text_21">
     <!-- ripley -->
     <defs>
      <path d="M 32.171875 -5.078125 
Q 28.375 -14.84375 24.75 -17.8125 
Q 21.140625 -20.796875 15.09375 -20.796875 
L 7.90625 -20.796875 
L 7.90625 -13.28125 
L 13.1875 -13.28125 
Q 16.890625 -13.28125 18.9375 -11.515625 
Q 21 -9.765625 23.484375 -3.21875 
L 25.09375 0.875 
L 2.984375 54.6875 
L 12.5 54.6875 
L 29.59375 11.921875 
L 46.6875 54.6875 
L 56.203125 54.6875 
z
" id="DejaVuSans-79"/>
     </defs>
     <g transform="translate(84.31875 115.186875)scale(0.12 -0.12)">
      <use xlink:href="#DejaVuSans-72"/>
      <use x="41.113281" xlink:href="#DejaVuSans-69"/>
      <use x="68.896484" xlink:href="#DejaVuSans-70"/>
      <use x="132.373047" xlink:href="#DejaVuSans-6c"/>
      <use x="160.15625" xlink:href="#DejaVuSans-65"/>
      <use x="221.679688" xlink:href="#DejaVuSans-79"/>
     </g>
    </g>
   </g>
  </g>
 </g>
 <defs>
  <clipPath id="pf96ad5d8be">
   <rect height="332.64" width="334.8" x="39.91875" y="7.2"/>
  </clipPath>
 </defs>
</svg>
