<?xml version="1.0" encoding="utf-8" standalone="no"?>
<!DOCTYPE svg PUBLIC "-//W3C//DTD SVG 1.1//EN"
  "http://www.w3.org/Graphics/SVG/1.1/DTD/svg11.dtd">
<!-- Created with matplotlib (http://matplotlib.org/) -->
<svg height="364pt" version="1.1" viewBox="0 0 373 364" width="373pt" xmlns="http://www.w3.org/2000/svg" xmlns:xlink="http://www.w3.org/1999/xlink">
 <defs>
  <style type="text/css">
*{stroke-linecap:butt;stroke-linejoin:round;}
  </style>
 </defs>
 <g id="figure_1">
  <g id="patch_1">
   <path d="M 0 364.65375 
L 373.247111 364.65375 
L 373.247111 0 
L 0 0 
z
" style="fill:none;"/>
  </g>
  <g id="axes_1">
   <g id="patch_2">
    <path d="M 30.890625 339.84 
L 365.690625 339.84 
L 365.690625 7.2 
L 30.890625 7.2 
z
" style="fill:#ffffff;"/>
   </g>
   <g id="matplotlib.axis_1">
    <g id="xtick_1">
     <g id="line2d_1"/>
     <g id="text_1">
      <!-- 0 -->
      <defs>
       <path d="M 31.78125 66.40625 
Q 24.171875 66.40625 20.328125 58.90625 
Q 16.5 51.421875 16.5 36.375 
Q 16.5 21.390625 20.328125 13.890625 
Q 24.171875 6.390625 31.78125 6.390625 
Q 39.453125 6.390625 43.28125 13.890625 
Q 47.125 21.390625 47.125 36.375 
Q 47.125 51.421875 43.28125 58.90625 
Q 39.453125 66.40625 31.78125 66.40625 
M 31.78125 74.21875 
Q 44.046875 74.21875 50.515625 64.515625 
Q 56.984375 54.828125 56.984375 36.375 
Q 56.984375 17.96875 50.515625 8.265625 
Q 44.046875 -1.421875 31.78125 -1.421875 
Q 19.53125 -1.421875 13.0625 8.265625 
Q 6.59375 17.96875 6.59375 36.375 
Q 6.59375 54.828125 13.0625 64.515625 
Q 19.53125 74.21875 31.78125 74.21875 
" id="DejaVuSans-30"/>
      </defs>
      <g style="fill:#565656;" transform="translate(42.291307 354.958125)scale(0.12 -0.12)">
       <use xlink:href="#DejaVuSans-30"/>
      </g>
     </g>
    </g>
    <g id="xtick_2">
     <g id="line2d_2"/>
     <g id="text_2">
      <!-- 200 -->
      <defs>
       <path d="M 19.1875 8.296875 
L 53.609375 8.296875 
L 53.609375 0 
L 7.328125 0 
L 7.328125 8.296875 
Q 12.9375 14.109375 22.625 23.890625 
Q 32.328125 33.6875 34.8125 36.53125 
Q 39.546875 41.84375 41.421875 45.53125 
Q 43.3125 49.21875 43.3125 52.78125 
Q 43.3125 58.59375 39.234375 62.25 
Q 35.15625 65.921875 28.609375 65.921875 
Q 23.96875 65.921875 18.8125 64.3125 
Q 13.671875 62.703125 7.8125 59.421875 
L 7.8125 69.390625 
Q 13.765625 71.78125 18.9375 73 
Q 24.125 74.21875 28.421875 74.21875 
Q 39.75 74.21875 46.484375 68.546875 
Q 53.21875 62.890625 53.21875 53.421875 
Q 53.21875 48.921875 51.53125 44.890625 
Q 49.859375 40.875 45.40625 35.40625 
Q 44.1875 33.984375 37.640625 27.21875 
Q 31.109375 20.453125 19.1875 8.296875 
" id="DejaVuSans-32"/>
      </defs>
      <g style="fill:#565656;" transform="translate(95.589968 354.958125)scale(0.12 -0.12)">
       <use xlink:href="#DejaVuSans-32"/>
       <use x="63.623047" xlink:href="#DejaVuSans-30"/>
       <use x="127.246094" xlink:href="#DejaVuSans-30"/>
      </g>
     </g>
    </g>
    <g id="xtick_3">
     <g id="line2d_3"/>
     <g id="text_3">
      <!-- 400 -->
      <defs>
       <path d="M 37.796875 64.3125 
L 12.890625 25.390625 
L 37.796875 25.390625 
z
M 35.203125 72.90625 
L 47.609375 72.90625 
L 47.609375 25.390625 
L 58.015625 25.390625 
L 58.015625 17.1875 
L 47.609375 17.1875 
L 47.609375 0 
L 37.796875 0 
L 37.796875 17.1875 
L 4.890625 17.1875 
L 4.890625 26.703125 
z
" id="DejaVuSans-34"/>
      </defs>
      <g style="fill:#565656;" transform="translate(156.523629 354.958125)scale(0.12 -0.12)">
       <use xlink:href="#DejaVuSans-34"/>
       <use x="63.623047" xlink:href="#DejaVuSans-30"/>
       <use x="127.246094" xlink:href="#DejaVuSans-30"/>
      </g>
     </g>
    </g>
    <g id="xtick_4">
     <g id="line2d_4"/>
     <g id="text_4">
      <!-- 600 -->
      <defs>
       <path d="M 33.015625 40.375 
Q 26.375 40.375 22.484375 35.828125 
Q 18.609375 31.296875 18.609375 23.390625 
Q 18.609375 15.53125 22.484375 10.953125 
Q 26.375 6.390625 33.015625 6.390625 
Q 39.65625 6.390625 43.53125 10.953125 
Q 47.40625 15.53125 47.40625 23.390625 
Q 47.40625 31.296875 43.53125 35.828125 
Q 39.65625 40.375 33.015625 40.375 
M 52.59375 71.296875 
L 52.59375 62.3125 
Q 48.875 64.0625 45.09375 64.984375 
Q 41.3125 65.921875 37.59375 65.921875 
Q 27.828125 65.921875 22.671875 59.328125 
Q 17.53125 52.734375 16.796875 39.40625 
Q 19.671875 43.65625 24.015625 45.921875 
Q 28.375 48.1875 33.59375 48.1875 
Q 44.578125 48.1875 50.953125 41.515625 
Q 57.328125 34.859375 57.328125 23.390625 
Q 57.328125 12.15625 50.6875 5.359375 
Q 44.046875 -1.421875 33.015625 -1.421875 
Q 20.359375 -1.421875 13.671875 8.265625 
Q 6.984375 17.96875 6.984375 36.375 
Q 6.984375 53.65625 15.1875 63.9375 
Q 23.390625 74.21875 37.203125 74.21875 
Q 40.921875 74.21875 44.703125 73.484375 
Q 48.484375 72.75 52.59375 71.296875 
" id="DejaVuSans-36"/>
      </defs>
      <g style="fill:#565656;" transform="translate(217.45729 354.958125)scale(0.12 -0.12)">
       <use xlink:href="#DejaVuSans-36"/>
       <use x="63.623047" xlink:href="#DejaVuSans-30"/>
       <use x="127.246094" xlink:href="#DejaVuSans-30"/>
      </g>
     </g>
    </g>
    <g id="xtick_5">
     <g id="line2d_5"/>
     <g id="text_5">
      <!-- 800 -->
      <defs>
       <path d="M 31.78125 34.625 
Q 24.75 34.625 20.71875 30.859375 
Q 16.703125 27.09375 16.703125 20.515625 
Q 16.703125 13.921875 20.71875 10.15625 
Q 24.75 6.390625 31.78125 6.390625 
Q 38.8125 6.390625 42.859375 10.171875 
Q 46.921875 13.96875 46.921875 20.515625 
Q 46.921875 27.09375 42.890625 30.859375 
Q 38.875 34.625 31.78125 34.625 
M 21.921875 38.8125 
Q 15.578125 40.375 12.03125 44.71875 
Q 8.5 49.078125 8.5 55.328125 
Q 8.5 64.0625 14.71875 69.140625 
Q 20.953125 74.21875 31.78125 74.21875 
Q 42.671875 74.21875 48.875 69.140625 
Q 55.078125 64.0625 55.078125 55.328125 
Q 55.078125 49.078125 51.53125 44.71875 
Q 48 40.375 41.703125 38.8125 
Q 48.828125 37.15625 52.796875 32.3125 
Q 56.78125 27.484375 56.78125 20.515625 
Q 56.78125 9.90625 50.3125 4.234375 
Q 43.84375 -1.421875 31.78125 -1.421875 
Q 19.734375 -1.421875 13.25 4.234375 
Q 6.78125 9.90625 6.78125 20.515625 
Q 6.78125 27.484375 10.78125 32.3125 
Q 14.796875 37.15625 21.921875 38.8125 
M 18.3125 54.390625 
Q 18.3125 48.734375 21.84375 45.5625 
Q 25.390625 42.390625 31.78125 42.390625 
Q 38.140625 42.390625 41.71875 45.5625 
Q 45.3125 48.734375 45.3125 54.390625 
Q 45.3125 60.0625 41.71875 63.234375 
Q 38.140625 66.40625 31.78125 66.40625 
Q 25.390625 66.40625 21.84375 63.234375 
Q 18.3125 60.0625 18.3125 54.390625 
" id="DejaVuSans-38"/>
      </defs>
      <g style="fill:#565656;" transform="translate(278.390951 354.958125)scale(0.12 -0.12)">
       <use xlink:href="#DejaVuSans-38"/>
       <use x="63.623047" xlink:href="#DejaVuSans-30"/>
       <use x="127.246094" xlink:href="#DejaVuSans-30"/>
      </g>
     </g>
    </g>
    <g id="xtick_6">
     <g id="line2d_6"/>
     <g id="text_6">
      <!-- 1000 -->
      <defs>
       <path d="M 12.40625 8.296875 
L 28.515625 8.296875 
L 28.515625 63.921875 
L 10.984375 60.40625 
L 10.984375 69.390625 
L 28.421875 72.90625 
L 38.28125 72.90625 
L 38.28125 8.296875 
L 54.390625 8.296875 
L 54.390625 0 
L 12.40625 0 
z
" id="DejaVuSans-31"/>
      </defs>
      <g style="fill:#565656;" transform="translate(335.507111 354.958125)scale(0.12 -0.12)">
       <use xlink:href="#DejaVuSans-31"/>
       <use x="63.623047" xlink:href="#DejaVuSans-30"/>
       <use x="127.246094" xlink:href="#DejaVuSans-30"/>
       <use x="190.869141" xlink:href="#DejaVuSans-30"/>
      </g>
     </g>
    </g>
   </g>
   <g id="matplotlib.axis_2">
    <g id="ytick_1">
     <g id="line2d_7"/>
     <g id="text_7">
      <!-- −3 -->
      <defs>
       <path d="M 10.59375 35.5 
L 73.1875 35.5 
L 73.1875 27.203125 
L 10.59375 27.203125 
z
" id="DejaVuSans-2212"/>
       <path d="M 40.578125 39.3125 
Q 47.65625 37.796875 51.625 33 
Q 55.609375 28.21875 55.609375 21.1875 
Q 55.609375 10.40625 48.1875 4.484375 
Q 40.765625 -1.421875 27.09375 -1.421875 
Q 22.515625 -1.421875 17.65625 -0.515625 
Q 12.796875 0.390625 7.625 2.203125 
L 7.625 11.71875 
Q 11.71875 9.328125 16.59375 8.109375 
Q 21.484375 6.890625 26.8125 6.890625 
Q 36.078125 6.890625 40.9375 10.546875 
Q 45.796875 14.203125 45.796875 21.1875 
Q 45.796875 27.640625 41.28125 31.265625 
Q 36.765625 34.90625 28.71875 34.90625 
L 20.21875 34.90625 
L 20.21875 43.015625 
L 29.109375 43.015625 
Q 36.375 43.015625 40.234375 45.921875 
Q 44.09375 48.828125 44.09375 54.296875 
Q 44.09375 59.90625 40.109375 62.90625 
Q 36.140625 65.921875 28.71875 65.921875 
Q 24.65625 65.921875 20.015625 65.03125 
Q 15.375 64.15625 9.8125 62.3125 
L 9.8125 71.09375 
Q 15.4375 72.65625 20.34375 73.4375 
Q 25.25 74.21875 29.59375 74.21875 
Q 40.828125 74.21875 47.359375 69.109375 
Q 53.90625 64.015625 53.90625 55.328125 
Q 53.90625 49.265625 50.4375 45.09375 
Q 46.96875 40.921875 40.578125 39.3125 
" id="DejaVuSans-33"/>
      </defs>
      <g style="fill:#565656;" transform="translate(7.2 311.523729)scale(0.12 -0.12)">
       <use xlink:href="#DejaVuSans-2212"/>
       <use x="83.789062" xlink:href="#DejaVuSans-33"/>
      </g>
     </g>
    </g>
    <g id="ytick_2">
     <g id="line2d_8"/>
     <g id="text_8">
      <!-- −2 -->
      <g style="fill:#565656;" transform="translate(7.2 269.527209)scale(0.12 -0.12)">
       <use xlink:href="#DejaVuSans-2212"/>
       <use x="83.789062" xlink:href="#DejaVuSans-32"/>
      </g>
     </g>
    </g>
    <g id="ytick_3">
     <g id="line2d_9"/>
     <g id="text_9">
      <!-- −1 -->
      <g style="fill:#565656;" transform="translate(7.2 227.530688)scale(0.12 -0.12)">
       <use xlink:href="#DejaVuSans-2212"/>
       <use x="83.789062" xlink:href="#DejaVuSans-31"/>
      </g>
     </g>
    </g>
    <g id="ytick_4">
     <g id="line2d_10"/>
     <g id="text_10">
      <!-- 0 -->
      <g style="fill:#565656;" transform="translate(17.255625 185.534167)scale(0.12 -0.12)">
       <use xlink:href="#DejaVuSans-30"/>
      </g>
     </g>
    </g>
    <g id="ytick_5">
     <g id="line2d_11"/>
     <g id="text_11">
      <!-- 1 -->
      <g style="fill:#565656;" transform="translate(17.255625 143.537646)scale(0.12 -0.12)">
       <use xlink:href="#DejaVuSans-31"/>
      </g>
     </g>
    </g>
    <g id="ytick_6">
     <g id="line2d_12"/>
     <g id="text_12">
      <!-- 2 -->
      <g style="fill:#565656;" transform="translate(17.255625 101.541126)scale(0.12 -0.12)">
       <use xlink:href="#DejaVuSans-32"/>
      </g>
     </g>
    </g>
    <g id="ytick_7">
     <g id="line2d_13"/>
     <g id="text_13">
      <!-- 3 -->
      <g style="fill:#565656;" transform="translate(17.255625 59.544605)scale(0.12 -0.12)">
       <use xlink:href="#DejaVuSans-33"/>
      </g>
     </g>
    </g>
    <g id="ytick_8">
     <g id="line2d_14"/>
     <g id="text_14">
      <!-- 4 -->
      <g style="fill:#565656;" transform="translate(17.255625 17.548084)scale(0.12 -0.12)">
       <use xlink:href="#DejaVuSans-34"/>
      </g>
     </g>
    </g>
   </g>
   <g id="line2d_15">
    <path clip-path="url(#pf8039a9d86)" d="M 46.413475 172.440716 
L 46.718143 224.988061 
M 47.32748 128.692496 
L 47.632148 235.295854 
M 48.241485 237.492229 
L 48.546153 179.702661 
M 49.15549 217.915432 
L 49.460158 177.817934 
M 50.069495 255.535775 
L 50.374163 118.57889 
M 50.9835 144.72803 
L 51.288168 170.224321 
M 51.897505 252.125652 
L 52.202173 177.392058 
M 52.81151 137.466233 
L 53.116178 207.997081 
M 53.725514 116.800109 
L 54.030183 229.649985 
M 54.639519 257.131748 
L 54.944188 195.574969 
M 55.553524 131.120588 
L 55.858193 101.285398 
M 56.467529 135.238863 
L 56.772197 166.738554 
M 57.381534 220.840345 
L 57.686202 133.67816 
M 58.295539 222.2481 
L 58.600207 113.236079 
M 59.209544 104.378771 
L 59.514212 170.399602 
M 60.123549 157.427888 
L 60.428217 167.960125 
M 61.037554 150.151007 
L 61.342222 155.923693 
M 61.951559 146.579721 
L 62.256227 140.179225 
M 62.865564 176.379867 
L 63.170232 144.753821 
M 63.779568 142.187385 
L 64.084237 121.577025 
M 64.693573 165.010923 
L 64.998242 171.313222 
M 65.607578 147.466292 
L 65.912247 133.34846 
M 66.521583 136.334424 
L 66.826252 110.614425 
M 67.435588 201.909099 
L 67.740256 151.727879 
M 68.349593 213.358352 
L 68.654261 173.704295 
M 69.263598 183.718634 
L 69.568266 184.000208 
M 70.177603 131.185493 
L 70.482271 145.01982 
M 71.091608 168.449129 
L 71.396276 145.603257 
M 72.005613 119.727021 
L 72.310281 118.059116 
M 72.919618 150.442075 
L 73.224286 141.504249 
M 73.833623 165.409612 
L 74.138291 209.891851 
M 74.747627 184.461456 
L 75.052296 184.226768 
M 75.661632 180.855087 
L 75.966301 147.66416 
M 76.575637 171.665026 
L 76.880306 108.037751 
M 77.489642 76.690846 
L 77.794311 170.500215 
M 78.403647 87.372456 
L 78.708315 63.294688 
M 79.317652 137.019951 
L 79.62232 83.827732 
M 80.231657 147.33128 
L 80.536325 166.541825 
M 81.145662 153.871691 
L 81.45033 156.851856 
M 82.059667 142.136553 
L 82.364335 116.013711 
M 82.973672 166.299978 
L 83.27834 155.703326 
M 83.887677 117.723314 
L 84.192345 98.575499 
M 84.801682 160.856481 
L 85.10635 152.573697 
M 85.715686 233.585989 
L 86.020355 157.42052 
M 86.629691 128.097857 
L 86.93436 115.783517 
M 87.543696 166.196873 
L 87.848365 204.310165 
M 88.457701 187.769285 
L 88.762369 237.413146 
M 89.371706 118.387124 
L 89.676374 144.517514 
M 90.285711 188.266715 
L 90.590379 179.689413 
M 91.199716 110.335181 
L 91.504384 216.147012 
M 92.113721 109.617003 
L 92.418389 251.141788 
M 93.027726 159.255781 
L 93.332394 102.305457 
M 93.941731 22.32 
L 94.246399 185.113455 
M 94.855736 101.825427 
L 95.160404 168.378237 
M 95.76974 213.896713 
L 96.074409 186.107031 
M 96.683745 86.086874 
L 96.988414 61.480942 
M 97.59775 97.567898 
L 97.902419 181.012246 
M 98.511755 131.097978 
L 98.816424 130.701766 
M 99.42576 122.703794 
L 99.730428 81.296102 
M 100.339765 145.916581 
L 100.644433 70.004969 
M 101.25377 115.189007 
L 101.558438 113.959969 
M 102.167775 92.463684 
L 102.472443 98.8971 
M 103.08178 110.531609 
L 103.386448 137.613617 
M 103.995785 186.310166 
L 104.300453 134.537679 
M 104.90979 140.313019 
L 105.214458 157.665576 
M 105.823795 196.92159 
L 106.128463 119.202253 
M 106.737799 167.641533 
L 107.042468 96.878317 
M 107.651804 231.793581 
L 107.956473 219.919956 
M 108.565809 260.794752 
L 108.870478 131.397768 
M 109.479814 50.203606 
L 109.784482 159.756864 
M 110.393819 128.385815 
L 110.698487 124.910944 
M 111.307824 112.230389 
L 111.612492 175.259588 
M 112.221829 126.994249 
L 112.526497 202.587441 
M 113.135834 149.844762 
L 113.440502 127.581981 
M 114.049839 151.035632 
L 114.354507 130.094971 
M 114.963844 163.085803 
L 115.268512 139.613891 
M 115.877849 103.868341 
L 116.182517 162.336843 
M 116.791854 190.527452 
L 117.096522 162.738454 
M 117.705858 105.878072 
L 118.010527 99.804164 
M 118.619863 99.884845 
L 118.924532 175.414509 
M 119.533868 166.557131 
L 119.838537 101.270743 
M 120.447873 151.359728 
L 120.752541 174.096558 
M 121.361878 59.618607 
L 121.666546 218.313585 
M 122.275883 151.212204 
L 122.580551 147.661275 
M 123.189888 126.837696 
L 123.494556 140.907738 
M 124.103893 188.075374 
L 124.408561 223.279266 
M 125.017898 165.24906 
L 125.322566 102.671916 
M 125.931903 144.907619 
L 126.236571 88.257259 
M 126.845908 198.175852 
L 127.150576 181.133471 
M 127.759912 213.377688 
L 128.064581 224.648344 
M 128.673917 245.422202 
L 128.978586 219.41921 
M 129.587922 250.819522 
L 129.892591 157.787479 
M 130.501927 173.453582 
L 130.806596 171.460415 
M 131.415932 113.944357 
L 131.7206 139.40538 
M 132.329937 176.144383 
L 132.634605 184.950036 
M 133.243942 149.090167 
L 133.54861 189.020284 
M 134.157947 203.199144 
L 134.462615 190.018462 
M 135.071952 177.829297 
L 135.37662 171.415884 
M 135.985957 95.067163 
L 136.290625 267.18768 
M 136.899962 167.92665 
L 137.20463 273.554494 
M 137.813967 211.413608 
L 138.118635 160.948755 
M 138.727971 226.972691 
L 139.03264 208.151253 
M 139.641976 137.716179 
L 139.946645 195.149965 
M 140.555981 241.095505 
L 140.86065 176.182908 
M 141.469986 185.336207 
L 141.774654 215.895203 
M 142.383991 165.740661 
L 142.688659 163.573991 
M 143.297996 78.176516 
L 143.602664 221.320826 
M 144.212001 208.148252 
L 144.516669 240.595414 
M 145.126006 188.924949 
L 145.430674 207.098601 
M 146.040011 212.5915 
L 146.344679 240.205745 
M 146.954016 161.310193 
L 147.258684 254.336922 
M 147.868021 173.400847 
L 148.172689 197.843651 
M 148.782025 237.139989 
L 149.086694 239.30564 
M 149.69603 236.71741 
L 150.000699 208.528837 
M 150.610035 169.857255 
L 150.914704 254.403159 
M 151.52404 177.741217 
L 151.828709 150.437945 
M 152.438045 243.839798 
L 152.742713 187.892404 
M 153.35205 294.288504 
L 153.656718 152.337518 
M 154.266055 130.736118 
L 154.570723 187.333626 
M 155.18006 161.022234 
L 155.484728 228.573164 
M 156.094065 243.771962 
L 156.398733 192.50558 
M 157.00807 188.946037 
L 157.312738 146.607696 
M 157.922075 199.622188 
L 158.226743 261.214088 
M 158.83608 181.636891 
L 159.140748 181.238669 
M 159.750084 235.301791 
L 160.054753 302.32643 
M 160.664089 259.770183 
L 160.968758 156.911585 
M 161.578094 226.995565 
L 161.882763 202.449977 
M 162.492099 305.232748 
L 162.796768 258.75253 
M 163.406104 215.112811 
L 163.710772 194.108296 
M 164.320109 174.657008 
L 164.624777 226.437897 
M 165.234114 238.620671 
L 165.538782 232.911062 
M 166.148119 306.123859 
L 166.452787 223.739762 
M 167.062124 178.058155 
L 167.366792 224.354776 
M 167.976129 203.099765 
L 168.280797 186.660007 
M 168.890134 192.0829 
L 169.194802 219.376956 
M 169.804139 269.659974 
L 170.108807 205.237944 
M 170.718143 177.098194 
L 171.022812 116.075582 
M 171.632148 266.247944 
L 171.936817 210.365594 
M 172.546153 261.480192 
L 172.850822 156.087102 
M 173.460158 114.04934 
L 173.764826 213.840869 
M 174.374163 157.956102 
L 174.678831 238.783621 
M 175.288168 137.326544 
L 175.592836 273.384833 
M 176.202173 222.805695 
L 176.506841 272.265994 
M 177.116178 245.788052 
L 177.420846 276.016018 
M 178.030183 201.388285 
L 178.334851 295.198346 
M 178.944188 223.124217 
L 179.248856 224.772863 
M 179.858193 166.267165 
L 180.162861 211.627301 
M 180.772197 180.707612 
L 181.076866 230.335848 
M 181.686202 305.38588 
L 181.990871 247.369318 
M 182.600207 238.988526 
L 182.904876 255.753646 
M 183.514212 199.355304 
L 183.818881 264.295942 
M 184.428217 266.914508 
L 184.732885 206.070657 
M 185.342222 156.797236 
L 185.64689 224.381981 
M 186.256227 212.58219 
L 186.560895 169.30583 
M 187.170232 250.710842 
L 187.4749 241.253452 
M 188.084237 156.48653 
L 188.388905 296.766007 
M 188.998242 225.766345 
L 189.30291 218.48226 
M 189.912247 257.253439 
L 190.216915 240.455219 
M 190.826252 297.100022 
L 191.13092 273.69804 
M 191.740256 286.343795 
L 192.044925 268.356549 
M 192.654261 250.413637 
L 192.95893 211.430367 
M 193.568266 257.689583 
L 193.872935 243.189176 
M 194.482271 234.699732 
L 194.786939 262.556025 
M 195.396276 179.361428 
L 195.700944 251.275854 
M 196.310281 224.315977 
L 196.614949 205.481554 
M 197.224286 282.593148 
L 197.528954 159.177372 
M 198.138291 305.598782 
L 198.442959 258.803995 
M 199.052296 260.527111 
L 199.356964 268.116606 
M 199.966301 293.398496 
L 200.270969 251.964303 
M 200.880306 209.095423 
L 201.184974 224.780794 
M 201.794311 217.093361 
L 202.098979 257.085958 
M 202.708315 280.892989 
L 203.012984 182.169066 
M 203.62232 167.748376 
L 203.926989 214.179355 
M 204.536325 248.529002 
L 204.840994 298.038261 
M 205.45033 177.761923 
L 205.754998 210.765116 
M 206.364335 252.866412 
L 206.669003 295.134917 
M 207.27834 208.303616 
L 207.583008 179.049044 
M 208.192345 211.174608 
L 208.497013 198.932703 
M 209.10635 183.552325 
L 209.411018 247.646112 
M 210.020355 152.375422 
L 210.325023 231.62297 
M 210.93436 222.69211 
L 211.239028 222.064855 
M 211.848365 239.229701 
L 212.153033 237.382103 
M 212.762369 204.238874 
L 213.067038 177.997434 
M 213.676374 324.72 
L 213.981043 224.268495 
M 214.590379 196.889246 
L 214.895048 163.852468 
M 215.504384 222.884716 
L 215.809053 211.884672 
M 216.418389 167.344494 
L 216.723057 194.701988 
M 217.332394 189.304863 
L 217.637062 108.604819 
M 218.246399 209.701342 
L 218.551067 256.753657 
M 219.160404 190.155586 
L 219.465072 312.856182 
M 220.074409 195.815577 
L 220.379077 241.413832 
M 220.988414 177.409251 
L 221.293082 176.225156 
M 221.902419 247.771473 
L 222.207087 205.151981 
M 222.816424 148.368398 
L 223.121092 255.036832 
M 223.730428 209.945348 
L 224.035097 228.325065 
M 224.644433 157.333117 
L 224.949102 220.657932 
M 225.558438 192.2931 
L 225.863107 172.480711 
M 226.472443 182.994123 
L 226.777111 203.377583 
M 227.386448 155.452476 
L 227.691116 280.923787 
M 228.300453 222.670646 
L 228.605121 155.649484 
M 229.214458 238.198141 
L 229.519126 145.309849 
M 230.128463 177.145922 
L 230.433131 116.604445 
M 231.042468 157.384312 
L 231.347136 161.682576 
M 231.956473 164.750272 
L 232.261141 186.765147 
M 232.870478 103.430105 
L 233.175146 220.993058 
M 233.784482 207.322392 
L 234.089151 221.530099 
M 234.698487 213.891645 
L 235.003156 235.86714 
M 235.612492 164.222641 
L 235.917161 152.050895 
M 236.526497 213.883378 
L 236.831166 137.178009 
M 237.440502 158.380329 
L 237.74517 142.625288 
M 238.354507 197.9397 
L 238.659175 218.950316 
M 239.268512 212.529496 
L 239.57318 168.455636 
M 240.182517 157.155084 
L 240.487185 166.847445 
M 241.096522 127.2049 
L 241.40119 154.794379 
M 242.010527 204.038318 
L 242.315195 112.967734 
M 242.924532 126.007965 
L 243.2292 123.778446 
M 243.838537 203.107581 
L 244.143205 252.744015 
M 244.752541 198.031545 
L 245.05721 136.535293 
M 245.666546 176.75006 
L 245.971215 172.661488 
M 246.580551 100.965473 
L 246.88522 143.135039 
M 247.494556 275.950024 
L 247.799225 155.495364 
M 248.408561 128.70442 
L 248.713229 138.723954 
M 249.322566 135.025966 
L 249.627234 172.237272 
M 250.236571 229.017896 
L 250.541239 69.756612 
M 251.150576 185.294738 
L 251.455244 179.037922 
M 252.064581 151.739336 
L 252.369249 204.369772 
M 252.978586 162.871578 
L 253.283254 126.016337 
M 253.892591 152.486018 
L 254.197259 211.268389 
M 254.806596 218.749768 
L 255.111264 124.563538 
M 255.7206 174.586152 
L 256.025269 183.912905 
M 256.634605 151.702429 
L 256.939274 173.687447 
M 257.54861 38.415117 
L 257.853279 131.70162 
M 258.462615 171.30576 
L 258.767283 189.246119 
M 259.37662 122.056333 
L 259.681288 220.849009 
M 260.290625 148.838223 
L 260.595293 150.873854 
M 261.20463 155.117628 
L 261.509298 103.825049 
M 262.118635 124.895083 
L 262.423303 132.057226 
M 263.03264 138.065869 
L 263.337308 163.627622 
M 263.946645 109.369163 
L 264.251313 57.900065 
M 264.86065 122.809179 
L 265.165318 96.144016 
M 265.774654 88.206432 
L 266.079323 111.445023 
M 266.688659 175.610242 
L 266.993328 178.930015 
M 267.602664 136.71364 
L 267.907333 68.816529 
M 268.516669 121.675191 
L 268.821338 216.599747 
M 269.430674 132.119199 
L 269.735342 55.07676 
M 270.344679 139.699407 
L 270.649347 142.202741 
M 271.258684 160.292211 
L 271.563352 139.003344 
M 272.172689 137.344029 
L 272.477357 104.791655 
M 273.086694 157.787143 
L 273.391362 45.627829 
M 274.000699 102.350395 
L 274.305367 159.634716 
M 274.914704 108.008592 
L 275.219372 154.763594 
M 275.828709 141.951356 
L 276.133377 96.843739 
M 276.742713 64.650474 
L 277.047382 175.315602 
M 277.656718 134.180249 
L 277.961387 131.072631 
M 278.570723 162.147593 
L 278.875392 119.051284 
M 279.484728 54.774618 
L 279.789396 93.097907 
M 280.398733 124.614099 
L 280.703401 137.064302 
M 281.312738 221.230919 
L 281.617406 135.518985 
M 282.226743 196.629101 
L 282.531411 179.737133 
M 283.140748 103.332851 
L 283.445416 137.699081 
M 284.054753 112.415871 
L 284.359421 121.830469 
M 284.968758 143.326361 
L 285.273426 113.847478 
M 285.882763 137.882865 
L 286.187431 214.680373 
M 286.796768 98.784762 
L 287.101436 127.101147 
M 287.710772 186.77254 
L 288.015441 160.561374 
M 288.624777 120.283419 
L 288.929446 185.820697 
M 289.538782 116.077028 
L 289.843451 90.185644 
M 290.452787 188.162974 
L 290.757455 155.383865 
M 291.366792 194.739471 
L 291.67146 165.517207 
M 292.280797 159.797387 
L 292.585465 182.782922 
M 293.194802 178.674004 
L 293.49947 185.677602 
M 294.108807 142.526016 
L 294.413475 139.170551 
M 295.022812 71.469215 
L 295.32748 92.404852 
M 295.936817 140.428149 
L 296.241485 76.519765 
M 296.850822 90.35959 
L 297.15549 126.760298 
M 297.764826 67.428168 
L 298.069495 171.234796 
M 298.678831 154.274559 
L 298.9835 139.418481 
M 299.592836 169.667341 
L 299.897505 194.115356 
M 300.506841 127.117814 
L 300.81151 87.937171 
M 301.420846 166.392843 
L 301.725514 169.783856 
M 302.334851 164.700603 
L 302.639519 200.728119 
M 303.248856 90.477704 
L 303.553524 168.68857 
M 304.162861 161.714623 
L 304.467529 83.833977 
M 305.076866 134.937888 
L 305.381534 189.88433 
M 305.990871 112.169103 
L 306.295539 117.546324 
M 306.904876 114.29326 
L 307.209544 174.104806 
M 307.818881 143.347519 
L 308.123549 119.493134 
M 308.732885 141.591642 
L 309.037554 79.765551 
M 309.64689 167.751344 
L 309.951559 140.091419 
M 310.560895 178.209298 
L 310.865564 152.385814 
M 311.4749 183.402233 
L 311.779568 237.987282 
M 312.388905 249.378198 
L 312.693573 157.589125 
M 313.30291 165.914439 
L 313.607578 208.781869 
M 314.216915 200.820151 
L 314.521583 161.921977 
M 315.13092 200.034521 
L 315.435588 147.858766 
M 316.044925 112.291908 
L 316.349593 142.948479 
M 316.95893 205.909237 
L 317.263598 141.642172 
M 317.872935 126.208994 
L 318.177603 147.610663 
M 318.786939 201.310225 
L 319.091608 230.152973 
M 319.700944 146.548255 
L 320.005613 166.57628 
M 320.614949 192.636107 
L 320.919618 183.509697 
M 321.528954 143.370734 
L 321.833623 125.819343 
M 322.442959 151.154663 
L 322.747627 166.063705 
M 323.356964 182.329478 
L 323.661632 153.697782 
M 324.270969 167.119335 
L 324.575637 86.390179 
M 325.184974 178.141024 
L 325.489642 182.63747 
M 326.098979 152.535772 
L 326.403647 122.679778 
M 327.012984 222.927044 
L 327.317652 168.565002 
M 327.926989 154.854234 
L 328.231657 253.455816 
M 328.840994 200.181472 
L 329.145662 184.24015 
M 329.754998 143.781681 
L 330.059667 219.465615 
M 330.669003 172.086513 
L 330.973672 169.597811 
M 331.583008 240.888688 
L 331.887677 164.254598 
M 332.497013 185.264885 
L 332.801682 174.009266 
M 333.411018 200.959839 
L 333.715686 130.892615 
M 334.325023 154.691486 
L 334.629691 223.421244 
M 335.239028 209.37522 
L 335.543696 207.667388 
M 336.153033 133.918669 
L 336.457701 296.197286 
M 337.067038 147.281236 
L 337.371706 218.135016 
M 337.981043 191.167655 
L 338.285711 166.134162 
M 338.895048 248.594674 
L 339.199716 156.853799 
M 339.809053 204.029524 
L 340.113721 200.379993 
M 340.723057 153.503904 
L 341.027726 142.953404 
M 341.637062 211.098951 
L 341.941731 231.658483 
M 342.551067 188.229428 
L 342.855736 251.175843 
M 343.465072 179.094273 
L 343.76974 210.571345 
M 344.379077 242.603684 
L 344.683745 168.707336 
M 345.293082 185.905623 
L 345.59775 189.392274 
M 346.207087 170.796007 
L 346.511755 178.420059 
M 347.121092 171.296575 
L 347.42576 253.725854 
M 348.035097 155.365501 
L 348.339765 198.147669 
M 348.949102 206.262511 
L 349.25377 152.335659 
M 349.863107 182.292533 
L 350.167775 246.456433 
L 350.167775 246.456433 
" style="fill:none;stroke:#000000;stroke-linecap:square;stroke-width:1.7;"/>
   </g>
   <g id="line2d_16">
    <path clip-path="url(#pf8039a9d86)" d="M 46.108807 176.511779 
L 48.546153 175.125059 
L 51.288168 173.289102 
L 54.030183 171.187172 
L 57.381534 168.330056 
L 63.4749 162.750342 
L 68.044925 158.696374 
L 71.396276 155.997041 
L 74.442959 153.808642 
L 77.489642 151.890445 
L 80.536325 150.238291 
L 83.583008 148.839227 
L 86.629691 147.686439 
L 89.676374 146.786224 
L 92.418389 146.212132 
L 94.855736 145.913559 
L 97.293082 145.844444 
L 99.42576 145.995461 
L 101.558438 146.365946 
L 103.691116 146.974122 
L 105.823795 147.836171 
L 107.956473 148.962425 
L 110.089151 150.359365 
L 112.221829 152.02671 
L 114.354507 153.956153 
L 116.791854 156.467824 
L 119.533868 159.645494 
L 122.580551 163.54692 
L 126.236571 168.610897 
L 132.634605 177.949367 
L 138.423303 186.253269 
L 142.383991 191.566442 
L 146.040011 196.101127 
L 149.391362 199.917598 
L 152.742713 203.415302 
L 156.398733 206.898354 
L 160.359421 210.343681 
L 164.929446 214.005793 
L 170.413475 218.10128 
L 175.288168 221.505653 
L 178.944188 223.831462 
L 181.990871 225.522658 
L 184.428217 226.646504 
L 186.560895 227.41629 
L 188.693573 227.94924 
L 190.521583 228.193091 
L 192.349593 228.223068 
L 194.177603 228.02558 
L 196.005613 227.590625 
L 197.833623 226.913879 
L 199.661632 225.996925 
L 201.489642 224.844858 
L 203.62232 223.217201 
L 205.754998 221.30468 
L 208.192345 218.806317 
L 210.93436 215.650933 
L 213.981043 211.79931 
L 217.941731 206.395287 
L 223.42576 198.480853 
L 239.877849 174.497109 
L 247.189888 164.311532 
L 252.369249 157.429821 
L 256.329937 152.522319 
L 259.37662 149.075137 
L 262.118635 146.29871 
L 264.555981 144.144652 
L 266.688659 142.533149 
L 268.821338 141.197505 
L 270.954016 140.149358 
L 272.782025 139.481292 
L 274.610035 139.023835 
L 276.438045 138.769898 
L 278.266055 138.709634 
L 280.398733 138.866489 
L 282.531411 139.24781 
L 284.968758 139.928934 
L 287.406104 140.842156 
L 290.148119 142.114157 
L 292.890134 143.620806 
L 295.936817 145.547881 
L 298.9835 147.730333 
L 302.334851 150.41328 
L 305.990871 153.655398 
L 309.951559 157.488578 
L 315.13092 162.849706 
L 324.270969 172.360462 
L 327.62232 175.506358 
L 330.364335 177.808382 
L 332.801682 179.598874 
L 335.239028 181.114406 
L 337.371706 182.198435 
L 339.504384 183.05203 
L 341.637062 183.680791 
L 343.76974 184.097073 
L 346.207087 184.342341 
L 348.949102 184.37137 
L 350.472443 184.297282 
L 350.472443 184.297282 
" style="fill:none;opacity:0.5;stroke:#0000ff;stroke-linecap:square;stroke-width:2;"/>
   </g>
   <g id="patch_3">
    <path d="M 30.890625 339.84 
L 30.890625 7.2 
" style="fill:none;stroke:#aaaaaa;stroke-linecap:square;stroke-linejoin:miter;"/>
   </g>
   <g id="patch_4">
    <path d="M 365.690625 339.84 
L 365.690625 7.2 
" style="fill:none;stroke:#aaaaaa;stroke-linecap:square;stroke-linejoin:miter;"/>
   </g>
   <g id="patch_5">
    <path d="M 30.890625 339.84 
L 365.690625 339.84 
" style="fill:none;stroke:#aaaaaa;stroke-linecap:square;stroke-linejoin:miter;"/>
   </g>
   <g id="patch_6">
    <path d="M 30.890625 7.2 
L 365.690625 7.2 
" style="fill:none;stroke:#aaaaaa;stroke-linecap:square;stroke-linejoin:miter;"/>
   </g>
   <g id="legend_1">
    <g id="patch_7">
     <path d="M 279.39375 52.0275 
L 357.290625 52.0275 
Q 359.690625 52.0275 359.690625 49.6275 
L 359.690625 15.6 
Q 359.690625 13.2 357.290625 13.2 
L 279.39375 13.2 
Q 276.99375 13.2 276.99375 15.6 
L 276.99375 49.6275 
Q 276.99375 52.0275 279.39375 52.0275 
z
" style="fill:#ffffff;opacity:0.8;stroke:#cccccc;stroke-linejoin:miter;"/>
    </g>
    <g id="line2d_17">
     <path d="M 281.79375 22.918125 
L 305.79375 22.918125 
" style="fill:none;stroke:#000000;stroke-linecap:square;stroke-width:1.7;"/>
    </g>
    <g id="line2d_18"/>
    <g id="text_15">
     <!-- Before -->
     <defs>
      <path d="M 19.671875 34.8125 
L 19.671875 8.109375 
L 35.5 8.109375 
Q 43.453125 8.109375 47.28125 11.40625 
Q 51.125 14.703125 51.125 21.484375 
Q 51.125 28.328125 47.28125 31.5625 
Q 43.453125 34.8125 35.5 34.8125 
z
M 19.671875 64.796875 
L 19.671875 42.828125 
L 34.28125 42.828125 
Q 41.5 42.828125 45.03125 45.53125 
Q 48.578125 48.25 48.578125 53.8125 
Q 48.578125 59.328125 45.03125 62.0625 
Q 41.5 64.796875 34.28125 64.796875 
z
M 9.8125 72.90625 
L 35.015625 72.90625 
Q 46.296875 72.90625 52.390625 68.21875 
Q 58.5 63.53125 58.5 54.890625 
Q 58.5 48.1875 55.375 44.234375 
Q 52.25 40.28125 46.1875 39.3125 
Q 53.46875 37.75 57.5 32.78125 
Q 61.53125 27.828125 61.53125 20.40625 
Q 61.53125 10.640625 54.890625 5.3125 
Q 48.25 0 35.984375 0 
L 9.8125 0 
z
" id="DejaVuSans-42"/>
      <path d="M 56.203125 29.59375 
L 56.203125 25.203125 
L 14.890625 25.203125 
Q 15.484375 15.921875 20.484375 11.0625 
Q 25.484375 6.203125 34.421875 6.203125 
Q 39.59375 6.203125 44.453125 7.46875 
Q 49.3125 8.734375 54.109375 11.28125 
L 54.109375 2.78125 
Q 49.265625 0.734375 44.1875 -0.34375 
Q 39.109375 -1.421875 33.890625 -1.421875 
Q 20.796875 -1.421875 13.15625 6.1875 
Q 5.515625 13.8125 5.515625 26.8125 
Q 5.515625 40.234375 12.765625 48.109375 
Q 20.015625 56 32.328125 56 
Q 43.359375 56 49.78125 48.890625 
Q 56.203125 41.796875 56.203125 29.59375 
M 47.21875 32.234375 
Q 47.125 39.59375 43.09375 43.984375 
Q 39.0625 48.390625 32.421875 48.390625 
Q 24.90625 48.390625 20.390625 44.140625 
Q 15.875 39.890625 15.1875 32.171875 
z
" id="DejaVuSans-65"/>
      <path d="M 37.109375 75.984375 
L 37.109375 68.5 
L 28.515625 68.5 
Q 23.6875 68.5 21.796875 66.546875 
Q 19.921875 64.59375 19.921875 59.515625 
L 19.921875 54.6875 
L 34.71875 54.6875 
L 34.71875 47.703125 
L 19.921875 47.703125 
L 19.921875 0 
L 10.890625 0 
L 10.890625 47.703125 
L 2.296875 47.703125 
L 2.296875 54.6875 
L 10.890625 54.6875 
L 10.890625 58.5 
Q 10.890625 67.625 15.140625 71.796875 
Q 19.390625 75.984375 28.609375 75.984375 
z
" id="DejaVuSans-66"/>
      <path d="M 30.609375 48.390625 
Q 23.390625 48.390625 19.1875 42.75 
Q 14.984375 37.109375 14.984375 27.296875 
Q 14.984375 17.484375 19.15625 11.84375 
Q 23.34375 6.203125 30.609375 6.203125 
Q 37.796875 6.203125 41.984375 11.859375 
Q 46.1875 17.53125 46.1875 27.296875 
Q 46.1875 37.015625 41.984375 42.703125 
Q 37.796875 48.390625 30.609375 48.390625 
M 30.609375 56 
Q 42.328125 56 49.015625 48.375 
Q 55.71875 40.765625 55.71875 27.296875 
Q 55.71875 13.875 49.015625 6.21875 
Q 42.328125 -1.421875 30.609375 -1.421875 
Q 18.84375 -1.421875 12.171875 6.21875 
Q 5.515625 13.875 5.515625 27.296875 
Q 5.515625 40.765625 12.171875 48.375 
Q 18.84375 56 30.609375 56 
" id="DejaVuSans-6f"/>
      <path d="M 41.109375 46.296875 
Q 39.59375 47.171875 37.8125 47.578125 
Q 36.03125 48 33.890625 48 
Q 26.265625 48 22.1875 43.046875 
Q 18.109375 38.09375 18.109375 28.8125 
L 18.109375 0 
L 9.078125 0 
L 9.078125 54.6875 
L 18.109375 54.6875 
L 18.109375 46.1875 
Q 20.953125 51.171875 25.484375 53.578125 
Q 30.03125 56 36.53125 56 
Q 37.453125 56 38.578125 55.875 
Q 39.703125 55.765625 41.0625 55.515625 
z
" id="DejaVuSans-72"/>
     </defs>
     <g transform="translate(315.39375 27.118125)scale(0.12 -0.12)">
      <use xlink:href="#DejaVuSans-42"/>
      <use x="68.603516" xlink:href="#DejaVuSans-65"/>
      <use x="130.126953" xlink:href="#DejaVuSans-66"/>
      <use x="165.332031" xlink:href="#DejaVuSans-6f"/>
      <use x="226.513672" xlink:href="#DejaVuSans-72"/>
      <use x="267.595703" xlink:href="#DejaVuSans-65"/>
     </g>
    </g>
    <g id="line2d_19">
     <path d="M 281.79375 40.531875 
L 305.79375 40.531875 
" style="fill:none;opacity:0.5;stroke:#0000ff;stroke-linecap:square;stroke-width:2;"/>
    </g>
    <g id="line2d_20"/>
    <g id="text_16">
     <!-- After -->
     <defs>
      <path d="M 34.1875 63.1875 
L 20.796875 26.90625 
L 47.609375 26.90625 
z
M 28.609375 72.90625 
L 39.796875 72.90625 
L 67.578125 0 
L 57.328125 0 
L 50.6875 18.703125 
L 17.828125 18.703125 
L 11.1875 0 
L 0.78125 0 
z
" id="DejaVuSans-41"/>
      <path d="M 18.3125 70.21875 
L 18.3125 54.6875 
L 36.8125 54.6875 
L 36.8125 47.703125 
L 18.3125 47.703125 
L 18.3125 18.015625 
Q 18.3125 11.328125 20.140625 9.421875 
Q 21.96875 7.515625 27.59375 7.515625 
L 36.8125 7.515625 
L 36.8125 0 
L 27.59375 0 
Q 17.1875 0 13.234375 3.875 
Q 9.28125 7.765625 9.28125 18.015625 
L 9.28125 47.703125 
L 2.6875 47.703125 
L 2.6875 54.6875 
L 9.28125 54.6875 
L 9.28125 70.21875 
z
" id="DejaVuSans-74"/>
     </defs>
     <g transform="translate(315.39375 44.731875)scale(0.12 -0.12)">
      <use xlink:href="#DejaVuSans-41"/>
      <use x="68.361328" xlink:href="#DejaVuSans-66"/>
      <use x="103.550781" xlink:href="#DejaVuSans-74"/>
      <use x="142.759766" xlink:href="#DejaVuSans-65"/>
      <use x="204.283203" xlink:href="#DejaVuSans-72"/>
     </g>
    </g>
   </g>
  </g>
 </g>
 <defs>
  <clipPath id="pf8039a9d86">
   <rect height="332.64" width="334.8" x="30.890625" y="7.2"/>
  </clipPath>
 </defs>
</svg>
