<?xml version="1.0" encoding="utf-8" standalone="no"?>
<!DOCTYPE svg PUBLIC "-//W3C//DTD SVG 1.1//EN"
  "http://www.w3.org/Graphics/SVG/1.1/DTD/svg11.dtd">
<!-- Created with matplotlib (http://matplotlib.org/) -->
<svg height="364pt" version="1.1" viewBox="0 0 400 364" width="400pt" xmlns="http://www.w3.org/2000/svg" xmlns:xlink="http://www.w3.org/1999/xlink">
 <defs>
  <style type="text/css">
*{stroke-linecap:butt;stroke-linejoin:round;}
  </style>
 </defs>
 <g id="figure_1">
  <g id="patch_1">
   <path d="M 0 364.65375 
L 400.076264 364.65375 
L 400.076264 0 
L 0 0 
z
" style="fill:none;"/>
  </g>
  <g id="axes_1">
   <g id="patch_2">
    <path d="M 57.85525 339.84 
L 392.65525 339.84 
L 392.65525 7.2 
L 57.85525 7.2 
z
" style="fill:#ffffff;"/>
   </g>
   <g id="matplotlib.axis_1">
    <g id="xtick_1">
     <g id="line2d_1"/>
     <g id="text_1">
      <!-- 0 -->
      <defs>
       <path d="M 31.78125 66.40625 
Q 24.171875 66.40625 20.328125 58.90625 
Q 16.5 51.421875 16.5 36.375 
Q 16.5 21.390625 20.328125 13.890625 
Q 24.171875 6.390625 31.78125 6.390625 
Q 39.453125 6.390625 43.28125 13.890625 
Q 47.125 21.390625 47.125 36.375 
Q 47.125 51.421875 43.28125 58.90625 
Q 39.453125 66.40625 31.78125 66.40625 
M 31.78125 74.21875 
Q 44.046875 74.21875 50.515625 64.515625 
Q 56.984375 54.828125 56.984375 36.375 
Q 56.984375 17.96875 50.515625 8.265625 
Q 44.046875 -1.421875 31.78125 -1.421875 
Q 19.53125 -1.421875 13.0625 8.265625 
Q 6.59375 17.96875 6.59375 36.375 
Q 6.59375 54.828125 13.0625 64.515625 
Q 19.53125 74.21875 31.78125 74.21875 
" id="DejaVuSans-30"/>
      </defs>
      <g style="fill:#565656;" transform="translate(69.255932 354.958125)scale(0.12 -0.12)">
       <use xlink:href="#DejaVuSans-30"/>
      </g>
     </g>
    </g>
    <g id="xtick_2">
     <g id="line2d_2"/>
     <g id="text_2">
      <!-- 5 -->
      <defs>
       <path d="M 10.796875 72.90625 
L 49.515625 72.90625 
L 49.515625 64.59375 
L 19.828125 64.59375 
L 19.828125 46.734375 
Q 21.96875 47.46875 24.109375 47.828125 
Q 26.265625 48.1875 28.421875 48.1875 
Q 40.625 48.1875 47.75 41.5 
Q 54.890625 34.8125 54.890625 23.390625 
Q 54.890625 11.625 47.5625 5.09375 
Q 40.234375 -1.421875 26.90625 -1.421875 
Q 22.3125 -1.421875 17.546875 -0.640625 
Q 12.796875 0.140625 7.71875 1.703125 
L 7.71875 11.625 
Q 12.109375 9.234375 16.796875 8.0625 
Q 21.484375 6.890625 26.703125 6.890625 
Q 35.15625 6.890625 40.078125 11.328125 
Q 45.015625 15.765625 45.015625 23.390625 
Q 45.015625 31 40.078125 35.4375 
Q 35.15625 39.890625 26.703125 39.890625 
Q 22.75 39.890625 18.8125 39.015625 
Q 14.890625 38.140625 10.796875 36.28125 
z
" id="DejaVuSans-35"/>
      </defs>
      <g style="fill:#565656;" transform="translate(108.276911 354.958125)scale(0.12 -0.12)">
       <use xlink:href="#DejaVuSans-35"/>
      </g>
     </g>
    </g>
    <g id="xtick_3">
     <g id="line2d_3"/>
     <g id="text_3">
      <!-- 10 -->
      <defs>
       <path d="M 12.40625 8.296875 
L 28.515625 8.296875 
L 28.515625 63.921875 
L 10.984375 60.40625 
L 10.984375 69.390625 
L 28.421875 72.90625 
L 38.28125 72.90625 
L 38.28125 8.296875 
L 54.390625 8.296875 
L 54.390625 0 
L 12.40625 0 
z
" id="DejaVuSans-31"/>
      </defs>
      <g style="fill:#565656;" transform="translate(143.48039 354.958125)scale(0.12 -0.12)">
       <use xlink:href="#DejaVuSans-31"/>
       <use x="63.623047" xlink:href="#DejaVuSans-30"/>
      </g>
     </g>
    </g>
    <g id="xtick_4">
     <g id="line2d_4"/>
     <g id="text_4">
      <!-- 15 -->
      <g style="fill:#565656;" transform="translate(182.501369 354.958125)scale(0.12 -0.12)">
       <use xlink:href="#DejaVuSans-31"/>
       <use x="63.623047" xlink:href="#DejaVuSans-35"/>
      </g>
     </g>
    </g>
    <g id="xtick_5">
     <g id="line2d_5"/>
     <g id="text_5">
      <!-- 20 -->
      <defs>
       <path d="M 19.1875 8.296875 
L 53.609375 8.296875 
L 53.609375 0 
L 7.328125 0 
L 7.328125 8.296875 
Q 12.9375 14.109375 22.625 23.890625 
Q 32.328125 33.6875 34.8125 36.53125 
Q 39.546875 41.84375 41.421875 45.53125 
Q 43.3125 49.21875 43.3125 52.78125 
Q 43.3125 58.59375 39.234375 62.25 
Q 35.15625 65.921875 28.609375 65.921875 
Q 23.96875 65.921875 18.8125 64.3125 
Q 13.671875 62.703125 7.8125 59.421875 
L 7.8125 69.390625 
Q 13.765625 71.78125 18.9375 73 
Q 24.125 74.21875 28.421875 74.21875 
Q 39.75 74.21875 46.484375 68.546875 
Q 53.21875 62.890625 53.21875 53.421875 
Q 53.21875 48.921875 51.53125 44.890625 
Q 49.859375 40.875 45.40625 35.40625 
Q 44.1875 33.984375 37.640625 27.21875 
Q 31.109375 20.453125 19.1875 8.296875 
" id="DejaVuSans-32"/>
      </defs>
      <g style="fill:#565656;" transform="translate(221.522348 354.958125)scale(0.12 -0.12)">
       <use xlink:href="#DejaVuSans-32"/>
       <use x="63.623047" xlink:href="#DejaVuSans-30"/>
      </g>
     </g>
    </g>
    <g id="xtick_6">
     <g id="line2d_6"/>
     <g id="text_6">
      <!-- 25 -->
      <g style="fill:#565656;" transform="translate(260.543327 354.958125)scale(0.12 -0.12)">
       <use xlink:href="#DejaVuSans-32"/>
       <use x="63.623047" xlink:href="#DejaVuSans-35"/>
      </g>
     </g>
    </g>
    <g id="xtick_7">
     <g id="line2d_7"/>
     <g id="text_7">
      <!-- 30 -->
      <defs>
       <path d="M 40.578125 39.3125 
Q 47.65625 37.796875 51.625 33 
Q 55.609375 28.21875 55.609375 21.1875 
Q 55.609375 10.40625 48.1875 4.484375 
Q 40.765625 -1.421875 27.09375 -1.421875 
Q 22.515625 -1.421875 17.65625 -0.515625 
Q 12.796875 0.390625 7.625 2.203125 
L 7.625 11.71875 
Q 11.71875 9.328125 16.59375 8.109375 
Q 21.484375 6.890625 26.8125 6.890625 
Q 36.078125 6.890625 40.9375 10.546875 
Q 45.796875 14.203125 45.796875 21.1875 
Q 45.796875 27.640625 41.28125 31.265625 
Q 36.765625 34.90625 28.71875 34.90625 
L 20.21875 34.90625 
L 20.21875 43.015625 
L 29.109375 43.015625 
Q 36.375 43.015625 40.234375 45.921875 
Q 44.09375 48.828125 44.09375 54.296875 
Q 44.09375 59.90625 40.109375 62.90625 
Q 36.140625 65.921875 28.71875 65.921875 
Q 24.65625 65.921875 20.015625 65.03125 
Q 15.375 64.15625 9.8125 62.3125 
L 9.8125 71.09375 
Q 15.4375 72.65625 20.34375 73.4375 
Q 25.25 74.21875 29.59375 74.21875 
Q 40.828125 74.21875 47.359375 69.109375 
Q 53.90625 64.015625 53.90625 55.328125 
Q 53.90625 49.265625 50.4375 45.09375 
Q 46.96875 40.921875 40.578125 39.3125 
" id="DejaVuSans-33"/>
      </defs>
      <g style="fill:#565656;" transform="translate(299.564306 354.958125)scale(0.12 -0.12)">
       <use xlink:href="#DejaVuSans-33"/>
       <use x="63.623047" xlink:href="#DejaVuSans-30"/>
      </g>
     </g>
    </g>
    <g id="xtick_8">
     <g id="line2d_8"/>
     <g id="text_8">
      <!-- 35 -->
      <g style="fill:#565656;" transform="translate(338.585285 354.958125)scale(0.12 -0.12)">
       <use xlink:href="#DejaVuSans-33"/>
       <use x="63.623047" xlink:href="#DejaVuSans-35"/>
      </g>
     </g>
    </g>
    <g id="xtick_9">
     <g id="line2d_9"/>
     <g id="text_9">
      <!-- 40 -->
      <defs>
       <path d="M 37.796875 64.3125 
L 12.890625 25.390625 
L 37.796875 25.390625 
z
M 35.203125 72.90625 
L 47.609375 72.90625 
L 47.609375 25.390625 
L 58.015625 25.390625 
L 58.015625 17.1875 
L 47.609375 17.1875 
L 47.609375 0 
L 37.796875 0 
L 37.796875 17.1875 
L 4.890625 17.1875 
L 4.890625 26.703125 
z
" id="DejaVuSans-34"/>
      </defs>
      <g style="fill:#565656;" transform="translate(377.606264 354.958125)scale(0.12 -0.12)">
       <use xlink:href="#DejaVuSans-34"/>
       <use x="63.623047" xlink:href="#DejaVuSans-30"/>
      </g>
     </g>
    </g>
   </g>
   <g id="matplotlib.axis_2">
    <g id="ytick_1">
     <g id="line2d_10"/>
     <g id="text_10">
      <!-- 0.0 -->
      <defs>
       <path d="M 10.6875 12.40625 
L 21 12.40625 
L 21 0 
L 10.6875 0 
z
" id="DejaVuSans-2e"/>
      </defs>
      <g style="fill:#565656;" transform="translate(32.7715 337.314791)scale(0.12 -0.12)">
       <use xlink:href="#DejaVuSans-30"/>
       <use x="63.623047" xlink:href="#DejaVuSans-2e"/>
       <use x="95.410156" xlink:href="#DejaVuSans-30"/>
      </g>
     </g>
    </g>
    <g id="ytick_2">
     <g id="line2d_11"/>
     <g id="text_11">
      <!-- 2.5 -->
      <g style="fill:#565656;" transform="translate(32.7715 292.518325)scale(0.12 -0.12)">
       <use xlink:href="#DejaVuSans-32"/>
       <use x="63.623047" xlink:href="#DejaVuSans-2e"/>
       <use x="95.410156" xlink:href="#DejaVuSans-35"/>
      </g>
     </g>
    </g>
    <g id="ytick_3">
     <g id="line2d_12"/>
     <g id="text_12">
      <!-- 5.0 -->
      <g style="fill:#565656;" transform="translate(32.7715 247.721859)scale(0.12 -0.12)">
       <use xlink:href="#DejaVuSans-35"/>
       <use x="63.623047" xlink:href="#DejaVuSans-2e"/>
       <use x="95.410156" xlink:href="#DejaVuSans-30"/>
      </g>
     </g>
    </g>
    <g id="ytick_4">
     <g id="line2d_13"/>
     <g id="text_13">
      <!-- 7.5 -->
      <defs>
       <path d="M 8.203125 72.90625 
L 55.078125 72.90625 
L 55.078125 68.703125 
L 28.609375 0 
L 18.3125 0 
L 43.21875 64.59375 
L 8.203125 64.59375 
z
" id="DejaVuSans-37"/>
      </defs>
      <g style="fill:#565656;" transform="translate(32.7715 202.925393)scale(0.12 -0.12)">
       <use xlink:href="#DejaVuSans-37"/>
       <use x="63.623047" xlink:href="#DejaVuSans-2e"/>
       <use x="95.410156" xlink:href="#DejaVuSans-35"/>
      </g>
     </g>
    </g>
    <g id="ytick_5">
     <g id="line2d_14"/>
     <g id="text_14">
      <!-- 10.0 -->
      <g style="fill:#565656;" transform="translate(25.1365 158.128926)scale(0.12 -0.12)">
       <use xlink:href="#DejaVuSans-31"/>
       <use x="63.623047" xlink:href="#DejaVuSans-30"/>
       <use x="127.246094" xlink:href="#DejaVuSans-2e"/>
       <use x="159.033203" xlink:href="#DejaVuSans-30"/>
      </g>
     </g>
    </g>
    <g id="ytick_6">
     <g id="line2d_15"/>
     <g id="text_15">
      <!-- 12.5 -->
      <g style="fill:#565656;" transform="translate(25.1365 113.33246)scale(0.12 -0.12)">
       <use xlink:href="#DejaVuSans-31"/>
       <use x="63.623047" xlink:href="#DejaVuSans-32"/>
       <use x="127.246094" xlink:href="#DejaVuSans-2e"/>
       <use x="159.033203" xlink:href="#DejaVuSans-35"/>
      </g>
     </g>
    </g>
    <g id="ytick_7">
     <g id="line2d_16"/>
     <g id="text_16">
      <!-- 15.0 -->
      <g style="fill:#565656;" transform="translate(25.1365 68.535994)scale(0.12 -0.12)">
       <use xlink:href="#DejaVuSans-31"/>
       <use x="63.623047" xlink:href="#DejaVuSans-35"/>
       <use x="127.246094" xlink:href="#DejaVuSans-2e"/>
       <use x="159.033203" xlink:href="#DejaVuSans-30"/>
      </g>
     </g>
    </g>
    <g id="ytick_8">
     <g id="line2d_17"/>
     <g id="text_17">
      <!-- 17.5 -->
      <g style="fill:#565656;" transform="translate(25.1365 23.739528)scale(0.12 -0.12)">
       <use xlink:href="#DejaVuSans-31"/>
       <use x="63.623047" xlink:href="#DejaVuSans-37"/>
       <use x="127.246094" xlink:href="#DejaVuSans-2e"/>
       <use x="159.033203" xlink:href="#DejaVuSans-35"/>
      </g>
     </g>
    </g>
    <g id="text_18">
     <!-- Position Offset -->
     <defs>
      <path d="M 19.671875 64.796875 
L 19.671875 37.40625 
L 32.078125 37.40625 
Q 38.96875 37.40625 42.71875 40.96875 
Q 46.484375 44.53125 46.484375 51.125 
Q 46.484375 57.671875 42.71875 61.234375 
Q 38.96875 64.796875 32.078125 64.796875 
z
M 9.8125 72.90625 
L 32.078125 72.90625 
Q 44.34375 72.90625 50.609375 67.359375 
Q 56.890625 61.8125 56.890625 51.125 
Q 56.890625 40.328125 50.609375 34.8125 
Q 44.34375 29.296875 32.078125 29.296875 
L 19.671875 29.296875 
L 19.671875 0 
L 9.8125 0 
z
" id="DejaVuSans-50"/>
      <path d="M 30.609375 48.390625 
Q 23.390625 48.390625 19.1875 42.75 
Q 14.984375 37.109375 14.984375 27.296875 
Q 14.984375 17.484375 19.15625 11.84375 
Q 23.34375 6.203125 30.609375 6.203125 
Q 37.796875 6.203125 41.984375 11.859375 
Q 46.1875 17.53125 46.1875 27.296875 
Q 46.1875 37.015625 41.984375 42.703125 
Q 37.796875 48.390625 30.609375 48.390625 
M 30.609375 56 
Q 42.328125 56 49.015625 48.375 
Q 55.71875 40.765625 55.71875 27.296875 
Q 55.71875 13.875 49.015625 6.21875 
Q 42.328125 -1.421875 30.609375 -1.421875 
Q 18.84375 -1.421875 12.171875 6.21875 
Q 5.515625 13.875 5.515625 27.296875 
Q 5.515625 40.765625 12.171875 48.375 
Q 18.84375 56 30.609375 56 
" id="DejaVuSans-6f"/>
      <path d="M 44.28125 53.078125 
L 44.28125 44.578125 
Q 40.484375 46.53125 36.375 47.5 
Q 32.28125 48.484375 27.875 48.484375 
Q 21.1875 48.484375 17.84375 46.4375 
Q 14.5 44.390625 14.5 40.28125 
Q 14.5 37.15625 16.890625 35.375 
Q 19.28125 33.59375 26.515625 31.984375 
L 29.59375 31.296875 
Q 39.15625 29.25 43.1875 25.515625 
Q 47.21875 21.78125 47.21875 15.09375 
Q 47.21875 7.46875 41.1875 3.015625 
Q 35.15625 -1.421875 24.609375 -1.421875 
Q 20.21875 -1.421875 15.453125 -0.5625 
Q 10.6875 0.296875 5.421875 2 
L 5.421875 11.28125 
Q 10.40625 8.6875 15.234375 7.390625 
Q 20.0625 6.109375 24.8125 6.109375 
Q 31.15625 6.109375 34.5625 8.28125 
Q 37.984375 10.453125 37.984375 14.40625 
Q 37.984375 18.0625 35.515625 20.015625 
Q 33.0625 21.96875 24.703125 23.78125 
L 21.578125 24.515625 
Q 13.234375 26.265625 9.515625 29.90625 
Q 5.8125 33.546875 5.8125 39.890625 
Q 5.8125 47.609375 11.28125 51.796875 
Q 16.75 56 26.8125 56 
Q 31.78125 56 36.171875 55.265625 
Q 40.578125 54.546875 44.28125 53.078125 
" id="DejaVuSans-73"/>
      <path d="M 9.421875 54.6875 
L 18.40625 54.6875 
L 18.40625 0 
L 9.421875 0 
z
M 9.421875 75.984375 
L 18.40625 75.984375 
L 18.40625 64.59375 
L 9.421875 64.59375 
z
" id="DejaVuSans-69"/>
      <path d="M 18.3125 70.21875 
L 18.3125 54.6875 
L 36.8125 54.6875 
L 36.8125 47.703125 
L 18.3125 47.703125 
L 18.3125 18.015625 
Q 18.3125 11.328125 20.140625 9.421875 
Q 21.96875 7.515625 27.59375 7.515625 
L 36.8125 7.515625 
L 36.8125 0 
L 27.59375 0 
Q 17.1875 0 13.234375 3.875 
Q 9.28125 7.765625 9.28125 18.015625 
L 9.28125 47.703125 
L 2.6875 47.703125 
L 2.6875 54.6875 
L 9.28125 54.6875 
L 9.28125 70.21875 
z
" id="DejaVuSans-74"/>
      <path d="M 54.890625 33.015625 
L 54.890625 0 
L 45.90625 0 
L 45.90625 32.71875 
Q 45.90625 40.484375 42.875 44.328125 
Q 39.84375 48.1875 33.796875 48.1875 
Q 26.515625 48.1875 22.3125 43.546875 
Q 18.109375 38.921875 18.109375 30.90625 
L 18.109375 0 
L 9.078125 0 
L 9.078125 54.6875 
L 18.109375 54.6875 
L 18.109375 46.1875 
Q 21.34375 51.125 25.703125 53.5625 
Q 30.078125 56 35.796875 56 
Q 45.21875 56 50.046875 50.171875 
Q 54.890625 44.34375 54.890625 33.015625 
" id="DejaVuSans-6e"/>
      <path id="DejaVuSans-20"/>
      <path d="M 39.40625 66.21875 
Q 28.65625 66.21875 22.328125 58.203125 
Q 16.015625 50.203125 16.015625 36.375 
Q 16.015625 22.609375 22.328125 14.59375 
Q 28.65625 6.59375 39.40625 6.59375 
Q 50.140625 6.59375 56.421875 14.59375 
Q 62.703125 22.609375 62.703125 36.375 
Q 62.703125 50.203125 56.421875 58.203125 
Q 50.140625 66.21875 39.40625 66.21875 
M 39.40625 74.21875 
Q 54.734375 74.21875 63.90625 63.9375 
Q 73.09375 53.65625 73.09375 36.375 
Q 73.09375 19.140625 63.90625 8.859375 
Q 54.734375 -1.421875 39.40625 -1.421875 
Q 24.03125 -1.421875 14.8125 8.828125 
Q 5.609375 19.09375 5.609375 36.375 
Q 5.609375 53.65625 14.8125 63.9375 
Q 24.03125 74.21875 39.40625 74.21875 
" id="DejaVuSans-4f"/>
      <path d="M 37.109375 75.984375 
L 37.109375 68.5 
L 28.515625 68.5 
Q 23.6875 68.5 21.796875 66.546875 
Q 19.921875 64.59375 19.921875 59.515625 
L 19.921875 54.6875 
L 34.71875 54.6875 
L 34.71875 47.703125 
L 19.921875 47.703125 
L 19.921875 0 
L 10.890625 0 
L 10.890625 47.703125 
L 2.296875 47.703125 
L 2.296875 54.6875 
L 10.890625 54.6875 
L 10.890625 58.5 
Q 10.890625 67.625 15.140625 71.796875 
Q 19.390625 75.984375 28.609375 75.984375 
z
" id="DejaVuSans-66"/>
      <path d="M 56.203125 29.59375 
L 56.203125 25.203125 
L 14.890625 25.203125 
Q 15.484375 15.921875 20.484375 11.0625 
Q 25.484375 6.203125 34.421875 6.203125 
Q 39.59375 6.203125 44.453125 7.46875 
Q 49.3125 8.734375 54.109375 11.28125 
L 54.109375 2.78125 
Q 49.265625 0.734375 44.1875 -0.34375 
Q 39.109375 -1.421875 33.890625 -1.421875 
Q 20.796875 -1.421875 13.15625 6.1875 
Q 5.515625 13.8125 5.515625 26.8125 
Q 5.515625 40.234375 12.765625 48.109375 
Q 20.015625 56 32.328125 56 
Q 43.359375 56 49.78125 48.890625 
Q 56.203125 41.796875 56.203125 29.59375 
M 47.21875 32.234375 
Q 47.125 39.59375 43.09375 43.984375 
Q 39.0625 48.390625 32.421875 48.390625 
Q 24.90625 48.390625 20.390625 44.140625 
Q 15.875 39.890625 15.1875 32.171875 
z
" id="DejaVuSans-65"/>
     </defs>
     <g transform="translate(18.14175 225.83475)rotate(-90)scale(0.144 -0.144)">
      <use xlink:href="#DejaVuSans-50"/>
      <use x="60.255859" xlink:href="#DejaVuSans-6f"/>
      <use x="121.4375" xlink:href="#DejaVuSans-73"/>
      <use x="173.537109" xlink:href="#DejaVuSans-69"/>
      <use x="201.320312" xlink:href="#DejaVuSans-74"/>
      <use x="240.529297" xlink:href="#DejaVuSans-69"/>
      <use x="268.3125" xlink:href="#DejaVuSans-6f"/>
      <use x="329.494141" xlink:href="#DejaVuSans-6e"/>
      <use x="392.873047" xlink:href="#DejaVuSans-20"/>
      <use x="424.660156" xlink:href="#DejaVuSans-4f"/>
      <use x="503.371094" xlink:href="#DejaVuSans-66"/>
      <use x="538.576172" xlink:href="#DejaVuSans-66"/>
      <use x="573.78125" xlink:href="#DejaVuSans-73"/>
      <use x="625.880859" xlink:href="#DejaVuSans-65"/>
      <use x="687.404297" xlink:href="#DejaVuSans-74"/>
     </g>
    </g>
   </g>
   <g id="line2d_18">
    <path clip-path="url(#p2d0cbbd4ba)" d="M 73.073432 317.631712 
L 76.97553 317.631712 
L 76.97553 311.235164 
L 84.779726 311.235164 
L 84.779726 305.598565 
L 92.583921 305.598565 
L 92.583921 312.518876 
L 100.388117 312.518876 
L 100.388117 312.860904 
L 108.192313 312.860904 
L 108.192313 310.492962 
L 115.996509 310.492962 
L 115.996509 304.048775 
L 123.800705 304.048775 
L 123.800705 307.208457 
L 131.6049 307.208457 
L 131.6049 303.275229 
L 139.409096 303.275229 
L 139.409096 293.987913 
L 147.213292 293.987913 
L 147.213292 285.086614 
L 155.017488 285.086614 
L 155.017488 265.902564 
L 162.821684 265.902564 
L 162.821684 243.527451 
L 170.625879 243.527451 
L 170.625879 213.508748 
L 178.430075 213.508748 
L 178.430075 205.999517 
L 186.234271 205.999517 
L 186.234271 183.318839 
L 194.038467 183.318839 
L 194.038467 22.32 
L 201.842663 22.32 
M 217.451054 150.99846 
L 225.25525 150.99846 
L 225.25525 228.880443 
L 233.059446 228.880443 
L 233.059446 250.791552 
L 240.863642 250.791552 
L 240.863642 253.855631 
L 248.667837 253.855631 
L 248.667837 234.134264 
L 256.472033 234.134264 
L 256.472033 226.771066 
L 264.276229 226.771066 
L 264.276229 255.175246 
L 272.080425 255.175246 
L 272.080425 277.214431 
L 279.884621 277.214431 
L 279.884621 288.321394 
L 287.688816 288.321394 
L 287.688816 284.07358 
L 295.493012 284.07358 
L 295.493012 258.817762 
L 303.297208 258.817762 
L 303.297208 164.177577 
L 311.101404 164.177577 
L 311.101404 54.190916 
L 318.9056 54.190916 
L 318.9056 210.406569 
L 326.709795 210.406569 
L 326.709795 294.084311 
L 334.513991 294.084311 
L 334.513991 313.88038 
L 342.318187 313.88038 
L 342.318187 316.561043 
L 350.122383 316.561043 
L 350.122383 320.40622 
L 357.926579 320.40622 
L 357.926579 322.817165 
L 365.730774 322.817165 
L 365.730774 322.354042 
L 373.53497 322.354042 
L 373.53497 319.075736 
L 377.437068 319.075736 
" style="fill:none;opacity:0.5;stroke:#e24a33;stroke-linecap:square;stroke-width:2;"/>
   </g>
   <g id="line2d_19">
    <path clip-path="url(#p2d0cbbd4ba)" d="M 73.073432 320.543624 
L 76.97553 320.543624 
L 76.97553 314.207841 
L 84.779726 314.207841 
L 84.779726 311.599435 
L 92.583921 311.599435 
L 92.583921 311.729238 
L 100.388117 311.729238 
L 100.388117 311.680922 
L 108.192313 311.680922 
L 108.192313 309.756283 
L 115.996509 309.756283 
L 115.996509 307.062322 
L 123.800705 307.062322 
L 123.800705 304.324641 
L 131.6049 304.324641 
L 131.6049 299.324104 
L 139.409096 299.324104 
L 139.409096 291.311189 
L 147.213292 291.311189 
L 147.213292 280.277667 
L 155.017488 280.277667 
L 155.017488 263.552153 
L 162.821684 263.552153 
M 256.472033 242.264802 
L 264.276229 242.264802 
L 264.276229 251.546578 
L 272.080425 251.546578 
L 272.080425 263.392936 
L 279.884621 263.392936 
L 279.884621 272.479925 
L 287.688816 272.479925 
L 287.688816 271.398476 
L 295.493012 271.398476 
L 295.493012 251.093336 
L 303.297208 251.093336 
L 303.297208 216.223298 
L 311.101404 216.223298 
L 311.101404 203.019561 
L 318.9056 203.019561 
L 318.9056 236.942708 
L 326.709795 236.942708 
L 326.709795 282.139003 
L 334.513991 282.139003 
L 334.513991 307.349557 
L 342.318187 307.349557 
L 342.318187 316.544228 
L 350.122383 316.544228 
L 350.122383 319.768012 
L 357.926579 319.768012 
L 357.926579 321.326834 
L 365.730774 321.326834 
L 365.730774 322.318397 
L 373.53497 322.318397 
L 373.53497 324.72 
L 377.437068 324.72 
" style="fill:none;opacity:0.5;stroke:#348abd;stroke-linecap:square;stroke-width:2;"/>
    <defs>
     <path d="M -3 3 
L 3 3 
L 3 -3 
L -3 -3 
z
" id="m0cf5fbbb08" style="stroke:#348abd;stroke-linejoin:miter;"/>
    </defs>
    <g clip-path="url(#p2d0cbbd4ba)">
     <use style="fill:#348abd;opacity:0.5;stroke:#348abd;stroke-linejoin:miter;" x="73.073432" xlink:href="#m0cf5fbbb08" y="320.543624"/>
     <use style="fill:#348abd;opacity:0.5;stroke:#348abd;stroke-linejoin:miter;" x="80.877628" xlink:href="#m0cf5fbbb08" y="314.207841"/>
     <use style="fill:#348abd;opacity:0.5;stroke:#348abd;stroke-linejoin:miter;" x="88.681823" xlink:href="#m0cf5fbbb08" y="311.599435"/>
     <use style="fill:#348abd;opacity:0.5;stroke:#348abd;stroke-linejoin:miter;" x="96.486019" xlink:href="#m0cf5fbbb08" y="311.729238"/>
     <use style="fill:#348abd;opacity:0.5;stroke:#348abd;stroke-linejoin:miter;" x="104.290215" xlink:href="#m0cf5fbbb08" y="311.680922"/>
     <use style="fill:#348abd;opacity:0.5;stroke:#348abd;stroke-linejoin:miter;" x="112.094411" xlink:href="#m0cf5fbbb08" y="309.756283"/>
     <use style="fill:#348abd;opacity:0.5;stroke:#348abd;stroke-linejoin:miter;" x="119.898607" xlink:href="#m0cf5fbbb08" y="307.062322"/>
     <use style="fill:#348abd;opacity:0.5;stroke:#348abd;stroke-linejoin:miter;" x="127.702802" xlink:href="#m0cf5fbbb08" y="304.324641"/>
     <use style="fill:#348abd;opacity:0.5;stroke:#348abd;stroke-linejoin:miter;" x="135.506998" xlink:href="#m0cf5fbbb08" y="299.324104"/>
     <use style="fill:#348abd;opacity:0.5;stroke:#348abd;stroke-linejoin:miter;" x="143.311194" xlink:href="#m0cf5fbbb08" y="291.311189"/>
     <use style="fill:#348abd;opacity:0.5;stroke:#348abd;stroke-linejoin:miter;" x="151.11539" xlink:href="#m0cf5fbbb08" y="280.277667"/>
     <use style="fill:#348abd;opacity:0.5;stroke:#348abd;stroke-linejoin:miter;" x="158.919586" xlink:href="#m0cf5fbbb08" y="263.552153"/>
     <use style="fill:#348abd;opacity:0.5;stroke:#348abd;stroke-linejoin:miter;" x="260.374131" xlink:href="#m0cf5fbbb08" y="242.264802"/>
     <use style="fill:#348abd;opacity:0.5;stroke:#348abd;stroke-linejoin:miter;" x="268.178327" xlink:href="#m0cf5fbbb08" y="251.546578"/>
     <use style="fill:#348abd;opacity:0.5;stroke:#348abd;stroke-linejoin:miter;" x="275.982523" xlink:href="#m0cf5fbbb08" y="263.392936"/>
     <use style="fill:#348abd;opacity:0.5;stroke:#348abd;stroke-linejoin:miter;" x="283.786719" xlink:href="#m0cf5fbbb08" y="272.479925"/>
     <use style="fill:#348abd;opacity:0.5;stroke:#348abd;stroke-linejoin:miter;" x="291.590914" xlink:href="#m0cf5fbbb08" y="271.398476"/>
     <use style="fill:#348abd;opacity:0.5;stroke:#348abd;stroke-linejoin:miter;" x="299.39511" xlink:href="#m0cf5fbbb08" y="251.093336"/>
     <use style="fill:#348abd;opacity:0.5;stroke:#348abd;stroke-linejoin:miter;" x="307.199306" xlink:href="#m0cf5fbbb08" y="216.223298"/>
     <use style="fill:#348abd;opacity:0.5;stroke:#348abd;stroke-linejoin:miter;" x="315.003502" xlink:href="#m0cf5fbbb08" y="203.019561"/>
     <use style="fill:#348abd;opacity:0.5;stroke:#348abd;stroke-linejoin:miter;" x="322.807698" xlink:href="#m0cf5fbbb08" y="236.942708"/>
     <use style="fill:#348abd;opacity:0.5;stroke:#348abd;stroke-linejoin:miter;" x="330.611893" xlink:href="#m0cf5fbbb08" y="282.139003"/>
     <use style="fill:#348abd;opacity:0.5;stroke:#348abd;stroke-linejoin:miter;" x="338.416089" xlink:href="#m0cf5fbbb08" y="307.349557"/>
     <use style="fill:#348abd;opacity:0.5;stroke:#348abd;stroke-linejoin:miter;" x="346.220285" xlink:href="#m0cf5fbbb08" y="316.544228"/>
     <use style="fill:#348abd;opacity:0.5;stroke:#348abd;stroke-linejoin:miter;" x="354.024481" xlink:href="#m0cf5fbbb08" y="319.768012"/>
     <use style="fill:#348abd;opacity:0.5;stroke:#348abd;stroke-linejoin:miter;" x="361.828677" xlink:href="#m0cf5fbbb08" y="321.326834"/>
     <use style="fill:#348abd;opacity:0.5;stroke:#348abd;stroke-linejoin:miter;" x="369.632872" xlink:href="#m0cf5fbbb08" y="322.318397"/>
     <use style="fill:#348abd;opacity:0.5;stroke:#348abd;stroke-linejoin:miter;" x="377.437068" xlink:href="#m0cf5fbbb08" y="324.72"/>
    </g>
   </g>
   <g id="line2d_20">
    <path clip-path="url(#p2d0cbbd4ba)" d="M 73.073432 320.543624 
L 76.97553 320.543624 
L 76.97553 314.207841 
L 84.779726 314.207841 
L 84.779726 311.599435 
L 92.583921 311.599435 
L 92.583921 311.729238 
L 100.388117 311.729238 
L 100.388117 311.680922 
L 108.192313 311.680922 
L 108.192313 309.756283 
L 115.996509 309.756283 
L 115.996509 307.062322 
L 123.800705 307.062322 
L 123.800705 304.324641 
L 131.6049 304.324641 
L 131.6049 299.324104 
L 139.409096 299.324104 
L 139.409096 291.311189 
L 147.213292 291.311189 
L 147.213292 280.277667 
L 155.017488 280.277667 
L 155.017488 263.552153 
L 162.821684 263.552153 
L 162.821684 240.855899 
L 170.625879 240.855899 
L 170.625879 216.955937 
L 178.430075 216.955937 
L 178.430075 196.841305 
L 186.234271 196.841305 
L 186.234271 186.969152 
L 194.038467 186.969152 
L 194.038467 206.980849 
L 201.842663 206.980849 
L 201.842663 245.643807 
L 209.646858 245.643807 
L 209.646858 244.838479 
L 217.451054 244.838479 
L 217.451054 213.503184 
L 225.25525 213.503184 
L 225.25525 213.421072 
L 233.059446 213.421072 
L 233.059446 233.178199 
L 240.863642 233.178199 
L 240.863642 242.015107 
L 248.667837 242.015107 
L 248.667837 240.890888 
L 256.472033 240.890888 
L 256.472033 242.264802 
L 264.276229 242.264802 
L 264.276229 251.546578 
L 272.080425 251.546578 
L 272.080425 263.392936 
L 279.884621 263.392936 
L 279.884621 272.479925 
L 287.688816 272.479925 
L 287.688816 271.398476 
L 295.493012 271.398476 
L 295.493012 251.093336 
L 303.297208 251.093336 
L 303.297208 216.223298 
L 311.101404 216.223298 
L 311.101404 203.019561 
L 318.9056 203.019561 
L 318.9056 236.942708 
L 326.709795 236.942708 
L 326.709795 282.139003 
L 334.513991 282.139003 
L 334.513991 307.349557 
L 342.318187 307.349557 
L 342.318187 316.544228 
L 350.122383 316.544228 
L 350.122383 319.768012 
L 357.926579 319.768012 
L 357.926579 321.326834 
L 365.730774 321.326834 
L 365.730774 322.318397 
L 373.53497 322.318397 
L 373.53497 324.72 
L 377.437068 324.72 
" style="fill:none;opacity:0.5;stroke:#467821;stroke-linecap:square;stroke-width:2;"/>
    <defs>
     <path d="M -3 3 
L 3 3 
L 3 -3 
L -3 -3 
z
" id="mfb4446178f" style="stroke:#467821;stroke-linejoin:miter;"/>
    </defs>
    <g clip-path="url(#p2d0cbbd4ba)">
     <use style="fill:#467821;opacity:0.5;stroke:#467821;stroke-linejoin:miter;" x="73.073432" xlink:href="#mfb4446178f" y="320.543624"/>
     <use style="fill:#467821;opacity:0.5;stroke:#467821;stroke-linejoin:miter;" x="80.877628" xlink:href="#mfb4446178f" y="314.207841"/>
     <use style="fill:#467821;opacity:0.5;stroke:#467821;stroke-linejoin:miter;" x="88.681823" xlink:href="#mfb4446178f" y="311.599435"/>
     <use style="fill:#467821;opacity:0.5;stroke:#467821;stroke-linejoin:miter;" x="96.486019" xlink:href="#mfb4446178f" y="311.729238"/>
     <use style="fill:#467821;opacity:0.5;stroke:#467821;stroke-linejoin:miter;" x="104.290215" xlink:href="#mfb4446178f" y="311.680922"/>
     <use style="fill:#467821;opacity:0.5;stroke:#467821;stroke-linejoin:miter;" x="112.094411" xlink:href="#mfb4446178f" y="309.756283"/>
     <use style="fill:#467821;opacity:0.5;stroke:#467821;stroke-linejoin:miter;" x="119.898607" xlink:href="#mfb4446178f" y="307.062322"/>
     <use style="fill:#467821;opacity:0.5;stroke:#467821;stroke-linejoin:miter;" x="127.702802" xlink:href="#mfb4446178f" y="304.324641"/>
     <use style="fill:#467821;opacity:0.5;stroke:#467821;stroke-linejoin:miter;" x="135.506998" xlink:href="#mfb4446178f" y="299.324104"/>
     <use style="fill:#467821;opacity:0.5;stroke:#467821;stroke-linejoin:miter;" x="143.311194" xlink:href="#mfb4446178f" y="291.311189"/>
     <use style="fill:#467821;opacity:0.5;stroke:#467821;stroke-linejoin:miter;" x="151.11539" xlink:href="#mfb4446178f" y="280.277667"/>
     <use style="fill:#467821;opacity:0.5;stroke:#467821;stroke-linejoin:miter;" x="158.919586" xlink:href="#mfb4446178f" y="263.552153"/>
     <use style="fill:#467821;opacity:0.5;stroke:#467821;stroke-linejoin:miter;" x="166.723781" xlink:href="#mfb4446178f" y="240.855899"/>
     <use style="fill:#467821;opacity:0.5;stroke:#467821;stroke-linejoin:miter;" x="174.527977" xlink:href="#mfb4446178f" y="216.955937"/>
     <use style="fill:#467821;opacity:0.5;stroke:#467821;stroke-linejoin:miter;" x="182.332173" xlink:href="#mfb4446178f" y="196.841305"/>
     <use style="fill:#467821;opacity:0.5;stroke:#467821;stroke-linejoin:miter;" x="190.136369" xlink:href="#mfb4446178f" y="186.969152"/>
     <use style="fill:#467821;opacity:0.5;stroke:#467821;stroke-linejoin:miter;" x="197.940565" xlink:href="#mfb4446178f" y="206.980849"/>
     <use style="fill:#467821;opacity:0.5;stroke:#467821;stroke-linejoin:miter;" x="205.74476" xlink:href="#mfb4446178f" y="245.643807"/>
     <use style="fill:#467821;opacity:0.5;stroke:#467821;stroke-linejoin:miter;" x="213.548956" xlink:href="#mfb4446178f" y="244.838479"/>
     <use style="fill:#467821;opacity:0.5;stroke:#467821;stroke-linejoin:miter;" x="221.353152" xlink:href="#mfb4446178f" y="213.503184"/>
     <use style="fill:#467821;opacity:0.5;stroke:#467821;stroke-linejoin:miter;" x="229.157348" xlink:href="#mfb4446178f" y="213.421072"/>
     <use style="fill:#467821;opacity:0.5;stroke:#467821;stroke-linejoin:miter;" x="236.961544" xlink:href="#mfb4446178f" y="233.178199"/>
     <use style="fill:#467821;opacity:0.5;stroke:#467821;stroke-linejoin:miter;" x="244.76574" xlink:href="#mfb4446178f" y="242.015107"/>
     <use style="fill:#467821;opacity:0.5;stroke:#467821;stroke-linejoin:miter;" x="252.569935" xlink:href="#mfb4446178f" y="240.890888"/>
     <use style="fill:#467821;opacity:0.5;stroke:#467821;stroke-linejoin:miter;" x="260.374131" xlink:href="#mfb4446178f" y="242.264802"/>
     <use style="fill:#467821;opacity:0.5;stroke:#467821;stroke-linejoin:miter;" x="268.178327" xlink:href="#mfb4446178f" y="251.546578"/>
     <use style="fill:#467821;opacity:0.5;stroke:#467821;stroke-linejoin:miter;" x="275.982523" xlink:href="#mfb4446178f" y="263.392936"/>
     <use style="fill:#467821;opacity:0.5;stroke:#467821;stroke-linejoin:miter;" x="283.786719" xlink:href="#mfb4446178f" y="272.479925"/>
     <use style="fill:#467821;opacity:0.5;stroke:#467821;stroke-linejoin:miter;" x="291.590914" xlink:href="#mfb4446178f" y="271.398476"/>
     <use style="fill:#467821;opacity:0.5;stroke:#467821;stroke-linejoin:miter;" x="299.39511" xlink:href="#mfb4446178f" y="251.093336"/>
     <use style="fill:#467821;opacity:0.5;stroke:#467821;stroke-linejoin:miter;" x="307.199306" xlink:href="#mfb4446178f" y="216.223298"/>
     <use style="fill:#467821;opacity:0.5;stroke:#467821;stroke-linejoin:miter;" x="315.003502" xlink:href="#mfb4446178f" y="203.019561"/>
     <use style="fill:#467821;opacity:0.5;stroke:#467821;stroke-linejoin:miter;" x="322.807698" xlink:href="#mfb4446178f" y="236.942708"/>
     <use style="fill:#467821;opacity:0.5;stroke:#467821;stroke-linejoin:miter;" x="330.611893" xlink:href="#mfb4446178f" y="282.139003"/>
     <use style="fill:#467821;opacity:0.5;stroke:#467821;stroke-linejoin:miter;" x="338.416089" xlink:href="#mfb4446178f" y="307.349557"/>
     <use style="fill:#467821;opacity:0.5;stroke:#467821;stroke-linejoin:miter;" x="346.220285" xlink:href="#mfb4446178f" y="316.544228"/>
     <use style="fill:#467821;opacity:0.5;stroke:#467821;stroke-linejoin:miter;" x="354.024481" xlink:href="#mfb4446178f" y="319.768012"/>
     <use style="fill:#467821;opacity:0.5;stroke:#467821;stroke-linejoin:miter;" x="361.828677" xlink:href="#mfb4446178f" y="321.326834"/>
     <use style="fill:#467821;opacity:0.5;stroke:#467821;stroke-linejoin:miter;" x="369.632872" xlink:href="#mfb4446178f" y="322.318397"/>
     <use style="fill:#467821;opacity:0.5;stroke:#467821;stroke-linejoin:miter;" x="377.437068" xlink:href="#mfb4446178f" y="324.72"/>
    </g>
   </g>
   <g id="line2d_21">
    <path clip-path="url(#p2d0cbbd4ba)" d="M 73.073432 320.543551 
L 76.97553 320.543551 
L 76.97553 314.20773 
L 84.779726 314.20773 
L 84.779726 311.599309 
L 92.583921 311.599309 
L 92.583921 311.729113 
L 100.388117 311.729113 
L 100.388117 311.680796 
L 108.192313 311.680796 
L 108.192313 309.756146 
L 115.996509 309.756146 
L 115.996509 307.062169 
L 123.800705 307.062169 
L 123.800705 304.324471 
L 131.6049 304.324471 
L 131.6049 299.323904 
L 139.409096 299.323904 
L 139.409096 291.310942 
L 147.213292 291.310942 
L 147.213292 280.277354 
L 155.017488 280.277354 
L 155.017488 263.55174 
L 162.821684 263.55174 
L 162.821684 240.851655 
L 170.625879 240.851655 
L 170.625879 216.789936 
L 178.430075 216.789936 
L 178.430075 194.148828 
L 186.234271 194.148828 
L 186.234271 168.285756 
L 194.038467 168.285756 
L 194.038467 145.820291 
L 201.842663 145.820291 
L 201.842663 149.676139 
L 209.646858 149.676139 
L 209.646858 164.105748 
L 217.451054 164.105748 
L 217.451054 177.53662 
L 225.25525 177.53662 
L 225.25525 206.464956 
L 233.059446 206.464956 
L 233.059446 232.540727 
L 240.863642 232.540727 
L 240.863642 241.982512 
L 248.667837 241.982512 
L 248.667837 240.889621 
L 256.472033 240.889621 
L 256.472033 242.264262 
L 264.276229 242.264262 
L 264.276229 251.546094 
L 272.080425 251.546094 
L 272.080425 263.392522 
L 279.884621 263.392522 
L 279.884621 272.479566 
L 287.688816 272.479566 
L 287.688816 271.398111 
L 295.493012 271.398111 
L 295.493012 251.092849 
L 303.297208 251.092849 
L 303.297208 216.222603 
L 311.101404 216.222603 
L 311.101404 203.018788 
L 318.9056 203.018788 
L 318.9056 236.942137 
L 326.709795 236.942137 
L 326.709795 282.138701 
L 334.513991 282.138701 
L 334.513991 307.349406 
L 342.318187 307.349406 
L 342.318187 316.544131 
L 350.122383 316.544131 
L 350.122383 319.767935 
L 357.926579 319.767935 
L 357.926579 321.326766 
L 365.730774 321.326766 
L 365.730774 322.318334 
L 373.53497 322.318334 
L 373.53497 324.719952 
L 377.437068 324.719952 
" style="fill:none;opacity:0.5;stroke:#a60628;stroke-linecap:square;stroke-width:2;"/>
   </g>
   <g id="patch_3">
    <path d="M 57.85525 339.84 
L 57.85525 7.2 
" style="fill:none;stroke:#aaaaaa;stroke-linecap:square;stroke-linejoin:miter;"/>
   </g>
   <g id="patch_4">
    <path d="M 392.65525 339.84 
L 392.65525 7.2 
" style="fill:none;stroke:#aaaaaa;stroke-linecap:square;stroke-linejoin:miter;"/>
   </g>
   <g id="patch_5">
    <path d="M 57.85525 339.84 
L 392.65525 339.84 
" style="fill:none;stroke:#aaaaaa;stroke-linecap:square;stroke-linejoin:miter;"/>
   </g>
   <g id="patch_6">
    <path d="M 57.85525 7.2 
L 392.65525 7.2 
" style="fill:none;stroke:#aaaaaa;stroke-linecap:square;stroke-linejoin:miter;"/>
   </g>
   <g id="legend_1">
    <g id="patch_7">
     <path d="M 248.23525 87.255 
L 384.25525 87.255 
Q 386.65525 87.255 386.65525 84.855 
L 386.65525 15.6 
Q 386.65525 13.2 384.25525 13.2 
L 248.23525 13.2 
Q 245.83525 13.2 245.83525 15.6 
L 245.83525 84.855 
Q 245.83525 87.255 248.23525 87.255 
z
" style="fill:#ffffff;opacity:0.8;stroke:#cccccc;stroke-linejoin:miter;"/>
    </g>
    <g id="line2d_22">
     <path d="M 250.63525 22.918125 
L 274.63525 22.918125 
" style="fill:none;opacity:0.5;stroke:#e24a33;stroke-linecap:square;stroke-width:2;"/>
    </g>
    <g id="line2d_23"/>
    <g id="text_19">
     <!-- input -->
     <defs>
      <path d="M 18.109375 8.203125 
L 18.109375 -20.796875 
L 9.078125 -20.796875 
L 9.078125 54.6875 
L 18.109375 54.6875 
L 18.109375 46.390625 
Q 20.953125 51.265625 25.265625 53.625 
Q 29.59375 56 35.59375 56 
Q 45.5625 56 51.78125 48.09375 
Q 58.015625 40.1875 58.015625 27.296875 
Q 58.015625 14.40625 51.78125 6.484375 
Q 45.5625 -1.421875 35.59375 -1.421875 
Q 29.59375 -1.421875 25.265625 0.953125 
Q 20.953125 3.328125 18.109375 8.203125 
M 48.6875 27.296875 
Q 48.6875 37.203125 44.609375 42.84375 
Q 40.53125 48.484375 33.40625 48.484375 
Q 26.265625 48.484375 22.1875 42.84375 
Q 18.109375 37.203125 18.109375 27.296875 
Q 18.109375 17.390625 22.1875 11.75 
Q 26.265625 6.109375 33.40625 6.109375 
Q 40.53125 6.109375 44.609375 11.75 
Q 48.6875 17.390625 48.6875 27.296875 
" id="DejaVuSans-70"/>
      <path d="M 8.5 21.578125 
L 8.5 54.6875 
L 17.484375 54.6875 
L 17.484375 21.921875 
Q 17.484375 14.15625 20.5 10.265625 
Q 23.53125 6.390625 29.59375 6.390625 
Q 36.859375 6.390625 41.078125 11.03125 
Q 45.3125 15.671875 45.3125 23.6875 
L 45.3125 54.6875 
L 54.296875 54.6875 
L 54.296875 0 
L 45.3125 0 
L 45.3125 8.40625 
Q 42.046875 3.421875 37.71875 1 
Q 33.40625 -1.421875 27.6875 -1.421875 
Q 18.265625 -1.421875 13.375 4.4375 
Q 8.5 10.296875 8.5 21.578125 
M 31.109375 56 
z
" id="DejaVuSans-75"/>
     </defs>
     <g transform="translate(284.23525 27.118125)scale(0.12 -0.12)">
      <use xlink:href="#DejaVuSans-69"/>
      <use x="27.783203" xlink:href="#DejaVuSans-6e"/>
      <use x="91.162109" xlink:href="#DejaVuSans-70"/>
      <use x="154.638672" xlink:href="#DejaVuSans-75"/>
      <use x="218.017578" xlink:href="#DejaVuSans-74"/>
     </g>
    </g>
    <g id="line2d_24">
     <path d="M 250.63525 40.531875 
L 274.63525 40.531875 
" style="fill:none;opacity:0.5;stroke:#348abd;stroke-linecap:square;stroke-width:2;"/>
    </g>
    <g id="line2d_25">
     <g>
      <use style="fill:#348abd;opacity:0.5;stroke:#348abd;stroke-linejoin:miter;" x="262.63525" xlink:href="#m0cf5fbbb08" y="40.531875"/>
     </g>
    </g>
    <g id="text_20">
     <!-- scipy -->
     <defs>
      <path d="M 48.78125 52.59375 
L 48.78125 44.1875 
Q 44.96875 46.296875 41.140625 47.34375 
Q 37.3125 48.390625 33.40625 48.390625 
Q 24.65625 48.390625 19.8125 42.84375 
Q 14.984375 37.3125 14.984375 27.296875 
Q 14.984375 17.28125 19.8125 11.734375 
Q 24.65625 6.203125 33.40625 6.203125 
Q 37.3125 6.203125 41.140625 7.25 
Q 44.96875 8.296875 48.78125 10.40625 
L 48.78125 2.09375 
Q 45.015625 0.34375 40.984375 -0.53125 
Q 36.96875 -1.421875 32.421875 -1.421875 
Q 20.0625 -1.421875 12.78125 6.34375 
Q 5.515625 14.109375 5.515625 27.296875 
Q 5.515625 40.671875 12.859375 48.328125 
Q 20.21875 56 33.015625 56 
Q 37.15625 56 41.109375 55.140625 
Q 45.0625 54.296875 48.78125 52.59375 
" id="DejaVuSans-63"/>
      <path d="M 32.171875 -5.078125 
Q 28.375 -14.84375 24.75 -17.8125 
Q 21.140625 -20.796875 15.09375 -20.796875 
L 7.90625 -20.796875 
L 7.90625 -13.28125 
L 13.1875 -13.28125 
Q 16.890625 -13.28125 18.9375 -11.515625 
Q 21 -9.765625 23.484375 -3.21875 
L 25.09375 0.875 
L 2.984375 54.6875 
L 12.5 54.6875 
L 29.59375 11.921875 
L 46.6875 54.6875 
L 56.203125 54.6875 
z
" id="DejaVuSans-79"/>
     </defs>
     <g transform="translate(284.23525 44.731875)scale(0.12 -0.12)">
      <use xlink:href="#DejaVuSans-73"/>
      <use x="52.099609" xlink:href="#DejaVuSans-63"/>
      <use x="107.080078" xlink:href="#DejaVuSans-69"/>
      <use x="134.863281" xlink:href="#DejaVuSans-70"/>
      <use x="198.339844" xlink:href="#DejaVuSans-79"/>
     </g>
    </g>
    <g id="line2d_26">
     <path d="M 250.63525 58.145625 
L 274.63525 58.145625 
" style="fill:none;opacity:0.5;stroke:#467821;stroke-linecap:square;stroke-width:2;"/>
    </g>
    <g id="line2d_27">
     <g>
      <use style="fill:#467821;opacity:0.5;stroke:#467821;stroke-linejoin:miter;" x="262.63525" xlink:href="#mfb4446178f" y="58.145625"/>
     </g>
    </g>
    <g id="text_21">
     <!-- scipy nan-&gt;zero -->
     <defs>
      <path d="M 34.28125 27.484375 
Q 23.390625 27.484375 19.1875 25 
Q 14.984375 22.515625 14.984375 16.5 
Q 14.984375 11.71875 18.140625 8.90625 
Q 21.296875 6.109375 26.703125 6.109375 
Q 34.1875 6.109375 38.703125 11.40625 
Q 43.21875 16.703125 43.21875 25.484375 
L 43.21875 27.484375 
z
M 52.203125 31.203125 
L 52.203125 0 
L 43.21875 0 
L 43.21875 8.296875 
Q 40.140625 3.328125 35.546875 0.953125 
Q 30.953125 -1.421875 24.3125 -1.421875 
Q 15.921875 -1.421875 10.953125 3.296875 
Q 6 8.015625 6 15.921875 
Q 6 25.140625 12.171875 29.828125 
Q 18.359375 34.515625 30.609375 34.515625 
L 43.21875 34.515625 
L 43.21875 35.40625 
Q 43.21875 41.609375 39.140625 45 
Q 35.0625 48.390625 27.6875 48.390625 
Q 23 48.390625 18.546875 47.265625 
Q 14.109375 46.140625 10.015625 43.890625 
L 10.015625 52.203125 
Q 14.9375 54.109375 19.578125 55.046875 
Q 24.21875 56 28.609375 56 
Q 40.484375 56 46.34375 49.84375 
Q 52.203125 43.703125 52.203125 31.203125 
" id="DejaVuSans-61"/>
      <path d="M 4.890625 31.390625 
L 31.203125 31.390625 
L 31.203125 23.390625 
L 4.890625 23.390625 
z
" id="DejaVuSans-2d"/>
      <path d="M 10.59375 49.21875 
L 10.59375 58.109375 
L 73.1875 35.40625 
L 73.1875 27.296875 
L 10.59375 4.59375 
L 10.59375 13.484375 
L 60.890625 31.296875 
z
" id="DejaVuSans-3e"/>
      <path d="M 5.515625 54.6875 
L 48.1875 54.6875 
L 48.1875 46.484375 
L 14.40625 7.171875 
L 48.1875 7.171875 
L 48.1875 0 
L 4.296875 0 
L 4.296875 8.203125 
L 38.09375 47.515625 
L 5.515625 47.515625 
z
" id="DejaVuSans-7a"/>
      <path d="M 41.109375 46.296875 
Q 39.59375 47.171875 37.8125 47.578125 
Q 36.03125 48 33.890625 48 
Q 26.265625 48 22.1875 43.046875 
Q 18.109375 38.09375 18.109375 28.8125 
L 18.109375 0 
L 9.078125 0 
L 9.078125 54.6875 
L 18.109375 54.6875 
L 18.109375 46.1875 
Q 20.953125 51.171875 25.484375 53.578125 
Q 30.03125 56 36.53125 56 
Q 37.453125 56 38.578125 55.875 
Q 39.703125 55.765625 41.0625 55.515625 
z
" id="DejaVuSans-72"/>
     </defs>
     <g transform="translate(284.23525 62.345625)scale(0.12 -0.12)">
      <use xlink:href="#DejaVuSans-73"/>
      <use x="52.099609" xlink:href="#DejaVuSans-63"/>
      <use x="107.080078" xlink:href="#DejaVuSans-69"/>
      <use x="134.863281" xlink:href="#DejaVuSans-70"/>
      <use x="198.339844" xlink:href="#DejaVuSans-79"/>
      <use x="257.519531" xlink:href="#DejaVuSans-20"/>
      <use x="289.306641" xlink:href="#DejaVuSans-6e"/>
      <use x="352.685547" xlink:href="#DejaVuSans-61"/>
      <use x="413.964844" xlink:href="#DejaVuSans-6e"/>
      <use x="477.34375" xlink:href="#DejaVuSans-2d"/>
      <use x="513.427734" xlink:href="#DejaVuSans-3e"/>
      <use x="597.216797" xlink:href="#DejaVuSans-7a"/>
      <use x="649.707031" xlink:href="#DejaVuSans-65"/>
      <use x="711.230469" xlink:href="#DejaVuSans-72"/>
      <use x="752.3125" xlink:href="#DejaVuSans-6f"/>
     </g>
    </g>
    <g id="line2d_28">
     <path d="M 250.63525 75.759375 
L 274.63525 75.759375 
" style="fill:none;opacity:0.5;stroke:#a60628;stroke-linecap:square;stroke-width:2;"/>
    </g>
    <g id="line2d_29"/>
    <g id="text_22">
     <!-- astropy -->
     <g transform="translate(284.23525 79.959375)scale(0.12 -0.12)">
      <use xlink:href="#DejaVuSans-61"/>
      <use x="61.279297" xlink:href="#DejaVuSans-73"/>
      <use x="113.378906" xlink:href="#DejaVuSans-74"/>
      <use x="152.587891" xlink:href="#DejaVuSans-72"/>
      <use x="193.669922" xlink:href="#DejaVuSans-6f"/>
      <use x="254.851562" xlink:href="#DejaVuSans-70"/>
      <use x="318.328125" xlink:href="#DejaVuSans-79"/>
     </g>
    </g>
   </g>
  </g>
 </g>
 <defs>
  <clipPath id="p2d0cbbd4ba">
   <rect height="332.64" width="334.8" x="57.85525" y="7.2"/>
  </clipPath>
 </defs>
</svg>
