<?xml version="1.0" encoding="utf-8" standalone="no"?>
<!DOCTYPE svg PUBLIC "-//W3C//DTD SVG 1.1//EN"
  "http://www.w3.org/Graphics/SVG/1.1/DTD/svg11.dtd">
<!-- Created with matplotlib (http://matplotlib.org/) -->
<svg height="287pt" version="1.1" viewBox="0 0 486 287" width="486pt" xmlns="http://www.w3.org/2000/svg" xmlns:xlink="http://www.w3.org/1999/xlink">
 <defs>
  <style type="text/css">
*{stroke-linecap:butt;stroke-linejoin:round;}
  </style>
 </defs>
 <g id="figure_1">
  <g id="patch_1">
   <path d="M 0 287.370029 
L 486.794019 287.370029 
L 486.794019 0 
L 0 0 
z
" style="fill:none;"/>
  </g>
  <g id="axes_1">
   <g id="patch_2">
    <path d="M 256.394019 267.3861 
C 315.587351 267.3861 372.364247 255.62722 414.220253 234.699217 
C 456.076259 213.771214 479.594019 185.382766 479.594019 155.7861 
C 479.594019 126.189434 456.076259 97.800986 414.220253 76.872983 
C 372.364247 55.94498 315.587351 44.1861 256.394019 44.1861 
C 197.200688 44.1861 140.423792 55.94498 98.567786 76.872983 
C 56.711779 97.800986 33.194019 126.189434 33.194019 155.7861 
C 33.194019 185.382766 56.711779 213.771214 98.567786 234.699217 
C 140.423792 255.62722 197.200688 267.3861 256.394019 267.3861 
z
" style="fill:#ffffff;"/>
   </g>
   <g id="matplotlib.axis_1">
    <g id="xtick_1">
     <g id="line2d_1">
      <path clip-path="url(#p4e948a513e)" d="M 202.855161 259.215233 
L 196.227224 257.655579 
L 189.735959 255.995173 
L 183.385834 254.23715 
L 177.181055 252.38464 
L 171.125577 250.440762 
L 165.223117 248.408621 
L 159.477166 246.291306 
L 153.890997 244.091886 
L 148.467676 241.813407 
L 143.210074 239.458894 
L 138.120876 237.031346 
L 133.202589 234.533734 
L 128.457555 231.969003 
L 123.887953 229.34007 
L 119.495816 226.649825 
L 115.283032 223.901126 
L 111.251355 221.096805 
L 107.402411 218.239666 
L 103.737708 215.332485 
L 100.258637 212.378009 
L 96.966482 209.378959 
L 93.862426 206.338032 
L 90.947554 203.257899 
L 88.22286 200.141206 
L 85.689253 196.990579 
L 83.347555 193.808619 
L 81.198514 190.597911 
L 79.2428 187.361018 
L 77.481013 184.100487 
L 75.913685 180.81885 
L 74.541281 177.518624 
L 73.364203 174.202313 
L 72.382793 170.872411 
L 71.59733 167.531402 
L 71.00804 164.181761 
L 70.615087 160.82596 
L 70.418584 157.466464 
L 70.418584 154.105736 
L 70.615087 150.74624 
L 71.00804 147.390439 
L 71.59733 144.040798 
L 72.382793 140.699789 
L 73.364203 137.369887 
L 74.541281 134.053576 
L 75.913685 130.75335 
L 77.481013 127.471713 
L 79.2428 124.211182 
L 81.198514 120.974289 
L 83.347555 117.763581 
L 85.689253 114.581621 
L 88.22286 111.430994 
L 90.947554 108.314301 
L 93.862426 105.234168 
L 96.966482 102.193241 
L 100.258637 99.194191 
L 103.737708 96.239715 
L 107.402411 93.332534 
L 111.251355 90.475395 
L 115.283032 87.671074 
L 119.495816 84.922375 
L 123.887953 82.23213 
L 128.457555 79.603197 
L 133.202589 77.038466 
L 138.120876 74.540854 
L 143.210074 72.113306 
L 148.467676 69.758793 
L 153.890997 67.480314 
L 159.477166 65.280894 
L 165.223117 63.163579 
L 171.125577 61.131438 
L 177.181055 59.18756 
L 183.385834 57.33505 
L 189.735959 55.577027 
L 196.227224 53.916621 
L 202.855161 52.356967 
" style="fill:none;stroke:#b0b0b0;stroke-linecap:square;stroke-width:0.8;"/>
     </g>
     <g id="text_1">
      <!-- -150° -->
      <defs>
       <path d="M 4.890625 31.390625 
L 31.203125 31.390625 
L 31.203125 23.390625 
L 4.890625 23.390625 
z
" id="DejaVuSans-2d"/>
       <path d="M 12.40625 8.296875 
L 28.515625 8.296875 
L 28.515625 63.921875 
L 10.984375 60.40625 
L 10.984375 69.390625 
L 28.421875 72.90625 
L 38.28125 72.90625 
L 38.28125 8.296875 
L 54.390625 8.296875 
L 54.390625 0 
L 12.40625 0 
z
" id="DejaVuSans-31"/>
       <path d="M 10.796875 72.90625 
L 49.515625 72.90625 
L 49.515625 64.59375 
L 19.828125 64.59375 
L 19.828125 46.734375 
Q 21.96875 47.46875 24.109375 47.828125 
Q 26.265625 48.1875 28.421875 48.1875 
Q 40.625 48.1875 47.75 41.5 
Q 54.890625 34.8125 54.890625 23.390625 
Q 54.890625 11.625 47.5625 5.09375 
Q 40.234375 -1.421875 26.90625 -1.421875 
Q 22.3125 -1.421875 17.546875 -0.640625 
Q 12.796875 0.140625 7.71875 1.703125 
L 7.71875 11.625 
Q 12.109375 9.234375 16.796875 8.0625 
Q 21.484375 6.890625 26.703125 6.890625 
Q 35.15625 6.890625 40.078125 11.328125 
Q 45.015625 15.765625 45.015625 23.390625 
Q 45.015625 31 40.078125 35.4375 
Q 35.15625 39.890625 26.703125 39.890625 
Q 22.75 39.890625 18.8125 39.015625 
Q 14.890625 38.140625 10.796875 36.28125 
z
" id="DejaVuSans-35"/>
       <path d="M 31.78125 66.40625 
Q 24.171875 66.40625 20.328125 58.90625 
Q 16.5 51.421875 16.5 36.375 
Q 16.5 21.390625 20.328125 13.890625 
Q 24.171875 6.390625 31.78125 6.390625 
Q 39.453125 6.390625 43.28125 13.890625 
Q 47.125 21.390625 47.125 36.375 
Q 47.125 51.421875 43.28125 58.90625 
Q 39.453125 66.40625 31.78125 66.40625 
M 31.78125 74.21875 
Q 44.046875 74.21875 50.515625 64.515625 
Q 56.984375 54.828125 56.984375 36.375 
Q 56.984375 17.96875 50.515625 8.265625 
Q 44.046875 -1.421875 31.78125 -1.421875 
Q 19.53125 -1.421875 13.0625 8.265625 
Q 6.59375 17.96875 6.59375 36.375 
Q 6.59375 54.828125 13.0625 64.515625 
Q 19.53125 74.21875 31.78125 74.21875 
" id="DejaVuSans-30"/>
       <path d="M 25 67.921875 
Q 21.09375 67.921875 18.40625 65.203125 
Q 15.71875 62.5 15.71875 58.59375 
Q 15.71875 54.734375 18.40625 52.078125 
Q 21.09375 49.421875 25 49.421875 
Q 28.90625 49.421875 31.59375 52.078125 
Q 34.28125 54.734375 34.28125 58.59375 
Q 34.28125 62.453125 31.5625 65.1875 
Q 28.859375 67.921875 25 67.921875 
M 25 74.21875 
Q 28.125 74.21875 31 73.015625 
Q 33.890625 71.828125 35.984375 69.578125 
Q 38.234375 67.390625 39.359375 64.59375 
Q 40.484375 61.8125 40.484375 58.59375 
Q 40.484375 52.15625 35.96875 47.6875 
Q 31.453125 43.21875 24.90625 43.21875 
Q 18.3125 43.21875 13.90625 47.609375 
Q 9.515625 52 9.515625 58.59375 
Q 9.515625 65.140625 14 69.671875 
Q 18.5 74.21875 25 74.21875 
" id="DejaVuSans-b0"/>
      </defs>
      <g style="fill:#565656;" transform="translate(53.776832 149.290475)scale(0.12 -0.12)">
       <use xlink:href="#DejaVuSans-2d"/>
       <use x="36.083984" xlink:href="#DejaVuSans-31"/>
       <use x="99.707031" xlink:href="#DejaVuSans-35"/>
       <use x="163.330078" xlink:href="#DejaVuSans-30"/>
       <use x="226.953125" xlink:href="#DejaVuSans-b0"/>
      </g>
     </g>
    </g>
    <g id="xtick_2">
     <g id="line2d_2">
      <path clip-path="url(#p4e948a513e)" d="M 210.109116 255.516207 
L 204.601514 253.592499 
L 199.25135 251.599895 
L 194.058593 249.541628 
L 189.023092 247.420801 
L 184.144595 245.240399 
L 179.422757 243.003292 
L 174.857161 240.712238 
L 170.447324 238.369891 
L 166.192711 235.978802 
L 162.092744 233.541428 
L 158.146812 231.060132 
L 154.354276 228.537193 
L 150.71448 225.974805 
L 147.226757 223.375085 
L 143.890432 220.740077 
L 140.704831 218.071752 
L 137.669283 215.372019 
L 134.783127 212.642723 
L 132.045714 209.88565 
L 129.45641 207.102534 
L 127.014602 204.295056 
L 124.719697 201.464849 
L 122.571128 198.613504 
L 120.568354 195.742568 
L 118.710862 192.853552 
L 116.998171 189.947931 
L 115.429829 187.027148 
L 114.005421 184.092617 
L 112.724564 181.145726 
L 111.586911 178.187838 
L 110.592152 175.220295 
L 109.740013 172.244423 
L 109.03026 169.261528 
L 108.462694 166.272907 
L 108.037159 163.279843 
L 107.753535 160.283611 
L 107.611743 157.285481 
L 107.611743 154.286719 
L 107.753535 151.288589 
L 108.037159 148.292357 
L 108.462694 145.299293 
L 109.03026 142.310672 
L 109.740013 139.327777 
L 110.592152 136.351905 
L 111.586911 133.384362 
L 112.724564 130.426474 
L 114.005421 127.479583 
L 115.429829 124.545052 
L 116.998171 121.624269 
L 118.710862 118.718648 
L 120.568354 115.829632 
L 122.571128 112.958696 
L 124.719697 110.107351 
L 127.014602 107.277144 
L 129.45641 104.469666 
L 132.045714 101.68655 
L 134.783127 98.929477 
L 137.669283 96.200181 
L 140.704831 93.500448 
L 143.890432 90.832123 
L 147.226757 88.197115 
L 150.71448 85.597395 
L 154.354276 83.035007 
L 158.146812 80.512068 
L 162.092744 78.030772 
L 166.192711 75.593398 
L 170.447324 73.202309 
L 174.857161 70.859962 
L 179.422757 68.568908 
L 184.144595 66.331801 
L 189.023092 64.151399 
L 194.058593 62.030572 
L 199.25135 59.972305 
L 204.601514 57.979701 
L 210.109116 56.055993 
" style="fill:none;stroke:#b0b0b0;stroke-linecap:square;stroke-width:0.8;"/>
     </g>
     <g id="text_2">
      <!-- -120° -->
      <defs>
       <path d="M 19.1875 8.296875 
L 53.609375 8.296875 
L 53.609375 0 
L 7.328125 0 
L 7.328125 8.296875 
Q 12.9375 14.109375 22.625 23.890625 
Q 32.328125 33.6875 34.8125 36.53125 
Q 39.546875 41.84375 41.421875 45.53125 
Q 43.3125 49.21875 43.3125 52.78125 
Q 43.3125 58.59375 39.234375 62.25 
Q 35.15625 65.921875 28.609375 65.921875 
Q 23.96875 65.921875 18.8125 64.3125 
Q 13.671875 62.703125 7.8125 59.421875 
L 7.8125 69.390625 
Q 13.765625 71.78125 18.9375 73 
Q 24.125 74.21875 28.421875 74.21875 
Q 39.75 74.21875 46.484375 68.546875 
Q 53.21875 62.890625 53.21875 53.421875 
Q 53.21875 48.921875 51.53125 44.890625 
Q 49.859375 40.875 45.40625 35.40625 
Q 44.1875 33.984375 37.640625 27.21875 
Q 31.109375 20.453125 19.1875 8.296875 
" id="DejaVuSans-32"/>
      </defs>
      <g style="fill:#565656;" transform="translate(90.976832 149.290475)scale(0.12 -0.12)">
       <use xlink:href="#DejaVuSans-2d"/>
       <use x="36.083984" xlink:href="#DejaVuSans-31"/>
       <use x="99.707031" xlink:href="#DejaVuSans-32"/>
       <use x="163.330078" xlink:href="#DejaVuSans-30"/>
       <use x="226.953125" xlink:href="#DejaVuSans-b0"/>
      </g>
     </g>
    </g>
    <g id="xtick_3">
     <g id="line2d_3">
      <path clip-path="url(#p4e948a513e)" d="M 219.712256 252.587748 
L 215.483558 250.405536 
L 211.401072 248.183041 
L 207.461986 245.922631 
L 203.663584 243.626526 
L 200.00324 241.296818 
L 196.478429 238.935471 
L 193.086719 236.544337 
L 189.825774 234.125162 
L 186.693357 231.679594 
L 183.687322 229.209187 
L 180.805618 226.715413 
L 178.046287 224.199666 
L 175.407461 221.663264 
L 172.887362 219.10746 
L 170.484299 216.533446 
L 168.196668 213.942352 
L 166.022948 211.335259 
L 163.9617 208.713195 
L 162.011568 206.077145 
L 160.171274 203.42805 
L 158.439616 200.766812 
L 156.81547 198.094299 
L 155.297785 195.411344 
L 153.885584 192.718752 
L 152.57796 190.017297 
L 151.374078 187.307733 
L 150.27317 184.590786 
L 149.274538 181.867165 
L 148.37755 179.137558 
L 147.58164 176.402639 
L 146.886306 173.663066 
L 146.291112 170.919484 
L 145.795684 168.172529 
L 145.399713 165.422825 
L 145.10295 162.670991 
L 144.905211 159.917641 
L 144.806373 157.163381 
L 144.806373 154.408819 
L 144.905211 151.654559 
L 145.10295 148.901209 
L 145.399713 146.149375 
L 145.795684 143.399671 
L 146.291112 140.652716 
L 146.886306 137.909134 
L 147.58164 135.169561 
L 148.37755 132.434642 
L 149.274538 129.705035 
L 150.27317 126.981414 
L 151.374078 124.264467 
L 152.57796 121.554903 
L 153.885584 118.853448 
L 155.297785 116.160856 
L 156.81547 113.477901 
L 158.439616 110.805388 
L 160.171274 108.14415 
L 162.011568 105.495055 
L 163.9617 102.859005 
L 166.022948 100.236941 
L 168.196668 97.629848 
L 170.484299 95.038754 
L 172.887362 92.46474 
L 175.407461 89.908936 
L 178.046287 87.372534 
L 180.805618 84.856787 
L 183.687322 82.363013 
L 186.693357 79.892606 
L 189.825774 77.447038 
L 193.086719 75.027863 
L 196.478429 72.636729 
L 200.00324 70.275382 
L 203.663584 67.945674 
L 207.461986 65.649569 
L 211.401072 63.389159 
L 215.483558 61.166664 
L 219.712256 58.984452 
" style="fill:none;stroke:#b0b0b0;stroke-linecap:square;stroke-width:0.8;"/>
     </g>
     <g id="text_3">
      <!-- -90° -->
      <defs>
       <path d="M 10.984375 1.515625 
L 10.984375 10.5 
Q 14.703125 8.734375 18.5 7.8125 
Q 22.3125 6.890625 25.984375 6.890625 
Q 35.75 6.890625 40.890625 13.453125 
Q 46.046875 20.015625 46.78125 33.40625 
Q 43.953125 29.203125 39.59375 26.953125 
Q 35.25 24.703125 29.984375 24.703125 
Q 19.046875 24.703125 12.671875 31.3125 
Q 6.296875 37.9375 6.296875 49.421875 
Q 6.296875 60.640625 12.9375 67.421875 
Q 19.578125 74.21875 30.609375 74.21875 
Q 43.265625 74.21875 49.921875 64.515625 
Q 56.59375 54.828125 56.59375 36.375 
Q 56.59375 19.140625 48.40625 8.859375 
Q 40.234375 -1.421875 26.421875 -1.421875 
Q 22.703125 -1.421875 18.890625 -0.6875 
Q 15.09375 0.046875 10.984375 1.515625 
M 30.609375 32.421875 
Q 37.25 32.421875 41.125 36.953125 
Q 45.015625 41.5 45.015625 49.421875 
Q 45.015625 57.28125 41.125 61.84375 
Q 37.25 66.40625 30.609375 66.40625 
Q 23.96875 66.40625 20.09375 61.84375 
Q 16.21875 57.28125 16.21875 49.421875 
Q 16.21875 41.5 20.09375 36.953125 
Q 23.96875 32.421875 30.609375 32.421875 
" id="DejaVuSans-39"/>
      </defs>
      <g style="fill:#565656;" transform="translate(131.994332 149.290475)scale(0.12 -0.12)">
       <use xlink:href="#DejaVuSans-2d"/>
       <use x="36.083984" xlink:href="#DejaVuSans-39"/>
       <use x="99.707031" xlink:href="#DejaVuSans-30"/>
       <use x="163.330078" xlink:href="#DejaVuSans-b0"/>
      </g>
     </g>
    </g>
    <g id="xtick_4">
     <g id="line2d_4">
      <path clip-path="url(#p4e948a513e)" d="M 231.02116 250.478901 
L 228.162782 248.126317 
L 225.415091 245.755442 
L 222.77467 243.3675 
L 220.238306 240.963624 
L 217.802974 238.544865 
L 215.465829 236.112197 
L 213.224193 233.666529 
L 211.075548 231.208703 
L 209.017524 228.739506 
L 207.047893 226.259673 
L 205.164559 223.769891 
L 203.365552 221.270804 
L 201.649023 218.763015 
L 200.013233 216.247091 
L 198.456552 213.723567 
L 196.977451 211.192946 
L 195.574498 208.655703 
L 194.246353 206.112288 
L 192.991763 203.563127 
L 191.809561 201.008625 
L 190.698657 198.449167 
L 189.658041 195.885121 
L 188.686776 193.316838 
L 187.783996 190.744653 
L 186.948903 188.16889 
L 186.180765 185.589858 
L 185.478915 183.007858 
L 184.842748 180.423179 
L 184.271718 177.8361 
L 183.76534 175.246896 
L 183.323183 172.655832 
L 182.944877 170.063167 
L 182.630103 167.469157 
L 182.378598 164.874051 
L 182.190151 162.278097 
L 182.064607 159.681539 
L 182.001861 157.08462 
L 182.001861 154.48758 
L 182.064607 151.890661 
L 182.190151 149.294103 
L 182.378598 146.698149 
L 182.630103 144.103043 
L 182.944877 141.509033 
L 183.323183 138.916368 
L 183.76534 136.325304 
L 184.271718 133.7361 
L 184.842748 131.149021 
L 185.478915 128.564342 
L 186.180765 125.982342 
L 186.948903 123.40331 
L 187.783996 120.827547 
L 188.686776 118.255362 
L 189.658041 115.687079 
L 190.698657 113.123033 
L 191.809561 110.563575 
L 192.991763 108.009073 
L 194.246353 105.459912 
L 195.574498 102.916497 
L 196.977451 100.379254 
L 198.456552 97.848633 
L 200.013233 95.325109 
L 201.649023 92.809185 
L 203.365552 90.301396 
L 205.164559 87.802309 
L 207.047893 85.312527 
L 209.017524 82.832694 
L 211.075548 80.363497 
L 213.224193 77.905671 
L 215.465829 75.460003 
L 217.802974 73.027335 
L 220.238306 70.608576 
L 222.77467 68.2047 
L 225.415091 65.816758 
L 228.162782 63.445883 
L 231.02116 61.093299 
" style="fill:none;stroke:#b0b0b0;stroke-linecap:square;stroke-width:0.8;"/>
     </g>
     <g id="text_4">
      <!-- -60° -->
      <defs>
       <path d="M 33.015625 40.375 
Q 26.375 40.375 22.484375 35.828125 
Q 18.609375 31.296875 18.609375 23.390625 
Q 18.609375 15.53125 22.484375 10.953125 
Q 26.375 6.390625 33.015625 6.390625 
Q 39.65625 6.390625 43.53125 10.953125 
Q 47.40625 15.53125 47.40625 23.390625 
Q 47.40625 31.296875 43.53125 35.828125 
Q 39.65625 40.375 33.015625 40.375 
M 52.59375 71.296875 
L 52.59375 62.3125 
Q 48.875 64.0625 45.09375 64.984375 
Q 41.3125 65.921875 37.59375 65.921875 
Q 27.828125 65.921875 22.671875 59.328125 
Q 17.53125 52.734375 16.796875 39.40625 
Q 19.671875 43.65625 24.015625 45.921875 
Q 28.375 48.1875 33.59375 48.1875 
Q 44.578125 48.1875 50.953125 41.515625 
Q 57.328125 34.859375 57.328125 23.390625 
Q 57.328125 12.15625 50.6875 5.359375 
Q 44.046875 -1.421875 33.015625 -1.421875 
Q 20.359375 -1.421875 13.671875 8.265625 
Q 6.984375 17.96875 6.984375 36.375 
Q 6.984375 53.65625 15.1875 63.9375 
Q 23.390625 74.21875 37.203125 74.21875 
Q 40.921875 74.21875 44.703125 73.484375 
Q 48.484375 72.75 52.59375 71.296875 
" id="DejaVuSans-36"/>
      </defs>
      <g style="fill:#565656;" transform="translate(169.194332 149.290475)scale(0.12 -0.12)">
       <use xlink:href="#DejaVuSans-2d"/>
       <use x="36.083984" xlink:href="#DejaVuSans-36"/>
       <use x="99.707031" xlink:href="#DejaVuSans-30"/>
       <use x="163.330078" xlink:href="#DejaVuSans-b0"/>
      </g>
     </g>
    </g>
    <g id="xtick_5">
     <g id="line2d_5">
      <path clip-path="url(#p4e948a513e)" d="M 243.436114 249.209596 
L 241.996575 246.7607 
L 240.616279 244.307184 
L 239.293019 241.849377 
L 238.024739 239.387585 
L 236.809528 236.922088 
L 235.645604 234.453142 
L 234.531308 231.980987 
L 233.46509 229.505842 
L 232.445507 227.02791 
L 231.471211 224.547382 
L 230.540944 222.064432 
L 229.653532 219.579225 
L 228.80788 217.091912 
L 228.002964 214.602637 
L 227.23783 212.111532 
L 226.51159 209.618724 
L 225.823412 207.12433 
L 225.172527 204.62846 
L 224.558215 202.13122 
L 223.979808 199.632709 
L 223.436689 197.13302 
L 222.928284 194.632242 
L 222.454063 192.13046 
L 222.013539 189.627755 
L 221.606264 187.124205 
L 221.231828 184.619883 
L 220.889859 182.114862 
L 220.58002 179.60921 
L 220.302006 177.102993 
L 220.055548 174.596277 
L 219.840409 172.089123 
L 219.656382 169.581594 
L 219.503292 167.073749 
L 219.380993 164.565648 
L 219.289369 162.057347 
L 219.228335 159.548905 
L 219.197832 157.040378 
L 219.197832 154.531822 
L 219.228335 152.023295 
L 219.289369 149.514853 
L 219.380993 147.006552 
L 219.503292 144.498451 
L 219.656382 141.990606 
L 219.840409 139.483077 
L 220.055548 136.975923 
L 220.302006 134.469207 
L 220.58002 131.96299 
L 220.889859 129.457338 
L 221.231828 126.952317 
L 221.606264 124.447995 
L 222.013539 121.944445 
L 222.454063 119.44174 
L 222.928284 116.939958 
L 223.436689 114.43918 
L 223.979808 111.939491 
L 224.558215 109.44098 
L 225.172527 106.94374 
L 225.823412 104.44787 
L 226.51159 101.953476 
L 227.23783 99.460668 
L 228.002964 96.969563 
L 228.80788 94.480288 
L 229.653532 91.992975 
L 230.540944 89.507768 
L 231.471211 87.024818 
L 232.445507 84.54429 
L 233.46509 82.066358 
L 234.531308 79.591213 
L 235.645604 77.119058 
L 236.809528 74.650112 
L 238.024739 72.184615 
L 239.293019 69.722823 
L 240.616279 67.265016 
L 241.996575 64.8115 
L 243.436114 62.362604 
" style="fill:none;stroke:#b0b0b0;stroke-linecap:square;stroke-width:0.8;"/>
     </g>
     <g id="text_5">
      <!-- -30° -->
      <defs>
       <path d="M 40.578125 39.3125 
Q 47.65625 37.796875 51.625 33 
Q 55.609375 28.21875 55.609375 21.1875 
Q 55.609375 10.40625 48.1875 4.484375 
Q 40.765625 -1.421875 27.09375 -1.421875 
Q 22.515625 -1.421875 17.65625 -0.515625 
Q 12.796875 0.390625 7.625 2.203125 
L 7.625 11.71875 
Q 11.71875 9.328125 16.59375 8.109375 
Q 21.484375 6.890625 26.8125 6.890625 
Q 36.078125 6.890625 40.9375 10.546875 
Q 45.796875 14.203125 45.796875 21.1875 
Q 45.796875 27.640625 41.28125 31.265625 
Q 36.765625 34.90625 28.71875 34.90625 
L 20.21875 34.90625 
L 20.21875 43.015625 
L 29.109375 43.015625 
Q 36.375 43.015625 40.234375 45.921875 
Q 44.09375 48.828125 44.09375 54.296875 
Q 44.09375 59.90625 40.109375 62.90625 
Q 36.140625 65.921875 28.71875 65.921875 
Q 24.65625 65.921875 20.015625 65.03125 
Q 15.375 64.15625 9.8125 62.3125 
L 9.8125 71.09375 
Q 15.4375 72.65625 20.34375 73.4375 
Q 25.25 74.21875 29.59375 74.21875 
Q 40.828125 74.21875 47.359375 69.109375 
Q 53.90625 64.015625 53.90625 55.328125 
Q 53.90625 49.265625 50.4375 45.09375 
Q 46.96875 40.921875 40.578125 39.3125 
" id="DejaVuSans-33"/>
      </defs>
      <g style="fill:#565656;" transform="translate(206.394332 149.290475)scale(0.12 -0.12)">
       <use xlink:href="#DejaVuSans-2d"/>
       <use x="36.083984" xlink:href="#DejaVuSans-33"/>
       <use x="99.707031" xlink:href="#DejaVuSans-30"/>
       <use x="163.330078" xlink:href="#DejaVuSans-b0"/>
      </g>
     </g>
    </g>
    <g id="xtick_6">
     <g id="line2d_6">
      <path clip-path="url(#p4e948a513e)" d="M 256.394019 248.7861 
L 256.394019 246.3061 
L 256.394019 243.8261 
L 256.394019 241.3461 
L 256.394019 238.8661 
L 256.394019 236.3861 
L 256.394019 233.9061 
L 256.394019 231.4261 
L 256.394019 228.9461 
L 256.394019 226.4661 
L 256.394019 223.9861 
L 256.394019 221.5061 
L 256.394019 219.0261 
L 256.394019 216.5461 
L 256.394019 214.0661 
L 256.394019 211.5861 
L 256.394019 209.1061 
L 256.394019 206.6261 
L 256.394019 204.1461 
L 256.394019 201.6661 
L 256.394019 199.1861 
L 256.394019 196.7061 
L 256.394019 194.2261 
L 256.394019 191.7461 
L 256.394019 189.2661 
L 256.394019 186.7861 
L 256.394019 184.3061 
L 256.394019 181.8261 
L 256.394019 179.3461 
L 256.394019 176.8661 
L 256.394019 174.3861 
L 256.394019 171.9061 
L 256.394019 169.4261 
L 256.394019 166.9461 
L 256.394019 164.4661 
L 256.394019 161.9861 
L 256.394019 159.5061 
L 256.394019 157.0261 
L 256.394019 154.5461 
L 256.394019 152.0661 
L 256.394019 149.5861 
L 256.394019 147.1061 
L 256.394019 144.6261 
L 256.394019 142.1461 
L 256.394019 139.6661 
L 256.394019 137.1861 
L 256.394019 134.7061 
L 256.394019 132.2261 
L 256.394019 129.7461 
L 256.394019 127.2661 
L 256.394019 124.7861 
L 256.394019 122.3061 
L 256.394019 119.8261 
L 256.394019 117.3461 
L 256.394019 114.8661 
L 256.394019 112.3861 
L 256.394019 109.9061 
L 256.394019 107.4261 
L 256.394019 104.9461 
L 256.394019 102.4661 
L 256.394019 99.9861 
L 256.394019 97.5061 
L 256.394019 95.0261 
L 256.394019 92.5461 
L 256.394019 90.0661 
L 256.394019 87.5861 
L 256.394019 85.1061 
L 256.394019 82.6261 
L 256.394019 80.1461 
L 256.394019 77.6661 
L 256.394019 75.1861 
L 256.394019 72.7061 
L 256.394019 70.2261 
L 256.394019 67.7461 
L 256.394019 65.2661 
L 256.394019 62.7861 
" style="fill:none;stroke:#b0b0b0;stroke-linecap:square;stroke-width:0.8;"/>
     </g>
     <g id="text_6">
      <!-- 0° -->
      <g style="fill:#565656;" transform="translate(249.576519 149.290475)scale(0.12 -0.12)">
       <use xlink:href="#DejaVuSans-30"/>
       <use x="63.623047" xlink:href="#DejaVuSans-b0"/>
      </g>
     </g>
    </g>
    <g id="xtick_7">
     <g id="line2d_7">
      <path clip-path="url(#p4e948a513e)" d="M 269.351924 249.209596 
L 270.791464 246.7607 
L 272.17176 244.307184 
L 273.49502 241.849377 
L 274.7633 239.387585 
L 275.978511 236.922088 
L 277.142435 234.453142 
L 278.256731 231.980987 
L 279.322949 229.505842 
L 280.342532 227.02791 
L 281.316828 224.547382 
L 282.247095 222.064432 
L 283.134506 219.579225 
L 283.980159 217.091912 
L 284.785075 214.602637 
L 285.550209 212.111532 
L 286.276449 209.618724 
L 286.964626 207.12433 
L 287.615512 204.62846 
L 288.229824 202.13122 
L 288.80823 199.632709 
L 289.35135 197.13302 
L 289.859755 194.632242 
L 290.333976 192.13046 
L 290.7745 189.627755 
L 291.181775 187.124205 
L 291.556211 184.619883 
L 291.89818 182.114862 
L 292.208019 179.60921 
L 292.486033 177.102993 
L 292.732491 174.596277 
L 292.94763 172.089123 
L 293.131657 169.581594 
L 293.284747 167.073749 
L 293.407046 164.565648 
L 293.49867 162.057347 
L 293.559704 159.548905 
L 293.590207 157.040378 
L 293.590207 154.531822 
L 293.559704 152.023295 
L 293.49867 149.514853 
L 293.407046 147.006552 
L 293.284747 144.498451 
L 293.131657 141.990606 
L 292.94763 139.483077 
L 292.732491 136.975923 
L 292.486033 134.469207 
L 292.208019 131.96299 
L 291.89818 129.457338 
L 291.556211 126.952317 
L 291.181775 124.447995 
L 290.7745 121.944445 
L 290.333976 119.44174 
L 289.859755 116.939958 
L 289.35135 114.43918 
L 288.80823 111.939491 
L 288.229824 109.44098 
L 287.615512 106.94374 
L 286.964626 104.44787 
L 286.276449 101.953476 
L 285.550209 99.460668 
L 284.785075 96.969563 
L 283.980159 94.480288 
L 283.134506 91.992975 
L 282.247095 89.507768 
L 281.316828 87.024818 
L 280.342532 84.54429 
L 279.322949 82.066358 
L 278.256731 79.591213 
L 277.142435 77.119058 
L 275.978511 74.650112 
L 274.7633 72.184615 
L 273.49502 69.722823 
L 272.17176 67.265016 
L 270.791464 64.8115 
L 269.351924 62.362604 
" style="fill:none;stroke:#b0b0b0;stroke-linecap:square;stroke-width:0.8;"/>
     </g>
     <g id="text_7">
      <!-- 30° -->
      <g style="fill:#565656;" transform="translate(282.959019 149.290475)scale(0.12 -0.12)">
       <use xlink:href="#DejaVuSans-33"/>
       <use x="63.623047" xlink:href="#DejaVuSans-30"/>
       <use x="127.246094" xlink:href="#DejaVuSans-b0"/>
      </g>
     </g>
    </g>
    <g id="xtick_8">
     <g id="line2d_8">
      <path clip-path="url(#p4e948a513e)" d="M 281.766879 250.478901 
L 284.625257 248.126317 
L 287.372948 245.755442 
L 290.013369 243.3675 
L 292.549733 240.963624 
L 294.985065 238.544865 
L 297.32221 236.112197 
L 299.563846 233.666529 
L 301.712491 231.208703 
L 303.770515 228.739506 
L 305.740146 226.259673 
L 307.62348 223.769891 
L 309.422487 221.270804 
L 311.139016 218.763015 
L 312.774806 216.247091 
L 314.331487 213.723567 
L 315.810587 211.192946 
L 317.21354 208.655703 
L 318.541686 206.112288 
L 319.796275 203.563127 
L 320.978478 201.008625 
L 322.089382 198.449167 
L 323.129997 195.885121 
L 324.101262 193.316838 
L 325.004043 190.744653 
L 325.839136 188.16889 
L 326.607274 185.589858 
L 327.309124 183.007858 
L 327.945291 180.423179 
L 328.516321 177.8361 
L 329.022699 175.246896 
L 329.464855 172.655832 
L 329.843162 170.063167 
L 330.157936 167.469157 
L 330.409441 164.874051 
L 330.597888 162.278097 
L 330.723431 159.681539 
L 330.786177 157.08462 
L 330.786177 154.48758 
L 330.723431 151.890661 
L 330.597888 149.294103 
L 330.409441 146.698149 
L 330.157936 144.103043 
L 329.843162 141.509033 
L 329.464855 138.916368 
L 329.022699 136.325304 
L 328.516321 133.7361 
L 327.945291 131.149021 
L 327.309124 128.564342 
L 326.607274 125.982342 
L 325.839136 123.40331 
L 325.004043 120.827547 
L 324.101262 118.255362 
L 323.129997 115.687079 
L 322.089382 113.123033 
L 320.978478 110.563575 
L 319.796275 108.009073 
L 318.541686 105.459912 
L 317.21354 102.916497 
L 315.810587 100.379254 
L 314.331487 97.848633 
L 312.774806 95.325109 
L 311.139016 92.809185 
L 309.422487 90.301396 
L 307.62348 87.802309 
L 305.740146 85.312527 
L 303.770515 82.832694 
L 301.712491 80.363497 
L 299.563846 77.905671 
L 297.32221 75.460003 
L 294.985065 73.027335 
L 292.549733 70.608576 
L 290.013369 68.2047 
L 287.372948 65.816758 
L 284.625257 63.445883 
L 281.766879 61.093299 
" style="fill:none;stroke:#b0b0b0;stroke-linecap:square;stroke-width:0.8;"/>
     </g>
     <g id="text_8">
      <!-- 60° -->
      <g style="fill:#565656;" transform="translate(320.159019 149.290475)scale(0.12 -0.12)">
       <use xlink:href="#DejaVuSans-36"/>
       <use x="63.623047" xlink:href="#DejaVuSans-30"/>
       <use x="127.246094" xlink:href="#DejaVuSans-b0"/>
      </g>
     </g>
    </g>
    <g id="xtick_9">
     <g id="line2d_9">
      <path clip-path="url(#p4e948a513e)" d="M 293.075782 252.587748 
L 297.304481 250.405536 
L 301.386967 248.183041 
L 305.326052 245.922631 
L 309.124455 243.626526 
L 312.784799 241.296818 
L 316.30961 238.935471 
L 319.70132 236.544337 
L 322.962265 234.125162 
L 326.094682 231.679594 
L 329.100717 229.209187 
L 331.982421 226.715413 
L 334.741752 224.199666 
L 337.380578 221.663264 
L 339.900677 219.10746 
L 342.303739 216.533446 
L 344.591371 213.942352 
L 346.765091 211.335259 
L 348.826339 208.713195 
L 350.77647 206.077145 
L 352.616765 203.42805 
L 354.348423 200.766812 
L 355.972569 198.094299 
L 357.490254 195.411344 
L 358.902455 192.718752 
L 360.210079 190.017297 
L 361.413961 187.307733 
L 362.514869 184.590786 
L 363.5135 181.867165 
L 364.410488 179.137558 
L 365.206399 176.402639 
L 365.901733 173.663066 
L 366.496927 170.919484 
L 366.992355 168.172529 
L 367.388326 165.422825 
L 367.685089 162.670991 
L 367.882827 159.917641 
L 367.981666 157.163381 
L 367.981666 154.408819 
L 367.882827 151.654559 
L 367.685089 148.901209 
L 367.388326 146.149375 
L 366.992355 143.399671 
L 366.496927 140.652716 
L 365.901733 137.909134 
L 365.206399 135.169561 
L 364.410488 132.434642 
L 363.5135 129.705035 
L 362.514869 126.981414 
L 361.413961 124.264467 
L 360.210079 121.554903 
L 358.902455 118.853448 
L 357.490254 116.160856 
L 355.972569 113.477901 
L 354.348423 110.805388 
L 352.616765 108.14415 
L 350.77647 105.495055 
L 348.826339 102.859005 
L 346.765091 100.236941 
L 344.591371 97.629848 
L 342.303739 95.038754 
L 339.900677 92.46474 
L 337.380578 89.908936 
L 334.741752 87.372534 
L 331.982421 84.856787 
L 329.100717 82.363013 
L 326.094682 79.892606 
L 322.962265 77.447038 
L 319.70132 75.027863 
L 316.30961 72.636729 
L 312.784799 70.275382 
L 309.124455 67.945674 
L 305.326052 65.649569 
L 301.386967 63.389159 
L 297.304481 61.166664 
L 293.075782 58.984452 
" style="fill:none;stroke:#b0b0b0;stroke-linecap:square;stroke-width:0.8;"/>
     </g>
     <g id="text_9">
      <!-- 90° -->
      <g style="fill:#565656;" transform="translate(357.359019 149.290475)scale(0.12 -0.12)">
       <use xlink:href="#DejaVuSans-39"/>
       <use x="63.623047" xlink:href="#DejaVuSans-30"/>
       <use x="127.246094" xlink:href="#DejaVuSans-b0"/>
      </g>
     </g>
    </g>
    <g id="xtick_10">
     <g id="line2d_10">
      <path clip-path="url(#p4e948a513e)" d="M 302.678923 255.516207 
L 308.186525 253.592499 
L 313.536689 251.599895 
L 318.729446 249.541628 
L 323.764946 247.420801 
L 328.643444 245.240399 
L 333.365282 243.003292 
L 337.930878 240.712238 
L 342.340715 238.369891 
L 346.595328 235.978802 
L 350.695295 233.541428 
L 354.641227 231.060132 
L 358.433763 228.537193 
L 362.073559 225.974805 
L 365.561282 223.375085 
L 368.897607 220.740077 
L 372.083208 218.071752 
L 375.118756 215.372019 
L 378.004912 212.642723 
L 380.742325 209.88565 
L 383.331629 207.102534 
L 385.773437 204.295056 
L 388.068342 201.464849 
L 390.216911 198.613504 
L 392.219685 195.742568 
L 394.077177 192.853552 
L 395.789868 189.947931 
L 397.35821 187.027148 
L 398.782618 184.092617 
L 400.063475 181.145726 
L 401.201128 178.187838 
L 402.195887 175.220295 
L 403.048026 172.244423 
L 403.757779 169.261528 
L 404.325345 166.272907 
L 404.75088 163.279843 
L 405.034504 160.283611 
L 405.176296 157.285481 
L 405.176296 154.286719 
L 405.034504 151.288589 
L 404.75088 148.292357 
L 404.325345 145.299293 
L 403.757779 142.310672 
L 403.048026 139.327777 
L 402.195887 136.351905 
L 401.201128 133.384362 
L 400.063475 130.426474 
L 398.782618 127.479583 
L 397.35821 124.545052 
L 395.789868 121.624269 
L 394.077177 118.718648 
L 392.219685 115.829632 
L 390.216911 112.958696 
L 388.068342 110.107351 
L 385.773437 107.277144 
L 383.331629 104.469666 
L 380.742325 101.68655 
L 378.004912 98.929477 
L 375.118756 96.200181 
L 372.083208 93.500448 
L 368.897607 90.832123 
L 365.561282 88.197115 
L 362.073559 85.597395 
L 358.433763 83.035007 
L 354.641227 80.512068 
L 350.695295 78.030772 
L 346.595328 75.593398 
L 342.340715 73.202309 
L 337.930878 70.859962 
L 333.365282 68.568908 
L 328.643444 66.331801 
L 323.764946 64.151399 
L 318.729446 62.030572 
L 313.536689 59.972305 
L 308.186525 57.979701 
L 302.678923 56.055993 
" style="fill:none;stroke:#b0b0b0;stroke-linecap:square;stroke-width:0.8;"/>
     </g>
     <g id="text_10">
      <!-- 120° -->
      <g style="fill:#565656;" transform="translate(390.741519 149.290475)scale(0.12 -0.12)">
       <use xlink:href="#DejaVuSans-31"/>
       <use x="63.623047" xlink:href="#DejaVuSans-32"/>
       <use x="127.246094" xlink:href="#DejaVuSans-30"/>
       <use x="190.869141" xlink:href="#DejaVuSans-b0"/>
      </g>
     </g>
    </g>
    <g id="xtick_11">
     <g id="line2d_11">
      <path clip-path="url(#p4e948a513e)" d="M 309.932878 259.215233 
L 316.560815 257.655579 
L 323.05208 255.995173 
L 329.402204 254.23715 
L 335.606984 252.38464 
L 341.662462 250.440762 
L 347.564922 248.408621 
L 353.310873 246.291306 
L 358.897042 244.091886 
L 364.320363 241.813407 
L 369.577965 239.458894 
L 374.667163 237.031346 
L 379.585449 234.533734 
L 384.330484 231.969003 
L 388.900086 229.34007 
L 393.292223 226.649825 
L 397.505007 223.901126 
L 401.536684 221.096805 
L 405.385628 218.239666 
L 409.050331 215.332485 
L 412.529402 212.378009 
L 415.821557 209.378959 
L 418.925613 206.338032 
L 421.840485 203.257899 
L 424.565178 200.141206 
L 427.098786 196.990579 
L 429.440484 193.808619 
L 431.589525 190.597911 
L 433.545239 187.361018 
L 435.307026 184.100487 
L 436.874354 180.81885 
L 438.246758 177.518624 
L 439.423835 174.202313 
L 440.405246 170.872411 
L 441.190708 167.531402 
L 441.779999 164.181761 
L 442.172951 160.82596 
L 442.369455 157.466464 
L 442.369455 154.105736 
L 442.172951 150.74624 
L 441.779999 147.390439 
L 441.190708 144.040798 
L 440.405246 140.699789 
L 439.423835 137.369887 
L 438.246758 134.053576 
L 436.874354 130.75335 
L 435.307026 127.471713 
L 433.545239 124.211182 
L 431.589525 120.974289 
L 429.440484 117.763581 
L 427.098786 114.581621 
L 424.565178 111.430994 
L 421.840485 108.314301 
L 418.925613 105.234168 
L 415.821557 102.193241 
L 412.529402 99.194191 
L 409.050331 96.239715 
L 405.385628 93.332534 
L 401.536684 90.475395 
L 397.505007 87.671074 
L 393.292223 84.922375 
L 388.900086 82.23213 
L 384.330484 79.603197 
L 379.585449 77.038466 
L 374.667163 74.540854 
L 369.577965 72.113306 
L 364.320363 69.758793 
L 358.897042 67.480314 
L 353.310873 65.280894 
L 347.564922 63.163579 
L 341.662462 61.131438 
L 335.606984 59.18756 
L 329.402204 57.33505 
L 323.05208 55.577027 
L 316.560815 53.916621 
L 309.932878 52.356967 
" style="fill:none;stroke:#b0b0b0;stroke-linecap:square;stroke-width:0.8;"/>
     </g>
     <g id="text_11">
      <!-- 150° -->
      <g style="fill:#565656;" transform="translate(427.941519 149.290475)scale(0.12 -0.12)">
       <use xlink:href="#DejaVuSans-31"/>
       <use x="63.623047" xlink:href="#DejaVuSans-35"/>
       <use x="127.246094" xlink:href="#DejaVuSans-30"/>
       <use x="190.869141" xlink:href="#DejaVuSans-b0"/>
      </g>
     </g>
    </g>
   </g>
   <g id="matplotlib.axis_2">
    <g id="ytick_1">
     <g id="line2d_12">
      <path clip-path="url(#p4e948a513e)" d="M 198.625609 263.583422 
L 199.071164 262.845913 
L 199.608645 262.121987 
L 200.235355 261.412489 
L 200.948561 260.718198 
L 201.745496 260.039826 
L 202.623373 259.378024 
L 203.579389 258.733383 
L 204.610741 258.106442 
L 205.714623 257.497687 
L 206.888237 256.907557 
L 208.128798 256.336447 
L 209.433538 255.784711 
L 210.799708 255.252663 
L 212.224582 254.740584 
L 213.70546 254.248723 
L 215.23967 253.777299 
L 216.824566 253.326505 
L 218.457536 252.896508 
L 220.135996 252.487455 
L 221.857391 252.099473 
L 223.6192 251.732669 
L 225.418931 251.387137 
L 227.254119 251.062956 
L 229.122331 250.760192 
L 231.02116 250.478901 
L 232.948225 250.219128 
L 234.901171 249.980912 
L 236.877666 249.764284 
L 238.875399 249.569268 
L 240.892079 249.395883 
L 242.925435 249.244146 
L 244.973209 249.114068 
L 247.033159 249.005658 
L 249.103055 248.918924 
L 251.180676 248.853869 
L 253.26381 248.810497 
L 255.350249 248.788811 
L 257.43779 248.788811 
L 259.524229 248.810497 
L 261.607363 248.853869 
L 263.684984 248.918924 
L 265.75488 249.005658 
L 267.81483 249.114068 
L 269.862604 249.244146 
L 271.895959 249.395883 
L 273.91264 249.569268 
L 275.910373 249.764284 
L 277.886868 249.980912 
L 279.839814 250.219128 
L 281.766879 250.478901 
L 283.665708 250.760192 
L 285.53392 251.062956 
L 287.369108 251.387137 
L 289.168838 251.732669 
L 290.930648 252.099473 
L 292.652043 252.487455 
L 294.330502 252.896508 
L 295.963472 253.326505 
L 297.548369 253.777299 
L 299.082578 254.248723 
L 300.563456 254.740584 
L 301.988331 255.252663 
L 303.3545 255.784711 
L 304.65924 256.336447 
L 305.899802 256.907557 
L 307.073416 257.497687 
L 308.177298 258.106442 
L 309.208649 258.733383 
L 310.164666 259.378024 
L 311.042542 260.039826 
L 311.839477 260.718198 
L 312.552684 261.412489 
L 313.179394 262.121987 
L 313.716874 262.845913 
L 314.16243 263.583422 
" style="fill:none;stroke:#b0b0b0;stroke-linecap:square;stroke-width:0.8;"/>
     </g>
     <g id="text_12">
      <!-- -75° -->
      <defs>
       <path d="M 8.203125 72.90625 
L 55.078125 72.90625 
L 55.078125 68.703125 
L 28.609375 0 
L 18.3125 0 
L 43.21875 64.59375 
L 8.203125 64.59375 
z
" id="DejaVuSans-37"/>
      </defs>
      <g style="fill:#565656;" transform="translate(165.026234 277.674404)scale(0.12 -0.12)">
       <use xlink:href="#DejaVuSans-2d"/>
       <use x="36.083984" xlink:href="#DejaVuSans-37"/>
       <use x="99.707031" xlink:href="#DejaVuSans-35"/>
       <use x="163.330078" xlink:href="#DejaVuSans-b0"/>
      </g>
     </g>
    </g>
    <g id="ytick_2">
     <g id="line2d_13">
      <path clip-path="url(#p4e948a513e)" d="M 144.794019 252.434535 
L 146.354157 251.167081 
L 148.05351 249.941951 
L 149.884726 248.758973 
L 151.840769 247.61788 
L 153.914913 246.518326 
L 156.100733 245.459901 
L 158.392095 244.44214 
L 160.783148 243.464536 
L 163.268309 242.52655 
L 165.842254 241.627618 
L 168.499907 240.767159 
L 171.236424 239.944583 
L 174.047185 239.159294 
L 176.927779 238.410698 
L 179.873994 237.698207 
L 182.881804 237.021238 
L 185.947361 236.379223 
L 189.06698 235.771609 
L 192.23713 235.197858 
L 195.454425 234.657454 
L 198.715611 234.149901 
L 202.017562 233.674725 
L 205.357264 233.231476 
L 208.731812 232.819729 
L 212.138398 232.439085 
L 215.574304 232.089172 
L 219.036894 231.769644 
L 222.523608 231.480183 
L 226.031951 231.220499 
L 229.559489 230.990331 
L 233.103841 230.789445 
L 236.662673 230.617638 
L 240.233692 230.474734 
L 243.814635 230.360586 
L 247.403269 230.275078 
L 250.997382 230.218121 
L 254.594776 230.189657 
L 258.193263 230.189657 
L 261.790657 230.218121 
L 265.38477 230.275078 
L 268.973404 230.360586 
L 272.554347 230.474734 
L 276.125365 230.617638 
L 279.684198 230.789445 
L 283.22855 230.990331 
L 286.756088 231.220499 
L 290.264431 231.480183 
L 293.751145 231.769644 
L 297.213735 232.089172 
L 300.649641 232.439085 
L 304.056227 232.819729 
L 307.430775 233.231476 
L 310.770477 233.674725 
L 314.072428 234.149901 
L 317.333614 234.657454 
L 320.550909 235.197858 
L 323.721059 235.771609 
L 326.840678 236.379223 
L 329.906235 237.021238 
L 332.914045 237.698207 
L 335.86026 238.410698 
L 338.740854 239.159294 
L 341.551614 239.944583 
L 344.288132 240.767159 
L 346.945784 241.627618 
L 349.51973 242.52655 
L 352.004891 243.464536 
L 354.395944 244.44214 
L 356.687306 245.459901 
L 358.873126 246.518326 
L 360.94727 247.61788 
L 362.903313 248.758973 
L 364.734529 249.941951 
L 366.433882 251.167081 
L 367.994019 252.434535 
" style="fill:none;stroke:#b0b0b0;stroke-linecap:square;stroke-width:0.8;"/>
     </g>
     <g id="text_13">
      <!-- -60° -->
      <g style="fill:#565656;" transform="translate(111.194644 265.410629)scale(0.12 -0.12)">
       <use xlink:href="#DejaVuSans-2d"/>
       <use x="36.083984" xlink:href="#DejaVuSans-36"/>
       <use x="99.707031" xlink:href="#DejaVuSans-30"/>
       <use x="163.330078" xlink:href="#DejaVuSans-b0"/>
      </g>
     </g>
    </g>
    <g id="ytick_3">
     <g id="line2d_14">
      <path clip-path="url(#p4e948a513e)" d="M 98.567786 234.699217 
L 101.61131 233.245399 
L 104.783331 231.85824 
L 108.07459 230.535234 
L 111.476549 229.273956 
L 114.981321 228.072071 
L 118.581617 226.927334 
L 122.270698 225.837594 
L 126.042323 224.800796 
L 129.890708 223.814983 
L 133.810487 222.878291 
L 137.796678 221.988949 
L 141.844644 221.145282 
L 145.950068 220.345701 
L 150.108925 219.588708 
L 154.317453 218.872887 
L 158.572136 218.196908 
L 162.869677 217.559517 
L 167.206982 216.95954 
L 171.581142 216.395877 
L 175.989416 215.867497 
L 180.429217 215.373442 
L 184.898096 214.912819 
L 189.393731 214.484799 
L 193.913918 214.088617 
L 198.456552 213.723567 
L 203.019627 213.389002 
L 207.601219 213.084331 
L 212.19948 212.809018 
L 216.81263 212.562582 
L 221.438949 212.344591 
L 226.076769 212.154668 
L 230.724468 211.992481 
L 235.38046 211.85775 
L 240.043196 211.750243 
L 244.71115 211.669775 
L 249.382817 211.616206 
L 254.056705 211.589444 
L 258.731334 211.589444 
L 263.405222 211.616206 
L 268.076889 211.669775 
L 272.744843 211.750243 
L 277.407578 211.85775 
L 282.063571 211.992481 
L 286.71127 212.154668 
L 291.349089 212.344591 
L 295.975408 212.562582 
L 300.588559 212.809018 
L 305.18682 213.084331 
L 309.768412 213.389002 
L 314.331487 213.723567 
L 318.874121 214.088617 
L 323.394307 214.484799 
L 327.889943 214.912819 
L 332.358822 215.373442 
L 336.798623 215.867497 
L 341.206897 216.395877 
L 345.581057 216.95954 
L 349.918362 217.559517 
L 354.215903 218.196908 
L 358.470586 218.872887 
L 362.679114 219.588708 
L 366.837971 220.345701 
L 370.943395 221.145282 
L 374.991361 221.988949 
L 378.977551 222.878291 
L 382.897331 223.814983 
L 386.745716 224.800796 
L 390.517341 225.837594 
L 394.206421 226.927334 
L 397.806718 228.072071 
L 401.31149 229.273956 
L 404.713448 230.535234 
L 408.004708 231.85824 
L 411.176728 233.245399 
L 414.220253 234.699217 
" style="fill:none;stroke:#b0b0b0;stroke-linecap:square;stroke-width:0.8;"/>
     </g>
     <g id="text_14">
      <!-- -45° -->
      <defs>
       <path d="M 37.796875 64.3125 
L 12.890625 25.390625 
L 37.796875 25.390625 
z
M 35.203125 72.90625 
L 47.609375 72.90625 
L 47.609375 25.390625 
L 58.015625 25.390625 
L 58.015625 17.1875 
L 47.609375 17.1875 
L 47.609375 0 
L 37.796875 0 
L 37.796875 17.1875 
L 4.890625 17.1875 
L 4.890625 26.703125 
z
" id="DejaVuSans-34"/>
      </defs>
      <g style="fill:#565656;" transform="translate(64.968411 245.901778)scale(0.12 -0.12)">
       <use xlink:href="#DejaVuSans-2d"/>
       <use x="36.083984" xlink:href="#DejaVuSans-34"/>
       <use x="99.707031" xlink:href="#DejaVuSans-35"/>
       <use x="163.330078" xlink:href="#DejaVuSans-b0"/>
      </g>
     </g>
    </g>
    <g id="ytick_4">
     <g id="line2d_15">
      <path clip-path="url(#p4e948a513e)" d="M 63.097149 211.5861 
L 67.602273 210.33343 
L 72.184827 209.149868 
L 76.838135 208.031389 
L 81.556187 206.974272 
L 86.333561 205.975075 
L 91.165355 205.030614 
L 96.04713 204.137941 
L 100.974855 203.294328 
L 105.944864 202.497251 
L 110.953814 201.744372 
L 115.998653 201.033526 
L 121.076587 200.362707 
L 126.185053 199.730058 
L 131.321695 199.13386 
L 136.484343 198.572521 
L 141.670993 198.044568 
L 146.879792 197.548637 
L 152.10902 197.083469 
L 157.35708 196.647898 
L 162.62248 196.240851 
L 167.90383 195.861337 
L 173.199826 195.508445 
L 178.509244 195.18134 
L 183.830931 194.879254 
L 189.163796 194.601488 
L 194.506807 194.347404 
L 199.858984 194.116426 
L 205.219388 193.908034 
L 210.587125 193.721762 
L 215.961333 193.557198 
L 221.341183 193.413979 
L 226.725869 193.291791 
L 232.114612 193.190369 
L 237.506649 193.109493 
L 242.901231 193.048988 
L 248.297625 193.008724 
L 253.695101 192.988613 
L 259.092938 192.988613 
L 264.490414 193.008724 
L 269.886808 193.048988 
L 275.28139 193.109493 
L 280.673427 193.190369 
L 286.062169 193.291791 
L 291.446856 193.413979 
L 296.826705 193.557198 
L 302.200914 193.721762 
L 307.568651 193.908034 
L 312.929055 194.116426 
L 318.281231 194.347404 
L 323.624243 194.601488 
L 328.957108 194.879254 
L 334.278795 195.18134 
L 339.588212 195.508445 
L 344.884209 195.861337 
L 350.165559 196.240851 
L 355.430959 196.647898 
L 360.679018 197.083469 
L 365.908247 197.548637 
L 371.117046 198.044568 
L 376.303696 198.572521 
L 381.466344 199.13386 
L 386.602986 199.730058 
L 391.711452 200.362707 
L 396.789386 201.033526 
L 401.834225 201.744372 
L 406.843175 202.497251 
L 411.813184 203.294328 
L 416.740909 204.137941 
L 421.622684 205.030614 
L 426.454478 205.975075 
L 431.231852 206.974272 
L 435.949904 208.031389 
L 440.603212 209.149868 
L 445.185765 210.33343 
L 449.69089 211.5861 
" style="fill:none;stroke:#b0b0b0;stroke-linecap:square;stroke-width:0.8;"/>
     </g>
     <g id="text_15">
      <!-- -30° -->
      <g style="fill:#565656;" transform="translate(29.497774 220.47735)scale(0.12 -0.12)">
       <use xlink:href="#DejaVuSans-2d"/>
       <use x="36.083984" xlink:href="#DejaVuSans-33"/>
       <use x="99.707031" xlink:href="#DejaVuSans-30"/>
       <use x="163.330078" xlink:href="#DejaVuSans-b0"/>
      </g>
     </g>
    </g>
    <g id="ytick_5">
     <g id="line2d_16">
      <path clip-path="url(#p4e948a513e)" d="M 40.799375 184.670305 
L 46.364915 183.949368 
L 51.953364 183.272352 
L 57.562548 182.636187 
L 63.190539 182.03809 
L 68.83562 181.475537 
L 74.496258 180.946231 
L 80.171084 180.448082 
L 85.858866 179.979185 
L 91.558497 179.5378 
L 97.268977 179.122337 
L 102.989402 178.73134 
L 108.718951 178.363479 
L 114.456878 178.017531 
L 120.202503 177.692377 
L 125.955204 177.386991 
L 131.71441 177.100429 
L 137.479598 176.831827 
L 143.250285 176.580391 
L 149.026026 176.345393 
L 154.806406 176.126164 
L 160.591043 175.922093 
L 166.379579 175.73262 
L 172.171679 175.557233 
L 177.967031 175.395467 
L 183.76534 175.246896 
L 189.566328 175.111137 
L 195.369732 174.987843 
L 201.175302 174.876701 
L 206.982799 174.777434 
L 212.791996 174.689796 
L 218.602673 174.613572 
L 224.414617 174.548575 
L 230.227624 174.494648 
L 236.041493 174.45166 
L 241.856027 174.419509 
L 247.671035 174.398118 
L 253.486327 174.387435 
L 259.301712 174.387435 
L 265.117003 174.398118 
L 270.932012 174.419509 
L 276.746546 174.45166 
L 282.560415 174.494648 
L 288.373422 174.548575 
L 294.185366 174.613572 
L 299.996043 174.689796 
L 305.80524 174.777434 
L 311.612737 174.876701 
L 317.418307 174.987843 
L 323.221711 175.111137 
L 329.022699 175.246896 
L 334.821008 175.395467 
L 340.61636 175.557233 
L 346.40846 175.73262 
L 352.196996 175.922093 
L 357.981633 176.126164 
L 363.762013 176.345393 
L 369.537753 176.580391 
L 375.308441 176.831827 
L 381.073629 177.100429 
L 386.832835 177.386991 
L 392.585536 177.692377 
L 398.331161 178.017531 
L 404.069088 178.363479 
L 409.798637 178.73134 
L 415.519062 179.122337 
L 421.229542 179.5378 
L 426.929172 179.979185 
L 432.616955 180.448082 
L 438.29178 180.946231 
L 443.952419 181.475537 
L 449.5975 182.03809 
L 455.225491 182.636187 
L 460.834675 183.272352 
L 466.423124 183.949368 
L 471.988664 184.670305 
" style="fill:none;stroke:#b0b0b0;stroke-linecap:square;stroke-width:0.8;"/>
     </g>
     <g id="text_16">
      <!-- -15° -->
      <g style="fill:#565656;" transform="translate(7.2 190.869976)scale(0.12 -0.12)">
       <use xlink:href="#DejaVuSans-2d"/>
       <use x="36.083984" xlink:href="#DejaVuSans-31"/>
       <use x="99.707031" xlink:href="#DejaVuSans-35"/>
       <use x="163.330078" xlink:href="#DejaVuSans-b0"/>
      </g>
     </g>
    </g>
    <g id="ytick_6">
     <g id="line2d_17">
      <path clip-path="url(#p4e948a513e)" d="M 33.194019 155.7861 
L 39.146019 155.7861 
L 45.098019 155.7861 
L 51.050019 155.7861 
L 57.002019 155.7861 
L 62.954019 155.7861 
L 68.906019 155.7861 
L 74.858019 155.7861 
L 80.810019 155.7861 
L 86.762019 155.7861 
L 92.714019 155.7861 
L 98.666019 155.7861 
L 104.618019 155.7861 
L 110.570019 155.7861 
L 116.522019 155.7861 
L 122.474019 155.7861 
L 128.426019 155.7861 
L 134.378019 155.7861 
L 140.330019 155.7861 
L 146.282019 155.7861 
L 152.234019 155.7861 
L 158.186019 155.7861 
L 164.138019 155.7861 
L 170.090019 155.7861 
L 176.042019 155.7861 
L 181.994019 155.7861 
L 187.946019 155.7861 
L 193.898019 155.7861 
L 199.850019 155.7861 
L 205.802019 155.7861 
L 211.754019 155.7861 
L 217.706019 155.7861 
L 223.658019 155.7861 
L 229.610019 155.7861 
L 235.562019 155.7861 
L 241.514019 155.7861 
L 247.466019 155.7861 
L 253.418019 155.7861 
L 259.370019 155.7861 
L 265.322019 155.7861 
L 271.274019 155.7861 
L 277.226019 155.7861 
L 283.178019 155.7861 
L 289.130019 155.7861 
L 295.082019 155.7861 
L 301.034019 155.7861 
L 306.986019 155.7861 
L 312.938019 155.7861 
L 318.890019 155.7861 
L 324.842019 155.7861 
L 330.794019 155.7861 
L 336.746019 155.7861 
L 342.698019 155.7861 
L 348.650019 155.7861 
L 354.602019 155.7861 
L 360.554019 155.7861 
L 366.506019 155.7861 
L 372.458019 155.7861 
L 378.410019 155.7861 
L 384.362019 155.7861 
L 390.314019 155.7861 
L 396.266019 155.7861 
L 402.218019 155.7861 
L 408.170019 155.7861 
L 414.122019 155.7861 
L 420.074019 155.7861 
L 426.026019 155.7861 
L 431.978019 155.7861 
L 437.930019 155.7861 
L 443.882019 155.7861 
L 449.834019 155.7861 
L 455.786019 155.7861 
L 461.738019 155.7861 
L 467.690019 155.7861 
L 473.642019 155.7861 
L 479.594019 155.7861 
" style="fill:none;stroke:#b0b0b0;stroke-linecap:square;stroke-width:0.8;"/>
     </g>
     <g id="text_17">
      <!-- 0° -->
      <g style="fill:#565656;" transform="translate(11.559019 159.09735)scale(0.12 -0.12)">
       <use xlink:href="#DejaVuSans-30"/>
       <use x="63.623047" xlink:href="#DejaVuSans-b0"/>
      </g>
     </g>
    </g>
    <g id="ytick_7">
     <g id="line2d_18">
      <path clip-path="url(#p4e948a513e)" d="M 40.799375 126.901895 
L 46.364915 127.622832 
L 51.953364 128.299848 
L 57.562548 128.936013 
L 63.190539 129.53411 
L 68.83562 130.096663 
L 74.496258 130.625969 
L 80.171084 131.124118 
L 85.858866 131.593015 
L 91.558497 132.0344 
L 97.268977 132.449863 
L 102.989402 132.84086 
L 108.718951 133.208721 
L 114.456878 133.554669 
L 120.202503 133.879823 
L 125.955204 134.185209 
L 131.71441 134.471771 
L 137.479598 134.740373 
L 143.250285 134.991809 
L 149.026026 135.226807 
L 154.806406 135.446036 
L 160.591043 135.650107 
L 166.379579 135.83958 
L 172.171679 136.014967 
L 177.967031 136.176733 
L 183.76534 136.325304 
L 189.566328 136.461063 
L 195.369732 136.584357 
L 201.175302 136.695499 
L 206.982799 136.794766 
L 212.791996 136.882404 
L 218.602673 136.958628 
L 224.414617 137.023625 
L 230.227624 137.077552 
L 236.041493 137.12054 
L 241.856027 137.152691 
L 247.671035 137.174082 
L 253.486327 137.184765 
L 259.301712 137.184765 
L 265.117003 137.174082 
L 270.932012 137.152691 
L 276.746546 137.12054 
L 282.560415 137.077552 
L 288.373422 137.023625 
L 294.185366 136.958628 
L 299.996043 136.882404 
L 305.80524 136.794766 
L 311.612737 136.695499 
L 317.418307 136.584357 
L 323.221711 136.461063 
L 329.022699 136.325304 
L 334.821008 136.176733 
L 340.61636 136.014967 
L 346.40846 135.83958 
L 352.196996 135.650107 
L 357.981633 135.446036 
L 363.762013 135.226807 
L 369.537753 134.991809 
L 375.308441 134.740373 
L 381.073629 134.471771 
L 386.832835 134.185209 
L 392.585536 133.879823 
L 398.331161 133.554669 
L 404.069088 133.208721 
L 409.798637 132.84086 
L 415.519062 132.449863 
L 421.229542 132.0344 
L 426.929172 131.593015 
L 432.616955 131.124118 
L 438.29178 130.625969 
L 443.952419 130.096663 
L 449.5975 129.53411 
L 455.225491 128.936013 
L 460.834675 128.299848 
L 466.423124 127.622832 
L 471.988664 126.901895 
" style="fill:none;stroke:#b0b0b0;stroke-linecap:square;stroke-width:0.8;"/>
     </g>
     <g id="text_18">
      <!-- 15° -->
      <g style="fill:#565656;" transform="translate(11.529375 127.324724)scale(0.12 -0.12)">
       <use xlink:href="#DejaVuSans-31"/>
       <use x="63.623047" xlink:href="#DejaVuSans-35"/>
       <use x="127.246094" xlink:href="#DejaVuSans-b0"/>
      </g>
     </g>
    </g>
    <g id="ytick_8">
     <g id="line2d_19">
      <path clip-path="url(#p4e948a513e)" d="M 63.097149 99.9861 
L 67.602273 101.23877 
L 72.184827 102.422332 
L 76.838135 103.540811 
L 81.556187 104.597928 
L 86.333561 105.597125 
L 91.165355 106.541586 
L 96.04713 107.434259 
L 100.974855 108.277872 
L 105.944864 109.074949 
L 110.953814 109.827828 
L 115.998653 110.538674 
L 121.076587 111.209493 
L 126.185053 111.842142 
L 131.321695 112.43834 
L 136.484343 112.999679 
L 141.670993 113.527632 
L 146.879792 114.023563 
L 152.10902 114.488731 
L 157.35708 114.924302 
L 162.62248 115.331349 
L 167.90383 115.710863 
L 173.199826 116.063755 
L 178.509244 116.39086 
L 183.830931 116.692946 
L 189.163796 116.970712 
L 194.506807 117.224796 
L 199.858984 117.455774 
L 205.219388 117.664166 
L 210.587125 117.850438 
L 215.961333 118.015002 
L 221.341183 118.158221 
L 226.725869 118.280409 
L 232.114612 118.381831 
L 237.506649 118.462707 
L 242.901231 118.523212 
L 248.297625 118.563476 
L 253.695101 118.583587 
L 259.092938 118.583587 
L 264.490414 118.563476 
L 269.886808 118.523212 
L 275.28139 118.462707 
L 280.673427 118.381831 
L 286.062169 118.280409 
L 291.446856 118.158221 
L 296.826705 118.015002 
L 302.200914 117.850438 
L 307.568651 117.664166 
L 312.929055 117.455774 
L 318.281231 117.224796 
L 323.624243 116.970712 
L 328.957108 116.692946 
L 334.278795 116.39086 
L 339.588212 116.063755 
L 344.884209 115.710863 
L 350.165559 115.331349 
L 355.430959 114.924302 
L 360.679018 114.488731 
L 365.908247 114.023563 
L 371.117046 113.527632 
L 376.303696 112.999679 
L 381.466344 112.43834 
L 386.602986 111.842142 
L 391.711452 111.209493 
L 396.789386 110.538674 
L 401.834225 109.827828 
L 406.843175 109.074949 
L 411.813184 108.277872 
L 416.740909 107.434259 
L 421.622684 106.541586 
L 426.454478 105.597125 
L 431.231852 104.597928 
L 435.949904 103.540811 
L 440.603212 102.422332 
L 445.185765 101.23877 
L 449.69089 99.9861 
" style="fill:none;stroke:#b0b0b0;stroke-linecap:square;stroke-width:0.8;"/>
     </g>
     <g id="text_19">
      <!-- 30° -->
      <g style="fill:#565656;" transform="translate(33.827149 97.71735)scale(0.12 -0.12)">
       <use xlink:href="#DejaVuSans-33"/>
       <use x="63.623047" xlink:href="#DejaVuSans-30"/>
       <use x="127.246094" xlink:href="#DejaVuSans-b0"/>
      </g>
     </g>
    </g>
    <g id="ytick_9">
     <g id="line2d_20">
      <path clip-path="url(#p4e948a513e)" d="M 98.567786 76.872983 
L 101.61131 78.326801 
L 104.783331 79.71396 
L 108.07459 81.036966 
L 111.476549 82.298244 
L 114.981321 83.500129 
L 118.581617 84.644866 
L 122.270698 85.734606 
L 126.042323 86.771404 
L 129.890708 87.757217 
L 133.810487 88.693909 
L 137.796678 89.583251 
L 141.844644 90.426918 
L 145.950068 91.226499 
L 150.108925 91.983492 
L 154.317453 92.699313 
L 158.572136 93.375292 
L 162.869677 94.012683 
L 167.206982 94.61266 
L 171.581142 95.176323 
L 175.989416 95.704703 
L 180.429217 96.198758 
L 184.898096 96.659381 
L 189.393731 97.087401 
L 193.913918 97.483583 
L 198.456552 97.848633 
L 203.019627 98.183198 
L 207.601219 98.487869 
L 212.19948 98.763182 
L 216.81263 99.009618 
L 221.438949 99.227609 
L 226.076769 99.417532 
L 230.724468 99.579719 
L 235.38046 99.71445 
L 240.043196 99.821957 
L 244.71115 99.902425 
L 249.382817 99.955994 
L 254.056705 99.982756 
L 258.731334 99.982756 
L 263.405222 99.955994 
L 268.076889 99.902425 
L 272.744843 99.821957 
L 277.407578 99.71445 
L 282.063571 99.579719 
L 286.71127 99.417532 
L 291.349089 99.227609 
L 295.975408 99.009618 
L 300.588559 98.763182 
L 305.18682 98.487869 
L 309.768412 98.183198 
L 314.331487 97.848633 
L 318.874121 97.483583 
L 323.394307 97.087401 
L 327.889943 96.659381 
L 332.358822 96.198758 
L 336.798623 95.704703 
L 341.206897 95.176323 
L 345.581057 94.61266 
L 349.918362 94.012683 
L 354.215903 93.375292 
L 358.470586 92.699313 
L 362.679114 91.983492 
L 366.837971 91.226499 
L 370.943395 90.426918 
L 374.991361 89.583251 
L 378.977551 88.693909 
L 382.897331 87.757217 
L 386.745716 86.771404 
L 390.517341 85.734606 
L 394.206421 84.644866 
L 397.806718 83.500129 
L 401.31149 82.298244 
L 404.713448 81.036966 
L 408.004708 79.71396 
L 411.176728 78.326801 
L 414.220253 76.872983 
" style="fill:none;stroke:#b0b0b0;stroke-linecap:square;stroke-width:0.8;"/>
     </g>
     <g id="text_20">
      <!-- 45° -->
      <g style="fill:#565656;" transform="translate(69.297786 72.292922)scale(0.12 -0.12)">
       <use xlink:href="#DejaVuSans-34"/>
       <use x="63.623047" xlink:href="#DejaVuSans-35"/>
       <use x="127.246094" xlink:href="#DejaVuSans-b0"/>
      </g>
     </g>
    </g>
    <g id="ytick_10">
     <g id="line2d_21">
      <path clip-path="url(#p4e948a513e)" d="M 144.794019 59.137665 
L 146.354157 60.405119 
L 148.05351 61.630249 
L 149.884726 62.813227 
L 151.840769 63.95432 
L 153.914913 65.053874 
L 156.100733 66.112299 
L 158.392095 67.13006 
L 160.783148 68.107664 
L 163.268309 69.04565 
L 165.842254 69.944582 
L 168.499907 70.805041 
L 171.236424 71.627617 
L 174.047185 72.412906 
L 176.927779 73.161502 
L 179.873994 73.873993 
L 182.881804 74.550962 
L 185.947361 75.192977 
L 189.06698 75.800591 
L 192.23713 76.374342 
L 195.454425 76.914746 
L 198.715611 77.422299 
L 202.017562 77.897475 
L 205.357264 78.340724 
L 208.731812 78.752471 
L 212.138398 79.133115 
L 215.574304 79.483028 
L 219.036894 79.802556 
L 222.523608 80.092017 
L 226.031951 80.351701 
L 229.559489 80.581869 
L 233.103841 80.782755 
L 236.662673 80.954562 
L 240.233692 81.097466 
L 243.814635 81.211614 
L 247.403269 81.297122 
L 250.997382 81.354079 
L 254.594776 81.382543 
L 258.193263 81.382543 
L 261.790657 81.354079 
L 265.38477 81.297122 
L 268.973404 81.211614 
L 272.554347 81.097466 
L 276.125365 80.954562 
L 279.684198 80.782755 
L 283.22855 80.581869 
L 286.756088 80.351701 
L 290.264431 80.092017 
L 293.751145 79.802556 
L 297.213735 79.483028 
L 300.649641 79.133115 
L 304.056227 78.752471 
L 307.430775 78.340724 
L 310.770477 77.897475 
L 314.072428 77.422299 
L 317.333614 76.914746 
L 320.550909 76.374342 
L 323.721059 75.800591 
L 326.840678 75.192977 
L 329.906235 74.550962 
L 332.914045 73.873993 
L 335.86026 73.161502 
L 338.740854 72.412906 
L 341.551614 71.627617 
L 344.288132 70.805041 
L 346.945784 69.944582 
L 349.51973 69.04565 
L 352.004891 68.107664 
L 354.395944 67.13006 
L 356.687306 66.112299 
L 358.873126 65.053874 
L 360.94727 63.95432 
L 362.903313 62.813227 
L 364.734529 61.630249 
L 366.433882 60.405119 
L 367.994019 59.137665 
" style="fill:none;stroke:#b0b0b0;stroke-linecap:square;stroke-width:0.8;"/>
     </g>
     <g id="text_21">
      <!-- 60° -->
      <g style="fill:#565656;" transform="translate(115.524019 52.784071)scale(0.12 -0.12)">
       <use xlink:href="#DejaVuSans-36"/>
       <use x="63.623047" xlink:href="#DejaVuSans-30"/>
       <use x="127.246094" xlink:href="#DejaVuSans-b0"/>
      </g>
     </g>
    </g>
    <g id="ytick_11">
     <g id="line2d_22">
      <path clip-path="url(#p4e948a513e)" d="M 198.625609 47.988778 
L 199.071164 48.726287 
L 199.608645 49.450213 
L 200.235355 50.159711 
L 200.948561 50.854002 
L 201.745496 51.532374 
L 202.623373 52.194176 
L 203.579389 52.838817 
L 204.610741 53.465758 
L 205.714623 54.074513 
L 206.888237 54.664643 
L 208.128798 55.235753 
L 209.433538 55.787489 
L 210.799708 56.319537 
L 212.224582 56.831616 
L 213.70546 57.323477 
L 215.23967 57.794901 
L 216.824566 58.245695 
L 218.457536 58.675692 
L 220.135996 59.084745 
L 221.857391 59.472727 
L 223.6192 59.839531 
L 225.418931 60.185063 
L 227.254119 60.509244 
L 229.122331 60.812008 
L 231.02116 61.093299 
L 232.948225 61.353072 
L 234.901171 61.591288 
L 236.877666 61.807916 
L 238.875399 62.002932 
L 240.892079 62.176317 
L 242.925435 62.328054 
L 244.973209 62.458132 
L 247.033159 62.566542 
L 249.103055 62.653276 
L 251.180676 62.718331 
L 253.26381 62.761703 
L 255.350249 62.783389 
L 257.43779 62.783389 
L 259.524229 62.761703 
L 261.607363 62.718331 
L 263.684984 62.653276 
L 265.75488 62.566542 
L 267.81483 62.458132 
L 269.862604 62.328054 
L 271.895959 62.176317 
L 273.91264 62.002932 
L 275.910373 61.807916 
L 277.886868 61.591288 
L 279.839814 61.353072 
L 281.766879 61.093299 
L 283.665708 60.812008 
L 285.53392 60.509244 
L 287.369108 60.185063 
L 289.168838 59.839531 
L 290.930648 59.472727 
L 292.652043 59.084745 
L 294.330502 58.675692 
L 295.963472 58.245695 
L 297.548369 57.794901 
L 299.082578 57.323477 
L 300.563456 56.831616 
L 301.988331 56.319537 
L 303.3545 55.787489 
L 304.65924 55.235753 
L 305.899802 54.664643 
L 307.073416 54.074513 
L 308.177298 53.465758 
L 309.208649 52.838817 
L 310.164666 52.194176 
L 311.042542 51.532374 
L 311.839477 50.854002 
L 312.552684 50.159711 
L 313.179394 49.450213 
L 313.716874 48.726287 
L 314.16243 47.988778 
" style="fill:none;stroke:#b0b0b0;stroke-linecap:square;stroke-width:0.8;"/>
     </g>
     <g id="text_22">
      <!-- 75° -->
      <g style="fill:#565656;" transform="translate(169.355609 40.520296)scale(0.12 -0.12)">
       <use xlink:href="#DejaVuSans-37"/>
       <use x="63.623047" xlink:href="#DejaVuSans-35"/>
       <use x="127.246094" xlink:href="#DejaVuSans-b0"/>
      </g>
     </g>
    </g>
   </g>
   <g id="line2d_23">
    <defs>
     <path d="M 0 1 
C 0.265203 1 0.51958 0.894634 0.707107 0.707107 
C 0.894634 0.51958 1 0.265203 1 0 
C 1 -0.265203 0.894634 -0.51958 0.707107 -0.707107 
C 0.51958 -0.894634 0.265203 -1 0 -1 
C -0.265203 -1 -0.51958 -0.894634 -0.707107 -0.707107 
C -0.894634 -0.51958 -1 -0.265203 -1 0 
C -1 0.265203 -0.894634 0.51958 -0.707107 0.707107 
C -0.51958 0.894634 -0.265203 1 0 1 
z
" id="mdd19298e71" style="stroke:#e24a33;"/>
    </defs>
    <g clip-path="url(#p4e948a513e)">
     <use style="fill:#e24a33;opacity:0.3;stroke:#e24a33;" x="209.894202" xlink:href="#mdd19298e71" y="86.152552"/>
     <use style="fill:#e24a33;opacity:0.3;stroke:#e24a33;" x="143.955366" xlink:href="#mdd19298e71" y="163.164033"/>
     <use style="fill:#e24a33;opacity:0.3;stroke:#e24a33;" x="244.913008" xlink:href="#mdd19298e71" y="44.794423"/>
     <use style="fill:#e24a33;opacity:0.3;stroke:#e24a33;" x="79.946081" xlink:href="#mdd19298e71" y="185.924846"/>
     <use style="fill:#e24a33;opacity:0.3;stroke:#e24a33;" x="246.371044" xlink:href="#mdd19298e71" y="85.061154"/>
     <use style="fill:#e24a33;opacity:0.3;stroke:#e24a33;" x="145.130692" xlink:href="#mdd19298e71" y="75.55354"/>
     <use style="fill:#e24a33;opacity:0.3;stroke:#e24a33;" x="322.123992" xlink:href="#mdd19298e71" y="239.914987"/>
     <use style="fill:#e24a33;opacity:0.3;stroke:#e24a33;" x="388.617413" xlink:href="#mdd19298e71" y="153.662585"/>
     <use style="fill:#e24a33;opacity:0.3;stroke:#e24a33;" x="320.301146" xlink:href="#mdd19298e71" y="110.280154"/>
     <use style="fill:#e24a33;opacity:0.3;stroke:#e24a33;" x="260.140848" xlink:href="#mdd19298e71" y="75.781481"/>
     <use style="fill:#e24a33;opacity:0.3;stroke:#e24a33;" x="420.83665" xlink:href="#mdd19298e71" y="207.31613"/>
     <use style="fill:#e24a33;opacity:0.3;stroke:#e24a33;" x="375.814885" xlink:href="#mdd19298e71" y="231.968992"/>
     <use style="fill:#e24a33;opacity:0.3;stroke:#e24a33;" x="365.409723" xlink:href="#mdd19298e71" y="102.327869"/>
     <use style="fill:#e24a33;opacity:0.3;stroke:#e24a33;" x="260.560876" xlink:href="#mdd19298e71" y="86.689494"/>
     <use style="fill:#e24a33;opacity:0.3;stroke:#e24a33;" x="338.016549" xlink:href="#mdd19298e71" y="191.710984"/>
     <use style="fill:#e24a33;opacity:0.3;stroke:#e24a33;" x="209.430511" xlink:href="#mdd19298e71" y="251.443941"/>
     <use style="fill:#e24a33;opacity:0.3;stroke:#e24a33;" x="233.129575" xlink:href="#mdd19298e71" y="55.328182"/>
     <use style="fill:#e24a33;opacity:0.3;stroke:#e24a33;" x="88.140974" xlink:href="#mdd19298e71" y="185.460691"/>
     <use style="fill:#e24a33;opacity:0.3;stroke:#e24a33;" x="223.52909" xlink:href="#mdd19298e71" y="151.788406"/>
     <use style="fill:#e24a33;opacity:0.3;stroke:#e24a33;" x="171.232086" xlink:href="#mdd19298e71" y="70.171015"/>
     <use style="fill:#e24a33;opacity:0.3;stroke:#e24a33;" x="222.402326" xlink:href="#mdd19298e71" y="116.142123"/>
     <use style="fill:#e24a33;opacity:0.3;stroke:#e24a33;" x="202.429152" xlink:href="#mdd19298e71" y="101.618702"/>
     <use style="fill:#e24a33;opacity:0.3;stroke:#e24a33;" x="383.272678" xlink:href="#mdd19298e71" y="239.114524"/>
     <use style="fill:#e24a33;opacity:0.3;stroke:#e24a33;" x="298.741196" xlink:href="#mdd19298e71" y="146.395565"/>
     <use style="fill:#e24a33;opacity:0.3;stroke:#e24a33;" x="396.35056" xlink:href="#mdd19298e71" y="101.975584"/>
     <use style="fill:#e24a33;opacity:0.3;stroke:#e24a33;" x="151.087048" xlink:href="#mdd19298e71" y="225.662851"/>
     <use style="fill:#e24a33;opacity:0.3;stroke:#e24a33;" x="169.222028" xlink:href="#mdd19298e71" y="237.830765"/>
     <use style="fill:#e24a33;opacity:0.3;stroke:#e24a33;" x="244.526855" xlink:href="#mdd19298e71" y="45.470985"/>
     <use style="fill:#e24a33;opacity:0.3;stroke:#e24a33;" x="378.905759" xlink:href="#mdd19298e71" y="151.568957"/>
     <use style="fill:#e24a33;opacity:0.3;stroke:#e24a33;" x="109.143809" xlink:href="#mdd19298e71" y="225.857616"/>
     <use style="fill:#e24a33;opacity:0.3;stroke:#e24a33;" x="258.838617" xlink:href="#mdd19298e71" y="44.49346"/>
     <use style="fill:#e24a33;opacity:0.3;stroke:#e24a33;" x="254.382375" xlink:href="#mdd19298e71" y="51.87879"/>
     <use style="fill:#e24a33;opacity:0.3;stroke:#e24a33;" x="189.728075" xlink:href="#mdd19298e71" y="142.278004"/>
     <use style="fill:#e24a33;opacity:0.3;stroke:#e24a33;" x="202.393397" xlink:href="#mdd19298e71" y="64.681835"/>
     <use style="fill:#e24a33;opacity:0.3;stroke:#e24a33;" x="323.82851" xlink:href="#mdd19298e71" y="229.900805"/>
     <use style="fill:#e24a33;opacity:0.3;stroke:#e24a33;" x="350.158471" xlink:href="#mdd19298e71" y="210.008802"/>
     <use style="fill:#e24a33;opacity:0.3;stroke:#e24a33;" x="271.989698" xlink:href="#mdd19298e71" y="110.95927"/>
     <use style="fill:#e24a33;opacity:0.3;stroke:#e24a33;" x="186.935073" xlink:href="#mdd19298e71" y="71.57962"/>
     <use style="fill:#e24a33;opacity:0.3;stroke:#e24a33;" x="283.033193" xlink:href="#mdd19298e71" y="75.294416"/>
     <use style="fill:#e24a33;opacity:0.3;stroke:#e24a33;" x="444.617678" xlink:href="#mdd19298e71" y="185.434749"/>
     <use style="fill:#e24a33;opacity:0.3;stroke:#e24a33;" x="295.380511" xlink:href="#mdd19298e71" y="66.319768"/>
     <use style="fill:#e24a33;opacity:0.3;stroke:#e24a33;" x="230.626655" xlink:href="#mdd19298e71" y="76.60291"/>
     <use style="fill:#e24a33;opacity:0.3;stroke:#e24a33;" x="300.649543" xlink:href="#mdd19298e71" y="47.527384"/>
     <use style="fill:#e24a33;opacity:0.3;stroke:#e24a33;" x="129.555235" xlink:href="#mdd19298e71" y="74.858201"/>
     <use style="fill:#e24a33;opacity:0.3;stroke:#e24a33;" x="135.148998" xlink:href="#mdd19298e71" y="112.232813"/>
     <use style="fill:#e24a33;opacity:0.3;stroke:#e24a33;" x="317.219153" xlink:href="#mdd19298e71" y="137.199179"/>
     <use style="fill:#e24a33;opacity:0.3;stroke:#e24a33;" x="91.758695" xlink:href="#mdd19298e71" y="192.676518"/>
     <use style="fill:#e24a33;opacity:0.3;stroke:#e24a33;" x="215.593077" xlink:href="#mdd19298e71" y="47.753854"/>
     <use style="fill:#e24a33;opacity:0.3;stroke:#e24a33;" x="266.937918" xlink:href="#mdd19298e71" y="49.036429"/>
     <use style="fill:#e24a33;opacity:0.3;stroke:#e24a33;" x="234.943467" xlink:href="#mdd19298e71" y="204.240612"/>
     <use style="fill:#e24a33;opacity:0.3;stroke:#e24a33;" x="105.60345" xlink:href="#mdd19298e71" y="211.302497"/>
     <use style="fill:#e24a33;opacity:0.3;stroke:#e24a33;" x="120.251862" xlink:href="#mdd19298e71" y="159.547218"/>
     <use style="fill:#e24a33;opacity:0.3;stroke:#e24a33;" x="203.511556" xlink:href="#mdd19298e71" y="167.57092"/>
     <use style="fill:#e24a33;opacity:0.3;stroke:#e24a33;" x="252.815671" xlink:href="#mdd19298e71" y="44.671579"/>
     <use style="fill:#e24a33;opacity:0.3;stroke:#e24a33;" x="335.122937" xlink:href="#mdd19298e71" y="235.473368"/>
     <use style="fill:#e24a33;opacity:0.3;stroke:#e24a33;" x="260.380764" xlink:href="#mdd19298e71" y="263.55301"/>
     <use style="fill:#e24a33;opacity:0.3;stroke:#e24a33;" x="460.156438" xlink:href="#mdd19298e71" y="157.75914"/>
     <use style="fill:#e24a33;opacity:0.3;stroke:#e24a33;" x="316.721228" xlink:href="#mdd19298e71" y="231.414203"/>
     <use style="fill:#e24a33;opacity:0.3;stroke:#e24a33;" x="428.190285" xlink:href="#mdd19298e71" y="195.451024"/>
     <use style="fill:#e24a33;opacity:0.3;stroke:#e24a33;" x="215.096166" xlink:href="#mdd19298e71" y="100.263606"/>
     <use style="fill:#e24a33;opacity:0.3;stroke:#e24a33;" x="373.872866" xlink:href="#mdd19298e71" y="98.378328"/>
     <use style="fill:#e24a33;opacity:0.3;stroke:#e24a33;" x="304.000875" xlink:href="#mdd19298e71" y="199.583511"/>
     <use style="fill:#e24a33;opacity:0.3;stroke:#e24a33;" x="414.306121" xlink:href="#mdd19298e71" y="143.988901"/>
     <use style="fill:#e24a33;opacity:0.3;stroke:#e24a33;" x="214.812989" xlink:href="#mdd19298e71" y="153.790428"/>
     <use style="fill:#e24a33;opacity:0.3;stroke:#e24a33;" x="369.581164" xlink:href="#mdd19298e71" y="121.541"/>
     <use style="fill:#e24a33;opacity:0.3;stroke:#e24a33;" x="137.960527" xlink:href="#mdd19298e71" y="221.811652"/>
     <use style="fill:#e24a33;opacity:0.3;stroke:#e24a33;" x="256.62011" xlink:href="#mdd19298e71" y="135.726918"/>
     <use style="fill:#e24a33;opacity:0.3;stroke:#e24a33;" x="269.381655" xlink:href="#mdd19298e71" y="46.482452"/>
     <use style="fill:#e24a33;opacity:0.3;stroke:#e24a33;" x="392.358643" xlink:href="#mdd19298e71" y="159.250653"/>
     <use style="fill:#e24a33;opacity:0.3;stroke:#e24a33;" x="284.167065" xlink:href="#mdd19298e71" y="63.373988"/>
     <use style="fill:#e24a33;opacity:0.3;stroke:#e24a33;" x="52.546342" xlink:href="#mdd19298e71" y="177.218626"/>
     <use style="fill:#e24a33;opacity:0.3;stroke:#e24a33;" x="449.869233" xlink:href="#mdd19298e71" y="205.102356"/>
     <use style="fill:#e24a33;opacity:0.3;stroke:#e24a33;" x="130.034219" xlink:href="#mdd19298e71" y="118.135807"/>
     <use style="fill:#e24a33;opacity:0.3;stroke:#e24a33;" x="364.03379" xlink:href="#mdd19298e71" y="113.611707"/>
     <use style="fill:#e24a33;opacity:0.3;stroke:#e24a33;" x="310.614524" xlink:href="#mdd19298e71" y="69.861476"/>
     <use style="fill:#e24a33;opacity:0.3;stroke:#e24a33;" x="312.025955" xlink:href="#mdd19298e71" y="218.262747"/>
     <use style="fill:#e24a33;opacity:0.3;stroke:#e24a33;" x="354.050144" xlink:href="#mdd19298e71" y="155.981133"/>
     <use style="fill:#e24a33;opacity:0.3;stroke:#e24a33;" x="63.670437" xlink:href="#mdd19298e71" y="133.234082"/>
     <use style="fill:#e24a33;opacity:0.3;stroke:#e24a33;" x="382.578753" xlink:href="#mdd19298e71" y="81.51001"/>
     <use style="fill:#e24a33;opacity:0.3;stroke:#e24a33;" x="262.089015" xlink:href="#mdd19298e71" y="257.816786"/>
     <use style="fill:#e24a33;opacity:0.3;stroke:#e24a33;" x="259.108292" xlink:href="#mdd19298e71" y="45.043822"/>
     <use style="fill:#e24a33;opacity:0.3;stroke:#e24a33;" x="366.243122" xlink:href="#mdd19298e71" y="163.215484"/>
     <use style="fill:#e24a33;opacity:0.3;stroke:#e24a33;" x="145.857572" xlink:href="#mdd19298e71" y="211.990223"/>
     <use style="fill:#e24a33;opacity:0.3;stroke:#e24a33;" x="201.175071" xlink:href="#mdd19298e71" y="64.112381"/>
     <use style="fill:#e24a33;opacity:0.3;stroke:#e24a33;" x="308.24178" xlink:href="#mdd19298e71" y="98.823581"/>
     <use style="fill:#e24a33;opacity:0.3;stroke:#e24a33;" x="256.180813" xlink:href="#mdd19298e71" y="54.660254"/>
     <use style="fill:#e24a33;opacity:0.3;stroke:#e24a33;" x="362.957402" xlink:href="#mdd19298e71" y="197.946507"/>
     <use style="fill:#e24a33;opacity:0.3;stroke:#e24a33;" x="246.050796" xlink:href="#mdd19298e71" y="143.998437"/>
     <use style="fill:#e24a33;opacity:0.3;stroke:#e24a33;" x="435.814097" xlink:href="#mdd19298e71" y="134.217121"/>
     <use style="fill:#e24a33;opacity:0.3;stroke:#e24a33;" x="257.769249" xlink:href="#mdd19298e71" y="48.554622"/>
     <use style="fill:#e24a33;opacity:0.3;stroke:#e24a33;" x="299.680991" xlink:href="#mdd19298e71" y="257.295937"/>
     <use style="fill:#e24a33;opacity:0.3;stroke:#e24a33;" x="117.875298" xlink:href="#mdd19298e71" y="208.897201"/>
     <use style="fill:#e24a33;opacity:0.3;stroke:#e24a33;" x="166.79795" xlink:href="#mdd19298e71" y="233.488866"/>
     <use style="fill:#e24a33;opacity:0.3;stroke:#e24a33;" x="97.710331" xlink:href="#mdd19298e71" y="226.748697"/>
     <use style="fill:#e24a33;opacity:0.3;stroke:#e24a33;" x="456.089995" xlink:href="#mdd19298e71" y="160.469706"/>
     <use style="fill:#e24a33;opacity:0.3;stroke:#e24a33;" x="71.222042" xlink:href="#mdd19298e71" y="195.473786"/>
     <use style="fill:#e24a33;opacity:0.3;stroke:#e24a33;" x="83.074163" xlink:href="#mdd19298e71" y="186.858588"/>
     <use style="fill:#e24a33;opacity:0.3;stroke:#e24a33;" x="277.099195" xlink:href="#mdd19298e71" y="78.438641"/>
     <use style="fill:#e24a33;opacity:0.3;stroke:#e24a33;" x="298.735932" xlink:href="#mdd19298e71" y="52.510642"/>
     <use style="fill:#e24a33;opacity:0.3;stroke:#e24a33;" x="287.120309" xlink:href="#mdd19298e71" y="254.862746"/>
    </g>
   </g>
   <g id="patch_3">
    <path d="M 256.394019 267.3861 
C 315.587351 267.3861 372.364247 255.62722 414.220253 234.699217 
C 456.076259 213.771214 479.594019 185.382766 479.594019 155.7861 
C 479.594019 126.189434 456.076259 97.800986 414.220253 76.872983 
C 372.364247 55.94498 315.587351 44.1861 256.394019 44.1861 
C 197.200688 44.1861 140.423792 55.94498 98.567786 76.872983 
C 56.711779 97.800986 33.194019 126.189434 33.194019 155.7861 
C 33.194019 185.382766 56.711779 213.771214 98.567786 234.699217 
C 140.423792 255.62722 197.200688 267.3861 256.394019 267.3861 
z
" style="fill:none;stroke:#aaaaaa;stroke-linecap:square;stroke-linejoin:miter;"/>
   </g>
   <g id="text_23">
    <!-- Aitoff projection of our random data -->
    <defs>
     <path d="M 34.1875 63.1875 
L 20.796875 26.90625 
L 47.609375 26.90625 
z
M 28.609375 72.90625 
L 39.796875 72.90625 
L 67.578125 0 
L 57.328125 0 
L 50.6875 18.703125 
L 17.828125 18.703125 
L 11.1875 0 
L 0.78125 0 
z
" id="DejaVuSans-41"/>
     <path d="M 9.421875 54.6875 
L 18.40625 54.6875 
L 18.40625 0 
L 9.421875 0 
z
M 9.421875 75.984375 
L 18.40625 75.984375 
L 18.40625 64.59375 
L 9.421875 64.59375 
z
" id="DejaVuSans-69"/>
     <path d="M 18.3125 70.21875 
L 18.3125 54.6875 
L 36.8125 54.6875 
L 36.8125 47.703125 
L 18.3125 47.703125 
L 18.3125 18.015625 
Q 18.3125 11.328125 20.140625 9.421875 
Q 21.96875 7.515625 27.59375 7.515625 
L 36.8125 7.515625 
L 36.8125 0 
L 27.59375 0 
Q 17.1875 0 13.234375 3.875 
Q 9.28125 7.765625 9.28125 18.015625 
L 9.28125 47.703125 
L 2.6875 47.703125 
L 2.6875 54.6875 
L 9.28125 54.6875 
L 9.28125 70.21875 
z
" id="DejaVuSans-74"/>
     <path d="M 30.609375 48.390625 
Q 23.390625 48.390625 19.1875 42.75 
Q 14.984375 37.109375 14.984375 27.296875 
Q 14.984375 17.484375 19.15625 11.84375 
Q 23.34375 6.203125 30.609375 6.203125 
Q 37.796875 6.203125 41.984375 11.859375 
Q 46.1875 17.53125 46.1875 27.296875 
Q 46.1875 37.015625 41.984375 42.703125 
Q 37.796875 48.390625 30.609375 48.390625 
M 30.609375 56 
Q 42.328125 56 49.015625 48.375 
Q 55.71875 40.765625 55.71875 27.296875 
Q 55.71875 13.875 49.015625 6.21875 
Q 42.328125 -1.421875 30.609375 -1.421875 
Q 18.84375 -1.421875 12.171875 6.21875 
Q 5.515625 13.875 5.515625 27.296875 
Q 5.515625 40.765625 12.171875 48.375 
Q 18.84375 56 30.609375 56 
" id="DejaVuSans-6f"/>
     <path d="M 37.109375 75.984375 
L 37.109375 68.5 
L 28.515625 68.5 
Q 23.6875 68.5 21.796875 66.546875 
Q 19.921875 64.59375 19.921875 59.515625 
L 19.921875 54.6875 
L 34.71875 54.6875 
L 34.71875 47.703125 
L 19.921875 47.703125 
L 19.921875 0 
L 10.890625 0 
L 10.890625 47.703125 
L 2.296875 47.703125 
L 2.296875 54.6875 
L 10.890625 54.6875 
L 10.890625 58.5 
Q 10.890625 67.625 15.140625 71.796875 
Q 19.390625 75.984375 28.609375 75.984375 
z
" id="DejaVuSans-66"/>
     <path id="DejaVuSans-20"/>
     <path d="M 18.109375 8.203125 
L 18.109375 -20.796875 
L 9.078125 -20.796875 
L 9.078125 54.6875 
L 18.109375 54.6875 
L 18.109375 46.390625 
Q 20.953125 51.265625 25.265625 53.625 
Q 29.59375 56 35.59375 56 
Q 45.5625 56 51.78125 48.09375 
Q 58.015625 40.1875 58.015625 27.296875 
Q 58.015625 14.40625 51.78125 6.484375 
Q 45.5625 -1.421875 35.59375 -1.421875 
Q 29.59375 -1.421875 25.265625 0.953125 
Q 20.953125 3.328125 18.109375 8.203125 
M 48.6875 27.296875 
Q 48.6875 37.203125 44.609375 42.84375 
Q 40.53125 48.484375 33.40625 48.484375 
Q 26.265625 48.484375 22.1875 42.84375 
Q 18.109375 37.203125 18.109375 27.296875 
Q 18.109375 17.390625 22.1875 11.75 
Q 26.265625 6.109375 33.40625 6.109375 
Q 40.53125 6.109375 44.609375 11.75 
Q 48.6875 17.390625 48.6875 27.296875 
" id="DejaVuSans-70"/>
     <path d="M 41.109375 46.296875 
Q 39.59375 47.171875 37.8125 47.578125 
Q 36.03125 48 33.890625 48 
Q 26.265625 48 22.1875 43.046875 
Q 18.109375 38.09375 18.109375 28.8125 
L 18.109375 0 
L 9.078125 0 
L 9.078125 54.6875 
L 18.109375 54.6875 
L 18.109375 46.1875 
Q 20.953125 51.171875 25.484375 53.578125 
Q 30.03125 56 36.53125 56 
Q 37.453125 56 38.578125 55.875 
Q 39.703125 55.765625 41.0625 55.515625 
z
" id="DejaVuSans-72"/>
     <path d="M 9.421875 54.6875 
L 18.40625 54.6875 
L 18.40625 -0.984375 
Q 18.40625 -11.421875 14.421875 -16.109375 
Q 10.453125 -20.796875 1.609375 -20.796875 
L -1.8125 -20.796875 
L -1.8125 -13.1875 
L 0.59375 -13.1875 
Q 5.71875 -13.1875 7.5625 -10.8125 
Q 9.421875 -8.453125 9.421875 -0.984375 
z
M 9.421875 75.984375 
L 18.40625 75.984375 
L 18.40625 64.59375 
L 9.421875 64.59375 
z
" id="DejaVuSans-6a"/>
     <path d="M 56.203125 29.59375 
L 56.203125 25.203125 
L 14.890625 25.203125 
Q 15.484375 15.921875 20.484375 11.0625 
Q 25.484375 6.203125 34.421875 6.203125 
Q 39.59375 6.203125 44.453125 7.46875 
Q 49.3125 8.734375 54.109375 11.28125 
L 54.109375 2.78125 
Q 49.265625 0.734375 44.1875 -0.34375 
Q 39.109375 -1.421875 33.890625 -1.421875 
Q 20.796875 -1.421875 13.15625 6.1875 
Q 5.515625 13.8125 5.515625 26.8125 
Q 5.515625 40.234375 12.765625 48.109375 
Q 20.015625 56 32.328125 56 
Q 43.359375 56 49.78125 48.890625 
Q 56.203125 41.796875 56.203125 29.59375 
M 47.21875 32.234375 
Q 47.125 39.59375 43.09375 43.984375 
Q 39.0625 48.390625 32.421875 48.390625 
Q 24.90625 48.390625 20.390625 44.140625 
Q 15.875 39.890625 15.1875 32.171875 
z
" id="DejaVuSans-65"/>
     <path d="M 48.78125 52.59375 
L 48.78125 44.1875 
Q 44.96875 46.296875 41.140625 47.34375 
Q 37.3125 48.390625 33.40625 48.390625 
Q 24.65625 48.390625 19.8125 42.84375 
Q 14.984375 37.3125 14.984375 27.296875 
Q 14.984375 17.28125 19.8125 11.734375 
Q 24.65625 6.203125 33.40625 6.203125 
Q 37.3125 6.203125 41.140625 7.25 
Q 44.96875 8.296875 48.78125 10.40625 
L 48.78125 2.09375 
Q 45.015625 0.34375 40.984375 -0.53125 
Q 36.96875 -1.421875 32.421875 -1.421875 
Q 20.0625 -1.421875 12.78125 6.34375 
Q 5.515625 14.109375 5.515625 27.296875 
Q 5.515625 40.671875 12.859375 48.328125 
Q 20.21875 56 33.015625 56 
Q 37.15625 56 41.109375 55.140625 
Q 45.0625 54.296875 48.78125 52.59375 
" id="DejaVuSans-63"/>
     <path d="M 54.890625 33.015625 
L 54.890625 0 
L 45.90625 0 
L 45.90625 32.71875 
Q 45.90625 40.484375 42.875 44.328125 
Q 39.84375 48.1875 33.796875 48.1875 
Q 26.515625 48.1875 22.3125 43.546875 
Q 18.109375 38.921875 18.109375 30.90625 
L 18.109375 0 
L 9.078125 0 
L 9.078125 54.6875 
L 18.109375 54.6875 
L 18.109375 46.1875 
Q 21.34375 51.125 25.703125 53.5625 
Q 30.078125 56 35.796875 56 
Q 45.21875 56 50.046875 50.171875 
Q 54.890625 44.34375 54.890625 33.015625 
" id="DejaVuSans-6e"/>
     <path d="M 8.5 21.578125 
L 8.5 54.6875 
L 17.484375 54.6875 
L 17.484375 21.921875 
Q 17.484375 14.15625 20.5 10.265625 
Q 23.53125 6.390625 29.59375 6.390625 
Q 36.859375 6.390625 41.078125 11.03125 
Q 45.3125 15.671875 45.3125 23.6875 
L 45.3125 54.6875 
L 54.296875 54.6875 
L 54.296875 0 
L 45.3125 0 
L 45.3125 8.40625 
Q 42.046875 3.421875 37.71875 1 
Q 33.40625 -1.421875 27.6875 -1.421875 
Q 18.265625 -1.421875 13.375 4.4375 
Q 8.5 10.296875 8.5 21.578125 
M 31.109375 56 
z
" id="DejaVuSans-75"/>
     <path d="M 34.28125 27.484375 
Q 23.390625 27.484375 19.1875 25 
Q 14.984375 22.515625 14.984375 16.5 
Q 14.984375 11.71875 18.140625 8.90625 
Q 21.296875 6.109375 26.703125 6.109375 
Q 34.1875 6.109375 38.703125 11.40625 
Q 43.21875 16.703125 43.21875 25.484375 
L 43.21875 27.484375 
z
M 52.203125 31.203125 
L 52.203125 0 
L 43.21875 0 
L 43.21875 8.296875 
Q 40.140625 3.328125 35.546875 0.953125 
Q 30.953125 -1.421875 24.3125 -1.421875 
Q 15.921875 -1.421875 10.953125 3.296875 
Q 6 8.015625 6 15.921875 
Q 6 25.140625 12.171875 29.828125 
Q 18.359375 34.515625 30.609375 34.515625 
L 43.21875 34.515625 
L 43.21875 35.40625 
Q 43.21875 41.609375 39.140625 45 
Q 35.0625 48.390625 27.6875 48.390625 
Q 23 48.390625 18.546875 47.265625 
Q 14.109375 46.140625 10.015625 43.890625 
L 10.015625 52.203125 
Q 14.9375 54.109375 19.578125 55.046875 
Q 24.21875 56 28.609375 56 
Q 40.484375 56 46.34375 49.84375 
Q 52.203125 43.703125 52.203125 31.203125 
" id="DejaVuSans-61"/>
     <path d="M 45.40625 46.390625 
L 45.40625 75.984375 
L 54.390625 75.984375 
L 54.390625 0 
L 45.40625 0 
L 45.40625 8.203125 
Q 42.578125 3.328125 38.25 0.953125 
Q 33.9375 -1.421875 27.875 -1.421875 
Q 17.96875 -1.421875 11.734375 6.484375 
Q 5.515625 14.40625 5.515625 27.296875 
Q 5.515625 40.1875 11.734375 48.09375 
Q 17.96875 56 27.875 56 
Q 33.9375 56 38.25 53.625 
Q 42.578125 51.265625 45.40625 46.390625 
M 14.796875 27.296875 
Q 14.796875 17.390625 18.875 11.75 
Q 22.953125 6.109375 30.078125 6.109375 
Q 37.203125 6.109375 41.296875 11.75 
Q 45.40625 17.390625 45.40625 27.296875 
Q 45.40625 37.203125 41.296875 42.84375 
Q 37.203125 48.484375 30.078125 48.484375 
Q 22.953125 48.484375 18.875 42.84375 
Q 14.796875 37.203125 14.796875 27.296875 
" id="DejaVuSans-64"/>
     <path d="M 52 44.1875 
Q 55.375 50.25 60.0625 53.125 
Q 64.75 56 71.09375 56 
Q 79.640625 56 84.28125 50.015625 
Q 88.921875 44.046875 88.921875 33.015625 
L 88.921875 0 
L 79.890625 0 
L 79.890625 32.71875 
Q 79.890625 40.578125 77.09375 44.375 
Q 74.3125 48.1875 68.609375 48.1875 
Q 61.625 48.1875 57.5625 43.546875 
Q 53.515625 38.921875 53.515625 30.90625 
L 53.515625 0 
L 44.484375 0 
L 44.484375 32.71875 
Q 44.484375 40.625 41.703125 44.40625 
Q 38.921875 48.1875 33.109375 48.1875 
Q 26.21875 48.1875 22.15625 43.53125 
Q 18.109375 38.875 18.109375 30.90625 
L 18.109375 0 
L 9.078125 0 
L 9.078125 54.6875 
L 18.109375 54.6875 
L 18.109375 46.1875 
Q 21.1875 51.21875 25.484375 53.609375 
Q 29.78125 56 35.6875 56 
Q 41.65625 56 45.828125 52.96875 
Q 50 49.953125 52 44.1875 
" id="DejaVuSans-6d"/>
    </defs>
    <g transform="translate(100.645869 20.3301)scale(0.1728 -0.1728)">
     <use xlink:href="#DejaVuSans-41"/>
     <use x="68.408203" xlink:href="#DejaVuSans-69"/>
     <use x="96.191406" xlink:href="#DejaVuSans-74"/>
     <use x="135.400391" xlink:href="#DejaVuSans-6f"/>
     <use x="196.582031" xlink:href="#DejaVuSans-66"/>
     <use x="231.787109" xlink:href="#DejaVuSans-66"/>
     <use x="266.992188" xlink:href="#DejaVuSans-20"/>
     <use x="298.779297" xlink:href="#DejaVuSans-70"/>
     <use x="362.255859" xlink:href="#DejaVuSans-72"/>
     <use x="403.337891" xlink:href="#DejaVuSans-6f"/>
     <use x="464.519531" xlink:href="#DejaVuSans-6a"/>
     <use x="492.302734" xlink:href="#DejaVuSans-65"/>
     <use x="553.826172" xlink:href="#DejaVuSans-63"/>
     <use x="608.806641" xlink:href="#DejaVuSans-74"/>
     <use x="648.015625" xlink:href="#DejaVuSans-69"/>
     <use x="675.798828" xlink:href="#DejaVuSans-6f"/>
     <use x="736.980469" xlink:href="#DejaVuSans-6e"/>
     <use x="800.359375" xlink:href="#DejaVuSans-20"/>
     <use x="832.146484" xlink:href="#DejaVuSans-6f"/>
     <use x="893.328125" xlink:href="#DejaVuSans-66"/>
     <use x="928.533203" xlink:href="#DejaVuSans-20"/>
     <use x="960.320312" xlink:href="#DejaVuSans-6f"/>
     <use x="1021.501953" xlink:href="#DejaVuSans-75"/>
     <use x="1084.880859" xlink:href="#DejaVuSans-72"/>
     <use x="1125.994141" xlink:href="#DejaVuSans-20"/>
     <use x="1157.78125" xlink:href="#DejaVuSans-72"/>
     <use x="1198.894531" xlink:href="#DejaVuSans-61"/>
     <use x="1260.173828" xlink:href="#DejaVuSans-6e"/>
     <use x="1323.552734" xlink:href="#DejaVuSans-64"/>
     <use x="1387.029297" xlink:href="#DejaVuSans-6f"/>
     <use x="1448.210938" xlink:href="#DejaVuSans-6d"/>
     <use x="1545.623047" xlink:href="#DejaVuSans-20"/>
     <use x="1577.410156" xlink:href="#DejaVuSans-64"/>
     <use x="1640.886719" xlink:href="#DejaVuSans-61"/>
     <use x="1702.166016" xlink:href="#DejaVuSans-74"/>
     <use x="1741.375" xlink:href="#DejaVuSans-61"/>
    </g>
   </g>
  </g>
 </g>
 <defs>
  <clipPath id="p4e948a513e">
   <path d="M 256.394019 267.3861 
C 315.587351 267.3861 372.364247 255.62722 414.220253 234.699217 
C 456.076259 213.771214 479.594019 185.382766 479.594019 155.7861 
C 479.594019 126.189434 456.076259 97.800986 414.220253 76.872983 
C 372.364247 55.94498 315.587351 44.1861 256.394019 44.1861 
C 197.200688 44.1861 140.423792 55.94498 98.567786 76.872983 
C 56.711779 97.800986 33.194019 126.189434 33.194019 155.7861 
C 33.194019 185.382766 56.711779 213.771214 98.567786 234.699217 
C 140.423792 255.62722 197.200688 267.3861 256.394019 267.3861 
z
"/>
  </clipPath>
 </defs>
</svg>
