<?xml version="1.0" encoding="utf-8" standalone="no"?>
<!DOCTYPE svg PUBLIC "-//W3C//DTD SVG 1.1//EN"
  "http://www.w3.org/Graphics/SVG/1.1/DTD/svg11.dtd">
<!-- Created with matplotlib (http://matplotlib.org/) -->
<svg height="327pt" version="1.1" viewBox="0 0 503 327" width="503pt" xmlns="http://www.w3.org/2000/svg" xmlns:xlink="http://www.w3.org/1999/xlink">
 <defs>
  <style type="text/css">
*{stroke-linecap:butt;stroke-linejoin:round;}
  </style>
 </defs>
 <g id="figure_1">
  <g id="patch_1">
   <path d="M 0 327.15025 
L 503.82025 327.15025 
L 503.82025 0 
L 0 0 
z
" style="fill:none;"/>
  </g>
  <g id="axes_1">
   <g id="patch_2">
    <path d="M 50.22025 284.4 
L 496.62025 284.4 
L 496.62025 7.2 
L 50.22025 7.2 
z
" style="fill:#ffffff;"/>
   </g>
   <g id="matplotlib.axis_1">
    <g id="xtick_1">
     <g id="line2d_1"/>
     <g id="text_1">
      <!-- 1000 -->
      <defs>
       <path d="M 12.40625 8.296875 
L 28.515625 8.296875 
L 28.515625 63.921875 
L 10.984375 60.40625 
L 10.984375 69.390625 
L 28.421875 72.90625 
L 38.28125 72.90625 
L 38.28125 8.296875 
L 54.390625 8.296875 
L 54.390625 0 
L 12.40625 0 
z
" id="DejaVuSans-31"/>
       <path d="M 31.78125 66.40625 
Q 24.171875 66.40625 20.328125 58.90625 
Q 16.5 51.421875 16.5 36.375 
Q 16.5 21.390625 20.328125 13.890625 
Q 24.171875 6.390625 31.78125 6.390625 
Q 39.453125 6.390625 43.28125 13.890625 
Q 47.125 21.390625 47.125 36.375 
Q 47.125 51.421875 43.28125 58.90625 
Q 39.453125 66.40625 31.78125 66.40625 
M 31.78125 74.21875 
Q 44.046875 74.21875 50.515625 64.515625 
Q 56.984375 54.828125 56.984375 36.375 
Q 56.984375 17.96875 50.515625 8.265625 
Q 44.046875 -1.421875 31.78125 -1.421875 
Q 19.53125 -1.421875 13.0625 8.265625 
Q 6.59375 17.96875 6.59375 36.375 
Q 6.59375 54.828125 13.0625 64.515625 
Q 19.53125 74.21875 31.78125 74.21875 
" id="DejaVuSans-30"/>
      </defs>
      <g style="fill:#565656;" transform="translate(55.241159 299.518125)scale(0.12 -0.12)">
       <use xlink:href="#DejaVuSans-31"/>
       <use x="63.623047" xlink:href="#DejaVuSans-30"/>
       <use x="127.246094" xlink:href="#DejaVuSans-30"/>
       <use x="190.869141" xlink:href="#DejaVuSans-30"/>
      </g>
     </g>
    </g>
    <g id="xtick_2">
     <g id="line2d_2"/>
     <g id="text_2">
      <!-- 1500 -->
      <defs>
       <path d="M 10.796875 72.90625 
L 49.515625 72.90625 
L 49.515625 64.59375 
L 19.828125 64.59375 
L 19.828125 46.734375 
Q 21.96875 47.46875 24.109375 47.828125 
Q 26.265625 48.1875 28.421875 48.1875 
Q 40.625 48.1875 47.75 41.5 
Q 54.890625 34.8125 54.890625 23.390625 
Q 54.890625 11.625 47.5625 5.09375 
Q 40.234375 -1.421875 26.90625 -1.421875 
Q 22.3125 -1.421875 17.546875 -0.640625 
Q 12.796875 0.140625 7.71875 1.703125 
L 7.71875 11.625 
Q 12.109375 9.234375 16.796875 8.0625 
Q 21.484375 6.890625 26.703125 6.890625 
Q 35.15625 6.890625 40.078125 11.328125 
Q 45.015625 15.765625 45.015625 23.390625 
Q 45.015625 31 40.078125 35.4375 
Q 35.15625 39.890625 26.703125 39.890625 
Q 22.75 39.890625 18.8125 39.015625 
Q 14.890625 38.140625 10.796875 36.28125 
z
" id="DejaVuSans-35"/>
      </defs>
      <g style="fill:#565656;" transform="translate(105.968432 299.518125)scale(0.12 -0.12)">
       <use xlink:href="#DejaVuSans-31"/>
       <use x="63.623047" xlink:href="#DejaVuSans-35"/>
       <use x="127.246094" xlink:href="#DejaVuSans-30"/>
       <use x="190.869141" xlink:href="#DejaVuSans-30"/>
      </g>
     </g>
    </g>
    <g id="xtick_3">
     <g id="line2d_3"/>
     <g id="text_3">
      <!-- 2000 -->
      <defs>
       <path d="M 19.1875 8.296875 
L 53.609375 8.296875 
L 53.609375 0 
L 7.328125 0 
L 7.328125 8.296875 
Q 12.9375 14.109375 22.625 23.890625 
Q 32.328125 33.6875 34.8125 36.53125 
Q 39.546875 41.84375 41.421875 45.53125 
Q 43.3125 49.21875 43.3125 52.78125 
Q 43.3125 58.59375 39.234375 62.25 
Q 35.15625 65.921875 28.609375 65.921875 
Q 23.96875 65.921875 18.8125 64.3125 
Q 13.671875 62.703125 7.8125 59.421875 
L 7.8125 69.390625 
Q 13.765625 71.78125 18.9375 73 
Q 24.125 74.21875 28.421875 74.21875 
Q 39.75 74.21875 46.484375 68.546875 
Q 53.21875 62.890625 53.21875 53.421875 
Q 53.21875 48.921875 51.53125 44.890625 
Q 49.859375 40.875 45.40625 35.40625 
Q 44.1875 33.984375 37.640625 27.21875 
Q 31.109375 20.453125 19.1875 8.296875 
" id="DejaVuSans-32"/>
      </defs>
      <g style="fill:#565656;" transform="translate(156.695705 299.518125)scale(0.12 -0.12)">
       <use xlink:href="#DejaVuSans-32"/>
       <use x="63.623047" xlink:href="#DejaVuSans-30"/>
       <use x="127.246094" xlink:href="#DejaVuSans-30"/>
       <use x="190.869141" xlink:href="#DejaVuSans-30"/>
      </g>
     </g>
    </g>
    <g id="xtick_4">
     <g id="line2d_4"/>
     <g id="text_4">
      <!-- 2500 -->
      <g style="fill:#565656;" transform="translate(207.422977 299.518125)scale(0.12 -0.12)">
       <use xlink:href="#DejaVuSans-32"/>
       <use x="63.623047" xlink:href="#DejaVuSans-35"/>
       <use x="127.246094" xlink:href="#DejaVuSans-30"/>
       <use x="190.869141" xlink:href="#DejaVuSans-30"/>
      </g>
     </g>
    </g>
    <g id="xtick_5">
     <g id="line2d_5"/>
     <g id="text_5">
      <!-- 3000 -->
      <defs>
       <path d="M 40.578125 39.3125 
Q 47.65625 37.796875 51.625 33 
Q 55.609375 28.21875 55.609375 21.1875 
Q 55.609375 10.40625 48.1875 4.484375 
Q 40.765625 -1.421875 27.09375 -1.421875 
Q 22.515625 -1.421875 17.65625 -0.515625 
Q 12.796875 0.390625 7.625 2.203125 
L 7.625 11.71875 
Q 11.71875 9.328125 16.59375 8.109375 
Q 21.484375 6.890625 26.8125 6.890625 
Q 36.078125 6.890625 40.9375 10.546875 
Q 45.796875 14.203125 45.796875 21.1875 
Q 45.796875 27.640625 41.28125 31.265625 
Q 36.765625 34.90625 28.71875 34.90625 
L 20.21875 34.90625 
L 20.21875 43.015625 
L 29.109375 43.015625 
Q 36.375 43.015625 40.234375 45.921875 
Q 44.09375 48.828125 44.09375 54.296875 
Q 44.09375 59.90625 40.109375 62.90625 
Q 36.140625 65.921875 28.71875 65.921875 
Q 24.65625 65.921875 20.015625 65.03125 
Q 15.375 64.15625 9.8125 62.3125 
L 9.8125 71.09375 
Q 15.4375 72.65625 20.34375 73.4375 
Q 25.25 74.21875 29.59375 74.21875 
Q 40.828125 74.21875 47.359375 69.109375 
Q 53.90625 64.015625 53.90625 55.328125 
Q 53.90625 49.265625 50.4375 45.09375 
Q 46.96875 40.921875 40.578125 39.3125 
" id="DejaVuSans-33"/>
      </defs>
      <g style="fill:#565656;" transform="translate(258.15025 299.518125)scale(0.12 -0.12)">
       <use xlink:href="#DejaVuSans-33"/>
       <use x="63.623047" xlink:href="#DejaVuSans-30"/>
       <use x="127.246094" xlink:href="#DejaVuSans-30"/>
       <use x="190.869141" xlink:href="#DejaVuSans-30"/>
      </g>
     </g>
    </g>
    <g id="xtick_6">
     <g id="line2d_6"/>
     <g id="text_6">
      <!-- 3500 -->
      <g style="fill:#565656;" transform="translate(308.877523 299.518125)scale(0.12 -0.12)">
       <use xlink:href="#DejaVuSans-33"/>
       <use x="63.623047" xlink:href="#DejaVuSans-35"/>
       <use x="127.246094" xlink:href="#DejaVuSans-30"/>
       <use x="190.869141" xlink:href="#DejaVuSans-30"/>
      </g>
     </g>
    </g>
    <g id="xtick_7">
     <g id="line2d_7"/>
     <g id="text_7">
      <!-- 4000 -->
      <defs>
       <path d="M 37.796875 64.3125 
L 12.890625 25.390625 
L 37.796875 25.390625 
z
M 35.203125 72.90625 
L 47.609375 72.90625 
L 47.609375 25.390625 
L 58.015625 25.390625 
L 58.015625 17.1875 
L 47.609375 17.1875 
L 47.609375 0 
L 37.796875 0 
L 37.796875 17.1875 
L 4.890625 17.1875 
L 4.890625 26.703125 
z
" id="DejaVuSans-34"/>
      </defs>
      <g style="fill:#565656;" transform="translate(359.604795 299.518125)scale(0.12 -0.12)">
       <use xlink:href="#DejaVuSans-34"/>
       <use x="63.623047" xlink:href="#DejaVuSans-30"/>
       <use x="127.246094" xlink:href="#DejaVuSans-30"/>
       <use x="190.869141" xlink:href="#DejaVuSans-30"/>
      </g>
     </g>
    </g>
    <g id="xtick_8">
     <g id="line2d_8"/>
     <g id="text_8">
      <!-- 4500 -->
      <g style="fill:#565656;" transform="translate(410.332068 299.518125)scale(0.12 -0.12)">
       <use xlink:href="#DejaVuSans-34"/>
       <use x="63.623047" xlink:href="#DejaVuSans-35"/>
       <use x="127.246094" xlink:href="#DejaVuSans-30"/>
       <use x="190.869141" xlink:href="#DejaVuSans-30"/>
      </g>
     </g>
    </g>
    <g id="xtick_9">
     <g id="line2d_9"/>
     <g id="text_9">
      <!-- 5000 -->
      <g style="fill:#565656;" transform="translate(461.059341 299.518125)scale(0.12 -0.12)">
       <use xlink:href="#DejaVuSans-35"/>
       <use x="63.623047" xlink:href="#DejaVuSans-30"/>
       <use x="127.246094" xlink:href="#DejaVuSans-30"/>
       <use x="190.869141" xlink:href="#DejaVuSans-30"/>
      </g>
     </g>
    </g>
    <g id="text_10">
     <!-- Wavelength -->
     <defs>
      <path d="M 3.328125 72.90625 
L 13.28125 72.90625 
L 28.609375 11.28125 
L 43.890625 72.90625 
L 54.984375 72.90625 
L 70.3125 11.28125 
L 85.59375 72.90625 
L 95.609375 72.90625 
L 77.296875 0 
L 64.890625 0 
L 49.515625 63.28125 
L 33.984375 0 
L 21.578125 0 
z
" id="DejaVuSans-57"/>
      <path d="M 34.28125 27.484375 
Q 23.390625 27.484375 19.1875 25 
Q 14.984375 22.515625 14.984375 16.5 
Q 14.984375 11.71875 18.140625 8.90625 
Q 21.296875 6.109375 26.703125 6.109375 
Q 34.1875 6.109375 38.703125 11.40625 
Q 43.21875 16.703125 43.21875 25.484375 
L 43.21875 27.484375 
z
M 52.203125 31.203125 
L 52.203125 0 
L 43.21875 0 
L 43.21875 8.296875 
Q 40.140625 3.328125 35.546875 0.953125 
Q 30.953125 -1.421875 24.3125 -1.421875 
Q 15.921875 -1.421875 10.953125 3.296875 
Q 6 8.015625 6 15.921875 
Q 6 25.140625 12.171875 29.828125 
Q 18.359375 34.515625 30.609375 34.515625 
L 43.21875 34.515625 
L 43.21875 35.40625 
Q 43.21875 41.609375 39.140625 45 
Q 35.0625 48.390625 27.6875 48.390625 
Q 23 48.390625 18.546875 47.265625 
Q 14.109375 46.140625 10.015625 43.890625 
L 10.015625 52.203125 
Q 14.9375 54.109375 19.578125 55.046875 
Q 24.21875 56 28.609375 56 
Q 40.484375 56 46.34375 49.84375 
Q 52.203125 43.703125 52.203125 31.203125 
" id="DejaVuSans-61"/>
      <path d="M 2.984375 54.6875 
L 12.5 54.6875 
L 29.59375 8.796875 
L 46.6875 54.6875 
L 56.203125 54.6875 
L 35.6875 0 
L 23.484375 0 
z
" id="DejaVuSans-76"/>
      <path d="M 56.203125 29.59375 
L 56.203125 25.203125 
L 14.890625 25.203125 
Q 15.484375 15.921875 20.484375 11.0625 
Q 25.484375 6.203125 34.421875 6.203125 
Q 39.59375 6.203125 44.453125 7.46875 
Q 49.3125 8.734375 54.109375 11.28125 
L 54.109375 2.78125 
Q 49.265625 0.734375 44.1875 -0.34375 
Q 39.109375 -1.421875 33.890625 -1.421875 
Q 20.796875 -1.421875 13.15625 6.1875 
Q 5.515625 13.8125 5.515625 26.8125 
Q 5.515625 40.234375 12.765625 48.109375 
Q 20.015625 56 32.328125 56 
Q 43.359375 56 49.78125 48.890625 
Q 56.203125 41.796875 56.203125 29.59375 
M 47.21875 32.234375 
Q 47.125 39.59375 43.09375 43.984375 
Q 39.0625 48.390625 32.421875 48.390625 
Q 24.90625 48.390625 20.390625 44.140625 
Q 15.875 39.890625 15.1875 32.171875 
z
" id="DejaVuSans-65"/>
      <path d="M 9.421875 75.984375 
L 18.40625 75.984375 
L 18.40625 0 
L 9.421875 0 
z
" id="DejaVuSans-6c"/>
      <path d="M 54.890625 33.015625 
L 54.890625 0 
L 45.90625 0 
L 45.90625 32.71875 
Q 45.90625 40.484375 42.875 44.328125 
Q 39.84375 48.1875 33.796875 48.1875 
Q 26.515625 48.1875 22.3125 43.546875 
Q 18.109375 38.921875 18.109375 30.90625 
L 18.109375 0 
L 9.078125 0 
L 9.078125 54.6875 
L 18.109375 54.6875 
L 18.109375 46.1875 
Q 21.34375 51.125 25.703125 53.5625 
Q 30.078125 56 35.796875 56 
Q 45.21875 56 50.046875 50.171875 
Q 54.890625 44.34375 54.890625 33.015625 
" id="DejaVuSans-6e"/>
      <path d="M 45.40625 27.984375 
Q 45.40625 37.75 41.375 43.109375 
Q 37.359375 48.484375 30.078125 48.484375 
Q 22.859375 48.484375 18.828125 43.109375 
Q 14.796875 37.75 14.796875 27.984375 
Q 14.796875 18.265625 18.828125 12.890625 
Q 22.859375 7.515625 30.078125 7.515625 
Q 37.359375 7.515625 41.375 12.890625 
Q 45.40625 18.265625 45.40625 27.984375 
M 54.390625 6.78125 
Q 54.390625 -7.171875 48.1875 -13.984375 
Q 42 -20.796875 29.203125 -20.796875 
Q 24.46875 -20.796875 20.265625 -20.09375 
Q 16.0625 -19.390625 12.109375 -17.921875 
L 12.109375 -9.1875 
Q 16.0625 -11.328125 19.921875 -12.34375 
Q 23.78125 -13.375 27.78125 -13.375 
Q 36.625 -13.375 41.015625 -8.765625 
Q 45.40625 -4.15625 45.40625 5.171875 
L 45.40625 9.625 
Q 42.625 4.78125 38.28125 2.390625 
Q 33.9375 0 27.875 0 
Q 17.828125 0 11.671875 7.65625 
Q 5.515625 15.328125 5.515625 27.984375 
Q 5.515625 40.671875 11.671875 48.328125 
Q 17.828125 56 27.875 56 
Q 33.9375 56 38.28125 53.609375 
Q 42.625 51.21875 45.40625 46.390625 
L 45.40625 54.6875 
L 54.390625 54.6875 
z
" id="DejaVuSans-67"/>
      <path d="M 18.3125 70.21875 
L 18.3125 54.6875 
L 36.8125 54.6875 
L 36.8125 47.703125 
L 18.3125 47.703125 
L 18.3125 18.015625 
Q 18.3125 11.328125 20.140625 9.421875 
Q 21.96875 7.515625 27.59375 7.515625 
L 36.8125 7.515625 
L 36.8125 0 
L 27.59375 0 
Q 17.1875 0 13.234375 3.875 
Q 9.28125 7.765625 9.28125 18.015625 
L 9.28125 47.703125 
L 2.6875 47.703125 
L 2.6875 54.6875 
L 9.28125 54.6875 
L 9.28125 70.21875 
z
" id="DejaVuSans-74"/>
      <path d="M 54.890625 33.015625 
L 54.890625 0 
L 45.90625 0 
L 45.90625 32.71875 
Q 45.90625 40.484375 42.875 44.328125 
Q 39.84375 48.1875 33.796875 48.1875 
Q 26.515625 48.1875 22.3125 43.546875 
Q 18.109375 38.921875 18.109375 30.90625 
L 18.109375 0 
L 9.078125 0 
L 9.078125 75.984375 
L 18.109375 75.984375 
L 18.109375 46.1875 
Q 21.34375 51.125 25.703125 53.5625 
Q 30.078125 56 35.796875 56 
Q 45.21875 56 50.046875 50.171875 
Q 54.890625 44.34375 54.890625 33.015625 
" id="DejaVuSans-68"/>
     </defs>
     <g transform="translate(230.254 316.9555)scale(0.144 -0.144)">
      <use xlink:href="#DejaVuSans-57"/>
      <use x="98.783203" xlink:href="#DejaVuSans-61"/>
      <use x="160.0625" xlink:href="#DejaVuSans-76"/>
      <use x="219.242188" xlink:href="#DejaVuSans-65"/>
      <use x="280.765625" xlink:href="#DejaVuSans-6c"/>
      <use x="308.548828" xlink:href="#DejaVuSans-65"/>
      <use x="370.072266" xlink:href="#DejaVuSans-6e"/>
      <use x="433.451172" xlink:href="#DejaVuSans-67"/>
      <use x="496.927734" xlink:href="#DejaVuSans-74"/>
      <use x="536.136719" xlink:href="#DejaVuSans-68"/>
     </g>
    </g>
   </g>
   <g id="matplotlib.axis_2">
    <g id="ytick_1">
     <g id="line2d_10"/>
     <g id="text_11">
      <!-- 0.0 -->
      <defs>
       <path d="M 10.6875 12.40625 
L 21 12.40625 
L 21 0 
L 10.6875 0 
z
" id="DejaVuSans-2e"/>
      </defs>
      <g style="fill:#565656;" transform="translate(25.1365 276.359062)scale(0.12 -0.12)">
       <use xlink:href="#DejaVuSans-30"/>
       <use x="63.623047" xlink:href="#DejaVuSans-2e"/>
       <use x="95.410156" xlink:href="#DejaVuSans-30"/>
      </g>
     </g>
    </g>
    <g id="ytick_2">
     <g id="line2d_11"/>
     <g id="text_12">
      <!-- 0.2 -->
      <g style="fill:#565656;" transform="translate(25.1365 225.958431)scale(0.12 -0.12)">
       <use xlink:href="#DejaVuSans-30"/>
       <use x="63.623047" xlink:href="#DejaVuSans-2e"/>
       <use x="95.410156" xlink:href="#DejaVuSans-32"/>
      </g>
     </g>
    </g>
    <g id="ytick_3">
     <g id="line2d_12"/>
     <g id="text_13">
      <!-- 0.4 -->
      <g style="fill:#565656;" transform="translate(25.1365 175.5578)scale(0.12 -0.12)">
       <use xlink:href="#DejaVuSans-30"/>
       <use x="63.623047" xlink:href="#DejaVuSans-2e"/>
       <use x="95.410156" xlink:href="#DejaVuSans-34"/>
      </g>
     </g>
    </g>
    <g id="ytick_4">
     <g id="line2d_13"/>
     <g id="text_14">
      <!-- 0.6 -->
      <defs>
       <path d="M 33.015625 40.375 
Q 26.375 40.375 22.484375 35.828125 
Q 18.609375 31.296875 18.609375 23.390625 
Q 18.609375 15.53125 22.484375 10.953125 
Q 26.375 6.390625 33.015625 6.390625 
Q 39.65625 6.390625 43.53125 10.953125 
Q 47.40625 15.53125 47.40625 23.390625 
Q 47.40625 31.296875 43.53125 35.828125 
Q 39.65625 40.375 33.015625 40.375 
M 52.59375 71.296875 
L 52.59375 62.3125 
Q 48.875 64.0625 45.09375 64.984375 
Q 41.3125 65.921875 37.59375 65.921875 
Q 27.828125 65.921875 22.671875 59.328125 
Q 17.53125 52.734375 16.796875 39.40625 
Q 19.671875 43.65625 24.015625 45.921875 
Q 28.375 48.1875 33.59375 48.1875 
Q 44.578125 48.1875 50.953125 41.515625 
Q 57.328125 34.859375 57.328125 23.390625 
Q 57.328125 12.15625 50.6875 5.359375 
Q 44.046875 -1.421875 33.015625 -1.421875 
Q 20.359375 -1.421875 13.671875 8.265625 
Q 6.984375 17.96875 6.984375 36.375 
Q 6.984375 53.65625 15.1875 63.9375 
Q 23.390625 74.21875 37.203125 74.21875 
Q 40.921875 74.21875 44.703125 73.484375 
Q 48.484375 72.75 52.59375 71.296875 
" id="DejaVuSans-36"/>
      </defs>
      <g style="fill:#565656;" transform="translate(25.1365 125.157169)scale(0.12 -0.12)">
       <use xlink:href="#DejaVuSans-30"/>
       <use x="63.623047" xlink:href="#DejaVuSans-2e"/>
       <use x="95.410156" xlink:href="#DejaVuSans-36"/>
      </g>
     </g>
    </g>
    <g id="ytick_5">
     <g id="line2d_14"/>
     <g id="text_15">
      <!-- 0.8 -->
      <defs>
       <path d="M 31.78125 34.625 
Q 24.75 34.625 20.71875 30.859375 
Q 16.703125 27.09375 16.703125 20.515625 
Q 16.703125 13.921875 20.71875 10.15625 
Q 24.75 6.390625 31.78125 6.390625 
Q 38.8125 6.390625 42.859375 10.171875 
Q 46.921875 13.96875 46.921875 20.515625 
Q 46.921875 27.09375 42.890625 30.859375 
Q 38.875 34.625 31.78125 34.625 
M 21.921875 38.8125 
Q 15.578125 40.375 12.03125 44.71875 
Q 8.5 49.078125 8.5 55.328125 
Q 8.5 64.0625 14.71875 69.140625 
Q 20.953125 74.21875 31.78125 74.21875 
Q 42.671875 74.21875 48.875 69.140625 
Q 55.078125 64.0625 55.078125 55.328125 
Q 55.078125 49.078125 51.53125 44.71875 
Q 48 40.375 41.703125 38.8125 
Q 48.828125 37.15625 52.796875 32.3125 
Q 56.78125 27.484375 56.78125 20.515625 
Q 56.78125 9.90625 50.3125 4.234375 
Q 43.84375 -1.421875 31.78125 -1.421875 
Q 19.734375 -1.421875 13.25 4.234375 
Q 6.78125 9.90625 6.78125 20.515625 
Q 6.78125 27.484375 10.78125 32.3125 
Q 14.796875 37.15625 21.921875 38.8125 
M 18.3125 54.390625 
Q 18.3125 48.734375 21.84375 45.5625 
Q 25.390625 42.390625 31.78125 42.390625 
Q 38.140625 42.390625 41.71875 45.5625 
Q 45.3125 48.734375 45.3125 54.390625 
Q 45.3125 60.0625 41.71875 63.234375 
Q 38.140625 66.40625 31.78125 66.40625 
Q 25.390625 66.40625 21.84375 63.234375 
Q 18.3125 60.0625 18.3125 54.390625 
" id="DejaVuSans-38"/>
      </defs>
      <g style="fill:#565656;" transform="translate(25.1365 74.756537)scale(0.12 -0.12)">
       <use xlink:href="#DejaVuSans-30"/>
       <use x="63.623047" xlink:href="#DejaVuSans-2e"/>
       <use x="95.410156" xlink:href="#DejaVuSans-38"/>
      </g>
     </g>
    </g>
    <g id="ytick_6">
     <g id="line2d_15"/>
     <g id="text_16">
      <!-- 1.0 -->
      <g style="fill:#565656;" transform="translate(25.1365 24.355906)scale(0.12 -0.12)">
       <use xlink:href="#DejaVuSans-31"/>
       <use x="63.623047" xlink:href="#DejaVuSans-2e"/>
       <use x="95.410156" xlink:href="#DejaVuSans-30"/>
      </g>
     </g>
    </g>
    <g id="text_17">
     <!-- Flux -->
     <defs>
      <path d="M 9.8125 72.90625 
L 51.703125 72.90625 
L 51.703125 64.59375 
L 19.671875 64.59375 
L 19.671875 43.109375 
L 48.578125 43.109375 
L 48.578125 34.8125 
L 19.671875 34.8125 
L 19.671875 0 
L 9.8125 0 
z
" id="DejaVuSans-46"/>
      <path d="M 8.5 21.578125 
L 8.5 54.6875 
L 17.484375 54.6875 
L 17.484375 21.921875 
Q 17.484375 14.15625 20.5 10.265625 
Q 23.53125 6.390625 29.59375 6.390625 
Q 36.859375 6.390625 41.078125 11.03125 
Q 45.3125 15.671875 45.3125 23.6875 
L 45.3125 54.6875 
L 54.296875 54.6875 
L 54.296875 0 
L 45.3125 0 
L 45.3125 8.40625 
Q 42.046875 3.421875 37.71875 1 
Q 33.40625 -1.421875 27.6875 -1.421875 
Q 18.265625 -1.421875 13.375 4.4375 
Q 8.5 10.296875 8.5 21.578125 
M 31.109375 56 
z
" id="DejaVuSans-75"/>
      <path d="M 54.890625 54.6875 
L 35.109375 28.078125 
L 55.90625 0 
L 45.3125 0 
L 29.390625 21.484375 
L 13.484375 0 
L 2.875 0 
L 24.125 28.609375 
L 4.6875 54.6875 
L 15.28125 54.6875 
L 29.78125 35.203125 
L 44.28125 54.6875 
z
" id="DejaVuSans-78"/>
     </defs>
     <g transform="translate(18.14175 160.765875)rotate(-90)scale(0.144 -0.144)">
      <use xlink:href="#DejaVuSans-46"/>
      <use x="57.519531" xlink:href="#DejaVuSans-6c"/>
      <use x="85.302734" xlink:href="#DejaVuSans-75"/>
      <use x="148.681641" xlink:href="#DejaVuSans-78"/>
     </g>
    </g>
   </g>
   <g id="line2d_16">
    <path clip-path="url(#pdf888b86d1)" d="M 70.511159 271.799061 
L 92.447277 271.68346 
L 98.540643 271.438596 
L 102.602887 271.069006 
L 105.852682 270.55228 
L 108.290029 269.967857 
L 110.727375 269.148236 
L 112.758497 268.23088 
L 114.789619 267.044067 
L 116.414517 265.859237 
L 118.039415 264.42667 
L 119.664312 262.707149 
L 121.28921 260.658301 
L 122.914107 258.235065 
L 124.539005 255.390364 
L 126.163903 252.075994 
L 127.7888 248.243745 
L 129.413698 243.846749 
L 131.038596 238.841052 
L 132.663493 233.187376 
L 134.288391 226.853049 
L 136.319513 217.94235 
L 138.350635 207.908523 
L 140.381757 196.761039 
L 142.819103 181.983671 
L 145.25645 165.836225 
L 148.506245 142.634687 
L 158.255631 71.228097 
L 160.286753 58.26559 
L 162.317875 46.731872 
L 163.942773 38.745378 
L 165.56767 32.018105 
L 166.786343 27.874222 
L 168.005017 24.55221 
L 168.817465 22.811913 
L 169.629914 21.461033 
L 170.442363 20.506022 
L 171.254812 19.951457 
L 172.067261 19.8 
L 172.879709 20.052378 
L 173.692158 20.70738 
L 174.504607 21.761861 
L 175.317056 23.210772 
L 176.129505 25.0472 
L 177.348178 28.508872 
L 178.566851 32.785713 
L 179.785524 37.832863 
L 181.410422 45.669433 
L 183.03532 54.640601 
L 185.066442 67.209082 
L 187.503788 83.8374 
L 191.159808 110.698477 
L 197.659398 158.761724 
L 200.502969 178.066831 
L 202.940316 193.205636 
L 205.377662 206.843422 
L 207.408784 216.989624 
L 209.439906 226.012095 
L 211.471028 233.930713 
L 213.095926 239.50145 
L 214.720823 244.428798 
L 216.345721 248.752721 
L 217.970619 252.51763 
L 219.595516 255.770643 
L 221.220414 258.560038 
L 222.845311 260.933935 
L 224.470209 262.939202 
L 226.095107 264.620597 
L 227.720004 266.020121 
L 229.344902 267.176572 
L 231.376024 268.333794 
L 233.407146 269.227277 
L 235.844492 270.024604 
L 238.281839 270.592378 
L 241.531634 271.093632 
L 245.187654 271.425284 
L 250.468571 271.658383 
L 258.999284 271.774512 
L 284.997646 271.799954 
L 476.329341 271.8 
L 476.329341 271.8 
" style="fill:none;stroke:#008000;stroke-dasharray:5.6,2.4;stroke-dashoffset:0;stroke-width:1.7;"/>
   </g>
   <g id="line2d_17">
    <path clip-path="url(#pdf888b86d1)" d="M 70.511159 271.799991 
L 117.63319 271.694636 
L 125.351454 271.455255 
L 130.226147 271.107923 
L 134.288391 270.600302 
L 137.538186 269.973993 
L 140.381757 269.201139 
L 142.819103 268.321018 
L 145.25645 267.189271 
L 147.287572 266.014023 
L 149.318694 264.589561 
L 151.349816 262.876714 
L 153.380938 260.833553 
L 155.41206 258.416026 
L 157.443182 255.578828 
L 159.474304 252.276511 
L 161.505426 248.464847 
L 163.536548 244.102416 
L 165.56767 239.152408 
L 167.598792 233.584597 
L 169.629914 227.377422 
L 171.661036 220.520108 
L 174.098383 211.437099 
L 176.535729 201.453668 
L 179.3793 188.759227 
L 182.629095 173.085395 
L 186.691339 152.300843 
L 194.003379 114.664791 
L 196.846949 101.21578 
L 199.284296 90.751525 
L 201.315418 82.99331 
L 202.940316 77.523816 
L 204.565213 72.784141 
L 206.190111 68.834725 
L 207.408784 66.422409 
L 208.627457 64.501358 
L 209.84613 63.085824 
L 210.658579 62.428347 
L 211.471028 62.002505 
L 212.283477 61.809717 
L 213.095926 61.850626 
L 213.908374 62.125096 
L 214.720823 62.632211 
L 215.533272 63.370282 
L 216.345721 64.336853 
L 217.564394 66.207934 
L 218.783067 68.571866 
L 220.001741 71.411222 
L 221.626638 75.900266 
L 223.251536 81.139718 
L 224.876433 87.063567 
L 226.907555 95.318909 
L 229.344902 106.267253 
L 232.188473 120.118029 
L 236.656941 143.173251 
L 242.750307 174.498423 
L 246.000103 190.075377 
L 248.843673 202.662973 
L 251.28102 212.544093 
L 253.718366 221.519342 
L 256.155713 229.560515 
L 258.186835 235.548513 
L 260.217957 240.903373 
L 262.249079 245.649841 
L 264.280201 249.820611 
L 266.311323 253.454273 
L 268.342445 256.593395 
L 270.373567 259.282787 
L 272.404689 261.567988 
L 274.435811 263.49399 
L 276.466933 265.104209 
L 278.498055 266.439697 
L 280.529177 267.538575 
L 282.966524 268.593698 
L 285.40387 269.411626 
L 288.247441 270.127434 
L 291.497236 270.705266 
L 295.55948 271.171455 
L 300.434173 271.488675 
L 307.339988 271.692562 
L 319.52672 271.786493 
L 372.335893 271.8 
L 476.329341 271.8 
L 476.329341 271.8 
" style="fill:none;stroke:#fddcaf;stroke-linecap:square;stroke-width:1.7;"/>
   </g>
   <g id="line2d_18">
    <path clip-path="url(#pdf888b86d1)" d="M 70.511159 271.8 
L 143.631552 271.693102 
L 152.568489 271.457923 
L 158.661855 271.085663 
L 163.130324 270.609558 
L 166.786343 270.025025 
L 170.036139 269.303329 
L 172.879709 268.470748 
L 175.72328 267.404781 
L 178.160627 266.267552 
L 180.597973 264.887152 
L 183.03532 263.225681 
L 185.066442 261.597432 
L 187.097564 259.721884 
L 189.128686 257.574464 
L 191.159808 255.130681 
L 193.19093 252.366687 
L 195.222052 249.259911 
L 197.253174 245.789772 
L 199.284296 241.938441 
L 201.721642 236.793898 
L 204.158989 231.064044 
L 206.596335 224.744008 
L 209.033682 217.842125 
L 211.877252 209.086567 
L 214.720823 199.636984 
L 218.376843 186.629348 
L 222.845311 169.825687 
L 231.376024 137.541 
L 234.625819 126.204712 
L 237.063166 118.401797 
L 239.500512 111.366116 
L 241.531634 106.191088 
L 243.156532 102.555243 
L 244.781429 99.404549 
L 246.406327 96.768815 
L 247.625 95.145314 
L 248.843673 93.834586 
L 250.062347 92.843789 
L 251.28102 92.178359 
L 252.499693 91.841957 
L 253.718366 91.836437 
L 254.93704 92.161829 
L 256.155713 92.816341 
L 257.374386 93.79637 
L 258.593059 95.09654 
L 259.811732 96.709748 
L 261.43663 99.332265 
L 263.061528 102.47043 
L 264.686425 106.094544 
L 266.717547 111.256175 
L 268.748669 117.05017 
L 271.186016 124.723473 
L 274.029587 134.479743 
L 277.685606 147.916118 
L 290.684787 196.680562 
L 293.934583 207.645479 
L 296.778153 216.515249 
L 299.621724 224.633701 
L 302.059071 230.963543 
L 304.496417 236.703227 
L 306.933764 241.857421 
L 309.37111 246.442054 
L 311.808456 250.482227 
L 313.839578 253.456197 
L 315.8707 256.095768 
L 317.901822 258.424076 
L 319.932945 260.465284 
L 322.370291 262.570372 
L 324.807637 264.339626 
L 327.244984 265.813956 
L 329.68233 267.032156 
L 332.525901 268.177622 
L 335.369472 269.07533 
L 338.619267 269.856266 
L 342.275287 270.491327 
L 346.337531 270.973012 
L 351.618448 271.358337 
L 358.524263 271.615406 
L 369.086098 271.756637 
L 394.272011 271.799215 
L 476.329341 271.8 
L 476.329341 271.8 
" style="fill:none;stroke:#fdb27b;stroke-linecap:square;stroke-width:1.7;"/>
   </g>
   <g id="line2d_19">
    <path clip-path="url(#pdf888b86d1)" d="M 70.511159 271.8 
L 169.629914 271.693988 
L 180.191749 271.45137 
L 187.097564 271.082936 
L 192.378481 270.592745 
L 196.846949 269.962368 
L 200.502969 269.244804 
L 204.158989 268.291816 
L 207.408784 267.199325 
L 210.252355 266.015397 
L 213.095926 264.582382 
L 215.533272 263.127766 
L 217.970619 261.438556 
L 220.407965 259.489896 
L 222.845311 257.256953 
L 225.282658 254.715539 
L 227.720004 251.842811 
L 230.157351 248.618068 
L 232.594697 245.023605 
L 235.032044 241.045633 
L 237.46939 236.675216 
L 240.312961 231.076546 
L 243.156532 224.946308 
L 246.000103 218.305232 
L 249.249898 210.137227 
L 252.905917 200.309688 
L 257.374386 187.609327 
L 270.373567 150.159527 
L 273.623362 141.737374 
L 276.466933 135.019897 
L 278.904279 129.855944 
L 280.935402 126.032983 
L 282.966524 122.691823 
L 284.591421 120.391131 
L 286.216319 118.43959 
L 287.841216 116.851529 
L 289.466114 115.6387 
L 290.684787 114.98086 
L 291.90346 114.541993 
L 293.122134 114.323948 
L 294.340807 114.327646 
L 295.55948 114.553072 
L 296.778153 114.999273 
L 297.996827 115.664369 
L 299.2155 116.545562 
L 300.840397 118.050126 
L 302.465295 119.921043 
L 304.090193 122.144553 
L 305.71509 124.704447 
L 307.746212 128.349048 
L 309.777334 132.449842 
L 312.214681 137.909893 
L 315.058252 144.917245 
L 318.308047 153.593348 
L 322.370291 165.12281 
L 335.775696 203.762655 
L 339.431716 213.371307 
L 342.681511 221.307351 
L 345.525082 227.725723 
L 348.368653 233.622235 
L 351.212224 238.982607 
L 353.64957 243.14948 
L 356.086917 246.927861 
L 358.524263 250.329312 
L 360.96161 253.36976 
L 363.398956 256.068569 
L 365.836302 258.447652 
L 368.273649 260.530639 
L 370.710995 262.342135 
L 373.148342 263.907054 
L 375.991913 265.454014 
L 378.835483 266.736774 
L 381.679054 267.791113 
L 384.92885 268.758734 
L 388.584869 269.597645 
L 392.647113 270.284044 
L 397.115582 270.812783 
L 402.802723 271.243536 
L 410.114763 271.545467 
L 420.270373 271.721041 
L 439.769144 271.793658 
L 476.329341 271.799979 
L 476.329341 271.799979 
" style="fill:none;stroke:#f26d4b;stroke-linecap:square;stroke-width:1.7;"/>
   </g>
   <g id="patch_3">
    <path d="M 50.22025 284.4 
L 50.22025 7.2 
" style="fill:none;stroke:#aaaaaa;stroke-linecap:square;stroke-linejoin:miter;"/>
   </g>
   <g id="patch_4">
    <path d="M 496.62025 284.4 
L 496.62025 7.2 
" style="fill:none;stroke:#aaaaaa;stroke-linecap:square;stroke-linejoin:miter;"/>
   </g>
   <g id="patch_5">
    <path d="M 50.22025 284.4 
L 496.62025 284.4 
" style="fill:none;stroke:#aaaaaa;stroke-linecap:square;stroke-linejoin:miter;"/>
   </g>
   <g id="patch_6">
    <path d="M 50.22025 7.2 
L 496.62025 7.2 
" style="fill:none;stroke:#aaaaaa;stroke-linecap:square;stroke-linejoin:miter;"/>
   </g>
   <g id="legend_1">
    <g id="patch_7">
     <path d="M 409.62025 87.255 
L 488.22025 87.255 
Q 490.62025 87.255 490.62025 84.855 
L 490.62025 15.6 
Q 490.62025 13.2 488.22025 13.2 
L 409.62025 13.2 
Q 407.22025 13.2 407.22025 15.6 
L 407.22025 84.855 
Q 407.22025 87.255 409.62025 87.255 
z
" style="fill:#ffffff;opacity:0.8;stroke:#cccccc;stroke-linejoin:miter;"/>
    </g>
    <g id="line2d_20">
     <path d="M 412.02025 22.918125 
L 436.02025 22.918125 
" style="fill:none;stroke:#008000;stroke-dasharray:5.6,2.4;stroke-dashoffset:0;stroke-width:1.7;"/>
    </g>
    <g id="line2d_21"/>
    <g id="text_18">
     <!-- $z=0$ -->
     <defs>
      <path d="M 11.625 54.6875 
L 54.296875 54.6875 
L 52.6875 46.484375 
L 11.53125 7.171875 
L 45.515625 7.171875 
L 44.09375 0 
L -0.296875 0 
L 1.3125 8.203125 
L 42.484375 47.515625 
L 10.203125 47.515625 
z
" id="DejaVuSans-Oblique-7a"/>
      <path d="M 10.59375 45.40625 
L 73.1875 45.40625 
L 73.1875 37.203125 
L 10.59375 37.203125 
z
M 10.59375 25.484375 
L 73.1875 25.484375 
L 73.1875 17.1875 
L 10.59375 17.1875 
z
" id="DejaVuSans-3d"/>
     </defs>
     <g transform="translate(445.62025 27.118125)scale(0.12 -0.12)">
      <use transform="translate(0 0.78125)" xlink:href="#DejaVuSans-Oblique-7a"/>
      <use transform="translate(71.972656 0.78125)" xlink:href="#DejaVuSans-3d"/>
      <use transform="translate(175.244141 0.78125)" xlink:href="#DejaVuSans-30"/>
     </g>
    </g>
    <g id="line2d_22">
     <path d="M 412.02025 40.531875 
L 436.02025 40.531875 
" style="fill:none;stroke:#fddcaf;stroke-linecap:square;stroke-width:1.7;"/>
    </g>
    <g id="line2d_23"/>
    <g id="text_19">
     <!-- $z=0.2$ -->
     <g transform="translate(445.62025 44.731875)scale(0.12 -0.12)">
      <use transform="translate(0 0.78125)" xlink:href="#DejaVuSans-Oblique-7a"/>
      <use transform="translate(71.972656 0.78125)" xlink:href="#DejaVuSans-3d"/>
      <use transform="translate(175.244141 0.78125)" xlink:href="#DejaVuSans-30"/>
      <use transform="translate(238.867188 0.78125)" xlink:href="#DejaVuSans-2e"/>
      <use transform="translate(270.576172 0.78125)" xlink:href="#DejaVuSans-32"/>
     </g>
    </g>
    <g id="line2d_24">
     <path d="M 412.02025 58.145625 
L 436.02025 58.145625 
" style="fill:none;stroke:#fdb27b;stroke-linecap:square;stroke-width:1.7;"/>
    </g>
    <g id="line2d_25"/>
    <g id="text_20">
     <!-- $z=0.4$ -->
     <g transform="translate(445.62025 62.345625)scale(0.12 -0.12)">
      <use transform="translate(0 0.78125)" xlink:href="#DejaVuSans-Oblique-7a"/>
      <use transform="translate(71.972656 0.78125)" xlink:href="#DejaVuSans-3d"/>
      <use transform="translate(175.244141 0.78125)" xlink:href="#DejaVuSans-30"/>
      <use transform="translate(238.867188 0.78125)" xlink:href="#DejaVuSans-2e"/>
      <use transform="translate(270.654297 0.78125)" xlink:href="#DejaVuSans-34"/>
     </g>
    </g>
    <g id="line2d_26">
     <path d="M 412.02025 75.759375 
L 436.02025 75.759375 
" style="fill:none;stroke:#f26d4b;stroke-linecap:square;stroke-width:1.7;"/>
    </g>
    <g id="line2d_27"/>
    <g id="text_21">
     <!-- $z=0.6$ -->
     <g transform="translate(445.62025 79.959375)scale(0.12 -0.12)">
      <use transform="translate(0 0.78125)" xlink:href="#DejaVuSans-Oblique-7a"/>
      <use transform="translate(71.972656 0.78125)" xlink:href="#DejaVuSans-3d"/>
      <use transform="translate(175.244141 0.78125)" xlink:href="#DejaVuSans-30"/>
      <use transform="translate(238.867188 0.78125)" xlink:href="#DejaVuSans-2e"/>
      <use transform="translate(270.654297 0.78125)" xlink:href="#DejaVuSans-36"/>
     </g>
    </g>
   </g>
  </g>
 </g>
 <defs>
  <clipPath id="pdf888b86d1">
   <rect height="277.2" width="446.4" x="50.22025" y="7.2"/>
  </clipPath>
 </defs>
</svg>
