<?xml version="1.0" encoding="utf-8" standalone="no"?>
<!DOCTYPE svg PUBLIC "-//W3C//DTD SVG 1.1//EN"
  "http://www.w3.org/Graphics/SVG/1.1/DTD/svg11.dtd">
<!-- Created with matplotlib (http://matplotlib.org/) -->
<svg height="327pt" version="1.1" viewBox="0 0 503 327" width="503pt" xmlns="http://www.w3.org/2000/svg" xmlns:xlink="http://www.w3.org/1999/xlink">
 <defs>
  <style type="text/css">
*{stroke-linecap:butt;stroke-linejoin:round;}
  </style>
 </defs>
 <g id="figure_1">
  <g id="patch_1">
   <path d="M 0 327.15025 
L 503.82025 327.15025 
L 503.82025 0 
L 0 0 
z
" style="fill:none;"/>
  </g>
  <g id="axes_1">
   <g id="patch_2">
    <path d="M 50.22025 284.4 
L 496.62025 284.4 
L 496.62025 7.2 
L 50.22025 7.2 
z
" style="fill:#ffffff;"/>
   </g>
   <g id="matplotlib.axis_1">
    <g id="xtick_1">
     <g id="line2d_1"/>
     <g id="text_1">
      <!-- 0.0 -->
      <defs>
       <path d="M 31.78125 66.40625 
Q 24.171875 66.40625 20.328125 58.90625 
Q 16.5 51.421875 16.5 36.375 
Q 16.5 21.390625 20.328125 13.890625 
Q 24.171875 6.390625 31.78125 6.390625 
Q 39.453125 6.390625 43.28125 13.890625 
Q 47.125 21.390625 47.125 36.375 
Q 47.125 51.421875 43.28125 58.90625 
Q 39.453125 66.40625 31.78125 66.40625 
M 31.78125 74.21875 
Q 44.046875 74.21875 50.515625 64.515625 
Q 56.984375 54.828125 56.984375 36.375 
Q 56.984375 17.96875 50.515625 8.265625 
Q 44.046875 -1.421875 31.78125 -1.421875 
Q 19.53125 -1.421875 13.0625 8.265625 
Q 6.59375 17.96875 6.59375 36.375 
Q 6.59375 54.828125 13.0625 64.515625 
Q 19.53125 74.21875 31.78125 74.21875 
" id="DejaVuSans-30"/>
       <path d="M 10.6875 12.40625 
L 21 12.40625 
L 21 0 
L 10.6875 0 
z
" id="DejaVuSans-2e"/>
      </defs>
      <g style="fill:#565656;" transform="translate(60.969284 299.518125)scale(0.12 -0.12)">
       <use xlink:href="#DejaVuSans-30"/>
       <use x="63.623047" xlink:href="#DejaVuSans-2e"/>
       <use x="95.410156" xlink:href="#DejaVuSans-30"/>
      </g>
     </g>
    </g>
    <g id="xtick_2">
     <g id="line2d_2"/>
     <g id="text_2">
      <!-- 0.2 -->
      <defs>
       <path d="M 19.1875 8.296875 
L 53.609375 8.296875 
L 53.609375 0 
L 7.328125 0 
L 7.328125 8.296875 
Q 12.9375 14.109375 22.625 23.890625 
Q 32.328125 33.6875 34.8125 36.53125 
Q 39.546875 41.84375 41.421875 45.53125 
Q 43.3125 49.21875 43.3125 52.78125 
Q 43.3125 58.59375 39.234375 62.25 
Q 35.15625 65.921875 28.609375 65.921875 
Q 23.96875 65.921875 18.8125 64.3125 
Q 13.671875 62.703125 7.8125 59.421875 
L 7.8125 69.390625 
Q 13.765625 71.78125 18.9375 73 
Q 24.125 74.21875 28.421875 74.21875 
Q 39.75 74.21875 46.484375 68.546875 
Q 53.21875 62.890625 53.21875 53.421875 
Q 53.21875 48.921875 51.53125 44.890625 
Q 49.859375 40.875 45.40625 35.40625 
Q 44.1875 33.984375 37.640625 27.21875 
Q 31.109375 20.453125 19.1875 8.296875 
" id="DejaVuSans-32"/>
      </defs>
      <g style="fill:#565656;" transform="translate(128.605648 299.518125)scale(0.12 -0.12)">
       <use xlink:href="#DejaVuSans-30"/>
       <use x="63.623047" xlink:href="#DejaVuSans-2e"/>
       <use x="95.410156" xlink:href="#DejaVuSans-32"/>
      </g>
     </g>
    </g>
    <g id="xtick_3">
     <g id="line2d_3"/>
     <g id="text_3">
      <!-- 0.4 -->
      <defs>
       <path d="M 37.796875 64.3125 
L 12.890625 25.390625 
L 37.796875 25.390625 
z
M 35.203125 72.90625 
L 47.609375 72.90625 
L 47.609375 25.390625 
L 58.015625 25.390625 
L 58.015625 17.1875 
L 47.609375 17.1875 
L 47.609375 0 
L 37.796875 0 
L 37.796875 17.1875 
L 4.890625 17.1875 
L 4.890625 26.703125 
z
" id="DejaVuSans-34"/>
      </defs>
      <g style="fill:#565656;" transform="translate(196.242011 299.518125)scale(0.12 -0.12)">
       <use xlink:href="#DejaVuSans-30"/>
       <use x="63.623047" xlink:href="#DejaVuSans-2e"/>
       <use x="95.410156" xlink:href="#DejaVuSans-34"/>
      </g>
     </g>
    </g>
    <g id="xtick_4">
     <g id="line2d_4"/>
     <g id="text_4">
      <!-- 0.6 -->
      <defs>
       <path d="M 33.015625 40.375 
Q 26.375 40.375 22.484375 35.828125 
Q 18.609375 31.296875 18.609375 23.390625 
Q 18.609375 15.53125 22.484375 10.953125 
Q 26.375 6.390625 33.015625 6.390625 
Q 39.65625 6.390625 43.53125 10.953125 
Q 47.40625 15.53125 47.40625 23.390625 
Q 47.40625 31.296875 43.53125 35.828125 
Q 39.65625 40.375 33.015625 40.375 
M 52.59375 71.296875 
L 52.59375 62.3125 
Q 48.875 64.0625 45.09375 64.984375 
Q 41.3125 65.921875 37.59375 65.921875 
Q 27.828125 65.921875 22.671875 59.328125 
Q 17.53125 52.734375 16.796875 39.40625 
Q 19.671875 43.65625 24.015625 45.921875 
Q 28.375 48.1875 33.59375 48.1875 
Q 44.578125 48.1875 50.953125 41.515625 
Q 57.328125 34.859375 57.328125 23.390625 
Q 57.328125 12.15625 50.6875 5.359375 
Q 44.046875 -1.421875 33.015625 -1.421875 
Q 20.359375 -1.421875 13.671875 8.265625 
Q 6.984375 17.96875 6.984375 36.375 
Q 6.984375 53.65625 15.1875 63.9375 
Q 23.390625 74.21875 37.203125 74.21875 
Q 40.921875 74.21875 44.703125 73.484375 
Q 48.484375 72.75 52.59375 71.296875 
" id="DejaVuSans-36"/>
      </defs>
      <g style="fill:#565656;" transform="translate(263.878375 299.518125)scale(0.12 -0.12)">
       <use xlink:href="#DejaVuSans-30"/>
       <use x="63.623047" xlink:href="#DejaVuSans-2e"/>
       <use x="95.410156" xlink:href="#DejaVuSans-36"/>
      </g>
     </g>
    </g>
    <g id="xtick_5">
     <g id="line2d_5"/>
     <g id="text_5">
      <!-- 0.8 -->
      <defs>
       <path d="M 31.78125 34.625 
Q 24.75 34.625 20.71875 30.859375 
Q 16.703125 27.09375 16.703125 20.515625 
Q 16.703125 13.921875 20.71875 10.15625 
Q 24.75 6.390625 31.78125 6.390625 
Q 38.8125 6.390625 42.859375 10.171875 
Q 46.921875 13.96875 46.921875 20.515625 
Q 46.921875 27.09375 42.890625 30.859375 
Q 38.875 34.625 31.78125 34.625 
M 21.921875 38.8125 
Q 15.578125 40.375 12.03125 44.71875 
Q 8.5 49.078125 8.5 55.328125 
Q 8.5 64.0625 14.71875 69.140625 
Q 20.953125 74.21875 31.78125 74.21875 
Q 42.671875 74.21875 48.875 69.140625 
Q 55.078125 64.0625 55.078125 55.328125 
Q 55.078125 49.078125 51.53125 44.71875 
Q 48 40.375 41.703125 38.8125 
Q 48.828125 37.15625 52.796875 32.3125 
Q 56.78125 27.484375 56.78125 20.515625 
Q 56.78125 9.90625 50.3125 4.234375 
Q 43.84375 -1.421875 31.78125 -1.421875 
Q 19.734375 -1.421875 13.25 4.234375 
Q 6.78125 9.90625 6.78125 20.515625 
Q 6.78125 27.484375 10.78125 32.3125 
Q 14.796875 37.15625 21.921875 38.8125 
M 18.3125 54.390625 
Q 18.3125 48.734375 21.84375 45.5625 
Q 25.390625 42.390625 31.78125 42.390625 
Q 38.140625 42.390625 41.71875 45.5625 
Q 45.3125 48.734375 45.3125 54.390625 
Q 45.3125 60.0625 41.71875 63.234375 
Q 38.140625 66.40625 31.78125 66.40625 
Q 25.390625 66.40625 21.84375 63.234375 
Q 18.3125 60.0625 18.3125 54.390625 
" id="DejaVuSans-38"/>
      </defs>
      <g style="fill:#565656;" transform="translate(331.514739 299.518125)scale(0.12 -0.12)">
       <use xlink:href="#DejaVuSans-30"/>
       <use x="63.623047" xlink:href="#DejaVuSans-2e"/>
       <use x="95.410156" xlink:href="#DejaVuSans-38"/>
      </g>
     </g>
    </g>
    <g id="xtick_6">
     <g id="line2d_6"/>
     <g id="text_6">
      <!-- 1.0 -->
      <defs>
       <path d="M 12.40625 8.296875 
L 28.515625 8.296875 
L 28.515625 63.921875 
L 10.984375 60.40625 
L 10.984375 69.390625 
L 28.421875 72.90625 
L 38.28125 72.90625 
L 38.28125 8.296875 
L 54.390625 8.296875 
L 54.390625 0 
L 12.40625 0 
z
" id="DejaVuSans-31"/>
      </defs>
      <g style="fill:#565656;" transform="translate(399.151102 299.518125)scale(0.12 -0.12)">
       <use xlink:href="#DejaVuSans-31"/>
       <use x="63.623047" xlink:href="#DejaVuSans-2e"/>
       <use x="95.410156" xlink:href="#DejaVuSans-30"/>
      </g>
     </g>
    </g>
    <g id="xtick_7">
     <g id="line2d_7"/>
     <g id="text_7">
      <!-- 1.2 -->
      <g style="fill:#565656;" transform="translate(466.787466 299.518125)scale(0.12 -0.12)">
       <use xlink:href="#DejaVuSans-31"/>
       <use x="63.623047" xlink:href="#DejaVuSans-2e"/>
       <use x="95.410156" xlink:href="#DejaVuSans-32"/>
      </g>
     </g>
    </g>
    <g id="text_8">
     <!-- Energy -->
     <defs>
      <path d="M 9.8125 72.90625 
L 55.90625 72.90625 
L 55.90625 64.59375 
L 19.671875 64.59375 
L 19.671875 43.015625 
L 54.390625 43.015625 
L 54.390625 34.71875 
L 19.671875 34.71875 
L 19.671875 8.296875 
L 56.78125 8.296875 
L 56.78125 0 
L 9.8125 0 
z
" id="DejaVuSans-45"/>
      <path d="M 54.890625 33.015625 
L 54.890625 0 
L 45.90625 0 
L 45.90625 32.71875 
Q 45.90625 40.484375 42.875 44.328125 
Q 39.84375 48.1875 33.796875 48.1875 
Q 26.515625 48.1875 22.3125 43.546875 
Q 18.109375 38.921875 18.109375 30.90625 
L 18.109375 0 
L 9.078125 0 
L 9.078125 54.6875 
L 18.109375 54.6875 
L 18.109375 46.1875 
Q 21.34375 51.125 25.703125 53.5625 
Q 30.078125 56 35.796875 56 
Q 45.21875 56 50.046875 50.171875 
Q 54.890625 44.34375 54.890625 33.015625 
" id="DejaVuSans-6e"/>
      <path d="M 56.203125 29.59375 
L 56.203125 25.203125 
L 14.890625 25.203125 
Q 15.484375 15.921875 20.484375 11.0625 
Q 25.484375 6.203125 34.421875 6.203125 
Q 39.59375 6.203125 44.453125 7.46875 
Q 49.3125 8.734375 54.109375 11.28125 
L 54.109375 2.78125 
Q 49.265625 0.734375 44.1875 -0.34375 
Q 39.109375 -1.421875 33.890625 -1.421875 
Q 20.796875 -1.421875 13.15625 6.1875 
Q 5.515625 13.8125 5.515625 26.8125 
Q 5.515625 40.234375 12.765625 48.109375 
Q 20.015625 56 32.328125 56 
Q 43.359375 56 49.78125 48.890625 
Q 56.203125 41.796875 56.203125 29.59375 
M 47.21875 32.234375 
Q 47.125 39.59375 43.09375 43.984375 
Q 39.0625 48.390625 32.421875 48.390625 
Q 24.90625 48.390625 20.390625 44.140625 
Q 15.875 39.890625 15.1875 32.171875 
z
" id="DejaVuSans-65"/>
      <path d="M 41.109375 46.296875 
Q 39.59375 47.171875 37.8125 47.578125 
Q 36.03125 48 33.890625 48 
Q 26.265625 48 22.1875 43.046875 
Q 18.109375 38.09375 18.109375 28.8125 
L 18.109375 0 
L 9.078125 0 
L 9.078125 54.6875 
L 18.109375 54.6875 
L 18.109375 46.1875 
Q 20.953125 51.171875 25.484375 53.578125 
Q 30.03125 56 36.53125 56 
Q 37.453125 56 38.578125 55.875 
Q 39.703125 55.765625 41.0625 55.515625 
z
" id="DejaVuSans-72"/>
      <path d="M 45.40625 27.984375 
Q 45.40625 37.75 41.375 43.109375 
Q 37.359375 48.484375 30.078125 48.484375 
Q 22.859375 48.484375 18.828125 43.109375 
Q 14.796875 37.75 14.796875 27.984375 
Q 14.796875 18.265625 18.828125 12.890625 
Q 22.859375 7.515625 30.078125 7.515625 
Q 37.359375 7.515625 41.375 12.890625 
Q 45.40625 18.265625 45.40625 27.984375 
M 54.390625 6.78125 
Q 54.390625 -7.171875 48.1875 -13.984375 
Q 42 -20.796875 29.203125 -20.796875 
Q 24.46875 -20.796875 20.265625 -20.09375 
Q 16.0625 -19.390625 12.109375 -17.921875 
L 12.109375 -9.1875 
Q 16.0625 -11.328125 19.921875 -12.34375 
Q 23.78125 -13.375 27.78125 -13.375 
Q 36.625 -13.375 41.015625 -8.765625 
Q 45.40625 -4.15625 45.40625 5.171875 
L 45.40625 9.625 
Q 42.625 4.78125 38.28125 2.390625 
Q 33.9375 0 27.875 0 
Q 17.828125 0 11.671875 7.65625 
Q 5.515625 15.328125 5.515625 27.984375 
Q 5.515625 40.671875 11.671875 48.328125 
Q 17.828125 56 27.875 56 
Q 33.9375 56 38.28125 53.609375 
Q 42.625 51.21875 45.40625 46.390625 
L 45.40625 54.6875 
L 54.390625 54.6875 
z
" id="DejaVuSans-67"/>
      <path d="M 32.171875 -5.078125 
Q 28.375 -14.84375 24.75 -17.8125 
Q 21.140625 -20.796875 15.09375 -20.796875 
L 7.90625 -20.796875 
L 7.90625 -13.28125 
L 13.1875 -13.28125 
Q 16.890625 -13.28125 18.9375 -11.515625 
Q 21 -9.765625 23.484375 -3.21875 
L 25.09375 0.875 
L 2.984375 54.6875 
L 12.5 54.6875 
L 29.59375 11.921875 
L 46.6875 54.6875 
L 56.203125 54.6875 
z
" id="DejaVuSans-79"/>
     </defs>
     <g transform="translate(248.086375 316.9555)scale(0.144 -0.144)">
      <use xlink:href="#DejaVuSans-45"/>
      <use x="63.183594" xlink:href="#DejaVuSans-6e"/>
      <use x="126.5625" xlink:href="#DejaVuSans-65"/>
      <use x="188.085938" xlink:href="#DejaVuSans-72"/>
      <use x="229.183594" xlink:href="#DejaVuSans-67"/>
      <use x="292.660156" xlink:href="#DejaVuSans-79"/>
     </g>
    </g>
   </g>
   <g id="matplotlib.axis_2">
    <g id="ytick_1">
     <g id="line2d_8"/>
     <g id="text_9">
      <!-- 0.0 -->
      <g style="fill:#565656;" transform="translate(25.1365 276.359062)scale(0.12 -0.12)">
       <use xlink:href="#DejaVuSans-30"/>
       <use x="63.623047" xlink:href="#DejaVuSans-2e"/>
       <use x="95.410156" xlink:href="#DejaVuSans-30"/>
      </g>
     </g>
    </g>
    <g id="ytick_2">
     <g id="line2d_9"/>
     <g id="text_10">
      <!-- 0.2 -->
      <g style="fill:#565656;" transform="translate(25.1365 225.953277)scale(0.12 -0.12)">
       <use xlink:href="#DejaVuSans-30"/>
       <use x="63.623047" xlink:href="#DejaVuSans-2e"/>
       <use x="95.410156" xlink:href="#DejaVuSans-32"/>
      </g>
     </g>
    </g>
    <g id="ytick_3">
     <g id="line2d_10"/>
     <g id="text_11">
      <!-- 0.4 -->
      <g style="fill:#565656;" transform="translate(25.1365 175.547492)scale(0.12 -0.12)">
       <use xlink:href="#DejaVuSans-30"/>
       <use x="63.623047" xlink:href="#DejaVuSans-2e"/>
       <use x="95.410156" xlink:href="#DejaVuSans-34"/>
      </g>
     </g>
    </g>
    <g id="ytick_4">
     <g id="line2d_11"/>
     <g id="text_12">
      <!-- 0.6 -->
      <g style="fill:#565656;" transform="translate(25.1365 125.141706)scale(0.12 -0.12)">
       <use xlink:href="#DejaVuSans-30"/>
       <use x="63.623047" xlink:href="#DejaVuSans-2e"/>
       <use x="95.410156" xlink:href="#DejaVuSans-36"/>
      </g>
     </g>
    </g>
    <g id="ytick_5">
     <g id="line2d_12"/>
     <g id="text_13">
      <!-- 0.8 -->
      <g style="fill:#565656;" transform="translate(25.1365 74.735921)scale(0.12 -0.12)">
       <use xlink:href="#DejaVuSans-30"/>
       <use x="63.623047" xlink:href="#DejaVuSans-2e"/>
       <use x="95.410156" xlink:href="#DejaVuSans-38"/>
      </g>
     </g>
    </g>
    <g id="ytick_6">
     <g id="line2d_13"/>
     <g id="text_14">
      <!-- 1.0 -->
      <g style="fill:#565656;" transform="translate(25.1365 24.330135)scale(0.12 -0.12)">
       <use xlink:href="#DejaVuSans-31"/>
       <use x="63.623047" xlink:href="#DejaVuSans-2e"/>
       <use x="95.410156" xlink:href="#DejaVuSans-30"/>
      </g>
     </g>
    </g>
    <g id="text_15">
     <!-- Flux -->
     <defs>
      <path d="M 9.8125 72.90625 
L 51.703125 72.90625 
L 51.703125 64.59375 
L 19.671875 64.59375 
L 19.671875 43.109375 
L 48.578125 43.109375 
L 48.578125 34.8125 
L 19.671875 34.8125 
L 19.671875 0 
L 9.8125 0 
z
" id="DejaVuSans-46"/>
      <path d="M 9.421875 75.984375 
L 18.40625 75.984375 
L 18.40625 0 
L 9.421875 0 
z
" id="DejaVuSans-6c"/>
      <path d="M 8.5 21.578125 
L 8.5 54.6875 
L 17.484375 54.6875 
L 17.484375 21.921875 
Q 17.484375 14.15625 20.5 10.265625 
Q 23.53125 6.390625 29.59375 6.390625 
Q 36.859375 6.390625 41.078125 11.03125 
Q 45.3125 15.671875 45.3125 23.6875 
L 45.3125 54.6875 
L 54.296875 54.6875 
L 54.296875 0 
L 45.3125 0 
L 45.3125 8.40625 
Q 42.046875 3.421875 37.71875 1 
Q 33.40625 -1.421875 27.6875 -1.421875 
Q 18.265625 -1.421875 13.375 4.4375 
Q 8.5 10.296875 8.5 21.578125 
M 31.109375 56 
z
" id="DejaVuSans-75"/>
      <path d="M 54.890625 54.6875 
L 35.109375 28.078125 
L 55.90625 0 
L 45.3125 0 
L 29.390625 21.484375 
L 13.484375 0 
L 2.875 0 
L 24.125 28.609375 
L 4.6875 54.6875 
L 15.28125 54.6875 
L 29.78125 35.203125 
L 44.28125 54.6875 
z
" id="DejaVuSans-78"/>
     </defs>
     <g transform="translate(18.14175 160.765875)rotate(-90)scale(0.144 -0.144)">
      <use xlink:href="#DejaVuSans-46"/>
      <use x="57.519531" xlink:href="#DejaVuSans-6c"/>
      <use x="85.302734" xlink:href="#DejaVuSans-75"/>
      <use x="148.681641" xlink:href="#DejaVuSans-78"/>
     </g>
    </g>
   </g>
   <g id="line2d_14">
    <path clip-path="url(#p543e0f6bea)" d="M 70.511159 271.8 
L 74.610333 271.8 
L 78.709506 271.8 
L 82.80868 271.8 
L 86.907853 271.8 
L 91.007027 271.8 
L 95.1062 271.8 
L 99.205374 271.8 
L 103.304548 271.8 
L 107.403721 271.8 
L 111.502895 271.799999 
L 115.602068 271.799999 
L 119.701242 271.799997 
L 123.800415 271.799994 
L 127.899589 271.799988 
L 131.998762 271.799975 
L 136.097936 271.799951 
L 140.19711 271.799905 
L 144.296283 271.799818 
L 148.395457 271.799656 
L 152.49463 271.799359 
L 156.593804 271.798822 
L 160.692977 271.797869 
L 164.792151 271.796199 
L 168.891324 271.79332 
L 172.990498 271.788432 
L 177.089671 271.78026 
L 181.188845 271.766806 
L 185.288019 271.744995 
L 189.387192 271.710182 
L 193.486366 271.655474 
L 197.585539 271.570838 
L 201.684713 271.441936 
L 205.783886 271.248689 
L 209.88306 270.963526 
L 213.982233 270.549374 
L 218.081407 269.957441 
L 222.180581 269.124933 
L 226.279754 267.972923 
L 230.378928 266.40466 
L 234.478101 264.304689 
L 238.577275 261.539237 
L 242.676448 257.958319 
L 246.775622 253.400027 
L 250.874795 247.697353 
L 254.973969 240.687747 
L 259.073143 232.225324 
L 263.172316 222.195342 
L 267.27149 210.530163 
L 271.370663 197.225529 
L 275.469837 182.35567 
L 279.56901 166.085484 
L 283.668184 148.678011 
L 287.767357 130.495563 
L 291.866531 111.993236 
L 295.965705 93.704193 
L 300.064878 76.216859 
L 304.164052 60.145105 
L 308.263225 46.093327 
L 312.362399 34.619127 
L 316.461572 26.196751 
L 320.560746 21.184612 
L 324.659919 19.8 
L 328.759093 22.103457 
L 332.858267 27.994388 
L 336.95744 37.218343 
L 341.056614 49.385252 
L 345.155787 63.99677 
L 349.254961 80.480081 
L 353.354134 98.224964 
L 357.453308 116.620796 
L 361.552481 135.090418 
L 365.651655 153.11835 
L 369.750829 170.271639 
L 373.850002 186.212497 
L 377.949176 200.702797 
L 382.048349 213.601223 
L 386.147523 224.854455 
L 390.246696 234.484085 
L 394.34587 242.571066 
L 398.445043 249.239379 
L 402.544217 254.640355 
L 406.64339 258.938704 
L 410.742564 262.300946 
L 414.841738 264.886545 
L 418.940911 266.841742 
L 423.040085 268.295853 
L 427.139258 269.359636 
L 431.238432 270.125265 
L 435.337605 270.667451 
L 439.436779 271.045279 
L 443.535952 271.304395 
L 447.635126 271.479296 
L 451.7343 271.595501 
L 455.833473 271.671502 
L 459.932647 271.720435 
L 464.03182 271.751452 
L 468.130994 271.77081 
L 472.230167 271.782705 
L 476.329341 271.789902 
" style="fill:none;stroke:#008000;stroke-dasharray:5.6,2.4;stroke-dashoffset:0;stroke-width:1.7;"/>
   </g>
   <g id="line2d_15">
    <path clip-path="url(#p543e0f6bea)" d="M 70.511159 271.8 
L 74.610333 271.8 
L 78.709506 271.8 
L 82.80868 271.8 
L 86.907853 271.8 
L 91.007027 271.8 
L 95.1062 271.8 
L 99.205374 271.8 
L 103.304548 271.8 
L 107.403721 271.799999 
L 111.502895 271.799997 
L 115.602068 271.799993 
L 119.701242 271.799984 
L 123.800415 271.799963 
L 127.899589 271.799917 
L 131.998762 271.799818 
L 136.097936 271.79961 
L 140.19711 271.799181 
L 144.296283 271.798316 
L 148.395457 271.79661 
L 152.49463 271.79332 
L 156.593804 271.787112 
L 160.692977 271.775656 
L 164.792151 271.754977 
L 168.891324 271.718476 
L 172.990498 271.655474 
L 177.089671 271.549148 
L 181.188845 271.373715 
L 185.288019 271.090756 
L 189.387192 270.644679 
L 193.486366 269.957441 
L 197.585539 268.922922 
L 201.684713 267.401612 
L 205.783886 265.216649 
L 209.88306 262.15256 
L 213.982233 257.958319 
L 218.081407 252.356378 
L 222.180581 245.059032 
L 226.279754 235.792854 
L 230.378928 224.330801 
L 234.478101 210.530163 
L 238.577275 194.372868 
L 242.676448 176.003148 
L 246.775622 155.756472 
L 250.874795 134.173448 
L 254.973969 111.993236 
L 259.073143 90.123102 
L 263.172316 69.583833 
L 267.27149 51.434469 
L 271.370663 36.683517 
L 275.469837 26.196751 
L 279.56901 20.61323 
L 283.668184 20.280863 
L 287.767357 25.220522 
L 291.866531 35.123878 
L 295.965705 49.385252 
L 300.064878 67.162916 
L 304.164052 87.461217 
L 308.263225 109.222397 
L 312.362399 131.416413 
L 316.461572 153.11835 
L 320.560746 173.565862 
L 324.659919 192.192695 
L 328.759093 208.638124 
L 332.858267 222.735345 
L 336.95744 234.484085 
L 341.056614 244.013678 
L 345.155787 251.542789 
L 349.254961 257.340947 
L 353.354134 261.695573 
L 357.453308 264.886545 
L 361.552481 267.168836 
L 365.651655 268.762636 
L 369.750829 269.849638 
L 373.850002 270.573846 
L 377.949176 271.045279 
L 382.048349 271.34518 
L 386.147523 271.531648 
L 390.246696 271.644982 
L 394.34587 271.712326 
L 398.445043 271.751452 
L 402.544217 271.77368 
L 406.64339 271.78603 
L 410.742564 271.79274 
L 414.841738 271.796306 
L 418.940911 271.79816 
L 423.040085 271.799103 
L 427.139258 271.799571 
L 431.238432 271.7998 
L 435.337605 271.799908 
L 439.436779 271.799959 
L 443.535952 271.799982 
L 447.635126 271.799992 
L 451.7343 271.799997 
L 455.833473 271.799999 
L 459.932647 271.799999 
L 464.03182 271.8 
L 468.130994 271.8 
L 472.230167 271.8 
L 476.329341 271.8 
" style="fill:none;stroke:#fddcaf;stroke-linecap:square;stroke-width:1.7;"/>
   </g>
   <g id="line2d_16">
    <path clip-path="url(#p543e0f6bea)" d="M 70.511159 271.8 
L 74.610333 271.8 
L 78.709506 271.8 
L 82.80868 271.8 
L 86.907853 271.8 
L 91.007027 271.8 
L 95.1062 271.8 
L 99.205374 271.799999 
L 103.304548 271.799998 
L 107.403721 271.799995 
L 111.502895 271.799988 
L 115.602068 271.799968 
L 119.701242 271.799917 
L 123.800415 271.799793 
L 127.899589 271.799499 
L 131.998762 271.798822 
L 136.097936 271.797309 
L 140.19711 271.794026 
L 144.296283 271.787112 
L 148.395457 271.772989 
L 152.49463 271.744995 
L 156.593804 271.691166 
L 160.692977 271.590775 
L 164.792151 271.409197 
L 168.891324 271.090756 
L 172.990498 270.549374 
L 177.089671 269.657344 
L 181.188845 268.233263 
L 185.288019 266.031227 
L 189.387192 262.734551 
L 193.486366 257.958319 
L 197.585539 251.265605 
L 201.684713 242.201577 
L 205.783886 230.347679 
L 209.88306 215.394336 
L 213.982233 197.225529 
L 218.081407 176.003148 
L 222.180581 152.234499 
L 226.279754 126.804629 
L 230.378928 100.957476 
L 234.478101 76.216859 
L 238.577275 54.249318 
L 242.676448 36.683517 
L 246.775622 24.912388 
L 250.874795 19.91105 
L 254.973969 22.103457 
L 259.073143 31.30307 
L 263.172316 46.739054 
L 267.27149 67.162916 
L 271.370663 91.015109 
L 275.469837 116.620796 
L 279.56901 142.380862 
L 283.668184 166.928596 
L 287.767357 189.232477 
L 291.866531 208.638124 
L 295.965705 224.854455 
L 300.064878 237.897842 
L 304.164052 248.012221 
L 308.263225 255.582868 
L 312.362399 261.057935 
L 316.461572 264.886545 
L 320.560746 267.476892 
L 324.659919 269.17342 
L 328.759093 270.249475 
L 332.858267 270.910675 
L 336.95744 271.304395 
L 341.056614 271.531648 
L 345.155787 271.658822 
L 349.254961 271.727836 
L 353.354134 271.76416 
L 357.453308 271.782705 
L 361.552481 271.791891 
L 365.651655 271.796306 
L 369.750829 271.798365 
L 373.850002 271.799297 
L 377.949176 271.799706 
L 382.048349 271.799881 
L 386.147523 271.799953 
L 390.246696 271.799982 
L 394.34587 271.799993 
L 398.445043 271.799998 
L 402.544217 271.799999 
L 406.64339 271.8 
L 410.742564 271.8 
L 414.841738 271.8 
L 418.940911 271.8 
L 423.040085 271.8 
L 427.139258 271.8 
L 431.238432 271.8 
L 435.337605 271.8 
L 439.436779 271.8 
L 443.535952 271.8 
L 447.635126 271.8 
L 451.7343 271.8 
L 455.833473 271.8 
L 459.932647 271.8 
L 464.03182 271.8 
L 468.130994 271.8 
L 472.230167 271.8 
L 476.329341 271.8 
" style="fill:none;stroke:#fdb27b;stroke-linecap:square;stroke-width:1.7;"/>
   </g>
   <g id="line2d_17">
    <path clip-path="url(#p543e0f6bea)" d="M 70.511159 271.8 
L 74.610333 271.8 
L 78.709506 271.8 
L 82.80868 271.8 
L 86.907853 271.8 
L 91.007027 271.8 
L 95.1062 271.8 
L 99.205374 271.799998 
L 103.304548 271.799995 
L 107.403721 271.799984 
L 111.502895 271.799951 
L 115.602068 271.79986 
L 119.701242 271.79961 
L 123.800415 271.798956 
L 127.899589 271.797309 
L 131.998762 271.79332 
L 136.097936 271.784031 
L 140.19711 271.763234 
L 144.296283 271.718476 
L 148.395457 271.625904 
L 152.49463 271.441936 
L 156.593804 271.090756 
L 160.692977 270.447004 
L 164.792151 269.314221 
L 168.891324 267.401612 
L 172.990498 264.304689 
L 177.089671 259.498705 
L 181.188845 252.356378 
L 185.288019 242.201577 
L 189.387192 228.406458 
L 193.486366 210.530163 
L 197.585539 188.483032 
L 201.684713 162.68479 
L 205.783886 134.173448 
L 209.88306 104.620019 
L 213.982233 76.216859 
L 218.081407 51.434469 
L 222.180581 32.677183 
L 226.279754 21.901601 
L 230.378928 20.280863 
L 234.478101 27.994388 
L 238.577275 44.195174 
L 242.676448 67.162916 
L 246.775622 94.604653 
L 250.874795 124.0303 
L 254.973969 153.11835 
L 259.073143 179.999116 
L 263.172316 203.412732 
L 267.27149 222.735345 
L 271.370663 237.897842 
L 275.469837 249.239379 
L 279.56901 257.340947 
L 283.668184 262.875297 
L 287.767357 266.494665 
L 291.866531 268.762636 
L 295.965705 270.125265 
L 300.064878 270.910675 
L 304.164052 271.34518 
L 308.263225 271.575981 
L 312.362399 271.693734 
L 316.461572 271.751452 
L 320.560746 271.77864 
L 324.659919 271.790949 
L 328.759093 271.796306 
L 332.858267 271.798548 
L 336.95744 271.79945 
L 341.056614 271.7998 
L 345.155787 271.79993 
L 349.254961 271.799976 
L 353.354134 271.799992 
L 357.453308 271.799998 
L 361.552481 271.799999 
L 365.651655 271.8 
L 369.750829 271.8 
L 373.850002 271.8 
L 377.949176 271.8 
L 382.048349 271.8 
L 386.147523 271.8 
L 390.246696 271.8 
L 394.34587 271.8 
L 398.445043 271.8 
L 402.544217 271.8 
L 406.64339 271.8 
L 410.742564 271.8 
L 414.841738 271.8 
L 418.940911 271.8 
L 423.040085 271.8 
L 427.139258 271.8 
L 431.238432 271.8 
L 435.337605 271.8 
L 439.436779 271.8 
L 443.535952 271.8 
L 447.635126 271.8 
L 451.7343 271.8 
L 455.833473 271.8 
L 459.932647 271.8 
L 464.03182 271.8 
L 468.130994 271.8 
L 472.230167 271.8 
L 476.329341 271.8 
" style="fill:none;stroke:#f26d4b;stroke-linecap:square;stroke-width:1.7;"/>
   </g>
   <g id="patch_3">
    <path d="M 50.22025 284.4 
L 50.22025 7.2 
" style="fill:none;stroke:#aaaaaa;stroke-linecap:square;stroke-linejoin:miter;"/>
   </g>
   <g id="patch_4">
    <path d="M 496.62025 284.4 
L 496.62025 7.2 
" style="fill:none;stroke:#aaaaaa;stroke-linecap:square;stroke-linejoin:miter;"/>
   </g>
   <g id="patch_5">
    <path d="M 50.22025 284.4 
L 496.62025 284.4 
" style="fill:none;stroke:#aaaaaa;stroke-linecap:square;stroke-linejoin:miter;"/>
   </g>
   <g id="patch_6">
    <path d="M 50.22025 7.2 
L 496.62025 7.2 
" style="fill:none;stroke:#aaaaaa;stroke-linecap:square;stroke-linejoin:miter;"/>
   </g>
   <g id="legend_1">
    <g id="patch_7">
     <path d="M 409.62025 87.255 
L 488.22025 87.255 
Q 490.62025 87.255 490.62025 84.855 
L 490.62025 15.6 
Q 490.62025 13.2 488.22025 13.2 
L 409.62025 13.2 
Q 407.22025 13.2 407.22025 15.6 
L 407.22025 84.855 
Q 407.22025 87.255 409.62025 87.255 
z
" style="fill:#ffffff;opacity:0.8;stroke:#cccccc;stroke-linejoin:miter;"/>
    </g>
    <g id="line2d_18">
     <path d="M 412.02025 22.918125 
L 436.02025 22.918125 
" style="fill:none;stroke:#008000;stroke-dasharray:5.6,2.4;stroke-dashoffset:0;stroke-width:1.7;"/>
    </g>
    <g id="line2d_19"/>
    <g id="text_16">
     <!-- $z=0$ -->
     <defs>
      <path d="M 11.625 54.6875 
L 54.296875 54.6875 
L 52.6875 46.484375 
L 11.53125 7.171875 
L 45.515625 7.171875 
L 44.09375 0 
L -0.296875 0 
L 1.3125 8.203125 
L 42.484375 47.515625 
L 10.203125 47.515625 
z
" id="DejaVuSans-Oblique-7a"/>
      <path d="M 10.59375 45.40625 
L 73.1875 45.40625 
L 73.1875 37.203125 
L 10.59375 37.203125 
z
M 10.59375 25.484375 
L 73.1875 25.484375 
L 73.1875 17.1875 
L 10.59375 17.1875 
z
" id="DejaVuSans-3d"/>
     </defs>
     <g transform="translate(445.62025 27.118125)scale(0.12 -0.12)">
      <use transform="translate(0 0.78125)" xlink:href="#DejaVuSans-Oblique-7a"/>
      <use transform="translate(71.972656 0.78125)" xlink:href="#DejaVuSans-3d"/>
      <use transform="translate(175.244141 0.78125)" xlink:href="#DejaVuSans-30"/>
     </g>
    </g>
    <g id="line2d_20">
     <path d="M 412.02025 40.531875 
L 436.02025 40.531875 
" style="fill:none;stroke:#fddcaf;stroke-linecap:square;stroke-width:1.7;"/>
    </g>
    <g id="line2d_21"/>
    <g id="text_17">
     <!-- $z=0.2$ -->
     <g transform="translate(445.62025 44.731875)scale(0.12 -0.12)">
      <use transform="translate(0 0.78125)" xlink:href="#DejaVuSans-Oblique-7a"/>
      <use transform="translate(71.972656 0.78125)" xlink:href="#DejaVuSans-3d"/>
      <use transform="translate(175.244141 0.78125)" xlink:href="#DejaVuSans-30"/>
      <use transform="translate(238.867188 0.78125)" xlink:href="#DejaVuSans-2e"/>
      <use transform="translate(270.576172 0.78125)" xlink:href="#DejaVuSans-32"/>
     </g>
    </g>
    <g id="line2d_22">
     <path d="M 412.02025 58.145625 
L 436.02025 58.145625 
" style="fill:none;stroke:#fdb27b;stroke-linecap:square;stroke-width:1.7;"/>
    </g>
    <g id="line2d_23"/>
    <g id="text_18">
     <!-- $z=0.4$ -->
     <g transform="translate(445.62025 62.345625)scale(0.12 -0.12)">
      <use transform="translate(0 0.78125)" xlink:href="#DejaVuSans-Oblique-7a"/>
      <use transform="translate(71.972656 0.78125)" xlink:href="#DejaVuSans-3d"/>
      <use transform="translate(175.244141 0.78125)" xlink:href="#DejaVuSans-30"/>
      <use transform="translate(238.867188 0.78125)" xlink:href="#DejaVuSans-2e"/>
      <use transform="translate(270.654297 0.78125)" xlink:href="#DejaVuSans-34"/>
     </g>
    </g>
    <g id="line2d_24">
     <path d="M 412.02025 75.759375 
L 436.02025 75.759375 
" style="fill:none;stroke:#f26d4b;stroke-linecap:square;stroke-width:1.7;"/>
    </g>
    <g id="line2d_25"/>
    <g id="text_19">
     <!-- $z=0.6$ -->
     <g transform="translate(445.62025 79.959375)scale(0.12 -0.12)">
      <use transform="translate(0 0.78125)" xlink:href="#DejaVuSans-Oblique-7a"/>
      <use transform="translate(71.972656 0.78125)" xlink:href="#DejaVuSans-3d"/>
      <use transform="translate(175.244141 0.78125)" xlink:href="#DejaVuSans-30"/>
      <use transform="translate(238.867188 0.78125)" xlink:href="#DejaVuSans-2e"/>
      <use transform="translate(270.654297 0.78125)" xlink:href="#DejaVuSans-36"/>
     </g>
    </g>
   </g>
  </g>
 </g>
 <defs>
  <clipPath id="p543e0f6bea">
   <rect height="277.2" width="446.4" x="50.22025" y="7.2"/>
  </clipPath>
 </defs>
</svg>
