<?xml version="1.0" encoding="utf-8" standalone="no"?>
<!DOCTYPE svg PUBLIC "-//W3C//DTD SVG 1.1//EN"
  "http://www.w3.org/Graphics/SVG/1.1/DTD/svg11.dtd">
<!-- Created with matplotlib (http://matplotlib.org/) -->
<svg height="327pt" version="1.1" viewBox="0 0 513 327" width="513pt" xmlns="http://www.w3.org/2000/svg" xmlns:xlink="http://www.w3.org/1999/xlink">
 <defs>
  <style type="text/css">
*{stroke-linecap:butt;stroke-linejoin:round;}
  </style>
 </defs>
 <g id="figure_1">
  <g id="patch_1">
   <path d="M 0 327.15025 
L 513.875875 327.15025 
L 513.875875 0 
L 0 0 
z
" style="fill:none;"/>
  </g>
  <g id="axes_1">
   <g id="patch_2">
    <path d="M 60.275875 284.4 
L 506.675875 284.4 
L 506.675875 7.2 
L 60.275875 7.2 
z
" style="fill:#ffffff;"/>
   </g>
   <g id="matplotlib.axis_1">
    <g id="xtick_1">
     <g id="line2d_1"/>
     <g id="text_1">
      <!-- −1.00 -->
      <defs>
       <path d="M 10.59375 35.5 
L 73.1875 35.5 
L 73.1875 27.203125 
L 10.59375 27.203125 
z
" id="DejaVuSans-2212"/>
       <path d="M 12.40625 8.296875 
L 28.515625 8.296875 
L 28.515625 63.921875 
L 10.984375 60.40625 
L 10.984375 69.390625 
L 28.421875 72.90625 
L 38.28125 72.90625 
L 38.28125 8.296875 
L 54.390625 8.296875 
L 54.390625 0 
L 12.40625 0 
z
" id="DejaVuSans-31"/>
       <path d="M 10.6875 12.40625 
L 21 12.40625 
L 21 0 
L 10.6875 0 
z
" id="DejaVuSans-2e"/>
       <path d="M 31.78125 66.40625 
Q 24.171875 66.40625 20.328125 58.90625 
Q 16.5 51.421875 16.5 36.375 
Q 16.5 21.390625 20.328125 13.890625 
Q 24.171875 6.390625 31.78125 6.390625 
Q 39.453125 6.390625 43.28125 13.890625 
Q 47.125 21.390625 47.125 36.375 
Q 47.125 51.421875 43.28125 58.90625 
Q 39.453125 66.40625 31.78125 66.40625 
M 31.78125 74.21875 
Q 44.046875 74.21875 50.515625 64.515625 
Q 56.984375 54.828125 56.984375 36.375 
Q 56.984375 17.96875 50.515625 8.265625 
Q 44.046875 -1.421875 31.78125 -1.421875 
Q 19.53125 -1.421875 13.0625 8.265625 
Q 6.59375 17.96875 6.59375 36.375 
Q 6.59375 54.828125 13.0625 64.515625 
Q 19.53125 74.21875 31.78125 74.21875 
" id="DejaVuSans-30"/>
      </defs>
      <g style="fill:#565656;" transform="translate(62.179597 299.518125)scale(0.12 -0.12)">
       <use xlink:href="#DejaVuSans-2212"/>
       <use x="83.789062" xlink:href="#DejaVuSans-31"/>
       <use x="147.412109" xlink:href="#DejaVuSans-2e"/>
       <use x="179.199219" xlink:href="#DejaVuSans-30"/>
       <use x="242.822266" xlink:href="#DejaVuSans-30"/>
      </g>
     </g>
    </g>
    <g id="xtick_2">
     <g id="line2d_2"/>
     <g id="text_2">
      <!-- −0.75 -->
      <defs>
       <path d="M 8.203125 72.90625 
L 55.078125 72.90625 
L 55.078125 68.703125 
L 28.609375 0 
L 18.3125 0 
L 43.21875 64.59375 
L 8.203125 64.59375 
z
" id="DejaVuSans-37"/>
       <path d="M 10.796875 72.90625 
L 49.515625 72.90625 
L 49.515625 64.59375 
L 19.828125 64.59375 
L 19.828125 46.734375 
Q 21.96875 47.46875 24.109375 47.828125 
Q 26.265625 48.1875 28.421875 48.1875 
Q 40.625 48.1875 47.75 41.5 
Q 54.890625 34.8125 54.890625 23.390625 
Q 54.890625 11.625 47.5625 5.09375 
Q 40.234375 -1.421875 26.90625 -1.421875 
Q 22.3125 -1.421875 17.546875 -0.640625 
Q 12.796875 0.140625 7.71875 1.703125 
L 7.71875 11.625 
Q 12.109375 9.234375 16.796875 8.0625 
Q 21.484375 6.890625 26.703125 6.890625 
Q 35.15625 6.890625 40.078125 11.328125 
Q 45.015625 15.765625 45.015625 23.390625 
Q 45.015625 31 40.078125 35.4375 
Q 35.15625 39.890625 26.703125 39.890625 
Q 22.75 39.890625 18.8125 39.015625 
Q 14.890625 38.140625 10.796875 36.28125 
z
" id="DejaVuSans-35"/>
      </defs>
      <g style="fill:#565656;" transform="translate(112.906869 299.518125)scale(0.12 -0.12)">
       <use xlink:href="#DejaVuSans-2212"/>
       <use x="83.789062" xlink:href="#DejaVuSans-30"/>
       <use x="147.412109" xlink:href="#DejaVuSans-2e"/>
       <use x="179.199219" xlink:href="#DejaVuSans-37"/>
       <use x="242.822266" xlink:href="#DejaVuSans-35"/>
      </g>
     </g>
    </g>
    <g id="xtick_3">
     <g id="line2d_3"/>
     <g id="text_3">
      <!-- −0.50 -->
      <g style="fill:#565656;" transform="translate(163.634142 299.518125)scale(0.12 -0.12)">
       <use xlink:href="#DejaVuSans-2212"/>
       <use x="83.789062" xlink:href="#DejaVuSans-30"/>
       <use x="147.412109" xlink:href="#DejaVuSans-2e"/>
       <use x="179.199219" xlink:href="#DejaVuSans-35"/>
       <use x="242.822266" xlink:href="#DejaVuSans-30"/>
      </g>
     </g>
    </g>
    <g id="xtick_4">
     <g id="line2d_4"/>
     <g id="text_4">
      <!-- −0.25 -->
      <defs>
       <path d="M 19.1875 8.296875 
L 53.609375 8.296875 
L 53.609375 0 
L 7.328125 0 
L 7.328125 8.296875 
Q 12.9375 14.109375 22.625 23.890625 
Q 32.328125 33.6875 34.8125 36.53125 
Q 39.546875 41.84375 41.421875 45.53125 
Q 43.3125 49.21875 43.3125 52.78125 
Q 43.3125 58.59375 39.234375 62.25 
Q 35.15625 65.921875 28.609375 65.921875 
Q 23.96875 65.921875 18.8125 64.3125 
Q 13.671875 62.703125 7.8125 59.421875 
L 7.8125 69.390625 
Q 13.765625 71.78125 18.9375 73 
Q 24.125 74.21875 28.421875 74.21875 
Q 39.75 74.21875 46.484375 68.546875 
Q 53.21875 62.890625 53.21875 53.421875 
Q 53.21875 48.921875 51.53125 44.890625 
Q 49.859375 40.875 45.40625 35.40625 
Q 44.1875 33.984375 37.640625 27.21875 
Q 31.109375 20.453125 19.1875 8.296875 
" id="DejaVuSans-32"/>
      </defs>
      <g style="fill:#565656;" transform="translate(214.361415 299.518125)scale(0.12 -0.12)">
       <use xlink:href="#DejaVuSans-2212"/>
       <use x="83.789062" xlink:href="#DejaVuSans-30"/>
       <use x="147.412109" xlink:href="#DejaVuSans-2e"/>
       <use x="179.199219" xlink:href="#DejaVuSans-32"/>
       <use x="242.822266" xlink:href="#DejaVuSans-35"/>
      </g>
     </g>
    </g>
    <g id="xtick_5">
     <g id="line2d_5"/>
     <g id="text_5">
      <!-- 0.00 -->
      <g style="fill:#565656;" transform="translate(270.1165 299.518125)scale(0.12 -0.12)">
       <use xlink:href="#DejaVuSans-30"/>
       <use x="63.623047" xlink:href="#DejaVuSans-2e"/>
       <use x="95.410156" xlink:href="#DejaVuSans-30"/>
       <use x="159.033203" xlink:href="#DejaVuSans-30"/>
      </g>
     </g>
    </g>
    <g id="xtick_6">
     <g id="line2d_6"/>
     <g id="text_6">
      <!-- 0.25 -->
      <g style="fill:#565656;" transform="translate(320.843773 299.518125)scale(0.12 -0.12)">
       <use xlink:href="#DejaVuSans-30"/>
       <use x="63.623047" xlink:href="#DejaVuSans-2e"/>
       <use x="95.410156" xlink:href="#DejaVuSans-32"/>
       <use x="159.033203" xlink:href="#DejaVuSans-35"/>
      </g>
     </g>
    </g>
    <g id="xtick_7">
     <g id="line2d_7"/>
     <g id="text_7">
      <!-- 0.50 -->
      <g style="fill:#565656;" transform="translate(371.571045 299.518125)scale(0.12 -0.12)">
       <use xlink:href="#DejaVuSans-30"/>
       <use x="63.623047" xlink:href="#DejaVuSans-2e"/>
       <use x="95.410156" xlink:href="#DejaVuSans-35"/>
       <use x="159.033203" xlink:href="#DejaVuSans-30"/>
      </g>
     </g>
    </g>
    <g id="xtick_8">
     <g id="line2d_8"/>
     <g id="text_8">
      <!-- 0.75 -->
      <g style="fill:#565656;" transform="translate(422.298318 299.518125)scale(0.12 -0.12)">
       <use xlink:href="#DejaVuSans-30"/>
       <use x="63.623047" xlink:href="#DejaVuSans-2e"/>
       <use x="95.410156" xlink:href="#DejaVuSans-37"/>
       <use x="159.033203" xlink:href="#DejaVuSans-35"/>
      </g>
     </g>
    </g>
    <g id="xtick_9">
     <g id="line2d_9"/>
     <g id="text_9">
      <!-- 1.00 -->
      <g style="fill:#565656;" transform="translate(473.025591 299.518125)scale(0.12 -0.12)">
       <use xlink:href="#DejaVuSans-31"/>
       <use x="63.623047" xlink:href="#DejaVuSans-2e"/>
       <use x="95.410156" xlink:href="#DejaVuSans-30"/>
       <use x="159.033203" xlink:href="#DejaVuSans-30"/>
      </g>
     </g>
    </g>
    <g id="text_10">
     <!-- Position -->
     <defs>
      <path d="M 19.671875 64.796875 
L 19.671875 37.40625 
L 32.078125 37.40625 
Q 38.96875 37.40625 42.71875 40.96875 
Q 46.484375 44.53125 46.484375 51.125 
Q 46.484375 57.671875 42.71875 61.234375 
Q 38.96875 64.796875 32.078125 64.796875 
z
M 9.8125 72.90625 
L 32.078125 72.90625 
Q 44.34375 72.90625 50.609375 67.359375 
Q 56.890625 61.8125 56.890625 51.125 
Q 56.890625 40.328125 50.609375 34.8125 
Q 44.34375 29.296875 32.078125 29.296875 
L 19.671875 29.296875 
L 19.671875 0 
L 9.8125 0 
z
" id="DejaVuSans-50"/>
      <path d="M 30.609375 48.390625 
Q 23.390625 48.390625 19.1875 42.75 
Q 14.984375 37.109375 14.984375 27.296875 
Q 14.984375 17.484375 19.15625 11.84375 
Q 23.34375 6.203125 30.609375 6.203125 
Q 37.796875 6.203125 41.984375 11.859375 
Q 46.1875 17.53125 46.1875 27.296875 
Q 46.1875 37.015625 41.984375 42.703125 
Q 37.796875 48.390625 30.609375 48.390625 
M 30.609375 56 
Q 42.328125 56 49.015625 48.375 
Q 55.71875 40.765625 55.71875 27.296875 
Q 55.71875 13.875 49.015625 6.21875 
Q 42.328125 -1.421875 30.609375 -1.421875 
Q 18.84375 -1.421875 12.171875 6.21875 
Q 5.515625 13.875 5.515625 27.296875 
Q 5.515625 40.765625 12.171875 48.375 
Q 18.84375 56 30.609375 56 
" id="DejaVuSans-6f"/>
      <path d="M 44.28125 53.078125 
L 44.28125 44.578125 
Q 40.484375 46.53125 36.375 47.5 
Q 32.28125 48.484375 27.875 48.484375 
Q 21.1875 48.484375 17.84375 46.4375 
Q 14.5 44.390625 14.5 40.28125 
Q 14.5 37.15625 16.890625 35.375 
Q 19.28125 33.59375 26.515625 31.984375 
L 29.59375 31.296875 
Q 39.15625 29.25 43.1875 25.515625 
Q 47.21875 21.78125 47.21875 15.09375 
Q 47.21875 7.46875 41.1875 3.015625 
Q 35.15625 -1.421875 24.609375 -1.421875 
Q 20.21875 -1.421875 15.453125 -0.5625 
Q 10.6875 0.296875 5.421875 2 
L 5.421875 11.28125 
Q 10.40625 8.6875 15.234375 7.390625 
Q 20.0625 6.109375 24.8125 6.109375 
Q 31.15625 6.109375 34.5625 8.28125 
Q 37.984375 10.453125 37.984375 14.40625 
Q 37.984375 18.0625 35.515625 20.015625 
Q 33.0625 21.96875 24.703125 23.78125 
L 21.578125 24.515625 
Q 13.234375 26.265625 9.515625 29.90625 
Q 5.8125 33.546875 5.8125 39.890625 
Q 5.8125 47.609375 11.28125 51.796875 
Q 16.75 56 26.8125 56 
Q 31.78125 56 36.171875 55.265625 
Q 40.578125 54.546875 44.28125 53.078125 
" id="DejaVuSans-73"/>
      <path d="M 9.421875 54.6875 
L 18.40625 54.6875 
L 18.40625 0 
L 9.421875 0 
z
M 9.421875 75.984375 
L 18.40625 75.984375 
L 18.40625 64.59375 
L 9.421875 64.59375 
z
" id="DejaVuSans-69"/>
      <path d="M 18.3125 70.21875 
L 18.3125 54.6875 
L 36.8125 54.6875 
L 36.8125 47.703125 
L 18.3125 47.703125 
L 18.3125 18.015625 
Q 18.3125 11.328125 20.140625 9.421875 
Q 21.96875 7.515625 27.59375 7.515625 
L 36.8125 7.515625 
L 36.8125 0 
L 27.59375 0 
Q 17.1875 0 13.234375 3.875 
Q 9.28125 7.765625 9.28125 18.015625 
L 9.28125 47.703125 
L 2.6875 47.703125 
L 2.6875 54.6875 
L 9.28125 54.6875 
L 9.28125 70.21875 
z
" id="DejaVuSans-74"/>
      <path d="M 54.890625 33.015625 
L 54.890625 0 
L 45.90625 0 
L 45.90625 32.71875 
Q 45.90625 40.484375 42.875 44.328125 
Q 39.84375 48.1875 33.796875 48.1875 
Q 26.515625 48.1875 22.3125 43.546875 
Q 18.109375 38.921875 18.109375 30.90625 
L 18.109375 0 
L 9.078125 0 
L 9.078125 54.6875 
L 18.109375 54.6875 
L 18.109375 46.1875 
Q 21.34375 51.125 25.703125 53.5625 
Q 30.078125 56 35.796875 56 
Q 45.21875 56 50.046875 50.171875 
Q 54.890625 44.34375 54.890625 33.015625 
" id="DejaVuSans-6e"/>
     </defs>
     <g transform="translate(255.19 316.9555)scale(0.144 -0.144)">
      <use xlink:href="#DejaVuSans-50"/>
      <use x="60.255859" xlink:href="#DejaVuSans-6f"/>
      <use x="121.4375" xlink:href="#DejaVuSans-73"/>
      <use x="173.537109" xlink:href="#DejaVuSans-69"/>
      <use x="201.320312" xlink:href="#DejaVuSans-74"/>
      <use x="240.529297" xlink:href="#DejaVuSans-69"/>
      <use x="268.3125" xlink:href="#DejaVuSans-6f"/>
      <use x="329.494141" xlink:href="#DejaVuSans-6e"/>
     </g>
    </g>
   </g>
   <g id="matplotlib.axis_2">
    <g id="ytick_1">
     <g id="line2d_10"/>
     <g id="text_11">
      <!-- −0.5 -->
      <g style="fill:#565656;" transform="translate(25.1365 285.975843)scale(0.12 -0.12)">
       <use xlink:href="#DejaVuSans-2212"/>
       <use x="83.789062" xlink:href="#DejaVuSans-30"/>
       <use x="147.412109" xlink:href="#DejaVuSans-2e"/>
       <use x="179.199219" xlink:href="#DejaVuSans-35"/>
      </g>
     </g>
    </g>
    <g id="ytick_2">
     <g id="line2d_11"/>
     <g id="text_12">
      <!-- 0.0 -->
      <g style="fill:#565656;" transform="translate(35.192125 244.264575)scale(0.12 -0.12)">
       <use xlink:href="#DejaVuSans-30"/>
       <use x="63.623047" xlink:href="#DejaVuSans-2e"/>
       <use x="95.410156" xlink:href="#DejaVuSans-30"/>
      </g>
     </g>
    </g>
    <g id="ytick_3">
     <g id="line2d_12"/>
     <g id="text_13">
      <!-- 0.5 -->
      <g style="fill:#565656;" transform="translate(35.192125 202.553307)scale(0.12 -0.12)">
       <use xlink:href="#DejaVuSans-30"/>
       <use x="63.623047" xlink:href="#DejaVuSans-2e"/>
       <use x="95.410156" xlink:href="#DejaVuSans-35"/>
      </g>
     </g>
    </g>
    <g id="ytick_4">
     <g id="line2d_13"/>
     <g id="text_14">
      <!-- 1.0 -->
      <g style="fill:#565656;" transform="translate(35.192125 160.842038)scale(0.12 -0.12)">
       <use xlink:href="#DejaVuSans-31"/>
       <use x="63.623047" xlink:href="#DejaVuSans-2e"/>
       <use x="95.410156" xlink:href="#DejaVuSans-30"/>
      </g>
     </g>
    </g>
    <g id="ytick_5">
     <g id="line2d_14"/>
     <g id="text_15">
      <!-- 1.5 -->
      <g style="fill:#565656;" transform="translate(35.192125 119.13077)scale(0.12 -0.12)">
       <use xlink:href="#DejaVuSans-31"/>
       <use x="63.623047" xlink:href="#DejaVuSans-2e"/>
       <use x="95.410156" xlink:href="#DejaVuSans-35"/>
      </g>
     </g>
    </g>
    <g id="ytick_6">
     <g id="line2d_15"/>
     <g id="text_16">
      <!-- 2.0 -->
      <g style="fill:#565656;" transform="translate(35.192125 77.419502)scale(0.12 -0.12)">
       <use xlink:href="#DejaVuSans-32"/>
       <use x="63.623047" xlink:href="#DejaVuSans-2e"/>
       <use x="95.410156" xlink:href="#DejaVuSans-30"/>
      </g>
     </g>
    </g>
    <g id="ytick_7">
     <g id="line2d_16"/>
     <g id="text_17">
      <!-- 2.5 -->
      <g style="fill:#565656;" transform="translate(35.192125 35.708233)scale(0.12 -0.12)">
       <use xlink:href="#DejaVuSans-32"/>
       <use x="63.623047" xlink:href="#DejaVuSans-2e"/>
       <use x="95.410156" xlink:href="#DejaVuSans-35"/>
      </g>
     </g>
    </g>
    <g id="text_18">
     <!-- Flux -->
     <defs>
      <path d="M 9.8125 72.90625 
L 51.703125 72.90625 
L 51.703125 64.59375 
L 19.671875 64.59375 
L 19.671875 43.109375 
L 48.578125 43.109375 
L 48.578125 34.8125 
L 19.671875 34.8125 
L 19.671875 0 
L 9.8125 0 
z
" id="DejaVuSans-46"/>
      <path d="M 9.421875 75.984375 
L 18.40625 75.984375 
L 18.40625 0 
L 9.421875 0 
z
" id="DejaVuSans-6c"/>
      <path d="M 8.5 21.578125 
L 8.5 54.6875 
L 17.484375 54.6875 
L 17.484375 21.921875 
Q 17.484375 14.15625 20.5 10.265625 
Q 23.53125 6.390625 29.59375 6.390625 
Q 36.859375 6.390625 41.078125 11.03125 
Q 45.3125 15.671875 45.3125 23.6875 
L 45.3125 54.6875 
L 54.296875 54.6875 
L 54.296875 0 
L 45.3125 0 
L 45.3125 8.40625 
Q 42.046875 3.421875 37.71875 1 
Q 33.40625 -1.421875 27.6875 -1.421875 
Q 18.265625 -1.421875 13.375 4.4375 
Q 8.5 10.296875 8.5 21.578125 
M 31.109375 56 
z
" id="DejaVuSans-75"/>
      <path d="M 54.890625 54.6875 
L 35.109375 28.078125 
L 55.90625 0 
L 45.3125 0 
L 29.390625 21.484375 
L 13.484375 0 
L 2.875 0 
L 24.125 28.609375 
L 4.6875 54.6875 
L 15.28125 54.6875 
L 29.78125 35.203125 
L 44.28125 54.6875 
z
" id="DejaVuSans-78"/>
     </defs>
     <g transform="translate(18.14175 160.765875)rotate(-90)scale(0.144 -0.144)">
      <use xlink:href="#DejaVuSans-46"/>
      <use x="57.519531" xlink:href="#DejaVuSans-6c"/>
      <use x="85.302734" xlink:href="#DejaVuSans-75"/>
      <use x="148.681641" xlink:href="#DejaVuSans-78"/>
     </g>
    </g>
   </g>
   <g id="line2d_17">
    <defs>
     <path d="M 0 3 
C 0.795609 3 1.55874 2.683901 2.12132 2.12132 
C 2.683901 1.55874 3 0.795609 3 0 
C 3 -0.795609 2.683901 -1.55874 2.12132 -2.12132 
C 1.55874 -2.683901 0.795609 -3 0 -3 
C -0.795609 -3 -1.55874 -2.683901 -2.12132 -2.12132 
C -2.683901 -1.55874 -3 -0.795609 -3 0 
C -3 0.795609 -2.683901 1.55874 -2.12132 2.12132 
C -1.55874 2.683901 -0.795609 3 0 3 
z
" id="mf4caed03db" style="stroke:#000000;"/>
    </defs>
    <g clip-path="url(#p9006092215)">
     <use style="stroke:#000000;" x="80.566784" xlink:href="#mf4caed03db" y="231.417771"/>
     <use style="stroke:#000000;" x="82.606071" xlink:href="#mf4caed03db" y="242.011985"/>
     <use style="stroke:#000000;" x="84.645359" xlink:href="#mf4caed03db" y="228.898637"/>
     <use style="stroke:#000000;" x="86.684646" xlink:href="#mf4caed03db" y="214.293857"/>
     <use style="stroke:#000000;" x="88.723933" xlink:href="#mf4caed03db" y="243.611414"/>
     <use style="stroke:#000000;" x="90.763221" xlink:href="#mf4caed03db" y="243.610914"/>
     <use style="stroke:#000000;" x="92.802508" xlink:href="#mf4caed03db" y="213.355783"/>
     <use style="stroke:#000000;" x="94.841796" xlink:href="#mf4caed03db" y="226.899546"/>
     <use style="stroke:#000000;" x="96.881083" xlink:href="#mf4caed03db" y="247.536321"/>
     <use style="stroke:#000000;" x="98.92037" xlink:href="#mf4caed03db" y="230.650472"/>
     <use style="stroke:#000000;" x="100.959658" xlink:href="#mf4caed03db" y="247.434028"/>
     <use style="stroke:#000000;" x="102.998945" xlink:href="#mf4caed03db" y="247.471752"/>
     <use style="stroke:#000000;" x="105.038232" xlink:href="#mf4caed03db" y="235.663206"/>
     <use style="stroke:#000000;" x="107.07752" xlink:href="#mf4caed03db" y="271.621067"/>
     <use style="stroke:#000000;" x="109.116807" xlink:href="#mf4caed03db" y="268.476736"/>
     <use style="stroke:#000000;" x="111.156094" xlink:href="#mf4caed03db" y="249.076864"/>
     <use style="stroke:#000000;" x="113.195382" xlink:href="#mf4caed03db" y="256.591566"/>
     <use style="stroke:#000000;" x="115.234669" xlink:href="#mf4caed03db" y="234.446992"/>
     <use style="stroke:#000000;" x="117.273956" xlink:href="#mf4caed03db" y="254.836432"/>
     <use style="stroke:#000000;" x="119.313244" xlink:href="#mf4caed03db" y="263.245774"/>
     <use style="stroke:#000000;" x="121.352531" xlink:href="#mf4caed03db" y="215.223332"/>
     <use style="stroke:#000000;" x="123.391818" xlink:href="#mf4caed03db" y="243.437622"/>
     <use style="stroke:#000000;" x="125.431106" xlink:href="#mf4caed03db" y="238.536392"/>
     <use style="stroke:#000000;" x="127.470393" xlink:href="#mf4caed03db" y="263.425179"/>
     <use style="stroke:#000000;" x="129.50968" xlink:href="#mf4caed03db" y="248.725807"/>
     <use style="stroke:#000000;" x="131.548968" xlink:href="#mf4caed03db" y="237.779337"/>
     <use style="stroke:#000000;" x="133.588255" xlink:href="#mf4caed03db" y="258.818277"/>
     <use style="stroke:#000000;" x="135.627542" xlink:href="#mf4caed03db" y="233.32776"/>
     <use style="stroke:#000000;" x="137.66683" xlink:href="#mf4caed03db" y="249.59564"/>
     <use style="stroke:#000000;" x="139.706117" xlink:href="#mf4caed03db" y="244.415276"/>
     <use style="stroke:#000000;" x="141.745404" xlink:href="#mf4caed03db" y="249.557332"/>
     <use style="stroke:#000000;" x="143.784692" xlink:href="#mf4caed03db" y="208.578143"/>
     <use style="stroke:#000000;" x="145.823979" xlink:href="#mf4caed03db" y="239.665906"/>
     <use style="stroke:#000000;" x="147.863267" xlink:href="#mf4caed03db" y="257.039283"/>
     <use style="stroke:#000000;" x="149.902554" xlink:href="#mf4caed03db" y="225.611265"/>
     <use style="stroke:#000000;" x="151.941841" xlink:href="#mf4caed03db" y="259.63811"/>
     <use style="stroke:#000000;" x="153.981129" xlink:href="#mf4caed03db" y="235.707572"/>
     <use style="stroke:#000000;" x="156.020416" xlink:href="#mf4caed03db" y="271.8"/>
     <use style="stroke:#000000;" x="158.059703" xlink:href="#mf4caed03db" y="261.162031"/>
     <use style="stroke:#000000;" x="160.098991" xlink:href="#mf4caed03db" y="235.600194"/>
     <use style="stroke:#000000;" x="162.138278" xlink:href="#mf4caed03db" y="226.429502"/>
     <use style="stroke:#000000;" x="164.177565" xlink:href="#mf4caed03db" y="235.73782"/>
     <use style="stroke:#000000;" x="166.216853" xlink:href="#mf4caed03db" y="240.351707"/>
     <use style="stroke:#000000;" x="168.25614" xlink:href="#mf4caed03db" y="243.247266"/>
     <use style="stroke:#000000;" x="170.295427" xlink:href="#mf4caed03db" y="262.666796"/>
     <use style="stroke:#000000;" x="172.334715" xlink:href="#mf4caed03db" y="249.754282"/>
     <use style="stroke:#000000;" x="174.374002" xlink:href="#mf4caed03db" y="245.143006"/>
     <use style="stroke:#000000;" x="176.413289" xlink:href="#mf4caed03db" y="219.497983"/>
     <use style="stroke:#000000;" x="178.452577" xlink:href="#mf4caed03db" y="231.041824"/>
     <use style="stroke:#000000;" x="180.491864" xlink:href="#mf4caed03db" y="265.787588"/>
     <use style="stroke:#000000;" x="182.531151" xlink:href="#mf4caed03db" y="230.516355"/>
     <use style="stroke:#000000;" x="184.570439" xlink:href="#mf4caed03db" y="241.850301"/>
     <use style="stroke:#000000;" x="186.609726" xlink:href="#mf4caed03db" y="246.167963"/>
     <use style="stroke:#000000;" x="188.649013" xlink:href="#mf4caed03db" y="224.05948"/>
     <use style="stroke:#000000;" x="190.688301" xlink:href="#mf4caed03db" y="216.393148"/>
     <use style="stroke:#000000;" x="192.727588" xlink:href="#mf4caed03db" y="217.321553"/>
     <use style="stroke:#000000;" x="194.766875" xlink:href="#mf4caed03db" y="246.056918"/>
     <use style="stroke:#000000;" x="196.806163" xlink:href="#mf4caed03db" y="236.336547"/>
     <use style="stroke:#000000;" x="198.84545" xlink:href="#mf4caed03db" y="224.696355"/>
     <use style="stroke:#000000;" x="200.884737" xlink:href="#mf4caed03db" y="212.912495"/>
     <use style="stroke:#000000;" x="202.924025" xlink:href="#mf4caed03db" y="236.066022"/>
     <use style="stroke:#000000;" x="204.963312" xlink:href="#mf4caed03db" y="229.964776"/>
     <use style="stroke:#000000;" x="207.0026" xlink:href="#mf4caed03db" y="244.032825"/>
     <use style="stroke:#000000;" x="209.041887" xlink:href="#mf4caed03db" y="244.148323"/>
     <use style="stroke:#000000;" x="211.081174" xlink:href="#mf4caed03db" y="209.157068"/>
     <use style="stroke:#000000;" x="213.120462" xlink:href="#mf4caed03db" y="198.515333"/>
     <use style="stroke:#000000;" x="215.159749" xlink:href="#mf4caed03db" y="220.680904"/>
     <use style="stroke:#000000;" x="217.199036" xlink:href="#mf4caed03db" y="200.978318"/>
     <use style="stroke:#000000;" x="219.238324" xlink:href="#mf4caed03db" y="209.837887"/>
     <use style="stroke:#000000;" x="221.277611" xlink:href="#mf4caed03db" y="224.694403"/>
     <use style="stroke:#000000;" x="223.316898" xlink:href="#mf4caed03db" y="205.872755"/>
     <use style="stroke:#000000;" x="225.356186" xlink:href="#mf4caed03db" y="184.128646"/>
     <use style="stroke:#000000;" x="227.395473" xlink:href="#mf4caed03db" y="208.196014"/>
     <use style="stroke:#000000;" x="229.43476" xlink:href="#mf4caed03db" y="179.22754"/>
     <use style="stroke:#000000;" x="231.474048" xlink:href="#mf4caed03db" y="246.70954"/>
     <use style="stroke:#000000;" x="233.513335" xlink:href="#mf4caed03db" y="186.895455"/>
     <use style="stroke:#000000;" x="235.552622" xlink:href="#mf4caed03db" y="196.713427"/>
     <use style="stroke:#000000;" x="237.59191" xlink:href="#mf4caed03db" y="200.670516"/>
     <use style="stroke:#000000;" x="239.631197" xlink:href="#mf4caed03db" y="191.635828"/>
     <use style="stroke:#000000;" x="241.670484" xlink:href="#mf4caed03db" y="223.793913"/>
     <use style="stroke:#000000;" x="243.709772" xlink:href="#mf4caed03db" y="191.755389"/>
     <use style="stroke:#000000;" x="245.749059" xlink:href="#mf4caed03db" y="179.595229"/>
     <use style="stroke:#000000;" x="247.788346" xlink:href="#mf4caed03db" y="158.377352"/>
     <use style="stroke:#000000;" x="249.827634" xlink:href="#mf4caed03db" y="189.196646"/>
     <use style="stroke:#000000;" x="251.866921" xlink:href="#mf4caed03db" y="191.599861"/>
     <use style="stroke:#000000;" x="253.906208" xlink:href="#mf4caed03db" y="184.104279"/>
     <use style="stroke:#000000;" x="255.945496" xlink:href="#mf4caed03db" y="158.157617"/>
     <use style="stroke:#000000;" x="257.984783" xlink:href="#mf4caed03db" y="165.73386"/>
     <use style="stroke:#000000;" x="260.024071" xlink:href="#mf4caed03db" y="177.950636"/>
     <use style="stroke:#000000;" x="262.063358" xlink:href="#mf4caed03db" y="158.559859"/>
     <use style="stroke:#000000;" x="264.102645" xlink:href="#mf4caed03db" y="163.64761"/>
     <use style="stroke:#000000;" x="266.141933" xlink:href="#mf4caed03db" y="147.394828"/>
     <use style="stroke:#000000;" x="268.18122" xlink:href="#mf4caed03db" y="173.715622"/>
     <use style="stroke:#000000;" x="270.220507" xlink:href="#mf4caed03db" y="166.083363"/>
     <use style="stroke:#000000;" x="272.259795" xlink:href="#mf4caed03db" y="165.951183"/>
     <use style="stroke:#000000;" x="274.299082" xlink:href="#mf4caed03db" y="182.806802"/>
     <use style="stroke:#000000;" x="276.338369" xlink:href="#mf4caed03db" y="152.62258"/>
     <use style="stroke:#000000;" x="278.377657" xlink:href="#mf4caed03db" y="152.582897"/>
     <use style="stroke:#000000;" x="280.416944" xlink:href="#mf4caed03db" y="156.433952"/>
     <use style="stroke:#000000;" x="282.456231" xlink:href="#mf4caed03db" y="160.222671"/>
     <use style="stroke:#000000;" x="284.495519" xlink:href="#mf4caed03db" y="179.923069"/>
     <use style="stroke:#000000;" x="286.534806" xlink:href="#mf4caed03db" y="163.536256"/>
     <use style="stroke:#000000;" x="288.574093" xlink:href="#mf4caed03db" y="162.654068"/>
     <use style="stroke:#000000;" x="290.613381" xlink:href="#mf4caed03db" y="170.944687"/>
     <use style="stroke:#000000;" x="292.652668" xlink:href="#mf4caed03db" y="161.073089"/>
     <use style="stroke:#000000;" x="294.691955" xlink:href="#mf4caed03db" y="152.657124"/>
     <use style="stroke:#000000;" x="296.731243" xlink:href="#mf4caed03db" y="129.129964"/>
     <use style="stroke:#000000;" x="298.77053" xlink:href="#mf4caed03db" y="159.064132"/>
     <use style="stroke:#000000;" x="300.809817" xlink:href="#mf4caed03db" y="159.220453"/>
     <use style="stroke:#000000;" x="302.849105" xlink:href="#mf4caed03db" y="166.451073"/>
     <use style="stroke:#000000;" x="304.888392" xlink:href="#mf4caed03db" y="199.050086"/>
     <use style="stroke:#000000;" x="306.927679" xlink:href="#mf4caed03db" y="169.425331"/>
     <use style="stroke:#000000;" x="308.966967" xlink:href="#mf4caed03db" y="170.025283"/>
     <use style="stroke:#000000;" x="311.006254" xlink:href="#mf4caed03db" y="132.059128"/>
     <use style="stroke:#000000;" x="313.045542" xlink:href="#mf4caed03db" y="178.549651"/>
     <use style="stroke:#000000;" x="315.084829" xlink:href="#mf4caed03db" y="172.521822"/>
     <use style="stroke:#000000;" x="317.124116" xlink:href="#mf4caed03db" y="180.344674"/>
     <use style="stroke:#000000;" x="319.163404" xlink:href="#mf4caed03db" y="201.44266"/>
     <use style="stroke:#000000;" x="321.202691" xlink:href="#mf4caed03db" y="164.981933"/>
     <use style="stroke:#000000;" x="323.241978" xlink:href="#mf4caed03db" y="173.492674"/>
     <use style="stroke:#000000;" x="325.281266" xlink:href="#mf4caed03db" y="174.663085"/>
     <use style="stroke:#000000;" x="327.320553" xlink:href="#mf4caed03db" y="204.63446"/>
     <use style="stroke:#000000;" x="329.35984" xlink:href="#mf4caed03db" y="167.373103"/>
     <use style="stroke:#000000;" x="331.399128" xlink:href="#mf4caed03db" y="215.130043"/>
     <use style="stroke:#000000;" x="333.438415" xlink:href="#mf4caed03db" y="182.483619"/>
     <use style="stroke:#000000;" x="335.477702" xlink:href="#mf4caed03db" y="155.753412"/>
     <use style="stroke:#000000;" x="337.51699" xlink:href="#mf4caed03db" y="208.258171"/>
     <use style="stroke:#000000;" x="339.556277" xlink:href="#mf4caed03db" y="199.931648"/>
     <use style="stroke:#000000;" x="341.595564" xlink:href="#mf4caed03db" y="186.80734"/>
     <use style="stroke:#000000;" x="343.634852" xlink:href="#mf4caed03db" y="194.011387"/>
     <use style="stroke:#000000;" x="345.674139" xlink:href="#mf4caed03db" y="207.70704"/>
     <use style="stroke:#000000;" x="347.713426" xlink:href="#mf4caed03db" y="175.939397"/>
     <use style="stroke:#000000;" x="349.752714" xlink:href="#mf4caed03db" y="189.040828"/>
     <use style="stroke:#000000;" x="351.792001" xlink:href="#mf4caed03db" y="156.618439"/>
     <use style="stroke:#000000;" x="353.831288" xlink:href="#mf4caed03db" y="172.047134"/>
     <use style="stroke:#000000;" x="355.870576" xlink:href="#mf4caed03db" y="122.065058"/>
     <use style="stroke:#000000;" x="357.909863" xlink:href="#mf4caed03db" y="151.32674"/>
     <use style="stroke:#000000;" x="359.94915" xlink:href="#mf4caed03db" y="133.205061"/>
     <use style="stroke:#000000;" x="361.988438" xlink:href="#mf4caed03db" y="103.234547"/>
     <use style="stroke:#000000;" x="364.027725" xlink:href="#mf4caed03db" y="125.924582"/>
     <use style="stroke:#000000;" x="366.067013" xlink:href="#mf4caed03db" y="90.013838"/>
     <use style="stroke:#000000;" x="368.1063" xlink:href="#mf4caed03db" y="60.524414"/>
     <use style="stroke:#000000;" x="370.145587" xlink:href="#mf4caed03db" y="98.065551"/>
     <use style="stroke:#000000;" x="372.184875" xlink:href="#mf4caed03db" y="57.757959"/>
     <use style="stroke:#000000;" x="374.224162" xlink:href="#mf4caed03db" y="47.068394"/>
     <use style="stroke:#000000;" x="376.263449" xlink:href="#mf4caed03db" y="30.177255"/>
     <use style="stroke:#000000;" x="378.302737" xlink:href="#mf4caed03db" y="57.180394"/>
     <use style="stroke:#000000;" x="380.342024" xlink:href="#mf4caed03db" y="53.613362"/>
     <use style="stroke:#000000;" x="382.381311" xlink:href="#mf4caed03db" y="19.8"/>
     <use style="stroke:#000000;" x="384.420599" xlink:href="#mf4caed03db" y="22.477972"/>
     <use style="stroke:#000000;" x="386.459886" xlink:href="#mf4caed03db" y="24.228074"/>
     <use style="stroke:#000000;" x="388.499173" xlink:href="#mf4caed03db" y="25.639144"/>
     <use style="stroke:#000000;" x="390.538461" xlink:href="#mf4caed03db" y="47.740378"/>
     <use style="stroke:#000000;" x="392.577748" xlink:href="#mf4caed03db" y="39.324218"/>
     <use style="stroke:#000000;" x="394.617035" xlink:href="#mf4caed03db" y="46.758747"/>
     <use style="stroke:#000000;" x="396.656323" xlink:href="#mf4caed03db" y="73.432827"/>
     <use style="stroke:#000000;" x="398.69561" xlink:href="#mf4caed03db" y="41.406815"/>
     <use style="stroke:#000000;" x="400.734897" xlink:href="#mf4caed03db" y="76.529081"/>
     <use style="stroke:#000000;" x="402.774185" xlink:href="#mf4caed03db" y="116.797761"/>
     <use style="stroke:#000000;" x="404.813472" xlink:href="#mf4caed03db" y="98.758078"/>
     <use style="stroke:#000000;" x="406.852759" xlink:href="#mf4caed03db" y="138.800057"/>
     <use style="stroke:#000000;" x="408.892047" xlink:href="#mf4caed03db" y="122.020412"/>
     <use style="stroke:#000000;" x="410.931334" xlink:href="#mf4caed03db" y="128.01045"/>
     <use style="stroke:#000000;" x="412.970621" xlink:href="#mf4caed03db" y="172.616942"/>
     <use style="stroke:#000000;" x="415.009909" xlink:href="#mf4caed03db" y="153.687853"/>
     <use style="stroke:#000000;" x="417.049196" xlink:href="#mf4caed03db" y="172.863208"/>
     <use style="stroke:#000000;" x="419.088483" xlink:href="#mf4caed03db" y="175.111075"/>
     <use style="stroke:#000000;" x="421.127771" xlink:href="#mf4caed03db" y="165.314025"/>
     <use style="stroke:#000000;" x="423.167058" xlink:href="#mf4caed03db" y="208.248317"/>
     <use style="stroke:#000000;" x="425.206346" xlink:href="#mf4caed03db" y="223.008179"/>
     <use style="stroke:#000000;" x="427.245633" xlink:href="#mf4caed03db" y="230.684144"/>
     <use style="stroke:#000000;" x="429.28492" xlink:href="#mf4caed03db" y="234.059359"/>
     <use style="stroke:#000000;" x="431.324208" xlink:href="#mf4caed03db" y="225.605885"/>
     <use style="stroke:#000000;" x="433.363495" xlink:href="#mf4caed03db" y="221.843415"/>
     <use style="stroke:#000000;" x="435.402782" xlink:href="#mf4caed03db" y="225.558636"/>
     <use style="stroke:#000000;" x="437.44207" xlink:href="#mf4caed03db" y="218.515439"/>
     <use style="stroke:#000000;" x="439.481357" xlink:href="#mf4caed03db" y="233.816933"/>
     <use style="stroke:#000000;" x="441.520644" xlink:href="#mf4caed03db" y="211.143748"/>
     <use style="stroke:#000000;" x="443.559932" xlink:href="#mf4caed03db" y="240.877975"/>
     <use style="stroke:#000000;" x="445.599219" xlink:href="#mf4caed03db" y="191.904627"/>
     <use style="stroke:#000000;" x="447.638506" xlink:href="#mf4caed03db" y="227.484202"/>
     <use style="stroke:#000000;" x="449.677794" xlink:href="#mf4caed03db" y="252.704862"/>
     <use style="stroke:#000000;" x="451.717081" xlink:href="#mf4caed03db" y="256.631141"/>
     <use style="stroke:#000000;" x="453.756368" xlink:href="#mf4caed03db" y="230.98116"/>
     <use style="stroke:#000000;" x="455.795656" xlink:href="#mf4caed03db" y="242.955342"/>
     <use style="stroke:#000000;" x="457.834943" xlink:href="#mf4caed03db" y="227.456502"/>
     <use style="stroke:#000000;" x="459.87423" xlink:href="#mf4caed03db" y="231.5757"/>
     <use style="stroke:#000000;" x="461.913518" xlink:href="#mf4caed03db" y="240.759185"/>
     <use style="stroke:#000000;" x="463.952805" xlink:href="#mf4caed03db" y="253.723503"/>
     <use style="stroke:#000000;" x="465.992092" xlink:href="#mf4caed03db" y="264.905229"/>
     <use style="stroke:#000000;" x="468.03138" xlink:href="#mf4caed03db" y="247.105165"/>
     <use style="stroke:#000000;" x="470.070667" xlink:href="#mf4caed03db" y="225.383442"/>
     <use style="stroke:#000000;" x="472.109954" xlink:href="#mf4caed03db" y="236.111315"/>
     <use style="stroke:#000000;" x="474.149242" xlink:href="#mf4caed03db" y="260.475496"/>
     <use style="stroke:#000000;" x="476.188529" xlink:href="#mf4caed03db" y="236.806565"/>
     <use style="stroke:#000000;" x="478.227817" xlink:href="#mf4caed03db" y="233.270499"/>
     <use style="stroke:#000000;" x="480.267104" xlink:href="#mf4caed03db" y="254.448232"/>
     <use style="stroke:#000000;" x="482.306391" xlink:href="#mf4caed03db" y="237.138093"/>
     <use style="stroke:#000000;" x="484.345679" xlink:href="#mf4caed03db" y="238.732651"/>
     <use style="stroke:#000000;" x="486.384966" xlink:href="#mf4caed03db" y="258.774321"/>
    </g>
   </g>
   <g id="line2d_18">
    <path clip-path="url(#p9006092215)" d="M 80.566784 239.704876 
L 131.548968 239.596578 
L 145.823979 239.35206 
L 156.020416 238.941943 
L 164.177565 238.349999 
L 170.295427 237.671584 
L 176.413289 236.717462 
L 180.491864 235.889092 
L 184.570439 234.87665 
L 188.649013 233.65275 
L 192.727588 232.189585 
L 196.806163 230.459985 
L 200.884737 228.438702 
L 204.963312 226.103898 
L 209.041887 223.438787 
L 213.120462 220.43337 
L 217.199036 217.086167 
L 221.277611 213.405846 
L 225.356186 209.412627 
L 229.43476 205.139346 
L 235.552622 198.30865 
L 245.749059 186.360312 
L 251.866921 179.320015 
L 255.945496 174.883216 
L 260.024071 170.771056 
L 264.102645 167.083464 
L 268.18122 163.913954 
L 270.220507 162.549974 
L 272.259795 161.345689 
L 274.299082 160.30928 
L 276.338369 159.447855 
L 278.377657 158.767365 
L 280.416944 158.272531 
L 282.456231 157.966786 
L 284.495519 157.852229 
L 286.534806 157.929589 
L 288.574093 158.198205 
L 290.613381 158.656011 
L 292.652668 159.299526 
L 294.691955 160.12386 
L 296.731243 161.122701 
L 298.77053 162.28831 
L 300.809817 163.611494 
L 304.888392 166.686226 
L 308.966967 170.241544 
L 313.045542 174.141427 
L 321.202691 182.218394 
L 325.281266 185.865445 
L 327.320553 187.435258 
L 329.35984 188.760145 
L 331.399128 189.774872 
L 333.438415 190.407663 
L 335.477702 190.580835 
L 337.51699 190.211988 
L 339.556277 189.21583 
L 341.595564 187.506694 
L 343.634852 185.001797 
L 345.674139 181.625185 
L 347.713426 177.312307 
L 349.752714 172.015037 
L 351.792001 165.706936 
L 353.831288 158.388441 
L 355.870576 150.09163 
L 357.909863 140.884182 
L 359.94915 130.872116 
L 364.027725 109.054867 
L 370.145587 75.113922 
L 372.184875 64.537163 
L 374.224162 54.810225 
L 376.263449 46.216164 
L 378.302737 39.017337 
L 380.342024 33.443578 
L 382.381311 29.681483 
L 384.420599 27.865508 
L 386.459886 28.071479 
L 388.499173 30.31295 
L 390.538461 34.540674 
L 392.577748 40.645205 
L 394.617035 48.462464 
L 396.656323 57.781873 
L 398.69561 68.356504 
L 400.734897 79.914574 
L 404.813472 104.842071 
L 410.931334 142.693612 
L 412.970621 154.506972 
L 415.009909 165.628342 
L 417.049196 175.940733 
L 419.088483 185.365284 
L 421.127771 193.858951 
L 423.167058 201.410861 
L 425.206346 208.037733 
L 427.245633 213.778753 
L 429.28492 218.690292 
L 431.324208 222.840764 
L 433.363495 226.305893 
L 435.402782 229.16456 
L 437.44207 231.495343 
L 439.481357 233.373791 
L 441.520644 234.870424 
L 443.559932 236.049402 
L 445.599219 236.967785 
L 447.638506 237.675273 
L 449.677794 238.214341 
L 453.756368 238.923602 
L 457.834943 239.310315 
L 463.952805 239.572359 
L 474.149242 239.686533 
L 486.384966 239.703724 
L 486.384966 239.703724 
" style="fill:none;stroke:#e24a33;stroke-linecap:square;stroke-width:1.7;"/>
   </g>
   <g id="patch_3">
    <path d="M 60.275875 284.4 
L 60.275875 7.2 
" style="fill:none;stroke:#aaaaaa;stroke-linecap:square;stroke-linejoin:miter;"/>
   </g>
   <g id="patch_4">
    <path d="M 506.675875 284.4 
L 506.675875 7.2 
" style="fill:none;stroke:#aaaaaa;stroke-linecap:square;stroke-linejoin:miter;"/>
   </g>
   <g id="patch_5">
    <path d="M 60.275875 284.4 
L 506.675875 284.4 
" style="fill:none;stroke:#aaaaaa;stroke-linecap:square;stroke-linejoin:miter;"/>
   </g>
   <g id="patch_6">
    <path d="M 60.275875 7.2 
L 506.675875 7.2 
" style="fill:none;stroke:#aaaaaa;stroke-linecap:square;stroke-linejoin:miter;"/>
   </g>
  </g>
 </g>
 <defs>
  <clipPath id="p9006092215">
   <rect height="277.2" width="446.4" x="60.275875" y="7.2"/>
  </clipPath>
 </defs>
</svg>
