<?xml version="1.0" encoding="utf-8" standalone="no"?>
<!DOCTYPE svg PUBLIC "-//W3C//DTD SVG 1.1//EN"
  "http://www.w3.org/Graphics/SVG/1.1/DTD/svg11.dtd">
<!-- Created with matplotlib (http://matplotlib.org/) -->
<svg height="328pt" version="1.1" viewBox="0 0 513 328" width="513pt" xmlns="http://www.w3.org/2000/svg" xmlns:xlink="http://www.w3.org/1999/xlink">
 <defs>
  <style type="text/css">
*{stroke-linecap:butt;stroke-linejoin:round;}
  </style>
 </defs>
 <g id="figure_1">
  <g id="patch_1">
   <path d="M 0 328.618125 
L 513.875875 328.618125 
L 513.875875 0 
L 0 0 
z
" style="fill:none;"/>
  </g>
  <g id="axes_1">
   <g id="patch_2">
    <path d="M 60.275875 285.867875 
L 506.675875 285.867875 
L 506.675875 8.667875 
L 60.275875 8.667875 
z
" style="fill:#ffffff;"/>
   </g>
   <g id="matplotlib.axis_1">
    <g id="xtick_1">
     <g id="line2d_1"/>
     <g id="text_1">
      <!-- −4 -->
      <defs>
       <path d="M 10.59375 35.5 
L 73.1875 35.5 
L 73.1875 27.203125 
L 10.59375 27.203125 
z
" id="DejaVuSans-2212"/>
       <path d="M 37.796875 64.3125 
L 12.890625 25.390625 
L 37.796875 25.390625 
z
M 35.203125 72.90625 
L 47.609375 72.90625 
L 47.609375 25.390625 
L 58.015625 25.390625 
L 58.015625 17.1875 
L 47.609375 17.1875 
L 47.609375 0 
L 37.796875 0 
L 37.796875 17.1875 
L 4.890625 17.1875 
L 4.890625 26.703125 
z
" id="DejaVuSans-34"/>
      </defs>
      <g style="fill:#565656;" transform="translate(112.30329 300.986)scale(0.12 -0.12)">
       <use xlink:href="#DejaVuSans-2212"/>
       <use x="83.789062" xlink:href="#DejaVuSans-34"/>
      </g>
     </g>
    </g>
    <g id="xtick_2">
     <g id="line2d_2"/>
     <g id="text_2">
      <!-- −2 -->
      <defs>
       <path d="M 19.1875 8.296875 
L 53.609375 8.296875 
L 53.609375 0 
L 7.328125 0 
L 7.328125 8.296875 
Q 12.9375 14.109375 22.625 23.890625 
Q 32.328125 33.6875 34.8125 36.53125 
Q 39.546875 41.84375 41.421875 45.53125 
Q 43.3125 49.21875 43.3125 52.78125 
Q 43.3125 58.59375 39.234375 62.25 
Q 35.15625 65.921875 28.609375 65.921875 
Q 23.96875 65.921875 18.8125 64.3125 
Q 13.671875 62.703125 7.8125 59.421875 
L 7.8125 69.390625 
Q 13.765625 71.78125 18.9375 73 
Q 24.125 74.21875 28.421875 74.21875 
Q 39.75 74.21875 46.484375 68.546875 
Q 53.21875 62.890625 53.21875 53.421875 
Q 53.21875 48.921875 51.53125 44.890625 
Q 49.859375 40.875 45.40625 35.40625 
Q 44.1875 33.984375 37.640625 27.21875 
Q 31.109375 20.453125 19.1875 8.296875 
" id="DejaVuSans-32"/>
      </defs>
      <g style="fill:#565656;" transform="translate(193.466926 300.986)scale(0.12 -0.12)">
       <use xlink:href="#DejaVuSans-2212"/>
       <use x="83.789062" xlink:href="#DejaVuSans-32"/>
      </g>
     </g>
    </g>
    <g id="xtick_3">
     <g id="line2d_3"/>
     <g id="text_3">
      <!-- 0 -->
      <defs>
       <path d="M 31.78125 66.40625 
Q 24.171875 66.40625 20.328125 58.90625 
Q 16.5 51.421875 16.5 36.375 
Q 16.5 21.390625 20.328125 13.890625 
Q 24.171875 6.390625 31.78125 6.390625 
Q 39.453125 6.390625 43.28125 13.890625 
Q 47.125 21.390625 47.125 36.375 
Q 47.125 51.421875 43.28125 58.90625 
Q 39.453125 66.40625 31.78125 66.40625 
M 31.78125 74.21875 
Q 44.046875 74.21875 50.515625 64.515625 
Q 56.984375 54.828125 56.984375 36.375 
Q 56.984375 17.96875 50.515625 8.265625 
Q 44.046875 -1.421875 31.78125 -1.421875 
Q 19.53125 -1.421875 13.0625 8.265625 
Q 6.59375 17.96875 6.59375 36.375 
Q 6.59375 54.828125 13.0625 64.515625 
Q 19.53125 74.21875 31.78125 74.21875 
" id="DejaVuSans-30"/>
      </defs>
      <g style="fill:#565656;" transform="translate(279.658375 300.986)scale(0.12 -0.12)">
       <use xlink:href="#DejaVuSans-30"/>
      </g>
     </g>
    </g>
    <g id="xtick_4">
     <g id="line2d_4"/>
     <g id="text_4">
      <!-- 2 -->
      <g style="fill:#565656;" transform="translate(360.822011 300.986)scale(0.12 -0.12)">
       <use xlink:href="#DejaVuSans-32"/>
      </g>
     </g>
    </g>
    <g id="xtick_5">
     <g id="line2d_5"/>
     <g id="text_5">
      <!-- 4 -->
      <g style="fill:#565656;" transform="translate(441.985648 300.986)scale(0.12 -0.12)">
       <use xlink:href="#DejaVuSans-34"/>
      </g>
     </g>
    </g>
    <g id="text_6">
     <!-- Position -->
     <defs>
      <path d="M 19.671875 64.796875 
L 19.671875 37.40625 
L 32.078125 37.40625 
Q 38.96875 37.40625 42.71875 40.96875 
Q 46.484375 44.53125 46.484375 51.125 
Q 46.484375 57.671875 42.71875 61.234375 
Q 38.96875 64.796875 32.078125 64.796875 
z
M 9.8125 72.90625 
L 32.078125 72.90625 
Q 44.34375 72.90625 50.609375 67.359375 
Q 56.890625 61.8125 56.890625 51.125 
Q 56.890625 40.328125 50.609375 34.8125 
Q 44.34375 29.296875 32.078125 29.296875 
L 19.671875 29.296875 
L 19.671875 0 
L 9.8125 0 
z
" id="DejaVuSans-50"/>
      <path d="M 30.609375 48.390625 
Q 23.390625 48.390625 19.1875 42.75 
Q 14.984375 37.109375 14.984375 27.296875 
Q 14.984375 17.484375 19.15625 11.84375 
Q 23.34375 6.203125 30.609375 6.203125 
Q 37.796875 6.203125 41.984375 11.859375 
Q 46.1875 17.53125 46.1875 27.296875 
Q 46.1875 37.015625 41.984375 42.703125 
Q 37.796875 48.390625 30.609375 48.390625 
M 30.609375 56 
Q 42.328125 56 49.015625 48.375 
Q 55.71875 40.765625 55.71875 27.296875 
Q 55.71875 13.875 49.015625 6.21875 
Q 42.328125 -1.421875 30.609375 -1.421875 
Q 18.84375 -1.421875 12.171875 6.21875 
Q 5.515625 13.875 5.515625 27.296875 
Q 5.515625 40.765625 12.171875 48.375 
Q 18.84375 56 30.609375 56 
" id="DejaVuSans-6f"/>
      <path d="M 44.28125 53.078125 
L 44.28125 44.578125 
Q 40.484375 46.53125 36.375 47.5 
Q 32.28125 48.484375 27.875 48.484375 
Q 21.1875 48.484375 17.84375 46.4375 
Q 14.5 44.390625 14.5 40.28125 
Q 14.5 37.15625 16.890625 35.375 
Q 19.28125 33.59375 26.515625 31.984375 
L 29.59375 31.296875 
Q 39.15625 29.25 43.1875 25.515625 
Q 47.21875 21.78125 47.21875 15.09375 
Q 47.21875 7.46875 41.1875 3.015625 
Q 35.15625 -1.421875 24.609375 -1.421875 
Q 20.21875 -1.421875 15.453125 -0.5625 
Q 10.6875 0.296875 5.421875 2 
L 5.421875 11.28125 
Q 10.40625 8.6875 15.234375 7.390625 
Q 20.0625 6.109375 24.8125 6.109375 
Q 31.15625 6.109375 34.5625 8.28125 
Q 37.984375 10.453125 37.984375 14.40625 
Q 37.984375 18.0625 35.515625 20.015625 
Q 33.0625 21.96875 24.703125 23.78125 
L 21.578125 24.515625 
Q 13.234375 26.265625 9.515625 29.90625 
Q 5.8125 33.546875 5.8125 39.890625 
Q 5.8125 47.609375 11.28125 51.796875 
Q 16.75 56 26.8125 56 
Q 31.78125 56 36.171875 55.265625 
Q 40.578125 54.546875 44.28125 53.078125 
" id="DejaVuSans-73"/>
      <path d="M 9.421875 54.6875 
L 18.40625 54.6875 
L 18.40625 0 
L 9.421875 0 
z
M 9.421875 75.984375 
L 18.40625 75.984375 
L 18.40625 64.59375 
L 9.421875 64.59375 
z
" id="DejaVuSans-69"/>
      <path d="M 18.3125 70.21875 
L 18.3125 54.6875 
L 36.8125 54.6875 
L 36.8125 47.703125 
L 18.3125 47.703125 
L 18.3125 18.015625 
Q 18.3125 11.328125 20.140625 9.421875 
Q 21.96875 7.515625 27.59375 7.515625 
L 36.8125 7.515625 
L 36.8125 0 
L 27.59375 0 
Q 17.1875 0 13.234375 3.875 
Q 9.28125 7.765625 9.28125 18.015625 
L 9.28125 47.703125 
L 2.6875 47.703125 
L 2.6875 54.6875 
L 9.28125 54.6875 
L 9.28125 70.21875 
z
" id="DejaVuSans-74"/>
      <path d="M 54.890625 33.015625 
L 54.890625 0 
L 45.90625 0 
L 45.90625 32.71875 
Q 45.90625 40.484375 42.875 44.328125 
Q 39.84375 48.1875 33.796875 48.1875 
Q 26.515625 48.1875 22.3125 43.546875 
Q 18.109375 38.921875 18.109375 30.90625 
L 18.109375 0 
L 9.078125 0 
L 9.078125 54.6875 
L 18.109375 54.6875 
L 18.109375 46.1875 
Q 21.34375 51.125 25.703125 53.5625 
Q 30.078125 56 35.796875 56 
Q 45.21875 56 50.046875 50.171875 
Q 54.890625 44.34375 54.890625 33.015625 
" id="DejaVuSans-6e"/>
     </defs>
     <g transform="translate(255.19 318.423375)scale(0.144 -0.144)">
      <use xlink:href="#DejaVuSans-50"/>
      <use x="60.255859" xlink:href="#DejaVuSans-6f"/>
      <use x="121.4375" xlink:href="#DejaVuSans-73"/>
      <use x="173.537109" xlink:href="#DejaVuSans-69"/>
      <use x="201.320312" xlink:href="#DejaVuSans-74"/>
      <use x="240.529297" xlink:href="#DejaVuSans-69"/>
      <use x="268.3125" xlink:href="#DejaVuSans-6f"/>
      <use x="329.494141" xlink:href="#DejaVuSans-6e"/>
     </g>
    </g>
   </g>
   <g id="matplotlib.axis_2">
    <g id="ytick_1">
     <g id="line2d_6"/>
     <g id="text_7">
      <!-- −0.5 -->
      <defs>
       <path d="M 10.6875 12.40625 
L 21 12.40625 
L 21 0 
L 10.6875 0 
z
" id="DejaVuSans-2e"/>
       <path d="M 10.796875 72.90625 
L 49.515625 72.90625 
L 49.515625 64.59375 
L 19.828125 64.59375 
L 19.828125 46.734375 
Q 21.96875 47.46875 24.109375 47.828125 
Q 26.265625 48.1875 28.421875 48.1875 
Q 40.625 48.1875 47.75 41.5 
Q 54.890625 34.8125 54.890625 23.390625 
Q 54.890625 11.625 47.5625 5.09375 
Q 40.234375 -1.421875 26.90625 -1.421875 
Q 22.3125 -1.421875 17.546875 -0.640625 
Q 12.796875 0.140625 7.71875 1.703125 
L 7.71875 11.625 
Q 12.109375 9.234375 16.796875 8.0625 
Q 21.484375 6.890625 26.703125 6.890625 
Q 35.15625 6.890625 40.078125 11.328125 
Q 45.015625 15.765625 45.015625 23.390625 
Q 45.015625 31 40.078125 35.4375 
Q 35.15625 39.890625 26.703125 39.890625 
Q 22.75 39.890625 18.8125 39.015625 
Q 14.890625 38.140625 10.796875 36.28125 
z
" id="DejaVuSans-35"/>
      </defs>
      <g style="fill:#565656;" transform="translate(25.1365 277.135903)scale(0.12 -0.12)">
       <use xlink:href="#DejaVuSans-2212"/>
       <use x="83.789062" xlink:href="#DejaVuSans-30"/>
       <use x="147.412109" xlink:href="#DejaVuSans-2e"/>
       <use x="179.199219" xlink:href="#DejaVuSans-35"/>
      </g>
     </g>
    </g>
    <g id="ytick_2">
     <g id="line2d_7"/>
     <g id="text_8">
      <!-- 0.0 -->
      <g style="fill:#565656;" transform="translate(35.192125 244.533681)scale(0.12 -0.12)">
       <use xlink:href="#DejaVuSans-30"/>
       <use x="63.623047" xlink:href="#DejaVuSans-2e"/>
       <use x="95.410156" xlink:href="#DejaVuSans-30"/>
      </g>
     </g>
    </g>
    <g id="ytick_3">
     <g id="line2d_8"/>
     <g id="text_9">
      <!-- 0.5 -->
      <g style="fill:#565656;" transform="translate(35.192125 211.931459)scale(0.12 -0.12)">
       <use xlink:href="#DejaVuSans-30"/>
       <use x="63.623047" xlink:href="#DejaVuSans-2e"/>
       <use x="95.410156" xlink:href="#DejaVuSans-35"/>
      </g>
     </g>
    </g>
    <g id="ytick_4">
     <g id="line2d_9"/>
     <g id="text_10">
      <!-- 1.0 -->
      <defs>
       <path d="M 12.40625 8.296875 
L 28.515625 8.296875 
L 28.515625 63.921875 
L 10.984375 60.40625 
L 10.984375 69.390625 
L 28.421875 72.90625 
L 38.28125 72.90625 
L 38.28125 8.296875 
L 54.390625 8.296875 
L 54.390625 0 
L 12.40625 0 
z
" id="DejaVuSans-31"/>
      </defs>
      <g style="fill:#565656;" transform="translate(35.192125 179.329236)scale(0.12 -0.12)">
       <use xlink:href="#DejaVuSans-31"/>
       <use x="63.623047" xlink:href="#DejaVuSans-2e"/>
       <use x="95.410156" xlink:href="#DejaVuSans-30"/>
      </g>
     </g>
    </g>
    <g id="ytick_5">
     <g id="line2d_10"/>
     <g id="text_11">
      <!-- 1.5 -->
      <g style="fill:#565656;" transform="translate(35.192125 146.727014)scale(0.12 -0.12)">
       <use xlink:href="#DejaVuSans-31"/>
       <use x="63.623047" xlink:href="#DejaVuSans-2e"/>
       <use x="95.410156" xlink:href="#DejaVuSans-35"/>
      </g>
     </g>
    </g>
    <g id="ytick_6">
     <g id="line2d_11"/>
     <g id="text_12">
      <!-- 2.0 -->
      <g style="fill:#565656;" transform="translate(35.192125 114.124792)scale(0.12 -0.12)">
       <use xlink:href="#DejaVuSans-32"/>
       <use x="63.623047" xlink:href="#DejaVuSans-2e"/>
       <use x="95.410156" xlink:href="#DejaVuSans-30"/>
      </g>
     </g>
    </g>
    <g id="ytick_7">
     <g id="line2d_12"/>
     <g id="text_13">
      <!-- 2.5 -->
      <g style="fill:#565656;" transform="translate(35.192125 81.52257)scale(0.12 -0.12)">
       <use xlink:href="#DejaVuSans-32"/>
       <use x="63.623047" xlink:href="#DejaVuSans-2e"/>
       <use x="95.410156" xlink:href="#DejaVuSans-35"/>
      </g>
     </g>
    </g>
    <g id="ytick_8">
     <g id="line2d_13"/>
     <g id="text_14">
      <!-- 3.0 -->
      <defs>
       <path d="M 40.578125 39.3125 
Q 47.65625 37.796875 51.625 33 
Q 55.609375 28.21875 55.609375 21.1875 
Q 55.609375 10.40625 48.1875 4.484375 
Q 40.765625 -1.421875 27.09375 -1.421875 
Q 22.515625 -1.421875 17.65625 -0.515625 
Q 12.796875 0.390625 7.625 2.203125 
L 7.625 11.71875 
Q 11.71875 9.328125 16.59375 8.109375 
Q 21.484375 6.890625 26.8125 6.890625 
Q 36.078125 6.890625 40.9375 10.546875 
Q 45.796875 14.203125 45.796875 21.1875 
Q 45.796875 27.640625 41.28125 31.265625 
Q 36.765625 34.90625 28.71875 34.90625 
L 20.21875 34.90625 
L 20.21875 43.015625 
L 29.109375 43.015625 
Q 36.375 43.015625 40.234375 45.921875 
Q 44.09375 48.828125 44.09375 54.296875 
Q 44.09375 59.90625 40.109375 62.90625 
Q 36.140625 65.921875 28.71875 65.921875 
Q 24.65625 65.921875 20.015625 65.03125 
Q 15.375 64.15625 9.8125 62.3125 
L 9.8125 71.09375 
Q 15.4375 72.65625 20.34375 73.4375 
Q 25.25 74.21875 29.59375 74.21875 
Q 40.828125 74.21875 47.359375 69.109375 
Q 53.90625 64.015625 53.90625 55.328125 
Q 53.90625 49.265625 50.4375 45.09375 
Q 46.96875 40.921875 40.578125 39.3125 
" id="DejaVuSans-33"/>
      </defs>
      <g style="fill:#565656;" transform="translate(35.192125 48.920347)scale(0.12 -0.12)">
       <use xlink:href="#DejaVuSans-33"/>
       <use x="63.623047" xlink:href="#DejaVuSans-2e"/>
       <use x="95.410156" xlink:href="#DejaVuSans-30"/>
      </g>
     </g>
    </g>
    <g id="ytick_9">
     <g id="line2d_14"/>
     <g id="text_15">
      <!-- 3.5 -->
      <g style="fill:#565656;" transform="translate(35.192125 16.318125)scale(0.12 -0.12)">
       <use xlink:href="#DejaVuSans-33"/>
       <use x="63.623047" xlink:href="#DejaVuSans-2e"/>
       <use x="95.410156" xlink:href="#DejaVuSans-35"/>
      </g>
     </g>
    </g>
    <g id="text_16">
     <!-- Flux -->
     <defs>
      <path d="M 9.8125 72.90625 
L 51.703125 72.90625 
L 51.703125 64.59375 
L 19.671875 64.59375 
L 19.671875 43.109375 
L 48.578125 43.109375 
L 48.578125 34.8125 
L 19.671875 34.8125 
L 19.671875 0 
L 9.8125 0 
z
" id="DejaVuSans-46"/>
      <path d="M 9.421875 75.984375 
L 18.40625 75.984375 
L 18.40625 0 
L 9.421875 0 
z
" id="DejaVuSans-6c"/>
      <path d="M 8.5 21.578125 
L 8.5 54.6875 
L 17.484375 54.6875 
L 17.484375 21.921875 
Q 17.484375 14.15625 20.5 10.265625 
Q 23.53125 6.390625 29.59375 6.390625 
Q 36.859375 6.390625 41.078125 11.03125 
Q 45.3125 15.671875 45.3125 23.6875 
L 45.3125 54.6875 
L 54.296875 54.6875 
L 54.296875 0 
L 45.3125 0 
L 45.3125 8.40625 
Q 42.046875 3.421875 37.71875 1 
Q 33.40625 -1.421875 27.6875 -1.421875 
Q 18.265625 -1.421875 13.375 4.4375 
Q 8.5 10.296875 8.5 21.578125 
M 31.109375 56 
z
" id="DejaVuSans-75"/>
      <path d="M 54.890625 54.6875 
L 35.109375 28.078125 
L 55.90625 0 
L 45.3125 0 
L 29.390625 21.484375 
L 13.484375 0 
L 2.875 0 
L 24.125 28.609375 
L 4.6875 54.6875 
L 15.28125 54.6875 
L 29.78125 35.203125 
L 44.28125 54.6875 
z
" id="DejaVuSans-78"/>
     </defs>
     <g transform="translate(18.14175 162.23375)rotate(-90)scale(0.144 -0.144)">
      <use xlink:href="#DejaVuSans-46"/>
      <use x="57.519531" xlink:href="#DejaVuSans-6c"/>
      <use x="85.302734" xlink:href="#DejaVuSans-75"/>
      <use x="148.681641" xlink:href="#DejaVuSans-78"/>
     </g>
    </g>
   </g>
   <g id="line2d_15">
    <defs>
     <path d="M 0 3 
C 0.795609 3 1.55874 2.683901 2.12132 2.12132 
C 2.683901 1.55874 3 0.795609 3 0 
C 3 -0.795609 2.683901 -1.55874 2.12132 -2.12132 
C 1.55874 -2.683901 0.795609 -3 0 -3 
C -0.795609 -3 -1.55874 -2.683901 -2.12132 -2.12132 
C -2.683901 -1.55874 -3 -0.795609 -3 0 
C -3 0.795609 -2.683901 1.55874 -2.12132 2.12132 
C -1.55874 2.683901 -0.795609 3 0 3 
z
" id="mcb6217ca04" style="stroke:#000000;"/>
    </defs>
    <g clip-path="url(#p312be0158c)">
     <use style="stroke:#000000;" x="80.566784" xlink:href="#mcb6217ca04" y="216.969808"/>
     <use style="stroke:#000000;" x="82.606071" xlink:href="#mcb6217ca04" y="234.756213"/>
     <use style="stroke:#000000;" x="84.645359" xlink:href="#mcb6217ca04" y="227.211005"/>
     <use style="stroke:#000000;" x="86.684646" xlink:href="#mcb6217ca04" y="210.751379"/>
     <use style="stroke:#000000;" x="88.723933" xlink:href="#mcb6217ca04" y="215.620002"/>
     <use style="stroke:#000000;" x="90.763221" xlink:href="#mcb6217ca04" y="252.719191"/>
     <use style="stroke:#000000;" x="92.802508" xlink:href="#mcb6217ca04" y="227.584621"/>
     <use style="stroke:#000000;" x="94.841796" xlink:href="#mcb6217ca04" y="241.948451"/>
     <use style="stroke:#000000;" x="96.881083" xlink:href="#mcb6217ca04" y="241.320684"/>
     <use style="stroke:#000000;" x="98.92037" xlink:href="#mcb6217ca04" y="234.620049"/>
     <use style="stroke:#000000;" x="100.959658" xlink:href="#mcb6217ca04" y="238.096162"/>
     <use style="stroke:#000000;" x="102.998945" xlink:href="#mcb6217ca04" y="221.009599"/>
     <use style="stroke:#000000;" x="105.038232" xlink:href="#mcb6217ca04" y="230.05001"/>
     <use style="stroke:#000000;" x="107.07752" xlink:href="#mcb6217ca04" y="238.387868"/>
     <use style="stroke:#000000;" x="109.116807" xlink:href="#mcb6217ca04" y="234.186247"/>
     <use style="stroke:#000000;" x="111.156094" xlink:href="#mcb6217ca04" y="235.623209"/>
     <use style="stroke:#000000;" x="113.195382" xlink:href="#mcb6217ca04" y="220.490499"/>
     <use style="stroke:#000000;" x="115.234669" xlink:href="#mcb6217ca04" y="242.650065"/>
     <use style="stroke:#000000;" x="117.273956" xlink:href="#mcb6217ca04" y="235.891937"/>
     <use style="stroke:#000000;" x="119.313244" xlink:href="#mcb6217ca04" y="251.112786"/>
     <use style="stroke:#000000;" x="121.352531" xlink:href="#mcb6217ca04" y="273.267875"/>
     <use style="stroke:#000000;" x="123.391818" xlink:href="#mcb6217ca04" y="231.450851"/>
     <use style="stroke:#000000;" x="125.431106" xlink:href="#mcb6217ca04" y="228.701602"/>
     <use style="stroke:#000000;" x="127.470393" xlink:href="#mcb6217ca04" y="249.65311"/>
     <use style="stroke:#000000;" x="129.50968" xlink:href="#mcb6217ca04" y="210.375"/>
     <use style="stroke:#000000;" x="131.548968" xlink:href="#mcb6217ca04" y="258.940839"/>
     <use style="stroke:#000000;" x="133.588255" xlink:href="#mcb6217ca04" y="239.377886"/>
     <use style="stroke:#000000;" x="135.627542" xlink:href="#mcb6217ca04" y="242.415661"/>
     <use style="stroke:#000000;" x="137.66683" xlink:href="#mcb6217ca04" y="219.985814"/>
     <use style="stroke:#000000;" x="139.706117" xlink:href="#mcb6217ca04" y="220.812872"/>
     <use style="stroke:#000000;" x="141.745404" xlink:href="#mcb6217ca04" y="237.953963"/>
     <use style="stroke:#000000;" x="143.784692" xlink:href="#mcb6217ca04" y="235.043039"/>
     <use style="stroke:#000000;" x="145.823979" xlink:href="#mcb6217ca04" y="251.552127"/>
     <use style="stroke:#000000;" x="147.863267" xlink:href="#mcb6217ca04" y="265.805956"/>
     <use style="stroke:#000000;" x="149.902554" xlink:href="#mcb6217ca04" y="244.511688"/>
     <use style="stroke:#000000;" x="151.941841" xlink:href="#mcb6217ca04" y="237.935669"/>
     <use style="stroke:#000000;" x="153.981129" xlink:href="#mcb6217ca04" y="223.930506"/>
     <use style="stroke:#000000;" x="156.020416" xlink:href="#mcb6217ca04" y="224.294477"/>
     <use style="stroke:#000000;" x="158.059703" xlink:href="#mcb6217ca04" y="245.025648"/>
     <use style="stroke:#000000;" x="160.098991" xlink:href="#mcb6217ca04" y="243.916836"/>
     <use style="stroke:#000000;" x="162.138278" xlink:href="#mcb6217ca04" y="253.64857"/>
     <use style="stroke:#000000;" x="164.177565" xlink:href="#mcb6217ca04" y="258.492759"/>
     <use style="stroke:#000000;" x="166.216853" xlink:href="#mcb6217ca04" y="262.225682"/>
     <use style="stroke:#000000;" x="168.25614" xlink:href="#mcb6217ca04" y="214.534472"/>
     <use style="stroke:#000000;" x="170.295427" xlink:href="#mcb6217ca04" y="246.62052"/>
     <use style="stroke:#000000;" x="172.334715" xlink:href="#mcb6217ca04" y="245.686925"/>
     <use style="stroke:#000000;" x="174.374002" xlink:href="#mcb6217ca04" y="256.3114"/>
     <use style="stroke:#000000;" x="176.413289" xlink:href="#mcb6217ca04" y="229.834384"/>
     <use style="stroke:#000000;" x="178.452577" xlink:href="#mcb6217ca04" y="261.019827"/>
     <use style="stroke:#000000;" x="180.491864" xlink:href="#mcb6217ca04" y="242.746971"/>
     <use style="stroke:#000000;" x="182.531151" xlink:href="#mcb6217ca04" y="251.649642"/>
     <use style="stroke:#000000;" x="184.570439" xlink:href="#mcb6217ca04" y="234.925496"/>
     <use style="stroke:#000000;" x="186.609726" xlink:href="#mcb6217ca04" y="246.631194"/>
     <use style="stroke:#000000;" x="188.649013" xlink:href="#mcb6217ca04" y="255.364742"/>
     <use style="stroke:#000000;" x="190.688301" xlink:href="#mcb6217ca04" y="240.333682"/>
     <use style="stroke:#000000;" x="192.727588" xlink:href="#mcb6217ca04" y="234.377604"/>
     <use style="stroke:#000000;" x="194.766875" xlink:href="#mcb6217ca04" y="239.092438"/>
     <use style="stroke:#000000;" x="196.806163" xlink:href="#mcb6217ca04" y="236.010777"/>
     <use style="stroke:#000000;" x="198.84545" xlink:href="#mcb6217ca04" y="248.221465"/>
     <use style="stroke:#000000;" x="200.884737" xlink:href="#mcb6217ca04" y="244.672177"/>
     <use style="stroke:#000000;" x="202.924025" xlink:href="#mcb6217ca04" y="248.701424"/>
     <use style="stroke:#000000;" x="204.963312" xlink:href="#mcb6217ca04" y="244.608387"/>
     <use style="stroke:#000000;" x="207.0026" xlink:href="#mcb6217ca04" y="250.507846"/>
     <use style="stroke:#000000;" x="209.041887" xlink:href="#mcb6217ca04" y="262.395988"/>
     <use style="stroke:#000000;" x="211.081174" xlink:href="#mcb6217ca04" y="237.544803"/>
     <use style="stroke:#000000;" x="213.120462" xlink:href="#mcb6217ca04" y="245.066683"/>
     <use style="stroke:#000000;" x="215.159749" xlink:href="#mcb6217ca04" y="261.047031"/>
     <use style="stroke:#000000;" x="217.199036" xlink:href="#mcb6217ca04" y="233.703855"/>
     <use style="stroke:#000000;" x="219.238324" xlink:href="#mcb6217ca04" y="251.510473"/>
     <use style="stroke:#000000;" x="221.277611" xlink:href="#mcb6217ca04" y="238.926591"/>
     <use style="stroke:#000000;" x="223.316898" xlink:href="#mcb6217ca04" y="230.004613"/>
     <use style="stroke:#000000;" x="225.356186" xlink:href="#mcb6217ca04" y="237.718873"/>
     <use style="stroke:#000000;" x="227.395473" xlink:href="#mcb6217ca04" y="224.40626"/>
     <use style="stroke:#000000;" x="229.43476" xlink:href="#mcb6217ca04" y="255.203696"/>
     <use style="stroke:#000000;" x="231.474048" xlink:href="#mcb6217ca04" y="233.655053"/>
     <use style="stroke:#000000;" x="233.513335" xlink:href="#mcb6217ca04" y="247.59405"/>
     <use style="stroke:#000000;" x="235.552622" xlink:href="#mcb6217ca04" y="249.734374"/>
     <use style="stroke:#000000;" x="237.59191" xlink:href="#mcb6217ca04" y="245.587658"/>
     <use style="stroke:#000000;" x="239.631197" xlink:href="#mcb6217ca04" y="241.699455"/>
     <use style="stroke:#000000;" x="241.670484" xlink:href="#mcb6217ca04" y="236.42914"/>
     <use style="stroke:#000000;" x="243.709772" xlink:href="#mcb6217ca04" y="251.798078"/>
     <use style="stroke:#000000;" x="245.749059" xlink:href="#mcb6217ca04" y="224.202996"/>
     <use style="stroke:#000000;" x="247.788346" xlink:href="#mcb6217ca04" y="229.117468"/>
     <use style="stroke:#000000;" x="249.827634" xlink:href="#mcb6217ca04" y="254.342341"/>
     <use style="stroke:#000000;" x="251.866921" xlink:href="#mcb6217ca04" y="213.882385"/>
     <use style="stroke:#000000;" x="253.906208" xlink:href="#mcb6217ca04" y="207.396806"/>
     <use style="stroke:#000000;" x="255.945496" xlink:href="#mcb6217ca04" y="215.410591"/>
     <use style="stroke:#000000;" x="257.984783" xlink:href="#mcb6217ca04" y="231.605769"/>
     <use style="stroke:#000000;" x="260.024071" xlink:href="#mcb6217ca04" y="241.496081"/>
     <use style="stroke:#000000;" x="262.063358" xlink:href="#mcb6217ca04" y="211.833239"/>
     <use style="stroke:#000000;" x="264.102645" xlink:href="#mcb6217ca04" y="228.654186"/>
     <use style="stroke:#000000;" x="266.141933" xlink:href="#mcb6217ca04" y="205.009387"/>
     <use style="stroke:#000000;" x="268.18122" xlink:href="#mcb6217ca04" y="215.515117"/>
     <use style="stroke:#000000;" x="270.220507" xlink:href="#mcb6217ca04" y="202.483987"/>
     <use style="stroke:#000000;" x="272.259795" xlink:href="#mcb6217ca04" y="207.255937"/>
     <use style="stroke:#000000;" x="274.299082" xlink:href="#mcb6217ca04" y="199.052871"/>
     <use style="stroke:#000000;" x="276.338369" xlink:href="#mcb6217ca04" y="204.16428"/>
     <use style="stroke:#000000;" x="278.377657" xlink:href="#mcb6217ca04" y="176.707842"/>
     <use style="stroke:#000000;" x="280.416944" xlink:href="#mcb6217ca04" y="193.695238"/>
     <use style="stroke:#000000;" x="282.456231" xlink:href="#mcb6217ca04" y="185.117092"/>
     <use style="stroke:#000000;" x="284.495519" xlink:href="#mcb6217ca04" y="160.469573"/>
     <use style="stroke:#000000;" x="286.534806" xlink:href="#mcb6217ca04" y="196.938291"/>
     <use style="stroke:#000000;" x="288.574093" xlink:href="#mcb6217ca04" y="189.944538"/>
     <use style="stroke:#000000;" x="290.613381" xlink:href="#mcb6217ca04" y="154.445437"/>
     <use style="stroke:#000000;" x="292.652668" xlink:href="#mcb6217ca04" y="175.816982"/>
     <use style="stroke:#000000;" x="294.691955" xlink:href="#mcb6217ca04" y="128.352122"/>
     <use style="stroke:#000000;" x="296.731243" xlink:href="#mcb6217ca04" y="152.05645"/>
     <use style="stroke:#000000;" x="298.77053" xlink:href="#mcb6217ca04" y="149.197371"/>
     <use style="stroke:#000000;" x="300.809817" xlink:href="#mcb6217ca04" y="107.029374"/>
     <use style="stroke:#000000;" x="302.849105" xlink:href="#mcb6217ca04" y="105.374691"/>
     <use style="stroke:#000000;" x="304.888392" xlink:href="#mcb6217ca04" y="92.877217"/>
     <use style="stroke:#000000;" x="306.927679" xlink:href="#mcb6217ca04" y="97.999302"/>
     <use style="stroke:#000000;" x="308.966967" xlink:href="#mcb6217ca04" y="113.724503"/>
     <use style="stroke:#000000;" x="311.006254" xlink:href="#mcb6217ca04" y="70.422822"/>
     <use style="stroke:#000000;" x="313.045542" xlink:href="#mcb6217ca04" y="91.891374"/>
     <use style="stroke:#000000;" x="315.084829" xlink:href="#mcb6217ca04" y="71.2892"/>
     <use style="stroke:#000000;" x="317.124116" xlink:href="#mcb6217ca04" y="63.117777"/>
     <use style="stroke:#000000;" x="319.163404" xlink:href="#mcb6217ca04" y="71.633095"/>
     <use style="stroke:#000000;" x="321.202691" xlink:href="#mcb6217ca04" y="56.230395"/>
     <use style="stroke:#000000;" x="323.241978" xlink:href="#mcb6217ca04" y="47.383433"/>
     <use style="stroke:#000000;" x="325.281266" xlink:href="#mcb6217ca04" y="50.270089"/>
     <use style="stroke:#000000;" x="327.320553" xlink:href="#mcb6217ca04" y="65.930974"/>
     <use style="stroke:#000000;" x="329.35984" xlink:href="#mcb6217ca04" y="44.805965"/>
     <use style="stroke:#000000;" x="331.399128" xlink:href="#mcb6217ca04" y="29.219668"/>
     <use style="stroke:#000000;" x="333.438415" xlink:href="#mcb6217ca04" y="54.142036"/>
     <use style="stroke:#000000;" x="335.477702" xlink:href="#mcb6217ca04" y="46.365476"/>
     <use style="stroke:#000000;" x="337.51699" xlink:href="#mcb6217ca04" y="50.18918"/>
     <use style="stroke:#000000;" x="339.556277" xlink:href="#mcb6217ca04" y="21.267875"/>
     <use style="stroke:#000000;" x="341.595564" xlink:href="#mcb6217ca04" y="38.245112"/>
     <use style="stroke:#000000;" x="343.634852" xlink:href="#mcb6217ca04" y="44.067149"/>
     <use style="stroke:#000000;" x="345.674139" xlink:href="#mcb6217ca04" y="62.50183"/>
     <use style="stroke:#000000;" x="347.713426" xlink:href="#mcb6217ca04" y="49.186445"/>
     <use style="stroke:#000000;" x="349.752714" xlink:href="#mcb6217ca04" y="69.40374"/>
     <use style="stroke:#000000;" x="351.792001" xlink:href="#mcb6217ca04" y="65.17035"/>
     <use style="stroke:#000000;" x="353.831288" xlink:href="#mcb6217ca04" y="79.382696"/>
     <use style="stroke:#000000;" x="355.870576" xlink:href="#mcb6217ca04" y="68.244904"/>
     <use style="stroke:#000000;" x="357.909863" xlink:href="#mcb6217ca04" y="75.929817"/>
     <use style="stroke:#000000;" x="359.94915" xlink:href="#mcb6217ca04" y="92.89049"/>
     <use style="stroke:#000000;" x="361.988438" xlink:href="#mcb6217ca04" y="92.010433"/>
     <use style="stroke:#000000;" x="364.027725" xlink:href="#mcb6217ca04" y="118.638714"/>
     <use style="stroke:#000000;" x="366.067013" xlink:href="#mcb6217ca04" y="131.184043"/>
     <use style="stroke:#000000;" x="368.1063" xlink:href="#mcb6217ca04" y="113.43806"/>
     <use style="stroke:#000000;" x="370.145587" xlink:href="#mcb6217ca04" y="124.443446"/>
     <use style="stroke:#000000;" x="372.184875" xlink:href="#mcb6217ca04" y="125.744102"/>
     <use style="stroke:#000000;" x="374.224162" xlink:href="#mcb6217ca04" y="110.261375"/>
     <use style="stroke:#000000;" x="376.263449" xlink:href="#mcb6217ca04" y="136.19373"/>
     <use style="stroke:#000000;" x="378.302737" xlink:href="#mcb6217ca04" y="167.398128"/>
     <use style="stroke:#000000;" x="380.342024" xlink:href="#mcb6217ca04" y="147.684821"/>
     <use style="stroke:#000000;" x="382.381311" xlink:href="#mcb6217ca04" y="185.910939"/>
     <use style="stroke:#000000;" x="384.420599" xlink:href="#mcb6217ca04" y="180.98209"/>
     <use style="stroke:#000000;" x="386.459886" xlink:href="#mcb6217ca04" y="181.756661"/>
     <use style="stroke:#000000;" x="388.499173" xlink:href="#mcb6217ca04" y="164.102764"/>
     <use style="stroke:#000000;" x="390.538461" xlink:href="#mcb6217ca04" y="201.402289"/>
     <use style="stroke:#000000;" x="392.577748" xlink:href="#mcb6217ca04" y="207.369087"/>
     <use style="stroke:#000000;" x="394.617035" xlink:href="#mcb6217ca04" y="202.432987"/>
     <use style="stroke:#000000;" x="396.656323" xlink:href="#mcb6217ca04" y="214.016962"/>
     <use style="stroke:#000000;" x="398.69561" xlink:href="#mcb6217ca04" y="194.551602"/>
     <use style="stroke:#000000;" x="400.734897" xlink:href="#mcb6217ca04" y="226.879151"/>
     <use style="stroke:#000000;" x="402.774185" xlink:href="#mcb6217ca04" y="230.995954"/>
     <use style="stroke:#000000;" x="404.813472" xlink:href="#mcb6217ca04" y="224.675316"/>
     <use style="stroke:#000000;" x="406.852759" xlink:href="#mcb6217ca04" y="228.107448"/>
     <use style="stroke:#000000;" x="408.892047" xlink:href="#mcb6217ca04" y="198.826471"/>
     <use style="stroke:#000000;" x="410.931334" xlink:href="#mcb6217ca04" y="213.731804"/>
     <use style="stroke:#000000;" x="412.970621" xlink:href="#mcb6217ca04" y="226.860323"/>
     <use style="stroke:#000000;" x="415.009909" xlink:href="#mcb6217ca04" y="245.655113"/>
     <use style="stroke:#000000;" x="417.049196" xlink:href="#mcb6217ca04" y="220.136695"/>
     <use style="stroke:#000000;" x="419.088483" xlink:href="#mcb6217ca04" y="245.484199"/>
     <use style="stroke:#000000;" x="421.127771" xlink:href="#mcb6217ca04" y="253.714295"/>
     <use style="stroke:#000000;" x="423.167058" xlink:href="#mcb6217ca04" y="219.057129"/>
     <use style="stroke:#000000;" x="425.206346" xlink:href="#mcb6217ca04" y="231.26572"/>
     <use style="stroke:#000000;" x="427.245633" xlink:href="#mcb6217ca04" y="224.121327"/>
     <use style="stroke:#000000;" x="429.28492" xlink:href="#mcb6217ca04" y="232.600734"/>
     <use style="stroke:#000000;" x="431.324208" xlink:href="#mcb6217ca04" y="226.118792"/>
     <use style="stroke:#000000;" x="433.363495" xlink:href="#mcb6217ca04" y="246.237685"/>
     <use style="stroke:#000000;" x="435.402782" xlink:href="#mcb6217ca04" y="251.620341"/>
     <use style="stroke:#000000;" x="437.44207" xlink:href="#mcb6217ca04" y="229.568839"/>
     <use style="stroke:#000000;" x="439.481357" xlink:href="#mcb6217ca04" y="249.206887"/>
     <use style="stroke:#000000;" x="441.520644" xlink:href="#mcb6217ca04" y="247.949488"/>
     <use style="stroke:#000000;" x="443.559932" xlink:href="#mcb6217ca04" y="245.086853"/>
     <use style="stroke:#000000;" x="445.599219" xlink:href="#mcb6217ca04" y="239.075008"/>
     <use style="stroke:#000000;" x="447.638506" xlink:href="#mcb6217ca04" y="244.048514"/>
     <use style="stroke:#000000;" x="449.677794" xlink:href="#mcb6217ca04" y="257.468759"/>
     <use style="stroke:#000000;" x="451.717081" xlink:href="#mcb6217ca04" y="248.018232"/>
     <use style="stroke:#000000;" x="453.756368" xlink:href="#mcb6217ca04" y="268.690612"/>
     <use style="stroke:#000000;" x="455.795656" xlink:href="#mcb6217ca04" y="231.5991"/>
     <use style="stroke:#000000;" x="457.834943" xlink:href="#mcb6217ca04" y="260.691114"/>
     <use style="stroke:#000000;" x="459.87423" xlink:href="#mcb6217ca04" y="254.23812"/>
     <use style="stroke:#000000;" x="461.913518" xlink:href="#mcb6217ca04" y="239.185412"/>
     <use style="stroke:#000000;" x="463.952805" xlink:href="#mcb6217ca04" y="249.533932"/>
     <use style="stroke:#000000;" x="465.992092" xlink:href="#mcb6217ca04" y="219.785886"/>
     <use style="stroke:#000000;" x="468.03138" xlink:href="#mcb6217ca04" y="256.783027"/>
     <use style="stroke:#000000;" x="470.070667" xlink:href="#mcb6217ca04" y="236.452135"/>
     <use style="stroke:#000000;" x="472.109954" xlink:href="#mcb6217ca04" y="240.456163"/>
     <use style="stroke:#000000;" x="474.149242" xlink:href="#mcb6217ca04" y="255.18401"/>
     <use style="stroke:#000000;" x="476.188529" xlink:href="#mcb6217ca04" y="233.132599"/>
     <use style="stroke:#000000;" x="478.227817" xlink:href="#mcb6217ca04" y="242.198012"/>
     <use style="stroke:#000000;" x="480.267104" xlink:href="#mcb6217ca04" y="229.899378"/>
     <use style="stroke:#000000;" x="482.306391" xlink:href="#mcb6217ca04" y="229.227533"/>
     <use style="stroke:#000000;" x="484.345679" xlink:href="#mcb6217ca04" y="211.758186"/>
     <use style="stroke:#000000;" x="486.384966" xlink:href="#mcb6217ca04" y="222.540675"/>
    </g>
   </g>
   <g id="line2d_16">
    <path clip-path="url(#p312be0158c)" d="M 80.566784 239.974619 
L 260.024071 239.974619 
L 262.063358 236.345274 
L 327.320553 44.98104 
L 329.35984 40.998367 
L 339.556277 40.998367 
L 341.595564 41.152202 
L 408.892047 238.496569 
L 410.931334 239.974619 
L 486.384966 239.974619 
L 486.384966 239.974619 
" style="fill:none;stroke:#e24a33;stroke-linecap:square;stroke-width:1.7;"/>
   </g>
   <g id="line2d_17">
    <path clip-path="url(#p312be0158c)" d="M 80.566784 239.974619 
L 207.0026 239.8688 
L 217.199036 239.639934 
L 223.316898 239.336654 
L 229.43476 238.799602 
L 233.513335 238.242448 
L 237.59191 237.459785 
L 241.670484 236.378783 
L 245.749059 234.910984 
L 247.788346 234.00003 
L 249.827634 232.952038 
L 251.866921 231.751654 
L 253.906208 230.382752 
L 255.945496 228.828574 
L 257.984783 227.071894 
L 260.024071 225.09523 
L 262.063358 222.88109 
L 264.102645 220.412254 
L 266.141933 217.672098 
L 268.18122 214.644947 
L 270.220507 211.316469 
L 272.259795 207.674084 
L 274.299082 203.707398 
L 276.338369 199.408652 
L 278.377657 194.773169 
L 280.416944 189.799791 
L 282.456231 184.491303 
L 286.534806 172.902134 
L 290.613381 160.120313 
L 294.691955 146.342633 
L 300.809817 124.447088 
L 308.966967 95.041046 
L 313.045542 81.31417 
L 315.084829 74.917979 
L 317.124116 68.917831 
L 319.163404 63.374655 
L 321.202691 58.346161 
L 323.241978 53.885846 
L 325.281266 50.042054 
L 327.320553 46.857095 
L 329.35984 44.366479 
L 331.399128 42.598252 
L 333.438415 41.572473 
L 335.477702 41.300833 
L 337.51699 41.786435 
L 339.556277 43.023733 
L 341.595564 44.998642 
L 343.634852 47.688798 
L 345.674139 51.063986 
L 347.713426 55.0867 
L 349.752714 59.71284 
L 351.792001 64.892514 
L 353.831288 70.570933 
L 355.870576 76.689375 
L 359.94915 89.997824 
L 364.027725 104.307953 
L 376.263449 148.341575 
L 380.342024 161.993582 
L 384.420599 174.616755 
L 388.499173 186.02621 
L 390.538461 191.240455 
L 392.577748 196.118379 
L 394.617035 200.658355 
L 396.656323 204.862577 
L 398.69561 208.73664 
L 400.734897 212.289095 
L 402.774185 215.530997 
L 404.813472 218.475466 
L 406.852759 221.137255 
L 408.892047 223.532344 
L 410.931334 225.677561 
L 412.970621 227.590235 
L 415.009909 229.287881 
L 417.049196 230.787933 
L 419.088483 232.107502 
L 421.127771 233.263185 
L 423.167058 234.270902 
L 427.245633 235.902013 
L 431.324208 237.110714 
L 435.402782 237.991189 
L 439.481357 238.621777 
L 443.559932 239.065859 
L 449.677794 239.488407 
L 457.834943 239.77442 
L 470.070667 239.927444 
L 486.384966 239.969073 
L 486.384966 239.969073 
" style="fill:none;stroke:#348abd;stroke-linecap:square;stroke-width:1.7;"/>
   </g>
   <g id="patch_3">
    <path d="M 60.275875 285.867875 
L 60.275875 8.667875 
" style="fill:none;stroke:#aaaaaa;stroke-linecap:square;stroke-linejoin:miter;"/>
   </g>
   <g id="patch_4">
    <path d="M 506.675875 285.867875 
L 506.675875 8.667875 
" style="fill:none;stroke:#aaaaaa;stroke-linecap:square;stroke-linejoin:miter;"/>
   </g>
   <g id="patch_5">
    <path d="M 60.275875 285.867875 
L 506.675875 285.867875 
" style="fill:none;stroke:#aaaaaa;stroke-linecap:square;stroke-linejoin:miter;"/>
   </g>
   <g id="patch_6">
    <path d="M 60.275875 8.667875 
L 506.675875 8.667875 
" style="fill:none;stroke:#aaaaaa;stroke-linecap:square;stroke-linejoin:miter;"/>
   </g>
   <g id="legend_1">
    <g id="patch_7">
     <path d="M 68.675875 53.495375 
L 166.26025 53.495375 
Q 168.66025 53.495375 168.66025 51.095375 
L 168.66025 17.067875 
Q 168.66025 14.667875 166.26025 14.667875 
L 68.675875 14.667875 
Q 66.275875 14.667875 66.275875 17.067875 
L 66.275875 51.095375 
Q 66.275875 53.495375 68.675875 53.495375 
z
" style="fill:#ffffff;opacity:0.8;stroke:#cccccc;stroke-linejoin:miter;"/>
    </g>
    <g id="line2d_18">
     <path d="M 71.075875 24.386 
L 95.075875 24.386 
" style="fill:none;stroke:#e24a33;stroke-linecap:square;stroke-width:1.7;"/>
    </g>
    <g id="line2d_19"/>
    <g id="text_17">
     <!-- Trapezoid -->
     <defs>
      <path d="M -0.296875 72.90625 
L 61.375 72.90625 
L 61.375 64.59375 
L 35.5 64.59375 
L 35.5 0 
L 25.59375 0 
L 25.59375 64.59375 
L -0.296875 64.59375 
z
" id="DejaVuSans-54"/>
      <path d="M 41.109375 46.296875 
Q 39.59375 47.171875 37.8125 47.578125 
Q 36.03125 48 33.890625 48 
Q 26.265625 48 22.1875 43.046875 
Q 18.109375 38.09375 18.109375 28.8125 
L 18.109375 0 
L 9.078125 0 
L 9.078125 54.6875 
L 18.109375 54.6875 
L 18.109375 46.1875 
Q 20.953125 51.171875 25.484375 53.578125 
Q 30.03125 56 36.53125 56 
Q 37.453125 56 38.578125 55.875 
Q 39.703125 55.765625 41.0625 55.515625 
z
" id="DejaVuSans-72"/>
      <path d="M 34.28125 27.484375 
Q 23.390625 27.484375 19.1875 25 
Q 14.984375 22.515625 14.984375 16.5 
Q 14.984375 11.71875 18.140625 8.90625 
Q 21.296875 6.109375 26.703125 6.109375 
Q 34.1875 6.109375 38.703125 11.40625 
Q 43.21875 16.703125 43.21875 25.484375 
L 43.21875 27.484375 
z
M 52.203125 31.203125 
L 52.203125 0 
L 43.21875 0 
L 43.21875 8.296875 
Q 40.140625 3.328125 35.546875 0.953125 
Q 30.953125 -1.421875 24.3125 -1.421875 
Q 15.921875 -1.421875 10.953125 3.296875 
Q 6 8.015625 6 15.921875 
Q 6 25.140625 12.171875 29.828125 
Q 18.359375 34.515625 30.609375 34.515625 
L 43.21875 34.515625 
L 43.21875 35.40625 
Q 43.21875 41.609375 39.140625 45 
Q 35.0625 48.390625 27.6875 48.390625 
Q 23 48.390625 18.546875 47.265625 
Q 14.109375 46.140625 10.015625 43.890625 
L 10.015625 52.203125 
Q 14.9375 54.109375 19.578125 55.046875 
Q 24.21875 56 28.609375 56 
Q 40.484375 56 46.34375 49.84375 
Q 52.203125 43.703125 52.203125 31.203125 
" id="DejaVuSans-61"/>
      <path d="M 18.109375 8.203125 
L 18.109375 -20.796875 
L 9.078125 -20.796875 
L 9.078125 54.6875 
L 18.109375 54.6875 
L 18.109375 46.390625 
Q 20.953125 51.265625 25.265625 53.625 
Q 29.59375 56 35.59375 56 
Q 45.5625 56 51.78125 48.09375 
Q 58.015625 40.1875 58.015625 27.296875 
Q 58.015625 14.40625 51.78125 6.484375 
Q 45.5625 -1.421875 35.59375 -1.421875 
Q 29.59375 -1.421875 25.265625 0.953125 
Q 20.953125 3.328125 18.109375 8.203125 
M 48.6875 27.296875 
Q 48.6875 37.203125 44.609375 42.84375 
Q 40.53125 48.484375 33.40625 48.484375 
Q 26.265625 48.484375 22.1875 42.84375 
Q 18.109375 37.203125 18.109375 27.296875 
Q 18.109375 17.390625 22.1875 11.75 
Q 26.265625 6.109375 33.40625 6.109375 
Q 40.53125 6.109375 44.609375 11.75 
Q 48.6875 17.390625 48.6875 27.296875 
" id="DejaVuSans-70"/>
      <path d="M 56.203125 29.59375 
L 56.203125 25.203125 
L 14.890625 25.203125 
Q 15.484375 15.921875 20.484375 11.0625 
Q 25.484375 6.203125 34.421875 6.203125 
Q 39.59375 6.203125 44.453125 7.46875 
Q 49.3125 8.734375 54.109375 11.28125 
L 54.109375 2.78125 
Q 49.265625 0.734375 44.1875 -0.34375 
Q 39.109375 -1.421875 33.890625 -1.421875 
Q 20.796875 -1.421875 13.15625 6.1875 
Q 5.515625 13.8125 5.515625 26.8125 
Q 5.515625 40.234375 12.765625 48.109375 
Q 20.015625 56 32.328125 56 
Q 43.359375 56 49.78125 48.890625 
Q 56.203125 41.796875 56.203125 29.59375 
M 47.21875 32.234375 
Q 47.125 39.59375 43.09375 43.984375 
Q 39.0625 48.390625 32.421875 48.390625 
Q 24.90625 48.390625 20.390625 44.140625 
Q 15.875 39.890625 15.1875 32.171875 
z
" id="DejaVuSans-65"/>
      <path d="M 5.515625 54.6875 
L 48.1875 54.6875 
L 48.1875 46.484375 
L 14.40625 7.171875 
L 48.1875 7.171875 
L 48.1875 0 
L 4.296875 0 
L 4.296875 8.203125 
L 38.09375 47.515625 
L 5.515625 47.515625 
z
" id="DejaVuSans-7a"/>
      <path d="M 45.40625 46.390625 
L 45.40625 75.984375 
L 54.390625 75.984375 
L 54.390625 0 
L 45.40625 0 
L 45.40625 8.203125 
Q 42.578125 3.328125 38.25 0.953125 
Q 33.9375 -1.421875 27.875 -1.421875 
Q 17.96875 -1.421875 11.734375 6.484375 
Q 5.515625 14.40625 5.515625 27.296875 
Q 5.515625 40.1875 11.734375 48.09375 
Q 17.96875 56 27.875 56 
Q 33.9375 56 38.25 53.625 
Q 42.578125 51.265625 45.40625 46.390625 
M 14.796875 27.296875 
Q 14.796875 17.390625 18.875 11.75 
Q 22.953125 6.109375 30.078125 6.109375 
Q 37.203125 6.109375 41.296875 11.75 
Q 45.40625 17.390625 45.40625 27.296875 
Q 45.40625 37.203125 41.296875 42.84375 
Q 37.203125 48.484375 30.078125 48.484375 
Q 22.953125 48.484375 18.875 42.84375 
Q 14.796875 37.203125 14.796875 27.296875 
" id="DejaVuSans-64"/>
     </defs>
     <g transform="translate(104.675875 28.586)scale(0.12 -0.12)">
      <use xlink:href="#DejaVuSans-54"/>
      <use x="60.865234" xlink:href="#DejaVuSans-72"/>
      <use x="101.978516" xlink:href="#DejaVuSans-61"/>
      <use x="163.257812" xlink:href="#DejaVuSans-70"/>
      <use x="226.734375" xlink:href="#DejaVuSans-65"/>
      <use x="288.257812" xlink:href="#DejaVuSans-7a"/>
      <use x="340.748047" xlink:href="#DejaVuSans-6f"/>
      <use x="401.929688" xlink:href="#DejaVuSans-69"/>
      <use x="429.712891" xlink:href="#DejaVuSans-64"/>
     </g>
    </g>
    <g id="line2d_20">
     <path d="M 71.075875 41.99975 
L 95.075875 41.99975 
" style="fill:none;stroke:#348abd;stroke-linecap:square;stroke-width:1.7;"/>
    </g>
    <g id="line2d_21"/>
    <g id="text_18">
     <!-- Gaussian -->
     <defs>
      <path d="M 59.515625 10.40625 
L 59.515625 29.984375 
L 43.40625 29.984375 
L 43.40625 38.09375 
L 69.28125 38.09375 
L 69.28125 6.78125 
Q 63.578125 2.734375 56.6875 0.65625 
Q 49.8125 -1.421875 42 -1.421875 
Q 24.90625 -1.421875 15.25 8.5625 
Q 5.609375 18.5625 5.609375 36.375 
Q 5.609375 54.25 15.25 64.234375 
Q 24.90625 74.21875 42 74.21875 
Q 49.125 74.21875 55.546875 72.453125 
Q 61.96875 70.703125 67.390625 67.28125 
L 67.390625 56.78125 
Q 61.921875 61.421875 55.765625 63.765625 
Q 49.609375 66.109375 42.828125 66.109375 
Q 29.4375 66.109375 22.71875 58.640625 
Q 16.015625 51.171875 16.015625 36.375 
Q 16.015625 21.625 22.71875 14.15625 
Q 29.4375 6.6875 42.828125 6.6875 
Q 48.046875 6.6875 52.140625 7.59375 
Q 56.25 8.5 59.515625 10.40625 
" id="DejaVuSans-47"/>
     </defs>
     <g transform="translate(104.675875 46.19975)scale(0.12 -0.12)">
      <use xlink:href="#DejaVuSans-47"/>
      <use x="77.490234" xlink:href="#DejaVuSans-61"/>
      <use x="138.769531" xlink:href="#DejaVuSans-75"/>
      <use x="202.148438" xlink:href="#DejaVuSans-73"/>
      <use x="254.248047" xlink:href="#DejaVuSans-73"/>
      <use x="306.347656" xlink:href="#DejaVuSans-69"/>
      <use x="334.130859" xlink:href="#DejaVuSans-61"/>
      <use x="395.410156" xlink:href="#DejaVuSans-6e"/>
     </g>
    </g>
   </g>
  </g>
 </g>
 <defs>
  <clipPath id="p312be0158c">
   <rect height="277.2" width="446.4" x="60.275875" y="8.667875"/>
  </clipPath>
 </defs>
</svg>
