<?xml version="1.0" encoding="utf-8" standalone="no"?>
<!DOCTYPE svg PUBLIC "-//W3C//DTD SVG 1.1//EN"
  "http://www.w3.org/Graphics/SVG/1.1/DTD/svg11.dtd">
<!-- Created with matplotlib (http://matplotlib.org/) -->
<svg height="272pt" version="1.1" viewBox="0 0 482 272" width="482pt" xmlns="http://www.w3.org/2000/svg" xmlns:xlink="http://www.w3.org/1999/xlink">
 <defs>
  <style type="text/css">
*{stroke-linecap:butt;stroke-linejoin:round;}
  </style>
 </defs>
 <g id="figure_1">
  <g id="patch_1">
   <path d="M 0 272.90385 
L 482.9349 272.90385 
L 482.9349 0 
L 0 0 
z
" style="fill:none;"/>
  </g>
  <g id="axes_1">
   <g id="patch_2">
    <path d="M 28.47 248.0901 
L 474.87 248.0901 
L 474.87 26.3301 
L 28.47 26.3301 
z
" style="fill:#ffffff;"/>
   </g>
   <g id="matplotlib.axis_1">
    <g id="xtick_1">
     <g id="line2d_1"/>
     <g id="text_1">
      <!-- 2 -->
      <defs>
       <path d="M 19.1875 8.296875 
L 53.609375 8.296875 
L 53.609375 0 
L 7.328125 0 
L 7.328125 8.296875 
Q 12.9375 14.109375 22.625 23.890625 
Q 32.328125 33.6875 34.8125 36.53125 
Q 39.546875 41.84375 41.421875 45.53125 
Q 43.3125 49.21875 43.3125 52.78125 
Q 43.3125 58.59375 39.234375 62.25 
Q 35.15625 65.921875 28.609375 65.921875 
Q 23.96875 65.921875 18.8125 64.3125 
Q 13.671875 62.703125 7.8125 59.421875 
L 7.8125 69.390625 
Q 13.765625 71.78125 18.9375 73 
Q 24.125 74.21875 28.421875 74.21875 
Q 39.75 74.21875 46.484375 68.546875 
Q 53.21875 62.890625 53.21875 53.421875 
Q 53.21875 48.921875 51.53125 44.890625 
Q 49.859375 40.875 45.40625 35.40625 
Q 44.1875 33.984375 37.640625 27.21875 
Q 31.109375 20.453125 19.1875 8.296875 
" id="DejaVuSans-32"/>
      </defs>
      <g style="fill:#565656;" transform="translate(90.540958 263.208225)scale(0.12 -0.12)">
       <use xlink:href="#DejaVuSans-32"/>
      </g>
     </g>
    </g>
    <g id="xtick_2">
     <g id="line2d_2"/>
     <g id="text_2">
      <!-- 4 -->
      <defs>
       <path d="M 37.796875 64.3125 
L 12.890625 25.390625 
L 37.796875 25.390625 
z
M 35.203125 72.90625 
L 47.609375 72.90625 
L 47.609375 25.390625 
L 58.015625 25.390625 
L 58.015625 17.1875 
L 47.609375 17.1875 
L 47.609375 0 
L 37.796875 0 
L 37.796875 17.1875 
L 4.890625 17.1875 
L 4.890625 26.703125 
z
" id="DejaVuSans-34"/>
      </defs>
      <g style="fill:#565656;" transform="translate(181.736055 263.208225)scale(0.12 -0.12)">
       <use xlink:href="#DejaVuSans-34"/>
      </g>
     </g>
    </g>
    <g id="xtick_3">
     <g id="line2d_3"/>
     <g id="text_3">
      <!-- 6 -->
      <defs>
       <path d="M 33.015625 40.375 
Q 26.375 40.375 22.484375 35.828125 
Q 18.609375 31.296875 18.609375 23.390625 
Q 18.609375 15.53125 22.484375 10.953125 
Q 26.375 6.390625 33.015625 6.390625 
Q 39.65625 6.390625 43.53125 10.953125 
Q 47.40625 15.53125 47.40625 23.390625 
Q 47.40625 31.296875 43.53125 35.828125 
Q 39.65625 40.375 33.015625 40.375 
M 52.59375 71.296875 
L 52.59375 62.3125 
Q 48.875 64.0625 45.09375 64.984375 
Q 41.3125 65.921875 37.59375 65.921875 
Q 27.828125 65.921875 22.671875 59.328125 
Q 17.53125 52.734375 16.796875 39.40625 
Q 19.671875 43.65625 24.015625 45.921875 
Q 28.375 48.1875 33.59375 48.1875 
Q 44.578125 48.1875 50.953125 41.515625 
Q 57.328125 34.859375 57.328125 23.390625 
Q 57.328125 12.15625 50.6875 5.359375 
Q 44.046875 -1.421875 33.015625 -1.421875 
Q 20.359375 -1.421875 13.671875 8.265625 
Q 6.984375 17.96875 6.984375 36.375 
Q 6.984375 53.65625 15.1875 63.9375 
Q 23.390625 74.21875 37.203125 74.21875 
Q 40.921875 74.21875 44.703125 73.484375 
Q 48.484375 72.75 52.59375 71.296875 
" id="DejaVuSans-36"/>
      </defs>
      <g style="fill:#565656;" transform="translate(272.931152 263.208225)scale(0.12 -0.12)">
       <use xlink:href="#DejaVuSans-36"/>
      </g>
     </g>
    </g>
    <g id="xtick_4">
     <g id="line2d_4"/>
     <g id="text_4">
      <!-- 8 -->
      <defs>
       <path d="M 31.78125 34.625 
Q 24.75 34.625 20.71875 30.859375 
Q 16.703125 27.09375 16.703125 20.515625 
Q 16.703125 13.921875 20.71875 10.15625 
Q 24.75 6.390625 31.78125 6.390625 
Q 38.8125 6.390625 42.859375 10.171875 
Q 46.921875 13.96875 46.921875 20.515625 
Q 46.921875 27.09375 42.890625 30.859375 
Q 38.875 34.625 31.78125 34.625 
M 21.921875 38.8125 
Q 15.578125 40.375 12.03125 44.71875 
Q 8.5 49.078125 8.5 55.328125 
Q 8.5 64.0625 14.71875 69.140625 
Q 20.953125 74.21875 31.78125 74.21875 
Q 42.671875 74.21875 48.875 69.140625 
Q 55.078125 64.0625 55.078125 55.328125 
Q 55.078125 49.078125 51.53125 44.71875 
Q 48 40.375 41.703125 38.8125 
Q 48.828125 37.15625 52.796875 32.3125 
Q 56.78125 27.484375 56.78125 20.515625 
Q 56.78125 9.90625 50.3125 4.234375 
Q 43.84375 -1.421875 31.78125 -1.421875 
Q 19.734375 -1.421875 13.25 4.234375 
Q 6.78125 9.90625 6.78125 20.515625 
Q 6.78125 27.484375 10.78125 32.3125 
Q 14.796875 37.15625 21.921875 38.8125 
M 18.3125 54.390625 
Q 18.3125 48.734375 21.84375 45.5625 
Q 25.390625 42.390625 31.78125 42.390625 
Q 38.140625 42.390625 41.71875 45.5625 
Q 45.3125 48.734375 45.3125 54.390625 
Q 45.3125 60.0625 41.71875 63.234375 
Q 38.140625 66.40625 31.78125 66.40625 
Q 25.390625 66.40625 21.84375 63.234375 
Q 18.3125 60.0625 18.3125 54.390625 
" id="DejaVuSans-38"/>
      </defs>
      <g style="fill:#565656;" transform="translate(364.126249 263.208225)scale(0.12 -0.12)">
       <use xlink:href="#DejaVuSans-38"/>
      </g>
     </g>
    </g>
    <g id="xtick_5">
     <g id="line2d_5"/>
     <g id="text_5">
      <!-- 10 -->
      <defs>
       <path d="M 12.40625 8.296875 
L 28.515625 8.296875 
L 28.515625 63.921875 
L 10.984375 60.40625 
L 10.984375 69.390625 
L 28.421875 72.90625 
L 38.28125 72.90625 
L 38.28125 8.296875 
L 54.390625 8.296875 
L 54.390625 0 
L 12.40625 0 
z
" id="DejaVuSans-31"/>
       <path d="M 31.78125 66.40625 
Q 24.171875 66.40625 20.328125 58.90625 
Q 16.5 51.421875 16.5 36.375 
Q 16.5 21.390625 20.328125 13.890625 
Q 24.171875 6.390625 31.78125 6.390625 
Q 39.453125 6.390625 43.28125 13.890625 
Q 47.125 21.390625 47.125 36.375 
Q 47.125 51.421875 43.28125 58.90625 
Q 39.453125 66.40625 31.78125 66.40625 
M 31.78125 74.21875 
Q 44.046875 74.21875 50.515625 64.515625 
Q 56.984375 54.828125 56.984375 36.375 
Q 56.984375 17.96875 50.515625 8.265625 
Q 44.046875 -1.421875 31.78125 -1.421875 
Q 19.53125 -1.421875 13.0625 8.265625 
Q 6.59375 17.96875 6.59375 36.375 
Q 6.59375 54.828125 13.0625 64.515625 
Q 19.53125 74.21875 31.78125 74.21875 
" id="DejaVuSans-30"/>
      </defs>
      <g style="fill:#565656;" transform="translate(451.503846 263.208225)scale(0.12 -0.12)">
       <use xlink:href="#DejaVuSans-31"/>
       <use x="63.623047" xlink:href="#DejaVuSans-30"/>
      </g>
     </g>
    </g>
   </g>
   <g id="matplotlib.axis_2">
    <g id="ytick_1">
     <g id="line2d_6"/>
     <g id="text_6">
      <!-- 0 -->
      <g style="fill:#565656;" transform="translate(14.835 242.569163)scale(0.12 -0.12)">
       <use xlink:href="#DejaVuSans-30"/>
      </g>
     </g>
    </g>
    <g id="ytick_2">
     <g id="line2d_7"/>
     <g id="text_7">
      <!-- 5 -->
      <defs>
       <path d="M 10.796875 72.90625 
L 49.515625 72.90625 
L 49.515625 64.59375 
L 19.828125 64.59375 
L 19.828125 46.734375 
Q 21.96875 47.46875 24.109375 47.828125 
Q 26.265625 48.1875 28.421875 48.1875 
Q 40.625 48.1875 47.75 41.5 
Q 54.890625 34.8125 54.890625 23.390625 
Q 54.890625 11.625 47.5625 5.09375 
Q 40.234375 -1.421875 26.90625 -1.421875 
Q 22.3125 -1.421875 17.546875 -0.640625 
Q 12.796875 0.140625 7.71875 1.703125 
L 7.71875 11.625 
Q 12.109375 9.234375 16.796875 8.0625 
Q 21.484375 6.890625 26.703125 6.890625 
Q 35.15625 6.890625 40.078125 11.328125 
Q 45.015625 15.765625 45.015625 23.390625 
Q 45.015625 31 40.078125 35.4375 
Q 35.15625 39.890625 26.703125 39.890625 
Q 22.75 39.890625 18.8125 39.015625 
Q 14.890625 38.140625 10.796875 36.28125 
z
" id="DejaVuSans-35"/>
      </defs>
      <g style="fill:#565656;" transform="translate(14.835 217.114617)scale(0.12 -0.12)">
       <use xlink:href="#DejaVuSans-35"/>
      </g>
     </g>
    </g>
    <g id="ytick_3">
     <g id="line2d_8"/>
     <g id="text_8">
      <!-- 10 -->
      <g style="fill:#565656;" transform="translate(7.2 191.660072)scale(0.12 -0.12)">
       <use xlink:href="#DejaVuSans-31"/>
       <use x="63.623047" xlink:href="#DejaVuSans-30"/>
      </g>
     </g>
    </g>
    <g id="ytick_4">
     <g id="line2d_9"/>
     <g id="text_9">
      <!-- 15 -->
      <g style="fill:#565656;" transform="translate(7.2 166.205526)scale(0.12 -0.12)">
       <use xlink:href="#DejaVuSans-31"/>
       <use x="63.623047" xlink:href="#DejaVuSans-35"/>
      </g>
     </g>
    </g>
    <g id="ytick_5">
     <g id="line2d_10"/>
     <g id="text_10">
      <!-- 20 -->
      <g style="fill:#565656;" transform="translate(7.2 140.750981)scale(0.12 -0.12)">
       <use xlink:href="#DejaVuSans-32"/>
       <use x="63.623047" xlink:href="#DejaVuSans-30"/>
      </g>
     </g>
    </g>
    <g id="ytick_6">
     <g id="line2d_11"/>
     <g id="text_11">
      <!-- 25 -->
      <g style="fill:#565656;" transform="translate(7.2 115.296435)scale(0.12 -0.12)">
       <use xlink:href="#DejaVuSans-32"/>
       <use x="63.623047" xlink:href="#DejaVuSans-35"/>
      </g>
     </g>
    </g>
    <g id="ytick_7">
     <g id="line2d_12"/>
     <g id="text_12">
      <!-- 30 -->
      <defs>
       <path d="M 40.578125 39.3125 
Q 47.65625 37.796875 51.625 33 
Q 55.609375 28.21875 55.609375 21.1875 
Q 55.609375 10.40625 48.1875 4.484375 
Q 40.765625 -1.421875 27.09375 -1.421875 
Q 22.515625 -1.421875 17.65625 -0.515625 
Q 12.796875 0.390625 7.625 2.203125 
L 7.625 11.71875 
Q 11.71875 9.328125 16.59375 8.109375 
Q 21.484375 6.890625 26.8125 6.890625 
Q 36.078125 6.890625 40.9375 10.546875 
Q 45.796875 14.203125 45.796875 21.1875 
Q 45.796875 27.640625 41.28125 31.265625 
Q 36.765625 34.90625 28.71875 34.90625 
L 20.21875 34.90625 
L 20.21875 43.015625 
L 29.109375 43.015625 
Q 36.375 43.015625 40.234375 45.921875 
Q 44.09375 48.828125 44.09375 54.296875 
Q 44.09375 59.90625 40.109375 62.90625 
Q 36.140625 65.921875 28.71875 65.921875 
Q 24.65625 65.921875 20.015625 65.03125 
Q 15.375 64.15625 9.8125 62.3125 
L 9.8125 71.09375 
Q 15.4375 72.65625 20.34375 73.4375 
Q 25.25 74.21875 29.59375 74.21875 
Q 40.828125 74.21875 47.359375 69.109375 
Q 53.90625 64.015625 53.90625 55.328125 
Q 53.90625 49.265625 50.4375 45.09375 
Q 46.96875 40.921875 40.578125 39.3125 
" id="DejaVuSans-33"/>
      </defs>
      <g style="fill:#565656;" transform="translate(7.2 89.84189)scale(0.12 -0.12)">
       <use xlink:href="#DejaVuSans-33"/>
       <use x="63.623047" xlink:href="#DejaVuSans-30"/>
      </g>
     </g>
    </g>
    <g id="ytick_8">
     <g id="line2d_13"/>
     <g id="text_13">
      <!-- 35 -->
      <g style="fill:#565656;" transform="translate(7.2 64.387344)scale(0.12 -0.12)">
       <use xlink:href="#DejaVuSans-33"/>
       <use x="63.623047" xlink:href="#DejaVuSans-35"/>
      </g>
     </g>
    </g>
    <g id="ytick_9">
     <g id="line2d_14"/>
     <g id="text_14">
      <!-- 40 -->
      <g style="fill:#565656;" transform="translate(7.2 38.932799)scale(0.12 -0.12)">
       <use xlink:href="#DejaVuSans-34"/>
       <use x="63.623047" xlink:href="#DejaVuSans-30"/>
      </g>
     </g>
    </g>
   </g>
   <g id="line2d_15">
    <path clip-path="url(#pfb97d36183)" d="M 48.760909 238.0101 
L 53.320664 238.0101 
L 57.880419 238.0101 
L 62.440174 238.0101 
L 66.999928 238.0101 
L 71.559683 238.0101 
L 76.119438 238.0101 
L 80.679193 238.0101 
L 85.238948 238.0101 
L 89.798703 238.0101 
L 94.358458 238.0101 
L 98.918212 238.0101 
L 103.477967 238.0101 
L 108.037722 238.0101 
L 112.597477 238.0101 
L 117.157232 238.0101 
L 121.716987 238.0101 
L 126.276742 238.0101 
L 130.836496 238.0101 
L 135.396251 238.0101 
L 139.956006 238.0101 
L 144.515761 238.0101 
L 149.075516 238.0101 
L 153.635271 238.0101 
L 158.195026 238.0101 
L 162.75478 238.0101 
L 167.314535 238.0101 
L 171.87429 238.0101 
L 176.434045 238.0101 
L 180.9938 238.0101 
L 185.553555 238.0101 
L 190.113309 238.0101 
L 194.673064 238.0101 
L 199.232819 238.0101 
L 203.792574 238.0101 
L 208.352329 238.0101 
L 212.912084 238.0101 
L 217.471839 238.0101 
L 222.031593 238.0101 
L 226.591348 238.0101 
L 231.151103 238.0101 
L 235.710858 238.0101 
L 240.270613 238.0101 
L 244.830368 238.0101 
L 249.390123 238.0101 
L 253.949877 238.0101 
L 258.509632 238.0101 
L 263.069387 238.0101 
L 267.629142 238.0101 
L 272.188897 238.0101 
L 276.748652 238.0101 
L 281.308407 238.0101 
L 285.868161 238.0101 
L 290.427916 238.0101 
L 294.987671 238.0101 
L 299.547426 238.0101 
L 304.107181 238.0101 
L 308.666936 238.0101 
L 313.226691 238.0101 
L 317.786445 238.0101 
L 322.3462 238.0101 
L 326.905955 238.0101 
L 331.46571 238.0101 
L 336.025465 238.0101 
L 340.58522 238.0101 
L 345.144974 238.0101 
L 349.704729 238.0101 
L 354.264484 238.0101 
L 358.824239 238.0101 
L 363.383994 238.0101 
L 367.943749 238.0101 
L 372.503504 238.0101 
L 377.063258 238.0101 
L 381.623013 238.0101 
L 386.182768 238.0101 
L 390.742523 238.0101 
L 395.302278 238.0101 
L 399.862033 238.0101 
L 404.421788 238.0101 
L 408.981542 238.0101 
L 413.541297 238.0101 
L 418.101052 238.0101 
L 422.660807 238.0101 
L 427.220562 238.0101 
L 431.780317 238.0101 
L 436.340072 238.0101 
L 440.899826 238.0101 
L 445.459581 238.0101 
L 450.019336 238.0101 
L 454.579091 238.0101 
" style="fill:none;stroke:#e24a33;stroke-linecap:square;stroke-width:1.7;"/>
   </g>
   <g id="line2d_16">
    <path clip-path="url(#pfb97d36183)" d="M 48.760909 232.919191 
L 53.320664 232.4101 
L 57.880419 231.901009 
L 62.440174 231.391918 
L 66.999928 230.882827 
L 71.559683 230.373736 
L 76.119438 229.864645 
L 80.679193 229.355555 
L 85.238948 228.846464 
L 89.798703 228.337373 
L 94.358458 227.828282 
L 98.918212 227.319191 
L 103.477967 226.8101 
L 108.037722 226.301009 
L 112.597477 225.791918 
L 117.157232 225.282827 
L 121.716987 224.773736 
L 126.276742 224.264645 
L 130.836496 223.755555 
L 135.396251 223.246464 
L 139.956006 222.737373 
L 144.515761 222.228282 
L 149.075516 221.719191 
L 153.635271 221.2101 
L 158.195026 220.701009 
L 162.75478 220.191918 
L 167.314535 219.682827 
L 171.87429 219.173736 
L 176.434045 218.664645 
L 180.9938 218.155555 
L 185.553555 217.646464 
L 190.113309 217.137373 
L 194.673064 216.628282 
L 199.232819 216.119191 
L 203.792574 215.6101 
L 208.352329 215.101009 
L 212.912084 214.591918 
L 217.471839 214.082827 
L 222.031593 213.573736 
L 226.591348 213.064645 
L 231.151103 212.555555 
L 235.710858 212.046464 
L 240.270613 211.537373 
L 244.830368 211.028282 
L 249.390123 210.519191 
L 253.949877 210.0101 
L 258.509632 209.501009 
L 263.069387 208.991918 
L 267.629142 208.482827 
L 272.188897 207.973736 
L 276.748652 207.464645 
L 281.308407 206.955555 
L 285.868161 206.446464 
L 290.427916 205.937373 
L 294.987671 205.428282 
L 299.547426 204.919191 
L 304.107181 204.4101 
L 308.666936 203.901009 
L 313.226691 203.391918 
L 317.786445 202.882827 
L 322.3462 202.373736 
L 326.905955 201.864645 
L 331.46571 201.355555 
L 336.025465 200.846464 
L 340.58522 200.337373 
L 345.144974 199.828282 
L 349.704729 199.319191 
L 354.264484 198.8101 
L 358.824239 198.301009 
L 363.383994 197.791918 
L 367.943749 197.282827 
L 372.503504 196.773736 
L 377.063258 196.264645 
L 381.623013 195.755555 
L 386.182768 195.246464 
L 390.742523 194.737373 
L 395.302278 194.228282 
L 399.862033 193.719191 
L 404.421788 193.2101 
L 408.981542 192.701009 
L 413.541297 192.191918 
L 418.101052 191.682827 
L 422.660807 191.173736 
L 427.220562 190.664645 
L 431.780317 190.155555 
L 436.340072 189.646464 
L 440.899826 189.137373 
L 445.459581 188.628282 
L 450.019336 188.119191 
L 454.579091 187.6101 
" style="fill:none;stroke:#348abd;stroke-linecap:square;stroke-width:1.7;"/>
   </g>
   <g id="line2d_17">
    <path clip-path="url(#pfb97d36183)" d="M 48.760909 227.828282 
L 53.320664 226.8101 
L 57.880419 225.791918 
L 62.440174 224.773736 
L 66.999928 223.755555 
L 71.559683 222.737373 
L 76.119438 221.719191 
L 80.679193 220.701009 
L 85.238948 219.682827 
L 89.798703 218.664645 
L 94.358458 217.646464 
L 98.918212 216.628282 
L 103.477967 215.6101 
L 108.037722 214.591918 
L 112.597477 213.573736 
L 117.157232 212.555555 
L 121.716987 211.537373 
L 126.276742 210.519191 
L 130.836496 209.501009 
L 135.396251 208.482827 
L 139.956006 207.464645 
L 144.515761 206.446464 
L 149.075516 205.428282 
L 153.635271 204.4101 
L 158.195026 203.391918 
L 162.75478 202.373736 
L 167.314535 201.355555 
L 171.87429 200.337373 
L 176.434045 199.319191 
L 180.9938 198.301009 
L 185.553555 197.282827 
L 190.113309 196.264645 
L 194.673064 195.246464 
L 199.232819 194.228282 
L 203.792574 193.2101 
L 208.352329 192.191918 
L 212.912084 191.173736 
L 217.471839 190.155555 
L 222.031593 189.137373 
L 226.591348 188.119191 
L 231.151103 187.101009 
L 235.710858 186.082827 
L 240.270613 185.064645 
L 244.830368 184.046464 
L 249.390123 183.028282 
L 253.949877 182.0101 
L 258.509632 180.991918 
L 263.069387 179.973736 
L 267.629142 178.955555 
L 272.188897 177.937373 
L 276.748652 176.919191 
L 281.308407 175.901009 
L 285.868161 174.882827 
L 290.427916 173.864645 
L 294.987671 172.846464 
L 299.547426 171.828282 
L 304.107181 170.8101 
L 308.666936 169.791918 
L 313.226691 168.773736 
L 317.786445 167.755555 
L 322.3462 166.737373 
L 326.905955 165.719191 
L 331.46571 164.701009 
L 336.025465 163.682827 
L 340.58522 162.664645 
L 345.144974 161.646464 
L 349.704729 160.628282 
L 354.264484 159.6101 
L 358.824239 158.591918 
L 363.383994 157.573736 
L 367.943749 156.555555 
L 372.503504 155.537373 
L 377.063258 154.519191 
L 381.623013 153.501009 
L 386.182768 152.482827 
L 390.742523 151.464645 
L 395.302278 150.446464 
L 399.862033 149.428282 
L 404.421788 148.4101 
L 408.981542 147.391918 
L 413.541297 146.373736 
L 418.101052 145.355555 
L 422.660807 144.337373 
L 427.220562 143.319191 
L 431.780317 142.301009 
L 436.340072 141.282827 
L 440.899826 140.264645 
L 445.459581 139.246464 
L 450.019336 138.228282 
L 454.579091 137.2101 
" style="fill:none;stroke:#467821;stroke-linecap:square;stroke-width:1.7;"/>
   </g>
   <g id="line2d_18">
    <path clip-path="url(#pfb97d36183)" d="M 48.760909 222.737373 
L 53.320664 221.2101 
L 57.880419 219.682827 
L 62.440174 218.155555 
L 66.999928 216.628282 
L 71.559683 215.101009 
L 76.119438 213.573736 
L 80.679193 212.046464 
L 85.238948 210.519191 
L 89.798703 208.991918 
L 94.358458 207.464645 
L 98.918212 205.937373 
L 103.477967 204.4101 
L 108.037722 202.882827 
L 112.597477 201.355555 
L 117.157232 199.828282 
L 121.716987 198.301009 
L 126.276742 196.773736 
L 130.836496 195.246464 
L 135.396251 193.719191 
L 139.956006 192.191918 
L 144.515761 190.664645 
L 149.075516 189.137373 
L 153.635271 187.6101 
L 158.195026 186.082827 
L 162.75478 184.555555 
L 167.314535 183.028282 
L 171.87429 181.501009 
L 176.434045 179.973736 
L 180.9938 178.446464 
L 185.553555 176.919191 
L 190.113309 175.391918 
L 194.673064 173.864645 
L 199.232819 172.337373 
L 203.792574 170.8101 
L 208.352329 169.282827 
L 212.912084 167.755555 
L 217.471839 166.228282 
L 222.031593 164.701009 
L 226.591348 163.173736 
L 231.151103 161.646464 
L 235.710858 160.119191 
L 240.270613 158.591918 
L 244.830368 157.064645 
L 249.390123 155.537373 
L 253.949877 154.0101 
L 258.509632 152.482827 
L 263.069387 150.955555 
L 267.629142 149.428282 
L 272.188897 147.901009 
L 276.748652 146.373736 
L 281.308407 144.846464 
L 285.868161 143.319191 
L 290.427916 141.791918 
L 294.987671 140.264645 
L 299.547426 138.737373 
L 304.107181 137.2101 
L 308.666936 135.682827 
L 313.226691 134.155555 
L 317.786445 132.628282 
L 322.3462 131.101009 
L 326.905955 129.573736 
L 331.46571 128.046464 
L 336.025465 126.519191 
L 340.58522 124.991918 
L 345.144974 123.464645 
L 349.704729 121.937373 
L 354.264484 120.4101 
L 358.824239 118.882827 
L 363.383994 117.355555 
L 367.943749 115.828282 
L 372.503504 114.301009 
L 377.063258 112.773736 
L 381.623013 111.246464 
L 386.182768 109.719191 
L 390.742523 108.191918 
L 395.302278 106.664645 
L 399.862033 105.137373 
L 404.421788 103.6101 
L 408.981542 102.082827 
L 413.541297 100.555555 
L 418.101052 99.028282 
L 422.660807 97.501009 
L 427.220562 95.973736 
L 431.780317 94.446464 
L 436.340072 92.919191 
L 440.899826 91.391918 
L 445.459581 89.864645 
L 450.019336 88.337373 
L 454.579091 86.8101 
" style="fill:none;stroke:#a60628;stroke-linecap:square;stroke-width:1.7;"/>
   </g>
   <g id="line2d_19">
    <path clip-path="url(#pfb97d36183)" d="M 48.760909 217.646464 
L 53.320664 215.6101 
L 57.880419 213.573736 
L 62.440174 211.537373 
L 66.999928 209.501009 
L 71.559683 207.464645 
L 76.119438 205.428282 
L 80.679193 203.391918 
L 85.238948 201.355555 
L 89.798703 199.319191 
L 94.358458 197.282827 
L 98.918212 195.246464 
L 103.477967 193.2101 
L 108.037722 191.173736 
L 112.597477 189.137373 
L 117.157232 187.101009 
L 121.716987 185.064645 
L 126.276742 183.028282 
L 130.836496 180.991918 
L 135.396251 178.955555 
L 139.956006 176.919191 
L 144.515761 174.882827 
L 149.075516 172.846464 
L 153.635271 170.8101 
L 158.195026 168.773736 
L 162.75478 166.737373 
L 167.314535 164.701009 
L 171.87429 162.664645 
L 176.434045 160.628282 
L 180.9938 158.591918 
L 185.553555 156.555555 
L 190.113309 154.519191 
L 194.673064 152.482827 
L 199.232819 150.446464 
L 203.792574 148.4101 
L 208.352329 146.373736 
L 212.912084 144.337373 
L 217.471839 142.301009 
L 222.031593 140.264645 
L 226.591348 138.228282 
L 231.151103 136.191918 
L 235.710858 134.155555 
L 240.270613 132.119191 
L 244.830368 130.082827 
L 249.390123 128.046464 
L 253.949877 126.0101 
L 258.509632 123.973736 
L 263.069387 121.937373 
L 267.629142 119.901009 
L 272.188897 117.864645 
L 276.748652 115.828282 
L 281.308407 113.791918 
L 285.868161 111.755555 
L 290.427916 109.719191 
L 294.987671 107.682827 
L 299.547426 105.646464 
L 304.107181 103.6101 
L 308.666936 101.573736 
L 313.226691 99.537373 
L 317.786445 97.501009 
L 322.3462 95.464645 
L 326.905955 93.428282 
L 331.46571 91.391918 
L 336.025465 89.355555 
L 340.58522 87.319191 
L 345.144974 85.282827 
L 349.704729 83.246464 
L 354.264484 81.2101 
L 358.824239 79.173736 
L 363.383994 77.137373 
L 367.943749 75.101009 
L 372.503504 73.064645 
L 377.063258 71.028282 
L 381.623013 68.991918 
L 386.182768 66.955555 
L 390.742523 64.919191 
L 395.302278 62.882827 
L 399.862033 60.846464 
L 404.421788 58.8101 
L 408.981542 56.773736 
L 413.541297 54.737373 
L 418.101052 52.701009 
L 422.660807 50.664645 
L 427.220562 48.628282 
L 431.780317 46.591918 
L 436.340072 44.555555 
L 440.899826 42.519191 
L 445.459581 40.482827 
L 450.019336 38.446464 
L 454.579091 36.4101 
" style="fill:none;stroke:#7a68a6;stroke-linecap:square;stroke-width:1.7;"/>
   </g>
   <g id="patch_3">
    <path d="M 28.47 248.0901 
L 28.47 26.3301 
" style="fill:none;stroke:#aaaaaa;stroke-linecap:square;stroke-linejoin:miter;"/>
   </g>
   <g id="patch_4">
    <path d="M 474.87 248.0901 
L 474.87 26.3301 
" style="fill:none;stroke:#aaaaaa;stroke-linecap:square;stroke-linejoin:miter;"/>
   </g>
   <g id="patch_5">
    <path d="M 28.47 248.0901 
L 474.87 248.0901 
" style="fill:none;stroke:#aaaaaa;stroke-linecap:square;stroke-linejoin:miter;"/>
   </g>
   <g id="patch_6">
    <path d="M 28.47 26.3301 
L 474.87 26.3301 
" style="fill:none;stroke:#aaaaaa;stroke-linecap:square;stroke-linejoin:miter;"/>
   </g>
   <g id="text_15">
    <!-- Polynomial1D with a 5 model set on the same input -->
    <defs>
     <path d="M 19.671875 64.796875 
L 19.671875 37.40625 
L 32.078125 37.40625 
Q 38.96875 37.40625 42.71875 40.96875 
Q 46.484375 44.53125 46.484375 51.125 
Q 46.484375 57.671875 42.71875 61.234375 
Q 38.96875 64.796875 32.078125 64.796875 
z
M 9.8125 72.90625 
L 32.078125 72.90625 
Q 44.34375 72.90625 50.609375 67.359375 
Q 56.890625 61.8125 56.890625 51.125 
Q 56.890625 40.328125 50.609375 34.8125 
Q 44.34375 29.296875 32.078125 29.296875 
L 19.671875 29.296875 
L 19.671875 0 
L 9.8125 0 
z
" id="DejaVuSans-50"/>
     <path d="M 30.609375 48.390625 
Q 23.390625 48.390625 19.1875 42.75 
Q 14.984375 37.109375 14.984375 27.296875 
Q 14.984375 17.484375 19.15625 11.84375 
Q 23.34375 6.203125 30.609375 6.203125 
Q 37.796875 6.203125 41.984375 11.859375 
Q 46.1875 17.53125 46.1875 27.296875 
Q 46.1875 37.015625 41.984375 42.703125 
Q 37.796875 48.390625 30.609375 48.390625 
M 30.609375 56 
Q 42.328125 56 49.015625 48.375 
Q 55.71875 40.765625 55.71875 27.296875 
Q 55.71875 13.875 49.015625 6.21875 
Q 42.328125 -1.421875 30.609375 -1.421875 
Q 18.84375 -1.421875 12.171875 6.21875 
Q 5.515625 13.875 5.515625 27.296875 
Q 5.515625 40.765625 12.171875 48.375 
Q 18.84375 56 30.609375 56 
" id="DejaVuSans-6f"/>
     <path d="M 9.421875 75.984375 
L 18.40625 75.984375 
L 18.40625 0 
L 9.421875 0 
z
" id="DejaVuSans-6c"/>
     <path d="M 32.171875 -5.078125 
Q 28.375 -14.84375 24.75 -17.8125 
Q 21.140625 -20.796875 15.09375 -20.796875 
L 7.90625 -20.796875 
L 7.90625 -13.28125 
L 13.1875 -13.28125 
Q 16.890625 -13.28125 18.9375 -11.515625 
Q 21 -9.765625 23.484375 -3.21875 
L 25.09375 0.875 
L 2.984375 54.6875 
L 12.5 54.6875 
L 29.59375 11.921875 
L 46.6875 54.6875 
L 56.203125 54.6875 
z
" id="DejaVuSans-79"/>
     <path d="M 54.890625 33.015625 
L 54.890625 0 
L 45.90625 0 
L 45.90625 32.71875 
Q 45.90625 40.484375 42.875 44.328125 
Q 39.84375 48.1875 33.796875 48.1875 
Q 26.515625 48.1875 22.3125 43.546875 
Q 18.109375 38.921875 18.109375 30.90625 
L 18.109375 0 
L 9.078125 0 
L 9.078125 54.6875 
L 18.109375 54.6875 
L 18.109375 46.1875 
Q 21.34375 51.125 25.703125 53.5625 
Q 30.078125 56 35.796875 56 
Q 45.21875 56 50.046875 50.171875 
Q 54.890625 44.34375 54.890625 33.015625 
" id="DejaVuSans-6e"/>
     <path d="M 52 44.1875 
Q 55.375 50.25 60.0625 53.125 
Q 64.75 56 71.09375 56 
Q 79.640625 56 84.28125 50.015625 
Q 88.921875 44.046875 88.921875 33.015625 
L 88.921875 0 
L 79.890625 0 
L 79.890625 32.71875 
Q 79.890625 40.578125 77.09375 44.375 
Q 74.3125 48.1875 68.609375 48.1875 
Q 61.625 48.1875 57.5625 43.546875 
Q 53.515625 38.921875 53.515625 30.90625 
L 53.515625 0 
L 44.484375 0 
L 44.484375 32.71875 
Q 44.484375 40.625 41.703125 44.40625 
Q 38.921875 48.1875 33.109375 48.1875 
Q 26.21875 48.1875 22.15625 43.53125 
Q 18.109375 38.875 18.109375 30.90625 
L 18.109375 0 
L 9.078125 0 
L 9.078125 54.6875 
L 18.109375 54.6875 
L 18.109375 46.1875 
Q 21.1875 51.21875 25.484375 53.609375 
Q 29.78125 56 35.6875 56 
Q 41.65625 56 45.828125 52.96875 
Q 50 49.953125 52 44.1875 
" id="DejaVuSans-6d"/>
     <path d="M 9.421875 54.6875 
L 18.40625 54.6875 
L 18.40625 0 
L 9.421875 0 
z
M 9.421875 75.984375 
L 18.40625 75.984375 
L 18.40625 64.59375 
L 9.421875 64.59375 
z
" id="DejaVuSans-69"/>
     <path d="M 34.28125 27.484375 
Q 23.390625 27.484375 19.1875 25 
Q 14.984375 22.515625 14.984375 16.5 
Q 14.984375 11.71875 18.140625 8.90625 
Q 21.296875 6.109375 26.703125 6.109375 
Q 34.1875 6.109375 38.703125 11.40625 
Q 43.21875 16.703125 43.21875 25.484375 
L 43.21875 27.484375 
z
M 52.203125 31.203125 
L 52.203125 0 
L 43.21875 0 
L 43.21875 8.296875 
Q 40.140625 3.328125 35.546875 0.953125 
Q 30.953125 -1.421875 24.3125 -1.421875 
Q 15.921875 -1.421875 10.953125 3.296875 
Q 6 8.015625 6 15.921875 
Q 6 25.140625 12.171875 29.828125 
Q 18.359375 34.515625 30.609375 34.515625 
L 43.21875 34.515625 
L 43.21875 35.40625 
Q 43.21875 41.609375 39.140625 45 
Q 35.0625 48.390625 27.6875 48.390625 
Q 23 48.390625 18.546875 47.265625 
Q 14.109375 46.140625 10.015625 43.890625 
L 10.015625 52.203125 
Q 14.9375 54.109375 19.578125 55.046875 
Q 24.21875 56 28.609375 56 
Q 40.484375 56 46.34375 49.84375 
Q 52.203125 43.703125 52.203125 31.203125 
" id="DejaVuSans-61"/>
     <path d="M 19.671875 64.796875 
L 19.671875 8.109375 
L 31.59375 8.109375 
Q 46.6875 8.109375 53.6875 14.9375 
Q 60.6875 21.78125 60.6875 36.53125 
Q 60.6875 51.171875 53.6875 57.984375 
Q 46.6875 64.796875 31.59375 64.796875 
z
M 9.8125 72.90625 
L 30.078125 72.90625 
Q 51.265625 72.90625 61.171875 64.09375 
Q 71.09375 55.28125 71.09375 36.53125 
Q 71.09375 17.671875 61.125 8.828125 
Q 51.171875 0 30.078125 0 
L 9.8125 0 
z
" id="DejaVuSans-44"/>
     <path id="DejaVuSans-20"/>
     <path d="M 4.203125 54.6875 
L 13.1875 54.6875 
L 24.421875 12.015625 
L 35.59375 54.6875 
L 46.1875 54.6875 
L 57.421875 12.015625 
L 68.609375 54.6875 
L 77.59375 54.6875 
L 63.28125 0 
L 52.6875 0 
L 40.921875 44.828125 
L 29.109375 0 
L 18.5 0 
z
" id="DejaVuSans-77"/>
     <path d="M 18.3125 70.21875 
L 18.3125 54.6875 
L 36.8125 54.6875 
L 36.8125 47.703125 
L 18.3125 47.703125 
L 18.3125 18.015625 
Q 18.3125 11.328125 20.140625 9.421875 
Q 21.96875 7.515625 27.59375 7.515625 
L 36.8125 7.515625 
L 36.8125 0 
L 27.59375 0 
Q 17.1875 0 13.234375 3.875 
Q 9.28125 7.765625 9.28125 18.015625 
L 9.28125 47.703125 
L 2.6875 47.703125 
L 2.6875 54.6875 
L 9.28125 54.6875 
L 9.28125 70.21875 
z
" id="DejaVuSans-74"/>
     <path d="M 54.890625 33.015625 
L 54.890625 0 
L 45.90625 0 
L 45.90625 32.71875 
Q 45.90625 40.484375 42.875 44.328125 
Q 39.84375 48.1875 33.796875 48.1875 
Q 26.515625 48.1875 22.3125 43.546875 
Q 18.109375 38.921875 18.109375 30.90625 
L 18.109375 0 
L 9.078125 0 
L 9.078125 75.984375 
L 18.109375 75.984375 
L 18.109375 46.1875 
Q 21.34375 51.125 25.703125 53.5625 
Q 30.078125 56 35.796875 56 
Q 45.21875 56 50.046875 50.171875 
Q 54.890625 44.34375 54.890625 33.015625 
" id="DejaVuSans-68"/>
     <path d="M 45.40625 46.390625 
L 45.40625 75.984375 
L 54.390625 75.984375 
L 54.390625 0 
L 45.40625 0 
L 45.40625 8.203125 
Q 42.578125 3.328125 38.25 0.953125 
Q 33.9375 -1.421875 27.875 -1.421875 
Q 17.96875 -1.421875 11.734375 6.484375 
Q 5.515625 14.40625 5.515625 27.296875 
Q 5.515625 40.1875 11.734375 48.09375 
Q 17.96875 56 27.875 56 
Q 33.9375 56 38.25 53.625 
Q 42.578125 51.265625 45.40625 46.390625 
M 14.796875 27.296875 
Q 14.796875 17.390625 18.875 11.75 
Q 22.953125 6.109375 30.078125 6.109375 
Q 37.203125 6.109375 41.296875 11.75 
Q 45.40625 17.390625 45.40625 27.296875 
Q 45.40625 37.203125 41.296875 42.84375 
Q 37.203125 48.484375 30.078125 48.484375 
Q 22.953125 48.484375 18.875 42.84375 
Q 14.796875 37.203125 14.796875 27.296875 
" id="DejaVuSans-64"/>
     <path d="M 56.203125 29.59375 
L 56.203125 25.203125 
L 14.890625 25.203125 
Q 15.484375 15.921875 20.484375 11.0625 
Q 25.484375 6.203125 34.421875 6.203125 
Q 39.59375 6.203125 44.453125 7.46875 
Q 49.3125 8.734375 54.109375 11.28125 
L 54.109375 2.78125 
Q 49.265625 0.734375 44.1875 -0.34375 
Q 39.109375 -1.421875 33.890625 -1.421875 
Q 20.796875 -1.421875 13.15625 6.1875 
Q 5.515625 13.8125 5.515625 26.8125 
Q 5.515625 40.234375 12.765625 48.109375 
Q 20.015625 56 32.328125 56 
Q 43.359375 56 49.78125 48.890625 
Q 56.203125 41.796875 56.203125 29.59375 
M 47.21875 32.234375 
Q 47.125 39.59375 43.09375 43.984375 
Q 39.0625 48.390625 32.421875 48.390625 
Q 24.90625 48.390625 20.390625 44.140625 
Q 15.875 39.890625 15.1875 32.171875 
z
" id="DejaVuSans-65"/>
     <path d="M 44.28125 53.078125 
L 44.28125 44.578125 
Q 40.484375 46.53125 36.375 47.5 
Q 32.28125 48.484375 27.875 48.484375 
Q 21.1875 48.484375 17.84375 46.4375 
Q 14.5 44.390625 14.5 40.28125 
Q 14.5 37.15625 16.890625 35.375 
Q 19.28125 33.59375 26.515625 31.984375 
L 29.59375 31.296875 
Q 39.15625 29.25 43.1875 25.515625 
Q 47.21875 21.78125 47.21875 15.09375 
Q 47.21875 7.46875 41.1875 3.015625 
Q 35.15625 -1.421875 24.609375 -1.421875 
Q 20.21875 -1.421875 15.453125 -0.5625 
Q 10.6875 0.296875 5.421875 2 
L 5.421875 11.28125 
Q 10.40625 8.6875 15.234375 7.390625 
Q 20.0625 6.109375 24.8125 6.109375 
Q 31.15625 6.109375 34.5625 8.28125 
Q 37.984375 10.453125 37.984375 14.40625 
Q 37.984375 18.0625 35.515625 20.015625 
Q 33.0625 21.96875 24.703125 23.78125 
L 21.578125 24.515625 
Q 13.234375 26.265625 9.515625 29.90625 
Q 5.8125 33.546875 5.8125 39.890625 
Q 5.8125 47.609375 11.28125 51.796875 
Q 16.75 56 26.8125 56 
Q 31.78125 56 36.171875 55.265625 
Q 40.578125 54.546875 44.28125 53.078125 
" id="DejaVuSans-73"/>
     <path d="M 18.109375 8.203125 
L 18.109375 -20.796875 
L 9.078125 -20.796875 
L 9.078125 54.6875 
L 18.109375 54.6875 
L 18.109375 46.390625 
Q 20.953125 51.265625 25.265625 53.625 
Q 29.59375 56 35.59375 56 
Q 45.5625 56 51.78125 48.09375 
Q 58.015625 40.1875 58.015625 27.296875 
Q 58.015625 14.40625 51.78125 6.484375 
Q 45.5625 -1.421875 35.59375 -1.421875 
Q 29.59375 -1.421875 25.265625 0.953125 
Q 20.953125 3.328125 18.109375 8.203125 
M 48.6875 27.296875 
Q 48.6875 37.203125 44.609375 42.84375 
Q 40.53125 48.484375 33.40625 48.484375 
Q 26.265625 48.484375 22.1875 42.84375 
Q 18.109375 37.203125 18.109375 27.296875 
Q 18.109375 17.390625 22.1875 11.75 
Q 26.265625 6.109375 33.40625 6.109375 
Q 40.53125 6.109375 44.609375 11.75 
Q 48.6875 17.390625 48.6875 27.296875 
" id="DejaVuSans-70"/>
     <path d="M 8.5 21.578125 
L 8.5 54.6875 
L 17.484375 54.6875 
L 17.484375 21.921875 
Q 17.484375 14.15625 20.5 10.265625 
Q 23.53125 6.390625 29.59375 6.390625 
Q 36.859375 6.390625 41.078125 11.03125 
Q 45.3125 15.671875 45.3125 23.6875 
L 45.3125 54.6875 
L 54.296875 54.6875 
L 54.296875 0 
L 45.3125 0 
L 45.3125 8.40625 
Q 42.046875 3.421875 37.71875 1 
Q 33.40625 -1.421875 27.6875 -1.421875 
Q 18.265625 -1.421875 13.375 4.4375 
Q 8.5 10.296875 8.5 21.578125 
M 31.109375 56 
z
" id="DejaVuSans-75"/>
    </defs>
    <g transform="translate(27.6051 20.3301)scale(0.1728 -0.1728)">
     <use xlink:href="#DejaVuSans-50"/>
     <use x="60.255859" xlink:href="#DejaVuSans-6f"/>
     <use x="121.4375" xlink:href="#DejaVuSans-6c"/>
     <use x="149.220703" xlink:href="#DejaVuSans-79"/>
     <use x="208.400391" xlink:href="#DejaVuSans-6e"/>
     <use x="271.779297" xlink:href="#DejaVuSans-6f"/>
     <use x="332.960938" xlink:href="#DejaVuSans-6d"/>
     <use x="430.373047" xlink:href="#DejaVuSans-69"/>
     <use x="458.15625" xlink:href="#DejaVuSans-61"/>
     <use x="519.435547" xlink:href="#DejaVuSans-6c"/>
     <use x="547.21875" xlink:href="#DejaVuSans-31"/>
     <use x="610.841797" xlink:href="#DejaVuSans-44"/>
     <use x="687.84375" xlink:href="#DejaVuSans-20"/>
     <use x="719.630859" xlink:href="#DejaVuSans-77"/>
     <use x="801.417969" xlink:href="#DejaVuSans-69"/>
     <use x="829.201172" xlink:href="#DejaVuSans-74"/>
     <use x="868.410156" xlink:href="#DejaVuSans-68"/>
     <use x="931.789062" xlink:href="#DejaVuSans-20"/>
     <use x="963.576172" xlink:href="#DejaVuSans-61"/>
     <use x="1024.855469" xlink:href="#DejaVuSans-20"/>
     <use x="1056.642578" xlink:href="#DejaVuSans-35"/>
     <use x="1120.265625" xlink:href="#DejaVuSans-20"/>
     <use x="1152.052734" xlink:href="#DejaVuSans-6d"/>
     <use x="1249.464844" xlink:href="#DejaVuSans-6f"/>
     <use x="1310.646484" xlink:href="#DejaVuSans-64"/>
     <use x="1374.123047" xlink:href="#DejaVuSans-65"/>
     <use x="1435.646484" xlink:href="#DejaVuSans-6c"/>
     <use x="1463.429688" xlink:href="#DejaVuSans-20"/>
     <use x="1495.216797" xlink:href="#DejaVuSans-73"/>
     <use x="1547.316406" xlink:href="#DejaVuSans-65"/>
     <use x="1608.839844" xlink:href="#DejaVuSans-74"/>
     <use x="1648.048828" xlink:href="#DejaVuSans-20"/>
     <use x="1679.835938" xlink:href="#DejaVuSans-6f"/>
     <use x="1741.017578" xlink:href="#DejaVuSans-6e"/>
     <use x="1804.396484" xlink:href="#DejaVuSans-20"/>
     <use x="1836.183594" xlink:href="#DejaVuSans-74"/>
     <use x="1875.392578" xlink:href="#DejaVuSans-68"/>
     <use x="1938.771484" xlink:href="#DejaVuSans-65"/>
     <use x="2000.294922" xlink:href="#DejaVuSans-20"/>
     <use x="2032.082031" xlink:href="#DejaVuSans-73"/>
     <use x="2084.181641" xlink:href="#DejaVuSans-61"/>
     <use x="2145.460938" xlink:href="#DejaVuSans-6d"/>
     <use x="2242.873047" xlink:href="#DejaVuSans-65"/>
     <use x="2304.396484" xlink:href="#DejaVuSans-20"/>
     <use x="2336.183594" xlink:href="#DejaVuSans-69"/>
     <use x="2363.966797" xlink:href="#DejaVuSans-6e"/>
     <use x="2427.345703" xlink:href="#DejaVuSans-70"/>
     <use x="2490.822266" xlink:href="#DejaVuSans-75"/>
     <use x="2554.201172" xlink:href="#DejaVuSans-74"/>
    </g>
   </g>
  </g>
 </g>
 <defs>
  <clipPath id="pfb97d36183">
   <rect height="221.76" width="446.4" x="28.47" y="26.3301"/>
  </clipPath>
 </defs>
</svg>
