<?xml version="1.0" encoding="utf-8" standalone="no"?>
<!DOCTYPE svg PUBLIC "-//W3C//DTD SVG 1.1//EN"
  "http://www.w3.org/Graphics/SVG/1.1/DTD/svg11.dtd">
<!-- Created with matplotlib (http://matplotlib.org/) -->
<svg height="364pt" version="1.1" viewBox="0 0 374 364" width="374pt" xmlns="http://www.w3.org/2000/svg" xmlns:xlink="http://www.w3.org/1999/xlink">
 <defs>
  <style type="text/css">
*{stroke-linecap:butt;stroke-linejoin:round;}
  </style>
 </defs>
 <g id="figure_1">
  <g id="patch_1">
   <path d="M 0 364.65375 
L 374.28375 364.65375 
L 374.28375 0 
L 0 0 
z
" style="fill:none;"/>
  </g>
  <g id="axes_1">
   <g id="patch_2">
    <path d="M 32.28375 339.84 
L 367.08375 339.84 
L 367.08375 7.2 
L 32.28375 7.2 
z
" style="fill:#ffffff;"/>
   </g>
   <g id="matplotlib.axis_1">
    <g id="xtick_1">
     <g id="line2d_1"/>
     <g id="text_1">
      <!-- −4 -->
      <defs>
       <path d="M 10.59375 35.5 
L 73.1875 35.5 
L 73.1875 27.203125 
L 10.59375 27.203125 
z
" id="DejaVuSans-2212"/>
       <path d="M 37.796875 64.3125 
L 12.890625 25.390625 
L 37.796875 25.390625 
z
M 35.203125 72.90625 
L 47.609375 72.90625 
L 47.609375 25.390625 
L 58.015625 25.390625 
L 58.015625 17.1875 
L 47.609375 17.1875 
L 47.609375 0 
L 37.796875 0 
L 37.796875 17.1875 
L 4.890625 17.1875 
L 4.890625 26.703125 
z
" id="DejaVuSans-34"/>
      </defs>
      <g style="fill:#565656;" transform="translate(69.092983 354.958125)scale(0.12 -0.12)">
       <use xlink:href="#DejaVuSans-2212"/>
       <use x="83.789062" xlink:href="#DejaVuSans-34"/>
      </g>
     </g>
    </g>
    <g id="xtick_2">
     <g id="line2d_2"/>
     <g id="text_2">
      <!-- −2 -->
      <defs>
       <path d="M 19.1875 8.296875 
L 53.609375 8.296875 
L 53.609375 0 
L 7.328125 0 
L 7.328125 8.296875 
Q 12.9375 14.109375 22.625 23.890625 
Q 32.328125 33.6875 34.8125 36.53125 
Q 39.546875 41.84375 41.421875 45.53125 
Q 43.3125 49.21875 43.3125 52.78125 
Q 43.3125 58.59375 39.234375 62.25 
Q 35.15625 65.921875 28.609375 65.921875 
Q 23.96875 65.921875 18.8125 64.3125 
Q 13.671875 62.703125 7.8125 59.421875 
L 7.8125 69.390625 
Q 13.765625 71.78125 18.9375 73 
Q 24.125 74.21875 28.421875 74.21875 
Q 39.75 74.21875 46.484375 68.546875 
Q 53.21875 62.890625 53.21875 53.421875 
Q 53.21875 48.921875 51.53125 44.890625 
Q 49.859375 40.875 45.40625 35.40625 
Q 44.1875 33.984375 37.640625 27.21875 
Q 31.109375 20.453125 19.1875 8.296875 
" id="DejaVuSans-32"/>
      </defs>
      <g style="fill:#565656;" transform="translate(129.96571 354.958125)scale(0.12 -0.12)">
       <use xlink:href="#DejaVuSans-2212"/>
       <use x="83.789062" xlink:href="#DejaVuSans-32"/>
      </g>
     </g>
    </g>
    <g id="xtick_3">
     <g id="line2d_3"/>
     <g id="text_3">
      <!-- 0 -->
      <defs>
       <path d="M 31.78125 66.40625 
Q 24.171875 66.40625 20.328125 58.90625 
Q 16.5 51.421875 16.5 36.375 
Q 16.5 21.390625 20.328125 13.890625 
Q 24.171875 6.390625 31.78125 6.390625 
Q 39.453125 6.390625 43.28125 13.890625 
Q 47.125 21.390625 47.125 36.375 
Q 47.125 51.421875 43.28125 58.90625 
Q 39.453125 66.40625 31.78125 66.40625 
M 31.78125 74.21875 
Q 44.046875 74.21875 50.515625 64.515625 
Q 56.984375 54.828125 56.984375 36.375 
Q 56.984375 17.96875 50.515625 8.265625 
Q 44.046875 -1.421875 31.78125 -1.421875 
Q 19.53125 -1.421875 13.0625 8.265625 
Q 6.59375 17.96875 6.59375 36.375 
Q 6.59375 54.828125 13.0625 64.515625 
Q 19.53125 74.21875 31.78125 74.21875 
" id="DejaVuSans-30"/>
      </defs>
      <g style="fill:#565656;" transform="translate(195.86625 354.958125)scale(0.12 -0.12)">
       <use xlink:href="#DejaVuSans-30"/>
      </g>
     </g>
    </g>
    <g id="xtick_4">
     <g id="line2d_4"/>
     <g id="text_4">
      <!-- 2 -->
      <g style="fill:#565656;" transform="translate(256.738977 354.958125)scale(0.12 -0.12)">
       <use xlink:href="#DejaVuSans-32"/>
      </g>
     </g>
    </g>
    <g id="xtick_5">
     <g id="line2d_5"/>
     <g id="text_5">
      <!-- 4 -->
      <g style="fill:#565656;" transform="translate(317.611705 354.958125)scale(0.12 -0.12)">
       <use xlink:href="#DejaVuSans-34"/>
      </g>
     </g>
    </g>
   </g>
   <g id="matplotlib.axis_2">
    <g id="ytick_1">
     <g id="line2d_6"/>
     <g id="text_6">
      <!-- 0.0 -->
      <defs>
       <path d="M 10.6875 12.40625 
L 21 12.40625 
L 21 0 
L 10.6875 0 
z
" id="DejaVuSans-2e"/>
      </defs>
      <g style="fill:#565656;" transform="translate(7.2 296.792887)scale(0.12 -0.12)">
       <use xlink:href="#DejaVuSans-30"/>
       <use x="63.623047" xlink:href="#DejaVuSans-2e"/>
       <use x="95.410156" xlink:href="#DejaVuSans-30"/>
      </g>
     </g>
    </g>
    <g id="ytick_2">
     <g id="line2d_7"/>
     <g id="text_7">
      <!-- 0.5 -->
      <defs>
       <path d="M 10.796875 72.90625 
L 49.515625 72.90625 
L 49.515625 64.59375 
L 19.828125 64.59375 
L 19.828125 46.734375 
Q 21.96875 47.46875 24.109375 47.828125 
Q 26.265625 48.1875 28.421875 48.1875 
Q 40.625 48.1875 47.75 41.5 
Q 54.890625 34.8125 54.890625 23.390625 
Q 54.890625 11.625 47.5625 5.09375 
Q 40.234375 -1.421875 26.90625 -1.421875 
Q 22.3125 -1.421875 17.546875 -0.640625 
Q 12.796875 0.140625 7.71875 1.703125 
L 7.71875 11.625 
Q 12.109375 9.234375 16.796875 8.0625 
Q 21.484375 6.890625 26.703125 6.890625 
Q 35.15625 6.890625 40.078125 11.328125 
Q 45.015625 15.765625 45.015625 23.390625 
Q 45.015625 31 40.078125 35.4375 
Q 35.15625 39.890625 26.703125 39.890625 
Q 22.75 39.890625 18.8125 39.015625 
Q 14.890625 38.140625 10.796875 36.28125 
z
" id="DejaVuSans-35"/>
      </defs>
      <g style="fill:#565656;" transform="translate(7.2 233.169099)scale(0.12 -0.12)">
       <use xlink:href="#DejaVuSans-30"/>
       <use x="63.623047" xlink:href="#DejaVuSans-2e"/>
       <use x="95.410156" xlink:href="#DejaVuSans-35"/>
      </g>
     </g>
    </g>
    <g id="ytick_3">
     <g id="line2d_8"/>
     <g id="text_8">
      <!-- 1.0 -->
      <defs>
       <path d="M 12.40625 8.296875 
L 28.515625 8.296875 
L 28.515625 63.921875 
L 10.984375 60.40625 
L 10.984375 69.390625 
L 28.421875 72.90625 
L 38.28125 72.90625 
L 38.28125 8.296875 
L 54.390625 8.296875 
L 54.390625 0 
L 12.40625 0 
z
" id="DejaVuSans-31"/>
      </defs>
      <g style="fill:#565656;" transform="translate(7.2 169.545311)scale(0.12 -0.12)">
       <use xlink:href="#DejaVuSans-31"/>
       <use x="63.623047" xlink:href="#DejaVuSans-2e"/>
       <use x="95.410156" xlink:href="#DejaVuSans-30"/>
      </g>
     </g>
    </g>
    <g id="ytick_4">
     <g id="line2d_9"/>
     <g id="text_9">
      <!-- 1.5 -->
      <g style="fill:#565656;" transform="translate(7.2 105.921522)scale(0.12 -0.12)">
       <use xlink:href="#DejaVuSans-31"/>
       <use x="63.623047" xlink:href="#DejaVuSans-2e"/>
       <use x="95.410156" xlink:href="#DejaVuSans-35"/>
      </g>
     </g>
    </g>
    <g id="ytick_5">
     <g id="line2d_10"/>
     <g id="text_10">
      <!-- 2.0 -->
      <g style="fill:#565656;" transform="translate(7.2 42.297734)scale(0.12 -0.12)">
       <use xlink:href="#DejaVuSans-32"/>
       <use x="63.623047" xlink:href="#DejaVuSans-2e"/>
       <use x="95.410156" xlink:href="#DejaVuSans-30"/>
      </g>
     </g>
    </g>
   </g>
   <g id="line2d_11">
    <defs>
     <path d="M 0 3 
C 0.795609 3 1.55874 2.683901 2.12132 2.12132 
C 2.683901 1.55874 3 0.795609 3 0 
C 3 -0.795609 2.683901 -1.55874 2.12132 -2.12132 
C 1.55874 -2.683901 0.795609 -3 0 -3 
C -0.795609 -3 -1.55874 -2.683901 -2.12132 -2.12132 
C -2.683901 -1.55874 -3 -0.795609 -3 0 
C -3 0.795609 -2.683901 1.55874 -2.12132 2.12132 
C -1.55874 2.683901 -0.795609 3 0 3 
z
" id="m4c85db39ff" style="stroke:#000000;"/>
    </defs>
    <g clip-path="url(#pb4b4db02ab)">
     <use style="stroke:#000000;" x="47.501932" xlink:href="#m4c85db39ff" y="269.786686"/>
     <use style="stroke:#000000;" x="49.031397" xlink:href="#m4c85db39ff" y="287.141921"/>
     <use style="stroke:#000000;" x="50.560863" xlink:href="#m4c85db39ff" y="279.779621"/>
     <use style="stroke:#000000;" x="52.090328" xlink:href="#m4c85db39ff" y="263.719002"/>
     <use style="stroke:#000000;" x="53.619794" xlink:href="#m4c85db39ff" y="268.469602"/>
     <use style="stroke:#000000;" x="55.149259" xlink:href="#m4c85db39ff" y="304.669449"/>
     <use style="stroke:#000000;" x="56.678725" xlink:href="#m4c85db39ff" y="280.144179"/>
     <use style="stroke:#000000;" x="58.20819" xlink:href="#m4c85db39ff" y="294.159808"/>
     <use style="stroke:#000000;" x="59.737656" xlink:href="#m4c85db39ff" y="293.547259"/>
     <use style="stroke:#000000;" x="61.267121" xlink:href="#m4c85db39ff" y="287.009058"/>
     <use style="stroke:#000000;" x="62.796587" xlink:href="#m4c85db39ff" y="290.400905"/>
     <use style="stroke:#000000;" x="64.326052" xlink:href="#m4c85db39ff" y="273.728546"/>
     <use style="stroke:#000000;" x="65.855518" xlink:href="#m4c85db39ff" y="282.549804"/>
     <use style="stroke:#000000;" x="67.384983" xlink:href="#m4c85db39ff" y="290.685539"/>
     <use style="stroke:#000000;" x="68.914449" xlink:href="#m4c85db39ff" y="286.585772"/>
     <use style="stroke:#000000;" x="70.443914" xlink:href="#m4c85db39ff" y="287.987899"/>
     <use style="stroke:#000000;" x="71.97338" xlink:href="#m4c85db39ff" y="273.22203"/>
     <use style="stroke:#000000;" x="73.502845" xlink:href="#m4c85db39ff" y="294.844413"/>
     <use style="stroke:#000000;" x="75.032311" xlink:href="#m4c85db39ff" y="288.250113"/>
     <use style="stroke:#000000;" x="76.561776" xlink:href="#m4c85db39ff" y="303.101985"/>
     <use style="stroke:#000000;" x="78.091242" xlink:href="#m4c85db39ff" y="324.72"/>
     <use style="stroke:#000000;" x="79.620708" xlink:href="#m4c85db39ff" y="283.916685"/>
     <use style="stroke:#000000;" x="81.150173" xlink:href="#m4c85db39ff" y="281.234081"/>
     <use style="stroke:#000000;" x="82.679639" xlink:href="#m4c85db39ff" y="301.677692"/>
     <use style="stroke:#000000;" x="84.209104" xlink:href="#m4c85db39ff" y="263.351744"/>
     <use style="stroke:#000000;" x="85.73857" xlink:href="#m4c85db39ff" y="310.740271"/>
     <use style="stroke:#000000;" x="87.268035" xlink:href="#m4c85db39ff" y="291.651552"/>
     <use style="stroke:#000000;" x="88.797501" xlink:href="#m4c85db39ff" y="294.615686"/>
     <use style="stroke:#000000;" x="90.326966" xlink:href="#m4c85db39ff" y="272.72957"/>
     <use style="stroke:#000000;" x="91.856432" xlink:href="#m4c85db39ff" y="273.536577"/>
     <use style="stroke:#000000;" x="93.385897" xlink:href="#m4c85db39ff" y="290.262138"/>
     <use style="stroke:#000000;" x="94.915363" xlink:href="#m4c85db39ff" y="287.421774"/>
     <use style="stroke:#000000;" x="96.444828" xlink:href="#m4c85db39ff" y="303.530652"/>
     <use style="stroke:#000000;" x="97.974294" xlink:href="#m4c85db39ff" y="317.438939"/>
     <use style="stroke:#000000;" x="99.503759" xlink:href="#m4c85db39ff" y="296.660869"/>
     <use style="stroke:#000000;" x="101.033225" xlink:href="#m4c85db39ff" y="290.244253"/>
     <use style="stroke:#000000;" x="102.56269" xlink:href="#m4c85db39ff" y="276.578584"/>
     <use style="stroke:#000000;" x="104.092156" xlink:href="#m4c85db39ff" y="276.933716"/>
     <use style="stroke:#000000;" x="105.621621" xlink:href="#m4c85db39ff" y="297.162314"/>
     <use style="stroke:#000000;" x="107.151087" xlink:href="#m4c85db39ff" y="296.080359"/>
     <use style="stroke:#000000;" x="108.680552" xlink:href="#m4c85db39ff" y="305.576156"/>
     <use style="stroke:#000000;" x="110.210018" xlink:href="#m4c85db39ff" y="310.302886"/>
     <use style="stroke:#000000;" x="111.739483" xlink:href="#m4c85db39ff" y="313.945285"/>
     <use style="stroke:#000000;" x="113.268949" xlink:href="#m4c85db39ff" y="267.410148"/>
     <use style="stroke:#000000;" x="114.798414" xlink:href="#m4c85db39ff" y="298.718339"/>
     <use style="stroke:#000000;" x="116.32788" xlink:href="#m4c85db39ff" y="297.807327"/>
     <use style="stroke:#000000;" x="117.857345" xlink:href="#m4c85db39ff" y="308.174189"/>
     <use style="stroke:#000000;" x="119.386811" xlink:href="#m4c85db39ff" y="282.338933"/>
     <use style="stroke:#000000;" x="120.916276" xlink:href="#m4c85db39ff" y="312.768266"/>
     <use style="stroke:#000000;" x="122.445742" xlink:href="#m4c85db39ff" y="294.938153"/>
     <use style="stroke:#000000;" x="123.975207" xlink:href="#m4c85db39ff" y="303.624613"/>
     <use style="stroke:#000000;" x="125.504673" xlink:href="#m4c85db39ff" y="287.305155"/>
     <use style="stroke:#000000;" x="127.034138" xlink:href="#m4c85db39ff" y="298.725738"/>
     <use style="stroke:#000000;" x="128.563604" xlink:href="#m4c85db39ff" y="307.245117"/>
     <use style="stroke:#000000;" x="130.093069" xlink:href="#m4c85db39ff" y="292.574051"/>
     <use style="stroke:#000000;" x="131.622535" xlink:href="#m4c85db39ff" y="286.754694"/>
     <use style="stroke:#000000;" x="133.152" xlink:href="#m4c85db39ff" y="291.34211"/>
     <use style="stroke:#000000;" x="134.681466" xlink:href="#m4c85db39ff" y="288.313134"/>
     <use style="stroke:#000000;" x="136.210931" xlink:href="#m4c85db39ff" y="300.191607"/>
     <use style="stroke:#000000;" x="137.740397" xlink:href="#m4c85db39ff" y="296.669968"/>
     <use style="stroke:#000000;" x="139.269862" xlink:href="#m4c85db39ff" y="300.509162"/>
     <use style="stroke:#000000;" x="140.799328" xlink:href="#m4c85db39ff" y="296.371913"/>
     <use style="stroke:#000000;" x="142.328793" xlink:href="#m4c85db39ff" y="301.909732"/>
     <use style="stroke:#000000;" x="143.858259" xlink:href="#m4c85db39ff" y="313.182473"/>
     <use style="stroke:#000000;" x="145.387724" xlink:href="#m4c85db39ff" y="288.452784"/>
     <use style="stroke:#000000;" x="146.91719" xlink:href="#m4c85db39ff" y="295.098091"/>
     <use style="stroke:#000000;" x="148.446655" xlink:href="#m4c85db39ff" y="309.706823"/>
     <use style="stroke:#000000;" x="149.976121" xlink:href="#m4c85db39ff" y="281.65607"/>
     <use style="stroke:#000000;" x="151.505586" xlink:href="#m4c85db39ff" y="297.15712"/>
     <use style="stroke:#000000;" x="153.035052" xlink:href="#m4c85db39ff" y="282.362146"/>
     <use style="stroke:#000000;" x="154.564517" xlink:href="#m4c85db39ff" y="270.339406"/>
     <use style="stroke:#000000;" x="156.093983" xlink:href="#m4c85db39ff" y="273.574154"/>
     <use style="stroke:#000000;" x="157.623448" xlink:href="#m4c85db39ff" y="255.132843"/>
     <use style="stroke:#000000;" x="159.152914" xlink:href="#m4c85db39ff" y="278.391407"/>
     <use style="stroke:#000000;" x="160.68238" xlink:href="#m4c85db39ff" y="249.065247"/>
     <use style="stroke:#000000;" x="162.211845" xlink:href="#m4c85db39ff" y="252.724183"/>
     <use style="stroke:#000000;" x="163.741311" xlink:href="#m4c85db39ff" y="243.144521"/>
     <use style="stroke:#000000;" x="165.270776" xlink:href="#m4c85db39ff" y="225.691364"/>
     <use style="stroke:#000000;" x="166.800242" xlink:href="#m4c85db39ff" y="206.828093"/>
     <use style="stroke:#000000;" x="168.329707" xlink:href="#m4c85db39ff" y="185.135174"/>
     <use style="stroke:#000000;" x="169.859173" xlink:href="#m4c85db39ff" y="182.396056"/>
     <use style="stroke:#000000;" x="171.388638" xlink:href="#m4c85db39ff" y="136.961834"/>
     <use style="stroke:#000000;" x="172.918104" xlink:href="#m4c85db39ff" y="122.998178"/>
     <use style="stroke:#000000;" x="174.447569" xlink:href="#m4c85db39ff" y="129.214782"/>
     <use style="stroke:#000000;" x="175.977035" xlink:href="#m4c85db39ff" y="72.377762"/>
     <use style="stroke:#000000;" x="177.5065" xlink:href="#m4c85db39ff" y="50.434154"/>
     <use style="stroke:#000000;" x="179.035966" xlink:href="#m4c85db39ff" y="45.069117"/>
     <use style="stroke:#000000;" x="180.565431" xlink:href="#m4c85db39ff" y="50.745006"/>
     <use style="stroke:#000000;" x="182.094897" xlink:href="#m4c85db39ff" y="53.849326"/>
     <use style="stroke:#000000;" x="183.624362" xlink:href="#m4c85db39ff" y="22.32"/>
     <use style="stroke:#000000;" x="185.153828" xlink:href="#m4c85db39ff" y="40.318088"/>
     <use style="stroke:#000000;" x="186.683293" xlink:href="#m4c85db39ff" y="23.02583"/>
     <use style="stroke:#000000;" x="188.212759" xlink:href="#m4c85db39ff" y="43.087822"/>
     <use style="stroke:#000000;" x="189.742224" xlink:href="#m4c85db39ff" y="43.878751"/>
     <use style="stroke:#000000;" x="191.27169" xlink:href="#m4c85db39ff" y="65.252852"/>
     <use style="stroke:#000000;" x="192.801155" xlink:href="#m4c85db39ff" y="76.583754"/>
     <use style="stroke:#000000;" x="194.330621" xlink:href="#m4c85db39ff" y="102.861135"/>
     <use style="stroke:#000000;" x="195.860086" xlink:href="#m4c85db39ff" y="98.629005"/>
     <use style="stroke:#000000;" x="197.389552" xlink:href="#m4c85db39ff" y="138.36541"/>
     <use style="stroke:#000000;" x="198.919017" xlink:href="#m4c85db39ff" y="153.147336"/>
     <use style="stroke:#000000;" x="200.448483" xlink:href="#m4c85db39ff" y="151.714321"/>
     <use style="stroke:#000000;" x="201.977948" xlink:href="#m4c85db39ff" y="208.957205"/>
     <use style="stroke:#000000;" x="203.507414" xlink:href="#m4c85db39ff" y="222.519652"/>
     <use style="stroke:#000000;" x="205.036879" xlink:href="#m4c85db39ff" y="206.792962"/>
     <use style="stroke:#000000;" x="206.566345" xlink:href="#m4c85db39ff" y="244.980554"/>
     <use style="stroke:#000000;" x="208.09581" xlink:href="#m4c85db39ff" y="214.405116"/>
     <use style="stroke:#000000;" x="209.625276" xlink:href="#m4c85db39ff" y="251.727653"/>
     <use style="stroke:#000000;" x="211.154741" xlink:href="#m4c85db39ff" y="261.681531"/>
     <use style="stroke:#000000;" x="212.684207" xlink:href="#m4c85db39ff" y="231.955584"/>
     <use style="stroke:#000000;" x="214.213672" xlink:href="#m4c85db39ff" y="240.574364"/>
     <use style="stroke:#000000;" x="215.743138" xlink:href="#m4c85db39ff" y="237.56246"/>
     <use style="stroke:#000000;" x="217.272603" xlink:href="#m4c85db39ff" y="250.816345"/>
     <use style="stroke:#000000;" x="218.802069" xlink:href="#m4c85db39ff" y="273.595528"/>
     <use style="stroke:#000000;" x="220.331534" xlink:href="#m4c85db39ff" y="238.04215"/>
     <use style="stroke:#000000;" x="221.861" xlink:href="#m4c85db39ff" y="265.014015"/>
     <use style="stroke:#000000;" x="223.390465" xlink:href="#m4c85db39ff" y="250.300581"/>
     <use style="stroke:#000000;" x="224.919931" xlink:href="#m4c85db39ff" y="247.103826"/>
     <use style="stroke:#000000;" x="226.449396" xlink:href="#m4c85db39ff" y="259.58292"/>
     <use style="stroke:#000000;" x="227.978862" xlink:href="#m4c85db39ff" y="248.112178"/>
     <use style="stroke:#000000;" x="229.508327" xlink:href="#m4c85db39ff" y="242.41353"/>
     <use style="stroke:#000000;" x="231.037793" xlink:href="#m4c85db39ff" y="247.521902"/>
     <use style="stroke:#000000;" x="232.567258" xlink:href="#m4c85db39ff" y="264.43404"/>
     <use style="stroke:#000000;" x="234.096724" xlink:href="#m4c85db39ff" y="244.774055"/>
     <use style="stroke:#000000;" x="235.626189" xlink:href="#m4c85db39ff" y="229.826993"/>
     <use style="stroke:#000000;" x="237.155655" xlink:href="#m4c85db39ff" y="253.70687"/>
     <use style="stroke:#000000;" x="238.68512" xlink:href="#m4c85db39ff" y="244.979134"/>
     <use style="stroke:#000000;" x="240.214586" xlink:href="#m4c85db39ff" y="246.874913"/>
     <use style="stroke:#000000;" x="241.744052" xlink:href="#m4c85db39ff" y="216.137675"/>
     <use style="stroke:#000000;" x="243.273517" xlink:href="#m4c85db39ff" y="229.526378"/>
     <use style="stroke:#000000;" x="244.802983" xlink:href="#m4c85db39ff" y="231.4002"/>
     <use style="stroke:#000000;" x="246.332448" xlink:href="#m4c85db39ff" y="244.988317"/>
     <use style="stroke:#000000;" x="247.861914" xlink:href="#m4c85db39ff" y="227.048051"/>
     <use style="stroke:#000000;" x="249.391379" xlink:href="#m4c85db39ff" y="241.330588"/>
     <use style="stroke:#000000;" x="250.920845" xlink:href="#m4c85db39ff" y="231.314683"/>
     <use style="stroke:#000000;" x="252.45031" xlink:href="#m4c85db39ff" y="238.917933"/>
     <use style="stroke:#000000;" x="253.979776" xlink:href="#m4c85db39ff" y="221.470683"/>
     <use style="stroke:#000000;" x="255.509241" xlink:href="#m4c85db39ff" y="222.141866"/>
     <use style="stroke:#000000;" x="257.038707" xlink:href="#m4c85db39ff" y="231.684118"/>
     <use style="stroke:#000000;" x="258.568172" xlink:href="#m4c85db39ff" y="223.706559"/>
     <use style="stroke:#000000;" x="260.097638" xlink:href="#m4c85db39ff" y="242.526207"/>
     <use style="stroke:#000000;" x="261.627103" xlink:href="#m4c85db39ff" y="247.625277"/>
     <use style="stroke:#000000;" x="263.156569" xlink:href="#m4c85db39ff" y="223.250617"/>
     <use style="stroke:#000000;" x="264.686034" xlink:href="#m4c85db39ff" y="227.072083"/>
     <use style="stroke:#000000;" x="266.2155" xlink:href="#m4c85db39ff" y="221.619697"/>
     <use style="stroke:#000000;" x="267.744965" xlink:href="#m4c85db39ff" y="200.035091"/>
     <use style="stroke:#000000;" x="269.274431" xlink:href="#m4c85db39ff" y="219.148911"/>
     <use style="stroke:#000000;" x="270.803896" xlink:href="#m4c85db39ff" y="243.73125"/>
     <use style="stroke:#000000;" x="272.333362" xlink:href="#m4c85db39ff" y="218.985197"/>
     <use style="stroke:#000000;" x="273.862827" xlink:href="#m4c85db39ff" y="251.153401"/>
     <use style="stroke:#000000;" x="275.392293" xlink:href="#m4c85db39ff" y="241.610242"/>
     <use style="stroke:#000000;" x="276.921758" xlink:href="#m4c85db39ff" y="238.041659"/>
     <use style="stroke:#000000;" x="278.451224" xlink:href="#m4c85db39ff" y="216.906844"/>
     <use style="stroke:#000000;" x="279.980689" xlink:href="#m4c85db39ff" y="249.809362"/>
     <use style="stroke:#000000;" x="281.510155" xlink:href="#m4c85db39ff" y="252.550252"/>
     <use style="stroke:#000000;" x="283.03962" xlink:href="#m4c85db39ff" y="245.054965"/>
     <use style="stroke:#000000;" x="284.569086" xlink:href="#m4c85db39ff" y="254.068502"/>
     <use style="stroke:#000000;" x="286.098551" xlink:href="#m4c85db39ff" y="233.1579"/>
     <use style="stroke:#000000;" x="287.628017" xlink:href="#m4c85db39ff" y="263.137534"/>
     <use style="stroke:#000000;" x="289.157482" xlink:href="#m4c85db39ff" y="265.921146"/>
     <use style="stroke:#000000;" x="290.686948" xlink:href="#m4c85db39ff" y="258.827376"/>
     <use style="stroke:#000000;" x="292.216413" xlink:href="#m4c85db39ff" y="261.531909"/>
     <use style="stroke:#000000;" x="293.745879" xlink:href="#m4c85db39ff" y="232.572458"/>
     <use style="stroke:#000000;" x="295.275344" xlink:href="#m4c85db39ff" y="246.958142"/>
     <use style="stroke:#000000;" x="296.80481" xlink:href="#m4c85db39ff" y="259.814037"/>
     <use style="stroke:#000000;" x="298.334275" xlink:href="#m4c85db39ff" y="278.377273"/>
     <use style="stroke:#000000;" x="299.863741" xlink:href="#m4c85db39ff" y="253.855246"/>
     <use style="stroke:#000000;" x="301.393206" xlink:href="#m4c85db39ff" y="279.096172"/>
     <use style="stroke:#000000;" x="302.922672" xlink:href="#m4c85db39ff" y="287.742425"/>
     <use style="stroke:#000000;" x="304.452137" xlink:href="#m4c85db39ff" y="254.628001"/>
     <use style="stroke:#000000;" x="305.981603" xlink:href="#m4c85db39ff" y="267.310911"/>
     <use style="stroke:#000000;" x="307.511068" xlink:href="#m4c85db39ff" y="261.160072"/>
     <use style="stroke:#000000;" x="309.040534" xlink:href="#m4c85db39ff" y="270.288503"/>
     <use style="stroke:#000000;" x="310.569999" xlink:href="#m4c85db39ff" y="264.838327"/>
     <use style="stroke:#000000;" x="312.099465" xlink:href="#m4c85db39ff" y="285.351732"/>
     <use style="stroke:#000000;" x="313.62893" xlink:href="#m4c85db39ff" y="291.482893"/>
     <use style="stroke:#000000;" x="315.158396" xlink:href="#m4c85db39ff" y="270.832455"/>
     <use style="stroke:#000000;" x="316.687861" xlink:href="#m4c85db39ff" y="290.84069"/>
     <use style="stroke:#000000;" x="318.217327" xlink:href="#m4c85db39ff" y="290.433369"/>
     <use style="stroke:#000000;" x="319.746792" xlink:href="#m4c85db39ff" y="288.427971"/>
     <use style="stroke:#000000;" x="321.276258" xlink:href="#m4c85db39ff" y="283.313998"/>
     <use style="stroke:#000000;" x="322.805724" xlink:href="#m4c85db39ff" y="288.880466"/>
     <use style="stroke:#000000;" x="324.335189" xlink:href="#m4c85db39ff" y="302.648325"/>
     <use style="stroke:#000000;" x="325.864655" xlink:href="#m4c85db39ff" y="294.058092"/>
     <use style="stroke:#000000;" x="327.39412" xlink:href="#m4c85db39ff" y="314.818348"/>
     <use style="stroke:#000000;" x="328.923586" xlink:href="#m4c85db39ff" y="279.172958"/>
     <use style="stroke:#000000;" x="330.453051" xlink:href="#m4c85db39ff" y="308.06532"/>
     <use style="stroke:#000000;" x="331.982517" xlink:href="#m4c85db39ff" y="302.234035"/>
     <use style="stroke:#000000;" x="333.511982" xlink:href="#m4c85db39ff" y="287.972609"/>
     <use style="stroke:#000000;" x="335.041448" xlink:href="#m4c85db39ff" y="298.459416"/>
     <use style="stroke:#000000;" x="336.570913" xlink:href="#m4c85db39ff" y="269.786298"/>
     <use style="stroke:#000000;" x="338.100379" xlink:href="#m4c85db39ff" y="306.206993"/>
     <use style="stroke:#000000;" x="339.629844" xlink:href="#m4c85db39ff" y="286.658092"/>
     <use style="stroke:#000000;" x="341.15931" xlink:href="#m4c85db39ff" y="290.825038"/>
     <use style="stroke:#000000;" x="342.688775" xlink:href="#m4c85db39ff" y="305.428811"/>
     <use style="stroke:#000000;" x="344.218241" xlink:href="#m4c85db39ff" y="284.119986"/>
     <use style="stroke:#000000;" x="345.747706" xlink:href="#m4c85db39ff" y="293.150787"/>
     <use style="stroke:#000000;" x="347.277172" xlink:href="#m4c85db39ff" y="281.314543"/>
     <use style="stroke:#000000;" x="348.806637" xlink:href="#m4c85db39ff" y="280.804232"/>
     <use style="stroke:#000000;" x="350.336103" xlink:href="#m4c85db39ff" y="263.886409"/>
     <use style="stroke:#000000;" x="351.865568" xlink:href="#m4c85db39ff" y="274.520034"/>
    </g>
   </g>
   <g id="line2d_12">
    <path clip-path="url(#pb4b4db02ab)" d="M 47.501932 292.233824 
L 136.210931 292.124884 
L 140.799328 291.851972 
L 143.858259 291.356429 
L 145.387724 290.919222 
L 146.91719 290.28499 
L 148.446655 289.379566 
L 149.976121 288.108333 
L 151.505586 286.353866 
L 153.035052 283.974698 
L 154.564517 280.805887 
L 156.093983 276.662076 
L 157.623448 271.343726 
L 159.152914 264.647032 
L 160.68238 256.377741 
L 162.211845 246.368659 
L 163.741311 234.500076 
L 165.270776 220.721732 
L 166.800242 205.074353 
L 168.329707 187.70831 
L 171.388638 149.040247 
L 175.977035 88.92883 
L 177.5065 71.021008 
L 179.035966 55.399417 
L 180.565431 42.737487 
L 182.094897 33.59971 
L 183.624362 28.398337 
L 185.153828 27.360722 
L 186.683293 30.510888 
L 188.212759 37.66739 
L 189.742224 48.457709 
L 191.27169 62.347567 
L 192.801155 78.681939 
L 195.860086 115.752626 
L 198.919017 153.870757 
L 200.448483 171.758638 
L 201.977948 188.244075 
L 203.507414 203.018524 
L 205.036879 215.898907 
L 206.566345 226.816446 
L 208.09581 235.799228 
L 209.625276 242.951197 
L 211.154741 248.430116 
L 212.684207 252.426604 
L 214.213672 255.145796 
L 215.743138 256.792536 
L 217.272603 257.560458 
L 218.802069 257.624832 
L 220.331534 257.138728 
L 221.861 256.23185 
L 223.390465 255.011336 
L 224.919931 253.563841 
L 227.978862 250.24908 
L 237.155655 239.675763 
L 240.214586 236.516641 
L 243.273517 233.718253 
L 246.332448 231.358661 
L 247.861914 230.364302 
L 249.391379 229.503069 
L 250.920845 228.780985 
L 252.45031 228.203132 
L 253.979776 227.773597 
L 255.509241 227.495429 
L 257.038707 227.370613 
L 258.568172 227.400038 
L 260.097638 227.583496 
L 261.627103 227.919681 
L 263.156569 228.406204 
L 264.686034 229.039624 
L 266.2155 229.815487 
L 267.744965 230.728378 
L 270.803896 232.939169 
L 273.862827 235.612093 
L 276.921758 238.67681 
L 279.980689 242.055611 
L 284.569086 247.533416 
L 298.334275 264.443971 
L 302.922672 269.510434 
L 305.981603 272.598877 
L 309.040534 275.428303 
L 312.099465 277.986286 
L 315.158396 280.269359 
L 318.217327 282.281778 
L 321.276258 284.03414 
L 324.335189 285.541955 
L 327.39412 286.824246 
L 330.453051 287.902258 
L 333.511982 288.798307 
L 338.100379 289.850073 
L 342.688775 290.614896 
L 347.277172 291.157628 
L 351.865568 291.533574 
L 351.865568 291.533574 
" style="fill:none;stroke:#e24a33;stroke-linecap:square;stroke-width:1.7;"/>
   </g>
   <g id="patch_3">
    <path d="M 32.28375 339.84 
L 32.28375 7.2 
" style="fill:none;stroke:#aaaaaa;stroke-linecap:square;stroke-linejoin:miter;"/>
   </g>
   <g id="patch_4">
    <path d="M 367.08375 339.84 
L 367.08375 7.2 
" style="fill:none;stroke:#aaaaaa;stroke-linecap:square;stroke-linejoin:miter;"/>
   </g>
   <g id="patch_5">
    <path d="M 32.28375 339.84 
L 367.08375 339.84 
" style="fill:none;stroke:#aaaaaa;stroke-linecap:square;stroke-linejoin:miter;"/>
   </g>
   <g id="patch_6">
    <path d="M 32.28375 7.2 
L 367.08375 7.2 
" style="fill:none;stroke:#aaaaaa;stroke-linecap:square;stroke-linejoin:miter;"/>
   </g>
  </g>
 </g>
 <defs>
  <clipPath id="pb4b4db02ab">
   <rect height="332.64" width="334.8" x="32.28375" y="7.2"/>
  </clipPath>
 </defs>
</svg>
