<?xml version="1.0" encoding="UTF-8" standalone="no"?>
<!DOCTYPE svg PUBLIC "-//W3C//DTD SVG 1.1//EN"
 "http://www.w3.org/Graphics/SVG/1.1/DTD/svg11.dtd">
<!-- Generated by graphviz version 2.38.0 (20140413.2041)
 -->
<!-- Title: AstropyCoordinateTransformGraph Pages: 1 -->
<svg width="985pt" height="443pt"
 viewBox="0.00 0.00 985.18 442.56" xmlns="http://www.w3.org/2000/svg" xmlns:xlink="http://www.w3.org/1999/xlink">
<g id="graph0" class="graph" transform="scale(1 1) rotate(0) translate(4 438.558)">
<title>AstropyCoordinateTransformGraph</title>
<polygon fill="white" stroke="none" points="-4,4 -4,-438.558 981.179,-438.558 981.179,4 -4,4"/>
<!-- LSR -->
<g id="node1" class="node"><title>LSR</title>
<ellipse fill="none" stroke="black" cx="492.912" cy="-413.345" rx="27" ry="21.4286"/>
<text text-anchor="middle" x="492.912" y="-416.345" font-family="Helvetica Neue, Helvetica, Arial, sans-serif" font-size="10.00">LSR</text>
<text text-anchor="middle" x="492.912" y="-405.345" font-family="Helvetica Neue, Helvetica, Arial, sans-serif" font-size="10.00">`lsr`</text>
</g>
<!-- ICRS -->
<g id="node2" class="node"><title>ICRS</title>
<ellipse fill="none" stroke="black" cx="492.912" cy="-334.919" rx="28.0702" ry="21.4286"/>
<text text-anchor="middle" x="492.912" y="-337.919" font-family="Helvetica Neue, Helvetica, Arial, sans-serif" font-size="10.00">ICRS</text>
<text text-anchor="middle" x="492.912" y="-326.919" font-family="Helvetica Neue, Helvetica, Arial, sans-serif" font-size="10.00">`icrs`</text>
</g>
<!-- LSR&#45;&gt;ICRS -->
<g id="edge1" class="edge"><title>LSR&#45;&gt;ICRS</title>
<path fill="none" stroke="#555555" d="M486.888,-392.265C486.189,-384.191 485.995,-374.711 486.304,-365.854"/>
<polygon fill="#555555" stroke="#555555" points="489.799,-366.055 486.9,-355.865 482.811,-365.639 489.799,-366.055"/>
</g>
<!-- ICRS&#45;&gt;LSR -->
<g id="edge39" class="edge"><title>ICRS&#45;&gt;LSR</title>
<path fill="none" stroke="#555555" d="M498.923,-355.865C499.628,-363.923 499.828,-373.399 499.524,-382.263"/>
<polygon fill="#555555" stroke="#555555" points="496.029,-382.077 498.935,-392.265 503.017,-382.488 496.029,-382.077"/>
</g>
<!-- FK5 -->
<g id="node5" class="node"><title>FK5</title>
<ellipse fill="none" stroke="black" cx="203.912" cy="-256.492" rx="27" ry="21.4286"/>
<text text-anchor="middle" x="203.912" y="-259.492" font-family="Helvetica Neue, Helvetica, Arial, sans-serif" font-size="10.00">FK5</text>
<text text-anchor="middle" x="203.912" y="-248.492" font-family="Helvetica Neue, Helvetica, Arial, sans-serif" font-size="10.00">`fk5`</text>
</g>
<!-- ICRS&#45;&gt;FK5 -->
<g id="edge41" class="edge"><title>ICRS&#45;&gt;FK5</title>
<path fill="none" stroke="#1b9e77" d="M465.433,-329.548C419.614,-321.091 325.941,-301.237 248.912,-277.706 244.251,-276.282 239.409,-274.668 234.687,-272.989"/>
<polygon fill="#1b9e77" stroke="#1b9e77" points="235.849,-269.687 225.256,-269.489 233.413,-276.25 235.849,-269.687"/>
</g>
<!-- Galactocentric -->
<g id="node7" class="node"><title>Galactocentric</title>
<ellipse fill="none" stroke="black" cx="326.912" cy="-256.492" rx="60.2083" ry="21.4286"/>
<text text-anchor="middle" x="326.912" y="-259.492" font-family="Helvetica Neue, Helvetica, Arial, sans-serif" font-size="10.00">Galactocentric</text>
<text text-anchor="middle" x="326.912" y="-248.492" font-family="Helvetica Neue, Helvetica, Arial, sans-serif" font-size="10.00">`galactocentric`</text>
</g>
<!-- ICRS&#45;&gt;Galactocentric -->
<g id="edge43" class="edge"><title>ICRS&#45;&gt;Galactocentric</title>
<path fill="none" stroke="#555555" d="M467.943,-324.547C441.365,-313.313 399.181,-294.128 367.8,-279.15"/>
<polygon fill="#555555" stroke="#555555" points="368.966,-275.827 358.437,-274.65 365.934,-282.136 368.966,-275.827"/>
</g>
<!-- GCRS -->
<g id="node9" class="node"><title>GCRS</title>
<ellipse fill="none" stroke="black" cx="492.912" cy="-256.492" rx="31.6406" ry="21.4286"/>
<text text-anchor="middle" x="492.912" y="-259.492" font-family="Helvetica Neue, Helvetica, Arial, sans-serif" font-size="10.00">GCRS</text>
<text text-anchor="middle" x="492.912" y="-248.492" font-family="Helvetica Neue, Helvetica, Arial, sans-serif" font-size="10.00">`gcrs`</text>
</g>
<!-- ICRS&#45;&gt;GCRS -->
<g id="edge40" class="edge"><title>ICRS&#45;&gt;GCRS</title>
<path fill="none" stroke="#d95f02" d="M486.888,-313.839C486.189,-305.765 485.995,-296.285 486.304,-287.428"/>
<polygon fill="#d95f02" stroke="#d95f02" points="489.799,-287.629 486.9,-277.438 482.811,-287.212 489.799,-287.629"/>
</g>
<!-- HCRS -->
<g id="node11" class="node"><title>HCRS</title>
<ellipse fill="none" stroke="black" cx="330.912" cy="-178.066" rx="31.6406" ry="21.4286"/>
<text text-anchor="middle" x="330.912" y="-181.066" font-family="Helvetica Neue, Helvetica, Arial, sans-serif" font-size="10.00">HCRS</text>
<text text-anchor="middle" x="330.912" y="-170.066" font-family="Helvetica Neue, Helvetica, Arial, sans-serif" font-size="10.00">`hcrs`</text>
</g>
<!-- ICRS&#45;&gt;HCRS -->
<g id="edge45" class="edge"><title>ICRS&#45;&gt;HCRS</title>
<path fill="none" stroke="#555555" d="M473.371,-319.513C452.029,-299.976 417.743,-264.198 386.912,-235.279 375.812,-224.868 363.239,-213.83 352.697,-204.316"/>
<polygon fill="#555555" stroke="#555555" points="354.836,-201.53 345.09,-197.374 350.118,-206.7 354.836,-201.53"/>
</g>
<!-- CIRS -->
<g id="node14" class="node"><title>CIRS</title>
<ellipse fill="none" stroke="black" cx="791.912" cy="-178.066" rx="28.0702" ry="21.4286"/>
<text text-anchor="middle" x="791.912" y="-181.066" font-family="Helvetica Neue, Helvetica, Arial, sans-serif" font-size="10.00">CIRS</text>
<text text-anchor="middle" x="791.912" y="-170.066" font-family="Helvetica Neue, Helvetica, Arial, sans-serif" font-size="10.00">`cirs`</text>
</g>
<!-- ICRS&#45;&gt;CIRS -->
<g id="edge44" class="edge"><title>ICRS&#45;&gt;CIRS</title>
<path fill="none" stroke="#d95f02" d="M505.863,-315.865C529.56,-290.478 577.863,-246.113 598.912,-235.279 658.334,-204.693 682.489,-223.154 744.912,-199.279 749.304,-197.599 753.834,-195.523 758.301,-193.348"/>
<polygon fill="#d95f02" stroke="#d95f02" points="759.942,-196.441 767.32,-188.838 756.811,-190.18 759.942,-196.441"/>
</g>
<!-- BarycentricTrueEcliptic -->
<g id="node16" class="node"><title>BarycentricTrueEcliptic</title>
<ellipse fill="none" stroke="black" cx="701.912" cy="-256.492" rx="84.7059" ry="21.4286"/>
<text text-anchor="middle" x="701.912" y="-259.492" font-family="Helvetica Neue, Helvetica, Arial, sans-serif" font-size="10.00">BarycentricTrueEcliptic</text>
<text text-anchor="middle" x="701.912" y="-248.492" font-family="Helvetica Neue, Helvetica, Arial, sans-serif" font-size="10.00">`barycentrictrueecliptic`</text>
</g>
<!-- ICRS&#45;&gt;BarycentricTrueEcliptic -->
<g id="edge42" class="edge"><title>ICRS&#45;&gt;BarycentricTrueEcliptic</title>
<path fill="none" stroke="#1b9e77" d="M516.717,-323.452C547.181,-311.543 600.694,-291.833 642.438,-277.055"/>
<polygon fill="#1b9e77" stroke="#1b9e77" points="643.695,-280.323 651.963,-273.697 641.368,-273.721 643.695,-280.323"/>
</g>
<!-- HeliocentricTrueEcliptic -->
<g id="node18" class="node"><title>HeliocentricTrueEcliptic</title>
<ellipse fill="none" stroke="black" cx="890.912" cy="-256.492" rx="86.0347" ry="21.4286"/>
<text text-anchor="middle" x="890.912" y="-259.492" font-family="Helvetica Neue, Helvetica, Arial, sans-serif" font-size="10.00">HeliocentricTrueEcliptic</text>
<text text-anchor="middle" x="890.912" y="-248.492" font-family="Helvetica Neue, Helvetica, Arial, sans-serif" font-size="10.00">`heliocentrictrueecliptic`</text>
</g>
<!-- ICRS&#45;&gt;HeliocentricTrueEcliptic -->
<g id="edge46" class="edge"><title>ICRS&#45;&gt;HeliocentricTrueEcliptic</title>
<path fill="none" stroke="#d95f02" d="M519.788,-328.206C571.719,-318.344 688.527,-297.295 786.912,-277.706 795.777,-275.94 805.096,-274.028 814.372,-272.108"/>
<polygon fill="#d95f02" stroke="#d95f02" points="815.316,-275.486 824.396,-270.027 813.894,-268.632 815.316,-275.486"/>
</g>
<!-- GalacticLSR -->
<g id="node3" class="node"><title>GalacticLSR</title>
<ellipse fill="none" stroke="black" cx="50.9117" cy="-21.2132" rx="50.8235" ry="21.4286"/>
<text text-anchor="middle" x="50.9117" y="-24.2132" font-family="Helvetica Neue, Helvetica, Arial, sans-serif" font-size="10.00">GalacticLSR</text>
<text text-anchor="middle" x="50.9117" y="-13.2132" font-family="Helvetica Neue, Helvetica, Arial, sans-serif" font-size="10.00">`galacticlsr`</text>
</g>
<!-- Galactic -->
<g id="node4" class="node"><title>Galactic</title>
<ellipse fill="none" stroke="black" cx="113.912" cy="-99.6396" rx="40.1111" ry="21.4286"/>
<text text-anchor="middle" x="113.912" y="-102.64" font-family="Helvetica Neue, Helvetica, Arial, sans-serif" font-size="10.00">Galactic</text>
<text text-anchor="middle" x="113.912" y="-91.6396" font-family="Helvetica Neue, Helvetica, Arial, sans-serif" font-size="10.00">`galactic`</text>
</g>
<!-- GalacticLSR&#45;&gt;Galactic -->
<g id="edge2" class="edge"><title>GalacticLSR&#45;&gt;Galactic</title>
<path fill="none" stroke="#555555" d="M72.098,-40.7764C80.4168,-49.8079 89.7324,-60.8513 97.5339,-70.8604"/>
<polygon fill="#555555" stroke="#555555" points="94.844,-73.1057 103.676,-78.9579 100.421,-68.8754 94.844,-73.1057"/>
</g>
<!-- Galactic&#45;&gt;GalacticLSR -->
<g id="edge11" class="edge"><title>Galactic&#45;&gt;GalacticLSR</title>
<path fill="none" stroke="#555555" d="M93.4991,-80.9138C84.983,-71.728 75.3227,-60.2999 67.2756,-49.9746"/>
<polygon fill="#555555" stroke="#555555" points="70.0534,-47.8452 61.2206,-41.9943 64.4769,-52.0763 70.0534,-47.8452"/>
</g>
<!-- Galactic&#45;&gt;FK5 -->
<g id="edge12" class="edge"><title>Galactic&#45;&gt;FK5</title>
<path fill="none" stroke="#1b9e77" d="M121.273,-120.58C125.136,-141.572 129.97,-174.893 144.912,-199.279 153.283,-212.942 166.167,-224.825 177.864,-234.101"/>
<polygon fill="#1b9e77" stroke="#1b9e77" points="176.019,-237.096 186.09,-240.384 180.267,-231.532 176.019,-237.096"/>
</g>
<!-- FK4NoETerms -->
<g id="node6" class="node"><title>FK4NoETerms</title>
<ellipse fill="none" stroke="black" cx="203.912" cy="-178.066" rx="58.8803" ry="21.4286"/>
<text text-anchor="middle" x="203.912" y="-181.066" font-family="Helvetica Neue, Helvetica, Arial, sans-serif" font-size="10.00">FK4NoETerms</text>
<text text-anchor="middle" x="203.912" y="-170.066" font-family="Helvetica Neue, Helvetica, Arial, sans-serif" font-size="10.00">`fk4noeterms`</text>
</g>
<!-- Galactic&#45;&gt;FK4NoETerms -->
<g id="edge10" class="edge"><title>Galactic&#45;&gt;FK4NoETerms</title>
<path fill="none" stroke="#1b9e77" d="M138.384,-116.654C151.088,-126.474 166.46,-139.287 179.187,-150.586"/>
<polygon fill="#1b9e77" stroke="#1b9e77" points="176.953,-153.284 186.723,-157.384 181.642,-148.087 176.953,-153.284"/>
</g>
<!-- Supergalactic -->
<g id="node10" class="node"><title>Supergalactic</title>
<ellipse fill="none" stroke="black" cx="177.912" cy="-21.2132" rx="57.9655" ry="21.4286"/>
<text text-anchor="middle" x="177.912" y="-24.2132" font-family="Helvetica Neue, Helvetica, Arial, sans-serif" font-size="10.00">Supergalactic</text>
<text text-anchor="middle" x="177.912" y="-13.2132" font-family="Helvetica Neue, Helvetica, Arial, sans-serif" font-size="10.00">`supergalactic`</text>
</g>
<!-- Galactic&#45;&gt;Supergalactic -->
<g id="edge9" class="edge"><title>Galactic&#45;&gt;Supergalactic</title>
<path fill="none" stroke="#7570b3" d="M124.405,-78.9579C131.299,-69.7447 140.445,-58.6352 149.274,-48.6976"/>
<polygon fill="#7570b3" stroke="#7570b3" points="152.101,-50.7913 156.239,-41.0377 146.922,-46.0823 152.101,-50.7913"/>
</g>
<!-- FK5&#45;&gt;ICRS -->
<g id="edge5" class="edge"><title>FK5&#45;&gt;ICRS</title>
<path fill="none" stroke="#1b9e77" d="M229.056,-264.599C240.735,-268.751 254.466,-273.904 266.912,-277.706 332.977,-297.888 411.286,-315.365 456.356,-325.266"/>
<polygon fill="#1b9e77" stroke="#1b9e77" points="455.743,-328.715 466.261,-327.44 457.244,-321.878 455.743,-328.715"/>
</g>
<!-- FK5&#45;&gt;Galactic -->
<g id="edge4" class="edge"><title>FK5&#45;&gt;Galactic</title>
<path fill="none" stroke="#1b9e77" d="M180.321,-246.158C162.495,-236.491 139.556,-219.915 126.912,-199.279 114.266,-178.641 108.861,-151.601 107.973,-131.053"/>
<polygon fill="#1b9e77" stroke="#1b9e77" points="111.472,-130.944 107.906,-120.968 104.472,-130.991 111.472,-130.944"/>
</g>
<!-- FK5&#45;&gt;FK5 -->
<g id="edge6" class="edge"><title>FK5&#45;&gt;FK5</title>
<path fill="none" stroke="#1b9e77" d="M224.742,-270.203C237.193,-273.25 248.912,-268.68 248.912,-256.492 248.912,-247.733 242.858,-242.908 234.829,-242.018"/>
<polygon fill="#1b9e77" stroke="#1b9e77" points="234.449,-238.537 224.742,-242.781 234.977,-245.517 234.449,-238.537"/>
</g>
<!-- FK5&#45;&gt;FK4NoETerms -->
<g id="edge3" class="edge"><title>FK5&#45;&gt;FK4NoETerms</title>
<path fill="none" stroke="#1b9e77" d="M197.888,-235.412C197.202,-227.489 197.002,-218.211 197.288,-209.498"/>
<polygon fill="#1b9e77" stroke="#1b9e77" points="200.795,-209.462 197.877,-199.277 193.807,-209.059 200.795,-209.462"/>
</g>
<!-- FK4NoETerms&#45;&gt;Galactic -->
<g id="edge19" class="edge"><title>FK4NoETerms&#45;&gt;Galactic</title>
<path fill="none" stroke="#1b9e77" d="M176.743,-158.954C164.16,-149.105 149.444,-136.766 137.351,-125.977"/>
<polygon fill="#1b9e77" stroke="#1b9e77" points="139.59,-123.282 129.833,-119.152 134.885,-128.465 139.59,-123.282"/>
</g>
<!-- FK4NoETerms&#45;&gt;FK5 -->
<g id="edge20" class="edge"><title>FK4NoETerms&#45;&gt;FK5</title>
<path fill="none" stroke="#1b9e77" d="M209.946,-199.277C210.627,-207.216 210.822,-216.497 210.531,-225.205"/>
<polygon fill="#1b9e77" stroke="#1b9e77" points="207.024,-225.225 209.935,-235.412 214.012,-225.633 207.024,-225.225"/>
</g>
<!-- FK4NoETerms&#45;&gt;FK4NoETerms -->
<g id="edge18" class="edge"><title>FK4NoETerms&#45;&gt;FK4NoETerms</title>
<path fill="none" stroke="#1b9e77" d="M246.886,-192.54C265.092,-193.631 280.602,-188.806 280.602,-178.066 280.602,-169.423 270.559,-164.611 257.149,-163.63"/>
<polygon fill="#1b9e77" stroke="#1b9e77" points="256.899,-160.129 246.886,-163.592 256.873,-167.129 256.899,-160.129"/>
</g>
<!-- FK4 -->
<g id="node13" class="node"><title>FK4</title>
<ellipse fill="none" stroke="black" cx="203.912" cy="-99.6396" rx="27" ry="21.4286"/>
<text text-anchor="middle" x="203.912" y="-102.64" font-family="Helvetica Neue, Helvetica, Arial, sans-serif" font-size="10.00">FK4</text>
<text text-anchor="middle" x="203.912" y="-91.6396" font-family="Helvetica Neue, Helvetica, Arial, sans-serif" font-size="10.00">`fk4`</text>
</g>
<!-- FK4NoETerms&#45;&gt;FK4 -->
<g id="edge17" class="edge"><title>FK4NoETerms&#45;&gt;FK4</title>
<path fill="none" stroke="#d95f02" d="M197.854,-156.585C197.183,-148.601 197,-139.289 197.304,-130.58"/>
<polygon fill="#d95f02" stroke="#d95f02" points="200.811,-130.577 197.918,-120.385 193.823,-130.157 200.811,-130.577"/>
</g>
<!-- Galactocentric&#45;&gt;ICRS -->
<g id="edge7" class="edge"><title>Galactocentric&#45;&gt;ICRS</title>
<path fill="none" stroke="#555555" d="M365.775,-272.837C395.113,-285.627 434.694,-303.822 461.93,-317.025"/>
<polygon fill="#555555" stroke="#555555" points="460.492,-320.217 471.012,-321.47 463.569,-313.93 460.492,-320.217"/>
</g>
<!-- GeocentricTrueEcliptic -->
<g id="node8" class="node"><title>GeocentricTrueEcliptic</title>
<ellipse fill="none" stroke="black" cx="481.912" cy="-178.066" rx="82.9636" ry="21.4286"/>
<text text-anchor="middle" x="481.912" y="-181.066" font-family="Helvetica Neue, Helvetica, Arial, sans-serif" font-size="10.00">GeocentricTrueEcliptic</text>
<text text-anchor="middle" x="481.912" y="-170.066" font-family="Helvetica Neue, Helvetica, Arial, sans-serif" font-size="10.00">`geocentrictrueecliptic`</text>
</g>
<!-- GeocentricTrueEcliptic&#45;&gt;GCRS -->
<g id="edge8" class="edge"><title>GeocentricTrueEcliptic&#45;&gt;GCRS</title>
<path fill="none" stroke="#d95f02" d="M490.869,-199.338C492.666,-207.174 494.178,-216.312 495.139,-224.912"/>
<polygon fill="#d95f02" stroke="#d95f02" points="491.664,-225.354 496.021,-235.012 498.638,-224.745 491.664,-225.354"/>
</g>
<!-- GCRS&#45;&gt;ICRS -->
<g id="edge25" class="edge"><title>GCRS&#45;&gt;ICRS</title>
<path fill="none" stroke="#d95f02" d="M498.923,-277.438C499.628,-285.497 499.828,-294.973 499.524,-303.836"/>
<polygon fill="#d95f02" stroke="#d95f02" points="496.029,-303.65 498.935,-313.839 503.017,-304.062 496.029,-303.65"/>
</g>
<!-- GCRS&#45;&gt;GeocentricTrueEcliptic -->
<g id="edge23" class="edge"><title>GCRS&#45;&gt;GeocentricTrueEcliptic</title>
<path fill="none" stroke="#d95f02" d="M484.091,-235.811C482.223,-227.8 480.652,-218.356 479.667,-209.494"/>
<polygon fill="#d95f02" stroke="#d95f02" points="483.15,-209.141 478.798,-199.481 476.176,-209.746 483.15,-209.141"/>
</g>
<!-- GCRS&#45;&gt;GCRS -->
<g id="edge21" class="edge"><title>GCRS&#45;&gt;GCRS</title>
<path fill="none" stroke="#d95f02" d="M517.005,-270.418C530.398,-273.017 542.731,-268.375 542.731,-256.492 542.731,-247.766 536.08,-242.945 527.242,-242.029"/>
<polygon fill="#d95f02" stroke="#d95f02" points="526.807,-238.547 517.005,-242.567 527.175,-245.537 526.807,-238.547"/>
</g>
<!-- GCRS&#45;&gt;HCRS -->
<g id="edge26" class="edge"><title>GCRS&#45;&gt;HCRS</title>
<path fill="none" stroke="#d95f02" d="M467.599,-243.551C440.099,-230.577 396,-209.772 365.358,-195.316"/>
<polygon fill="#d95f02" stroke="#d95f02" points="366.851,-192.151 356.313,-191.05 363.864,-198.482 366.851,-192.151"/>
</g>
<!-- PrecessedGeocentric -->
<g id="node12" class="node"><title>PrecessedGeocentric</title>
<ellipse fill="none" stroke="black" cx="663.912" cy="-178.066" rx="81.135" ry="21.4286"/>
<text text-anchor="middle" x="663.912" y="-181.066" font-family="Helvetica Neue, Helvetica, Arial, sans-serif" font-size="10.00">PrecessedGeocentric</text>
<text text-anchor="middle" x="663.912" y="-170.066" font-family="Helvetica Neue, Helvetica, Arial, sans-serif" font-size="10.00">`precessedgeocentric`</text>
</g>
<!-- GCRS&#45;&gt;PrecessedGeocentric -->
<g id="edge22" class="edge"><title>GCRS&#45;&gt;PrecessedGeocentric</title>
<path fill="none" stroke="#d95f02" d="M517.066,-242.354C541.364,-230.751 579.394,-213.625 610.714,-200.114"/>
<polygon fill="#d95f02" stroke="#d95f02" points="612.385,-203.205 620.196,-196.047 609.626,-196.772 612.385,-203.205"/>
</g>
<!-- GCRS&#45;&gt;CIRS -->
<g id="edge24" class="edge"><title>GCRS&#45;&gt;CIRS</title>
<path fill="none" stroke="#d95f02" d="M518.571,-243.784C527.772,-240.767 538.186,-237.694 547.912,-235.279 634.295,-213.834 660.848,-228.525 744.912,-199.279 749.354,-197.734 753.908,-195.727 758.385,-193.578"/>
<polygon fill="#d95f02" stroke="#d95f02" points="760.024,-196.672 767.406,-189.072 756.896,-190.41 760.024,-196.672"/>
</g>
<!-- Supergalactic&#45;&gt;Galactic -->
<g id="edge16" class="edge"><title>Supergalactic&#45;&gt;Galactic</title>
<path fill="none" stroke="#7570b3" d="M167.199,-42.1873C159.944,-51.8597 150.256,-63.5688 141.072,-73.81"/>
<polygon fill="#7570b3" stroke="#7570b3" points="138.382,-71.5647 134.195,-81.2973 143.537,-76.2999 138.382,-71.5647"/>
</g>
<!-- HCRS&#45;&gt;ICRS -->
<g id="edge13" class="edge"><title>HCRS&#45;&gt;ICRS</title>
<path fill="none" stroke="#555555" d="M354.519,-192.573C369.598,-203.745 388.807,-220.173 404.912,-235.279 430.162,-258.963 457.729,-287.248 475.393,-307.444"/>
<polygon fill="#555555" stroke="#555555" points="472.943,-309.965 482.098,-315.298 478.267,-305.42 472.943,-309.965"/>
</g>
<!-- HCRS&#45;&gt;HCRS -->
<g id="edge14" class="edge"><title>HCRS&#45;&gt;HCRS</title>
<path fill="none" stroke="#d95f02" d="M355.005,-191.991C368.398,-194.591 380.731,-189.949 380.731,-178.066 380.731,-169.34 374.08,-164.518 365.242,-163.602"/>
<polygon fill="#d95f02" stroke="#d95f02" points="364.807,-160.12 355.005,-164.141 365.175,-167.11 364.807,-160.12"/>
</g>
<!-- PrecessedGeocentric&#45;&gt;GCRS -->
<g id="edge15" class="edge"><title>PrecessedGeocentric&#45;&gt;GCRS</title>
<path fill="none" stroke="#d95f02" d="M628.902,-197.33C600.017,-210.837 559.299,-228.964 529.887,-241.371"/>
<polygon fill="#d95f02" stroke="#d95f02" points="528.256,-238.258 520.379,-245.344 530.955,-244.717 528.256,-238.258"/>
</g>
<!-- FK4&#45;&gt;FK4NoETerms -->
<g id="edge31" class="edge"><title>FK4&#45;&gt;FK4NoETerms</title>
<path fill="none" stroke="#d95f02" d="M209.906,-120.385C210.607,-128.286 210.82,-137.573 210.546,-146.317"/>
<polygon fill="#d95f02" stroke="#d95f02" points="207.036,-146.405 209.969,-156.585 214.025,-146.797 207.036,-146.405"/>
</g>
<!-- FK4&#45;&gt;FK4 -->
<g id="edge30" class="edge"><title>FK4&#45;&gt;FK4</title>
<path fill="none" stroke="#d95f02" d="M224.742,-113.351C237.193,-116.397 248.912,-111.827 248.912,-99.6396 248.912,-90.8798 242.858,-86.0551 234.829,-85.1655"/>
<polygon fill="#d95f02" stroke="#d95f02" points="234.449,-81.6841 224.742,-85.9287 234.977,-88.6642 234.449,-81.6841"/>
</g>
<!-- CIRS&#45;&gt;ICRS -->
<g id="edge36" class="edge"><title>CIRS&#45;&gt;ICRS</title>
<path fill="none" stroke="#d95f02" d="M773.817,-194.472C770.264,-196.233 766.541,-197.891 762.912,-199.279 700.489,-223.154 676.334,-204.693 616.912,-235.279 596.624,-245.722 551.015,-287.316 520.923,-313.041"/>
<polygon fill="#d95f02" stroke="#d95f02" points="518.633,-310.394 513.257,-319.524 523.153,-315.739 518.633,-310.394"/>
</g>
<!-- CIRS&#45;&gt;GCRS -->
<g id="edge37" class="edge"><title>CIRS&#45;&gt;GCRS</title>
<path fill="none" stroke="#d95f02" d="M773.894,-194.684C770.329,-196.41 766.582,-198.002 762.912,-199.279 678.848,-228.525 652.295,-213.834 565.912,-235.279 554.916,-238.009 543.04,-241.581 532.046,-244.962"/>
<polygon fill="#d95f02" stroke="#d95f02" points="530.772,-241.692 522.247,-247.983 532.835,-248.381 530.772,-241.692"/>
</g>
<!-- CIRS&#45;&gt;CIRS -->
<g id="edge35" class="edge"><title>CIRS&#45;&gt;CIRS</title>
<path fill="none" stroke="#d95f02" d="M813.816,-191.888C826.442,-194.708 838.196,-190.101 838.196,-178.066 838.196,-169.416 832.124,-164.603 824.02,-163.627"/>
<polygon fill="#d95f02" stroke="#d95f02" points="823.586,-160.147 813.816,-164.244 824.009,-167.134 823.586,-160.147"/>
</g>
<!-- AltAz -->
<g id="node15" class="node"><title>AltAz</title>
<ellipse fill="none" stroke="black" cx="743.912" cy="-99.6396" rx="31.2258" ry="21.4286"/>
<text text-anchor="middle" x="743.912" y="-102.64" font-family="Helvetica Neue, Helvetica, Arial, sans-serif" font-size="10.00">AltAz</text>
<text text-anchor="middle" x="743.912" y="-91.6396" font-family="Helvetica Neue, Helvetica, Arial, sans-serif" font-size="10.00">`altaz`</text>
</g>
<!-- CIRS&#45;&gt;AltAz -->
<g id="edge34" class="edge"><title>CIRS&#45;&gt;AltAz</title>
<path fill="none" stroke="#d95f02" d="M775.818,-160.483C769.088,-151.383 761.546,-139.843 755.37,-129.33"/>
<polygon fill="#d95f02" stroke="#d95f02" points="758.316,-127.428 750.35,-120.442 752.221,-130.871 758.316,-127.428"/>
</g>
<!-- ITRS -->
<g id="node17" class="node"><title>ITRS</title>
<ellipse fill="none" stroke="black" cx="838.912" cy="-99.6396" rx="27.6545" ry="21.4286"/>
<text text-anchor="middle" x="838.912" y="-102.64" font-family="Helvetica Neue, Helvetica, Arial, sans-serif" font-size="10.00">ITRS</text>
<text text-anchor="middle" x="838.912" y="-91.6396" font-family="Helvetica Neue, Helvetica, Arial, sans-serif" font-size="10.00">`itrs`</text>
</g>
<!-- CIRS&#45;&gt;ITRS -->
<g id="edge38" class="edge"><title>CIRS&#45;&gt;ITRS</title>
<path fill="none" stroke="#d95f02" d="M798.237,-156.986C803.298,-147.408 810.285,-135.852 817.116,-125.704"/>
<polygon fill="#d95f02" stroke="#d95f02" points="820.174,-127.438 823.026,-117.235 814.433,-123.433 820.174,-127.438"/>
</g>
<!-- AltAz&#45;&gt;CIRS -->
<g id="edge28" class="edge"><title>AltAz&#45;&gt;CIRS</title>
<path fill="none" stroke="#d95f02" d="M760.514,-117.913C767.174,-126.985 774.567,-138.333 780.618,-148.658"/>
<polygon fill="#d95f02" stroke="#d95f02" points="777.578,-150.393 785.539,-157.384 783.676,-146.955 777.578,-150.393"/>
</g>
<!-- AltAz&#45;&gt;AltAz -->
<g id="edge27" class="edge"><title>AltAz&#45;&gt;AltAz</title>
<path fill="none" stroke="#d95f02" d="M767.663,-113.565C780.866,-116.164 793.024,-111.522 793.024,-99.6396 793.024,-90.9132 786.467,-86.0919 777.755,-85.1758"/>
<polygon fill="#d95f02" stroke="#d95f02" points="777.462,-81.6863 767.663,-85.7144 777.835,-88.6764 777.462,-81.6863"/>
</g>
<!-- BarycentricTrueEcliptic&#45;&gt;ICRS -->
<g id="edge29" class="edge"><title>BarycentricTrueEcliptic&#45;&gt;ICRS</title>
<path fill="none" stroke="#1b9e77" d="M659.968,-274.941C621.393,-289.609 564.973,-310.14 528.519,-322.706"/>
<polygon fill="#1b9e77" stroke="#1b9e77" points="527.13,-319.482 518.798,-326.028 529.393,-326.106 527.13,-319.482"/>
</g>
<!-- ITRS&#45;&gt;CIRS -->
<g id="edge32" class="edge"><title>ITRS&#45;&gt;CIRS</title>
<path fill="none" stroke="#d95f02" d="M832.733,-120.442C827.619,-130.153 820.488,-141.948 813.537,-152.254"/>
<polygon fill="#d95f02" stroke="#d95f02" points="810.646,-150.28 807.788,-160.483 816.385,-154.289 810.646,-150.28"/>
</g>
<!-- ITRS&#45;&gt;ITRS -->
<g id="edge33" class="edge"><title>ITRS&#45;&gt;ITRS</title>
<path fill="none" stroke="#d95f02" d="M860.009,-113.351C872.62,-116.397 884.489,-111.827 884.489,-99.6396 884.489,-90.8798 878.357,-86.0551 870.226,-85.1655"/>
<polygon fill="#d95f02" stroke="#d95f02" points="869.72,-81.6934 860.009,-85.9287 870.242,-88.6739 869.72,-81.6934"/>
</g>
<!-- HeliocentricTrueEcliptic&#45;&gt;ICRS -->
<g id="edge47" class="edge"><title>HeliocentricTrueEcliptic&#45;&gt;ICRS</title>
<path fill="none" stroke="#d95f02" d="M832.151,-272.119C823.058,-274.036 813.759,-275.944 804.912,-277.706 706.407,-297.319 589.434,-318.395 530.501,-328.242"/>
<polygon fill="#d95f02" stroke="#d95f02" points="529.824,-324.806 520.529,-329.892 530.967,-331.713 529.824,-324.806"/>
</g>
<!-- BaseEclipticFrame -->
<g id="node19" class="node"><title>BaseEclipticFrame</title>
<ellipse fill="none" stroke="black" cx="596.912" cy="-413.345" rx="58.7329" ry="18"/>
<text text-anchor="middle" x="596.912" y="-410.845" font-family="Helvetica Neue, Helvetica, Arial, sans-serif" font-size="10.00">BaseEclipticFrame</text>
</g>
<!-- BaseRADecFrame -->
<g id="node20" class="node"><title>BaseRADecFrame</title>
<ellipse fill="none" stroke="black" cx="732.912" cy="-413.345" rx="58.7329" ry="18"/>
<text text-anchor="middle" x="732.912" y="-410.845" font-family="Helvetica Neue, Helvetica, Arial, sans-serif" font-size="10.00">BaseRADecFrame</text>
</g>
<!-- SkyOffsetFrame -->
<g id="node21" class="node"><title>SkyOffsetFrame</title>
<ellipse fill="none" stroke="black" cx="861.912" cy="-413.345" rx="52.2822" ry="18"/>
<text text-anchor="middle" x="861.912" y="-410.845" font-family="Helvetica Neue, Helvetica, Arial, sans-serif" font-size="10.00">SkyOffsetFrame</text>
</g>
</g>
</svg>
