<?xml version="1.0" encoding="UTF-8" standalone="no"?>
<!DOCTYPE svg PUBLIC "-//W3C//DTD SVG 1.1//EN"
 "http://www.w3.org/Graphics/SVG/1.1/DTD/svg11.dtd">
<!-- Generated by graphviz version 2.38.0 (20140413.2041)
 -->
<!-- Title: inheritance987f72007c Pages: 1 -->
<svg width="576pt" height="438pt"
 viewBox="0.00 0.00 576.00 437.82" xmlns="http://www.w3.org/2000/svg" xmlns:xlink="http://www.w3.org/1999/xlink">
<g id="graph0" class="graph" transform="scale(0.803347 0.803347) rotate(0) translate(4 541)">
<title>inheritance987f72007c</title>
<polygon fill="white" stroke="none" points="-4,4 -4,-541 713,-541 713,4 -4,4"/>
<!-- BaseColumnInfo -->
<g id="node1" class="node"><title>BaseColumnInfo</title>
<g id="a_node1"><a xlink:href="../../api/astropy.utils.data_info.BaseColumnInfo.html#astropy.utils.data_info.BaseColumnInfo" xlink:title="Base info class for anything that can be a column in an astropy" target="_top">
<polygon fill="none" stroke="black" stroke-width="0.5" points="237,-19 147,-19 147,-0 237,-0 237,-19"/>
<text text-anchor="middle" x="192" y="-7" font-family="Vera Sans, DejaVu Sans, Liberation Sans, Arial, Helvetica, sans" font-size="10.00">BaseColumnInfo</text>
</a>
</g>
</g>
<!-- MixinInfo -->
<g id="node3" class="node"><title>MixinInfo</title>
<g id="a_node3"><a xlink:href="../../api/astropy.utils.data_info.MixinInfo.html#astropy.utils.data_info.MixinInfo" xlink:title="MixinInfo" target="_top">
<polygon fill="none" stroke="black" stroke-width="0.5" points="359.5,-19 302.5,-19 302.5,-0 359.5,-0 359.5,-19"/>
<text text-anchor="middle" x="331" y="-7" font-family="Vera Sans, DejaVu Sans, Liberation Sans, Arial, Helvetica, sans" font-size="10.00">MixinInfo</text>
</a>
</g>
</g>
<!-- BaseColumnInfo&#45;&gt;MixinInfo -->
<g id="edge2" class="edge"><title>BaseColumnInfo&#45;&gt;MixinInfo</title>
<path fill="none" stroke="black" stroke-width="0.5" d="M237.102,-9.5C256.525,-9.5 278.959,-9.5 296.915,-9.5"/>
<polygon fill="black" stroke="black" stroke-width="0.5" points="297.335,-11.2501 302.335,-9.5 297.335,-7.75009 297.335,-11.2501"/>
</g>
<!-- DataInfo -->
<g id="node2" class="node"><title>DataInfo</title>
<g id="a_node2"><a xlink:href="../../api/astropy.utils.data_info.DataInfo.html#astropy.utils.data_info.DataInfo" xlink:title="Descriptor that data classes use to add an ``info`` attribute for storing" target="_top">
<polygon fill="none" stroke="black" stroke-width="0.5" points="81,-19 27,-19 27,-0 81,-0 81,-19"/>
<text text-anchor="middle" x="54" y="-7" font-family="Vera Sans, DejaVu Sans, Liberation Sans, Arial, Helvetica, sans" font-size="10.00">DataInfo</text>
</a>
</g>
</g>
<!-- DataInfo&#45;&gt;BaseColumnInfo -->
<g id="edge1" class="edge"><title>DataInfo&#45;&gt;BaseColumnInfo</title>
<path fill="none" stroke="black" stroke-width="0.5" d="M81.2222,-9.5C98.3711,-9.5 121.308,-9.5 141.78,-9.5"/>
<polygon fill="black" stroke="black" stroke-width="0.5" points="141.927,-11.2501 146.927,-9.5 141.927,-7.7501 141.927,-11.2501"/>
</g>
<!-- TimeInfo -->
<g id="node27" class="node"><title>TimeInfo</title>
<g id="a_node27"><a xlink:href="../../api/astropy.time.TimeInfo.html#astropy.time.TimeInfo" xlink:title="Container for meta information like name, description, format. &#160;This is" target="_top">
<polygon fill="none" stroke="black" stroke-width="0.5" points="506.5,-19 451.5,-19 451.5,-0 506.5,-0 506.5,-19"/>
<text text-anchor="middle" x="479" y="-7" font-family="Vera Sans, DejaVu Sans, Liberation Sans, Arial, Helvetica, sans" font-size="10.00">TimeInfo</text>
</a>
</g>
</g>
<!-- MixinInfo&#45;&gt;TimeInfo -->
<g id="edge20" class="edge"><title>MixinInfo&#45;&gt;TimeInfo</title>
<path fill="none" stroke="black" stroke-width="0.5" d="M359.805,-9.5C384.471,-9.5 420.485,-9.5 446.27,-9.5"/>
<polygon fill="black" stroke="black" stroke-width="0.5" points="446.284,-11.2501 451.284,-9.5 446.284,-7.7501 446.284,-11.2501"/>
</g>
<!-- OperandTypeError -->
<g id="node4" class="node"><title>OperandTypeError</title>
<g id="a_node4"><a xlink:href="../../api/astropy.time.OperandTypeError.html#astropy.time.OperandTypeError" xlink:title="OperandTypeError" target="_top">
<polygon fill="none" stroke="black" stroke-width="0.5" points="104,-56 4,-56 4,-37 104,-37 104,-56"/>
<text text-anchor="middle" x="54" y="-44" font-family="Vera Sans, DejaVu Sans, Liberation Sans, Arial, Helvetica, sans" font-size="10.00">OperandTypeError</text>
</a>
</g>
</g>
<!-- ScaleValueError -->
<g id="node5" class="node"><title>ScaleValueError</title>
<g id="a_node5"><a xlink:href="../../api/astropy.time.ScaleValueError.html#astropy.time.ScaleValueError" xlink:title="ScaleValueError" target="_top">
<polygon fill="none" stroke="black" stroke-width="0.5" points="98.5,-93 9.5,-93 9.5,-74 98.5,-74 98.5,-93"/>
<text text-anchor="middle" x="54" y="-81" font-family="Vera Sans, DejaVu Sans, Liberation Sans, Arial, Helvetica, sans" font-size="10.00">ScaleValueError</text>
</a>
</g>
</g>
<!-- ShapedLikeNDArray -->
<g id="node6" class="node"><title>ShapedLikeNDArray</title>
<g id="a_node6"><a xlink:href="../../api/astropy.utils.misc.ShapedLikeNDArray.html#astropy.utils.misc.ShapedLikeNDArray" xlink:title="Mixin class to provide shape&#45;changing methods." target="_top">
<polygon fill="none" stroke="black" stroke-width="0.5" points="108,-130 0,-130 0,-111 108,-111 108,-130"/>
<text text-anchor="middle" x="54" y="-118" font-family="Vera Sans, DejaVu Sans, Liberation Sans, Arial, Helvetica, sans" font-size="10.00">ShapedLikeNDArray</text>
</a>
</g>
</g>
<!-- Time -->
<g id="node7" class="node"><title>Time</title>
<g id="a_node7"><a xlink:href="../../api/astropy.time.Time.html#astropy.time.Time" xlink:title="Represent and manipulate times and dates for astronomy." target="_top">
<polygon fill="none" stroke="black" stroke-width="0.5" points="219,-130 165,-130 165,-111 219,-111 219,-130"/>
<text text-anchor="middle" x="192" y="-118" font-family="Vera Sans, DejaVu Sans, Liberation Sans, Arial, Helvetica, sans" font-size="10.00">Time</text>
</a>
</g>
</g>
<!-- ShapedLikeNDArray&#45;&gt;Time -->
<g id="edge3" class="edge"><title>ShapedLikeNDArray&#45;&gt;Time</title>
<path fill="none" stroke="black" stroke-width="0.5" d="M108.36,-120.5C125.744,-120.5 144.467,-120.5 159.689,-120.5"/>
<polygon fill="black" stroke="black" stroke-width="0.5" points="159.71,-122.25 164.71,-120.5 159.71,-118.75 159.71,-122.25"/>
</g>
<!-- TimeDelta -->
<g id="node18" class="node"><title>TimeDelta</title>
<g id="a_node18"><a xlink:href="../../api/astropy.time.TimeDelta.html#astropy.time.TimeDelta" xlink:title="Represent the time difference between two times." target="_top">
<polygon fill="none" stroke="black" stroke-width="0.5" points="362,-130 300,-130 300,-111 362,-111 362,-130"/>
<text text-anchor="middle" x="331" y="-118" font-family="Vera Sans, DejaVu Sans, Liberation Sans, Arial, Helvetica, sans" font-size="10.00">TimeDelta</text>
</a>
</g>
</g>
<!-- Time&#45;&gt;TimeDelta -->
<g id="edge9" class="edge"><title>Time&#45;&gt;TimeDelta</title>
<path fill="none" stroke="black" stroke-width="0.5" d="M219.091,-120.5C240.455,-120.5 270.893,-120.5 294.48,-120.5"/>
<polygon fill="black" stroke="black" stroke-width="0.5" points="294.707,-122.25 299.707,-120.5 294.707,-118.75 294.707,-122.25"/>
</g>
<!-- TimeBesselianEpoch -->
<g id="node8" class="node"><title>TimeBesselianEpoch</title>
<g id="a_node8"><a xlink:href="../../api/astropy.time.TimeBesselianEpoch.html#astropy.time.TimeBesselianEpoch" xlink:title="Besselian Epoch year as floating point value(s) like 1950.0" target="_top">
<polygon fill="none" stroke="black" stroke-width="0.5" points="386,-537 276,-537 276,-518 386,-518 386,-537"/>
<text text-anchor="middle" x="331" y="-525" font-family="Vera Sans, DejaVu Sans, Liberation Sans, Arial, Helvetica, sans" font-size="10.00">TimeBesselianEpoch</text>
</a>
</g>
</g>
<!-- TimeEpochDate -->
<g id="node9" class="node"><title>TimeEpochDate</title>
<g id="a_node9"><a xlink:href="../../api/astropy.time.TimeEpochDate.html#astropy.time.TimeEpochDate" xlink:title="Base class for support floating point Besselian and Julian epoch dates" target="_top">
<polygon fill="none" stroke="black" stroke-width="0.5" points="236,-500 148,-500 148,-481 236,-481 236,-500"/>
<text text-anchor="middle" x="192" y="-488" font-family="Vera Sans, DejaVu Sans, Liberation Sans, Arial, Helvetica, sans" font-size="10.00">TimeEpochDate</text>
</a>
</g>
</g>
<!-- TimeEpochDate&#45;&gt;TimeBesselianEpoch -->
<g id="edge4" class="edge"><title>TimeEpochDate&#45;&gt;TimeBesselianEpoch</title>
<path fill="none" stroke="black" stroke-width="0.5" d="M228.281,-500.028C246.991,-505.082 270.065,-511.313 289.504,-516.563"/>
<polygon fill="black" stroke="black" stroke-width="0.5" points="289.079,-518.261 294.362,-517.875 289.992,-514.882 289.079,-518.261"/>
</g>
<!-- TimeJulianEpoch -->
<g id="node29" class="node"><title>TimeJulianEpoch</title>
<g id="a_node29"><a xlink:href="../../api/astropy.time.TimeJulianEpoch.html#astropy.time.TimeJulianEpoch" xlink:title="Julian Epoch year as floating point value(s) like 2000.0" target="_top">
<polygon fill="none" stroke="black" stroke-width="0.5" points="377.5,-500 284.5,-500 284.5,-481 377.5,-481 377.5,-500"/>
<text text-anchor="middle" x="331" y="-488" font-family="Vera Sans, DejaVu Sans, Liberation Sans, Arial, Helvetica, sans" font-size="10.00">TimeJulianEpoch</text>
</a>
</g>
</g>
<!-- TimeEpochDate&#45;&gt;TimeJulianEpoch -->
<g id="edge22" class="edge"><title>TimeEpochDate&#45;&gt;TimeJulianEpoch</title>
<path fill="none" stroke="black" stroke-width="0.5" d="M236.348,-490.5C249.892,-490.5 264.961,-490.5 278.982,-490.5"/>
<polygon fill="black" stroke="black" stroke-width="0.5" points="279.095,-492.25 284.095,-490.5 279.095,-488.75 279.095,-492.25"/>
</g>
<!-- TimeBesselianEpochString -->
<g id="node10" class="node"><title>TimeBesselianEpochString</title>
<g id="a_node10"><a xlink:href="../../api/astropy.time.TimeBesselianEpochString.html#astropy.time.TimeBesselianEpochString" xlink:title="Besselian Epoch year as string value(s) like &#39;B1950.0&#39;" target="_top">
<polygon fill="none" stroke="black" stroke-width="0.5" points="709,-342 572,-342 572,-323 709,-323 709,-342"/>
<text text-anchor="middle" x="640.5" y="-330" font-family="Vera Sans, DejaVu Sans, Liberation Sans, Arial, Helvetica, sans" font-size="10.00">TimeBesselianEpochString</text>
</a>
</g>
</g>
<!-- TimeEpochDateString -->
<g id="node11" class="node"><title>TimeEpochDateString</title>
<g id="a_node11"><a xlink:href="../../api/astropy.time.TimeEpochDateString.html#astropy.time.TimeEpochDateString" xlink:title="Base class to support string Besselian and Julian epoch dates" target="_top">
<polygon fill="none" stroke="black" stroke-width="0.5" points="536,-315 422,-315 422,-296 536,-296 536,-315"/>
<text text-anchor="middle" x="479" y="-303" font-family="Vera Sans, DejaVu Sans, Liberation Sans, Arial, Helvetica, sans" font-size="10.00">TimeEpochDateString</text>
</a>
</g>
</g>
<!-- TimeEpochDateString&#45;&gt;TimeBesselianEpochString -->
<g id="edge5" class="edge"><title>TimeEpochDateString&#45;&gt;TimeBesselianEpochString</title>
<path fill="none" stroke="black" stroke-width="0.5" d="M536.234,-315.019C549.813,-317.318 564.392,-319.786 578.191,-322.122"/>
<polygon fill="black" stroke="black" stroke-width="0.5" points="578.014,-323.867 583.236,-322.976 578.599,-320.416 578.014,-323.867"/>
</g>
<!-- TimeJulianEpochString -->
<g id="node30" class="node"><title>TimeJulianEpochString</title>
<g id="a_node30"><a xlink:href="../../api/astropy.time.TimeJulianEpochString.html#astropy.time.TimeJulianEpochString" xlink:title="Julian Epoch year as string value(s) like &#39;J2000.0&#39;" target="_top">
<polygon fill="none" stroke="black" stroke-width="0.5" points="700,-305 581,-305 581,-286 700,-286 700,-305"/>
<text text-anchor="middle" x="640.5" y="-293" font-family="Vera Sans, DejaVu Sans, Liberation Sans, Arial, Helvetica, sans" font-size="10.00">TimeJulianEpochString</text>
</a>
</g>
</g>
<!-- TimeEpochDateString&#45;&gt;TimeJulianEpochString -->
<g id="edge23" class="edge"><title>TimeEpochDateString&#45;&gt;TimeJulianEpochString</title>
<path fill="none" stroke="black" stroke-width="0.5" d="M536.234,-301.974C548.982,-301.175 562.61,-300.321 575.647,-299.503"/>
<polygon fill="black" stroke="black" stroke-width="0.5" points="575.924,-301.24 580.804,-299.18 575.705,-297.746 575.924,-301.24"/>
</g>
<!-- TimeCxcSec -->
<g id="node12" class="node"><title>TimeCxcSec</title>
<g id="a_node12"><a xlink:href="../../api/astropy.time.TimeCxcSec.html#astropy.time.TimeCxcSec" xlink:title="Chandra X&#45;ray Center seconds from 1998&#45;01&#45;01 00:00:00 TT." target="_top">
<polygon fill="none" stroke="black" stroke-width="0.5" points="367.5,-463 294.5,-463 294.5,-444 367.5,-444 367.5,-463"/>
<text text-anchor="middle" x="331" y="-451" font-family="Vera Sans, DejaVu Sans, Liberation Sans, Arial, Helvetica, sans" font-size="10.00">TimeCxcSec</text>
</a>
</g>
</g>
<!-- TimeFromEpoch -->
<g id="node13" class="node"><title>TimeFromEpoch</title>
<g id="a_node13"><a xlink:href="../../api/astropy.time.TimeFromEpoch.html#astropy.time.TimeFromEpoch" xlink:title="Base class for times that represent the interval from a particular" target="_top">
<polygon fill="none" stroke="black" stroke-width="0.5" points="237,-389 147,-389 147,-370 237,-370 237,-389"/>
<text text-anchor="middle" x="192" y="-377" font-family="Vera Sans, DejaVu Sans, Liberation Sans, Arial, Helvetica, sans" font-size="10.00">TimeFromEpoch</text>
</a>
</g>
</g>
<!-- TimeFromEpoch&#45;&gt;TimeCxcSec -->
<g id="edge6" class="edge"><title>TimeFromEpoch&#45;&gt;TimeCxcSec</title>
<path fill="none" stroke="black" stroke-width="0.5" d="M205.009,-389.153C220.602,-401.31 249.022,-422.213 276,-435.5 280.955,-437.94 286.32,-440.173 291.68,-442.173"/>
<polygon fill="black" stroke="black" stroke-width="0.5" points="291.292,-443.893 296.59,-443.943 292.48,-440.6 291.292,-443.893"/>
</g>
<!-- TimeGPS -->
<g id="node24" class="node"><title>TimeGPS</title>
<g id="a_node24"><a xlink:href="../../api/astropy.time.TimeGPS.html#astropy.time.TimeGPS" xlink:title="GPS time: seconds from 1980&#45;01&#45;06 00:00:00 UTC" target="_top">
<polygon fill="none" stroke="black" stroke-width="0.5" points="361,-426 301,-426 301,-407 361,-407 361,-426"/>
<text text-anchor="middle" x="331" y="-414" font-family="Vera Sans, DejaVu Sans, Liberation Sans, Arial, Helvetica, sans" font-size="10.00">TimeGPS</text>
</a>
</g>
</g>
<!-- TimeFromEpoch&#45;&gt;TimeGPS -->
<g id="edge17" class="edge"><title>TimeFromEpoch&#45;&gt;TimeGPS</title>
<path fill="none" stroke="black" stroke-width="0.5" d="M228.281,-389.028C249.126,-394.658 275.386,-401.75 296.002,-407.318"/>
<polygon fill="black" stroke="black" stroke-width="0.5" points="295.563,-409.012 300.846,-408.626 296.476,-405.633 295.563,-409.012"/>
</g>
<!-- TimePlotDate -->
<g id="node32" class="node"><title>TimePlotDate</title>
<g id="a_node32"><a xlink:href="../../api/astropy.time.TimePlotDate.html#astropy.time.TimePlotDate" xlink:title="Matplotlib `~matplotlib.pyplot.plot_date` input:" target="_top">
<polygon fill="none" stroke="black" stroke-width="0.5" points="369.5,-389 292.5,-389 292.5,-370 369.5,-370 369.5,-389"/>
<text text-anchor="middle" x="331" y="-377" font-family="Vera Sans, DejaVu Sans, Liberation Sans, Arial, Helvetica, sans" font-size="10.00">TimePlotDate</text>
</a>
</g>
</g>
<!-- TimeFromEpoch&#45;&gt;TimePlotDate -->
<g id="edge25" class="edge"><title>TimeFromEpoch&#45;&gt;TimePlotDate</title>
<path fill="none" stroke="black" stroke-width="0.5" d="M237.102,-379.5C253.125,-379.5 271.197,-379.5 287.114,-379.5"/>
<polygon fill="black" stroke="black" stroke-width="0.5" points="287.423,-381.25 292.423,-379.5 287.423,-377.75 287.423,-381.25"/>
</g>
<!-- TimeUnix -->
<g id="node33" class="node"><title>TimeUnix</title>
<g id="a_node33"><a xlink:href="../../api/astropy.time.TimeUnix.html#astropy.time.TimeUnix" xlink:title="Unix time: seconds from 1970&#45;01&#45;01 00:00:00 UTC." target="_top">
<polygon fill="none" stroke="black" stroke-width="0.5" points="360.5,-352 301.5,-352 301.5,-333 360.5,-333 360.5,-352"/>
<text text-anchor="middle" x="331" y="-340" font-family="Vera Sans, DejaVu Sans, Liberation Sans, Arial, Helvetica, sans" font-size="10.00">TimeUnix</text>
</a>
</g>
</g>
<!-- TimeFromEpoch&#45;&gt;TimeUnix -->
<g id="edge28" class="edge"><title>TimeFromEpoch&#45;&gt;TimeUnix</title>
<path fill="none" stroke="black" stroke-width="0.5" d="M228.281,-369.972C249.273,-364.302 275.756,-357.15 296.437,-351.564"/>
<polygon fill="black" stroke="black" stroke-width="0.5" points="296.923,-353.246 301.293,-350.253 296.01,-349.867 296.923,-353.246"/>
</g>
<!-- TimeDatetime -->
<g id="node14" class="node"><title>TimeDatetime</title>
<g id="a_node14"><a xlink:href="../../api/astropy.time.TimeDatetime.html#astropy.time.TimeDatetime" xlink:title="Represent date as Python standard library `~datetime.datetime` object" target="_top">
<polygon fill="none" stroke="black" stroke-width="0.5" points="370.5,-315 291.5,-315 291.5,-296 370.5,-296 370.5,-315"/>
<text text-anchor="middle" x="331" y="-303" font-family="Vera Sans, DejaVu Sans, Liberation Sans, Arial, Helvetica, sans" font-size="10.00">TimeDatetime</text>
</a>
</g>
</g>
<!-- TimeUnique -->
<g id="node15" class="node"><title>TimeUnique</title>
<g id="a_node15"><a xlink:href="../../api/astropy.time.TimeUnique.html#astropy.time.TimeUnique" xlink:title="Base class for time formats that can uniquely create a time object" target="_top">
<polygon fill="none" stroke="black" stroke-width="0.5" points="227,-315 157,-315 157,-296 227,-296 227,-315"/>
<text text-anchor="middle" x="192" y="-303" font-family="Vera Sans, DejaVu Sans, Liberation Sans, Arial, Helvetica, sans" font-size="10.00">TimeUnique</text>
</a>
</g>
</g>
<!-- TimeUnique&#45;&gt;TimeDatetime -->
<g id="edge7" class="edge"><title>TimeUnique&#45;&gt;TimeDatetime</title>
<path fill="none" stroke="black" stroke-width="0.5" d="M227.217,-305.5C245.039,-305.5 267.031,-305.5 286.093,-305.5"/>
<polygon fill="black" stroke="black" stroke-width="0.5" points="286.386,-307.25 291.386,-305.5 286.386,-303.75 286.386,-307.25"/>
</g>
<!-- TimeString -->
<g id="node22" class="node"><title>TimeString</title>
<g id="a_node22"><a xlink:href="../../api/astropy.time.TimeString.html#astropy.time.TimeString" xlink:title="Base class for string&#45;like time representations." target="_top">
<polygon fill="none" stroke="black" stroke-width="0.5" points="363.5,-278 298.5,-278 298.5,-259 363.5,-259 363.5,-278"/>
<text text-anchor="middle" x="331" y="-266" font-family="Vera Sans, DejaVu Sans, Liberation Sans, Arial, Helvetica, sans" font-size="10.00">TimeString</text>
</a>
</g>
</g>
<!-- TimeUnique&#45;&gt;TimeString -->
<g id="edge26" class="edge"><title>TimeUnique&#45;&gt;TimeString</title>
<path fill="none" stroke="black" stroke-width="0.5" d="M227.217,-296.259C247.322,-290.829 272.734,-283.966 293.26,-278.423"/>
<polygon fill="black" stroke="black" stroke-width="0.5" points="293.726,-280.109 298.097,-277.116 292.814,-276.73 293.726,-280.109"/>
</g>
<!-- TimeDecimalYear -->
<g id="node16" class="node"><title>TimeDecimalYear</title>
<g id="a_node16"><a xlink:href="../../api/astropy.time.TimeDecimalYear.html#astropy.time.TimeDecimalYear" xlink:title="Time as a decimal year, with integer values corresponding to midnight" target="_top">
<polygon fill="none" stroke="black" stroke-width="0.5" points="240,-278 144,-278 144,-259 240,-259 240,-278"/>
<text text-anchor="middle" x="192" y="-266" font-family="Vera Sans, DejaVu Sans, Liberation Sans, Arial, Helvetica, sans" font-size="10.00">TimeDecimalYear</text>
</a>
</g>
</g>
<!-- TimeFormat -->
<g id="node17" class="node"><title>TimeFormat</title>
<g id="a_node17"><a xlink:href="../../api/astropy.time.TimeFormat.html#astropy.time.TimeFormat" xlink:title="Base class for time representations." target="_top">
<polygon fill="none" stroke="black" stroke-width="0.5" points="89,-278 19,-278 19,-259 89,-259 89,-278"/>
<text text-anchor="middle" x="54" y="-266" font-family="Vera Sans, DejaVu Sans, Liberation Sans, Arial, Helvetica, sans" font-size="10.00">TimeFormat</text>
</a>
</g>
</g>
<!-- TimeFormat&#45;&gt;TimeEpochDate -->
<g id="edge13" class="edge"><title>TimeFormat&#45;&gt;TimeEpochDate</title>
<path fill="none" stroke="black" stroke-width="0.5" d="M60.8438,-278.039C82.3352,-313.121 157.057,-435.093 182.466,-476.569"/>
<polygon fill="black" stroke="black" stroke-width="0.5" points="181.074,-477.647 185.178,-480.996 184.058,-475.819 181.074,-477.647"/>
</g>
<!-- TimeFormat&#45;&gt;TimeFromEpoch -->
<g id="edge16" class="edge"><title>TimeFormat&#45;&gt;TimeFromEpoch</title>
<path fill="none" stroke="black" stroke-width="0.5" d="M67.0691,-278.351C91.6286,-298.395 147.419,-343.93 174.98,-366.425"/>
<polygon fill="black" stroke="black" stroke-width="0.5" points="174.172,-368.024 179.152,-369.83 176.385,-365.313 174.172,-368.024"/>
</g>
<!-- TimeFormat&#45;&gt;TimeUnique -->
<g id="edge27" class="edge"><title>TimeFormat&#45;&gt;TimeUnique</title>
<path fill="none" stroke="black" stroke-width="0.5" d="M89.3185,-277.837C108.324,-283.007 132.027,-289.456 151.765,-294.826"/>
<polygon fill="black" stroke="black" stroke-width="0.5" points="151.408,-296.542 156.692,-296.166 152.327,-293.165 151.408,-296.542"/>
</g>
<!-- TimeFormat&#45;&gt;TimeDecimalYear -->
<g id="edge8" class="edge"><title>TimeFormat&#45;&gt;TimeDecimalYear</title>
<path fill="none" stroke="black" stroke-width="0.5" d="M89.3185,-268.5C104.294,-268.5 122.185,-268.5 138.756,-268.5"/>
<polygon fill="black" stroke="black" stroke-width="0.5" points="138.851,-270.25 143.851,-268.5 138.851,-266.75 138.851,-270.25"/>
</g>
<!-- TimeDeltaFormat -->
<g id="node19" class="node"><title>TimeDeltaFormat</title>
<g id="a_node19"><a xlink:href="../../api/astropy.time.TimeDeltaFormat.html#astropy.time.TimeDeltaFormat" xlink:title="Base class for time delta representations" target="_top">
<polygon fill="none" stroke="black" stroke-width="0.5" points="239,-241 145,-241 145,-222 239,-222 239,-241"/>
<text text-anchor="middle" x="192" y="-229" font-family="Vera Sans, DejaVu Sans, Liberation Sans, Arial, Helvetica, sans" font-size="10.00">TimeDeltaFormat</text>
</a>
</g>
</g>
<!-- TimeFormat&#45;&gt;TimeDeltaFormat -->
<g id="edge10" class="edge"><title>TimeFormat&#45;&gt;TimeDeltaFormat</title>
<path fill="none" stroke="black" stroke-width="0.5" d="M89.3185,-259.163C108.034,-254.072 131.304,-247.741 150.858,-242.421"/>
<polygon fill="black" stroke="black" stroke-width="0.5" points="151.379,-244.093 155.744,-241.092 150.46,-240.716 151.379,-244.093"/>
</g>
<!-- TimeJD -->
<g id="node28" class="node"><title>TimeJD</title>
<g id="a_node28"><a xlink:href="../../api/astropy.time.TimeJD.html#astropy.time.TimeJD" xlink:title="Julian Date time format." target="_top">
<polygon fill="none" stroke="black" stroke-width="0.5" points="219,-204 165,-204 165,-185 219,-185 219,-204"/>
<text text-anchor="middle" x="192" y="-192" font-family="Vera Sans, DejaVu Sans, Liberation Sans, Arial, Helvetica, sans" font-size="10.00">TimeJD</text>
</a>
</g>
</g>
<!-- TimeFormat&#45;&gt;TimeJD -->
<g id="edge21" class="edge"><title>TimeFormat&#45;&gt;TimeJD</title>
<path fill="none" stroke="black" stroke-width="0.5" d="M68.3873,-258.905C85.3937,-246.995 115.916,-226.543 144,-212.5 149.026,-209.987 154.493,-207.6 159.862,-205.435"/>
<polygon fill="black" stroke="black" stroke-width="0.5" points="160.738,-206.971 164.75,-203.512 159.457,-203.714 160.738,-206.971"/>
</g>
<!-- TimeMJD -->
<g id="node31" class="node"><title>TimeMJD</title>
<g id="a_node31"><a xlink:href="../../api/astropy.time.TimeMJD.html#astropy.time.TimeMJD" xlink:title="Modified Julian Date time format." target="_top">
<polygon fill="none" stroke="black" stroke-width="0.5" points="221.5,-167 162.5,-167 162.5,-148 221.5,-148 221.5,-167"/>
<text text-anchor="middle" x="192" y="-155" font-family="Vera Sans, DejaVu Sans, Liberation Sans, Arial, Helvetica, sans" font-size="10.00">TimeMJD</text>
</a>
</g>
</g>
<!-- TimeFormat&#45;&gt;TimeMJD -->
<g id="edge24" class="edge"><title>TimeFormat&#45;&gt;TimeMJD</title>
<path fill="none" stroke="black" stroke-width="0.5" d="M61.9906,-258.713C75.7342,-240.109 108.078,-199.373 144,-175.5 148.148,-172.743 152.779,-170.322 157.472,-168.223"/>
<polygon fill="black" stroke="black" stroke-width="0.5" points="158.25,-169.794 162.17,-166.231 156.884,-166.572 158.25,-169.794"/>
</g>
<!-- TimeDeltaJD -->
<g id="node20" class="node"><title>TimeDeltaJD</title>
<g id="a_node20"><a xlink:href="../../api/astropy.time.TimeDeltaJD.html#astropy.time.TimeDeltaJD" xlink:title="Time delta in Julian days (86400 SI seconds)" target="_top">
<polygon fill="none" stroke="black" stroke-width="0.5" points="368,-241 294,-241 294,-222 368,-222 368,-241"/>
<text text-anchor="middle" x="331" y="-229" font-family="Vera Sans, DejaVu Sans, Liberation Sans, Arial, Helvetica, sans" font-size="10.00">TimeDeltaJD</text>
</a>
</g>
</g>
<!-- TimeDeltaFormat&#45;&gt;TimeDeltaJD -->
<g id="edge11" class="edge"><title>TimeDeltaFormat&#45;&gt;TimeDeltaJD</title>
<path fill="none" stroke="black" stroke-width="0.5" d="M239,-231.5C255.063,-231.5 272.983,-231.5 288.645,-231.5"/>
<polygon fill="black" stroke="black" stroke-width="0.5" points="288.864,-233.25 293.863,-231.5 288.863,-229.75 288.864,-233.25"/>
</g>
<!-- TimeDeltaSec -->
<g id="node21" class="node"><title>TimeDeltaSec</title>
<g id="a_node21"><a xlink:href="../../api/astropy.time.TimeDeltaSec.html#astropy.time.TimeDeltaSec" xlink:title="Time delta in SI seconds" target="_top">
<polygon fill="none" stroke="black" stroke-width="0.5" points="370.5,-204 291.5,-204 291.5,-185 370.5,-185 370.5,-204"/>
<text text-anchor="middle" x="331" y="-192" font-family="Vera Sans, DejaVu Sans, Liberation Sans, Arial, Helvetica, sans" font-size="10.00">TimeDeltaSec</text>
</a>
</g>
</g>
<!-- TimeDeltaFormat&#45;&gt;TimeDeltaSec -->
<g id="edge12" class="edge"><title>TimeDeltaFormat&#45;&gt;TimeDeltaSec</title>
<path fill="none" stroke="black" stroke-width="0.5" d="M228.281,-221.972C246.991,-216.918 270.065,-210.687 289.504,-205.437"/>
<polygon fill="black" stroke="black" stroke-width="0.5" points="289.992,-207.118 294.362,-204.125 289.079,-203.739 289.992,-207.118"/>
</g>
<!-- TimeString&#45;&gt;TimeEpochDateString -->
<g id="edge14" class="edge"><title>TimeString&#45;&gt;TimeEpochDateString</title>
<path fill="none" stroke="black" stroke-width="0.5" d="M363.68,-276.528C384.654,-281.844 412.413,-288.879 435.325,-294.685"/>
<polygon fill="black" stroke="black" stroke-width="0.5" points="435.159,-296.448 440.435,-295.98 436.019,-293.055 435.159,-296.448"/>
</g>
<!-- TimeFITS -->
<g id="node23" class="node"><title>TimeFITS</title>
<g id="a_node23"><a xlink:href="../../api/astropy.time.TimeFITS.html#astropy.time.TimeFITS" xlink:title="FITS format: &quot;[±Y]YYYY&#45;MM&#45;DD[THH:MM:SS[.sss]][(SCALE[(REALIZATION)])]&quot;." target="_top">
<polygon fill="none" stroke="black" stroke-width="0.5" points="509,-278 449,-278 449,-259 509,-259 509,-278"/>
<text text-anchor="middle" x="479" y="-266" font-family="Vera Sans, DejaVu Sans, Liberation Sans, Arial, Helvetica, sans" font-size="10.00">TimeFITS</text>
</a>
</g>
</g>
<!-- TimeString&#45;&gt;TimeFITS -->
<g id="edge15" class="edge"><title>TimeString&#45;&gt;TimeFITS</title>
<path fill="none" stroke="black" stroke-width="0.5" d="M363.68,-268.5C387.326,-268.5 419.596,-268.5 443.822,-268.5"/>
<polygon fill="black" stroke="black" stroke-width="0.5" points="443.863,-270.25 448.863,-268.5 443.863,-266.75 443.863,-270.25"/>
</g>
<!-- TimeISO -->
<g id="node25" class="node"><title>TimeISO</title>
<g id="a_node25"><a xlink:href="../../api/astropy.time.TimeISO.html#astropy.time.TimeISO" xlink:title="ISO 8601 compliant date&#45;time format &quot;YYYY&#45;MM&#45;DD HH:MM:SS.sss...&quot;." target="_top">
<polygon fill="none" stroke="black" stroke-width="0.5" points="507,-241 451,-241 451,-222 507,-222 507,-241"/>
<text text-anchor="middle" x="479" y="-229" font-family="Vera Sans, DejaVu Sans, Liberation Sans, Arial, Helvetica, sans" font-size="10.00">TimeISO</text>
</a>
</g>
</g>
<!-- TimeString&#45;&gt;TimeISO -->
<g id="edge18" class="edge"><title>TimeString&#45;&gt;TimeISO</title>
<path fill="none" stroke="black" stroke-width="0.5" d="M363.68,-260.472C387.952,-254.32 421.312,-245.866 445.73,-239.678"/>
<polygon fill="black" stroke="black" stroke-width="0.5" points="446.381,-241.318 450.798,-238.394 445.521,-237.926 446.381,-241.318"/>
</g>
<!-- TimeISOT -->
<g id="node26" class="node"><title>TimeISOT</title>
<g id="a_node26"><a xlink:href="../../api/astropy.time.TimeISOT.html#astropy.time.TimeISOT" xlink:title="ISO 8601 compliant date&#45;time format &quot;YYYY&#45;MM&#45;DDTHH:MM:SS.sss...&quot;." target="_top">
<polygon fill="none" stroke="black" stroke-width="0.5" points="671.5,-250 609.5,-250 609.5,-231 671.5,-231 671.5,-250"/>
<text text-anchor="middle" x="640.5" y="-238" font-family="Vera Sans, DejaVu Sans, Liberation Sans, Arial, Helvetica, sans" font-size="10.00">TimeISOT</text>
</a>
</g>
</g>
<!-- TimeISO&#45;&gt;TimeISOT -->
<g id="edge19" class="edge"><title>TimeISO&#45;&gt;TimeISOT</title>
<path fill="none" stroke="black" stroke-width="0.5" d="M507.057,-233.027C533.748,-234.533 574.693,-236.843 603.988,-238.496"/>
<polygon fill="black" stroke="black" stroke-width="0.5" points="604.225,-240.262 609.316,-238.797 604.423,-236.768 604.225,-240.262"/>
</g>
<!-- TimeYearDayTime -->
<g id="node34" class="node"><title>TimeYearDayTime</title>
<g id="a_node34"><a xlink:href="../../api/astropy.time.TimeYearDayTime.html#astropy.time.TimeYearDayTime" xlink:title="Year, day&#45;of&#45;year and time as &quot;YYYY:DOY:HH:MM:SS.sss...&quot;." target="_top">
<polygon fill="none" stroke="black" stroke-width="0.5" points="690.5,-213 590.5,-213 590.5,-194 690.5,-194 690.5,-213"/>
<text text-anchor="middle" x="640.5" y="-201" font-family="Vera Sans, DejaVu Sans, Liberation Sans, Arial, Helvetica, sans" font-size="10.00">TimeYearDayTime</text>
</a>
</g>
</g>
<!-- TimeISO&#45;&gt;TimeYearDayTime -->
<g id="edge29" class="edge"><title>TimeISO&#45;&gt;TimeYearDayTime</title>
<path fill="none" stroke="black" stroke-width="0.5" d="M507.057,-226.75C528.388,-223.006 558.822,-217.663 585.139,-213.043"/>
<polygon fill="black" stroke="black" stroke-width="0.5" points="585.721,-214.718 590.343,-212.129 585.116,-211.27 585.721,-214.718"/>
</g>
<!-- TimezoneInfo -->
<g id="node35" class="node"><title>TimezoneInfo</title>
<g id="a_node35"><a xlink:href="../../api/astropy.time.TimezoneInfo.html#astropy.time.TimezoneInfo" xlink:title="Subclass of the `~datetime.tzinfo` object, used in the" target="_top">
<polygon fill="none" stroke="black" stroke-width="0.5" points="230.5,-537 153.5,-537 153.5,-518 230.5,-518 230.5,-537"/>
<text text-anchor="middle" x="192" y="-525" font-family="Vera Sans, DejaVu Sans, Liberation Sans, Arial, Helvetica, sans" font-size="10.00">TimezoneInfo</text>
</a>
</g>
</g>
<!-- tzinfo -->
<g id="node36" class="node"><title>tzinfo</title>
<g id="a_node36"><a xlink:title="Abstract base class for time zone info objects.">
<polygon fill="none" stroke="black" stroke-width="0.5" points="81,-537 27,-537 27,-518 81,-518 81,-537"/>
<text text-anchor="middle" x="54" y="-525" font-family="Vera Sans, DejaVu Sans, Liberation Sans, Arial, Helvetica, sans" font-size="10.00">tzinfo</text>
</a>
</g>
</g>
<!-- tzinfo&#45;&gt;TimezoneInfo -->
<g id="edge30" class="edge"><title>tzinfo&#45;&gt;TimezoneInfo</title>
<path fill="none" stroke="black" stroke-width="0.5" d="M81.2222,-527.5C100.159,-527.5 126.153,-527.5 148.093,-527.5"/>
<polygon fill="black" stroke="black" stroke-width="0.5" points="148.286,-529.25 153.286,-527.5 148.286,-525.75 148.286,-529.25"/>
</g>
</g>
</svg>
