<?xml version="1.0" encoding="UTF-8" standalone="no"?>
<!DOCTYPE svg PUBLIC "-//W3C//DTD SVG 1.1//EN"
 "http://www.w3.org/Graphics/SVG/1.1/DTD/svg11.dtd">
<!-- Generated by graphviz version 2.38.0 (20140413.2041)
 -->
<!-- Title: inheritancecf4fb22113 Pages: 1 -->
<svg width="461pt" height="323pt"
 viewBox="0.00 0.00 461.00 323.00" xmlns="http://www.w3.org/2000/svg" xmlns:xlink="http://www.w3.org/1999/xlink">
<g id="graph0" class="graph" transform="scale(1 1) rotate(0) translate(4 319)">
<title>inheritancecf4fb22113</title>
<polygon fill="white" stroke="none" points="-4,4 -4,-319 457,-319 457,4 -4,4"/>
<!-- AstropyDumper -->
<g id="node1" class="node"><title>AstropyDumper</title>
<g id="a_node1"><a xlink:href="../../api/astropy.io.misc.yaml.AstropyDumper.html#astropy.io.misc.yaml.AstropyDumper" xlink:title="Custom SafeDumper that represents astropy core objects as well" target="_top">
<polygon fill="none" stroke="black" stroke-width="0.5" points="453,-259 367,-259 367,-240 453,-240 453,-259"/>
<text text-anchor="middle" x="410" y="-247" font-family="Vera Sans, DejaVu Sans, Liberation Sans, Arial, Helvetica, sans" font-size="10.00">AstropyDumper</text>
</a>
</g>
</g>
<!-- SafeDumper -->
<g id="node2" class="node"><title>SafeDumper</title>
<polygon fill="none" stroke="black" stroke-width="0.5" points="331,-259 258,-259 258,-240 331,-240 331,-259"/>
<text text-anchor="middle" x="294.5" y="-247" font-family="Vera Sans, DejaVu Sans, Liberation Sans, Arial, Helvetica, sans" font-size="10.00">SafeDumper</text>
</g>
<!-- SafeDumper&#45;&gt;AstropyDumper -->
<g id="edge1" class="edge"><title>SafeDumper&#45;&gt;AstropyDumper</title>
<path fill="none" stroke="black" stroke-width="0.5" d="M331.101,-249.5C340.734,-249.5 351.315,-249.5 361.49,-249.5"/>
<polygon fill="black" stroke="black" stroke-width="0.5" points="361.766,-251.25 366.766,-249.5 361.766,-247.75 361.766,-251.25"/>
</g>
<!-- AstropyLoader -->
<g id="node3" class="node"><title>AstropyLoader</title>
<g id="a_node3"><a xlink:href="../../api/astropy.io.misc.yaml.AstropyLoader.html#astropy.io.misc.yaml.AstropyLoader" xlink:title="Custom SafeLoader that constructs astropy core objects as well" target="_top">
<polygon fill="none" stroke="black" stroke-width="0.5" points="451,-111 369,-111 369,-92 451,-92 451,-111"/>
<text text-anchor="middle" x="410" y="-99" font-family="Vera Sans, DejaVu Sans, Liberation Sans, Arial, Helvetica, sans" font-size="10.00">AstropyLoader</text>
</a>
</g>
</g>
<!-- SafeLoader -->
<g id="node4" class="node"><title>SafeLoader</title>
<polygon fill="none" stroke="black" stroke-width="0.5" points="328.5,-111 260.5,-111 260.5,-92 328.5,-92 328.5,-111"/>
<text text-anchor="middle" x="294.5" y="-99" font-family="Vera Sans, DejaVu Sans, Liberation Sans, Arial, Helvetica, sans" font-size="10.00">SafeLoader</text>
</g>
<!-- SafeLoader&#45;&gt;AstropyLoader -->
<g id="edge2" class="edge"><title>SafeLoader&#45;&gt;AstropyLoader</title>
<path fill="none" stroke="black" stroke-width="0.5" d="M328.634,-101.5C339.528,-101.5 351.836,-101.5 363.486,-101.5"/>
<polygon fill="black" stroke="black" stroke-width="0.5" points="363.785,-103.25 368.784,-101.5 363.784,-99.7501 363.785,-103.25"/>
</g>
<!-- BaseConstructor -->
<g id="node5" class="node"><title>BaseConstructor</title>
<polygon fill="none" stroke="black" stroke-width="0.5" points="92.5,-167 1.5,-167 1.5,-148 92.5,-148 92.5,-167"/>
<text text-anchor="middle" x="47" y="-155" font-family="Vera Sans, DejaVu Sans, Liberation Sans, Arial, Helvetica, sans" font-size="10.00">BaseConstructor</text>
</g>
<!-- SafeConstructor -->
<g id="node13" class="node"><title>SafeConstructor</title>
<polygon fill="none" stroke="black" stroke-width="0.5" points="220.5,-167 131.5,-167 131.5,-148 220.5,-148 220.5,-167"/>
<text text-anchor="middle" x="176" y="-155" font-family="Vera Sans, DejaVu Sans, Liberation Sans, Arial, Helvetica, sans" font-size="10.00">SafeConstructor</text>
</g>
<!-- BaseConstructor&#45;&gt;SafeConstructor -->
<g id="edge4" class="edge"><title>BaseConstructor&#45;&gt;SafeConstructor</title>
<path fill="none" stroke="black" stroke-width="0.5" d="M92.7754,-157.5C103.675,-157.5 115.383,-157.5 126.449,-157.5"/>
<polygon fill="black" stroke="black" stroke-width="0.5" points="126.483,-159.25 131.483,-157.5 126.483,-155.75 126.483,-159.25"/>
</g>
<!-- BaseRepresenter -->
<g id="node6" class="node"><title>BaseRepresenter</title>
<polygon fill="none" stroke="black" stroke-width="0.5" points="94,-241 -7.10543e-15,-241 -7.10543e-15,-222 94,-222 94,-241"/>
<text text-anchor="middle" x="47" y="-229" font-family="Vera Sans, DejaVu Sans, Liberation Sans, Arial, Helvetica, sans" font-size="10.00">BaseRepresenter</text>
</g>
<!-- SafeRepresenter -->
<g id="node15" class="node"><title>SafeRepresenter</title>
<polygon fill="none" stroke="black" stroke-width="0.5" points="222,-241 130,-241 130,-222 222,-222 222,-241"/>
<text text-anchor="middle" x="176" y="-229" font-family="Vera Sans, DejaVu Sans, Liberation Sans, Arial, Helvetica, sans" font-size="10.00">SafeRepresenter</text>
</g>
<!-- BaseRepresenter&#45;&gt;SafeRepresenter -->
<g id="edge15" class="edge"><title>BaseRepresenter&#45;&gt;SafeRepresenter</title>
<path fill="none" stroke="black" stroke-width="0.5" d="M94.2092,-231.5C104.114,-231.5 114.626,-231.5 124.678,-231.5"/>
<polygon fill="black" stroke="black" stroke-width="0.5" points="124.887,-233.25 129.887,-231.5 124.886,-229.75 124.887,-233.25"/>
</g>
<!-- BaseResolver -->
<g id="node7" class="node"><title>BaseResolver</title>
<polygon fill="none" stroke="black" stroke-width="0.5" points="86.5,-204 7.5,-204 7.5,-185 86.5,-185 86.5,-204"/>
<text text-anchor="middle" x="47" y="-192" font-family="Vera Sans, DejaVu Sans, Liberation Sans, Arial, Helvetica, sans" font-size="10.00">BaseResolver</text>
</g>
<!-- Resolver -->
<g id="node12" class="node"><title>Resolver</title>
<polygon fill="none" stroke="black" stroke-width="0.5" points="204,-204 148,-204 148,-185 204,-185 204,-204"/>
<text text-anchor="middle" x="176" y="-192" font-family="Vera Sans, DejaVu Sans, Liberation Sans, Arial, Helvetica, sans" font-size="10.00">Resolver</text>
</g>
<!-- BaseResolver&#45;&gt;Resolver -->
<g id="edge3" class="edge"><title>BaseResolver&#45;&gt;Resolver</title>
<path fill="none" stroke="black" stroke-width="0.5" d="M86.7943,-194.5C104.643,-194.5 125.578,-194.5 142.572,-194.5"/>
<polygon fill="black" stroke="black" stroke-width="0.5" points="142.711,-196.25 147.711,-194.5 142.711,-192.75 142.711,-196.25"/>
</g>
<!-- Composer -->
<g id="node8" class="node"><title>Composer</title>
<polygon fill="none" stroke="black" stroke-width="0.5" points="207.5,-93 144.5,-93 144.5,-74 207.5,-74 207.5,-93"/>
<text text-anchor="middle" x="176" y="-81" font-family="Vera Sans, DejaVu Sans, Liberation Sans, Arial, Helvetica, sans" font-size="10.00">Composer</text>
</g>
<!-- Composer&#45;&gt;SafeLoader -->
<g id="edge12" class="edge"><title>Composer&#45;&gt;SafeLoader</title>
<path fill="none" stroke="black" stroke-width="0.5" d="M207.609,-88.2293C222.146,-90.4753 239.672,-93.1832 255.092,-95.5657"/>
<polygon fill="black" stroke="black" stroke-width="0.5" points="255.024,-97.3259 260.233,-96.36 255.559,-93.867 255.024,-97.3259"/>
</g>
<!-- Emitter -->
<g id="node9" class="node"><title>Emitter</title>
<polygon fill="none" stroke="black" stroke-width="0.5" points="203,-315 149,-315 149,-296 203,-296 203,-315"/>
<text text-anchor="middle" x="176" y="-303" font-family="Vera Sans, DejaVu Sans, Liberation Sans, Arial, Helvetica, sans" font-size="10.00">Emitter</text>
</g>
<!-- Emitter&#45;&gt;SafeDumper -->
<g id="edge5" class="edge"><title>Emitter&#45;&gt;SafeDumper</title>
<path fill="none" stroke="black" stroke-width="0.5" d="M202.433,-295.883C208.875,-293.295 215.741,-290.405 222,-287.5 239.184,-279.525 258.09,-269.416 272.143,-261.629"/>
<polygon fill="black" stroke="black" stroke-width="0.5" points="273.197,-263.046 276.714,-259.084 271.494,-259.988 273.197,-263.046"/>
</g>
<!-- Parser -->
<g id="node10" class="node"><title>Parser</title>
<polygon fill="none" stroke="black" stroke-width="0.5" points="203,-56 149,-56 149,-37 203,-37 203,-56"/>
<text text-anchor="middle" x="176" y="-44" font-family="Vera Sans, DejaVu Sans, Liberation Sans, Arial, Helvetica, sans" font-size="10.00">Parser</text>
</g>
<!-- Parser&#45;&gt;SafeLoader -->
<g id="edge11" class="edge"><title>Parser&#45;&gt;SafeLoader</title>
<path fill="none" stroke="black" stroke-width="0.5" d="M200.486,-56.0667C207.453,-58.9987 215.072,-62.2977 222,-65.5 238.548,-73.1489 256.91,-82.4109 270.882,-89.6248"/>
<polygon fill="black" stroke="black" stroke-width="0.5" points="270.198,-91.2416 275.443,-91.9875 271.808,-88.1338 270.198,-91.2416"/>
</g>
<!-- Reader -->
<g id="node11" class="node"><title>Reader</title>
<polygon fill="none" stroke="black" stroke-width="0.5" points="203,-19 149,-19 149,-0 203,-0 203,-19"/>
<text text-anchor="middle" x="176" y="-7" font-family="Vera Sans, DejaVu Sans, Liberation Sans, Arial, Helvetica, sans" font-size="10.00">Reader</text>
</g>
<!-- Reader&#45;&gt;SafeLoader -->
<g id="edge9" class="edge"><title>Reader&#45;&gt;SafeLoader</title>
<path fill="none" stroke="black" stroke-width="0.5" d="M203.14,-18.4776C209.569,-21.2315 216.251,-24.5871 222,-28.5 246.665,-45.2889 269.782,-71.5265 282.739,-87.551"/>
<polygon fill="black" stroke="black" stroke-width="0.5" points="281.631,-88.9672 286.117,-91.7835 284.366,-86.7839 281.631,-88.9672"/>
</g>
<!-- Resolver&#45;&gt;SafeDumper -->
<g id="edge8" class="edge"><title>Resolver&#45;&gt;SafeDumper</title>
<path fill="none" stroke="black" stroke-width="0.5" d="M200.486,-204.067C207.453,-206.999 215.072,-210.298 222,-213.5 238.548,-221.149 256.91,-230.411 270.882,-237.625"/>
<polygon fill="black" stroke="black" stroke-width="0.5" points="270.198,-239.242 275.443,-239.987 271.808,-236.134 270.198,-239.242"/>
</g>
<!-- Resolver&#45;&gt;SafeLoader -->
<g id="edge14" class="edge"><title>Resolver&#45;&gt;SafeLoader</title>
<path fill="none" stroke="black" stroke-width="0.5" d="M204.129,-185.829C210.263,-183.286 216.564,-180.178 222,-176.5 247.331,-159.359 270.552,-131.906 283.293,-115.398"/>
<polygon fill="black" stroke="black" stroke-width="0.5" points="284.967,-116.089 286.602,-111.05 282.181,-113.969 284.967,-116.089"/>
</g>
<!-- SafeConstructor&#45;&gt;SafeLoader -->
<g id="edge13" class="edge"><title>SafeConstructor&#45;&gt;SafeLoader</title>
<path fill="none" stroke="black" stroke-width="0.5" d="M202.433,-147.883C208.875,-145.295 215.741,-142.405 222,-139.5 239.184,-131.525 258.09,-121.416 272.143,-113.629"/>
<polygon fill="black" stroke="black" stroke-width="0.5" points="273.197,-115.046 276.714,-111.084 271.494,-111.988 273.197,-115.046"/>
</g>
<!-- Serializer -->
<g id="node14" class="node"><title>Serializer</title>
<polygon fill="none" stroke="black" stroke-width="0.5" points="205,-278 147,-278 147,-259 205,-259 205,-278"/>
<text text-anchor="middle" x="176" y="-266" font-family="Vera Sans, DejaVu Sans, Liberation Sans, Arial, Helvetica, sans" font-size="10.00">Serializer</text>
</g>
<!-- Serializer&#45;&gt;SafeDumper -->
<g id="edge6" class="edge"><title>Serializer&#45;&gt;SafeDumper</title>
<path fill="none" stroke="black" stroke-width="0.5" d="M205.201,-263.901C219.359,-261.592 236.777,-258.751 252.392,-256.204"/>
<polygon fill="black" stroke="black" stroke-width="0.5" points="252.957,-257.885 257.61,-255.353 252.394,-254.431 252.957,-257.885"/>
</g>
<!-- SafeRepresenter&#45;&gt;SafeDumper -->
<g id="edge7" class="edge"><title>SafeRepresenter&#45;&gt;SafeDumper</title>
<path fill="none" stroke="black" stroke-width="0.5" d="M222.042,-238.459C232.184,-240.026 242.889,-241.68 252.839,-243.218"/>
<polygon fill="black" stroke="black" stroke-width="0.5" points="252.758,-244.976 257.966,-244.01 253.292,-241.517 252.758,-244.976"/>
</g>
<!-- Scanner -->
<g id="node16" class="node"><title>Scanner</title>
<polygon fill="none" stroke="black" stroke-width="0.5" points="203,-130 149,-130 149,-111 203,-111 203,-130"/>
<text text-anchor="middle" x="176" y="-118" font-family="Vera Sans, DejaVu Sans, Liberation Sans, Arial, Helvetica, sans" font-size="10.00">Scanner</text>
</g>
<!-- Scanner&#45;&gt;SafeLoader -->
<g id="edge10" class="edge"><title>Scanner&#45;&gt;SafeLoader</title>
<path fill="none" stroke="black" stroke-width="0.5" d="M203.145,-116.236C218.466,-113.737 238.096,-110.536 255.142,-107.756"/>
<polygon fill="black" stroke="black" stroke-width="0.5" points="255.689,-109.44 260.342,-106.908 255.126,-105.985 255.689,-109.44"/>
</g>
</g>
</svg>
