<?xml version="1.0" encoding="UTF-8" standalone="no"?>
<!DOCTYPE svg PUBLIC "-//W3C//DTD SVG 1.1//EN"
 "http://www.w3.org/Graphics/SVG/1.1/DTD/svg11.dtd">
<!-- Generated by graphviz version 2.38.0 (20140413.2041)
 -->
<!-- Title: inheritance72347afbb8 Pages: 1 -->
<svg width="551pt" height="471pt"
 viewBox="0.00 0.00 551.00 471.00" xmlns="http://www.w3.org/2000/svg" xmlns:xlink="http://www.w3.org/1999/xlink">
<g id="graph0" class="graph" transform="scale(1 1) rotate(0) translate(4 467)">
<title>inheritance72347afbb8</title>
<polygon fill="white" stroke="none" points="-4,4 -4,-467 547,-467 547,4 -4,4"/>
<!-- AsinhStretch -->
<g id="node1" class="node"><title>AsinhStretch</title>
<g id="a_node1"><a xlink:href="../../api/astropy.visualization.AsinhStretch.html#astropy.visualization.AsinhStretch" xlink:title="An asinh stretch." target="_top">
<polygon fill="none" stroke="black" stroke-width="0.5" points="376.5,-463 303.5,-463 303.5,-444 376.5,-444 376.5,-463"/>
<text text-anchor="middle" x="340" y="-451" font-family="Vera Sans, DejaVu Sans, Liberation Sans, Arial, Helvetica, sans" font-size="10.00">AsinhStretch</text>
</a>
</g>
</g>
<!-- BaseStretch -->
<g id="node2" class="node"><title>BaseStretch</title>
<g id="a_node2"><a xlink:href="../../api/astropy.visualization.BaseStretch.html#astropy.visualization.BaseStretch" xlink:title="Base class for the stretch classes, which, when called with an array" target="_top">
<polygon fill="none" stroke="black" stroke-width="0.5" points="211.5,-296 140.5,-296 140.5,-277 211.5,-277 211.5,-296"/>
<text text-anchor="middle" x="176" y="-284" font-family="Vera Sans, DejaVu Sans, Liberation Sans, Arial, Helvetica, sans" font-size="10.00">BaseStretch</text>
</a>
</g>
</g>
<!-- BaseStretch&#45;&gt;AsinhStretch -->
<g id="edge1" class="edge"><title>BaseStretch&#45;&gt;AsinhStretch</title>
<path fill="none" stroke="black" stroke-width="0.5" d="M211.605,-292.494C218.794,-295.148 225.765,-298.977 231,-304.5 272.537,-348.324 223.812,-393.303 267,-435.5 275.312,-443.621 286.703,-448.254 297.973,-450.849"/>
<polygon fill="black" stroke="black" stroke-width="0.5" points="297.881,-452.616 303.131,-451.903 298.582,-449.187 297.881,-452.616"/>
</g>
<!-- ContrastBiasStretch -->
<g id="node7" class="node"><title>ContrastBiasStretch</title>
<g id="a_node7"><a xlink:href="../../api/astropy.visualization.ContrastBiasStretch.html#astropy.visualization.ContrastBiasStretch" xlink:title="A stretch that takes into account contrast and bias." target="_top">
<polygon fill="none" stroke="black" stroke-width="0.5" points="392.5,-426 287.5,-426 287.5,-407 392.5,-407 392.5,-426"/>
<text text-anchor="middle" x="340" y="-414" font-family="Vera Sans, DejaVu Sans, Liberation Sans, Arial, Helvetica, sans" font-size="10.00">ContrastBiasStretch</text>
</a>
</g>
</g>
<!-- BaseStretch&#45;&gt;ContrastBiasStretch -->
<g id="edge6" class="edge"><title>BaseStretch&#45;&gt;ContrastBiasStretch</title>
<path fill="none" stroke="black" stroke-width="0.5" d="M211.5,-292.981C218.61,-295.612 225.574,-299.307 231,-304.5 263.322,-335.43 233.515,-368.833 267,-398.5 271.521,-402.505 276.8,-405.647 282.408,-408.108"/>
<polygon fill="black" stroke="black" stroke-width="0.5" points="281.895,-409.787 287.187,-410.018 283.194,-406.537 281.895,-409.787"/>
</g>
<!-- HistEqStretch -->
<g id="node8" class="node"><title>HistEqStretch</title>
<g id="a_node8"><a xlink:href="../../api/astropy.visualization.HistEqStretch.html#astropy.visualization.HistEqStretch" xlink:title="A histogram equalization stretch." target="_top">
<polygon fill="none" stroke="black" stroke-width="0.5" points="379,-389 301,-389 301,-370 379,-370 379,-389"/>
<text text-anchor="middle" x="340" y="-377" font-family="Vera Sans, DejaVu Sans, Liberation Sans, Arial, Helvetica, sans" font-size="10.00">HistEqStretch</text>
</a>
</g>
</g>
<!-- BaseStretch&#45;&gt;HistEqStretch -->
<g id="edge7" class="edge"><title>BaseStretch&#45;&gt;HistEqStretch</title>
<path fill="none" stroke="black" stroke-width="0.5" d="M211.599,-294.158C218.465,-296.708 225.304,-300.074 231,-304.5 254.363,-322.655 243.07,-343.099 267,-360.5 275.446,-366.642 285.731,-370.8 295.854,-373.614"/>
<polygon fill="black" stroke="black" stroke-width="0.5" points="295.522,-375.335 300.801,-374.89 296.397,-371.946 295.522,-375.335"/>
</g>
<!-- LinearStretch -->
<g id="node11" class="node"><title>LinearStretch</title>
<g id="a_node11"><a xlink:href="../../api/astropy.visualization.LinearStretch.html#astropy.visualization.LinearStretch" xlink:title="A linear stretch." target="_top">
<polygon fill="none" stroke="black" stroke-width="0.5" points="378,-352 302,-352 302,-333 378,-333 378,-352"/>
<text text-anchor="middle" x="340" y="-340" font-family="Vera Sans, DejaVu Sans, Liberation Sans, Arial, Helvetica, sans" font-size="10.00">LinearStretch</text>
</a>
</g>
</g>
<!-- BaseStretch&#45;&gt;LinearStretch -->
<g id="edge9" class="edge"><title>BaseStretch&#45;&gt;LinearStretch</title>
<path fill="none" stroke="black" stroke-width="0.5" d="M208.45,-296.018C215.93,-298.545 223.821,-301.433 231,-304.5 247.637,-311.607 250.145,-316.927 267,-323.5 276.523,-327.213 287.031,-330.445 297.008,-333.139"/>
<polygon fill="black" stroke="black" stroke-width="0.5" points="296.575,-334.835 301.856,-334.418 297.468,-331.45 296.575,-334.835"/>
</g>
<!-- LogStretch -->
<g id="node12" class="node"><title>LogStretch</title>
<g id="a_node12"><a xlink:href="../../api/astropy.visualization.LogStretch.html#astropy.visualization.LogStretch" xlink:title="A log stretch." target="_top">
<polygon fill="none" stroke="black" stroke-width="0.5" points="372.5,-315 307.5,-315 307.5,-296 372.5,-296 372.5,-315"/>
<text text-anchor="middle" x="340" y="-303" font-family="Vera Sans, DejaVu Sans, Liberation Sans, Arial, Helvetica, sans" font-size="10.00">LogStretch</text>
</a>
</g>
</g>
<!-- BaseStretch&#45;&gt;LogStretch -->
<g id="edge10" class="edge"><title>BaseStretch&#45;&gt;LogStretch</title>
<path fill="none" stroke="black" stroke-width="0.5" d="M211.753,-290.576C238.337,-293.694 274.915,-297.984 302.033,-301.164"/>
<polygon fill="black" stroke="black" stroke-width="0.5" points="302.155,-302.941 307.325,-301.785 302.563,-299.464 302.155,-302.941"/>
</g>
<!-- PowerDistStretch -->
<g id="node16" class="node"><title>PowerDistStretch</title>
<g id="a_node16"><a xlink:href="../../api/astropy.visualization.PowerDistStretch.html#astropy.visualization.PowerDistStretch" xlink:title="An alternative power stretch." target="_top">
<polygon fill="none" stroke="black" stroke-width="0.5" points="387,-278 293,-278 293,-259 387,-259 387,-278"/>
<text text-anchor="middle" x="340" y="-266" font-family="Vera Sans, DejaVu Sans, Liberation Sans, Arial, Helvetica, sans" font-size="10.00">PowerDistStretch</text>
</a>
</g>
</g>
<!-- BaseStretch&#45;&gt;PowerDistStretch -->
<g id="edge14" class="edge"><title>BaseStretch&#45;&gt;PowerDistStretch</title>
<path fill="none" stroke="black" stroke-width="0.5" d="M211.753,-282.639C233.886,-280.179 262.948,-276.95 287.709,-274.199"/>
<polygon fill="black" stroke="black" stroke-width="0.5" points="288.147,-275.911 292.924,-273.62 287.761,-272.433 288.147,-275.911"/>
</g>
<!-- PowerStretch -->
<g id="node17" class="node"><title>PowerStretch</title>
<g id="a_node17"><a xlink:href="../../api/astropy.visualization.PowerStretch.html#astropy.visualization.PowerStretch" xlink:title="A power stretch." target="_top">
<polygon fill="none" stroke="black" stroke-width="0.5" points="378.5,-241 301.5,-241 301.5,-222 378.5,-222 378.5,-241"/>
<text text-anchor="middle" x="340" y="-229" font-family="Vera Sans, DejaVu Sans, Liberation Sans, Arial, Helvetica, sans" font-size="10.00">PowerStretch</text>
</a>
</g>
</g>
<!-- BaseStretch&#45;&gt;PowerStretch -->
<g id="edge15" class="edge"><title>BaseStretch&#45;&gt;PowerStretch</title>
<path fill="none" stroke="black" stroke-width="0.5" d="M197.771,-276.952C215.808,-268.906 242.765,-257.464 267,-249.5 276.381,-246.417 286.599,-243.567 296.311,-241.086"/>
<polygon fill="black" stroke="black" stroke-width="0.5" points="296.913,-242.739 301.336,-239.823 296.06,-239.345 296.913,-242.739"/>
</g>
<!-- SinhStretch -->
<g id="node18" class="node"><title>SinhStretch</title>
<g id="a_node18"><a xlink:href="../../api/astropy.visualization.SinhStretch.html#astropy.visualization.SinhStretch" xlink:title="A sinh stretch." target="_top">
<polygon fill="none" stroke="black" stroke-width="0.5" points="374,-204 306,-204 306,-185 374,-185 374,-204"/>
<text text-anchor="middle" x="340" y="-192" font-family="Vera Sans, DejaVu Sans, Liberation Sans, Arial, Helvetica, sans" font-size="10.00">SinhStretch</text>
</a>
</g>
</g>
<!-- BaseStretch&#45;&gt;SinhStretch -->
<g id="edge16" class="edge"><title>BaseStretch&#45;&gt;SinhStretch</title>
<path fill="none" stroke="black" stroke-width="0.5" d="M185.727,-276.979C200.766,-261.158 233.216,-229.515 267,-212.5 277.378,-207.273 289.38,-203.495 300.574,-200.793"/>
<polygon fill="black" stroke="black" stroke-width="0.5" points="301.17,-202.452 305.651,-199.627 300.386,-199.041 301.17,-202.452"/>
</g>
<!-- SqrtStretch -->
<g id="node19" class="node"><title>SqrtStretch</title>
<g id="a_node19"><a xlink:href="../../api/astropy.visualization.SqrtStretch.html#astropy.visualization.SqrtStretch" xlink:title="A square root stretch." target="_top">
<polygon fill="none" stroke="black" stroke-width="0.5" points="373.5,-167 306.5,-167 306.5,-148 373.5,-148 373.5,-167"/>
<text text-anchor="middle" x="340" y="-155" font-family="Vera Sans, DejaVu Sans, Liberation Sans, Arial, Helvetica, sans" font-size="10.00">SqrtStretch</text>
</a>
</g>
</g>
<!-- BaseStretch&#45;&gt;SqrtStretch -->
<g id="edge17" class="edge"><title>BaseStretch&#45;&gt;SqrtStretch</title>
<path fill="none" stroke="black" stroke-width="0.5" d="M182.028,-276.716C193.76,-254.913 225.152,-202.16 267,-175.5 277.269,-168.958 289.768,-164.793 301.451,-162.141"/>
<polygon fill="black" stroke="black" stroke-width="0.5" points="301.869,-163.842 306.399,-161.095 301.145,-160.417 301.869,-163.842"/>
</g>
<!-- AsymmetricPercentileInterval -->
<g id="node3" class="node"><title>AsymmetricPercentileInterval</title>
<g id="a_node3"><a xlink:href="../../api/astropy.visualization.AsymmetricPercentileInterval.html#astropy.visualization.AsymmetricPercentileInterval" xlink:title="Interval based on a keeping a specified fraction of pixels (can be" target="_top">
<polygon fill="none" stroke="black" stroke-width="0.5" points="413,-130 267,-130 267,-111 413,-111 413,-130"/>
<text text-anchor="middle" x="340" y="-118" font-family="Vera Sans, DejaVu Sans, Liberation Sans, Arial, Helvetica, sans" font-size="10.00">AsymmetricPercentileInterval</text>
</a>
</g>
</g>
<!-- PercentileInterval -->
<g id="node15" class="node"><title>PercentileInterval</title>
<g id="a_node15"><a xlink:href="../../api/astropy.visualization.PercentileInterval.html#astropy.visualization.PercentileInterval" xlink:title="Interval based on a keeping a specified fraction of pixels." target="_top">
<polygon fill="none" stroke="black" stroke-width="0.5" points="543,-130 449,-130 449,-111 543,-111 543,-130"/>
<text text-anchor="middle" x="496" y="-118" font-family="Vera Sans, DejaVu Sans, Liberation Sans, Arial, Helvetica, sans" font-size="10.00">PercentileInterval</text>
</a>
</g>
</g>
<!-- AsymmetricPercentileInterval&#45;&gt;PercentileInterval -->
<g id="edge13" class="edge"><title>AsymmetricPercentileInterval&#45;&gt;PercentileInterval</title>
<path fill="none" stroke="black" stroke-width="0.5" d="M413.04,-120.5C423.439,-120.5 433.96,-120.5 443.838,-120.5"/>
<polygon fill="black" stroke="black" stroke-width="0.5" points="443.942,-122.25 448.942,-120.5 443.942,-118.75 443.942,-122.25"/>
</g>
<!-- BaseInterval -->
<g id="node4" class="node"><title>BaseInterval</title>
<g id="a_node4"><a xlink:href="../../api/astropy.visualization.BaseInterval.html#astropy.visualization.BaseInterval" xlink:title="Base class for the interval classes, which, when called with an" target="_top">
<polygon fill="none" stroke="black" stroke-width="0.5" points="212,-93 140,-93 140,-74 212,-74 212,-93"/>
<text text-anchor="middle" x="176" y="-81" font-family="Vera Sans, DejaVu Sans, Liberation Sans, Arial, Helvetica, sans" font-size="10.00">BaseInterval</text>
</a>
</g>
</g>
<!-- BaseInterval&#45;&gt;AsymmetricPercentileInterval -->
<g id="edge2" class="edge"><title>BaseInterval&#45;&gt;AsymmetricPercentileInterval</title>
<path fill="none" stroke="black" stroke-width="0.5" d="M212.152,-91.5284C235.62,-96.8884 266.744,-103.997 292.288,-109.831"/>
<polygon fill="black" stroke="black" stroke-width="0.5" points="292.055,-111.573 297.319,-110.98 292.834,-108.161 292.055,-111.573"/>
</g>
<!-- ManualInterval -->
<g id="node13" class="node"><title>ManualInterval</title>
<g id="a_node13"><a xlink:href="../../api/astropy.visualization.ManualInterval.html#astropy.visualization.ManualInterval" xlink:title="Interval based on user&#45;specified values." target="_top">
<polygon fill="none" stroke="black" stroke-width="0.5" points="381,-93 299,-93 299,-74 381,-74 381,-93"/>
<text text-anchor="middle" x="340" y="-81" font-family="Vera Sans, DejaVu Sans, Liberation Sans, Arial, Helvetica, sans" font-size="10.00">ManualInterval</text>
</a>
</g>
</g>
<!-- BaseInterval&#45;&gt;ManualInterval -->
<g id="edge11" class="edge"><title>BaseInterval&#45;&gt;ManualInterval</title>
<path fill="none" stroke="black" stroke-width="0.5" d="M212.152,-83.5C236.056,-83.5 267.903,-83.5 293.707,-83.5"/>
<polygon fill="black" stroke="black" stroke-width="0.5" points="293.783,-85.2501 298.783,-83.5 293.783,-81.7501 293.783,-85.2501"/>
</g>
<!-- MinMaxInterval -->
<g id="node14" class="node"><title>MinMaxInterval</title>
<g id="a_node14"><a xlink:href="../../api/astropy.visualization.MinMaxInterval.html#astropy.visualization.MinMaxInterval" xlink:title="Interval based on the minimum and maximum values in the data." target="_top">
<polygon fill="none" stroke="black" stroke-width="0.5" points="382,-56 298,-56 298,-37 382,-37 382,-56"/>
<text text-anchor="middle" x="340" y="-44" font-family="Vera Sans, DejaVu Sans, Liberation Sans, Arial, Helvetica, sans" font-size="10.00">MinMaxInterval</text>
</a>
</g>
</g>
<!-- BaseInterval&#45;&gt;MinMaxInterval -->
<g id="edge12" class="edge"><title>BaseInterval&#45;&gt;MinMaxInterval</title>
<path fill="none" stroke="black" stroke-width="0.5" d="M212.152,-75.4716C235.794,-70.0717 267.207,-62.8972 292.857,-57.0388"/>
<polygon fill="black" stroke="black" stroke-width="0.5" points="293.421,-58.7051 297.906,-55.8856 292.642,-55.2929 293.421,-58.7051"/>
</g>
<!-- ZScaleInterval -->
<g id="node21" class="node"><title>ZScaleInterval</title>
<g id="a_node21"><a xlink:href="../../api/astropy.visualization.ZScaleInterval.html#astropy.visualization.ZScaleInterval" xlink:title="Interval based on IRAF&#39;s zscale." target="_top">
<polygon fill="none" stroke="black" stroke-width="0.5" points="380,-19 300,-19 300,-0 380,-0 380,-19"/>
<text text-anchor="middle" x="340" y="-7" font-family="Vera Sans, DejaVu Sans, Liberation Sans, Arial, Helvetica, sans" font-size="10.00">ZScaleInterval</text>
</a>
</g>
</g>
<!-- BaseInterval&#45;&gt;ZScaleInterval -->
<g id="edge19" class="edge"><title>BaseInterval&#45;&gt;ZScaleInterval</title>
<path fill="none" stroke="black" stroke-width="0.5" d="M211.812,-73.9183C218.445,-71.3649 225.138,-68.2466 231,-64.5 250.332,-52.1437 247.112,-38.9409 267,-27.5 275.465,-22.6306 285.228,-19.0668 294.779,-16.4622"/>
<polygon fill="black" stroke="black" stroke-width="0.5" points="295.339,-18.1252 299.746,-15.1858 294.468,-14.7354 295.339,-18.1252"/>
</g>
<!-- BaseTransform -->
<g id="node5" class="node"><title>BaseTransform</title>
<g id="a_node5"><a xlink:href="../../api/astropy.visualization.BaseTransform.html#astropy.visualization.BaseTransform" xlink:title="A transformation object." target="_top">
<polygon fill="none" stroke="black" stroke-width="0.5" points="85,-93 0,-93 0,-74 85,-74 85,-93"/>
<text text-anchor="middle" x="42.5" y="-81" font-family="Vera Sans, DejaVu Sans, Liberation Sans, Arial, Helvetica, sans" font-size="10.00">BaseTransform</text>
</a>
</g>
</g>
<!-- BaseTransform&#45;&gt;BaseStretch -->
<g id="edge4" class="edge"><title>BaseTransform&#45;&gt;BaseStretch</title>
<path fill="none" stroke="black" stroke-width="0.5" d="M49.6661,-93.0188C70.8427,-125.71 140.678,-233.516 165.852,-272.378"/>
<polygon fill="black" stroke="black" stroke-width="0.5" points="164.507,-273.521 168.694,-276.766 167.445,-271.618 164.507,-273.521"/>
</g>
<!-- BaseTransform&#45;&gt;BaseInterval -->
<g id="edge3" class="edge"><title>BaseTransform&#45;&gt;BaseInterval</title>
<path fill="none" stroke="black" stroke-width="0.5" d="M85.1074,-83.5C100.926,-83.5 118.911,-83.5 134.615,-83.5"/>
<polygon fill="black" stroke="black" stroke-width="0.5" points="134.847,-85.2501 139.847,-83.5 134.847,-81.7501 134.847,-85.2501"/>
</g>
<!-- CompositeTransform -->
<g id="node6" class="node"><title>CompositeTransform</title>
<g id="a_node6"><a xlink:href="../../api/astropy.visualization.CompositeTransform.html#astropy.visualization.CompositeTransform" xlink:title="A combination of two transforms." target="_top">
<polygon fill="none" stroke="black" stroke-width="0.5" points="231,-56 121,-56 121,-37 231,-37 231,-56"/>
<text text-anchor="middle" x="176" y="-44" font-family="Vera Sans, DejaVu Sans, Liberation Sans, Arial, Helvetica, sans" font-size="10.00">CompositeTransform</text>
</a>
</g>
</g>
<!-- BaseTransform&#45;&gt;CompositeTransform -->
<g id="edge5" class="edge"><title>BaseTransform&#45;&gt;CompositeTransform</title>
<path fill="none" stroke="black" stroke-width="0.5" d="M77.3645,-73.9716C95.1716,-68.9612 117.096,-62.7924 135.654,-57.5707"/>
<polygon fill="black" stroke="black" stroke-width="0.5" points="136.454,-59.1636 140.793,-56.1247 135.506,-55.7945 136.454,-59.1636"/>
</g>
<!-- ImageNormalize -->
<g id="node9" class="node"><title>ImageNormalize</title>
<g id="a_node9"><a xlink:href="../../api/astropy.visualization.mpl_normalize.ImageNormalize.html#astropy.visualization.mpl_normalize.ImageNormalize" xlink:title="Normalization class to be used with Matplotlib." target="_top">
<polygon fill="none" stroke="black" stroke-width="0.5" points="220.5,-333 131.5,-333 131.5,-314 220.5,-314 220.5,-333"/>
<text text-anchor="middle" x="176" y="-321" font-family="Vera Sans, DejaVu Sans, Liberation Sans, Arial, Helvetica, sans" font-size="10.00">ImageNormalize</text>
</a>
</g>
</g>
<!-- Normalize -->
<g id="node10" class="node"><title>Normalize</title>
<g id="a_node10"><a xlink:title="A class which, when called, can normalize data into">
<polygon fill="none" stroke="black" stroke-width="0.5" points="73.5,-333 11.5,-333 11.5,-314 73.5,-314 73.5,-333"/>
<text text-anchor="middle" x="42.5" y="-321" font-family="Vera Sans, DejaVu Sans, Liberation Sans, Arial, Helvetica, sans" font-size="10.00">Normalize</text>
</a>
</g>
</g>
<!-- Normalize&#45;&gt;ImageNormalize -->
<g id="edge8" class="edge"><title>Normalize&#45;&gt;ImageNormalize</title>
<path fill="none" stroke="black" stroke-width="0.5" d="M73.6688,-323.5C89.1303,-323.5 108.348,-323.5 125.879,-323.5"/>
<polygon fill="black" stroke="black" stroke-width="0.5" points="126.259,-325.25 131.259,-323.5 126.259,-321.75 126.259,-325.25"/>
</g>
<!-- SquaredStretch -->
<g id="node20" class="node"><title>SquaredStretch</title>
<g id="a_node20"><a xlink:href="../../api/astropy.visualization.SquaredStretch.html#astropy.visualization.SquaredStretch" xlink:title="A convenience class for a power stretch of 2." target="_top">
<polygon fill="none" stroke="black" stroke-width="0.5" points="539,-241 453,-241 453,-222 539,-222 539,-241"/>
<text text-anchor="middle" x="496" y="-229" font-family="Vera Sans, DejaVu Sans, Liberation Sans, Arial, Helvetica, sans" font-size="10.00">SquaredStretch</text>
</a>
</g>
</g>
<!-- PowerStretch&#45;&gt;SquaredStretch -->
<g id="edge18" class="edge"><title>PowerStretch&#45;&gt;SquaredStretch</title>
<path fill="none" stroke="black" stroke-width="0.5" d="M378.673,-231.5C399.447,-231.5 425.441,-231.5 447.586,-231.5"/>
<polygon fill="black" stroke="black" stroke-width="0.5" points="447.833,-233.25 452.833,-231.5 447.833,-229.75 447.833,-233.25"/>
</g>
</g>
</svg>
