<?xml version="1.0" encoding="UTF-8" standalone="no"?>
<!DOCTYPE svg PUBLIC "-//W3C//DTD SVG 1.1//EN"
 "http://www.w3.org/Graphics/SVG/1.1/DTD/svg11.dtd">
<!-- Generated by graphviz version 2.38.0 (20140413.2041)
 -->
<!-- Title: inheritance19709a6142 Pages: 1 -->
<svg width="563pt" height="286pt"
 viewBox="0.00 0.00 563.00 286.00" xmlns="http://www.w3.org/2000/svg" xmlns:xlink="http://www.w3.org/1999/xlink">
<g id="graph0" class="graph" transform="scale(1 1) rotate(0) translate(4 282)">
<title>inheritance19709a6142</title>
<polygon fill="white" stroke="none" points="-4,4 -4,-282 559,-282 559,4 -4,4"/>
<!-- Chebyshev1D -->
<g id="node1" class="node"><title>Chebyshev1D</title>
<g id="a_node1"><a xlink:href="../../api/astropy.modeling.polynomial.Chebyshev1D.html#astropy.modeling.polynomial.Chebyshev1D" xlink:title="Univariate Chebyshev series." target="_top">
<polygon fill="none" stroke="black" stroke-width="0.5" points="555,-278 476,-278 476,-259 555,-259 555,-278"/>
<text text-anchor="middle" x="515.5" y="-266" font-family="Vera Sans, DejaVu Sans, Liberation Sans, Arial, Helvetica, sans" font-size="10.00">Chebyshev1D</text>
</a>
</g>
</g>
<!-- PolynomialModel -->
<g id="node2" class="node"><title>PolynomialModel</title>
<g id="a_node2"><a xlink:href="../../api/astropy.modeling.polynomial.PolynomialModel.html#astropy.modeling.polynomial.PolynomialModel" xlink:title="Base class for polynomial models." target="_top">
<polygon fill="none" stroke="black" stroke-width="0.5" points="430,-185 337,-185 337,-166 430,-166 430,-185"/>
<text text-anchor="middle" x="383.5" y="-173" font-family="Vera Sans, DejaVu Sans, Liberation Sans, Arial, Helvetica, sans" font-size="10.00">PolynomialModel</text>
</a>
</g>
</g>
<!-- PolynomialModel&#45;&gt;Chebyshev1D -->
<g id="edge1" class="edge"><title>PolynomialModel&#45;&gt;Chebyshev1D</title>
<path fill="none" stroke="black" stroke-width="0.5" d="M394.553,-185.182C410.742,-200.427 444.019,-230.361 476,-250.5 479.348,-252.608 482.983,-254.623 486.637,-256.491"/>
<polygon fill="black" stroke="black" stroke-width="0.5" points="486.349,-258.301 491.608,-258.943 487.898,-255.162 486.349,-258.301"/>
</g>
<!-- Hermite1D -->
<g id="node7" class="node"><title>Hermite1D</title>
<g id="a_node7"><a xlink:href="../../api/astropy.modeling.polynomial.Hermite1D.html#astropy.modeling.polynomial.Hermite1D" xlink:title="Univariate Hermite series." target="_top">
<polygon fill="none" stroke="black" stroke-width="0.5" points="547.5,-241 483.5,-241 483.5,-222 547.5,-222 547.5,-241"/>
<text text-anchor="middle" x="515.5" y="-229" font-family="Vera Sans, DejaVu Sans, Liberation Sans, Arial, Helvetica, sans" font-size="10.00">Hermite1D</text>
</a>
</g>
</g>
<!-- PolynomialModel&#45;&gt;Hermite1D -->
<g id="edge4" class="edge"><title>PolynomialModel&#45;&gt;Hermite1D</title>
<path fill="none" stroke="black" stroke-width="0.5" d="M406.848,-185.127C429.307,-194.801 463.93,-209.716 487.816,-220.006"/>
<polygon fill="black" stroke="black" stroke-width="0.5" points="487.159,-221.628 492.444,-221.999 488.544,-218.413 487.159,-221.628"/>
</g>
<!-- Legendre1D -->
<g id="node10" class="node"><title>Legendre1D</title>
<g id="a_node10"><a xlink:href="../../api/astropy.modeling.polynomial.Legendre1D.html#astropy.modeling.polynomial.Legendre1D" xlink:title="Univariate Legendre series." target="_top">
<polygon fill="none" stroke="black" stroke-width="0.5" points="551.5,-204 479.5,-204 479.5,-185 551.5,-185 551.5,-204"/>
<text text-anchor="middle" x="515.5" y="-192" font-family="Vera Sans, DejaVu Sans, Liberation Sans, Arial, Helvetica, sans" font-size="10.00">Legendre1D</text>
</a>
</g>
</g>
<!-- PolynomialModel&#45;&gt;Legendre1D -->
<g id="edge7" class="edge"><title>PolynomialModel&#45;&gt;Legendre1D</title>
<path fill="none" stroke="black" stroke-width="0.5" d="M430.333,-182.199C444.656,-184.292 460.343,-186.585 474.252,-188.618"/>
<polygon fill="black" stroke="black" stroke-width="0.5" points="474.09,-190.362 479.291,-189.354 474.596,-186.899 474.09,-190.362"/>
</g>
<!-- Polynomial1D -->
<g id="node13" class="node"><title>Polynomial1D</title>
<g id="a_node13"><a xlink:href="../../api/astropy.modeling.polynomial.Polynomial1D.html#astropy.modeling.polynomial.Polynomial1D" xlink:title="1D Polynomial model." target="_top">
<polygon fill="none" stroke="black" stroke-width="0.5" points="554.5,-167 476.5,-167 476.5,-148 554.5,-148 554.5,-167"/>
<text text-anchor="middle" x="515.5" y="-155" font-family="Vera Sans, DejaVu Sans, Liberation Sans, Arial, Helvetica, sans" font-size="10.00">Polynomial1D</text>
</a>
</g>
</g>
<!-- PolynomialModel&#45;&gt;Polynomial1D -->
<g id="edge10" class="edge"><title>PolynomialModel&#45;&gt;Polynomial1D</title>
<path fill="none" stroke="black" stroke-width="0.5" d="M430.333,-169.154C443.627,-167.313 458.096,-165.31 471.228,-163.492"/>
<polygon fill="black" stroke="black" stroke-width="0.5" points="471.668,-165.197 476.381,-162.778 471.188,-161.73 471.668,-165.197"/>
</g>
<!-- Polynomial2D -->
<g id="node14" class="node"><title>Polynomial2D</title>
<g id="a_node14"><a xlink:href="../../api/astropy.modeling.polynomial.Polynomial2D.html#astropy.modeling.polynomial.Polynomial2D" xlink:title="2D Polynomial &#160;model." target="_top">
<polygon fill="none" stroke="black" stroke-width="0.5" points="554.5,-130 476.5,-130 476.5,-111 554.5,-111 554.5,-130"/>
<text text-anchor="middle" x="515.5" y="-118" font-family="Vera Sans, DejaVu Sans, Liberation Sans, Arial, Helvetica, sans" font-size="10.00">Polynomial2D</text>
</a>
</g>
</g>
<!-- PolynomialModel&#45;&gt;Polynomial2D -->
<g id="edge11" class="edge"><title>PolynomialModel&#45;&gt;Polynomial2D</title>
<path fill="none" stroke="black" stroke-width="0.5" d="M407.144,-165.92C429.377,-156.513 463.32,-142.153 487.071,-132.104"/>
<polygon fill="black" stroke="black" stroke-width="0.5" points="487.756,-133.715 491.679,-130.155 486.392,-130.492 487.756,-133.715"/>
</g>
<!-- Chebyshev2D -->
<g id="node3" class="node"><title>Chebyshev2D</title>
<g id="a_node3"><a xlink:href="../../api/astropy.modeling.polynomial.Chebyshev2D.html#astropy.modeling.polynomial.Chebyshev2D" xlink:title="Bivariate Chebyshev series.." target="_top">
<polygon fill="none" stroke="black" stroke-width="0.5" points="555,-93 476,-93 476,-74 555,-74 555,-93"/>
<text text-anchor="middle" x="515.5" y="-81" font-family="Vera Sans, DejaVu Sans, Liberation Sans, Arial, Helvetica, sans" font-size="10.00">Chebyshev2D</text>
</a>
</g>
</g>
<!-- OrthoPolynomialBase -->
<g id="node4" class="node"><title>OrthoPolynomialBase</title>
<g id="a_node4"><a xlink:href="../../api/astropy.modeling.polynomial.OrthoPolynomialBase.html#astropy.modeling.polynomial.OrthoPolynomialBase" xlink:title="This is a base class for the 2D Chebyshev and Legendre models." target="_top">
<polygon fill="none" stroke="black" stroke-width="0.5" points="440,-74 327,-74 327,-55 440,-55 440,-74"/>
<text text-anchor="middle" x="383.5" y="-62" font-family="Vera Sans, DejaVu Sans, Liberation Sans, Arial, Helvetica, sans" font-size="10.00">OrthoPolynomialBase</text>
</a>
</g>
</g>
<!-- OrthoPolynomialBase&#45;&gt;Chebyshev2D -->
<g id="edge2" class="edge"><title>OrthoPolynomialBase&#45;&gt;Chebyshev2D</title>
<path fill="none" stroke="black" stroke-width="0.5" d="M440.009,-72.6128C450.234,-74.1073 460.78,-75.6486 470.604,-77.0845"/>
<polygon fill="black" stroke="black" stroke-width="0.5" points="470.47,-78.8333 475.67,-77.8249 470.976,-75.3701 470.47,-78.8333"/>
</g>
<!-- Hermite2D -->
<g id="node8" class="node"><title>Hermite2D</title>
<g id="a_node8"><a xlink:href="../../api/astropy.modeling.polynomial.Hermite2D.html#astropy.modeling.polynomial.Hermite2D" xlink:title="Bivariate Hermite series." target="_top">
<polygon fill="none" stroke="black" stroke-width="0.5" points="547.5,-56 483.5,-56 483.5,-37 547.5,-37 547.5,-56"/>
<text text-anchor="middle" x="515.5" y="-44" font-family="Vera Sans, DejaVu Sans, Liberation Sans, Arial, Helvetica, sans" font-size="10.00">Hermite2D</text>
</a>
</g>
</g>
<!-- OrthoPolynomialBase&#45;&gt;Hermite2D -->
<g id="edge5" class="edge"><title>OrthoPolynomialBase&#45;&gt;Hermite2D</title>
<path fill="none" stroke="black" stroke-width="0.5" d="M440.009,-56.8142C452.931,-55.0249 466.365,-53.1649 478.208,-51.5251"/>
<polygon fill="black" stroke="black" stroke-width="0.5" points="478.467,-53.256 483.18,-50.8367 477.987,-49.7891 478.467,-53.256"/>
</g>
<!-- Legendre2D -->
<g id="node11" class="node"><title>Legendre2D</title>
<g id="a_node11"><a xlink:href="../../api/astropy.modeling.polynomial.Legendre2D.html#astropy.modeling.polynomial.Legendre2D" xlink:title="Bivariate Legendre series." target="_top">
<polygon fill="none" stroke="black" stroke-width="0.5" points="551.5,-19 479.5,-19 479.5,-0 551.5,-0 551.5,-19"/>
<text text-anchor="middle" x="515.5" y="-7" font-family="Vera Sans, DejaVu Sans, Liberation Sans, Arial, Helvetica, sans" font-size="10.00">Legendre2D</text>
</a>
</g>
</g>
<!-- OrthoPolynomialBase&#45;&gt;Legendre2D -->
<g id="edge8" class="edge"><title>OrthoPolynomialBase&#45;&gt;Legendre2D</title>
<path fill="none" stroke="black" stroke-width="0.5" d="M407.144,-54.9197C429.377,-45.5135 463.32,-31.153 487.071,-21.1045"/>
<polygon fill="black" stroke="black" stroke-width="0.5" points="487.756,-22.715 491.679,-19.155 486.392,-19.4916 487.756,-22.715"/>
</g>
<!-- FittableModel -->
<g id="node5" class="node"><title>FittableModel</title>
<g id="a_node5"><a xlink:href="../../api/astropy.modeling.FittableModel.html#astropy.modeling.FittableModel" xlink:title="Base class for models that can be fitted using the built&#45;in fitting" target="_top">
<polygon fill="none" stroke="black" stroke-width="0.5" points="167,-129 90,-129 90,-110 167,-110 167,-129"/>
<text text-anchor="middle" x="128.5" y="-117" font-family="Vera Sans, DejaVu Sans, Liberation Sans, Arial, Helvetica, sans" font-size="10.00">FittableModel</text>
</a>
</g>
</g>
<!-- PolynomialBase -->
<g id="node12" class="node"><title>PolynomialBase</title>
<g id="a_node12"><a xlink:title="Base class for all polynomial&#45;like models with an arbitrary number of">
<polygon fill="none" stroke="black" stroke-width="0.5" points="291,-129 203,-129 203,-110 291,-110 291,-129"/>
<text text-anchor="middle" x="247" y="-117" font-family="Vera Sans, DejaVu Sans, Liberation Sans, Arial, Helvetica, sans" font-size="10.00">PolynomialBase</text>
</a>
</g>
</g>
<!-- FittableModel&#45;&gt;PolynomialBase -->
<g id="edge12" class="edge"><title>FittableModel&#45;&gt;PolynomialBase</title>
<path fill="none" stroke="black" stroke-width="0.5" d="M167.003,-119.5C176.835,-119.5 187.574,-119.5 197.877,-119.5"/>
<polygon fill="black" stroke="black" stroke-width="0.5" points="197.894,-121.25 202.894,-119.5 197.894,-117.75 197.894,-121.25"/>
</g>
<!-- Model -->
<g id="node6" class="node"><title>Model</title>
<g id="a_node6"><a xlink:href="../../api/astropy.modeling.Model.html#astropy.modeling.Model" xlink:title="Base class for all models." target="_top">
<polygon fill="none" stroke="black" stroke-width="0.5" points="54,-92 0,-92 0,-73 54,-73 54,-92"/>
<text text-anchor="middle" x="27" y="-80" font-family="Vera Sans, DejaVu Sans, Liberation Sans, Arial, Helvetica, sans" font-size="10.00">Model</text>
</a>
</g>
</g>
<!-- Model&#45;&gt;FittableModel -->
<g id="edge3" class="edge"><title>Model&#45;&gt;FittableModel</title>
<path fill="none" stroke="black" stroke-width="0.5" d="M53.6237,-92.0284C66.752,-96.9103 82.8379,-102.892 96.6438,-108.026"/>
<polygon fill="black" stroke="black" stroke-width="0.5" points="96.3208,-109.773 101.617,-109.875 97.5408,-106.492 96.3208,-109.773"/>
</g>
<!-- InverseSIP -->
<g id="node9" class="node"><title>InverseSIP</title>
<g id="a_node9"><a xlink:href="../../api/astropy.modeling.polynomial.InverseSIP.html#astropy.modeling.polynomial.InverseSIP" xlink:title="Inverse Simple Imaging Polynomial" target="_top">
<polygon fill="none" stroke="black" stroke-width="0.5" points="161,-92 96,-92 96,-73 161,-73 161,-92"/>
<text text-anchor="middle" x="128.5" y="-80" font-family="Vera Sans, DejaVu Sans, Liberation Sans, Arial, Helvetica, sans" font-size="10.00">InverseSIP</text>
</a>
</g>
</g>
<!-- Model&#45;&gt;InverseSIP -->
<g id="edge6" class="edge"><title>Model&#45;&gt;InverseSIP</title>
<path fill="none" stroke="black" stroke-width="0.5" d="M54.1425,-82.5C65.3271,-82.5 78.584,-82.5 90.7309,-82.5"/>
<polygon fill="black" stroke="black" stroke-width="0.5" points="90.8595,-84.2501 95.8595,-82.5 90.8595,-80.7501 90.8595,-84.2501"/>
</g>
<!-- SIP -->
<g id="node15" class="node"><title>SIP</title>
<g id="a_node15"><a xlink:href="../../api/astropy.modeling.polynomial.SIP.html#astropy.modeling.polynomial.SIP" xlink:title="Simple Imaging Polynomial (SIP) model." target="_top">
<polygon fill="none" stroke="black" stroke-width="0.5" points="155.5,-55 101.5,-55 101.5,-36 155.5,-36 155.5,-55"/>
<text text-anchor="middle" x="128.5" y="-43" font-family="Vera Sans, DejaVu Sans, Liberation Sans, Arial, Helvetica, sans" font-size="10.00">SIP</text>
</a>
</g>
</g>
<!-- Model&#45;&gt;SIP -->
<g id="edge14" class="edge"><title>Model&#45;&gt;SIP</title>
<path fill="none" stroke="black" stroke-width="0.5" d="M53.6237,-72.9716C66.752,-68.0897 82.8379,-62.108 96.6438,-56.9742"/>
<polygon fill="black" stroke="black" stroke-width="0.5" points="97.5408,-58.5078 101.617,-55.1247 96.3208,-55.2272 97.5408,-58.5078"/>
</g>
<!-- PolynomialBase&#45;&gt;PolynomialModel -->
<g id="edge13" class="edge"><title>PolynomialBase&#45;&gt;PolynomialModel</title>
<path fill="none" stroke="black" stroke-width="0.5" d="M271.121,-129.127C294.358,-138.801 330.179,-153.716 354.893,-164.006"/>
<polygon fill="black" stroke="black" stroke-width="0.5" points="354.392,-165.693 359.68,-165.999 355.737,-162.461 354.392,-165.693"/>
</g>
<!-- PolynomialBase&#45;&gt;OrthoPolynomialBase -->
<g id="edge9" class="edge"><title>PolynomialBase&#45;&gt;OrthoPolynomialBase</title>
<path fill="none" stroke="black" stroke-width="0.5" d="M271.428,-109.92C294.431,-100.513 329.549,-86.153 354.122,-76.1045"/>
<polygon fill="black" stroke="black" stroke-width="0.5" points="354.923,-77.6674 358.889,-74.155 353.599,-74.4278 354.923,-77.6674"/>
</g>
</g>
</svg>
