<?xml version="1.0" encoding="UTF-8" standalone="no"?>
<!DOCTYPE svg PUBLIC "-//W3C//DTD SVG 1.1//EN"
 "http://www.w3.org/Graphics/SVG/1.1/DTD/svg11.dtd">
<!-- Generated by graphviz version 2.38.0 (20140413.2041)
 -->
<!-- Title: inheritance9a3ab37398 Pages: 1 -->
<svg width="225pt" height="175pt"
 viewBox="0.00 0.00 225.00 175.00" xmlns="http://www.w3.org/2000/svg" xmlns:xlink="http://www.w3.org/1999/xlink">
<g id="graph0" class="graph" transform="scale(1 1) rotate(0) translate(4 171)">
<title>inheritance9a3ab37398</title>
<polygon fill="white" stroke="none" points="-4,4 -4,-171 221,-171 221,4 -4,4"/>
<!-- Events -->
<g id="node1" class="node"><title>Events</title>
<g id="a_node1"><a xlink:href="../../api/astropy.stats.Events.html#astropy.stats.Events" xlink:title="Bayesian blocks fitness for binned or unbinned events" target="_top">
<polygon fill="none" stroke="black" stroke-width="0.5" points="202.5,-93 148.5,-93 148.5,-74 202.5,-74 202.5,-93"/>
<text text-anchor="middle" x="175.5" y="-81" font-family="Vera Sans, DejaVu Sans, Liberation Sans, Arial, Helvetica, sans" font-size="10.00">Events</text>
</a>
</g>
</g>
<!-- FitnessFunc -->
<g id="node2" class="node"><title>FitnessFunc</title>
<g id="a_node2"><a xlink:href="../../api/astropy.stats.FitnessFunc.html#astropy.stats.FitnessFunc" xlink:title="Base class for bayesian blocks fitness functions" target="_top">
<polygon fill="none" stroke="black" stroke-width="0.5" points="84.5,-56 13.5,-56 13.5,-37 84.5,-37 84.5,-56"/>
<text text-anchor="middle" x="49" y="-44" font-family="Vera Sans, DejaVu Sans, Liberation Sans, Arial, Helvetica, sans" font-size="10.00">FitnessFunc</text>
</a>
</g>
</g>
<!-- FitnessFunc&#45;&gt;Events -->
<g id="edge1" class="edge"><title>FitnessFunc&#45;&gt;Events</title>
<path fill="none" stroke="black" stroke-width="0.5" d="M82.0618,-56.0284C100.897,-61.6259 124.597,-68.6693 143.283,-74.2227"/>
<polygon fill="black" stroke="black" stroke-width="0.5" points="143.121,-76.0002 148.413,-75.7471 144.118,-72.6452 143.121,-76.0002"/>
</g>
<!-- PointMeasures -->
<g id="node4" class="node"><title>PointMeasures</title>
<g id="a_node4"><a xlink:href="../../api/astropy.stats.PointMeasures.html#astropy.stats.PointMeasures" xlink:title="Bayesian blocks fitness for point measures" target="_top">
<polygon fill="none" stroke="black" stroke-width="0.5" points="217,-56 134,-56 134,-37 217,-37 217,-56"/>
<text text-anchor="middle" x="175.5" y="-44" font-family="Vera Sans, DejaVu Sans, Liberation Sans, Arial, Helvetica, sans" font-size="10.00">PointMeasures</text>
</a>
</g>
</g>
<!-- FitnessFunc&#45;&gt;PointMeasures -->
<g id="edge2" class="edge"><title>FitnessFunc&#45;&gt;PointMeasures</title>
<path fill="none" stroke="black" stroke-width="0.5" d="M84.6802,-46.5C98.2653,-46.5 114.046,-46.5 128.555,-46.5"/>
<polygon fill="black" stroke="black" stroke-width="0.5" points="128.836,-48.2501 133.836,-46.5 128.836,-44.7501 128.836,-48.2501"/>
</g>
<!-- RegularEvents -->
<g id="node5" class="node"><title>RegularEvents</title>
<g id="a_node5"><a xlink:href="../../api/astropy.stats.RegularEvents.html#astropy.stats.RegularEvents" xlink:title="Bayesian blocks fitness for regular events" target="_top">
<polygon fill="none" stroke="black" stroke-width="0.5" points="216.5,-19 134.5,-19 134.5,-0 216.5,-0 216.5,-19"/>
<text text-anchor="middle" x="175.5" y="-7" font-family="Vera Sans, DejaVu Sans, Liberation Sans, Arial, Helvetica, sans" font-size="10.00">RegularEvents</text>
</a>
</g>
</g>
<!-- FitnessFunc&#45;&gt;RegularEvents -->
<g id="edge3" class="edge"><title>FitnessFunc&#45;&gt;RegularEvents</title>
<path fill="none" stroke="black" stroke-width="0.5" d="M82.0618,-36.9716C98.921,-31.9612 119.678,-25.7924 137.249,-20.5707"/>
<polygon fill="black" stroke="black" stroke-width="0.5" points="137.82,-22.2267 142.114,-19.1247 136.823,-18.8717 137.82,-22.2267"/>
</g>
<!-- LombScargle -->
<g id="node3" class="node"><title>LombScargle</title>
<g id="a_node3"><a xlink:href="../../api/astropy.stats.LombScargle.html#astropy.stats.LombScargle" xlink:title="Compute the Lomb&#45;Scargle Periodogram" target="_top">
<polygon fill="none" stroke="black" stroke-width="0.5" points="86.5,-93 11.5,-93 11.5,-74 86.5,-74 86.5,-93"/>
<text text-anchor="middle" x="49" y="-81" font-family="Vera Sans, DejaVu Sans, Liberation Sans, Arial, Helvetica, sans" font-size="10.00">LombScargle</text>
</a>
</g>
</g>
<!-- RipleysKEstimator -->
<g id="node6" class="node"><title>RipleysKEstimator</title>
<g id="a_node6"><a xlink:href="../../api/astropy.stats.RipleysKEstimator.html#astropy.stats.RipleysKEstimator" xlink:title="Estimators for Ripley&#39;s K function for two&#45;dimensional spatial data." target="_top">
<polygon fill="none" stroke="black" stroke-width="0.5" points="98,-130 0,-130 0,-111 98,-111 98,-130"/>
<text text-anchor="middle" x="49" y="-118" font-family="Vera Sans, DejaVu Sans, Liberation Sans, Arial, Helvetica, sans" font-size="10.00">RipleysKEstimator</text>
</a>
</g>
</g>
<!-- SigmaClip -->
<g id="node7" class="node"><title>SigmaClip</title>
<g id="a_node7"><a xlink:href="../../api/astropy.stats.SigmaClip.html#astropy.stats.SigmaClip" xlink:title="Class to perform sigma clipping." target="_top">
<polygon fill="none" stroke="black" stroke-width="0.5" points="80,-167 18,-167 18,-148 80,-148 80,-167"/>
<text text-anchor="middle" x="49" y="-155" font-family="Vera Sans, DejaVu Sans, Liberation Sans, Arial, Helvetica, sans" font-size="10.00">SigmaClip</text>
</a>
</g>
</g>
</g>
</svg>
