<?xml version="1.0" encoding="UTF-8" standalone="no"?>
<!DOCTYPE svg PUBLIC "-//W3C//DTD SVG 1.1//EN"
 "http://www.w3.org/Graphics/SVG/1.1/DTD/svg11.dtd">
<!-- Generated by graphviz version 2.38.0 (20140413.2041)
 -->
<!-- Title: inheritance1237d17fe2 Pages: 1 -->
<svg width="576pt" height="280pt"
 viewBox="0.00 0.00 576.00 279.66" xmlns="http://www.w3.org/2000/svg" xmlns:xlink="http://www.w3.org/1999/xlink">
<g id="graph0" class="graph" transform="scale(0.757895 0.757895) rotate(0) translate(4 365)">
<title>inheritance1237d17fe2</title>
<polygon fill="white" stroke="none" points="-4,4 -4,-365 756,-365 756,4 -4,4"/>
<!-- AstropyWarning -->
<g id="node1" class="node"><title>AstropyWarning</title>
<g id="a_node1"><a xlink:href="../../api/astropy.utils.exceptions.AstropyWarning.html#astropy.utils.exceptions.AstropyWarning" xlink:title="The base warning class from which all Astropy warnings should inherit." target="_top">
<polygon fill="none" stroke="black" stroke-width="0.5" points="91.5,-19 3.5,-19 3.5,-0 91.5,-0 91.5,-19"/>
<text text-anchor="middle" x="47.5" y="-7" font-family="Vera Sans, DejaVu Sans, Liberation Sans, Arial, Helvetica, sans" font-size="10.00">AstropyWarning</text>
</a>
</g>
</g>
<!-- UnitsWarning -->
<g id="node30" class="node"><title>UnitsWarning</title>
<g id="a_node30"><a xlink:href="../../api/astropy.units.UnitsWarning.html#astropy.units.UnitsWarning" xlink:title="The base class for unit&#45;specific warnings." target="_top">
<polygon fill="none" stroke="black" stroke-width="0.5" points="223,-19 146,-19 146,-0 223,-0 223,-19"/>
<text text-anchor="middle" x="184.5" y="-7" font-family="Vera Sans, DejaVu Sans, Liberation Sans, Arial, Helvetica, sans" font-size="10.00">UnitsWarning</text>
</a>
</g>
</g>
<!-- AstropyWarning&#45;&gt;UnitsWarning -->
<g id="edge24" class="edge"><title>AstropyWarning&#45;&gt;UnitsWarning</title>
<path fill="none" stroke="black" stroke-width="0.5" d="M91.586,-9.5C107.254,-9.5 124.951,-9.5 140.603,-9.5"/>
<polygon fill="black" stroke="black" stroke-width="0.5" points="140.826,-11.2501 145.826,-9.5 140.826,-7.7501 140.826,-11.2501"/>
</g>
<!-- BaseColumnInfo -->
<g id="node2" class="node"><title>BaseColumnInfo</title>
<g id="a_node2"><a xlink:href="../../api/astropy.utils.data_info.BaseColumnInfo.html#astropy.utils.data_info.BaseColumnInfo" xlink:title="Base info class for anything that can be a column in an astropy" target="_top">
<polygon fill="none" stroke="black" stroke-width="0.5" points="229.5,-56 139.5,-56 139.5,-37 229.5,-37 229.5,-56"/>
<text text-anchor="middle" x="184.5" y="-44" font-family="Vera Sans, DejaVu Sans, Liberation Sans, Arial, Helvetica, sans" font-size="10.00">BaseColumnInfo</text>
</a>
</g>
</g>
<!-- MixinInfo -->
<g id="node19" class="node"><title>MixinInfo</title>
<g id="a_node19"><a xlink:href="../../api/astropy.utils.data_info.MixinInfo.html#astropy.utils.data_info.MixinInfo" xlink:title="MixinInfo" target="_top">
<polygon fill="none" stroke="black" stroke-width="0.5" points="358,-56 301,-56 301,-37 358,-37 358,-56"/>
<text text-anchor="middle" x="329.5" y="-44" font-family="Vera Sans, DejaVu Sans, Liberation Sans, Arial, Helvetica, sans" font-size="10.00">MixinInfo</text>
</a>
</g>
</g>
<!-- BaseColumnInfo&#45;&gt;MixinInfo -->
<g id="edge13" class="edge"><title>BaseColumnInfo&#45;&gt;MixinInfo</title>
<path fill="none" stroke="black" stroke-width="0.5" d="M229.572,-46.5C250.966,-46.5 276.222,-46.5 295.86,-46.5"/>
<polygon fill="black" stroke="black" stroke-width="0.5" points="295.984,-48.2501 300.984,-46.5 295.984,-44.7501 295.984,-48.2501"/>
</g>
<!-- DataInfo -->
<g id="node3" class="node"><title>DataInfo</title>
<g id="a_node3"><a xlink:href="../../api/astropy.utils.data_info.DataInfo.html#astropy.utils.data_info.DataInfo" xlink:title="Descriptor that data classes use to add an ``info`` attribute for storing" target="_top">
<polygon fill="none" stroke="black" stroke-width="0.5" points="74.5,-56 20.5,-56 20.5,-37 74.5,-37 74.5,-56"/>
<text text-anchor="middle" x="47.5" y="-44" font-family="Vera Sans, DejaVu Sans, Liberation Sans, Arial, Helvetica, sans" font-size="10.00">DataInfo</text>
</a>
</g>
</g>
<!-- DataInfo&#45;&gt;BaseColumnInfo -->
<g id="edge1" class="edge"><title>DataInfo&#45;&gt;BaseColumnInfo</title>
<path fill="none" stroke="black" stroke-width="0.5" d="M74.5294,-46.5C91.4815,-46.5 114.131,-46.5 134.389,-46.5"/>
<polygon fill="black" stroke="black" stroke-width="0.5" points="134.483,-48.2501 139.483,-46.5 134.483,-44.7501 134.483,-48.2501"/>
</g>
<!-- CompositeUnit -->
<g id="node4" class="node"><title>CompositeUnit</title>
<g id="a_node4"><a xlink:href="../../api/astropy.units.CompositeUnit.html#astropy.units.CompositeUnit" xlink:title="Create a composite unit using expressions of previously defined" target="_top">
<polygon fill="none" stroke="black" stroke-width="0.5" points="225.5,-144 143.5,-144 143.5,-125 225.5,-125 225.5,-144"/>
<text text-anchor="middle" x="184.5" y="-132" font-family="Vera Sans, DejaVu Sans, Liberation Sans, Arial, Helvetica, sans" font-size="10.00">CompositeUnit</text>
</a>
</g>
</g>
<!-- UnitBase -->
<g id="node5" class="node"><title>UnitBase</title>
<g id="a_node5"><a xlink:href="../../api/astropy.units.UnitBase.html#astropy.units.UnitBase" xlink:title="Abstract base class for units." target="_top">
<polygon fill="none" stroke="black" stroke-width="0.5" points="76,-125 19,-125 19,-106 76,-106 76,-125"/>
<text text-anchor="middle" x="47.5" y="-113" font-family="Vera Sans, DejaVu Sans, Liberation Sans, Arial, Helvetica, sans" font-size="10.00">UnitBase</text>
</a>
</g>
</g>
<!-- UnitBase&#45;&gt;CompositeUnit -->
<g id="edge2" class="edge"><title>UnitBase&#45;&gt;CompositeUnit</title>
<path fill="none" stroke="black" stroke-width="0.5" d="M76.145,-119.391C93.9947,-121.903 117.637,-125.23 138.191,-128.123"/>
<polygon fill="black" stroke="black" stroke-width="0.5" points="138.15,-129.885 143.345,-128.849 138.637,-126.419 138.15,-129.885"/>
</g>
<!-- NamedUnit -->
<g id="node16" class="node"><title>NamedUnit</title>
<g id="a_node16"><a xlink:href="../../api/astropy.units.NamedUnit.html#astropy.units.NamedUnit" xlink:title="The base class of units that have a name." target="_top">
<polygon fill="none" stroke="black" stroke-width="0.5" points="218,-107 151,-107 151,-88 218,-88 218,-107"/>
<text text-anchor="middle" x="184.5" y="-95" font-family="Vera Sans, DejaVu Sans, Liberation Sans, Arial, Helvetica, sans" font-size="10.00">NamedUnit</text>
</a>
</g>
</g>
<!-- UnitBase&#45;&gt;NamedUnit -->
<g id="edge14" class="edge"><title>UnitBase&#45;&gt;NamedUnit</title>
<path fill="none" stroke="black" stroke-width="0.5" d="M76.145,-111.814C96.1413,-109.148 123.408,-105.512 145.457,-102.572"/>
<polygon fill="black" stroke="black" stroke-width="0.5" points="145.928,-104.275 150.653,-101.88 145.466,-100.806 145.928,-104.275"/>
</g>
<!-- Decibel -->
<g id="node6" class="node"><title>Decibel</title>
<g id="a_node6"><a xlink:href="../../api/astropy.units.function.Decibel.html#astropy.units.function.Decibel" xlink:title="Decibel" target="_top">
<polygon fill="none" stroke="black" stroke-width="0.5" points="626.5,-250 572.5,-250 572.5,-231 626.5,-231 626.5,-250"/>
<text text-anchor="middle" x="599.5" y="-238" font-family="Vera Sans, DejaVu Sans, Liberation Sans, Arial, Helvetica, sans" font-size="10.00">Decibel</text>
</a>
</g>
</g>
<!-- LogQuantity -->
<g id="node7" class="node"><title>LogQuantity</title>
<g id="a_node7"><a xlink:href="../../api/astropy.units.function.LogQuantity.html#astropy.units.function.LogQuantity" xlink:title="A representation of a (scaled) logarithm of a number with a unit" target="_top">
<polygon fill="none" stroke="black" stroke-width="0.5" points="504,-213 434,-213 434,-194 504,-194 504,-213"/>
<text text-anchor="middle" x="469" y="-201" font-family="Vera Sans, DejaVu Sans, Liberation Sans, Arial, Helvetica, sans" font-size="10.00">LogQuantity</text>
</a>
</g>
</g>
<!-- LogQuantity&#45;&gt;Decibel -->
<g id="edge3" class="edge"><title>LogQuantity&#45;&gt;Decibel</title>
<path fill="none" stroke="black" stroke-width="0.5" d="M503.092,-213.028C522.972,-218.753 548.104,-225.989 567.583,-231.598"/>
<polygon fill="black" stroke="black" stroke-width="0.5" points="567.118,-233.285 572.407,-232.987 568.086,-229.921 567.118,-233.285"/>
</g>
<!-- Dex -->
<g id="node10" class="node"><title>Dex</title>
<g id="a_node10"><a xlink:href="../../api/astropy.units.function.Dex.html#astropy.units.function.Dex" xlink:title="Dex" target="_top">
<polygon fill="none" stroke="black" stroke-width="0.5" points="626.5,-213 572.5,-213 572.5,-194 626.5,-194 626.5,-213"/>
<text text-anchor="middle" x="599.5" y="-201" font-family="Vera Sans, DejaVu Sans, Liberation Sans, Arial, Helvetica, sans" font-size="10.00">Dex</text>
</a>
</g>
</g>
<!-- LogQuantity&#45;&gt;Dex -->
<g id="edge5" class="edge"><title>LogQuantity&#45;&gt;Dex</title>
<path fill="none" stroke="black" stroke-width="0.5" d="M504.098,-203.5C523.672,-203.5 548.073,-203.5 567.164,-203.5"/>
<polygon fill="black" stroke="black" stroke-width="0.5" points="567.399,-205.25 572.399,-203.5 567.399,-201.75 567.399,-205.25"/>
</g>
<!-- Magnitude -->
<g id="node18" class="node"><title>Magnitude</title>
<g id="a_node18"><a xlink:href="../../api/astropy.units.function.Magnitude.html#astropy.units.function.Magnitude" xlink:title="Magnitude" target="_top">
<polygon fill="none" stroke="black" stroke-width="0.5" points="631,-176 568,-176 568,-157 631,-157 631,-176"/>
<text text-anchor="middle" x="599.5" y="-164" font-family="Vera Sans, DejaVu Sans, Liberation Sans, Arial, Helvetica, sans" font-size="10.00">Magnitude</text>
</a>
</g>
</g>
<!-- LogQuantity&#45;&gt;Magnitude -->
<g id="edge12" class="edge"><title>LogQuantity&#45;&gt;Magnitude</title>
<path fill="none" stroke="black" stroke-width="0.5" d="M503.092,-193.972C521.308,-188.726 543.934,-182.212 562.58,-176.843"/>
<polygon fill="black" stroke="black" stroke-width="0.5" points="563.406,-178.426 567.726,-175.361 562.437,-175.063 563.406,-178.426"/>
</g>
<!-- DecibelUnit -->
<g id="node8" class="node"><title>DecibelUnit</title>
<g id="a_node8"><a xlink:href="../../api/astropy.units.function.DecibelUnit.html#astropy.units.function.DecibelUnit" xlink:title="Logarithmic physical units expressed in dB" target="_top">
<polygon fill="none" stroke="black" stroke-width="0.5" points="363.5,-324 295.5,-324 295.5,-305 363.5,-305 363.5,-324"/>
<text text-anchor="middle" x="329.5" y="-312" font-family="Vera Sans, DejaVu Sans, Liberation Sans, Arial, Helvetica, sans" font-size="10.00">DecibelUnit</text>
</a>
</g>
</g>
<!-- LogUnit -->
<g id="node9" class="node"><title>LogUnit</title>
<g id="a_node9"><a xlink:href="../../api/astropy.units.function.LogUnit.html#astropy.units.function.LogUnit" xlink:title="Logarithmic unit containing a physical one" target="_top">
<polygon fill="none" stroke="black" stroke-width="0.5" points="211.5,-287 157.5,-287 157.5,-268 211.5,-268 211.5,-287"/>
<text text-anchor="middle" x="184.5" y="-275" font-family="Vera Sans, DejaVu Sans, Liberation Sans, Arial, Helvetica, sans" font-size="10.00">LogUnit</text>
</a>
</g>
</g>
<!-- LogUnit&#45;&gt;DecibelUnit -->
<g id="edge4" class="edge"><title>LogUnit&#45;&gt;DecibelUnit</title>
<path fill="none" stroke="black" stroke-width="0.5" d="M211.728,-284.286C233.801,-289.997 265.652,-298.239 290.515,-304.672"/>
<polygon fill="black" stroke="black" stroke-width="0.5" points="290.111,-306.375 295.39,-305.933 290.988,-302.986 290.111,-306.375"/>
</g>
<!-- DexUnit -->
<g id="node11" class="node"><title>DexUnit</title>
<g id="a_node11"><a xlink:href="../../api/astropy.units.function.DexUnit.html#astropy.units.function.DexUnit" xlink:title="Logarithmic physical units expressed in magnitudes" target="_top">
<polygon fill="none" stroke="black" stroke-width="0.5" points="356.5,-287 302.5,-287 302.5,-268 356.5,-268 356.5,-287"/>
<text text-anchor="middle" x="329.5" y="-275" font-family="Vera Sans, DejaVu Sans, Liberation Sans, Arial, Helvetica, sans" font-size="10.00">DexUnit</text>
</a>
</g>
</g>
<!-- LogUnit&#45;&gt;DexUnit -->
<g id="edge6" class="edge"><title>LogUnit&#45;&gt;DexUnit</title>
<path fill="none" stroke="black" stroke-width="0.5" d="M211.728,-277.5C235.817,-277.5 271.551,-277.5 297.139,-277.5"/>
<polygon fill="black" stroke="black" stroke-width="0.5" points="297.438,-279.25 302.438,-277.5 297.438,-275.75 297.438,-279.25"/>
</g>
<!-- MagUnit -->
<g id="node17" class="node"><title>MagUnit</title>
<g id="a_node17"><a xlink:href="../../api/astropy.units.function.MagUnit.html#astropy.units.function.MagUnit" xlink:title="Logarithmic physical units expressed in magnitudes" target="_top">
<polygon fill="none" stroke="black" stroke-width="0.5" points="356.5,-250 302.5,-250 302.5,-231 356.5,-231 356.5,-250"/>
<text text-anchor="middle" x="329.5" y="-238" font-family="Vera Sans, DejaVu Sans, Liberation Sans, Arial, Helvetica, sans" font-size="10.00">MagUnit</text>
</a>
</g>
</g>
<!-- LogUnit&#45;&gt;MagUnit -->
<g id="edge11" class="edge"><title>LogUnit&#45;&gt;MagUnit</title>
<path fill="none" stroke="black" stroke-width="0.5" d="M211.728,-270.714C235.918,-264.455 271.85,-255.158 297.46,-248.531"/>
<polygon fill="black" stroke="black" stroke-width="0.5" points="298.036,-250.19 302.438,-247.243 297.159,-246.802 298.036,-250.19"/>
</g>
<!-- FunctionQuantity -->
<g id="node12" class="node"><title>FunctionQuantity</title>
<g id="a_node12"><a xlink:href="../../api/astropy.units.function.FunctionQuantity.html#astropy.units.function.FunctionQuantity" xlink:title="A representation of a (scaled) function of a number with a unit." target="_top">
<polygon fill="none" stroke="black" stroke-width="0.5" points="375.5,-213 283.5,-213 283.5,-194 375.5,-194 375.5,-213"/>
<text text-anchor="middle" x="329.5" y="-201" font-family="Vera Sans, DejaVu Sans, Liberation Sans, Arial, Helvetica, sans" font-size="10.00">FunctionQuantity</text>
</a>
</g>
</g>
<!-- FunctionQuantity&#45;&gt;LogQuantity -->
<g id="edge9" class="edge"><title>FunctionQuantity&#45;&gt;LogQuantity</title>
<path fill="none" stroke="black" stroke-width="0.5" d="M375.523,-203.5C392.7,-203.5 412.129,-203.5 428.729,-203.5"/>
<polygon fill="black" stroke="black" stroke-width="0.5" points="428.785,-205.25 433.785,-203.5 428.785,-201.75 428.785,-205.25"/>
</g>
<!-- Quantity -->
<g id="node13" class="node"><title>Quantity</title>
<g id="a_node13"><a xlink:href="../../api/astropy.units.quantity.Quantity.html#astropy.units.quantity.Quantity" xlink:title="A `~astropy.units.Quantity` represents a number with some associated unit." target="_top">
<polygon fill="none" stroke="black" stroke-width="0.5" points="211.5,-199 157.5,-199 157.5,-180 211.5,-180 211.5,-199"/>
<text text-anchor="middle" x="184.5" y="-187" font-family="Vera Sans, DejaVu Sans, Liberation Sans, Arial, Helvetica, sans" font-size="10.00">Quantity</text>
</a>
</g>
</g>
<!-- Quantity&#45;&gt;FunctionQuantity -->
<g id="edge7" class="edge"><title>Quantity&#45;&gt;FunctionQuantity</title>
<path fill="none" stroke="black" stroke-width="0.5" d="M211.728,-192.068C230.319,-193.888 255.846,-196.387 278.292,-198.585"/>
<polygon fill="black" stroke="black" stroke-width="0.5" points="278.181,-200.332 283.328,-199.078 278.522,-196.849 278.181,-200.332"/>
</g>
<!-- SpecificTypeQuantity -->
<g id="node26" class="node"><title>SpecificTypeQuantity</title>
<g id="a_node26"><a xlink:href="../../api/astropy.units.quantity.SpecificTypeQuantity.html#astropy.units.quantity.SpecificTypeQuantity" xlink:title="Superclass for Quantities of specific physical type." target="_top">
<polygon fill="none" stroke="black" stroke-width="0.5" points="385,-176 274,-176 274,-157 385,-157 385,-176"/>
<text text-anchor="middle" x="329.5" y="-164" font-family="Vera Sans, DejaVu Sans, Liberation Sans, Arial, Helvetica, sans" font-size="10.00">SpecificTypeQuantity</text>
</a>
</g>
</g>
<!-- Quantity&#45;&gt;SpecificTypeQuantity -->
<g id="edge20" class="edge"><title>Quantity&#45;&gt;SpecificTypeQuantity</title>
<path fill="none" stroke="black" stroke-width="0.5" d="M211.728,-185.281C227.71,-182.711 248.817,-179.316 268.687,-176.12"/>
<polygon fill="black" stroke="black" stroke-width="0.5" points="269.049,-177.835 273.708,-175.313 268.493,-174.379 269.049,-177.835"/>
</g>
<!-- FunctionUnitBase -->
<g id="node14" class="node"><title>FunctionUnitBase</title>
<g id="a_node14"><a xlink:href="../../api/astropy.units.function.FunctionUnitBase.html#astropy.units.function.FunctionUnitBase" xlink:title="Abstract base class for function units." target="_top">
<polygon fill="none" stroke="black" stroke-width="0.5" points="95,-287 0,-287 0,-268 95,-268 95,-287"/>
<text text-anchor="middle" x="47.5" y="-275" font-family="Vera Sans, DejaVu Sans, Liberation Sans, Arial, Helvetica, sans" font-size="10.00">FunctionUnitBase</text>
</a>
</g>
</g>
<!-- FunctionUnitBase&#45;&gt;LogUnit -->
<g id="edge10" class="edge"><title>FunctionUnitBase&#45;&gt;LogUnit</title>
<path fill="none" stroke="black" stroke-width="0.5" d="M95.3376,-277.5C114.11,-277.5 135.241,-277.5 152.11,-277.5"/>
<polygon fill="black" stroke="black" stroke-width="0.5" points="152.2,-279.25 157.2,-277.5 152.2,-275.75 152.2,-279.25"/>
</g>
<!-- IrreducibleUnit -->
<g id="node15" class="node"><title>IrreducibleUnit</title>
<g id="a_node15"><a xlink:href="../../api/astropy.units.IrreducibleUnit.html#astropy.units.IrreducibleUnit" xlink:title="Irreducible units are the units that all other units are defined" target="_top">
<polygon fill="none" stroke="black" stroke-width="0.5" points="370,-130 289,-130 289,-111 370,-111 370,-130"/>
<text text-anchor="middle" x="329.5" y="-118" font-family="Vera Sans, DejaVu Sans, Liberation Sans, Arial, Helvetica, sans" font-size="10.00">IrreducibleUnit</text>
</a>
</g>
</g>
<!-- UnrecognizedUnit -->
<g id="node31" class="node"><title>UnrecognizedUnit</title>
<g id="a_node31"><a xlink:href="../../api/astropy.units.UnrecognizedUnit.html#astropy.units.UnrecognizedUnit" xlink:title="A unit that did not parse correctly. &#160;This allows for" target="_top">
<polygon fill="none" stroke="black" stroke-width="0.5" points="517,-130 421,-130 421,-111 517,-111 517,-130"/>
<text text-anchor="middle" x="469" y="-118" font-family="Vera Sans, DejaVu Sans, Liberation Sans, Arial, Helvetica, sans" font-size="10.00">UnrecognizedUnit</text>
</a>
</g>
</g>
<!-- IrreducibleUnit&#45;&gt;UnrecognizedUnit -->
<g id="edge25" class="edge"><title>IrreducibleUnit&#45;&gt;UnrecognizedUnit</title>
<path fill="none" stroke="black" stroke-width="0.5" d="M370.271,-120.5C384.38,-120.5 400.482,-120.5 415.49,-120.5"/>
<polygon fill="black" stroke="black" stroke-width="0.5" points="415.533,-122.25 420.533,-120.5 415.533,-118.75 415.533,-122.25"/>
</g>
<!-- NamedUnit&#45;&gt;IrreducibleUnit -->
<g id="edge8" class="edge"><title>NamedUnit&#45;&gt;IrreducibleUnit</title>
<path fill="none" stroke="black" stroke-width="0.5" d="M218.307,-102.777C237.773,-105.908 262.715,-109.919 283.945,-113.334"/>
<polygon fill="black" stroke="black" stroke-width="0.5" points="283.76,-115.076 288.974,-114.143 284.316,-111.621 283.76,-115.076"/>
</g>
<!-- Unit -->
<g id="node22" class="node"><title>Unit</title>
<g id="a_node22"><a xlink:href="../../api/astropy.units.Unit.html#astropy.units.Unit" xlink:title="The main unit class." target="_top">
<polygon fill="none" stroke="black" stroke-width="0.5" points="356.5,-93 302.5,-93 302.5,-74 356.5,-74 356.5,-93"/>
<text text-anchor="middle" x="329.5" y="-81" font-family="Vera Sans, DejaVu Sans, Liberation Sans, Arial, Helvetica, sans" font-size="10.00">Unit</text>
</a>
</g>
</g>
<!-- NamedUnit&#45;&gt;Unit -->
<g id="edge21" class="edge"><title>NamedUnit&#45;&gt;Unit</title>
<path fill="none" stroke="black" stroke-width="0.5" d="M218.307,-94.2881C241.918,-91.9765 273.586,-88.8762 296.913,-86.5924"/>
<polygon fill="black" stroke="black" stroke-width="0.5" points="297.25,-88.3179 302.055,-86.089 296.909,-84.8346 297.25,-88.3179"/>
</g>
<!-- ParentDtypeInfo -->
<g id="node20" class="node"><title>ParentDtypeInfo</title>
<g id="a_node20"><a xlink:href="../../api/astropy.utils.data_info.ParentDtypeInfo.html#astropy.utils.data_info.ParentDtypeInfo" xlink:title="Mixin that gets info.dtype from parent" target="_top">
<polygon fill="none" stroke="black" stroke-width="0.5" points="513.5,-56 424.5,-56 424.5,-37 513.5,-37 513.5,-56"/>
<text text-anchor="middle" x="469" y="-44" font-family="Vera Sans, DejaVu Sans, Liberation Sans, Arial, Helvetica, sans" font-size="10.00">ParentDtypeInfo</text>
</a>
</g>
</g>
<!-- MixinInfo&#45;&gt;ParentDtypeInfo -->
<g id="edge15" class="edge"><title>MixinInfo&#45;&gt;ParentDtypeInfo</title>
<path fill="none" stroke="black" stroke-width="0.5" d="M358.325,-46.5C375.76,-46.5 398.715,-46.5 419.116,-46.5"/>
<polygon fill="black" stroke="black" stroke-width="0.5" points="419.243,-48.2501 424.243,-46.5 419.243,-44.7501 419.243,-48.2501"/>
</g>
<!-- QuantityInfoBase -->
<g id="node25" class="node"><title>QuantityInfoBase</title>
<g id="a_node25"><a xlink:href="../../api/astropy.units.quantity.QuantityInfoBase.html#astropy.units.quantity.QuantityInfoBase" xlink:title="QuantityInfoBase" target="_top">
<polygon fill="none" stroke="black" stroke-width="0.5" points="646,-56 553,-56 553,-37 646,-37 646,-56"/>
<text text-anchor="middle" x="599.5" y="-44" font-family="Vera Sans, DejaVu Sans, Liberation Sans, Arial, Helvetica, sans" font-size="10.00">QuantityInfoBase</text>
</a>
</g>
</g>
<!-- ParentDtypeInfo&#45;&gt;QuantityInfoBase -->
<g id="edge19" class="edge"><title>ParentDtypeInfo&#45;&gt;QuantityInfoBase</title>
<path fill="none" stroke="black" stroke-width="0.5" d="M513.504,-46.5C524.491,-46.5 536.384,-46.5 547.695,-46.5"/>
<polygon fill="black" stroke="black" stroke-width="0.5" points="547.845,-48.2501 552.845,-46.5 547.845,-44.7501 547.845,-48.2501"/>
</g>
<!-- PrefixUnit -->
<g id="node21" class="node"><title>PrefixUnit</title>
<g id="a_node21"><a xlink:href="../../api/astropy.units.PrefixUnit.html#astropy.units.PrefixUnit" xlink:title="A unit that is simply a SI&#45;prefixed version of another unit." target="_top">
<polygon fill="none" stroke="black" stroke-width="0.5" points="499,-93 439,-93 439,-74 499,-74 499,-93"/>
<text text-anchor="middle" x="469" y="-81" font-family="Vera Sans, DejaVu Sans, Liberation Sans, Arial, Helvetica, sans" font-size="10.00">PrefixUnit</text>
</a>
</g>
</g>
<!-- Unit&#45;&gt;PrefixUnit -->
<g id="edge16" class="edge"><title>Unit&#45;&gt;PrefixUnit</title>
<path fill="none" stroke="black" stroke-width="0.5" d="M356.686,-83.5C378.418,-83.5 409.505,-83.5 433.306,-83.5"/>
<polygon fill="black" stroke="black" stroke-width="0.5" points="433.574,-85.2501 438.574,-83.5 433.574,-81.7501 433.574,-85.2501"/>
</g>
<!-- ndarray -->
<g id="node23" class="node"><title>ndarray</title>
<g id="a_node23"><a xlink:title="ndarray(shape, dtype=float, buffer=None, offset=0,">
<polygon fill="none" stroke="black" stroke-width="0.5" points="74.5,-199 20.5,-199 20.5,-180 74.5,-180 74.5,-199"/>
<text text-anchor="middle" x="47.5" y="-187" font-family="Vera Sans, DejaVu Sans, Liberation Sans, Arial, Helvetica, sans" font-size="10.00">ndarray</text>
</a>
</g>
</g>
<!-- ndarray&#45;&gt;Quantity -->
<g id="edge17" class="edge"><title>ndarray&#45;&gt;Quantity</title>
<path fill="none" stroke="black" stroke-width="0.5" d="M74.5294,-189.5C96.6115,-189.5 128.361,-189.5 151.898,-189.5"/>
<polygon fill="black" stroke="black" stroke-width="0.5" points="152.09,-191.25 157.09,-189.5 152.09,-187.75 152.09,-191.25"/>
</g>
<!-- QuantityInfo -->
<g id="node24" class="node"><title>QuantityInfo</title>
<g id="a_node24"><a xlink:href="../../api/astropy.units.quantity.QuantityInfo.html#astropy.units.quantity.QuantityInfo" xlink:title="Container for meta information like name, description, format. &#160;This is" target="_top">
<polygon fill="none" stroke="black" stroke-width="0.5" points="752,-56 682,-56 682,-37 752,-37 752,-56"/>
<text text-anchor="middle" x="717" y="-44" font-family="Vera Sans, DejaVu Sans, Liberation Sans, Arial, Helvetica, sans" font-size="10.00">QuantityInfo</text>
</a>
</g>
</g>
<!-- QuantityInfoBase&#45;&gt;QuantityInfo -->
<g id="edge18" class="edge"><title>QuantityInfoBase&#45;&gt;QuantityInfo</title>
<path fill="none" stroke="black" stroke-width="0.5" d="M646.149,-46.5C656.243,-46.5 666.855,-46.5 676.672,-46.5"/>
<polygon fill="black" stroke="black" stroke-width="0.5" points="676.727,-48.2501 681.727,-46.5 676.727,-44.7501 676.727,-48.2501"/>
</g>
<!-- UnitConversionError -->
<g id="node27" class="node"><title>UnitConversionError</title>
<g id="a_node27"><a xlink:href="../../api/astropy.units.UnitConversionError.html#astropy.units.UnitConversionError" xlink:title="Used specifically for errors related to converting between units or" target="_top">
<polygon fill="none" stroke="black" stroke-width="0.5" points="238,-361 131,-361 131,-342 238,-342 238,-361"/>
<text text-anchor="middle" x="184.5" y="-349" font-family="Vera Sans, DejaVu Sans, Liberation Sans, Arial, Helvetica, sans" font-size="10.00">UnitConversionError</text>
</a>
</g>
</g>
<!-- UnitsError -->
<g id="node28" class="node"><title>UnitsError</title>
<g id="a_node28"><a xlink:href="../../api/astropy.units.UnitsError.html#astropy.units.UnitsError" xlink:title="The base class for unit&#45;specific exceptions." target="_top">
<polygon fill="none" stroke="black" stroke-width="0.5" points="78.5,-342 16.5,-342 16.5,-323 78.5,-323 78.5,-342"/>
<text text-anchor="middle" x="47.5" y="-330" font-family="Vera Sans, DejaVu Sans, Liberation Sans, Arial, Helvetica, sans" font-size="10.00">UnitsError</text>
</a>
</g>
</g>
<!-- UnitsError&#45;&gt;UnitConversionError -->
<g id="edge22" class="edge"><title>UnitsError&#45;&gt;UnitConversionError</title>
<path fill="none" stroke="black" stroke-width="0.5" d="M78.7966,-336.764C92.6755,-338.717 109.606,-341.1 125.773,-343.375"/>
<polygon fill="black" stroke="black" stroke-width="0.5" points="125.566,-345.113 130.761,-344.077 126.054,-341.648 125.566,-345.113"/>
</g>
<!-- UnitTypeError -->
<g id="node29" class="node"><title>UnitTypeError</title>
<g id="a_node29"><a xlink:href="../../api/astropy.units.UnitTypeError.html#astropy.units.UnitTypeError" xlink:title="Used specifically for errors in setting to units not allowed by a class." target="_top">
<polygon fill="none" stroke="black" stroke-width="0.5" points="224,-324 145,-324 145,-305 224,-305 224,-324"/>
<text text-anchor="middle" x="184.5" y="-312" font-family="Vera Sans, DejaVu Sans, Liberation Sans, Arial, Helvetica, sans" font-size="10.00">UnitTypeError</text>
</a>
</g>
</g>
<!-- UnitsError&#45;&gt;UnitTypeError -->
<g id="edge23" class="edge"><title>UnitsError&#45;&gt;UnitTypeError</title>
<path fill="none" stroke="black" stroke-width="0.5" d="M78.7966,-328.46C96.7848,-326.062 119.899,-322.98 139.832,-320.322"/>
<polygon fill="black" stroke="black" stroke-width="0.5" points="140.102,-322.052 144.826,-319.656 139.639,-318.583 140.102,-322.052"/>
</g>
</g>
</svg>
