<?xml version="1.0" encoding="UTF-8" standalone="no"?>
<!DOCTYPE svg PUBLIC "-//W3C//DTD SVG 1.1//EN"
 "http://www.w3.org/Graphics/SVG/1.1/DTD/svg11.dtd">
<!-- Generated by graphviz version 2.38.0 (20140413.2041)
 -->
<!-- Title: inheritanced589b70bf6 Pages: 1 -->
<svg width="491pt" height="175pt"
 viewBox="0.00 0.00 491.00 175.00" xmlns="http://www.w3.org/2000/svg" xmlns:xlink="http://www.w3.org/1999/xlink">
<g id="graph0" class="graph" transform="scale(1 1) rotate(0) translate(4 171)">
<title>inheritanced589b70bf6</title>
<polygon fill="white" stroke="none" points="-4,4 -4,-171 487,-171 487,4 -4,4"/>
<!-- BrokenPowerLaw1D -->
<g id="node1" class="node"><title>BrokenPowerLaw1D</title>
<g id="a_node1"><a xlink:href="../../api/astropy.modeling.powerlaws.BrokenPowerLaw1D.html#astropy.modeling.powerlaws.BrokenPowerLaw1D" xlink:title="One dimensional power law model with a break." target="_top">
<polygon fill="none" stroke="black" stroke-width="0.5" points="459.5,-167 351.5,-167 351.5,-148 459.5,-148 459.5,-167"/>
<text text-anchor="middle" x="405.5" y="-155" font-family="Vera Sans, DejaVu Sans, Liberation Sans, Arial, Helvetica, sans" font-size="10.00">BrokenPowerLaw1D</text>
</a>
</g>
</g>
<!-- Fittable1DModel -->
<g id="node2" class="node"><title>Fittable1DModel</title>
<g id="a_node2"><a xlink:href="../../api/astropy.modeling.Fittable1DModel.html#astropy.modeling.Fittable1DModel" xlink:title="Base class for one&#45;dimensional fittable models." target="_top">
<polygon fill="none" stroke="black" stroke-width="0.5" points="292,-93 203,-93 203,-74 292,-74 292,-93"/>
<text text-anchor="middle" x="247.5" y="-81" font-family="Vera Sans, DejaVu Sans, Liberation Sans, Arial, Helvetica, sans" font-size="10.00">Fittable1DModel</text>
</a>
</g>
</g>
<!-- Fittable1DModel&#45;&gt;BrokenPowerLaw1D -->
<g id="edge1" class="edge"><title>Fittable1DModel&#45;&gt;BrokenPowerLaw1D</title>
<path fill="none" stroke="black" stroke-width="0.5" d="M259.247,-93.1337C273.797,-105.667 301.052,-127.389 328,-139.5 333.95,-142.174 340.346,-144.477 346.814,-146.455"/>
<polygon fill="black" stroke="black" stroke-width="0.5" points="346.478,-148.18 351.768,-147.904 347.461,-144.821 346.478,-148.18"/>
</g>
<!-- ExponentialCutoffPowerLaw1D -->
<g id="node3" class="node"><title>ExponentialCutoffPowerLaw1D</title>
<g id="a_node3"><a xlink:href="../../api/astropy.modeling.powerlaws.ExponentialCutoffPowerLaw1D.html#astropy.modeling.powerlaws.ExponentialCutoffPowerLaw1D" xlink:title="One dimensional power law model with an exponential cutoff." target="_top">
<polygon fill="none" stroke="black" stroke-width="0.5" points="483,-130 328,-130 328,-111 483,-111 483,-130"/>
<text text-anchor="middle" x="405.5" y="-118" font-family="Vera Sans, DejaVu Sans, Liberation Sans, Arial, Helvetica, sans" font-size="10.00">ExponentialCutoffPowerLaw1D</text>
</a>
</g>
</g>
<!-- Fittable1DModel&#45;&gt;ExponentialCutoffPowerLaw1D -->
<g id="edge2" class="edge"><title>Fittable1DModel&#45;&gt;ExponentialCutoffPowerLaw1D</title>
<path fill="none" stroke="black" stroke-width="0.5" d="M288.529,-93.0957C301.156,-96.1146 315.159,-99.4548 328,-102.5 338.04,-104.881 348.824,-107.426 359.036,-109.83"/>
<polygon fill="black" stroke="black" stroke-width="0.5" points="358.73,-111.556 363.998,-110.998 359.532,-108.149 358.73,-111.556"/>
</g>
<!-- LogParabola1D -->
<g id="node6" class="node"><title>LogParabola1D</title>
<g id="a_node6"><a xlink:href="../../api/astropy.modeling.powerlaws.LogParabola1D.html#astropy.modeling.powerlaws.LogParabola1D" xlink:title="One dimensional log parabola model (sometimes called curved power law)." target="_top">
<polygon fill="none" stroke="black" stroke-width="0.5" points="448.5,-93 362.5,-93 362.5,-74 448.5,-74 448.5,-93"/>
<text text-anchor="middle" x="405.5" y="-81" font-family="Vera Sans, DejaVu Sans, Liberation Sans, Arial, Helvetica, sans" font-size="10.00">LogParabola1D</text>
</a>
</g>
</g>
<!-- Fittable1DModel&#45;&gt;LogParabola1D -->
<g id="edge5" class="edge"><title>Fittable1DModel&#45;&gt;LogParabola1D</title>
<path fill="none" stroke="black" stroke-width="0.5" d="M292.37,-83.5C312.558,-83.5 336.546,-83.5 357.143,-83.5"/>
<polygon fill="black" stroke="black" stroke-width="0.5" points="357.303,-85.2501 362.303,-83.5 357.303,-81.7501 357.303,-85.2501"/>
</g>
<!-- PowerLaw1D -->
<g id="node7" class="node"><title>PowerLaw1D</title>
<g id="a_node7"><a xlink:href="../../api/astropy.modeling.powerlaws.PowerLaw1D.html#astropy.modeling.powerlaws.PowerLaw1D" xlink:title="One dimensional power law model." target="_top">
<polygon fill="none" stroke="black" stroke-width="0.5" points="443.5,-56 367.5,-56 367.5,-37 443.5,-37 443.5,-56"/>
<text text-anchor="middle" x="405.5" y="-44" font-family="Vera Sans, DejaVu Sans, Liberation Sans, Arial, Helvetica, sans" font-size="10.00">PowerLaw1D</text>
</a>
</g>
</g>
<!-- Fittable1DModel&#45;&gt;PowerLaw1D -->
<g id="edge6" class="edge"><title>Fittable1DModel&#45;&gt;PowerLaw1D</title>
<path fill="none" stroke="black" stroke-width="0.5" d="M288.529,-73.9043C301.156,-70.8854 315.159,-67.5452 328,-64.5 339.052,-61.8791 351.006,-59.0592 362.106,-56.447"/>
<polygon fill="black" stroke="black" stroke-width="0.5" points="362.674,-58.1114 367.14,-55.2629 361.872,-54.7044 362.674,-58.1114"/>
</g>
<!-- SmoothlyBrokenPowerLaw1D -->
<g id="node8" class="node"><title>SmoothlyBrokenPowerLaw1D</title>
<g id="a_node8"><a xlink:href="../../api/astropy.modeling.powerlaws.SmoothlyBrokenPowerLaw1D.html#astropy.modeling.powerlaws.SmoothlyBrokenPowerLaw1D" xlink:title="One dimensional smoothly broken power law model." target="_top">
<polygon fill="none" stroke="black" stroke-width="0.5" points="480,-19 331,-19 331,-0 480,-0 480,-19"/>
<text text-anchor="middle" x="405.5" y="-7" font-family="Vera Sans, DejaVu Sans, Liberation Sans, Arial, Helvetica, sans" font-size="10.00">SmoothlyBrokenPowerLaw1D</text>
</a>
</g>
</g>
<!-- Fittable1DModel&#45;&gt;SmoothlyBrokenPowerLaw1D -->
<g id="edge7" class="edge"><title>Fittable1DModel&#45;&gt;SmoothlyBrokenPowerLaw1D</title>
<path fill="none" stroke="black" stroke-width="0.5" d="M259.247,-73.8663C273.797,-61.333 301.052,-39.6113 328,-27.5 333.95,-24.8258 340.346,-22.5226 346.814,-20.5451"/>
<polygon fill="black" stroke="black" stroke-width="0.5" points="347.461,-22.1795 351.768,-19.0957 346.478,-18.8203 347.461,-22.1795"/>
</g>
<!-- FittableModel -->
<g id="node4" class="node"><title>FittableModel</title>
<g id="a_node4"><a xlink:href="../../api/astropy.modeling.FittableModel.html#astropy.modeling.FittableModel" xlink:title="Base class for models that can be fitted using the built&#45;in fitting" target="_top">
<polygon fill="none" stroke="black" stroke-width="0.5" points="167,-93 90,-93 90,-74 167,-74 167,-93"/>
<text text-anchor="middle" x="128.5" y="-81" font-family="Vera Sans, DejaVu Sans, Liberation Sans, Arial, Helvetica, sans" font-size="10.00">FittableModel</text>
</a>
</g>
</g>
<!-- FittableModel&#45;&gt;Fittable1DModel -->
<g id="edge3" class="edge"><title>FittableModel&#45;&gt;Fittable1DModel</title>
<path fill="none" stroke="black" stroke-width="0.5" d="M167.164,-83.5C176.834,-83.5 187.379,-83.5 197.53,-83.5"/>
<polygon fill="black" stroke="black" stroke-width="0.5" points="197.796,-85.2501 202.796,-83.5 197.796,-81.7501 197.796,-85.2501"/>
</g>
<!-- Model -->
<g id="node5" class="node"><title>Model</title>
<g id="a_node5"><a xlink:href="../../api/astropy.modeling.Model.html#astropy.modeling.Model" xlink:title="Base class for all models." target="_top">
<polygon fill="none" stroke="black" stroke-width="0.5" points="54,-93 0,-93 0,-74 54,-74 54,-93"/>
<text text-anchor="middle" x="27" y="-81" font-family="Vera Sans, DejaVu Sans, Liberation Sans, Arial, Helvetica, sans" font-size="10.00">Model</text>
</a>
</g>
</g>
<!-- Model&#45;&gt;FittableModel -->
<g id="edge4" class="edge"><title>Model&#45;&gt;FittableModel</title>
<path fill="none" stroke="black" stroke-width="0.5" d="M54.1425,-83.5C63.5439,-83.5 74.4096,-83.5 84.8495,-83.5"/>
<polygon fill="black" stroke="black" stroke-width="0.5" points="84.9321,-85.2501 89.9321,-83.5 84.932,-81.7501 84.9321,-85.2501"/>
</g>
</g>
</svg>
