<?xml version="1.0" encoding="UTF-8" standalone="no"?>
<!DOCTYPE svg PUBLIC "-//W3C//DTD SVG 1.1//EN"
 "http://www.w3.org/Graphics/SVG/1.1/DTD/svg11.dtd">
<!-- Generated by graphviz version 2.38.0 (20140413.2041)
 -->
<!-- Title: inheritance3ac82faf9c Pages: 1 -->
<svg width="385pt" height="156pt"
 viewBox="0.00 0.00 385.00 156.00" xmlns="http://www.w3.org/2000/svg" xmlns:xlink="http://www.w3.org/1999/xlink">
<g id="graph0" class="graph" transform="scale(1 1) rotate(0) translate(4 152)">
<title>inheritance3ac82faf9c</title>
<polygon fill="white" stroke="none" points="-4,4 -4,-152 381,-152 381,4 -4,4"/>
<!-- Fittable1DModel -->
<g id="node1" class="node"><title>Fittable1DModel</title>
<g id="a_node1"><a xlink:href="../../api/astropy.modeling.Fittable1DModel.html#astropy.modeling.Fittable1DModel" xlink:title="Base class for one&#45;dimensional fittable models." target="_top">
<polygon fill="none" stroke="black" stroke-width="0.5" points="377,-56 288,-56 288,-37 377,-37 377,-56"/>
<text text-anchor="middle" x="332.5" y="-44" font-family="Vera Sans, DejaVu Sans, Liberation Sans, Arial, Helvetica, sans" font-size="10.00">Fittable1DModel</text>
</a>
</g>
</g>
<!-- FittableModel -->
<g id="node2" class="node"><title>FittableModel</title>
<g id="a_node2"><a xlink:href="../../api/astropy.modeling.FittableModel.html#astropy.modeling.FittableModel" xlink:title="Base class for models that can be fitted using the built&#45;in fitting" target="_top">
<polygon fill="none" stroke="black" stroke-width="0.5" points="236.5,-37 159.5,-37 159.5,-18 236.5,-18 236.5,-37"/>
<text text-anchor="middle" x="198" y="-25" font-family="Vera Sans, DejaVu Sans, Liberation Sans, Arial, Helvetica, sans" font-size="10.00">FittableModel</text>
</a>
</g>
</g>
<!-- FittableModel&#45;&gt;Fittable1DModel -->
<g id="edge1" class="edge"><title>FittableModel&#45;&gt;Fittable1DModel</title>
<path fill="none" stroke="black" stroke-width="0.5" d="M236.615,-32.8938C250.912,-34.944 267.414,-37.3102 282.605,-39.4886"/>
<polygon fill="black" stroke="black" stroke-width="0.5" points="282.504,-41.2419 287.701,-40.2194 283,-37.7774 282.504,-41.2419"/>
</g>
<!-- Fittable2DModel -->
<g id="node3" class="node"><title>Fittable2DModel</title>
<g id="a_node3"><a xlink:href="../../api/astropy.modeling.Fittable2DModel.html#astropy.modeling.Fittable2DModel" xlink:title="Base class for two&#45;dimensional fittable models." target="_top">
<polygon fill="none" stroke="black" stroke-width="0.5" points="377,-19 288,-19 288,-0 377,-0 377,-19"/>
<text text-anchor="middle" x="332.5" y="-7" font-family="Vera Sans, DejaVu Sans, Liberation Sans, Arial, Helvetica, sans" font-size="10.00">Fittable2DModel</text>
</a>
</g>
</g>
<!-- FittableModel&#45;&gt;Fittable2DModel -->
<g id="edge2" class="edge"><title>FittableModel&#45;&gt;Fittable2DModel</title>
<path fill="none" stroke="black" stroke-width="0.5" d="M236.615,-22.3901C250.912,-20.4477 267.414,-18.2061 282.605,-16.1424"/>
<polygon fill="black" stroke="black" stroke-width="0.5" points="282.982,-17.8572 287.701,-15.45 282.511,-14.3891 282.982,-17.8572"/>
</g>
<!-- Model -->
<g id="node4" class="node"><title>Model</title>
<g id="a_node4"><a xlink:href="../../api/astropy.modeling.Model.html#astropy.modeling.Model" xlink:title="Base class for all models." target="_top">
<polygon fill="none" stroke="black" stroke-width="0.5" points="81,-37 27,-37 27,-18 81,-18 81,-37"/>
<text text-anchor="middle" x="54" y="-25" font-family="Vera Sans, DejaVu Sans, Liberation Sans, Arial, Helvetica, sans" font-size="10.00">Model</text>
</a>
</g>
</g>
<!-- Model&#45;&gt;FittableModel -->
<g id="edge3" class="edge"><title>Model&#45;&gt;FittableModel</title>
<path fill="none" stroke="black" stroke-width="0.5" d="M81.045,-27.5C101.526,-27.5 130.487,-27.5 154.341,-27.5"/>
<polygon fill="black" stroke="black" stroke-width="0.5" points="154.349,-29.2501 159.348,-27.5 154.348,-25.7501 154.349,-29.2501"/>
</g>
<!-- InputParameterError -->
<g id="node5" class="node"><title>InputParameterError</title>
<g id="a_node5"><a xlink:href="../../api/astropy.modeling.InputParameterError.html#astropy.modeling.InputParameterError" xlink:title="Used for incorrect input parameter values and definitions." target="_top">
<polygon fill="none" stroke="black" stroke-width="0.5" points="252,-74 144,-74 144,-55 252,-55 252,-74"/>
<text text-anchor="middle" x="198" y="-62" font-family="Vera Sans, DejaVu Sans, Liberation Sans, Arial, Helvetica, sans" font-size="10.00">InputParameterError</text>
</a>
</g>
</g>
<!-- ParameterError -->
<g id="node6" class="node"><title>ParameterError</title>
<g id="a_node6"><a xlink:href="../../api/astropy.modeling.ParameterError.html#astropy.modeling.ParameterError" xlink:title="Generic exception class for all exceptions pertaining to Parameters." target="_top">
<polygon fill="none" stroke="black" stroke-width="0.5" points="96.5,-74 11.5,-74 11.5,-55 96.5,-55 96.5,-74"/>
<text text-anchor="middle" x="54" y="-62" font-family="Vera Sans, DejaVu Sans, Liberation Sans, Arial, Helvetica, sans" font-size="10.00">ParameterError</text>
</a>
</g>
</g>
<!-- ParameterError&#45;&gt;InputParameterError -->
<g id="edge4" class="edge"><title>ParameterError&#45;&gt;InputParameterError</title>
<path fill="none" stroke="black" stroke-width="0.5" d="M96.8367,-64.5C109.952,-64.5 124.674,-64.5 138.711,-64.5"/>
<polygon fill="black" stroke="black" stroke-width="0.5" points="138.847,-66.2501 143.847,-64.5 138.847,-62.7501 138.847,-66.2501"/>
</g>
<!-- ModelDefinitionError -->
<g id="node7" class="node"><title>ModelDefinitionError</title>
<g id="a_node7"><a xlink:href="../../api/astropy.modeling.ModelDefinitionError.html#astropy.modeling.ModelDefinitionError" xlink:title="Used for incorrect models definitions" target="_top">
<polygon fill="none" stroke="black" stroke-width="0.5" points="108,-111 0,-111 0,-92 108,-92 108,-111"/>
<text text-anchor="middle" x="54" y="-99" font-family="Vera Sans, DejaVu Sans, Liberation Sans, Arial, Helvetica, sans" font-size="10.00">ModelDefinitionError</text>
</a>
</g>
</g>
<!-- OrderedDescriptor -->
<g id="node8" class="node"><title>OrderedDescriptor</title>
<g id="a_node8"><a xlink:href="../../api/astropy.utils.misc.OrderedDescriptor.html#astropy.utils.misc.OrderedDescriptor" xlink:title="Base class for descriptors whose order in the class body should be" target="_top">
<polygon fill="none" stroke="black" stroke-width="0.5" points="103.5,-148 4.5,-148 4.5,-129 103.5,-129 103.5,-148"/>
<text text-anchor="middle" x="54" y="-136" font-family="Vera Sans, DejaVu Sans, Liberation Sans, Arial, Helvetica, sans" font-size="10.00">OrderedDescriptor</text>
</a>
</g>
</g>
<!-- Parameter -->
<g id="node9" class="node"><title>Parameter</title>
<g id="a_node9"><a xlink:href="../../api/astropy.modeling.Parameter.html#astropy.modeling.Parameter" xlink:title="Wraps individual parameters." target="_top">
<polygon fill="none" stroke="black" stroke-width="0.5" points="229.5,-148 166.5,-148 166.5,-129 229.5,-129 229.5,-148"/>
<text text-anchor="middle" x="198" y="-136" font-family="Vera Sans, DejaVu Sans, Liberation Sans, Arial, Helvetica, sans" font-size="10.00">Parameter</text>
</a>
</g>
</g>
<!-- OrderedDescriptor&#45;&gt;Parameter -->
<g id="edge5" class="edge"><title>OrderedDescriptor&#45;&gt;Parameter</title>
<path fill="none" stroke="black" stroke-width="0.5" d="M103.868,-138.5C122.626,-138.5 143.674,-138.5 161.008,-138.5"/>
<polygon fill="black" stroke="black" stroke-width="0.5" points="161.262,-140.25 166.262,-138.5 161.262,-136.75 161.262,-140.25"/>
</g>
</g>
</svg>
