<?xml version="1.0" encoding="UTF-8" standalone="no"?>
<!DOCTYPE svg PUBLIC "-//W3C//DTD SVG 1.1//EN"
 "http://www.w3.org/Graphics/SVG/1.1/DTD/svg11.dtd">
<!-- Generated by graphviz version 2.38.0 (20140413.2041)
 -->
<!-- Title: inheritance032f40e8c0 Pages: 1 -->
<svg width="413pt" height="27pt"
 viewBox="0.00 0.00 413.00 27.00" xmlns="http://www.w3.org/2000/svg" xmlns:xlink="http://www.w3.org/1999/xlink">
<g id="graph0" class="graph" transform="scale(1 1) rotate(0) translate(4 23)">
<title>inheritance032f40e8c0</title>
<polygon fill="white" stroke="none" points="-4,4 -4,-23 409,-23 409,4 -4,4"/>
<!-- BlackBody1D -->
<g id="node1" class="node"><title>BlackBody1D</title>
<g id="a_node1"><a xlink:href="../../api/astropy.modeling.blackbody.BlackBody1D.html#astropy.modeling.blackbody.BlackBody1D" xlink:title="One dimensional blackbody model." target="_top">
<polygon fill="none" stroke="black" stroke-width="0.5" points="405,-19 328,-19 328,-0 405,-0 405,-19"/>
<text text-anchor="middle" x="366.5" y="-7" font-family="Vera Sans, DejaVu Sans, Liberation Sans, Arial, Helvetica, sans" font-size="10.00">BlackBody1D</text>
</a>
</g>
</g>
<!-- Fittable1DModel -->
<g id="node2" class="node"><title>Fittable1DModel</title>
<g id="a_node2"><a xlink:href="../../api/astropy.modeling.Fittable1DModel.html#astropy.modeling.Fittable1DModel" xlink:title="Base class for one&#45;dimensional fittable models." target="_top">
<polygon fill="none" stroke="black" stroke-width="0.5" points="292,-19 203,-19 203,-0 292,-0 292,-19"/>
<text text-anchor="middle" x="247.5" y="-7" font-family="Vera Sans, DejaVu Sans, Liberation Sans, Arial, Helvetica, sans" font-size="10.00">Fittable1DModel</text>
</a>
</g>
</g>
<!-- Fittable1DModel&#45;&gt;BlackBody1D -->
<g id="edge1" class="edge"><title>Fittable1DModel&#45;&gt;BlackBody1D</title>
<path fill="none" stroke="black" stroke-width="0.5" d="M292.066,-9.5C302.025,-9.5 312.603,-9.5 322.536,-9.5"/>
<polygon fill="black" stroke="black" stroke-width="0.5" points="322.665,-11.2501 327.665,-9.5 322.665,-7.7501 322.665,-11.2501"/>
</g>
<!-- FittableModel -->
<g id="node3" class="node"><title>FittableModel</title>
<g id="a_node3"><a xlink:href="../../api/astropy.modeling.FittableModel.html#astropy.modeling.FittableModel" xlink:title="Base class for models that can be fitted using the built&#45;in fitting" target="_top">
<polygon fill="none" stroke="black" stroke-width="0.5" points="167,-19 90,-19 90,-0 167,-0 167,-19"/>
<text text-anchor="middle" x="128.5" y="-7" font-family="Vera Sans, DejaVu Sans, Liberation Sans, Arial, Helvetica, sans" font-size="10.00">FittableModel</text>
</a>
</g>
</g>
<!-- FittableModel&#45;&gt;Fittable1DModel -->
<g id="edge2" class="edge"><title>FittableModel&#45;&gt;Fittable1DModel</title>
<path fill="none" stroke="black" stroke-width="0.5" d="M167.164,-9.5C176.834,-9.5 187.379,-9.5 197.53,-9.5"/>
<polygon fill="black" stroke="black" stroke-width="0.5" points="197.796,-11.2501 202.796,-9.5 197.796,-7.75009 197.796,-11.2501"/>
</g>
<!-- Model -->
<g id="node4" class="node"><title>Model</title>
<g id="a_node4"><a xlink:href="../../api/astropy.modeling.Model.html#astropy.modeling.Model" xlink:title="Base class for all models." target="_top">
<polygon fill="none" stroke="black" stroke-width="0.5" points="54,-19 0,-19 0,-0 54,-0 54,-19"/>
<text text-anchor="middle" x="27" y="-7" font-family="Vera Sans, DejaVu Sans, Liberation Sans, Arial, Helvetica, sans" font-size="10.00">Model</text>
</a>
</g>
</g>
<!-- Model&#45;&gt;FittableModel -->
<g id="edge3" class="edge"><title>Model&#45;&gt;FittableModel</title>
<path fill="none" stroke="black" stroke-width="0.5" d="M54.1425,-9.5C63.5439,-9.5 74.4096,-9.5 84.8495,-9.5"/>
<polygon fill="black" stroke="black" stroke-width="0.5" points="84.9321,-11.2501 89.9321,-9.5 84.932,-7.7501 84.9321,-11.2501"/>
</g>
</g>
</svg>
