<?xml version="1.0" encoding="UTF-8" standalone="no"?>
<!DOCTYPE svg PUBLIC "-//W3C//DTD SVG 1.1//EN"
 "http://www.w3.org/Graphics/SVG/1.1/DTD/svg11.dtd">
<!-- Generated by graphviz version 2.38.0 (20140413.2041)
 -->
<!-- Title: inheritancef2d95c1abd Pages: 1 -->
<svg width="356pt" height="27pt"
 viewBox="0.00 0.00 356.00 27.00" xmlns="http://www.w3.org/2000/svg" xmlns:xlink="http://www.w3.org/1999/xlink">
<g id="graph0" class="graph" transform="scale(1 1) rotate(0) translate(4 23)">
<title>inheritancef2d95c1abd</title>
<polygon fill="white" stroke="none" points="-4,4 -4,-23 352,-23 352,4 -4,4"/>
<!-- FittableModel -->
<g id="node1" class="node"><title>FittableModel</title>
<g id="a_node1"><a xlink:href="../../api/astropy.modeling.FittableModel.html#astropy.modeling.FittableModel" xlink:title="Base class for models that can be fitted using the built&#45;in fitting" target="_top">
<polygon fill="none" stroke="black" stroke-width="0.5" points="167,-19 90,-19 90,-0 167,-0 167,-19"/>
<text text-anchor="middle" x="128.5" y="-7" font-family="Vera Sans, DejaVu Sans, Liberation Sans, Arial, Helvetica, sans" font-size="10.00">FittableModel</text>
</a>
</g>
</g>
<!-- Mapping -->
<g id="node4" class="node"><title>Mapping</title>
<g id="a_node4"><a xlink:href="../../api/astropy.modeling.mappings.Mapping.html#astropy.modeling.mappings.Mapping" xlink:title="Allows inputs to be reordered, duplicated or dropped." target="_top">
<polygon fill="none" stroke="black" stroke-width="0.5" points="258,-19 203,-19 203,-0 258,-0 258,-19"/>
<text text-anchor="middle" x="230.5" y="-7" font-family="Vera Sans, DejaVu Sans, Liberation Sans, Arial, Helvetica, sans" font-size="10.00">Mapping</text>
</a>
</g>
</g>
<!-- FittableModel&#45;&gt;Mapping -->
<g id="edge3" class="edge"><title>FittableModel&#45;&gt;Mapping</title>
<path fill="none" stroke="black" stroke-width="0.5" d="M167.021,-9.5C177.028,-9.5 187.747,-9.5 197.432,-9.5"/>
<polygon fill="black" stroke="black" stroke-width="0.5" points="197.695,-11.2501 202.695,-9.5 197.695,-7.7501 197.695,-11.2501"/>
</g>
<!-- Model -->
<g id="node2" class="node"><title>Model</title>
<g id="a_node2"><a xlink:href="../../api/astropy.modeling.Model.html#astropy.modeling.Model" xlink:title="Base class for all models." target="_top">
<polygon fill="none" stroke="black" stroke-width="0.5" points="54,-19 0,-19 0,-0 54,-0 54,-19"/>
<text text-anchor="middle" x="27" y="-7" font-family="Vera Sans, DejaVu Sans, Liberation Sans, Arial, Helvetica, sans" font-size="10.00">Model</text>
</a>
</g>
</g>
<!-- Model&#45;&gt;FittableModel -->
<g id="edge1" class="edge"><title>Model&#45;&gt;FittableModel</title>
<path fill="none" stroke="black" stroke-width="0.5" d="M54.1425,-9.5C63.5439,-9.5 74.4096,-9.5 84.8495,-9.5"/>
<polygon fill="black" stroke="black" stroke-width="0.5" points="84.9321,-11.2501 89.9321,-9.5 84.932,-7.7501 84.9321,-11.2501"/>
</g>
<!-- Identity -->
<g id="node3" class="node"><title>Identity</title>
<g id="a_node3"><a xlink:href="../../api/astropy.modeling.mappings.Identity.html#astropy.modeling.mappings.Identity" xlink:title="Returns inputs unchanged." target="_top">
<polygon fill="none" stroke="black" stroke-width="0.5" points="348,-19 294,-19 294,-0 348,-0 348,-19"/>
<text text-anchor="middle" x="321" y="-7" font-family="Vera Sans, DejaVu Sans, Liberation Sans, Arial, Helvetica, sans" font-size="10.00">Identity</text>
</a>
</g>
</g>
<!-- Mapping&#45;&gt;Identity -->
<g id="edge2" class="edge"><title>Mapping&#45;&gt;Identity</title>
<path fill="none" stroke="black" stroke-width="0.5" d="M258.053,-9.5C267.678,-9.5 278.641,-9.5 288.641,-9.5"/>
<polygon fill="black" stroke="black" stroke-width="0.5" points="288.771,-11.2501 293.771,-9.5 288.771,-7.7501 288.771,-11.2501"/>
</g>
</g>
</svg>
