<?xml version="1.0" encoding="UTF-8" standalone="no"?>
<!DOCTYPE svg PUBLIC "-//W3C//DTD SVG 1.1//EN"
 "http://www.w3.org/Graphics/SVG/1.1/DTD/svg11.dtd">
<!-- Generated by graphviz version 2.38.0 (20140413.2041)
 -->
<!-- Title: inheritance170a9298af Pages: 1 -->
<svg width="576pt" height="53pt"
 viewBox="0.00 0.00 576.00 53.04" xmlns="http://www.w3.org/2000/svg" xmlns:xlink="http://www.w3.org/1999/xlink">
<g id="graph0" class="graph" transform="scale(0.828777 0.828777) rotate(0) translate(4 60)">
<title>inheritance170a9298af</title>
<polygon fill="white" stroke="none" points="-4,4 -4,-60 691,-60 691,4 -4,4"/>
<!-- BaseColumnInfo -->
<g id="node1" class="node"><title>BaseColumnInfo</title>
<g id="a_node1"><a xlink:href="../../api/astropy.utils.data_info.BaseColumnInfo.html#astropy.utils.data_info.BaseColumnInfo" xlink:title="Base info class for anything that can be a column in an astropy" target="_top">
<polygon fill="none" stroke="black" stroke-width="0.5" points="180,-19 90,-19 90,-0 180,-0 180,-19"/>
<text text-anchor="middle" x="135" y="-7" font-family="Vera Sans, DejaVu Sans, Liberation Sans, Arial, Helvetica, sans" font-size="10.00">BaseColumnInfo</text>
</a>
</g>
</g>
<!-- MixinInfo -->
<g id="node3" class="node"><title>MixinInfo</title>
<g id="a_node3"><a xlink:href="../../api/astropy.utils.data_info.MixinInfo.html#astropy.utils.data_info.MixinInfo" xlink:title="MixinInfo" target="_top">
<polygon fill="none" stroke="black" stroke-width="0.5" points="300,-19 243,-19 243,-0 300,-0 300,-19"/>
<text text-anchor="middle" x="271.5" y="-7" font-family="Vera Sans, DejaVu Sans, Liberation Sans, Arial, Helvetica, sans" font-size="10.00">MixinInfo</text>
</a>
</g>
</g>
<!-- BaseColumnInfo&#45;&gt;MixinInfo -->
<g id="edge2" class="edge"><title>BaseColumnInfo&#45;&gt;MixinInfo</title>
<path fill="none" stroke="black" stroke-width="0.5" d="M180.04,-9.5C198.787,-9.5 220.275,-9.5 237.604,-9.5"/>
<polygon fill="black" stroke="black" stroke-width="0.5" points="237.84,-11.2501 242.84,-9.5 237.84,-7.7501 237.84,-11.2501"/>
</g>
<!-- DataInfo -->
<g id="node2" class="node"><title>DataInfo</title>
<g id="a_node2"><a xlink:href="../../api/astropy.utils.data_info.DataInfo.html#astropy.utils.data_info.DataInfo" xlink:title="Descriptor that data classes use to add an ``info`` attribute for storing" target="_top">
<polygon fill="none" stroke="black" stroke-width="0.5" points="54,-19 0,-19 0,-0 54,-0 54,-19"/>
<text text-anchor="middle" x="27" y="-7" font-family="Vera Sans, DejaVu Sans, Liberation Sans, Arial, Helvetica, sans" font-size="10.00">DataInfo</text>
</a>
</g>
</g>
<!-- DataInfo&#45;&gt;BaseColumnInfo -->
<g id="edge1" class="edge"><title>DataInfo&#45;&gt;BaseColumnInfo</title>
<path fill="none" stroke="black" stroke-width="0.5" d="M54.2023,-9.5C63.4751,-9.5 74.233,-9.5 84.7895,-9.5"/>
<polygon fill="black" stroke="black" stroke-width="0.5" points="84.9482,-11.2501 89.9482,-9.5 84.9481,-7.7501 84.9482,-11.2501"/>
</g>
<!-- ParentDtypeInfo -->
<g id="node4" class="node"><title>ParentDtypeInfo</title>
<g id="a_node4"><a xlink:href="../../api/astropy.utils.data_info.ParentDtypeInfo.html#astropy.utils.data_info.ParentDtypeInfo" xlink:title="Mixin that gets info.dtype from parent" target="_top">
<polygon fill="none" stroke="black" stroke-width="0.5" points="452,-19 363,-19 363,-0 452,-0 452,-19"/>
<text text-anchor="middle" x="407.5" y="-7" font-family="Vera Sans, DejaVu Sans, Liberation Sans, Arial, Helvetica, sans" font-size="10.00">ParentDtypeInfo</text>
</a>
</g>
</g>
<!-- MixinInfo&#45;&gt;ParentDtypeInfo -->
<g id="edge3" class="edge"><title>MixinInfo&#45;&gt;ParentDtypeInfo</title>
<path fill="none" stroke="black" stroke-width="0.5" d="M300.265,-9.5C316.802,-9.5 338.262,-9.5 357.562,-9.5"/>
<polygon fill="black" stroke="black" stroke-width="0.5" points="357.942,-11.2501 362.942,-9.5 357.942,-7.75009 357.942,-11.2501"/>
</g>
<!-- QuantityInfoBase -->
<g id="node8" class="node"><title>QuantityInfoBase</title>
<g id="a_node8"><a xlink:href="../../api/astropy.units.quantity.QuantityInfoBase.html#astropy.units.quantity.QuantityInfoBase" xlink:title="QuantityInfoBase" target="_top">
<polygon fill="none" stroke="black" stroke-width="0.5" points="581,-19 488,-19 488,-0 581,-0 581,-19"/>
<text text-anchor="middle" x="534.5" y="-7" font-family="Vera Sans, DejaVu Sans, Liberation Sans, Arial, Helvetica, sans" font-size="10.00">QuantityInfoBase</text>
</a>
</g>
</g>
<!-- ParentDtypeInfo&#45;&gt;QuantityInfoBase -->
<g id="edge6" class="edge"><title>ParentDtypeInfo&#45;&gt;QuantityInfoBase</title>
<path fill="none" stroke="black" stroke-width="0.5" d="M452.219,-9.5C462.051,-9.5 472.567,-9.5 482.662,-9.5"/>
<polygon fill="black" stroke="black" stroke-width="0.5" points="482.897,-11.2501 487.897,-9.5 482.897,-7.7501 482.897,-11.2501"/>
</g>
<!-- Quantity -->
<g id="node5" class="node"><title>Quantity</title>
<g id="a_node5"><a xlink:href="../../api/astropy.units.quantity.Quantity.html#astropy.units.quantity.Quantity" xlink:title="A `~astropy.units.Quantity` represents a number with some associated unit." target="_top">
<polygon fill="none" stroke="black" stroke-width="0.5" points="162,-56 108,-56 108,-37 162,-37 162,-56"/>
<text text-anchor="middle" x="135" y="-44" font-family="Vera Sans, DejaVu Sans, Liberation Sans, Arial, Helvetica, sans" font-size="10.00">Quantity</text>
</a>
</g>
</g>
<!-- SpecificTypeQuantity -->
<g id="node9" class="node"><title>SpecificTypeQuantity</title>
<g id="a_node9"><a xlink:href="../../api/astropy.units.quantity.SpecificTypeQuantity.html#astropy.units.quantity.SpecificTypeQuantity" xlink:title="Superclass for Quantities of specific physical type." target="_top">
<polygon fill="none" stroke="black" stroke-width="0.5" points="327,-56 216,-56 216,-37 327,-37 327,-56"/>
<text text-anchor="middle" x="271.5" y="-44" font-family="Vera Sans, DejaVu Sans, Liberation Sans, Arial, Helvetica, sans" font-size="10.00">SpecificTypeQuantity</text>
</a>
</g>
</g>
<!-- Quantity&#45;&gt;SpecificTypeQuantity -->
<g id="edge7" class="edge"><title>Quantity&#45;&gt;SpecificTypeQuantity</title>
<path fill="none" stroke="black" stroke-width="0.5" d="M162.252,-46.5C176.109,-46.5 193.72,-46.5 210.691,-46.5"/>
<polygon fill="black" stroke="black" stroke-width="0.5" points="210.933,-48.2501 215.933,-46.5 210.933,-44.7501 210.933,-48.2501"/>
</g>
<!-- ndarray -->
<g id="node6" class="node"><title>ndarray</title>
<g id="a_node6"><a xlink:title="ndarray(shape, dtype=float, buffer=None, offset=0,">
<polygon fill="none" stroke="black" stroke-width="0.5" points="54,-56 0,-56 0,-37 54,-37 54,-56"/>
<text text-anchor="middle" x="27" y="-44" font-family="Vera Sans, DejaVu Sans, Liberation Sans, Arial, Helvetica, sans" font-size="10.00">ndarray</text>
</a>
</g>
</g>
<!-- ndarray&#45;&gt;Quantity -->
<g id="edge4" class="edge"><title>ndarray&#45;&gt;Quantity</title>
<path fill="none" stroke="black" stroke-width="0.5" d="M54.2023,-46.5C68.8539,-46.5 87.2133,-46.5 102.627,-46.5"/>
<polygon fill="black" stroke="black" stroke-width="0.5" points="102.732,-48.2501 107.732,-46.5 102.732,-44.7501 102.732,-48.2501"/>
</g>
<!-- QuantityInfo -->
<g id="node7" class="node"><title>QuantityInfo</title>
<g id="a_node7"><a xlink:href="../../api/astropy.units.quantity.QuantityInfo.html#astropy.units.quantity.QuantityInfo" xlink:title="Container for meta information like name, description, format. &#160;This is" target="_top">
<polygon fill="none" stroke="black" stroke-width="0.5" points="687,-19 617,-19 617,-0 687,-0 687,-19"/>
<text text-anchor="middle" x="652" y="-7" font-family="Vera Sans, DejaVu Sans, Liberation Sans, Arial, Helvetica, sans" font-size="10.00">QuantityInfo</text>
</a>
</g>
</g>
<!-- QuantityInfoBase&#45;&gt;QuantityInfo -->
<g id="edge5" class="edge"><title>QuantityInfoBase&#45;&gt;QuantityInfo</title>
<path fill="none" stroke="black" stroke-width="0.5" d="M581.149,-9.5C591.243,-9.5 601.855,-9.5 611.672,-9.5"/>
<polygon fill="black" stroke="black" stroke-width="0.5" points="611.727,-11.2501 616.727,-9.5 611.727,-7.7501 611.727,-11.2501"/>
</g>
</g>
</svg>
