<?xml version="1.0" encoding="UTF-8" standalone="no"?>
<!DOCTYPE svg PUBLIC "-//W3C//DTD SVG 1.1//EN"
 "http://www.w3.org/Graphics/SVG/1.1/DTD/svg11.dtd">
<!-- Generated by graphviz version 2.38.0 (20140413.2041)
 -->
<!-- Title: inheritancee22c1eee01 Pages: 1 -->
<svg width="205pt" height="64pt"
 viewBox="0.00 0.00 205.00 64.00" xmlns="http://www.w3.org/2000/svg" xmlns:xlink="http://www.w3.org/1999/xlink">
<g id="graph0" class="graph" transform="scale(1 1) rotate(0) translate(4 60)">
<title>inheritancee22c1eee01</title>
<polygon fill="white" stroke="none" points="-4,4 -4,-60 201,-60 201,4 -4,4"/>
<!-- TestRunner -->
<g id="node1" class="node"><title>TestRunner</title>
<g id="a_node1"><a xlink:href="../api/astropy.tests.runner.TestRunner.html#astropy.tests.runner.TestRunner" xlink:title="A test runner for astropy tests" target="_top">
<polygon fill="none" stroke="black" stroke-width="0.5" points="197,-19 128,-19 128,-0 197,-0 197,-19"/>
<text text-anchor="middle" x="162.5" y="-7" font-family="Vera Sans, DejaVu Sans, Liberation Sans, Arial, Helvetica, sans" font-size="10.00">TestRunner</text>
</a>
</g>
</g>
<!-- TestRunnerBase -->
<g id="node2" class="node"><title>TestRunnerBase</title>
<g id="a_node2"><a xlink:href="../api/astropy.tests.runner.TestRunnerBase.html#astropy.tests.runner.TestRunnerBase" xlink:title="The base class for the TestRunner." target="_top">
<polygon fill="none" stroke="black" stroke-width="0.5" points="92,-19 0,-19 0,-0 92,-0 92,-19"/>
<text text-anchor="middle" x="46" y="-7" font-family="Vera Sans, DejaVu Sans, Liberation Sans, Arial, Helvetica, sans" font-size="10.00">TestRunnerBase</text>
</a>
</g>
</g>
<!-- TestRunnerBase&#45;&gt;TestRunner -->
<g id="edge1" class="edge"><title>TestRunnerBase&#45;&gt;TestRunner</title>
<path fill="none" stroke="black" stroke-width="0.5" d="M92.2534,-9.5C102.367,-9.5 113.004,-9.5 122.823,-9.5"/>
<polygon fill="black" stroke="black" stroke-width="0.5" points="122.877,-11.2501 127.876,-9.5 122.876,-7.7501 122.877,-11.2501"/>
</g>
<!-- keyword -->
<g id="node3" class="node"><title>keyword</title>
<g id="a_node3"><a xlink:href="../api/astropy.tests.runner.keyword.html#astropy.tests.runner.keyword" xlink:title="A decorator to mark a method as keyword argument for the ``TestRunner``." target="_top">
<polygon fill="none" stroke="black" stroke-width="0.5" points="73,-56 19,-56 19,-37 73,-37 73,-56"/>
<text text-anchor="middle" x="46" y="-44" font-family="Vera Sans, DejaVu Sans, Liberation Sans, Arial, Helvetica, sans" font-size="10.00">keyword</text>
</a>
</g>
</g>
</g>
</svg>
