<?xml version="1.0" encoding="UTF-8" standalone="no"?>
<!DOCTYPE svg PUBLIC "-//W3C//DTD SVG 1.1//EN"
 "http://www.w3.org/Graphics/SVG/1.1/DTD/svg11.dtd">
<!-- Generated by graphviz version 2.38.0 (20140413.2041)
 -->
<!-- Title: inheritanceb66e59c842 Pages: 1 -->
<svg width="560pt" height="677pt"
 viewBox="0.00 0.00 560.00 677.00" xmlns="http://www.w3.org/2000/svg" xmlns:xlink="http://www.w3.org/1999/xlink">
<g id="graph0" class="graph" transform="scale(1 1) rotate(0) translate(4 673)">
<title>inheritanceb66e59c842</title>
<polygon fill="white" stroke="none" points="-4,4 -4,-673 556,-673 556,4 -4,4"/>
<!-- BST -->
<g id="node1" class="node"><title>BST</title>
<g id="a_node1"><a xlink:href="../../api/astropy.table.FastRBT.html#astropy.table.FastRBT" xlink:title="A basic binary search tree in pure Python, used" target="_top">
<polygon fill="none" stroke="black" stroke-width="0.5" points="86.5,-19 32.5,-19 32.5,-0 86.5,-0 86.5,-19"/>
<text text-anchor="middle" x="59.5" y="-7" font-family="Vera Sans, DejaVu Sans, Liberation Sans, Arial, Helvetica, sans" font-size="10.00">BST</text>
</a>
</g>
</g>
<!-- BaseColumn -->
<g id="node2" class="node"><title>BaseColumn</title>
<polygon fill="none" stroke="black" stroke-width="0.5" points="237,-75 163,-75 163,-56 237,-56 237,-75"/>
<text text-anchor="middle" x="200" y="-63" font-family="Vera Sans, DejaVu Sans, Liberation Sans, Arial, Helvetica, sans" font-size="10.00">BaseColumn</text>
</g>
<!-- Column -->
<g id="node8" class="node"><title>Column</title>
<g id="a_node8"><a xlink:href="../../api/astropy.table.Column.html#astropy.table.Column" xlink:title="Define a data column for use in a Table object." target="_top">
<polygon fill="none" stroke="black" stroke-width="0.5" points="382.5,-75 328.5,-75 328.5,-56 382.5,-56 382.5,-75"/>
<text text-anchor="middle" x="355.5" y="-63" font-family="Vera Sans, DejaVu Sans, Liberation Sans, Arial, Helvetica, sans" font-size="10.00">Column</text>
</a>
</g>
</g>
<!-- BaseColumn&#45;&gt;Column -->
<g id="edge4" class="edge"><title>BaseColumn&#45;&gt;Column</title>
<path fill="none" stroke="black" stroke-width="0.5" d="M237.377,-65.5C263.532,-65.5 298.432,-65.5 323.315,-65.5"/>
<polygon fill="black" stroke="black" stroke-width="0.5" points="323.466,-67.2501 328.466,-65.5 323.466,-63.7501 323.466,-67.2501"/>
</g>
<!-- _ColumnGetitemShim -->
<g id="node3" class="node"><title>_ColumnGetitemShim</title>
<polygon fill="none" stroke="black" stroke-width="0.5" points="116.5,-56 2.5,-56 2.5,-37 116.5,-37 116.5,-56"/>
<text text-anchor="middle" x="59.5" y="-44" font-family="Vera Sans, DejaVu Sans, Liberation Sans, Arial, Helvetica, sans" font-size="10.00">_ColumnGetitemShim</text>
</g>
<!-- _ColumnGetitemShim&#45;&gt;BaseColumn -->
<g id="edge1" class="edge"><title>_ColumnGetitemShim&#45;&gt;BaseColumn</title>
<path fill="none" stroke="black" stroke-width="0.5" d="M116.833,-54.228C130.585,-56.1146 145.042,-58.0978 157.929,-59.8657"/>
<polygon fill="black" stroke="black" stroke-width="0.5" points="157.781,-61.6117 162.972,-60.5576 158.257,-58.1442 157.781,-61.6117"/>
</g>
<!-- _MaskedColumnGetitemShim -->
<g id="node16" class="node"><title>_MaskedColumnGetitemShim</title>
<polygon fill="none" stroke="black" stroke-width="0.5" points="430,-38 281,-38 281,-19 430,-19 430,-38"/>
<text text-anchor="middle" x="355.5" y="-26" font-family="Vera Sans, DejaVu Sans, Liberation Sans, Arial, Helvetica, sans" font-size="10.00">_MaskedColumnGetitemShim</text>
</g>
<!-- _ColumnGetitemShim&#45;&gt;_MaskedColumnGetitemShim -->
<g id="edge16" class="edge"><title>_ColumnGetitemShim&#45;&gt;_MaskedColumnGetitemShim</title>
<path fill="none" stroke="black" stroke-width="0.5" d="M116.838,-43.0507C161.893,-40.2923 225.59,-36.3925 275.701,-33.3244"/>
<polygon fill="black" stroke="black" stroke-width="0.5" points="275.931,-35.0637 280.815,-33.0113 275.717,-31.5702 275.931,-35.0637"/>
</g>
<!-- ndarray -->
<g id="node4" class="node"><title>ndarray</title>
<g id="a_node4"><a xlink:title="ndarray(shape, dtype=float, buffer=None, offset=0,">
<polygon fill="none" stroke="black" stroke-width="0.5" points="86.5,-112 32.5,-112 32.5,-93 86.5,-93 86.5,-112"/>
<text text-anchor="middle" x="59.5" y="-100" font-family="Vera Sans, DejaVu Sans, Liberation Sans, Arial, Helvetica, sans" font-size="10.00">ndarray</text>
</a>
</g>
</g>
<!-- ndarray&#45;&gt;BaseColumn -->
<g id="edge2" class="edge"><title>ndarray&#45;&gt;BaseColumn</title>
<path fill="none" stroke="black" stroke-width="0.5" d="M86.5508,-95.5406C106.815,-90.127 135.296,-82.5183 158.524,-76.3131"/>
<polygon fill="black" stroke="black" stroke-width="0.5" points="159.017,-77.9928 163.396,-75.0115 158.114,-74.6114 159.017,-77.9928"/>
</g>
<!-- MaskedArray -->
<g id="node14" class="node"><title>MaskedArray</title>
<g id="a_node14"><a xlink:title="An array class with possibly masked values.">
<polygon fill="none" stroke="black" stroke-width="0.5" points="393,-131 318,-131 318,-112 393,-112 393,-131"/>
<text text-anchor="middle" x="355.5" y="-119" font-family="Vera Sans, DejaVu Sans, Liberation Sans, Arial, Helvetica, sans" font-size="10.00">MaskedArray</text>
</a>
</g>
</g>
<!-- ndarray&#45;&gt;MaskedArray -->
<g id="edge8" class="edge"><title>ndarray&#45;&gt;MaskedArray</title>
<path fill="none" stroke="black" stroke-width="0.5" d="M86.7898,-108.849C105.647,-113.073 131.727,-118.244 155,-120.5 209.273,-125.76 272.242,-124.929 312.686,-123.509"/>
<polygon fill="black" stroke="black" stroke-width="0.5" points="313.062,-125.246 317.994,-123.315 312.934,-121.749 313.062,-125.246"/>
</g>
<!-- NdarrayMixin -->
<g id="node17" class="node"><title>NdarrayMixin</title>
<g id="a_node17"><a xlink:href="../../api/astropy.table.NdarrayMixin.html#astropy.table.NdarrayMixin" xlink:title="Mixin column class to allow storage of arbitrary numpy" target="_top">
<polygon fill="none" stroke="black" stroke-width="0.5" points="237.5,-112 162.5,-112 162.5,-93 237.5,-93 237.5,-112"/>
<text text-anchor="middle" x="200" y="-100" font-family="Vera Sans, DejaVu Sans, Liberation Sans, Arial, Helvetica, sans" font-size="10.00">NdarrayMixin</text>
</a>
</g>
</g>
<!-- ndarray&#45;&gt;NdarrayMixin -->
<g id="edge12" class="edge"><title>ndarray&#45;&gt;NdarrayMixin</title>
<path fill="none" stroke="black" stroke-width="0.5" d="M86.5508,-102.5C106.439,-102.5 134.242,-102.5 157.225,-102.5"/>
<polygon fill="black" stroke="black" stroke-width="0.5" points="157.352,-104.25 162.352,-102.5 157.352,-100.75 157.352,-104.25"/>
</g>
<!-- BaseColumnInfo -->
<g id="node5" class="node"><title>BaseColumnInfo</title>
<g id="a_node5"><a xlink:href="../../api/astropy.utils.data_info.BaseColumnInfo.html#astropy.utils.data_info.BaseColumnInfo" xlink:title="Base info class for anything that can be a column in an astropy" target="_top">
<polygon fill="none" stroke="black" stroke-width="0.5" points="245,-188 155,-188 155,-169 245,-169 245,-188"/>
<text text-anchor="middle" x="200" y="-176" font-family="Vera Sans, DejaVu Sans, Liberation Sans, Arial, Helvetica, sans" font-size="10.00">BaseColumnInfo</text>
</a>
</g>
</g>
<!-- ColumnInfo -->
<g id="node10" class="node"><title>ColumnInfo</title>
<g id="a_node10"><a xlink:href="../../api/astropy.table.ColumnInfo.html#astropy.table.ColumnInfo" xlink:title="Container for meta information like name, description, format." target="_top">
<polygon fill="none" stroke="black" stroke-width="0.5" points="389.5,-188 321.5,-188 321.5,-169 389.5,-169 389.5,-188"/>
<text text-anchor="middle" x="355.5" y="-176" font-family="Vera Sans, DejaVu Sans, Liberation Sans, Arial, Helvetica, sans" font-size="10.00">ColumnInfo</text>
</a>
</g>
</g>
<!-- BaseColumnInfo&#45;&gt;ColumnInfo -->
<g id="edge6" class="edge"><title>BaseColumnInfo&#45;&gt;ColumnInfo</title>
<path fill="none" stroke="black" stroke-width="0.5" d="M245.399,-178.5C267.859,-178.5 294.844,-178.5 316.357,-178.5"/>
<polygon fill="black" stroke="black" stroke-width="0.5" points="316.42,-180.25 321.42,-178.5 316.42,-176.75 316.42,-180.25"/>
</g>
<!-- DataInfo -->
<g id="node6" class="node"><title>DataInfo</title>
<g id="a_node6"><a xlink:href="../../api/astropy.utils.data_info.DataInfo.html#astropy.utils.data_info.DataInfo" xlink:title="Descriptor that data classes use to add an ``info`` attribute for storing" target="_top">
<polygon fill="none" stroke="black" stroke-width="0.5" points="86.5,-188 32.5,-188 32.5,-169 86.5,-169 86.5,-188"/>
<text text-anchor="middle" x="59.5" y="-176" font-family="Vera Sans, DejaVu Sans, Liberation Sans, Arial, Helvetica, sans" font-size="10.00">DataInfo</text>
</a>
</g>
</g>
<!-- DataInfo&#45;&gt;BaseColumnInfo -->
<g id="edge3" class="edge"><title>DataInfo&#45;&gt;BaseColumnInfo</title>
<path fill="none" stroke="black" stroke-width="0.5" d="M86.5508,-178.5C104.324,-178.5 128.418,-178.5 149.745,-178.5"/>
<polygon fill="black" stroke="black" stroke-width="0.5" points="149.816,-180.25 154.816,-178.5 149.816,-176.75 149.816,-180.25"/>
</g>
<!-- BaseGroups -->
<g id="node7" class="node"><title>BaseGroups</title>
<g id="a_node7"><a xlink:title="A class to represent groups within a table of heterogeneous data.">
<polygon fill="none" stroke="black" stroke-width="0.5" points="95.5,-243 23.5,-243 23.5,-224 95.5,-224 95.5,-243"/>
<text text-anchor="middle" x="59.5" y="-231" font-family="Vera Sans, DejaVu Sans, Liberation Sans, Arial, Helvetica, sans" font-size="10.00">BaseGroups</text>
</a>
</g>
</g>
<!-- ColumnGroups -->
<g id="node9" class="node"><title>ColumnGroups</title>
<g id="a_node9"><a xlink:href="../../api/astropy.table.ColumnGroups.html#astropy.table.ColumnGroups" xlink:title="ColumnGroups" target="_top">
<polygon fill="none" stroke="black" stroke-width="0.5" points="242,-262 158,-262 158,-243 242,-243 242,-262"/>
<text text-anchor="middle" x="200" y="-250" font-family="Vera Sans, DejaVu Sans, Liberation Sans, Arial, Helvetica, sans" font-size="10.00">ColumnGroups</text>
</a>
</g>
</g>
<!-- BaseGroups&#45;&gt;ColumnGroups -->
<g id="edge5" class="edge"><title>BaseGroups&#45;&gt;ColumnGroups</title>
<path fill="none" stroke="black" stroke-width="0.5" d="M95.8078,-238.344C113.096,-240.715 134.135,-243.602 152.695,-246.148"/>
<polygon fill="black" stroke="black" stroke-width="0.5" points="152.667,-247.91 157.858,-246.856 153.143,-244.443 152.667,-247.91"/>
</g>
<!-- TableGroups -->
<g id="node27" class="node"><title>TableGroups</title>
<g id="a_node27"><a xlink:href="../../api/astropy.table.TableGroups.html#astropy.table.TableGroups" xlink:title="TableGroups" target="_top">
<polygon fill="none" stroke="black" stroke-width="0.5" points="237,-225 163,-225 163,-206 237,-206 237,-225"/>
<text text-anchor="middle" x="200" y="-213" font-family="Vera Sans, DejaVu Sans, Liberation Sans, Arial, Helvetica, sans" font-size="10.00">TableGroups</text>
</a>
</g>
</g>
<!-- BaseGroups&#45;&gt;TableGroups -->
<g id="edge15" class="edge"><title>BaseGroups&#45;&gt;TableGroups</title>
<path fill="none" stroke="black" stroke-width="0.5" d="M95.8078,-228.911C114.642,-226.464 137.926,-223.437 157.607,-220.88"/>
<polygon fill="black" stroke="black" stroke-width="0.5" points="158.059,-222.586 162.792,-220.206 157.608,-219.115 158.059,-222.586"/>
</g>
<!-- MaskedColumn -->
<g id="node15" class="node"><title>MaskedColumn</title>
<g id="a_node15"><a xlink:href="../../api/astropy.table.MaskedColumn.html#astropy.table.MaskedColumn" xlink:title="Define a masked data column for use in a Table object." target="_top">
<polygon fill="none" stroke="black" stroke-width="0.5" points="552,-75 466,-75 466,-56 552,-56 552,-75"/>
<text text-anchor="middle" x="509" y="-63" font-family="Vera Sans, DejaVu Sans, Liberation Sans, Arial, Helvetica, sans" font-size="10.00">MaskedColumn</text>
</a>
</g>
</g>
<!-- Column&#45;&gt;MaskedColumn -->
<g id="edge9" class="edge"><title>Column&#45;&gt;MaskedColumn</title>
<path fill="none" stroke="black" stroke-width="0.5" d="M382.544,-65.5C403.959,-65.5 434.863,-65.5 460.639,-65.5"/>
<polygon fill="black" stroke="black" stroke-width="0.5" points="460.722,-67.2501 465.722,-65.5 460.722,-63.7501 460.722,-67.2501"/>
</g>
<!-- Conf -->
<g id="node11" class="node"><title>Conf</title>
<g id="a_node11"><a xlink:href="../../api/astropy.table.Conf.html#astropy.table.Conf" xlink:title="Configuration parameters for `astropy.table`." target="_top">
<polygon fill="none" stroke="black" stroke-width="0.5" points="227,-299 173,-299 173,-280 227,-280 227,-299"/>
<text text-anchor="middle" x="200" y="-287" font-family="Vera Sans, DejaVu Sans, Liberation Sans, Arial, Helvetica, sans" font-size="10.00">Conf</text>
</a>
</g>
</g>
<!-- ConfigNamespace -->
<g id="node12" class="node"><title>ConfigNamespace</title>
<g id="a_node12"><a xlink:href="../../api/astropy.config.ConfigNamespace.html#astropy.config.ConfigNamespace" xlink:title="A namespace of configuration items. &#160;Each subpackage with" target="_top">
<polygon fill="none" stroke="black" stroke-width="0.5" points="109,-299 10,-299 10,-280 109,-280 109,-299"/>
<text text-anchor="middle" x="59.5" y="-287" font-family="Vera Sans, DejaVu Sans, Liberation Sans, Arial, Helvetica, sans" font-size="10.00">ConfigNamespace</text>
</a>
</g>
</g>
<!-- ConfigNamespace&#45;&gt;Conf -->
<g id="edge7" class="edge"><title>ConfigNamespace&#45;&gt;Conf</title>
<path fill="none" stroke="black" stroke-width="0.5" d="M109.33,-289.5C128.669,-289.5 150.341,-289.5 167.534,-289.5"/>
<polygon fill="black" stroke="black" stroke-width="0.5" points="167.719,-291.25 172.719,-289.5 167.719,-287.75 167.719,-291.25"/>
</g>
<!-- JSViewer -->
<g id="node13" class="node"><title>JSViewer</title>
<g id="a_node13"><a xlink:href="../../api/astropy.table.JSViewer.html#astropy.table.JSViewer" xlink:title="Provides an interactive HTML export of a Table." target="_top">
<polygon fill="none" stroke="black" stroke-width="0.5" points="89,-336 30,-336 30,-317 89,-317 89,-336"/>
<text text-anchor="middle" x="59.5" y="-324" font-family="Vera Sans, DejaVu Sans, Liberation Sans, Arial, Helvetica, sans" font-size="10.00">JSViewer</text>
</a>
</g>
</g>
<!-- MaskedArray&#45;&gt;MaskedColumn -->
<g id="edge11" class="edge"><title>MaskedArray&#45;&gt;MaskedColumn</title>
<path fill="none" stroke="black" stroke-width="0.5" d="M382.544,-111.873C408.936,-102.118 449.74,-87.0351 477.597,-76.7382"/>
<polygon fill="black" stroke="black" stroke-width="0.5" points="478.213,-78.3762 482.296,-75.0011 476.999,-75.0933 478.213,-78.3762"/>
</g>
<!-- _MaskedColumnGetitemShim&#45;&gt;MaskedColumn -->
<g id="edge10" class="edge"><title>_MaskedColumnGetitemShim&#45;&gt;MaskedColumn</title>
<path fill="none" stroke="black" stroke-width="0.5" d="M395.515,-38.0284C416.375,-43.1228 442.138,-49.4149 463.743,-54.6913"/>
<polygon fill="black" stroke="black" stroke-width="0.5" points="463.582,-56.4533 468.854,-55.9396 464.412,-53.0533 463.582,-56.4533"/>
</g>
<!-- OrderedDict -->
<g id="node18" class="node"><title>OrderedDict</title>
<g id="a_node18"><a xlink:title="Dictionary that remembers insertion order">
<polygon fill="none" stroke="black" stroke-width="0.5" points="94.5,-373 24.5,-373 24.5,-354 94.5,-354 94.5,-373"/>
<text text-anchor="middle" x="59.5" y="-361" font-family="Vera Sans, DejaVu Sans, Liberation Sans, Arial, Helvetica, sans" font-size="10.00">OrderedDict</text>
</a>
</g>
</g>
<!-- TableColumns -->
<g id="node25" class="node"><title>TableColumns</title>
<g id="a_node25"><a xlink:href="../../api/astropy.table.TableColumns.html#astropy.table.TableColumns" xlink:title="OrderedDict subclass for a set of columns." target="_top">
<polygon fill="none" stroke="black" stroke-width="0.5" points="240.5,-373 159.5,-373 159.5,-354 240.5,-354 240.5,-373"/>
<text text-anchor="middle" x="200" y="-361" font-family="Vera Sans, DejaVu Sans, Liberation Sans, Arial, Helvetica, sans" font-size="10.00">TableColumns</text>
</a>
</g>
</g>
<!-- OrderedDict&#45;&gt;TableColumns -->
<g id="edge14" class="edge"><title>OrderedDict&#45;&gt;TableColumns</title>
<path fill="none" stroke="black" stroke-width="0.5" d="M94.736,-363.5C112.602,-363.5 134.687,-363.5 153.926,-363.5"/>
<polygon fill="black" stroke="black" stroke-width="0.5" points="154.271,-365.25 159.271,-363.5 154.271,-361.75 154.271,-365.25"/>
</g>
<!-- QTable -->
<g id="node19" class="node"><title>QTable</title>
<g id="a_node19"><a xlink:href="../../api/astropy.table.QTable.html#astropy.table.QTable" xlink:title="A class to represent tables of heterogeneous data." target="_top">
<polygon fill="none" stroke="black" stroke-width="0.5" points="227,-410 173,-410 173,-391 227,-391 227,-410"/>
<text text-anchor="middle" x="200" y="-398" font-family="Vera Sans, DejaVu Sans, Liberation Sans, Arial, Helvetica, sans" font-size="10.00">QTable</text>
</a>
</g>
</g>
<!-- Table -->
<g id="node20" class="node"><title>Table</title>
<g id="a_node20"><a xlink:href="../../api/astropy.table.Table.html#astropy.table.Table" xlink:title="A class to represent tables of heterogeneous data." target="_top">
<polygon fill="none" stroke="black" stroke-width="0.5" points="86.5,-410 32.5,-410 32.5,-391 86.5,-391 86.5,-410"/>
<text text-anchor="middle" x="59.5" y="-398" font-family="Vera Sans, DejaVu Sans, Liberation Sans, Arial, Helvetica, sans" font-size="10.00">Table</text>
</a>
</g>
</g>
<!-- Table&#45;&gt;QTable -->
<g id="edge13" class="edge"><title>Table&#45;&gt;QTable</title>
<path fill="none" stroke="black" stroke-width="0.5" d="M86.5508,-400.5C109.522,-400.5 143.051,-400.5 167.519,-400.5"/>
<polygon fill="black" stroke="black" stroke-width="0.5" points="167.595,-402.25 172.595,-400.5 167.595,-398.75 167.595,-402.25"/>
</g>
<!-- Row -->
<g id="node21" class="node"><title>Row</title>
<g id="a_node21"><a xlink:href="../../api/astropy.table.Row.html#astropy.table.Row" xlink:title="A class to represent one row of a Table object." target="_top">
<polygon fill="none" stroke="black" stroke-width="0.5" points="86.5,-447 32.5,-447 32.5,-428 86.5,-428 86.5,-447"/>
<text text-anchor="middle" x="59.5" y="-435" font-family="Vera Sans, DejaVu Sans, Liberation Sans, Arial, Helvetica, sans" font-size="10.00">Row</text>
</a>
</g>
</g>
<!-- SerializedColumn -->
<g id="node22" class="node"><title>SerializedColumn</title>
<g id="a_node22"><a xlink:href="../../api/astropy.table.SerializedColumn.html#astropy.table.SerializedColumn" xlink:title="Subclass of dict that is a used in the representation to contain the name" target="_top">
<polygon fill="none" stroke="black" stroke-width="0.5" points="107,-484 12,-484 12,-465 107,-465 107,-484"/>
<text text-anchor="middle" x="59.5" y="-472" font-family="Vera Sans, DejaVu Sans, Liberation Sans, Arial, Helvetica, sans" font-size="10.00">SerializedColumn</text>
</a>
</g>
</g>
<!-- SortedArray -->
<g id="node23" class="node"><title>SortedArray</title>
<g id="a_node23"><a xlink:href="../../api/astropy.table.SortedArray.html#astropy.table.SortedArray" xlink:title="Implements a sorted array container using" target="_top">
<polygon fill="none" stroke="black" stroke-width="0.5" points="94.5,-521 24.5,-521 24.5,-502 94.5,-502 94.5,-521"/>
<text text-anchor="middle" x="59.5" y="-509" font-family="Vera Sans, DejaVu Sans, Liberation Sans, Arial, Helvetica, sans" font-size="10.00">SortedArray</text>
</a>
</g>
</g>
<!-- StringTruncateWarning -->
<g id="node24" class="node"><title>StringTruncateWarning</title>
<g id="a_node24"><a xlink:href="../../api/astropy.table.StringTruncateWarning.html#astropy.table.StringTruncateWarning" xlink:title="Warning class for when a string column is assigned a value" target="_top">
<polygon fill="none" stroke="black" stroke-width="0.5" points="119,-558 -7.10543e-15,-558 -7.10543e-15,-539 119,-539 119,-558"/>
<text text-anchor="middle" x="59.5" y="-546" font-family="Vera Sans, DejaVu Sans, Liberation Sans, Arial, Helvetica, sans" font-size="10.00">StringTruncateWarning</text>
</a>
</g>
</g>
<!-- TableFormatter -->
<g id="node26" class="node"><title>TableFormatter</title>
<g id="a_node26"><a xlink:href="../../api/astropy.table.TableFormatter.html#astropy.table.TableFormatter" xlink:title="TableFormatter" target="_top">
<polygon fill="none" stroke="black" stroke-width="0.5" points="102,-595 17,-595 17,-576 102,-576 102,-595"/>
<text text-anchor="middle" x="59.5" y="-583" font-family="Vera Sans, DejaVu Sans, Liberation Sans, Arial, Helvetica, sans" font-size="10.00">TableFormatter</text>
</a>
</g>
</g>
<!-- TableMergeError -->
<g id="node28" class="node"><title>TableMergeError</title>
<g id="a_node28"><a xlink:href="../../api/astropy.table.TableMergeError.html#astropy.table.TableMergeError" xlink:title="TableMergeError" target="_top">
<polygon fill="none" stroke="black" stroke-width="0.5" points="105.5,-632 13.5,-632 13.5,-613 105.5,-613 105.5,-632"/>
<text text-anchor="middle" x="59.5" y="-620" font-family="Vera Sans, DejaVu Sans, Liberation Sans, Arial, Helvetica, sans" font-size="10.00">TableMergeError</text>
</a>
</g>
</g>
<!-- TableReplaceWarning -->
<g id="node29" class="node"><title>TableReplaceWarning</title>
<g id="a_node29"><a xlink:href="../../api/astropy.table.TableReplaceWarning.html#astropy.table.TableReplaceWarning" xlink:title="Warning class for cases when a table column is replaced via the" target="_top">
<polygon fill="none" stroke="black" stroke-width="0.5" points="117,-669 2,-669 2,-650 117,-650 117,-669"/>
<text text-anchor="middle" x="59.5" y="-657" font-family="Vera Sans, DejaVu Sans, Liberation Sans, Arial, Helvetica, sans" font-size="10.00">TableReplaceWarning</text>
</a>
</g>
</g>
</g>
</svg>
