<?xml version="1.0" encoding="UTF-8" standalone="no"?>
<!DOCTYPE svg PUBLIC "-//W3C//DTD SVG 1.1//EN"
 "http://www.w3.org/Graphics/SVG/1.1/DTD/svg11.dtd">
<!-- Generated by graphviz version 2.38.0 (20140413.2041)
 -->
<!-- Title: inheritance8c1c643270 Pages: 1 -->
<svg width="565pt" height="864pt"
 viewBox="0.00 0.00 564.67 864.00" xmlns="http://www.w3.org/2000/svg" xmlns:xlink="http://www.w3.org/1999/xlink">
<g id="graph0" class="graph" transform="scale(0.944262 0.944262) rotate(0) translate(4 911)">
<title>inheritance8c1c643270</title>
<polygon fill="white" stroke="none" points="-4,4 -4,-911 594,-911 594,4 -4,4"/>
<!-- AiryDisk2D -->
<g id="node1" class="node"><title>AiryDisk2D</title>
<g id="a_node1"><a xlink:href="../../api/astropy.modeling.functional_models.AiryDisk2D.html#astropy.modeling.functional_models.AiryDisk2D" xlink:title="Two dimensional Airy disk model." target="_top">
<polygon fill="none" stroke="black" stroke-width="0.5" points="414.5,-907 348.5,-907 348.5,-888 414.5,-888 414.5,-907"/>
<text text-anchor="middle" x="381.5" y="-895" font-family="Vera Sans, DejaVu Sans, Liberation Sans, Arial, Helvetica, sans" font-size="10.00">AiryDisk2D</text>
</a>
</g>
</g>
<!-- Fittable2DModel -->
<g id="node2" class="node"><title>Fittable2DModel</title>
<g id="a_node2"><a xlink:href="../../api/astropy.modeling.Fittable2DModel.html#astropy.modeling.Fittable2DModel" xlink:title="Base class for two&#45;dimensional fittable models." target="_top">
<polygon fill="none" stroke="black" stroke-width="0.5" points="292,-703 203,-703 203,-684 292,-684 292,-703"/>
<text text-anchor="middle" x="247.5" y="-691" font-family="Vera Sans, DejaVu Sans, Liberation Sans, Arial, Helvetica, sans" font-size="10.00">Fittable2DModel</text>
</a>
</g>
</g>
<!-- Fittable2DModel&#45;&gt;AiryDisk2D -->
<g id="edge1" class="edge"><title>Fittable2DModel&#45;&gt;AiryDisk2D</title>
<path fill="none" stroke="black" stroke-width="0.5" d="M249.89,-703.081C254.766,-733.267 273.828,-827.414 328,-878.5 332.463,-882.708 337.927,-885.997 343.625,-888.564"/>
<polygon fill="black" stroke="black" stroke-width="0.5" points="343.16,-890.265 348.45,-890.554 344.495,-887.03 343.16,-890.265"/>
</g>
<!-- Box2D -->
<g id="node6" class="node"><title>Box2D</title>
<g id="a_node6"><a xlink:href="../../api/astropy.modeling.functional_models.Box2D.html#astropy.modeling.functional_models.Box2D" xlink:title="Two dimensional Box model." target="_top">
<polygon fill="none" stroke="black" stroke-width="0.5" points="408.5,-870 354.5,-870 354.5,-851 408.5,-851 408.5,-870"/>
<text text-anchor="middle" x="381.5" y="-858" font-family="Vera Sans, DejaVu Sans, Liberation Sans, Arial, Helvetica, sans" font-size="10.00">Box2D</text>
</a>
</g>
</g>
<!-- Fittable2DModel&#45;&gt;Box2D -->
<g id="edge4" class="edge"><title>Fittable2DModel&#45;&gt;Box2D</title>
<path fill="none" stroke="black" stroke-width="0.5" d="M251.102,-703.353C258.532,-729.624 282.314,-802.029 328,-841.5 334.196,-846.853 342.018,-850.742 349.72,-853.55"/>
<polygon fill="black" stroke="black" stroke-width="0.5" points="349.187,-855.217 354.484,-855.163 350.309,-851.902 349.187,-855.217"/>
</g>
<!-- Const2D -->
<g id="node8" class="node"><title>Const2D</title>
<g id="a_node8"><a xlink:href="../../api/astropy.modeling.functional_models.Const2D.html#astropy.modeling.functional_models.Const2D" xlink:title="Two dimensional Constant model." target="_top">
<polygon fill="none" stroke="black" stroke-width="0.5" points="409,-833 354,-833 354,-814 409,-814 409,-833"/>
<text text-anchor="middle" x="381.5" y="-821" font-family="Vera Sans, DejaVu Sans, Liberation Sans, Arial, Helvetica, sans" font-size="10.00">Const2D</text>
</a>
</g>
</g>
<!-- Fittable2DModel&#45;&gt;Const2D -->
<g id="edge6" class="edge"><title>Fittable2DModel&#45;&gt;Const2D</title>
<path fill="none" stroke="black" stroke-width="0.5" d="M252.823,-703.002C262.944,-724.228 290.21,-775.876 328,-804.5 334.152,-809.16 341.557,-812.76 348.839,-815.507"/>
<polygon fill="black" stroke="black" stroke-width="0.5" points="348.546,-817.26 353.844,-817.276 349.712,-813.96 348.546,-817.26"/>
</g>
<!-- Disk2D -->
<g id="node9" class="node"><title>Disk2D</title>
<g id="a_node9"><a xlink:href="../../api/astropy.modeling.functional_models.Disk2D.html#astropy.modeling.functional_models.Disk2D" xlink:title="Two dimensional radial symmetric Disk model." target="_top">
<polygon fill="none" stroke="black" stroke-width="0.5" points="408.5,-796 354.5,-796 354.5,-777 408.5,-777 408.5,-796"/>
<text text-anchor="middle" x="381.5" y="-784" font-family="Vera Sans, DejaVu Sans, Liberation Sans, Arial, Helvetica, sans" font-size="10.00">Disk2D</text>
</a>
</g>
</g>
<!-- Fittable2DModel&#45;&gt;Disk2D -->
<g id="edge7" class="edge"><title>Fittable2DModel&#45;&gt;Disk2D</title>
<path fill="none" stroke="black" stroke-width="0.5" d="M256.802,-703.476C270.276,-719.097 298.393,-749.412 328,-767.5 334.586,-771.524 342.154,-774.883 349.457,-777.601"/>
<polygon fill="black" stroke="black" stroke-width="0.5" points="349.157,-779.352 354.454,-779.381 350.331,-776.054 349.157,-779.352"/>
</g>
<!-- Ellipse2D -->
<g id="node10" class="node"><title>Ellipse2D</title>
<g id="a_node10"><a xlink:href="../../api/astropy.modeling.functional_models.Ellipse2D.html#astropy.modeling.functional_models.Ellipse2D" xlink:title="A 2D Ellipse model." target="_top">
<polygon fill="none" stroke="black" stroke-width="0.5" points="411,-759 352,-759 352,-740 411,-740 411,-759"/>
<text text-anchor="middle" x="381.5" y="-747" font-family="Vera Sans, DejaVu Sans, Liberation Sans, Arial, Helvetica, sans" font-size="10.00">Ellipse2D</text>
</a>
</g>
</g>
<!-- Fittable2DModel&#45;&gt;Ellipse2D -->
<g id="edge8" class="edge"><title>Fittable2DModel&#45;&gt;Ellipse2D</title>
<path fill="none" stroke="black" stroke-width="0.5" d="M267.889,-703.11C283.856,-710.881 307.173,-721.904 328,-730.5 334.355,-733.123 341.218,-735.75 347.82,-738.179"/>
<polygon fill="black" stroke="black" stroke-width="0.5" points="347.508,-739.928 352.805,-739.994 348.705,-736.639 347.508,-739.928"/>
</g>
<!-- Gaussian2D -->
<g id="node14" class="node"><title>Gaussian2D</title>
<g id="a_node14"><a xlink:href="../../api/astropy.modeling.functional_models.Gaussian2D.html#astropy.modeling.functional_models.Gaussian2D" xlink:title="Two dimensional Gaussian model." target="_top">
<polygon fill="none" stroke="black" stroke-width="0.5" points="417.5,-722 345.5,-722 345.5,-703 417.5,-703 417.5,-722"/>
<text text-anchor="middle" x="381.5" y="-710" font-family="Vera Sans, DejaVu Sans, Liberation Sans, Arial, Helvetica, sans" font-size="10.00">Gaussian2D</text>
</a>
</g>
</g>
<!-- Fittable2DModel&#45;&gt;Gaussian2D -->
<g id="edge13" class="edge"><title>Fittable2DModel&#45;&gt;Gaussian2D</title>
<path fill="none" stroke="black" stroke-width="0.5" d="M292.088,-699.774C307.605,-702.008 324.999,-704.511 340.226,-706.703"/>
<polygon fill="black" stroke="black" stroke-width="0.5" points="340.103,-708.453 345.301,-707.434 340.602,-704.989 340.103,-708.453"/>
</g>
<!-- MexicanHat2D -->
<g id="node19" class="node"><title>MexicanHat2D</title>
<g id="a_node19"><a xlink:href="../../api/astropy.modeling.functional_models.MexicanHat2D.html#astropy.modeling.functional_models.MexicanHat2D" xlink:title="Two dimensional symmetric Mexican Hat model." target="_top">
<polygon fill="none" stroke="black" stroke-width="0.5" points="422.5,-685 340.5,-685 340.5,-666 422.5,-666 422.5,-685"/>
<text text-anchor="middle" x="381.5" y="-673" font-family="Vera Sans, DejaVu Sans, Liberation Sans, Arial, Helvetica, sans" font-size="10.00">MexicanHat2D</text>
</a>
</g>
</g>
<!-- Fittable2DModel&#45;&gt;MexicanHat2D -->
<g id="edge18" class="edge"><title>Fittable2DModel&#45;&gt;MexicanHat2D</title>
<path fill="none" stroke="black" stroke-width="0.5" d="M292.088,-687.556C305.865,-685.677 321.121,-683.597 335.027,-681.701"/>
<polygon fill="black" stroke="black" stroke-width="0.5" points="335.367,-683.421 340.084,-681.011 334.894,-679.953 335.367,-683.421"/>
</g>
<!-- Moffat2D -->
<g id="node21" class="node"><title>Moffat2D</title>
<g id="a_node21"><a xlink:href="../../api/astropy.modeling.functional_models.Moffat2D.html#astropy.modeling.functional_models.Moffat2D" xlink:title="Two dimensional Moffat model." target="_top">
<polygon fill="none" stroke="black" stroke-width="0.5" points="410,-648 353,-648 353,-629 410,-629 410,-648"/>
<text text-anchor="middle" x="381.5" y="-636" font-family="Vera Sans, DejaVu Sans, Liberation Sans, Arial, Helvetica, sans" font-size="10.00">Moffat2D</text>
</a>
</g>
</g>
<!-- Fittable2DModel&#45;&gt;Moffat2D -->
<g id="edge20" class="edge"><title>Fittable2DModel&#45;&gt;Moffat2D</title>
<path fill="none" stroke="black" stroke-width="0.5" d="M267.528,-683.954C283.48,-676.119 306.96,-664.976 328,-656.5 334.339,-653.947 341.195,-651.426 347.795,-649.117"/>
<polygon fill="black" stroke="black" stroke-width="0.5" points="348.625,-650.682 352.779,-647.395 347.482,-647.374 348.625,-650.682"/>
</g>
<!-- Ring2D -->
<g id="node23" class="node"><title>Ring2D</title>
<g id="a_node23"><a xlink:href="../../api/astropy.modeling.functional_models.Ring2D.html#astropy.modeling.functional_models.Ring2D" xlink:title="Two dimensional radial symmetric Ring model." target="_top">
<polygon fill="none" stroke="black" stroke-width="0.5" points="408.5,-611 354.5,-611 354.5,-592 408.5,-592 408.5,-611"/>
<text text-anchor="middle" x="381.5" y="-599" font-family="Vera Sans, DejaVu Sans, Liberation Sans, Arial, Helvetica, sans" font-size="10.00">Ring2D</text>
</a>
</g>
</g>
<!-- Fittable2DModel&#45;&gt;Ring2D -->
<g id="edge22" class="edge"><title>Fittable2DModel&#45;&gt;Ring2D</title>
<path fill="none" stroke="black" stroke-width="0.5" d="M256.334,-683.971C269.581,-668.424 297.917,-637.53 328,-619.5 334.581,-615.556 342.147,-612.324 349.449,-609.743"/>
<polygon fill="black" stroke="black" stroke-width="0.5" points="350.267,-611.314 354.446,-608.059 349.149,-607.997 350.267,-611.314"/>
</g>
<!-- Sersic2D -->
<g id="node26" class="node"><title>Sersic2D</title>
<g id="a_node26"><a xlink:href="../../api/astropy.modeling.functional_models.Sersic2D.html#astropy.modeling.functional_models.Sersic2D" xlink:title="Two dimensional Sersic surface brightness profile." target="_top">
<polygon fill="none" stroke="black" stroke-width="0.5" points="410,-574 353,-574 353,-555 410,-555 410,-574"/>
<text text-anchor="middle" x="381.5" y="-562" font-family="Vera Sans, DejaVu Sans, Liberation Sans, Arial, Helvetica, sans" font-size="10.00">Sersic2D</text>
</a>
</g>
</g>
<!-- Fittable2DModel&#45;&gt;Sersic2D -->
<g id="edge25" class="edge"><title>Fittable2DModel&#45;&gt;Sersic2D</title>
<path fill="none" stroke="black" stroke-width="0.5" d="M252.789,-683.952C262.838,-662.632 289.969,-610.803 328,-582.5 333.904,-578.106 340.958,-574.732 347.95,-572.16"/>
<polygon fill="black" stroke="black" stroke-width="0.5" points="348.606,-573.785 352.766,-570.505 347.469,-570.475 348.606,-573.785"/>
</g>
<!-- TrapezoidDisk2D -->
<g id="node30" class="node"><title>TrapezoidDisk2D</title>
<g id="a_node30"><a xlink:href="../../api/astropy.modeling.functional_models.TrapezoidDisk2D.html#astropy.modeling.functional_models.TrapezoidDisk2D" xlink:title="Two dimensional circular Trapezoid model." target="_top">
<polygon fill="none" stroke="black" stroke-width="0.5" points="428,-537 335,-537 335,-518 428,-518 428,-537"/>
<text text-anchor="middle" x="381.5" y="-525" font-family="Vera Sans, DejaVu Sans, Liberation Sans, Arial, Helvetica, sans" font-size="10.00">TrapezoidDisk2D</text>
</a>
</g>
</g>
<!-- Fittable2DModel&#45;&gt;TrapezoidDisk2D -->
<g id="edge29" class="edge"><title>Fittable2DModel&#45;&gt;TrapezoidDisk2D</title>
<path fill="none" stroke="black" stroke-width="0.5" d="M250.96,-683.984C258.177,-657.93 281.759,-584.772 328,-545.5 330.777,-543.142 333.879,-541.087 337.15,-539.298"/>
<polygon fill="black" stroke="black" stroke-width="0.5" points="338.012,-540.824 341.699,-537.02 336.445,-537.694 338.012,-540.824"/>
</g>
<!-- BaseGaussian1D -->
<g id="node3" class="node"><title>BaseGaussian1D</title>
<g id="a_node3"><a xlink:href="../../api/astropy.modeling.functional_models.BaseGaussian1D.html#astropy.modeling.functional_models.BaseGaussian1D" xlink:title="Base class for 1D Gaussian models. Do not use this directly." target="_top">
<polygon fill="none" stroke="black" stroke-width="0.5" points="428.5,-500 334.5,-500 334.5,-481 428.5,-481 428.5,-500"/>
<text text-anchor="middle" x="381.5" y="-488" font-family="Vera Sans, DejaVu Sans, Liberation Sans, Arial, Helvetica, sans" font-size="10.00">BaseGaussian1D</text>
</a>
</g>
</g>
<!-- Gaussian1D -->
<g id="node13" class="node"><title>Gaussian1D</title>
<g id="a_node13"><a xlink:href="../../api/astropy.modeling.functional_models.Gaussian1D.html#astropy.modeling.functional_models.Gaussian1D" xlink:title="One dimensional Gaussian model." target="_top">
<polygon fill="none" stroke="black" stroke-width="0.5" points="566.5,-518 494.5,-518 494.5,-499 566.5,-499 566.5,-518"/>
<text text-anchor="middle" x="530.5" y="-506" font-family="Vera Sans, DejaVu Sans, Liberation Sans, Arial, Helvetica, sans" font-size="10.00">Gaussian1D</text>
</a>
</g>
</g>
<!-- BaseGaussian1D&#45;&gt;Gaussian1D -->
<g id="edge12" class="edge"><title>BaseGaussian1D&#45;&gt;Gaussian1D</title>
<path fill="none" stroke="black" stroke-width="0.5" d="M428.608,-496.146C448.003,-498.521 470.368,-501.259 489.104,-503.554"/>
<polygon fill="black" stroke="black" stroke-width="0.5" points="489.111,-505.317 494.287,-504.188 489.537,-501.843 489.111,-505.317"/>
</g>
<!-- GaussianAbsorption1D -->
<g id="node15" class="node"><title>GaussianAbsorption1D</title>
<g id="a_node15"><a xlink:href="../../api/astropy.modeling.functional_models.GaussianAbsorption1D.html#astropy.modeling.functional_models.GaussianAbsorption1D" xlink:title=".. deprecated:: 2.0" target="_top">
<polygon fill="none" stroke="black" stroke-width="0.5" points="590,-481 471,-481 471,-462 590,-462 590,-481"/>
<text text-anchor="middle" x="530.5" y="-469" font-family="Vera Sans, DejaVu Sans, Liberation Sans, Arial, Helvetica, sans" font-size="10.00">GaussianAbsorption1D</text>
</a>
</g>
</g>
<!-- BaseGaussian1D&#45;&gt;GaussianAbsorption1D -->
<g id="edge14" class="edge"><title>BaseGaussian1D&#45;&gt;GaussianAbsorption1D</title>
<path fill="none" stroke="black" stroke-width="0.5" d="M428.608,-484.54C440.427,-483.013 453.349,-481.343 465.88,-479.723"/>
<polygon fill="black" stroke="black" stroke-width="0.5" points="466.112,-481.458 470.846,-479.081 465.663,-477.987 466.112,-481.458"/>
</g>
<!-- Fittable1DModel -->
<g id="node4" class="node"><title>Fittable1DModel</title>
<g id="a_node4"><a xlink:href="../../api/astropy.modeling.Fittable1DModel.html#astropy.modeling.Fittable1DModel" xlink:title="Base class for one&#45;dimensional fittable models." target="_top">
<polygon fill="none" stroke="black" stroke-width="0.5" points="292,-278 203,-278 203,-259 292,-259 292,-278"/>
<text text-anchor="middle" x="247.5" y="-266" font-family="Vera Sans, DejaVu Sans, Liberation Sans, Arial, Helvetica, sans" font-size="10.00">Fittable1DModel</text>
</a>
</g>
</g>
<!-- Fittable1DModel&#45;&gt;BaseGaussian1D -->
<g id="edge2" class="edge"><title>Fittable1DModel&#45;&gt;BaseGaussian1D</title>
<path fill="none" stroke="black" stroke-width="0.5" d="M249.479,-278.083C253.256,-310.127 269.715,-414.712 328,-471.5 330.721,-474.151 333.839,-476.435 337.168,-478.403"/>
<polygon fill="black" stroke="black" stroke-width="0.5" points="336.589,-480.078 341.823,-480.896 338.241,-476.993 336.589,-480.078"/>
</g>
<!-- Box1D -->
<g id="node5" class="node"><title>Box1D</title>
<g id="a_node5"><a xlink:href="../../api/astropy.modeling.functional_models.Box1D.html#astropy.modeling.functional_models.Box1D" xlink:title="One dimensional Box model." target="_top">
<polygon fill="none" stroke="black" stroke-width="0.5" points="408.5,-463 354.5,-463 354.5,-444 408.5,-444 408.5,-463"/>
<text text-anchor="middle" x="381.5" y="-451" font-family="Vera Sans, DejaVu Sans, Liberation Sans, Arial, Helvetica, sans" font-size="10.00">Box1D</text>
</a>
</g>
</g>
<!-- Fittable1DModel&#45;&gt;Box1D -->
<g id="edge3" class="edge"><title>Fittable1DModel&#45;&gt;Box1D</title>
<path fill="none" stroke="black" stroke-width="0.5" d="M250.459,-278.291C256.625,-306.613 278.252,-389.467 328,-434.5 334.07,-439.995 341.85,-443.932 349.551,-446.741"/>
<polygon fill="black" stroke="black" stroke-width="0.5" points="349.022,-448.41 354.319,-448.349 350.14,-445.093 349.022,-448.41"/>
</g>
<!-- Const1D -->
<g id="node7" class="node"><title>Const1D</title>
<g id="a_node7"><a xlink:href="../../api/astropy.modeling.functional_models.Const1D.html#astropy.modeling.functional_models.Const1D" xlink:title="One dimensional Constant model." target="_top">
<polygon fill="none" stroke="black" stroke-width="0.5" points="409,-426 354,-426 354,-407 409,-407 409,-426"/>
<text text-anchor="middle" x="381.5" y="-414" font-family="Vera Sans, DejaVu Sans, Liberation Sans, Arial, Helvetica, sans" font-size="10.00">Const1D</text>
</a>
</g>
</g>
<!-- Fittable1DModel&#45;&gt;Const1D -->
<g id="edge5" class="edge"><title>Fittable1DModel&#45;&gt;Const1D</title>
<path fill="none" stroke="black" stroke-width="0.5" d="M251.855,-278.114C260.603,-301.826 286.367,-363.635 328,-397.5 334.049,-402.42 341.479,-406.124 348.826,-408.89"/>
<polygon fill="black" stroke="black" stroke-width="0.5" points="348.584,-410.66 353.882,-410.659 349.74,-407.356 348.584,-410.66"/>
</g>
<!-- Linear1D -->
<g id="node16" class="node"><title>Linear1D</title>
<g id="a_node16"><a xlink:href="../../api/astropy.modeling.functional_models.Linear1D.html#astropy.modeling.functional_models.Linear1D" xlink:title="One dimensional Line model." target="_top">
<polygon fill="none" stroke="black" stroke-width="0.5" points="410,-389 353,-389 353,-370 410,-370 410,-389"/>
<text text-anchor="middle" x="381.5" y="-377" font-family="Vera Sans, DejaVu Sans, Liberation Sans, Arial, Helvetica, sans" font-size="10.00">Linear1D</text>
</a>
</g>
</g>
<!-- Fittable1DModel&#45;&gt;Linear1D -->
<g id="edge15" class="edge"><title>Fittable1DModel&#45;&gt;Linear1D</title>
<path fill="none" stroke="black" stroke-width="0.5" d="M254.476,-278.277C266.295,-296.843 294.437,-337.405 328,-360.5 334.034,-364.652 341.08,-368.008 348.014,-370.677"/>
<polygon fill="black" stroke="black" stroke-width="0.5" points="347.487,-372.347 352.784,-372.416 348.686,-369.059 347.487,-372.347"/>
</g>
<!-- Lorentz1D -->
<g id="node17" class="node"><title>Lorentz1D</title>
<g id="a_node17"><a xlink:href="../../api/astropy.modeling.functional_models.Lorentz1D.html#astropy.modeling.functional_models.Lorentz1D" xlink:title="One dimensional Lorentzian model." target="_top">
<polygon fill="none" stroke="black" stroke-width="0.5" points="413,-352 350,-352 350,-333 413,-333 413,-352"/>
<text text-anchor="middle" x="381.5" y="-340" font-family="Vera Sans, DejaVu Sans, Liberation Sans, Arial, Helvetica, sans" font-size="10.00">Lorentz1D</text>
</a>
</g>
</g>
<!-- Fittable1DModel&#45;&gt;Lorentz1D -->
<g id="edge16" class="edge"><title>Fittable1DModel&#45;&gt;Lorentz1D</title>
<path fill="none" stroke="black" stroke-width="0.5" d="M260.275,-278.104C275.276,-289.988 302.345,-310.266 328,-323.5 333.384,-326.277 339.268,-328.831 345.088,-331.105"/>
<polygon fill="black" stroke="black" stroke-width="0.5" points="344.653,-332.811 349.949,-332.947 345.894,-329.539 344.653,-332.811"/>
</g>
<!-- MexicanHat1D -->
<g id="node18" class="node"><title>MexicanHat1D</title>
<g id="a_node18"><a xlink:href="../../api/astropy.modeling.functional_models.MexicanHat1D.html#astropy.modeling.functional_models.MexicanHat1D" xlink:title="One dimensional Mexican Hat model." target="_top">
<polygon fill="none" stroke="black" stroke-width="0.5" points="422.5,-315 340.5,-315 340.5,-296 422.5,-296 422.5,-315"/>
<text text-anchor="middle" x="381.5" y="-303" font-family="Vera Sans, DejaVu Sans, Liberation Sans, Arial, Helvetica, sans" font-size="10.00">MexicanHat1D</text>
</a>
</g>
</g>
<!-- Fittable1DModel&#45;&gt;MexicanHat1D -->
<g id="edge17" class="edge"><title>Fittable1DModel&#45;&gt;MexicanHat1D</title>
<path fill="none" stroke="black" stroke-width="0.5" d="M282.493,-278.028C300.368,-283.039 322.376,-289.208 341.005,-294.429"/>
<polygon fill="black" stroke="black" stroke-width="0.5" points="340.876,-296.211 346.163,-295.875 341.821,-292.841 340.876,-296.211"/>
</g>
<!-- Moffat1D -->
<g id="node20" class="node"><title>Moffat1D</title>
<g id="a_node20"><a xlink:href="../../api/astropy.modeling.functional_models.Moffat1D.html#astropy.modeling.functional_models.Moffat1D" xlink:title="One dimensional Moffat model." target="_top">
<polygon fill="none" stroke="black" stroke-width="0.5" points="410,-278 353,-278 353,-259 410,-259 410,-278"/>
<text text-anchor="middle" x="381.5" y="-266" font-family="Vera Sans, DejaVu Sans, Liberation Sans, Arial, Helvetica, sans" font-size="10.00">Moffat1D</text>
</a>
</g>
</g>
<!-- Fittable1DModel&#45;&gt;Moffat1D -->
<g id="edge19" class="edge"><title>Fittable1DModel&#45;&gt;Moffat1D</title>
<path fill="none" stroke="black" stroke-width="0.5" d="M292.088,-268.5C310.19,-268.5 330.845,-268.5 347.637,-268.5"/>
<polygon fill="black" stroke="black" stroke-width="0.5" points="347.717,-270.25 352.717,-268.5 347.717,-266.75 347.717,-270.25"/>
</g>
<!-- RedshiftScaleFactor -->
<g id="node22" class="node"><title>RedshiftScaleFactor</title>
<g id="a_node22"><a xlink:href="../../api/astropy.modeling.functional_models.RedshiftScaleFactor.html#astropy.modeling.functional_models.RedshiftScaleFactor" xlink:title="One dimensional redshift scale factor model." target="_top">
<polygon fill="none" stroke="black" stroke-width="0.5" points="435,-241 328,-241 328,-222 435,-222 435,-241"/>
<text text-anchor="middle" x="381.5" y="-229" font-family="Vera Sans, DejaVu Sans, Liberation Sans, Arial, Helvetica, sans" font-size="10.00">RedshiftScaleFactor</text>
</a>
</g>
</g>
<!-- Fittable1DModel&#45;&gt;RedshiftScaleFactor -->
<g id="edge21" class="edge"><title>Fittable1DModel&#45;&gt;RedshiftScaleFactor</title>
<path fill="none" stroke="black" stroke-width="0.5" d="M282.493,-258.972C300.368,-253.961 322.376,-247.792 341.005,-242.571"/>
<polygon fill="black" stroke="black" stroke-width="0.5" points="341.821,-244.159 346.163,-241.125 340.876,-240.789 341.821,-244.159"/>
</g>
<!-- Scale -->
<g id="node24" class="node"><title>Scale</title>
<g id="a_node24"><a xlink:href="../../api/astropy.modeling.functional_models.Scale.html#astropy.modeling.functional_models.Scale" xlink:title="Multiply a model by a factor." target="_top">
<polygon fill="none" stroke="black" stroke-width="0.5" points="408.5,-204 354.5,-204 354.5,-185 408.5,-185 408.5,-204"/>
<text text-anchor="middle" x="381.5" y="-192" font-family="Vera Sans, DejaVu Sans, Liberation Sans, Arial, Helvetica, sans" font-size="10.00">Scale</text>
</a>
</g>
</g>
<!-- Fittable1DModel&#45;&gt;Scale -->
<g id="edge23" class="edge"><title>Fittable1DModel&#45;&gt;Scale</title>
<path fill="none" stroke="black" stroke-width="0.5" d="M259.948,-258.845C274.826,-246.685 301.987,-225.779 328,-212.5 334.694,-209.083 342.183,-206.077 349.36,-203.549"/>
<polygon fill="black" stroke="black" stroke-width="0.5" points="350.098,-205.146 354.266,-201.876 348.969,-201.834 350.098,-205.146"/>
</g>
<!-- Sersic1D -->
<g id="node25" class="node"><title>Sersic1D</title>
<g id="a_node25"><a xlink:href="../../api/astropy.modeling.functional_models.Sersic1D.html#astropy.modeling.functional_models.Sersic1D" xlink:title="One dimensional Sersic surface brightness profile." target="_top">
<polygon fill="none" stroke="black" stroke-width="0.5" points="410,-167 353,-167 353,-148 410,-148 410,-167"/>
<text text-anchor="middle" x="381.5" y="-155" font-family="Vera Sans, DejaVu Sans, Liberation Sans, Arial, Helvetica, sans" font-size="10.00">Sersic1D</text>
</a>
</g>
</g>
<!-- Fittable1DModel&#45;&gt;Sersic1D -->
<g id="edge24" class="edge"><title>Fittable1DModel&#45;&gt;Sersic1D</title>
<path fill="none" stroke="black" stroke-width="0.5" d="M254.233,-258.853C265.836,-240.127 293.918,-198.662 328,-175.5 334.022,-171.408 341.063,-168.163 347.996,-165.622"/>
<polygon fill="black" stroke="black" stroke-width="0.5" points="348.612,-167.261 352.766,-163.974 347.468,-163.953 348.612,-167.261"/>
</g>
<!-- Shift -->
<g id="node27" class="node"><title>Shift</title>
<g id="a_node27"><a xlink:href="../../api/astropy.modeling.functional_models.Shift.html#astropy.modeling.functional_models.Shift" xlink:title="Shift a coordinate." target="_top">
<polygon fill="none" stroke="black" stroke-width="0.5" points="408.5,-130 354.5,-130 354.5,-111 408.5,-111 408.5,-130"/>
<text text-anchor="middle" x="381.5" y="-118" font-family="Vera Sans, DejaVu Sans, Liberation Sans, Arial, Helvetica, sans" font-size="10.00">Shift</text>
</a>
</g>
</g>
<!-- Fittable1DModel&#45;&gt;Shift -->
<g id="edge26" class="edge"><title>Fittable1DModel&#45;&gt;Shift</title>
<path fill="none" stroke="black" stroke-width="0.5" d="M251.797,-258.768C260.415,-234.771 285.904,-172.272 328,-138.5 334.168,-133.552 341.776,-129.927 349.267,-127.284"/>
<polygon fill="black" stroke="black" stroke-width="0.5" points="350.203,-128.82 354.416,-125.608 349.12,-125.492 350.203,-128.82"/>
</g>
<!-- Sine1D -->
<g id="node28" class="node"><title>Sine1D</title>
<g id="a_node28"><a xlink:href="../../api/astropy.modeling.functional_models.Sine1D.html#astropy.modeling.functional_models.Sine1D" xlink:title="One dimensional Sine model." target="_top">
<polygon fill="none" stroke="black" stroke-width="0.5" points="408.5,-93 354.5,-93 354.5,-74 408.5,-74 408.5,-93"/>
<text text-anchor="middle" x="381.5" y="-81" font-family="Vera Sans, DejaVu Sans, Liberation Sans, Arial, Helvetica, sans" font-size="10.00">Sine1D</text>
</a>
</g>
</g>
<!-- Fittable1DModel&#45;&gt;Sine1D -->
<g id="edge27" class="edge"><title>Fittable1DModel&#45;&gt;Sine1D</title>
<path fill="none" stroke="black" stroke-width="0.5" d="M250.404,-258.61C256.419,-230.008 277.679,-146.388 328,-101.5 334.074,-96.0821 341.855,-92.2799 349.556,-89.617"/>
<polygon fill="black" stroke="black" stroke-width="0.5" points="350.089,-91.2839 354.324,-88.1019 349.029,-87.9482 350.089,-91.2839"/>
</g>
<!-- Trapezoid1D -->
<g id="node29" class="node"><title>Trapezoid1D</title>
<g id="a_node29"><a xlink:href="../../api/astropy.modeling.functional_models.Trapezoid1D.html#astropy.modeling.functional_models.Trapezoid1D" xlink:title="One dimensional Trapezoid model." target="_top">
<polygon fill="none" stroke="black" stroke-width="0.5" points="418.5,-56 344.5,-56 344.5,-37 418.5,-37 418.5,-56"/>
<text text-anchor="middle" x="381.5" y="-44" font-family="Vera Sans, DejaVu Sans, Liberation Sans, Arial, Helvetica, sans" font-size="10.00">Trapezoid1D</text>
</a>
</g>
</g>
<!-- Fittable1DModel&#45;&gt;Trapezoid1D -->
<g id="edge28" class="edge"><title>Fittable1DModel&#45;&gt;Trapezoid1D</title>
<path fill="none" stroke="black" stroke-width="0.5" d="M249.427,-258.832C253.037,-226.513 269.032,-121.082 328,-64.5 331.37,-61.2666 335.346,-58.6123 339.577,-56.4338"/>
<polygon fill="black" stroke="black" stroke-width="0.5" points="340.462,-57.9522 344.252,-54.2517 338.981,-54.7806 340.462,-57.9522"/>
</g>
<!-- Voigt1D -->
<g id="node31" class="node"><title>Voigt1D</title>
<g id="a_node31"><a xlink:href="../../api/astropy.modeling.functional_models.Voigt1D.html#astropy.modeling.functional_models.Voigt1D" xlink:title="One dimensional model for the Voigt profile." target="_top">
<polygon fill="none" stroke="black" stroke-width="0.5" points="408.5,-19 354.5,-19 354.5,-0 408.5,-0 408.5,-19"/>
<text text-anchor="middle" x="381.5" y="-7" font-family="Vera Sans, DejaVu Sans, Liberation Sans, Arial, Helvetica, sans" font-size="10.00">Voigt1D</text>
</a>
</g>
</g>
<!-- Fittable1DModel&#45;&gt;Voigt1D -->
<g id="edge30" class="edge"><title>Fittable1DModel&#45;&gt;Voigt1D</title>
<path fill="none" stroke="black" stroke-width="0.5" d="M248.772,-258.661C250.306,-222.543 260.482,-95.8099 328,-27.5 333.834,-21.598 341.684,-17.6298 349.534,-14.9624"/>
<polygon fill="black" stroke="black" stroke-width="0.5" points="350.14,-16.6071 354.404,-13.464 349.11,-13.2619 350.14,-16.6071"/>
</g>
<!-- FittableModel -->
<g id="node11" class="node"><title>FittableModel</title>
<g id="a_node11"><a xlink:href="../../api/astropy.modeling.FittableModel.html#astropy.modeling.FittableModel" xlink:title="Base class for models that can be fitted using the built&#45;in fitting" target="_top">
<polygon fill="none" stroke="black" stroke-width="0.5" points="167,-481 90,-481 90,-462 167,-462 167,-481"/>
<text text-anchor="middle" x="128.5" y="-469" font-family="Vera Sans, DejaVu Sans, Liberation Sans, Arial, Helvetica, sans" font-size="10.00">FittableModel</text>
</a>
</g>
</g>
<!-- FittableModel&#45;&gt;Fittable2DModel -->
<g id="edge10" class="edge"><title>FittableModel&#45;&gt;Fittable2DModel</title>
<path fill="none" stroke="black" stroke-width="0.5" d="M134.527,-481.039C153.016,-516.121 217.299,-638.093 239.158,-679.569"/>
<polygon fill="black" stroke="black" stroke-width="0.5" points="237.612,-680.389 241.491,-683.996 240.708,-678.757 237.612,-680.389"/>
</g>
<!-- FittableModel&#45;&gt;Fittable1DModel -->
<g id="edge9" class="edge"><title>FittableModel&#45;&gt;Fittable1DModel</title>
<path fill="none" stroke="black" stroke-width="0.5" d="M134.986,-461.981C153.828,-429.29 215.962,-321.484 238.361,-282.622"/>
<polygon fill="black" stroke="black" stroke-width="0.5" points="239.909,-283.44 240.889,-278.234 236.876,-281.693 239.909,-283.44"/>
</g>
<!-- Model -->
<g id="node12" class="node"><title>Model</title>
<g id="a_node12"><a xlink:href="../../api/astropy.modeling.Model.html#astropy.modeling.Model" xlink:title="Base class for all models." target="_top">
<polygon fill="none" stroke="black" stroke-width="0.5" points="54,-481 0,-481 0,-462 54,-462 54,-481"/>
<text text-anchor="middle" x="27" y="-469" font-family="Vera Sans, DejaVu Sans, Liberation Sans, Arial, Helvetica, sans" font-size="10.00">Model</text>
</a>
</g>
</g>
<!-- Model&#45;&gt;FittableModel -->
<g id="edge11" class="edge"><title>Model&#45;&gt;FittableModel</title>
<path fill="none" stroke="black" stroke-width="0.5" d="M54.1425,-471.5C63.5439,-471.5 74.4096,-471.5 84.8495,-471.5"/>
<polygon fill="black" stroke="black" stroke-width="0.5" points="84.9321,-473.25 89.9321,-471.5 84.932,-469.75 84.9321,-473.25"/>
</g>
</g>
</svg>
