<?xml version="1.0" encoding="utf-8" standalone="no"?>
<!DOCTYPE svg PUBLIC "-//W3C//DTD SVG 1.1//EN"
  "http://www.w3.org/Graphics/SVG/1.1/DTD/svg11.dtd">
<!-- Created with matplotlib (http://matplotlib.org/) -->
<svg height="279pt" version="1.1" viewBox="0 0 684 279" width="684pt" xmlns="http://www.w3.org/2000/svg" xmlns:xlink="http://www.w3.org/1999/xlink">
 <defs>
  <style type="text/css">
*{stroke-linecap:butt;stroke-linejoin:round;}
  </style>
 </defs>
 <g id="figure_1">
  <g id="patch_1">
   <path d="M 0 279.41215 
L 684.69025 279.41215 
L 684.69025 0 
L 0 0 
z
" style="fill:none;"/>
  </g>
  <g id="axes_1">
   <g id="patch_2">
    <path d="M 65.49025 236.6619 
L 343.672068 236.6619 
L 343.672068 26.4219 
L 65.49025 26.4219 
z
" style="fill:#ffffff;"/>
   </g>
   <g id="matplotlib.axis_1">
    <g id="xtick_1">
     <g id="line2d_1"/>
     <g id="text_1">
      <!-- −15 -->
      <defs>
       <path d="M 10.59375 35.5 
L 73.1875 35.5 
L 73.1875 27.203125 
L 10.59375 27.203125 
z
" id="DejaVuSans-2212"/>
       <path d="M 12.40625 8.296875 
L 28.515625 8.296875 
L 28.515625 63.921875 
L 10.984375 60.40625 
L 10.984375 69.390625 
L 28.421875 72.90625 
L 38.28125 72.90625 
L 38.28125 8.296875 
L 54.390625 8.296875 
L 54.390625 0 
L 12.40625 0 
z
" id="DejaVuSans-31"/>
       <path d="M 10.796875 72.90625 
L 49.515625 72.90625 
L 49.515625 64.59375 
L 19.828125 64.59375 
L 19.828125 46.734375 
Q 21.96875 47.46875 24.109375 47.828125 
Q 26.265625 48.1875 28.421875 48.1875 
Q 40.625 48.1875 47.75 41.5 
Q 54.890625 34.8125 54.890625 23.390625 
Q 54.890625 11.625 47.5625 5.09375 
Q 40.234375 -1.421875 26.90625 -1.421875 
Q 22.3125 -1.421875 17.546875 -0.640625 
Q 12.796875 0.140625 7.71875 1.703125 
L 7.71875 11.625 
Q 12.109375 9.234375 16.796875 8.0625 
Q 21.484375 6.890625 26.703125 6.890625 
Q 35.15625 6.890625 40.078125 11.328125 
Q 45.015625 15.765625 45.015625 23.390625 
Q 45.015625 31 40.078125 35.4375 
Q 35.15625 39.890625 26.703125 39.890625 
Q 22.75 39.890625 18.8125 39.015625 
Q 14.890625 38.140625 10.796875 36.28125 
z
" id="DejaVuSans-35"/>
      </defs>
      <g style="fill:#565656;" transform="translate(65.345864 251.780025)scale(0.12 -0.12)">
       <use xlink:href="#DejaVuSans-2212"/>
       <use x="83.789062" xlink:href="#DejaVuSans-31"/>
       <use x="147.412109" xlink:href="#DejaVuSans-35"/>
      </g>
     </g>
    </g>
    <g id="xtick_2">
     <g id="line2d_2"/>
     <g id="text_2">
      <!-- −10 -->
      <defs>
       <path d="M 31.78125 66.40625 
Q 24.171875 66.40625 20.328125 58.90625 
Q 16.5 51.421875 16.5 36.375 
Q 16.5 21.390625 20.328125 13.890625 
Q 24.171875 6.390625 31.78125 6.390625 
Q 39.453125 6.390625 43.28125 13.890625 
Q 47.125 21.390625 47.125 36.375 
Q 47.125 51.421875 43.28125 58.90625 
Q 39.453125 66.40625 31.78125 66.40625 
M 31.78125 74.21875 
Q 44.046875 74.21875 50.515625 64.515625 
Q 56.984375 54.828125 56.984375 36.375 
Q 56.984375 17.96875 50.515625 8.265625 
Q 44.046875 -1.421875 31.78125 -1.421875 
Q 19.53125 -1.421875 13.0625 8.265625 
Q 6.59375 17.96875 6.59375 36.375 
Q 6.59375 54.828125 13.0625 64.515625 
Q 19.53125 74.21875 31.78125 74.21875 
" id="DejaVuSans-30"/>
      </defs>
      <g style="fill:#565656;" transform="translate(106.610459 251.780025)scale(0.12 -0.12)">
       <use xlink:href="#DejaVuSans-2212"/>
       <use x="83.789062" xlink:href="#DejaVuSans-31"/>
       <use x="147.412109" xlink:href="#DejaVuSans-30"/>
      </g>
     </g>
    </g>
    <g id="xtick_3">
     <g id="line2d_3"/>
     <g id="text_3">
      <!-- −5 -->
      <g style="fill:#565656;" transform="translate(151.692554 251.780025)scale(0.12 -0.12)">
       <use xlink:href="#DejaVuSans-2212"/>
       <use x="83.789062" xlink:href="#DejaVuSans-35"/>
      </g>
     </g>
    </g>
    <g id="xtick_4">
     <g id="line2d_4"/>
     <g id="text_4">
      <!-- 0 -->
      <g style="fill:#565656;" transform="translate(197.984962 251.780025)scale(0.12 -0.12)">
       <use xlink:href="#DejaVuSans-30"/>
      </g>
     </g>
    </g>
    <g id="xtick_5">
     <g id="line2d_5"/>
     <g id="text_5">
      <!-- 5 -->
      <g style="fill:#565656;" transform="translate(239.249557 251.780025)scale(0.12 -0.12)">
       <use xlink:href="#DejaVuSans-35"/>
      </g>
     </g>
    </g>
    <g id="xtick_6">
     <g id="line2d_6"/>
     <g id="text_6">
      <!-- 10 -->
      <g style="fill:#565656;" transform="translate(276.696652 251.780025)scale(0.12 -0.12)">
       <use xlink:href="#DejaVuSans-31"/>
       <use x="63.623047" xlink:href="#DejaVuSans-30"/>
      </g>
     </g>
    </g>
    <g id="xtick_7">
     <g id="line2d_7"/>
     <g id="text_7">
      <!-- 15 -->
      <g style="fill:#565656;" transform="translate(317.961247 251.780025)scale(0.12 -0.12)">
       <use xlink:href="#DejaVuSans-31"/>
       <use x="63.623047" xlink:href="#DejaVuSans-35"/>
      </g>
     </g>
    </g>
    <g id="text_8">
     <!-- t -->
     <defs>
      <path d="M 18.3125 70.21875 
L 18.3125 54.6875 
L 36.8125 54.6875 
L 36.8125 47.703125 
L 18.3125 47.703125 
L 18.3125 18.015625 
Q 18.3125 11.328125 20.140625 9.421875 
Q 21.96875 7.515625 27.59375 7.515625 
L 36.8125 7.515625 
L 36.8125 0 
L 27.59375 0 
Q 17.1875 0 13.234375 3.875 
Q 9.28125 7.765625 9.28125 18.015625 
L 9.28125 47.703125 
L 2.6875 47.703125 
L 2.6875 54.6875 
L 9.28125 54.6875 
L 9.28125 70.21875 
z
" id="DejaVuSans-74"/>
     </defs>
     <g transform="translate(201.758534 269.2174)scale(0.144 -0.144)">
      <use xlink:href="#DejaVuSans-74"/>
     </g>
    </g>
   </g>
   <g id="matplotlib.axis_2">
    <g id="ytick_1">
     <g id="line2d_8"/>
     <g id="text_9">
      <!-- 0.000 -->
      <defs>
       <path d="M 10.6875 12.40625 
L 21 12.40625 
L 21 0 
L 10.6875 0 
z
" id="DejaVuSans-2e"/>
      </defs>
      <g style="fill:#565656;" transform="translate(25.1365 241.220962)scale(0.12 -0.12)">
       <use xlink:href="#DejaVuSans-30"/>
       <use x="63.623047" xlink:href="#DejaVuSans-2e"/>
       <use x="95.410156" xlink:href="#DejaVuSans-30"/>
       <use x="159.033203" xlink:href="#DejaVuSans-30"/>
       <use x="222.65625" xlink:href="#DejaVuSans-30"/>
      </g>
     </g>
    </g>
    <g id="ytick_2">
     <g id="line2d_9"/>
     <g id="text_10">
      <!-- 0.025 -->
      <defs>
       <path d="M 19.1875 8.296875 
L 53.609375 8.296875 
L 53.609375 0 
L 7.328125 0 
L 7.328125 8.296875 
Q 12.9375 14.109375 22.625 23.890625 
Q 32.328125 33.6875 34.8125 36.53125 
Q 39.546875 41.84375 41.421875 45.53125 
Q 43.3125 49.21875 43.3125 52.78125 
Q 43.3125 58.59375 39.234375 62.25 
Q 35.15625 65.921875 28.609375 65.921875 
Q 23.96875 65.921875 18.8125 64.3125 
Q 13.671875 62.703125 7.8125 59.421875 
L 7.8125 69.390625 
Q 13.765625 71.78125 18.9375 73 
Q 24.125 74.21875 28.421875 74.21875 
Q 39.75 74.21875 46.484375 68.546875 
Q 53.21875 62.890625 53.21875 53.421875 
Q 53.21875 48.921875 51.53125 44.890625 
Q 49.859375 40.875 45.40625 35.40625 
Q 44.1875 33.984375 37.640625 27.21875 
Q 31.109375 20.453125 19.1875 8.296875 
" id="DejaVuSans-32"/>
      </defs>
      <g style="fill:#565656;" transform="translate(25.1365 210.810568)scale(0.12 -0.12)">
       <use xlink:href="#DejaVuSans-30"/>
       <use x="63.623047" xlink:href="#DejaVuSans-2e"/>
       <use x="95.410156" xlink:href="#DejaVuSans-30"/>
       <use x="159.033203" xlink:href="#DejaVuSans-32"/>
       <use x="222.65625" xlink:href="#DejaVuSans-35"/>
      </g>
     </g>
    </g>
    <g id="ytick_3">
     <g id="line2d_10"/>
     <g id="text_11">
      <!-- 0.050 -->
      <g style="fill:#565656;" transform="translate(25.1365 180.400174)scale(0.12 -0.12)">
       <use xlink:href="#DejaVuSans-30"/>
       <use x="63.623047" xlink:href="#DejaVuSans-2e"/>
       <use x="95.410156" xlink:href="#DejaVuSans-30"/>
       <use x="159.033203" xlink:href="#DejaVuSans-35"/>
       <use x="222.65625" xlink:href="#DejaVuSans-30"/>
      </g>
     </g>
    </g>
    <g id="ytick_4">
     <g id="line2d_11"/>
     <g id="text_12">
      <!-- 0.075 -->
      <defs>
       <path d="M 8.203125 72.90625 
L 55.078125 72.90625 
L 55.078125 68.703125 
L 28.609375 0 
L 18.3125 0 
L 43.21875 64.59375 
L 8.203125 64.59375 
z
" id="DejaVuSans-37"/>
      </defs>
      <g style="fill:#565656;" transform="translate(25.1365 149.98978)scale(0.12 -0.12)">
       <use xlink:href="#DejaVuSans-30"/>
       <use x="63.623047" xlink:href="#DejaVuSans-2e"/>
       <use x="95.410156" xlink:href="#DejaVuSans-30"/>
       <use x="159.033203" xlink:href="#DejaVuSans-37"/>
       <use x="222.65625" xlink:href="#DejaVuSans-35"/>
      </g>
     </g>
    </g>
    <g id="ytick_5">
     <g id="line2d_12"/>
     <g id="text_13">
      <!-- 0.100 -->
      <g style="fill:#565656;" transform="translate(25.1365 119.579386)scale(0.12 -0.12)">
       <use xlink:href="#DejaVuSans-30"/>
       <use x="63.623047" xlink:href="#DejaVuSans-2e"/>
       <use x="95.410156" xlink:href="#DejaVuSans-31"/>
       <use x="159.033203" xlink:href="#DejaVuSans-30"/>
       <use x="222.65625" xlink:href="#DejaVuSans-30"/>
      </g>
     </g>
    </g>
    <g id="ytick_6">
     <g id="line2d_13"/>
     <g id="text_14">
      <!-- 0.125 -->
      <g style="fill:#565656;" transform="translate(25.1365 89.168992)scale(0.12 -0.12)">
       <use xlink:href="#DejaVuSans-30"/>
       <use x="63.623047" xlink:href="#DejaVuSans-2e"/>
       <use x="95.410156" xlink:href="#DejaVuSans-31"/>
       <use x="159.033203" xlink:href="#DejaVuSans-32"/>
       <use x="222.65625" xlink:href="#DejaVuSans-35"/>
      </g>
     </g>
    </g>
    <g id="ytick_7">
     <g id="line2d_14"/>
     <g id="text_15">
      <!-- 0.150 -->
      <g style="fill:#565656;" transform="translate(25.1365 58.758598)scale(0.12 -0.12)">
       <use xlink:href="#DejaVuSans-30"/>
       <use x="63.623047" xlink:href="#DejaVuSans-2e"/>
       <use x="95.410156" xlink:href="#DejaVuSans-31"/>
       <use x="159.033203" xlink:href="#DejaVuSans-35"/>
       <use x="222.65625" xlink:href="#DejaVuSans-30"/>
      </g>
     </g>
    </g>
    <g id="text_16">
     <!-- P(t) -->
     <defs>
      <path d="M 19.671875 64.796875 
L 19.671875 37.40625 
L 32.078125 37.40625 
Q 38.96875 37.40625 42.71875 40.96875 
Q 46.484375 44.53125 46.484375 51.125 
Q 46.484375 57.671875 42.71875 61.234375 
Q 38.96875 64.796875 32.078125 64.796875 
z
M 9.8125 72.90625 
L 32.078125 72.90625 
Q 44.34375 72.90625 50.609375 67.359375 
Q 56.890625 61.8125 56.890625 51.125 
Q 56.890625 40.328125 50.609375 34.8125 
Q 44.34375 29.296875 32.078125 29.296875 
L 19.671875 29.296875 
L 19.671875 0 
L 9.8125 0 
z
" id="DejaVuSans-50"/>
      <path d="M 31 75.875 
Q 24.46875 64.65625 21.28125 53.65625 
Q 18.109375 42.671875 18.109375 31.390625 
Q 18.109375 20.125 21.3125 9.0625 
Q 24.515625 -2 31 -13.1875 
L 23.1875 -13.1875 
Q 15.875 -1.703125 12.234375 9.375 
Q 8.59375 20.453125 8.59375 31.390625 
Q 8.59375 42.28125 12.203125 53.3125 
Q 15.828125 64.359375 23.1875 75.875 
z
" id="DejaVuSans-28"/>
      <path d="M 8.015625 75.875 
L 15.828125 75.875 
Q 23.140625 64.359375 26.78125 53.3125 
Q 30.421875 42.28125 30.421875 31.390625 
Q 30.421875 20.453125 26.78125 9.375 
Q 23.140625 -1.703125 15.828125 -13.1875 
L 8.015625 -13.1875 
Q 14.5 -2 17.703125 9.0625 
Q 20.90625 20.125 20.90625 31.390625 
Q 20.90625 42.671875 17.703125 53.65625 
Q 14.5 64.65625 8.015625 75.875 
" id="DejaVuSans-29"/>
     </defs>
     <g transform="translate(18.14175 144.32415)rotate(-90)scale(0.144 -0.144)">
      <use xlink:href="#DejaVuSans-50"/>
      <use x="60.302734" xlink:href="#DejaVuSans-28"/>
      <use x="99.316406" xlink:href="#DejaVuSans-74"/>
      <use x="138.525391" xlink:href="#DejaVuSans-29"/>
     </g>
    </g>
   </g>
   <g id="patch_3">
    <path clip-path="url(#p91f2692a4e)" d="M 78.134878 236.6619 
L 78.134878 233.919043 
L 85.798289 233.919043 
L 85.798289 232.547614 
L 93.4617 232.547614 
L 93.4617 232.547614 
L 101.125111 232.547614 
L 101.125111 231.176186 
L 108.788522 231.176186 
L 108.788522 229.804757 
L 116.451933 229.804757 
L 116.451933 229.804757 
L 124.115344 229.804757 
L 124.115344 227.610471 
L 131.778755 227.610471 
L 131.778755 220.479043 
L 139.442166 220.479043 
L 139.442166 212.524757 
L 147.105577 212.524757 
L 147.105577 195.519043 
L 154.768988 195.519043 
L 154.768988 156.296186 
L 162.432399 156.296186 
L 162.432399 36.433329 
L 170.09581 36.433329 
L 170.09581 88.273329 
L 177.759221 88.273329 
L 177.759221 165.073329 
L 185.422632 165.073329 
L 185.422632 154.650471 
L 193.086043 154.650471 
L 193.086043 148.3419 
L 200.749454 148.3419 
L 200.749454 193.599043 
L 208.412865 193.599043 
L 208.412865 162.604757 
L 216.076276 162.604757 
L 216.076276 121.4619 
L 223.739687 121.4619 
L 223.739687 163.427614 
L 231.403097 163.427614 
L 231.403097 162.604757 
L 239.066508 162.604757 
L 239.066508 186.7419 
L 246.729919 186.7419 
L 246.729919 210.330471 
L 254.39333 210.330471 
L 254.39333 219.930471 
L 262.056741 219.930471 
L 262.056741 225.416186 
L 269.720152 225.416186 
L 269.720152 228.159043 
L 277.383563 228.159043 
L 277.383563 231.176186 
L 285.046974 231.176186 
L 285.046974 229.530471 
L 292.710385 229.530471 
L 292.710385 234.193329 
L 300.373796 234.193329 
L 300.373796 232.273329 
L 308.037207 232.273329 
L 308.037207 233.644757 
L 315.700618 233.644757 
L 315.700618 233.644757 
L 323.364029 233.644757 
L 323.364029 236.113329 
L 331.02744 236.113329 
L 331.02744 236.6619 
L 323.364029 236.6619 
L 323.364029 236.6619 
L 315.700618 236.6619 
L 315.700618 236.6619 
L 308.037207 236.6619 
L 308.037207 236.6619 
L 300.373796 236.6619 
L 300.373796 236.6619 
L 292.710385 236.6619 
L 292.710385 236.6619 
L 285.046974 236.6619 
L 285.046974 236.6619 
L 277.383563 236.6619 
L 277.383563 236.6619 
L 269.720152 236.6619 
L 269.720152 236.6619 
L 262.056741 236.6619 
L 262.056741 236.6619 
L 254.39333 236.6619 
L 254.39333 236.6619 
L 246.729919 236.6619 
L 246.729919 236.6619 
L 239.066508 236.6619 
L 239.066508 236.6619 
L 231.403097 236.6619 
L 231.403097 236.6619 
L 223.739687 236.6619 
L 223.739687 236.6619 
L 216.076276 236.6619 
L 216.076276 236.6619 
L 208.412865 236.6619 
L 208.412865 236.6619 
L 200.749454 236.6619 
L 200.749454 236.6619 
L 193.086043 236.6619 
L 193.086043 236.6619 
L 185.422632 236.6619 
L 185.422632 236.6619 
L 177.759221 236.6619 
L 177.759221 236.6619 
L 170.09581 236.6619 
L 170.09581 236.6619 
L 162.432399 236.6619 
L 162.432399 236.6619 
L 154.768988 236.6619 
L 154.768988 236.6619 
L 147.105577 236.6619 
L 147.105577 236.6619 
L 139.442166 236.6619 
L 139.442166 236.6619 
L 131.778755 236.6619 
L 131.778755 236.6619 
L 124.115344 236.6619 
L 124.115344 236.6619 
L 116.451933 236.6619 
L 116.451933 236.6619 
L 108.788522 236.6619 
L 108.788522 236.6619 
L 101.125111 236.6619 
L 101.125111 236.6619 
L 93.4617 236.6619 
L 93.4617 236.6619 
L 85.798289 236.6619 
L 85.798289 236.6619 
z
" style="fill:#e24a33;opacity:0.2;"/>
   </g>
   <g id="patch_4">
    <path d="M 65.49025 236.6619 
L 65.49025 26.4219 
" style="fill:none;stroke:#aaaaaa;stroke-linecap:square;stroke-linejoin:miter;"/>
   </g>
   <g id="patch_5">
    <path d="M 343.672068 236.6619 
L 343.672068 26.4219 
" style="fill:none;stroke:#aaaaaa;stroke-linecap:square;stroke-linejoin:miter;"/>
   </g>
   <g id="patch_6">
    <path d="M 65.49025 236.6619 
L 343.672068 236.6619 
" style="fill:none;stroke:#aaaaaa;stroke-linecap:square;stroke-linejoin:miter;"/>
   </g>
   <g id="patch_7">
    <path d="M 65.49025 26.4219 
L 343.672068 26.4219 
" style="fill:none;stroke:#aaaaaa;stroke-linecap:square;stroke-linejoin:miter;"/>
   </g>
   <g id="text_17">
    <!-- hist(t, bins="scott") -->
    <defs>
     <path d="M 51.3125 33.890625 
L 51.3125 0 
L 42.28125 0 
L 42.28125 33.890625 
Q 42.28125 41.265625 39.6875 44.71875 
Q 37.109375 48.1875 31.59375 48.1875 
Q 25.296875 48.1875 21.890625 43.71875 
Q 18.5 39.265625 18.5 30.90625 
L 18.5 0 
L 9.515625 0 
L 9.515625 75.984375 
L 18.5 75.984375 
L 18.5 46.484375 
Q 20.90625 51.171875 25 53.578125 
Q 29.109375 56 34.71875 56 
Q 43.0625 56 47.1875 50.5 
Q 51.3125 45.015625 51.3125 33.890625 
" id="DejaVuSansMono-68"/>
     <path d="M 12.5 54.6875 
L 35.5 54.6875 
L 35.5 6.984375 
L 53.328125 6.984375 
L 53.328125 0 
L 8.6875 0 
L 8.6875 6.984375 
L 26.515625 6.984375 
L 26.515625 47.703125 
L 12.5 47.703125 
z
M 26.515625 75.984375 
L 35.5 75.984375 
L 35.5 64.59375 
L 26.515625 64.59375 
z
" id="DejaVuSansMono-69"/>
     <path d="M 47.515625 52.78125 
L 47.515625 44 
Q 43.65625 46.234375 39.75 47.359375 
Q 35.84375 48.484375 31.78125 48.484375 
Q 25.6875 48.484375 22.671875 46.5 
Q 19.671875 44.53125 19.671875 40.484375 
Q 19.671875 36.8125 21.921875 35 
Q 24.171875 33.203125 33.109375 31.5 
L 36.71875 30.8125 
Q 43.40625 29.546875 46.84375 25.734375 
Q 50.296875 21.921875 50.296875 15.828125 
Q 50.296875 7.71875 44.53125 3.140625 
Q 38.765625 -1.421875 28.515625 -1.421875 
Q 24.46875 -1.421875 20.015625 -0.5625 
Q 15.578125 0.296875 10.40625 2 
L 10.40625 11.28125 
Q 15.4375 8.6875 20.015625 7.390625 
Q 24.609375 6.109375 28.71875 6.109375 
Q 34.671875 6.109375 37.9375 8.515625 
Q 41.21875 10.9375 41.21875 15.28125 
Q 41.21875 21.53125 29.25 23.921875 
L 28.859375 24.03125 
L 25.484375 24.703125 
Q 17.71875 26.21875 14.15625 29.8125 
Q 10.59375 33.40625 10.59375 39.59375 
Q 10.59375 47.46875 15.90625 51.734375 
Q 21.234375 56 31.109375 56 
Q 35.5 56 39.546875 55.1875 
Q 43.609375 54.390625 47.515625 52.78125 
" id="DejaVuSansMono-73"/>
     <path d="M 29.984375 70.21875 
L 29.984375 54.6875 
L 50.390625 54.6875 
L 50.390625 47.703125 
L 29.984375 47.703125 
L 29.984375 18.015625 
Q 29.984375 11.96875 32.28125 9.5625 
Q 34.578125 7.171875 40.28125 7.171875 
L 50.390625 7.171875 
L 50.390625 0 
L 39.40625 0 
Q 29.296875 0 25.140625 4.046875 
Q 21 8.109375 21 18.015625 
L 21 47.703125 
L 6.390625 47.703125 
L 6.390625 54.6875 
L 21 54.6875 
L 21 70.21875 
z
" id="DejaVuSansMono-74"/>
     <path d="M 43.21875 75.875 
Q 36.71875 64.75 33.515625 53.6875 
Q 30.328125 42.625 30.328125 31.390625 
Q 30.328125 20.21875 33.515625 9.125 
Q 36.71875 -1.953125 43.21875 -13.1875 
L 35.40625 -13.1875 
Q 28.03125 -1.5625 24.40625 9.4375 
Q 20.796875 20.453125 20.796875 31.390625 
Q 20.796875 42.28125 24.40625 53.3125 
Q 28.03125 64.359375 35.40625 75.875 
z
" id="DejaVuSansMono-28"/>
     <path d="M 24.515625 14.796875 
L 36.8125 14.796875 
L 36.8125 4.6875 
L 27.203125 -14.015625 
L 19.671875 -14.015625 
L 24.515625 4.6875 
z
" id="DejaVuSansMono-2c"/>
     <path id="DejaVuSansMono-20"/>
     <path d="M 44.828125 27.296875 
Q 44.828125 37.75 41.5 43.0625 
Q 38.1875 48.390625 31.6875 48.390625 
Q 25.140625 48.390625 21.765625 43.046875 
Q 18.40625 37.703125 18.40625 27.296875 
Q 18.40625 16.9375 21.765625 11.5625 
Q 25.140625 6.203125 31.6875 6.203125 
Q 38.1875 6.203125 41.5 11.515625 
Q 44.828125 16.84375 44.828125 27.296875 
M 18.40625 47.703125 
Q 20.5625 51.703125 24.34375 53.84375 
Q 28.125 56 33.109375 56 
Q 42.96875 56 48.625 48.40625 
Q 54.296875 40.828125 54.296875 27.484375 
Q 54.296875 13.96875 48.609375 6.265625 
Q 42.921875 -1.421875 33.015625 -1.421875 
Q 28.125 -1.421875 24.390625 0.703125 
Q 20.65625 2.828125 18.40625 6.890625 
L 18.40625 0 
L 9.421875 0 
L 9.421875 75.984375 
L 18.40625 75.984375 
z
" id="DejaVuSansMono-62"/>
     <path d="M 51.3125 33.890625 
L 51.3125 0 
L 42.28125 0 
L 42.28125 33.890625 
Q 42.28125 41.265625 39.6875 44.71875 
Q 37.109375 48.1875 31.59375 48.1875 
Q 25.296875 48.1875 21.890625 43.71875 
Q 18.5 39.265625 18.5 30.90625 
L 18.5 0 
L 9.515625 0 
L 9.515625 54.6875 
L 18.5 54.6875 
L 18.5 46.484375 
Q 20.90625 51.171875 25 53.578125 
Q 29.109375 56 34.71875 56 
Q 43.0625 56 47.1875 50.5 
Q 51.3125 45.015625 51.3125 33.890625 
" id="DejaVuSansMono-6e"/>
     <path d="M 4.296875 25.59375 
L 55.90625 25.59375 
L 55.90625 17.1875 
L 4.296875 17.1875 
z
M 4.296875 45.40625 
L 55.90625 45.40625 
L 55.90625 37.109375 
L 4.296875 37.109375 
z
" id="DejaVuSansMono-3d"/>
     <path d="M 43.703125 72.90625 
L 43.703125 45.796875 
L 35.203125 45.796875 
L 35.203125 72.90625 
z
M 25 72.90625 
L 25 45.796875 
L 16.5 45.796875 
L 16.5 72.90625 
z
" id="DejaVuSansMono-22"/>
     <path d="M 51.8125 2.78125 
Q 48.1875 0.6875 44.359375 -0.359375 
Q 40.53125 -1.421875 36.53125 -1.421875 
Q 23.828125 -1.421875 16.671875 6.1875 
Q 9.515625 13.8125 9.515625 27.296875 
Q 9.515625 40.765625 16.671875 48.375 
Q 23.828125 56 36.53125 56 
Q 40.484375 56 44.234375 54.96875 
Q 48 53.953125 51.8125 51.8125 
L 51.8125 42.390625 
Q 48.25 45.5625 44.65625 46.96875 
Q 41.0625 48.390625 36.53125 48.390625 
Q 28.078125 48.390625 23.53125 42.921875 
Q 19 37.453125 19 27.296875 
Q 19 17.1875 23.5625 11.6875 
Q 28.125 6.203125 36.53125 6.203125 
Q 41.21875 6.203125 44.921875 7.640625 
Q 48.640625 9.078125 51.8125 12.109375 
z
" id="DejaVuSansMono-63"/>
     <path d="M 30.078125 48.390625 
Q 23.25 48.390625 19.734375 43.0625 
Q 16.21875 37.75 16.21875 27.296875 
Q 16.21875 16.890625 19.734375 11.546875 
Q 23.25 6.203125 30.078125 6.203125 
Q 36.96875 6.203125 40.484375 11.546875 
Q 44 16.890625 44 27.296875 
Q 44 37.75 40.484375 43.0625 
Q 36.96875 48.390625 30.078125 48.390625 
M 30.078125 56 
Q 41.453125 56 47.484375 48.625 
Q 53.515625 41.265625 53.515625 27.296875 
Q 53.515625 13.28125 47.5 5.921875 
Q 41.5 -1.421875 30.078125 -1.421875 
Q 18.703125 -1.421875 12.6875 5.921875 
Q 6.6875 13.28125 6.6875 27.296875 
Q 6.6875 41.265625 12.6875 48.625 
Q 18.703125 56 30.078125 56 
" id="DejaVuSansMono-6f"/>
     <path d="M 17 75.875 
L 24.8125 75.875 
Q 32.171875 64.359375 35.78125 53.3125 
Q 39.40625 42.28125 39.40625 31.390625 
Q 39.40625 20.40625 35.78125 9.375 
Q 32.171875 -1.65625 24.8125 -13.1875 
L 17 -13.1875 
Q 23.484375 -1.859375 26.6875 9.21875 
Q 29.890625 20.3125 29.890625 31.390625 
Q 29.890625 42.53125 26.6875 53.609375 
Q 23.484375 64.703125 17 75.875 
" id="DejaVuSansMono-29"/>
    </defs>
    <g transform="translate(95.348609 20.4219)scale(0.1728 -0.1728)">
     <use xlink:href="#DejaVuSansMono-68"/>
     <use x="60.205078" xlink:href="#DejaVuSansMono-69"/>
     <use x="120.410156" xlink:href="#DejaVuSansMono-73"/>
     <use x="180.615234" xlink:href="#DejaVuSansMono-74"/>
     <use x="240.820312" xlink:href="#DejaVuSansMono-28"/>
     <use x="301.025391" xlink:href="#DejaVuSansMono-74"/>
     <use x="361.230469" xlink:href="#DejaVuSansMono-2c"/>
     <use x="421.435547" xlink:href="#DejaVuSansMono-20"/>
     <use x="481.640625" xlink:href="#DejaVuSansMono-62"/>
     <use x="541.845703" xlink:href="#DejaVuSansMono-69"/>
     <use x="602.050781" xlink:href="#DejaVuSansMono-6e"/>
     <use x="662.255859" xlink:href="#DejaVuSansMono-73"/>
     <use x="722.460938" xlink:href="#DejaVuSansMono-3d"/>
     <use x="782.666016" xlink:href="#DejaVuSansMono-22"/>
     <use x="842.871094" xlink:href="#DejaVuSansMono-73"/>
     <use x="903.076172" xlink:href="#DejaVuSansMono-63"/>
     <use x="963.28125" xlink:href="#DejaVuSansMono-6f"/>
     <use x="1023.486328" xlink:href="#DejaVuSansMono-74"/>
     <use x="1083.691406" xlink:href="#DejaVuSansMono-74"/>
     <use x="1143.896484" xlink:href="#DejaVuSansMono-22"/>
     <use x="1204.101562" xlink:href="#DejaVuSansMono-29"/>
    </g>
   </g>
  </g>
  <g id="axes_2">
   <g id="patch_8">
    <path d="M 399.308432 236.6619 
L 677.49025 236.6619 
L 677.49025 26.4219 
L 399.308432 26.4219 
z
" style="fill:#ffffff;"/>
   </g>
   <g id="matplotlib.axis_3">
    <g id="xtick_8">
     <g id="line2d_15"/>
     <g id="text_18">
      <!-- −15 -->
      <g style="fill:#565656;" transform="translate(399.16231 251.780025)scale(0.12 -0.12)">
       <use xlink:href="#DejaVuSans-2212"/>
       <use x="83.789062" xlink:href="#DejaVuSans-31"/>
       <use x="147.412109" xlink:href="#DejaVuSans-35"/>
      </g>
     </g>
    </g>
    <g id="xtick_9">
     <g id="line2d_16"/>
     <g id="text_19">
      <!-- −10 -->
      <g style="fill:#565656;" transform="translate(440.994436 251.780025)scale(0.12 -0.12)">
       <use xlink:href="#DejaVuSans-2212"/>
       <use x="83.789062" xlink:href="#DejaVuSans-31"/>
       <use x="147.412109" xlink:href="#DejaVuSans-30"/>
      </g>
     </g>
    </g>
    <g id="xtick_10">
     <g id="line2d_17"/>
     <g id="text_20">
      <!-- −5 -->
      <g style="fill:#565656;" transform="translate(486.644061 251.780025)scale(0.12 -0.12)">
       <use xlink:href="#DejaVuSans-2212"/>
       <use x="83.789062" xlink:href="#DejaVuSans-35"/>
      </g>
     </g>
    </g>
    <g id="xtick_11">
     <g id="line2d_18"/>
     <g id="text_21">
      <!-- 0 -->
      <g style="fill:#565656;" transform="translate(533.503999 251.780025)scale(0.12 -0.12)">
       <use xlink:href="#DejaVuSans-30"/>
      </g>
     </g>
    </g>
    <g id="xtick_12">
     <g id="line2d_19"/>
     <g id="text_22">
      <!-- 5 -->
      <g style="fill:#565656;" transform="translate(575.336124 251.780025)scale(0.12 -0.12)">
       <use xlink:href="#DejaVuSans-35"/>
      </g>
     </g>
    </g>
    <g id="xtick_13">
     <g id="line2d_20"/>
     <g id="text_23">
      <!-- 10 -->
      <g style="fill:#565656;" transform="translate(613.35075 251.780025)scale(0.12 -0.12)">
       <use xlink:href="#DejaVuSans-31"/>
       <use x="63.623047" xlink:href="#DejaVuSans-30"/>
      </g>
     </g>
    </g>
    <g id="xtick_14">
     <g id="line2d_21"/>
     <g id="text_24">
      <!-- 15 -->
      <g style="fill:#565656;" transform="translate(655.182875 251.780025)scale(0.12 -0.12)">
       <use xlink:href="#DejaVuSans-31"/>
       <use x="63.623047" xlink:href="#DejaVuSans-35"/>
      </g>
     </g>
    </g>
    <g id="text_25">
     <!-- t -->
     <g transform="translate(535.576716 269.2174)scale(0.144 -0.144)">
      <use xlink:href="#DejaVuSans-74"/>
     </g>
    </g>
   </g>
   <g id="matplotlib.axis_4">
    <g id="ytick_8">
     <g id="line2d_22"/>
     <g id="text_26">
      <!-- 0.000 -->
      <g style="fill:#565656;" transform="translate(358.954682 241.220962)scale(0.12 -0.12)">
       <use xlink:href="#DejaVuSans-30"/>
       <use x="63.623047" xlink:href="#DejaVuSans-2e"/>
       <use x="95.410156" xlink:href="#DejaVuSans-30"/>
       <use x="159.033203" xlink:href="#DejaVuSans-30"/>
       <use x="222.65625" xlink:href="#DejaVuSans-30"/>
      </g>
     </g>
    </g>
    <g id="ytick_9">
     <g id="line2d_23"/>
     <g id="text_27">
      <!-- 0.025 -->
      <g style="fill:#565656;" transform="translate(358.954682 213.971811)scale(0.12 -0.12)">
       <use xlink:href="#DejaVuSans-30"/>
       <use x="63.623047" xlink:href="#DejaVuSans-2e"/>
       <use x="95.410156" xlink:href="#DejaVuSans-30"/>
       <use x="159.033203" xlink:href="#DejaVuSans-32"/>
       <use x="222.65625" xlink:href="#DejaVuSans-35"/>
      </g>
     </g>
    </g>
    <g id="ytick_10">
     <g id="line2d_24"/>
     <g id="text_28">
      <!-- 0.050 -->
      <g style="fill:#565656;" transform="translate(358.954682 186.722659)scale(0.12 -0.12)">
       <use xlink:href="#DejaVuSans-30"/>
       <use x="63.623047" xlink:href="#DejaVuSans-2e"/>
       <use x="95.410156" xlink:href="#DejaVuSans-30"/>
       <use x="159.033203" xlink:href="#DejaVuSans-35"/>
       <use x="222.65625" xlink:href="#DejaVuSans-30"/>
      </g>
     </g>
    </g>
    <g id="ytick_11">
     <g id="line2d_25"/>
     <g id="text_29">
      <!-- 0.075 -->
      <g style="fill:#565656;" transform="translate(358.954682 159.473507)scale(0.12 -0.12)">
       <use xlink:href="#DejaVuSans-30"/>
       <use x="63.623047" xlink:href="#DejaVuSans-2e"/>
       <use x="95.410156" xlink:href="#DejaVuSans-30"/>
       <use x="159.033203" xlink:href="#DejaVuSans-37"/>
       <use x="222.65625" xlink:href="#DejaVuSans-35"/>
      </g>
     </g>
    </g>
    <g id="ytick_12">
     <g id="line2d_26"/>
     <g id="text_30">
      <!-- 0.100 -->
      <g style="fill:#565656;" transform="translate(358.954682 132.224356)scale(0.12 -0.12)">
       <use xlink:href="#DejaVuSans-30"/>
       <use x="63.623047" xlink:href="#DejaVuSans-2e"/>
       <use x="95.410156" xlink:href="#DejaVuSans-31"/>
       <use x="159.033203" xlink:href="#DejaVuSans-30"/>
       <use x="222.65625" xlink:href="#DejaVuSans-30"/>
      </g>
     </g>
    </g>
    <g id="ytick_13">
     <g id="line2d_27"/>
     <g id="text_31">
      <!-- 0.125 -->
      <g style="fill:#565656;" transform="translate(358.954682 104.975204)scale(0.12 -0.12)">
       <use xlink:href="#DejaVuSans-30"/>
       <use x="63.623047" xlink:href="#DejaVuSans-2e"/>
       <use x="95.410156" xlink:href="#DejaVuSans-31"/>
       <use x="159.033203" xlink:href="#DejaVuSans-32"/>
       <use x="222.65625" xlink:href="#DejaVuSans-35"/>
      </g>
     </g>
    </g>
    <g id="ytick_14">
     <g id="line2d_28"/>
     <g id="text_32">
      <!-- 0.150 -->
      <g style="fill:#565656;" transform="translate(358.954682 77.726052)scale(0.12 -0.12)">
       <use xlink:href="#DejaVuSans-30"/>
       <use x="63.623047" xlink:href="#DejaVuSans-2e"/>
       <use x="95.410156" xlink:href="#DejaVuSans-31"/>
       <use x="159.033203" xlink:href="#DejaVuSans-35"/>
       <use x="222.65625" xlink:href="#DejaVuSans-30"/>
      </g>
     </g>
    </g>
    <g id="ytick_15">
     <g id="line2d_29"/>
     <g id="text_33">
      <!-- 0.175 -->
      <g style="fill:#565656;" transform="translate(358.954682 50.476901)scale(0.12 -0.12)">
       <use xlink:href="#DejaVuSans-30"/>
       <use x="63.623047" xlink:href="#DejaVuSans-2e"/>
       <use x="95.410156" xlink:href="#DejaVuSans-31"/>
       <use x="159.033203" xlink:href="#DejaVuSans-37"/>
       <use x="222.65625" xlink:href="#DejaVuSans-35"/>
      </g>
     </g>
    </g>
    <g id="text_34">
     <!-- P(t) -->
     <g transform="translate(351.959932 144.32415)rotate(-90)scale(0.144 -0.144)">
      <use xlink:href="#DejaVuSans-50"/>
      <use x="60.302734" xlink:href="#DejaVuSans-28"/>
      <use x="99.316406" xlink:href="#DejaVuSans-74"/>
      <use x="138.525391" xlink:href="#DejaVuSans-29"/>
     </g>
    </g>
   </g>
   <g id="patch_9">
    <path clip-path="url(#p6c70c6d4ad)" d="M 411.95306 236.6619 
L 411.95306 234.245869 
L 418.275374 234.245869 
L 418.275374 233.641861 
L 424.597688 233.641861 
L 424.597688 231.829838 
L 430.920002 231.829838 
L 430.920002 232.131842 
L 437.242316 232.131842 
L 437.242316 233.037853 
L 443.56463 233.037853 
L 443.56463 230.621822 
L 449.886944 230.621822 
L 449.886944 230.319819 
L 456.209258 230.319819 
L 456.209258 230.923826 
L 462.531572 230.923826 
L 462.531572 224.883749 
L 468.853886 224.883749 
L 468.853886 221.259702 
L 475.1762 221.259702 
L 475.1762 214.615617 
L 481.498514 214.615617 
L 481.498514 204.951493 
L 487.820829 204.951493 
L 487.820829 177.167136 
L 494.143143 177.167136 
L 494.143143 122.504434 
L 500.465457 122.504434 
L 500.465457 36.433329 
L 506.787771 36.433329 
L 506.787771 119.786399 
L 513.110085 119.786399 
L 513.110085 171.731066 
L 519.432399 171.731066 
L 519.432399 180.791182 
L 525.754713 180.791182 
L 525.754713 125.524473 
L 532.077027 125.524473 
L 532.077027 191.965326 
L 538.399341 191.965326 
L 538.399341 197.401396 
L 544.721655 197.401396 
L 544.721655 170.523051 
L 551.043969 170.523051 
L 551.043969 127.6385 
L 557.366283 127.6385 
L 557.366283 168.10702 
L 563.688597 168.10702 
L 563.688597 169.919043 
L 570.010911 169.919043 
L 570.010911 172.03307 
L 576.333225 172.03307 
L 576.333225 193.475345 
L 582.655539 193.475345 
L 582.655539 211.897582 
L 588.977853 211.897582 
L 588.977853 218.541667 
L 595.300167 218.541667 
L 595.300167 225.487756 
L 601.622481 225.487756 
L 601.622481 224.883749 
L 607.944795 224.883749 
L 607.944795 230.621822 
L 614.26711 230.621822 
L 614.26711 232.131842 
L 620.589424 232.131842 
L 620.589424 229.413807 
L 626.911738 229.413807 
L 626.911738 234.547873 
L 633.234052 234.547873 
L 633.234052 233.943865 
L 639.556366 233.943865 
L 639.556366 231.829838 
L 645.87868 231.829838 
L 645.87868 233.943865 
L 652.200994 233.943865 
L 652.200994 233.943865 
L 658.523308 233.943865 
L 658.523308 235.453884 
L 664.845622 235.453884 
L 664.845622 236.6619 
L 658.523308 236.6619 
L 658.523308 236.6619 
L 652.200994 236.6619 
L 652.200994 236.6619 
L 645.87868 236.6619 
L 645.87868 236.6619 
L 639.556366 236.6619 
L 639.556366 236.6619 
L 633.234052 236.6619 
L 633.234052 236.6619 
L 626.911738 236.6619 
L 626.911738 236.6619 
L 620.589424 236.6619 
L 620.589424 236.6619 
L 614.26711 236.6619 
L 614.26711 236.6619 
L 607.944795 236.6619 
L 607.944795 236.6619 
L 601.622481 236.6619 
L 601.622481 236.6619 
L 595.300167 236.6619 
L 595.300167 236.6619 
L 588.977853 236.6619 
L 588.977853 236.6619 
L 582.655539 236.6619 
L 582.655539 236.6619 
L 576.333225 236.6619 
L 576.333225 236.6619 
L 570.010911 236.6619 
L 570.010911 236.6619 
L 563.688597 236.6619 
L 563.688597 236.6619 
L 557.366283 236.6619 
L 557.366283 236.6619 
L 551.043969 236.6619 
L 551.043969 236.6619 
L 544.721655 236.6619 
L 544.721655 236.6619 
L 538.399341 236.6619 
L 538.399341 236.6619 
L 532.077027 236.6619 
L 532.077027 236.6619 
L 525.754713 236.6619 
L 525.754713 236.6619 
L 519.432399 236.6619 
L 519.432399 236.6619 
L 513.110085 236.6619 
L 513.110085 236.6619 
L 506.787771 236.6619 
L 506.787771 236.6619 
L 500.465457 236.6619 
L 500.465457 236.6619 
L 494.143143 236.6619 
L 494.143143 236.6619 
L 487.820829 236.6619 
L 487.820829 236.6619 
L 481.498514 236.6619 
L 481.498514 236.6619 
L 475.1762 236.6619 
L 475.1762 236.6619 
L 468.853886 236.6619 
L 468.853886 236.6619 
L 462.531572 236.6619 
L 462.531572 236.6619 
L 456.209258 236.6619 
L 456.209258 236.6619 
L 449.886944 236.6619 
L 449.886944 236.6619 
L 443.56463 236.6619 
L 443.56463 236.6619 
L 437.242316 236.6619 
L 437.242316 236.6619 
L 430.920002 236.6619 
L 430.920002 236.6619 
L 424.597688 236.6619 
L 424.597688 236.6619 
L 418.275374 236.6619 
L 418.275374 236.6619 
z
" style="fill:#e24a33;opacity:0.2;"/>
   </g>
   <g id="patch_10">
    <path d="M 399.308432 236.6619 
L 399.308432 26.4219 
" style="fill:none;stroke:#aaaaaa;stroke-linecap:square;stroke-linejoin:miter;"/>
   </g>
   <g id="patch_11">
    <path d="M 677.49025 236.6619 
L 677.49025 26.4219 
" style="fill:none;stroke:#aaaaaa;stroke-linecap:square;stroke-linejoin:miter;"/>
   </g>
   <g id="patch_12">
    <path d="M 399.308432 236.6619 
L 677.49025 236.6619 
" style="fill:none;stroke:#aaaaaa;stroke-linecap:square;stroke-linejoin:miter;"/>
   </g>
   <g id="patch_13">
    <path d="M 399.308432 26.4219 
L 677.49025 26.4219 
" style="fill:none;stroke:#aaaaaa;stroke-linecap:square;stroke-linejoin:miter;"/>
   </g>
   <g id="text_35">
    <!-- hist(t, bins="freedman") -->
    <defs>
     <path d="M 51.90625 75.984375 
L 51.90625 68.5 
L 41.703125 68.5 
Q 36.859375 68.5 34.984375 66.515625 
Q 33.109375 64.546875 33.109375 59.515625 
L 33.109375 54.6875 
L 51.90625 54.6875 
L 51.90625 47.703125 
L 33.109375 47.703125 
L 33.109375 0 
L 24.125 0 
L 24.125 47.703125 
L 9.515625 47.703125 
L 9.515625 54.6875 
L 24.125 54.6875 
L 24.125 58.5 
Q 24.125 67.484375 28.25 71.734375 
Q 32.375 75.984375 41.109375 75.984375 
z
" id="DejaVuSansMono-66"/>
     <path d="M 56.390625 43.40625 
Q 53.515625 45.65625 50.53125 46.671875 
Q 47.5625 47.703125 44 47.703125 
Q 35.59375 47.703125 31.140625 42.421875 
Q 26.703125 37.15625 26.703125 27.203125 
L 26.703125 0 
L 17.671875 0 
L 17.671875 54.6875 
L 26.703125 54.6875 
L 26.703125 44 
Q 28.953125 49.8125 33.609375 52.90625 
Q 38.28125 56 44.671875 56 
Q 48 56 50.875 55.171875 
Q 53.765625 54.34375 56.390625 52.59375 
z
" id="DejaVuSansMono-72"/>
     <path d="M 54.296875 29.59375 
L 54.296875 25.203125 
L 15.375 25.203125 
L 15.375 24.90625 
Q 15.375 15.96875 20.03125 11.078125 
Q 24.703125 6.203125 33.203125 6.203125 
Q 37.5 6.203125 42.1875 7.5625 
Q 46.875 8.9375 52.203125 11.71875 
L 52.203125 2.78125 
Q 47.078125 0.6875 42.3125 -0.359375 
Q 37.546875 -1.421875 33.109375 -1.421875 
Q 20.359375 -1.421875 13.171875 6.21875 
Q 6 13.875 6 27.296875 
Q 6 40.375 13.03125 48.1875 
Q 20.0625 56 31.78125 56 
Q 42.234375 56 48.265625 48.921875 
Q 54.296875 41.84375 54.296875 29.59375 
M 45.3125 32.234375 
Q 45.125 40.140625 41.578125 44.265625 
Q 38.03125 48.390625 31.390625 48.390625 
Q 24.90625 48.390625 20.703125 44.09375 
Q 16.5 39.796875 15.71875 32.171875 
z
" id="DejaVuSansMono-65"/>
     <path d="M 41.890625 47.703125 
L 41.890625 75.984375 
L 50.875 75.984375 
L 50.875 0 
L 41.890625 0 
L 41.890625 6.890625 
Q 39.65625 2.828125 35.90625 0.703125 
Q 32.171875 -1.421875 27.296875 -1.421875 
Q 17.390625 -1.421875 11.6875 6.265625 
Q 6 13.96875 6 27.484375 
Q 6 40.828125 11.71875 48.40625 
Q 17.4375 56 27.296875 56 
Q 32.234375 56 35.984375 53.875 
Q 39.75 51.765625 41.890625 47.703125 
M 15.484375 27.296875 
Q 15.484375 16.84375 18.796875 11.515625 
Q 22.125 6.203125 28.609375 6.203125 
Q 35.109375 6.203125 38.5 11.5625 
Q 41.890625 16.9375 41.890625 27.296875 
Q 41.890625 37.703125 38.5 43.046875 
Q 35.109375 48.390625 28.609375 48.390625 
Q 22.125 48.390625 18.796875 43.0625 
Q 15.484375 37.75 15.484375 27.296875 
" id="DejaVuSansMono-64"/>
     <path d="M 33.015625 49.125 
Q 34.671875 52.640625 37.234375 54.3125 
Q 39.796875 56 43.40625 56 
Q 50 56 52.703125 50.890625 
Q 55.421875 45.796875 55.421875 31.6875 
L 55.421875 0 
L 47.21875 0 
L 47.21875 31.296875 
Q 47.21875 42.875 45.921875 45.671875 
Q 44.625 48.484375 41.21875 48.484375 
Q 37.3125 48.484375 35.859375 45.484375 
Q 34.421875 42.484375 34.421875 31.296875 
L 34.421875 0 
L 26.21875 0 
L 26.21875 31.296875 
Q 26.21875 43.015625 24.828125 45.75 
Q 23.4375 48.484375 19.828125 48.484375 
Q 16.265625 48.484375 14.875 45.484375 
Q 13.484375 42.484375 13.484375 31.296875 
L 13.484375 0 
L 5.328125 0 
L 5.328125 54.6875 
L 13.484375 54.6875 
L 13.484375 50 
Q 15.09375 52.9375 17.5 54.46875 
Q 19.921875 56 23 56 
Q 26.703125 56 29.171875 54.296875 
Q 31.640625 52.59375 33.015625 49.125 
" id="DejaVuSansMono-6d"/>
     <path d="M 34.28125 27.484375 
L 31.296875 27.484375 
Q 23.4375 27.484375 19.453125 24.71875 
Q 15.484375 21.96875 15.484375 16.5 
Q 15.484375 11.578125 18.453125 8.84375 
Q 21.4375 6.109375 26.703125 6.109375 
Q 34.125 6.109375 38.375 11.25 
Q 42.625 16.40625 42.671875 25.484375 
L 42.671875 27.484375 
z
M 51.703125 31.203125 
L 51.703125 0 
L 42.671875 0 
L 42.671875 8.109375 
Q 39.796875 3.21875 35.421875 0.890625 
Q 31.0625 -1.421875 24.8125 -1.421875 
Q 16.453125 -1.421875 11.46875 3.296875 
Q 6.5 8.015625 6.5 15.921875 
Q 6.5 25.046875 12.625 29.78125 
Q 18.75 34.515625 30.609375 34.515625 
L 42.671875 34.515625 
L 42.671875 35.9375 
Q 42.625 42.484375 39.34375 45.4375 
Q 36.078125 48.390625 28.90625 48.390625 
Q 24.3125 48.390625 19.625 47.0625 
Q 14.9375 45.75 10.5 43.21875 
L 10.5 52.203125 
Q 15.484375 54.109375 20.046875 55.046875 
Q 24.609375 56 28.90625 56 
Q 35.6875 56 40.5 54 
Q 45.3125 52 48.296875 48 
Q 50.140625 45.5625 50.921875 41.96875 
Q 51.703125 38.375 51.703125 31.203125 
" id="DejaVuSansMono-61"/>
    </defs>
    <g transform="translate(413.562141 20.4219)scale(0.1728 -0.1728)">
     <use xlink:href="#DejaVuSansMono-68"/>
     <use x="60.205078" xlink:href="#DejaVuSansMono-69"/>
     <use x="120.410156" xlink:href="#DejaVuSansMono-73"/>
     <use x="180.615234" xlink:href="#DejaVuSansMono-74"/>
     <use x="240.820312" xlink:href="#DejaVuSansMono-28"/>
     <use x="301.025391" xlink:href="#DejaVuSansMono-74"/>
     <use x="361.230469" xlink:href="#DejaVuSansMono-2c"/>
     <use x="421.435547" xlink:href="#DejaVuSansMono-20"/>
     <use x="481.640625" xlink:href="#DejaVuSansMono-62"/>
     <use x="541.845703" xlink:href="#DejaVuSansMono-69"/>
     <use x="602.050781" xlink:href="#DejaVuSansMono-6e"/>
     <use x="662.255859" xlink:href="#DejaVuSansMono-73"/>
     <use x="722.460938" xlink:href="#DejaVuSansMono-3d"/>
     <use x="782.666016" xlink:href="#DejaVuSansMono-22"/>
     <use x="842.871094" xlink:href="#DejaVuSansMono-66"/>
     <use x="903.076172" xlink:href="#DejaVuSansMono-72"/>
     <use x="963.28125" xlink:href="#DejaVuSansMono-65"/>
     <use x="1023.486328" xlink:href="#DejaVuSansMono-65"/>
     <use x="1083.691406" xlink:href="#DejaVuSansMono-64"/>
     <use x="1143.896484" xlink:href="#DejaVuSansMono-6d"/>
     <use x="1204.101562" xlink:href="#DejaVuSansMono-61"/>
     <use x="1264.306641" xlink:href="#DejaVuSansMono-6e"/>
     <use x="1324.511719" xlink:href="#DejaVuSansMono-22"/>
     <use x="1384.716797" xlink:href="#DejaVuSansMono-29"/>
    </g>
   </g>
  </g>
 </g>
 <defs>
  <clipPath id="p91f2692a4e">
   <rect height="210.24" width="278.181818" x="65.49025" y="26.4219"/>
  </clipPath>
  <clipPath id="p6c70c6d4ad">
   <rect height="210.24" width="278.181818" x="399.308432" y="26.4219"/>
  </clipPath>
 </defs>
</svg>
