<?xml version="1.0" encoding="utf-8" standalone="no"?>
<!DOCTYPE svg PUBLIC "-//W3C//DTD SVG 1.1//EN"
  "http://www.w3.org/Graphics/SVG/1.1/DTD/svg11.dtd">
<!-- Created with matplotlib (http://matplotlib.org/) -->
<svg height="279pt" version="1.1" viewBox="0 0 684 279" width="684pt" xmlns="http://www.w3.org/2000/svg" xmlns:xlink="http://www.w3.org/1999/xlink">
 <defs>
  <style type="text/css">
*{stroke-linecap:butt;stroke-linejoin:round;}
  </style>
 </defs>
 <g id="figure_1">
  <g id="patch_1">
   <path d="M 0 279.41215 
L 684.69025 279.41215 
L 684.69025 0 
L 0 0 
z
" style="fill:none;"/>
  </g>
  <g id="axes_1">
   <g id="patch_2">
    <path d="M 65.49025 236.6619 
L 343.672068 236.6619 
L 343.672068 26.4219 
L 65.49025 26.4219 
z
" style="fill:#ffffff;"/>
   </g>
   <g id="matplotlib.axis_1">
    <g id="xtick_1">
     <g id="line2d_1"/>
     <g id="text_1">
      <!-- −15 -->
      <defs>
       <path d="M 10.59375 35.5 
L 73.1875 35.5 
L 73.1875 27.203125 
L 10.59375 27.203125 
z
" id="DejaVuSans-2212"/>
       <path d="M 12.40625 8.296875 
L 28.515625 8.296875 
L 28.515625 63.921875 
L 10.984375 60.40625 
L 10.984375 69.390625 
L 28.421875 72.90625 
L 38.28125 72.90625 
L 38.28125 8.296875 
L 54.390625 8.296875 
L 54.390625 0 
L 12.40625 0 
z
" id="DejaVuSans-31"/>
       <path d="M 10.796875 72.90625 
L 49.515625 72.90625 
L 49.515625 64.59375 
L 19.828125 64.59375 
L 19.828125 46.734375 
Q 21.96875 47.46875 24.109375 47.828125 
Q 26.265625 48.1875 28.421875 48.1875 
Q 40.625 48.1875 47.75 41.5 
Q 54.890625 34.8125 54.890625 23.390625 
Q 54.890625 11.625 47.5625 5.09375 
Q 40.234375 -1.421875 26.90625 -1.421875 
Q 22.3125 -1.421875 17.546875 -0.640625 
Q 12.796875 0.140625 7.71875 1.703125 
L 7.71875 11.625 
Q 12.109375 9.234375 16.796875 8.0625 
Q 21.484375 6.890625 26.703125 6.890625 
Q 35.15625 6.890625 40.078125 11.328125 
Q 45.015625 15.765625 45.015625 23.390625 
Q 45.015625 31 40.078125 35.4375 
Q 35.15625 39.890625 26.703125 39.890625 
Q 22.75 39.890625 18.8125 39.015625 
Q 14.890625 38.140625 10.796875 36.28125 
z
" id="DejaVuSans-35"/>
      </defs>
      <g style="fill:#565656;" transform="translate(65.342443 251.780025)scale(0.12 -0.12)">
       <use xlink:href="#DejaVuSans-2212"/>
       <use x="83.789062" xlink:href="#DejaVuSans-31"/>
       <use x="147.412109" xlink:href="#DejaVuSans-35"/>
      </g>
     </g>
    </g>
    <g id="xtick_2">
     <g id="line2d_2"/>
     <g id="text_2">
      <!-- −10 -->
      <defs>
       <path d="M 31.78125 66.40625 
Q 24.171875 66.40625 20.328125 58.90625 
Q 16.5 51.421875 16.5 36.375 
Q 16.5 21.390625 20.328125 13.890625 
Q 24.171875 6.390625 31.78125 6.390625 
Q 39.453125 6.390625 43.28125 13.890625 
Q 47.125 21.390625 47.125 36.375 
Q 47.125 51.421875 43.28125 58.90625 
Q 39.453125 66.40625 31.78125 66.40625 
M 31.78125 74.21875 
Q 44.046875 74.21875 50.515625 64.515625 
Q 56.984375 54.828125 56.984375 36.375 
Q 56.984375 17.96875 50.515625 8.265625 
Q 44.046875 -1.421875 31.78125 -1.421875 
Q 19.53125 -1.421875 13.0625 8.265625 
Q 6.59375 17.96875 6.59375 36.375 
Q 6.59375 54.828125 13.0625 64.515625 
Q 19.53125 74.21875 31.78125 74.21875 
" id="DejaVuSans-30"/>
      </defs>
      <g style="fill:#565656;" transform="translate(107.725866 251.780025)scale(0.12 -0.12)">
       <use xlink:href="#DejaVuSans-2212"/>
       <use x="83.789062" xlink:href="#DejaVuSans-31"/>
       <use x="147.412109" xlink:href="#DejaVuSans-30"/>
      </g>
     </g>
    </g>
    <g id="xtick_3">
     <g id="line2d_3"/>
     <g id="text_3">
      <!-- −5 -->
      <g style="fill:#565656;" transform="translate(153.92679 251.780025)scale(0.12 -0.12)">
       <use xlink:href="#DejaVuSans-2212"/>
       <use x="83.789062" xlink:href="#DejaVuSans-35"/>
      </g>
     </g>
    </g>
    <g id="xtick_4">
     <g id="line2d_4"/>
     <g id="text_4">
      <!-- 0 -->
      <g style="fill:#565656;" transform="translate(201.338026 251.780025)scale(0.12 -0.12)">
       <use xlink:href="#DejaVuSans-30"/>
      </g>
     </g>
    </g>
    <g id="xtick_5">
     <g id="line2d_5"/>
     <g id="text_5">
      <!-- 5 -->
      <g style="fill:#565656;" transform="translate(243.72145 251.780025)scale(0.12 -0.12)">
       <use xlink:href="#DejaVuSans-35"/>
      </g>
     </g>
    </g>
    <g id="xtick_6">
     <g id="line2d_6"/>
     <g id="text_6">
      <!-- 10 -->
      <g style="fill:#565656;" transform="translate(282.287373 251.780025)scale(0.12 -0.12)">
       <use xlink:href="#DejaVuSans-31"/>
       <use x="63.623047" xlink:href="#DejaVuSans-30"/>
      </g>
     </g>
    </g>
    <g id="xtick_7">
     <g id="line2d_7"/>
     <g id="text_7">
      <!-- 15 -->
      <g style="fill:#565656;" transform="translate(324.670797 251.780025)scale(0.12 -0.12)">
       <use xlink:href="#DejaVuSans-31"/>
       <use x="63.623047" xlink:href="#DejaVuSans-35"/>
      </g>
     </g>
    </g>
    <g id="text_8">
     <!-- t -->
     <defs>
      <path d="M 18.3125 70.21875 
L 18.3125 54.6875 
L 36.8125 54.6875 
L 36.8125 47.703125 
L 18.3125 47.703125 
L 18.3125 18.015625 
Q 18.3125 11.328125 20.140625 9.421875 
Q 21.96875 7.515625 27.59375 7.515625 
L 36.8125 7.515625 
L 36.8125 0 
L 27.59375 0 
Q 17.1875 0 13.234375 3.875 
Q 9.28125 7.765625 9.28125 18.015625 
L 9.28125 47.703125 
L 2.6875 47.703125 
L 2.6875 54.6875 
L 9.28125 54.6875 
L 9.28125 70.21875 
z
" id="DejaVuSans-74"/>
     </defs>
     <g transform="translate(201.758534 269.2174)scale(0.144 -0.144)">
      <use xlink:href="#DejaVuSans-74"/>
     </g>
    </g>
   </g>
   <g id="matplotlib.axis_2">
    <g id="ytick_1">
     <g id="line2d_8"/>
     <g id="text_9">
      <!-- 0.000 -->
      <defs>
       <path d="M 10.6875 12.40625 
L 21 12.40625 
L 21 0 
L 10.6875 0 
z
" id="DejaVuSans-2e"/>
      </defs>
      <g style="fill:#565656;" transform="translate(25.1365 241.220962)scale(0.12 -0.12)">
       <use xlink:href="#DejaVuSans-30"/>
       <use x="63.623047" xlink:href="#DejaVuSans-2e"/>
       <use x="95.410156" xlink:href="#DejaVuSans-30"/>
       <use x="159.033203" xlink:href="#DejaVuSans-30"/>
       <use x="222.65625" xlink:href="#DejaVuSans-30"/>
      </g>
     </g>
    </g>
    <g id="ytick_2">
     <g id="line2d_9"/>
     <g id="text_10">
      <!-- 0.025 -->
      <defs>
       <path d="M 19.1875 8.296875 
L 53.609375 8.296875 
L 53.609375 0 
L 7.328125 0 
L 7.328125 8.296875 
Q 12.9375 14.109375 22.625 23.890625 
Q 32.328125 33.6875 34.8125 36.53125 
Q 39.546875 41.84375 41.421875 45.53125 
Q 43.3125 49.21875 43.3125 52.78125 
Q 43.3125 58.59375 39.234375 62.25 
Q 35.15625 65.921875 28.609375 65.921875 
Q 23.96875 65.921875 18.8125 64.3125 
Q 13.671875 62.703125 7.8125 59.421875 
L 7.8125 69.390625 
Q 13.765625 71.78125 18.9375 73 
Q 24.125 74.21875 28.421875 74.21875 
Q 39.75 74.21875 46.484375 68.546875 
Q 53.21875 62.890625 53.21875 53.421875 
Q 53.21875 48.921875 51.53125 44.890625 
Q 49.859375 40.875 45.40625 35.40625 
Q 44.1875 33.984375 37.640625 27.21875 
Q 31.109375 20.453125 19.1875 8.296875 
" id="DejaVuSans-32"/>
      </defs>
      <g style="fill:#565656;" transform="translate(25.1365 214.158899)scale(0.12 -0.12)">
       <use xlink:href="#DejaVuSans-30"/>
       <use x="63.623047" xlink:href="#DejaVuSans-2e"/>
       <use x="95.410156" xlink:href="#DejaVuSans-30"/>
       <use x="159.033203" xlink:href="#DejaVuSans-32"/>
       <use x="222.65625" xlink:href="#DejaVuSans-35"/>
      </g>
     </g>
    </g>
    <g id="ytick_3">
     <g id="line2d_10"/>
     <g id="text_11">
      <!-- 0.050 -->
      <g style="fill:#565656;" transform="translate(25.1365 187.096836)scale(0.12 -0.12)">
       <use xlink:href="#DejaVuSans-30"/>
       <use x="63.623047" xlink:href="#DejaVuSans-2e"/>
       <use x="95.410156" xlink:href="#DejaVuSans-30"/>
       <use x="159.033203" xlink:href="#DejaVuSans-35"/>
       <use x="222.65625" xlink:href="#DejaVuSans-30"/>
      </g>
     </g>
    </g>
    <g id="ytick_4">
     <g id="line2d_11"/>
     <g id="text_12">
      <!-- 0.075 -->
      <defs>
       <path d="M 8.203125 72.90625 
L 55.078125 72.90625 
L 55.078125 68.703125 
L 28.609375 0 
L 18.3125 0 
L 43.21875 64.59375 
L 8.203125 64.59375 
z
" id="DejaVuSans-37"/>
      </defs>
      <g style="fill:#565656;" transform="translate(25.1365 160.034773)scale(0.12 -0.12)">
       <use xlink:href="#DejaVuSans-30"/>
       <use x="63.623047" xlink:href="#DejaVuSans-2e"/>
       <use x="95.410156" xlink:href="#DejaVuSans-30"/>
       <use x="159.033203" xlink:href="#DejaVuSans-37"/>
       <use x="222.65625" xlink:href="#DejaVuSans-35"/>
      </g>
     </g>
    </g>
    <g id="ytick_5">
     <g id="line2d_12"/>
     <g id="text_13">
      <!-- 0.100 -->
      <g style="fill:#565656;" transform="translate(25.1365 132.97271)scale(0.12 -0.12)">
       <use xlink:href="#DejaVuSans-30"/>
       <use x="63.623047" xlink:href="#DejaVuSans-2e"/>
       <use x="95.410156" xlink:href="#DejaVuSans-31"/>
       <use x="159.033203" xlink:href="#DejaVuSans-30"/>
       <use x="222.65625" xlink:href="#DejaVuSans-30"/>
      </g>
     </g>
    </g>
    <g id="ytick_6">
     <g id="line2d_13"/>
     <g id="text_14">
      <!-- 0.125 -->
      <g style="fill:#565656;" transform="translate(25.1365 105.910647)scale(0.12 -0.12)">
       <use xlink:href="#DejaVuSans-30"/>
       <use x="63.623047" xlink:href="#DejaVuSans-2e"/>
       <use x="95.410156" xlink:href="#DejaVuSans-31"/>
       <use x="159.033203" xlink:href="#DejaVuSans-32"/>
       <use x="222.65625" xlink:href="#DejaVuSans-35"/>
      </g>
     </g>
    </g>
    <g id="ytick_7">
     <g id="line2d_14"/>
     <g id="text_15">
      <!-- 0.150 -->
      <g style="fill:#565656;" transform="translate(25.1365 78.848584)scale(0.12 -0.12)">
       <use xlink:href="#DejaVuSans-30"/>
       <use x="63.623047" xlink:href="#DejaVuSans-2e"/>
       <use x="95.410156" xlink:href="#DejaVuSans-31"/>
       <use x="159.033203" xlink:href="#DejaVuSans-35"/>
       <use x="222.65625" xlink:href="#DejaVuSans-30"/>
      </g>
     </g>
    </g>
    <g id="ytick_8">
     <g id="line2d_15"/>
     <g id="text_16">
      <!-- 0.175 -->
      <g style="fill:#565656;" transform="translate(25.1365 51.786521)scale(0.12 -0.12)">
       <use xlink:href="#DejaVuSans-30"/>
       <use x="63.623047" xlink:href="#DejaVuSans-2e"/>
       <use x="95.410156" xlink:href="#DejaVuSans-31"/>
       <use x="159.033203" xlink:href="#DejaVuSans-37"/>
       <use x="222.65625" xlink:href="#DejaVuSans-35"/>
      </g>
     </g>
    </g>
    <g id="text_17">
     <!-- P(t) -->
     <defs>
      <path d="M 19.671875 64.796875 
L 19.671875 37.40625 
L 32.078125 37.40625 
Q 38.96875 37.40625 42.71875 40.96875 
Q 46.484375 44.53125 46.484375 51.125 
Q 46.484375 57.671875 42.71875 61.234375 
Q 38.96875 64.796875 32.078125 64.796875 
z
M 9.8125 72.90625 
L 32.078125 72.90625 
Q 44.34375 72.90625 50.609375 67.359375 
Q 56.890625 61.8125 56.890625 51.125 
Q 56.890625 40.328125 50.609375 34.8125 
Q 44.34375 29.296875 32.078125 29.296875 
L 19.671875 29.296875 
L 19.671875 0 
L 9.8125 0 
z
" id="DejaVuSans-50"/>
      <path d="M 31 75.875 
Q 24.46875 64.65625 21.28125 53.65625 
Q 18.109375 42.671875 18.109375 31.390625 
Q 18.109375 20.125 21.3125 9.0625 
Q 24.515625 -2 31 -13.1875 
L 23.1875 -13.1875 
Q 15.875 -1.703125 12.234375 9.375 
Q 8.59375 20.453125 8.59375 31.390625 
Q 8.59375 42.28125 12.203125 53.3125 
Q 15.828125 64.359375 23.1875 75.875 
z
" id="DejaVuSans-28"/>
      <path d="M 8.015625 75.875 
L 15.828125 75.875 
Q 23.140625 64.359375 26.78125 53.3125 
Q 30.421875 42.28125 30.421875 31.390625 
Q 30.421875 20.453125 26.78125 9.375 
Q 23.140625 -1.703125 15.828125 -13.1875 
L 8.015625 -13.1875 
Q 14.5 -2 17.703125 9.0625 
Q 20.90625 20.125 20.90625 31.390625 
Q 20.90625 42.671875 17.703125 53.65625 
Q 14.5 64.65625 8.015625 75.875 
" id="DejaVuSans-29"/>
     </defs>
     <g transform="translate(18.14175 144.32415)rotate(-90)scale(0.144 -0.144)">
      <use xlink:href="#DejaVuSans-50"/>
      <use x="60.302734" xlink:href="#DejaVuSans-28"/>
      <use x="99.316406" xlink:href="#DejaVuSans-74"/>
      <use x="138.525391" xlink:href="#DejaVuSans-29"/>
     </g>
    </g>
   </g>
   <g id="patch_3">
    <path clip-path="url(#p731bf7cd50)" d="M 78.134878 236.6619 
L 78.134878 233.987729 
L 83.882436 233.987729 
L 83.882436 233.987729 
L 89.629995 233.987729 
L 89.629995 233.653457 
L 95.377553 233.653457 
L 95.377553 231.647829 
L 101.125111 231.647829 
L 101.125111 231.9821 
L 106.872669 231.9821 
L 106.872669 231.647829 
L 112.620227 231.647829 
L 112.620227 230.645015 
L 118.367786 230.645015 
L 118.367786 229.976472 
L 124.115344 229.976472 
L 124.115344 230.979286 
L 129.862902 230.979286 
L 129.862902 224.962401 
L 135.61046 224.962401 
L 135.61046 221.953958 
L 141.358019 221.953958 
L 141.358019 217.60843 
L 147.105577 217.60843 
L 147.105577 208.248831 
L 152.853135 208.248831 
L 152.853135 186.855461 
L 158.600693 186.855461 
L 158.600693 163.790734 
L 164.348252 163.790734 
L 164.348252 86.239768 
L 170.09581 86.239768 
L 170.09581 36.433329 
L 175.843368 36.433329 
L 175.843368 140.391735 
L 181.590926 140.391735 
L 181.590926 172.48179 
L 187.338484 172.48179 
L 187.338484 184.181289 
L 193.086043 184.181289 
L 193.086043 122.34108 
L 198.833601 122.34108 
L 198.833601 186.186918 
L 204.581159 186.186918 
L 204.581159 197.886417 
L 210.328717 197.886417 
L 210.328717 184.515561 
L 216.076276 184.515561 
L 216.076276 143.400178 
L 221.823834 143.400178 
L 221.823834 140.057464 
L 227.571392 140.057464 
L 227.571392 172.147519 
L 233.31895 172.147519 
L 233.31895 169.807619 
L 239.066508 169.807619 
L 239.066508 175.490233 
L 244.814067 175.490233 
L 244.814067 194.209432 
L 250.561625 194.209432 
L 250.561625 207.914559 
L 256.309183 207.914559 
L 256.309183 218.276973 
L 262.056741 218.276973 
L 262.056741 224.628129 
L 267.8043 224.628129 
L 267.8043 225.965215 
L 273.551858 225.965215 
L 273.551858 228.305115 
L 279.299416 228.305115 
L 279.299416 229.307929 
L 285.046974 229.307929 
L 285.046974 232.650643 
L 290.794532 232.650643 
L 290.794532 229.307929 
L 296.542091 229.307929 
L 296.542091 234.990543 
L 302.289649 234.990543 
L 302.289649 233.987729 
L 308.037207 233.987729 
L 308.037207 231.9821 
L 313.784765 231.9821 
L 313.784765 233.319186 
L 319.532324 233.319186 
L 319.532324 233.987729 
L 325.279882 233.987729 
L 325.279882 234.322 
L 331.02744 234.322 
L 331.02744 236.6619 
L 325.279882 236.6619 
L 325.279882 236.6619 
L 319.532324 236.6619 
L 319.532324 236.6619 
L 313.784765 236.6619 
L 313.784765 236.6619 
L 308.037207 236.6619 
L 308.037207 236.6619 
L 302.289649 236.6619 
L 302.289649 236.6619 
L 296.542091 236.6619 
L 296.542091 236.6619 
L 290.794532 236.6619 
L 290.794532 236.6619 
L 285.046974 236.6619 
L 285.046974 236.6619 
L 279.299416 236.6619 
L 279.299416 236.6619 
L 273.551858 236.6619 
L 273.551858 236.6619 
L 267.8043 236.6619 
L 267.8043 236.6619 
L 262.056741 236.6619 
L 262.056741 236.6619 
L 256.309183 236.6619 
L 256.309183 236.6619 
L 250.561625 236.6619 
L 250.561625 236.6619 
L 244.814067 236.6619 
L 244.814067 236.6619 
L 239.066508 236.6619 
L 239.066508 236.6619 
L 233.31895 236.6619 
L 233.31895 236.6619 
L 227.571392 236.6619 
L 227.571392 236.6619 
L 221.823834 236.6619 
L 221.823834 236.6619 
L 216.076276 236.6619 
L 216.076276 236.6619 
L 210.328717 236.6619 
L 210.328717 236.6619 
L 204.581159 236.6619 
L 204.581159 236.6619 
L 198.833601 236.6619 
L 198.833601 236.6619 
L 193.086043 236.6619 
L 193.086043 236.6619 
L 187.338484 236.6619 
L 187.338484 236.6619 
L 181.590926 236.6619 
L 181.590926 236.6619 
L 175.843368 236.6619 
L 175.843368 236.6619 
L 170.09581 236.6619 
L 170.09581 236.6619 
L 164.348252 236.6619 
L 164.348252 236.6619 
L 158.600693 236.6619 
L 158.600693 236.6619 
L 152.853135 236.6619 
L 152.853135 236.6619 
L 147.105577 236.6619 
L 147.105577 236.6619 
L 141.358019 236.6619 
L 141.358019 236.6619 
L 135.61046 236.6619 
L 135.61046 236.6619 
L 129.862902 236.6619 
L 129.862902 236.6619 
L 124.115344 236.6619 
L 124.115344 236.6619 
L 118.367786 236.6619 
L 118.367786 236.6619 
L 112.620227 236.6619 
L 112.620227 236.6619 
L 106.872669 236.6619 
L 106.872669 236.6619 
L 101.125111 236.6619 
L 101.125111 236.6619 
L 95.377553 236.6619 
L 95.377553 236.6619 
L 89.629995 236.6619 
L 89.629995 236.6619 
L 83.882436 236.6619 
L 83.882436 236.6619 
z
" style="fill:#e24a33;opacity:0.2;"/>
   </g>
   <g id="patch_4">
    <path d="M 65.49025 236.6619 
L 65.49025 26.4219 
" style="fill:none;stroke:#aaaaaa;stroke-linecap:square;stroke-linejoin:miter;"/>
   </g>
   <g id="patch_5">
    <path d="M 343.672068 236.6619 
L 343.672068 26.4219 
" style="fill:none;stroke:#aaaaaa;stroke-linecap:square;stroke-linejoin:miter;"/>
   </g>
   <g id="patch_6">
    <path d="M 65.49025 236.6619 
L 343.672068 236.6619 
" style="fill:none;stroke:#aaaaaa;stroke-linecap:square;stroke-linejoin:miter;"/>
   </g>
   <g id="patch_7">
    <path d="M 65.49025 26.4219 
L 343.672068 26.4219 
" style="fill:none;stroke:#aaaaaa;stroke-linecap:square;stroke-linejoin:miter;"/>
   </g>
   <g id="text_18">
    <!-- hist(t, bins="knuth") -->
    <defs>
     <path d="M 51.3125 33.890625 
L 51.3125 0 
L 42.28125 0 
L 42.28125 33.890625 
Q 42.28125 41.265625 39.6875 44.71875 
Q 37.109375 48.1875 31.59375 48.1875 
Q 25.296875 48.1875 21.890625 43.71875 
Q 18.5 39.265625 18.5 30.90625 
L 18.5 0 
L 9.515625 0 
L 9.515625 75.984375 
L 18.5 75.984375 
L 18.5 46.484375 
Q 20.90625 51.171875 25 53.578125 
Q 29.109375 56 34.71875 56 
Q 43.0625 56 47.1875 50.5 
Q 51.3125 45.015625 51.3125 33.890625 
" id="DejaVuSansMono-68"/>
     <path d="M 12.5 54.6875 
L 35.5 54.6875 
L 35.5 6.984375 
L 53.328125 6.984375 
L 53.328125 0 
L 8.6875 0 
L 8.6875 6.984375 
L 26.515625 6.984375 
L 26.515625 47.703125 
L 12.5 47.703125 
z
M 26.515625 75.984375 
L 35.5 75.984375 
L 35.5 64.59375 
L 26.515625 64.59375 
z
" id="DejaVuSansMono-69"/>
     <path d="M 47.515625 52.78125 
L 47.515625 44 
Q 43.65625 46.234375 39.75 47.359375 
Q 35.84375 48.484375 31.78125 48.484375 
Q 25.6875 48.484375 22.671875 46.5 
Q 19.671875 44.53125 19.671875 40.484375 
Q 19.671875 36.8125 21.921875 35 
Q 24.171875 33.203125 33.109375 31.5 
L 36.71875 30.8125 
Q 43.40625 29.546875 46.84375 25.734375 
Q 50.296875 21.921875 50.296875 15.828125 
Q 50.296875 7.71875 44.53125 3.140625 
Q 38.765625 -1.421875 28.515625 -1.421875 
Q 24.46875 -1.421875 20.015625 -0.5625 
Q 15.578125 0.296875 10.40625 2 
L 10.40625 11.28125 
Q 15.4375 8.6875 20.015625 7.390625 
Q 24.609375 6.109375 28.71875 6.109375 
Q 34.671875 6.109375 37.9375 8.515625 
Q 41.21875 10.9375 41.21875 15.28125 
Q 41.21875 21.53125 29.25 23.921875 
L 28.859375 24.03125 
L 25.484375 24.703125 
Q 17.71875 26.21875 14.15625 29.8125 
Q 10.59375 33.40625 10.59375 39.59375 
Q 10.59375 47.46875 15.90625 51.734375 
Q 21.234375 56 31.109375 56 
Q 35.5 56 39.546875 55.1875 
Q 43.609375 54.390625 47.515625 52.78125 
" id="DejaVuSansMono-73"/>
     <path d="M 29.984375 70.21875 
L 29.984375 54.6875 
L 50.390625 54.6875 
L 50.390625 47.703125 
L 29.984375 47.703125 
L 29.984375 18.015625 
Q 29.984375 11.96875 32.28125 9.5625 
Q 34.578125 7.171875 40.28125 7.171875 
L 50.390625 7.171875 
L 50.390625 0 
L 39.40625 0 
Q 29.296875 0 25.140625 4.046875 
Q 21 8.109375 21 18.015625 
L 21 47.703125 
L 6.390625 47.703125 
L 6.390625 54.6875 
L 21 54.6875 
L 21 70.21875 
z
" id="DejaVuSansMono-74"/>
     <path d="M 43.21875 75.875 
Q 36.71875 64.75 33.515625 53.6875 
Q 30.328125 42.625 30.328125 31.390625 
Q 30.328125 20.21875 33.515625 9.125 
Q 36.71875 -1.953125 43.21875 -13.1875 
L 35.40625 -13.1875 
Q 28.03125 -1.5625 24.40625 9.4375 
Q 20.796875 20.453125 20.796875 31.390625 
Q 20.796875 42.28125 24.40625 53.3125 
Q 28.03125 64.359375 35.40625 75.875 
z
" id="DejaVuSansMono-28"/>
     <path d="M 24.515625 14.796875 
L 36.8125 14.796875 
L 36.8125 4.6875 
L 27.203125 -14.015625 
L 19.671875 -14.015625 
L 24.515625 4.6875 
z
" id="DejaVuSansMono-2c"/>
     <path id="DejaVuSansMono-20"/>
     <path d="M 44.828125 27.296875 
Q 44.828125 37.75 41.5 43.0625 
Q 38.1875 48.390625 31.6875 48.390625 
Q 25.140625 48.390625 21.765625 43.046875 
Q 18.40625 37.703125 18.40625 27.296875 
Q 18.40625 16.9375 21.765625 11.5625 
Q 25.140625 6.203125 31.6875 6.203125 
Q 38.1875 6.203125 41.5 11.515625 
Q 44.828125 16.84375 44.828125 27.296875 
M 18.40625 47.703125 
Q 20.5625 51.703125 24.34375 53.84375 
Q 28.125 56 33.109375 56 
Q 42.96875 56 48.625 48.40625 
Q 54.296875 40.828125 54.296875 27.484375 
Q 54.296875 13.96875 48.609375 6.265625 
Q 42.921875 -1.421875 33.015625 -1.421875 
Q 28.125 -1.421875 24.390625 0.703125 
Q 20.65625 2.828125 18.40625 6.890625 
L 18.40625 0 
L 9.421875 0 
L 9.421875 75.984375 
L 18.40625 75.984375 
z
" id="DejaVuSansMono-62"/>
     <path d="M 51.3125 33.890625 
L 51.3125 0 
L 42.28125 0 
L 42.28125 33.890625 
Q 42.28125 41.265625 39.6875 44.71875 
Q 37.109375 48.1875 31.59375 48.1875 
Q 25.296875 48.1875 21.890625 43.71875 
Q 18.5 39.265625 18.5 30.90625 
L 18.5 0 
L 9.515625 0 
L 9.515625 54.6875 
L 18.5 54.6875 
L 18.5 46.484375 
Q 20.90625 51.171875 25 53.578125 
Q 29.109375 56 34.71875 56 
Q 43.0625 56 47.1875 50.5 
Q 51.3125 45.015625 51.3125 33.890625 
" id="DejaVuSansMono-6e"/>
     <path d="M 4.296875 25.59375 
L 55.90625 25.59375 
L 55.90625 17.1875 
L 4.296875 17.1875 
z
M 4.296875 45.40625 
L 55.90625 45.40625 
L 55.90625 37.109375 
L 4.296875 37.109375 
z
" id="DejaVuSansMono-3d"/>
     <path d="M 43.703125 72.90625 
L 43.703125 45.796875 
L 35.203125 45.796875 
L 35.203125 72.90625 
z
M 25 72.90625 
L 25 45.796875 
L 16.5 45.796875 
L 16.5 72.90625 
z
" id="DejaVuSansMono-22"/>
     <path d="M 11.53125 75.984375 
L 20.796875 75.984375 
L 20.796875 31.984375 
L 44.390625 54.6875 
L 55.328125 54.6875 
L 33.796875 34.078125 
L 58.6875 0 
L 47.703125 0 
L 27.484375 28.21875 
L 20.796875 21.921875 
L 20.796875 0 
L 11.53125 0 
z
" id="DejaVuSansMono-6b"/>
     <path d="M 9.515625 20.703125 
L 9.515625 54.59375 
L 18.5 54.59375 
L 18.5 20.703125 
Q 18.5 13.328125 21.109375 9.859375 
Q 23.734375 6.390625 29.203125 6.390625 
Q 35.546875 6.390625 38.90625 10.859375 
Q 42.28125 15.328125 42.28125 23.6875 
L 42.28125 54.59375 
L 51.3125 54.59375 
L 51.3125 0 
L 42.28125 0 
L 42.28125 8.203125 
Q 39.890625 3.46875 35.765625 1.015625 
Q 31.640625 -1.421875 26.125 -1.421875 
Q 17.71875 -1.421875 13.609375 4.078125 
Q 9.515625 9.578125 9.515625 20.703125 
" id="DejaVuSansMono-75"/>
     <path d="M 17 75.875 
L 24.8125 75.875 
Q 32.171875 64.359375 35.78125 53.3125 
Q 39.40625 42.28125 39.40625 31.390625 
Q 39.40625 20.40625 35.78125 9.375 
Q 32.171875 -1.65625 24.8125 -13.1875 
L 17 -13.1875 
Q 23.484375 -1.859375 26.6875 9.21875 
Q 29.890625 20.3125 29.890625 31.390625 
Q 29.890625 42.53125 26.6875 53.609375 
Q 23.484375 64.703125 17 75.875 
" id="DejaVuSansMono-29"/>
    </defs>
    <g transform="translate(95.348609 20.4219)scale(0.1728 -0.1728)">
     <use xlink:href="#DejaVuSansMono-68"/>
     <use x="60.205078" xlink:href="#DejaVuSansMono-69"/>
     <use x="120.410156" xlink:href="#DejaVuSansMono-73"/>
     <use x="180.615234" xlink:href="#DejaVuSansMono-74"/>
     <use x="240.820312" xlink:href="#DejaVuSansMono-28"/>
     <use x="301.025391" xlink:href="#DejaVuSansMono-74"/>
     <use x="361.230469" xlink:href="#DejaVuSansMono-2c"/>
     <use x="421.435547" xlink:href="#DejaVuSansMono-20"/>
     <use x="481.640625" xlink:href="#DejaVuSansMono-62"/>
     <use x="541.845703" xlink:href="#DejaVuSansMono-69"/>
     <use x="602.050781" xlink:href="#DejaVuSansMono-6e"/>
     <use x="662.255859" xlink:href="#DejaVuSansMono-73"/>
     <use x="722.460938" xlink:href="#DejaVuSansMono-3d"/>
     <use x="782.666016" xlink:href="#DejaVuSansMono-22"/>
     <use x="842.871094" xlink:href="#DejaVuSansMono-6b"/>
     <use x="903.076172" xlink:href="#DejaVuSansMono-6e"/>
     <use x="963.28125" xlink:href="#DejaVuSansMono-75"/>
     <use x="1023.486328" xlink:href="#DejaVuSansMono-74"/>
     <use x="1083.691406" xlink:href="#DejaVuSansMono-68"/>
     <use x="1143.896484" xlink:href="#DejaVuSansMono-22"/>
     <use x="1204.101562" xlink:href="#DejaVuSansMono-29"/>
    </g>
   </g>
  </g>
  <g id="axes_2">
   <g id="patch_8">
    <path d="M 399.308432 236.6619 
L 677.49025 236.6619 
L 677.49025 26.4219 
L 399.308432 26.4219 
z
" style="fill:#ffffff;"/>
   </g>
   <g id="matplotlib.axis_3">
    <g id="xtick_8">
     <g id="line2d_16"/>
     <g id="text_19">
      <!-- −15 -->
      <g style="fill:#565656;" transform="translate(399.160624 251.780025)scale(0.12 -0.12)">
       <use xlink:href="#DejaVuSans-2212"/>
       <use x="83.789062" xlink:href="#DejaVuSans-31"/>
       <use x="147.412109" xlink:href="#DejaVuSans-35"/>
      </g>
     </g>
    </g>
    <g id="xtick_9">
     <g id="line2d_17"/>
     <g id="text_20">
      <!-- −10 -->
      <g style="fill:#565656;" transform="translate(441.544048 251.780025)scale(0.12 -0.12)">
       <use xlink:href="#DejaVuSans-2212"/>
       <use x="83.789062" xlink:href="#DejaVuSans-31"/>
       <use x="147.412109" xlink:href="#DejaVuSans-30"/>
      </g>
     </g>
    </g>
    <g id="xtick_10">
     <g id="line2d_18"/>
     <g id="text_21">
      <!-- −5 -->
      <g style="fill:#565656;" transform="translate(487.744972 251.780025)scale(0.12 -0.12)">
       <use xlink:href="#DejaVuSans-2212"/>
       <use x="83.789062" xlink:href="#DejaVuSans-35"/>
      </g>
     </g>
    </g>
    <g id="xtick_11">
     <g id="line2d_19"/>
     <g id="text_22">
      <!-- 0 -->
      <g style="fill:#565656;" transform="translate(535.156208 251.780025)scale(0.12 -0.12)">
       <use xlink:href="#DejaVuSans-30"/>
      </g>
     </g>
    </g>
    <g id="xtick_12">
     <g id="line2d_20"/>
     <g id="text_23">
      <!-- 5 -->
      <g style="fill:#565656;" transform="translate(577.539631 251.780025)scale(0.12 -0.12)">
       <use xlink:href="#DejaVuSans-35"/>
      </g>
     </g>
    </g>
    <g id="xtick_13">
     <g id="line2d_21"/>
     <g id="text_24">
      <!-- 10 -->
      <g style="fill:#565656;" transform="translate(616.105555 251.780025)scale(0.12 -0.12)">
       <use xlink:href="#DejaVuSans-31"/>
       <use x="63.623047" xlink:href="#DejaVuSans-30"/>
      </g>
     </g>
    </g>
    <g id="xtick_14">
     <g id="line2d_22"/>
     <g id="text_25">
      <!-- 15 -->
      <g style="fill:#565656;" transform="translate(658.488979 251.780025)scale(0.12 -0.12)">
       <use xlink:href="#DejaVuSans-31"/>
       <use x="63.623047" xlink:href="#DejaVuSans-35"/>
      </g>
     </g>
    </g>
    <g id="text_26">
     <!-- t -->
     <g transform="translate(535.576716 269.2174)scale(0.144 -0.144)">
      <use xlink:href="#DejaVuSans-74"/>
     </g>
    </g>
   </g>
   <g id="matplotlib.axis_4">
    <g id="ytick_9">
     <g id="line2d_23"/>
     <g id="text_27">
      <!-- 0.00 -->
      <g style="fill:#565656;" transform="translate(366.589682 241.220962)scale(0.12 -0.12)">
       <use xlink:href="#DejaVuSans-30"/>
       <use x="63.623047" xlink:href="#DejaVuSans-2e"/>
       <use x="95.410156" xlink:href="#DejaVuSans-30"/>
       <use x="159.033203" xlink:href="#DejaVuSans-30"/>
      </g>
     </g>
    </g>
    <g id="ytick_10">
     <g id="line2d_24"/>
     <g id="text_28">
      <!-- 0.05 -->
      <g style="fill:#565656;" transform="translate(366.589682 193.582324)scale(0.12 -0.12)">
       <use xlink:href="#DejaVuSans-30"/>
       <use x="63.623047" xlink:href="#DejaVuSans-2e"/>
       <use x="95.410156" xlink:href="#DejaVuSans-30"/>
       <use x="159.033203" xlink:href="#DejaVuSans-35"/>
      </g>
     </g>
    </g>
    <g id="ytick_11">
     <g id="line2d_25"/>
     <g id="text_29">
      <!-- 0.10 -->
      <g style="fill:#565656;" transform="translate(366.589682 145.943686)scale(0.12 -0.12)">
       <use xlink:href="#DejaVuSans-30"/>
       <use x="63.623047" xlink:href="#DejaVuSans-2e"/>
       <use x="95.410156" xlink:href="#DejaVuSans-31"/>
       <use x="159.033203" xlink:href="#DejaVuSans-30"/>
      </g>
     </g>
    </g>
    <g id="ytick_12">
     <g id="line2d_26"/>
     <g id="text_30">
      <!-- 0.15 -->
      <g style="fill:#565656;" transform="translate(366.589682 98.305048)scale(0.12 -0.12)">
       <use xlink:href="#DejaVuSans-30"/>
       <use x="63.623047" xlink:href="#DejaVuSans-2e"/>
       <use x="95.410156" xlink:href="#DejaVuSans-31"/>
       <use x="159.033203" xlink:href="#DejaVuSans-35"/>
      </g>
     </g>
    </g>
    <g id="ytick_13">
     <g id="line2d_27"/>
     <g id="text_31">
      <!-- 0.20 -->
      <g style="fill:#565656;" transform="translate(366.589682 50.66641)scale(0.12 -0.12)">
       <use xlink:href="#DejaVuSans-30"/>
       <use x="63.623047" xlink:href="#DejaVuSans-2e"/>
       <use x="95.410156" xlink:href="#DejaVuSans-32"/>
       <use x="159.033203" xlink:href="#DejaVuSans-30"/>
      </g>
     </g>
    </g>
    <g id="text_32">
     <!-- P(t) -->
     <g transform="translate(359.594932 144.32415)rotate(-90)scale(0.144 -0.144)">
      <use xlink:href="#DejaVuSans-50"/>
      <use x="60.302734" xlink:href="#DejaVuSans-28"/>
      <use x="99.316406" xlink:href="#DejaVuSans-74"/>
      <use x="138.525391" xlink:href="#DejaVuSans-29"/>
     </g>
    </g>
   </g>
   <g id="patch_9">
    <path clip-path="url(#p8f40e24be4)" d="M 411.95306 236.6619 
L 411.95306 232.780037 
L 461.178459 232.780037 
L 461.178459 228.032619 
L 471.564554 228.032619 
L 471.564554 218.266649 
L 485.445603 218.266649 
L 485.445603 190.914647 
L 495.980514 190.914647 
L 495.980514 148.438191 
L 499.392331 148.438191 
L 499.392331 98.388951 
L 503.391425 98.388951 
L 503.391425 36.433329 
L 506.972314 36.433329 
L 506.972314 90.951623 
L 510.105777 90.951623 
L 510.105777 157.896946 
L 517.018894 157.896946 
L 517.018894 188.2303 
L 527.91263 188.2303 
L 527.91263 130.736611 
L 533.196831 130.736611 
L 533.196831 198.815766 
L 548.075832 198.815766 
L 548.075832 173.263784 
L 553.330447 173.263784 
L 553.330447 133.171076 
L 558.379474 133.171076 
L 558.379474 177.910092 
L 578.757544 177.910092 
L 578.757544 201.106509 
L 587.080616 201.106509 
L 587.080616 220.296674 
L 598.653646 220.296674 
L 598.653646 230.141981 
L 631.333444 230.141981 
L 631.333444 234.138893 
L 664.845622 234.138893 
L 664.845622 236.6619 
L 631.333444 236.6619 
L 631.333444 236.6619 
L 598.653646 236.6619 
L 598.653646 236.6619 
L 587.080616 236.6619 
L 587.080616 236.6619 
L 578.757544 236.6619 
L 578.757544 236.6619 
L 558.379474 236.6619 
L 558.379474 236.6619 
L 553.330447 236.6619 
L 553.330447 236.6619 
L 548.075832 236.6619 
L 548.075832 236.6619 
L 533.196831 236.6619 
L 533.196831 236.6619 
L 527.91263 236.6619 
L 527.91263 236.6619 
L 517.018894 236.6619 
L 517.018894 236.6619 
L 510.105777 236.6619 
L 510.105777 236.6619 
L 506.972314 236.6619 
L 506.972314 236.6619 
L 503.391425 236.6619 
L 503.391425 236.6619 
L 499.392331 236.6619 
L 499.392331 236.6619 
L 495.980514 236.6619 
L 495.980514 236.6619 
L 485.445603 236.6619 
L 485.445603 236.6619 
L 471.564554 236.6619 
L 471.564554 236.6619 
L 461.178459 236.6619 
L 461.178459 236.6619 
z
" style="fill:#e24a33;opacity:0.2;"/>
   </g>
   <g id="patch_10">
    <path d="M 399.308432 236.6619 
L 399.308432 26.4219 
" style="fill:none;stroke:#aaaaaa;stroke-linecap:square;stroke-linejoin:miter;"/>
   </g>
   <g id="patch_11">
    <path d="M 677.49025 236.6619 
L 677.49025 26.4219 
" style="fill:none;stroke:#aaaaaa;stroke-linecap:square;stroke-linejoin:miter;"/>
   </g>
   <g id="patch_12">
    <path d="M 399.308432 236.6619 
L 677.49025 236.6619 
" style="fill:none;stroke:#aaaaaa;stroke-linecap:square;stroke-linejoin:miter;"/>
   </g>
   <g id="patch_13">
    <path d="M 399.308432 26.4219 
L 677.49025 26.4219 
" style="fill:none;stroke:#aaaaaa;stroke-linecap:square;stroke-linejoin:miter;"/>
   </g>
   <g id="text_33">
    <!-- hist(t, bins="blocks") -->
    <defs>
     <path d="M 31.203125 19.828125 
Q 31.203125 13.765625 33.421875 10.6875 
Q 35.640625 7.625 39.984375 7.625 
L 50.484375 7.625 
L 50.484375 0 
L 39.109375 0 
Q 31.0625 0 26.640625 5.171875 
Q 22.21875 10.359375 22.21875 19.828125 
L 22.21875 69.484375 
L 7.8125 69.484375 
L 7.8125 76.515625 
L 31.203125 76.515625 
z
" id="DejaVuSansMono-6c"/>
     <path d="M 30.078125 48.390625 
Q 23.25 48.390625 19.734375 43.0625 
Q 16.21875 37.75 16.21875 27.296875 
Q 16.21875 16.890625 19.734375 11.546875 
Q 23.25 6.203125 30.078125 6.203125 
Q 36.96875 6.203125 40.484375 11.546875 
Q 44 16.890625 44 27.296875 
Q 44 37.75 40.484375 43.0625 
Q 36.96875 48.390625 30.078125 48.390625 
M 30.078125 56 
Q 41.453125 56 47.484375 48.625 
Q 53.515625 41.265625 53.515625 27.296875 
Q 53.515625 13.28125 47.5 5.921875 
Q 41.5 -1.421875 30.078125 -1.421875 
Q 18.703125 -1.421875 12.6875 5.921875 
Q 6.6875 13.28125 6.6875 27.296875 
Q 6.6875 41.265625 12.6875 48.625 
Q 18.703125 56 30.078125 56 
" id="DejaVuSansMono-6f"/>
     <path d="M 51.8125 2.78125 
Q 48.1875 0.6875 44.359375 -0.359375 
Q 40.53125 -1.421875 36.53125 -1.421875 
Q 23.828125 -1.421875 16.671875 6.1875 
Q 9.515625 13.8125 9.515625 27.296875 
Q 9.515625 40.765625 16.671875 48.375 
Q 23.828125 56 36.53125 56 
Q 40.484375 56 44.234375 54.96875 
Q 48 53.953125 51.8125 51.8125 
L 51.8125 42.390625 
Q 48.25 45.5625 44.65625 46.96875 
Q 41.0625 48.390625 36.53125 48.390625 
Q 28.078125 48.390625 23.53125 42.921875 
Q 19 37.453125 19 27.296875 
Q 19 17.1875 23.5625 11.6875 
Q 28.125 6.203125 36.53125 6.203125 
Q 41.21875 6.203125 44.921875 7.640625 
Q 48.640625 9.078125 51.8125 12.109375 
z
" id="DejaVuSansMono-63"/>
    </defs>
    <g transform="translate(423.965241 20.4219)scale(0.1728 -0.1728)">
     <use xlink:href="#DejaVuSansMono-68"/>
     <use x="60.205078" xlink:href="#DejaVuSansMono-69"/>
     <use x="120.410156" xlink:href="#DejaVuSansMono-73"/>
     <use x="180.615234" xlink:href="#DejaVuSansMono-74"/>
     <use x="240.820312" xlink:href="#DejaVuSansMono-28"/>
     <use x="301.025391" xlink:href="#DejaVuSansMono-74"/>
     <use x="361.230469" xlink:href="#DejaVuSansMono-2c"/>
     <use x="421.435547" xlink:href="#DejaVuSansMono-20"/>
     <use x="481.640625" xlink:href="#DejaVuSansMono-62"/>
     <use x="541.845703" xlink:href="#DejaVuSansMono-69"/>
     <use x="602.050781" xlink:href="#DejaVuSansMono-6e"/>
     <use x="662.255859" xlink:href="#DejaVuSansMono-73"/>
     <use x="722.460938" xlink:href="#DejaVuSansMono-3d"/>
     <use x="782.666016" xlink:href="#DejaVuSansMono-22"/>
     <use x="842.871094" xlink:href="#DejaVuSansMono-62"/>
     <use x="903.076172" xlink:href="#DejaVuSansMono-6c"/>
     <use x="963.28125" xlink:href="#DejaVuSansMono-6f"/>
     <use x="1023.486328" xlink:href="#DejaVuSansMono-63"/>
     <use x="1083.691406" xlink:href="#DejaVuSansMono-6b"/>
     <use x="1143.896484" xlink:href="#DejaVuSansMono-73"/>
     <use x="1204.101562" xlink:href="#DejaVuSansMono-22"/>
     <use x="1264.306641" xlink:href="#DejaVuSansMono-29"/>
    </g>
   </g>
  </g>
 </g>
 <defs>
  <clipPath id="p731bf7cd50">
   <rect height="210.24" width="278.181818" x="65.49025" y="26.4219"/>
  </clipPath>
  <clipPath id="p8f40e24be4">
   <rect height="210.24" width="278.181818" x="399.308432" y="26.4219"/>
  </clipPath>
 </defs>
</svg>
