<?xml version="1.0" encoding="utf-8" standalone="no"?>
<!DOCTYPE svg PUBLIC "-//W3C//DTD SVG 1.1//EN"
  "http://www.w3.org/Graphics/SVG/1.1/DTD/svg11.dtd">
<!-- Created with matplotlib (http://matplotlib.org/) -->
<svg height="279pt" version="1.1" viewBox="0 0 677 279" width="677pt" xmlns="http://www.w3.org/2000/svg" xmlns:xlink="http://www.w3.org/1999/xlink">
 <defs>
  <style type="text/css">
*{stroke-linecap:butt;stroke-linejoin:round;}
  </style>
 </defs>
 <g id="figure_1">
  <g id="patch_1">
   <path d="M 0 279.41215 
L 677.05525 279.41215 
L 677.05525 0 
L 0 0 
z
" style="fill:none;"/>
  </g>
  <g id="axes_1">
   <g id="patch_2">
    <path d="M 57.85525 236.6619 
L 336.037068 236.6619 
L 336.037068 26.4219 
L 57.85525 26.4219 
z
" style="fill:#ffffff;"/>
   </g>
   <g id="matplotlib.axis_1">
    <g id="xtick_1">
     <g id="line2d_1"/>
     <g id="text_1">
      <!-- −15 -->
      <defs>
       <path d="M 10.59375 35.5 
L 73.1875 35.5 
L 73.1875 27.203125 
L 10.59375 27.203125 
z
" id="DejaVuSans-2212"/>
       <path d="M 12.40625 8.296875 
L 28.515625 8.296875 
L 28.515625 63.921875 
L 10.984375 60.40625 
L 10.984375 69.390625 
L 28.421875 72.90625 
L 38.28125 72.90625 
L 38.28125 8.296875 
L 54.390625 8.296875 
L 54.390625 0 
L 12.40625 0 
z
" id="DejaVuSans-31"/>
       <path d="M 10.796875 72.90625 
L 49.515625 72.90625 
L 49.515625 64.59375 
L 19.828125 64.59375 
L 19.828125 46.734375 
Q 21.96875 47.46875 24.109375 47.828125 
Q 26.265625 48.1875 28.421875 48.1875 
Q 40.625 48.1875 47.75 41.5 
Q 54.890625 34.8125 54.890625 23.390625 
Q 54.890625 11.625 47.5625 5.09375 
Q 40.234375 -1.421875 26.90625 -1.421875 
Q 22.3125 -1.421875 17.546875 -0.640625 
Q 12.796875 0.140625 7.71875 1.703125 
L 7.71875 11.625 
Q 12.109375 9.234375 16.796875 8.0625 
Q 21.484375 6.890625 26.703125 6.890625 
Q 35.15625 6.890625 40.078125 11.328125 
Q 45.015625 15.765625 45.015625 23.390625 
Q 45.015625 31 40.078125 35.4375 
Q 35.15625 39.890625 26.703125 39.890625 
Q 22.75 39.890625 18.8125 39.015625 
Q 14.890625 38.140625 10.796875 36.28125 
z
" id="DejaVuSans-35"/>
      </defs>
      <g style="fill:#565656;" transform="translate(57.707443 251.780025)scale(0.12 -0.12)">
       <use xlink:href="#DejaVuSans-2212"/>
       <use x="83.789062" xlink:href="#DejaVuSans-31"/>
       <use x="147.412109" xlink:href="#DejaVuSans-35"/>
      </g>
     </g>
    </g>
    <g id="xtick_2">
     <g id="line2d_2"/>
     <g id="text_2">
      <!-- −10 -->
      <defs>
       <path d="M 31.78125 66.40625 
Q 24.171875 66.40625 20.328125 58.90625 
Q 16.5 51.421875 16.5 36.375 
Q 16.5 21.390625 20.328125 13.890625 
Q 24.171875 6.390625 31.78125 6.390625 
Q 39.453125 6.390625 43.28125 13.890625 
Q 47.125 21.390625 47.125 36.375 
Q 47.125 51.421875 43.28125 58.90625 
Q 39.453125 66.40625 31.78125 66.40625 
M 31.78125 74.21875 
Q 44.046875 74.21875 50.515625 64.515625 
Q 56.984375 54.828125 56.984375 36.375 
Q 56.984375 17.96875 50.515625 8.265625 
Q 44.046875 -1.421875 31.78125 -1.421875 
Q 19.53125 -1.421875 13.0625 8.265625 
Q 6.59375 17.96875 6.59375 36.375 
Q 6.59375 54.828125 13.0625 64.515625 
Q 19.53125 74.21875 31.78125 74.21875 
" id="DejaVuSans-30"/>
      </defs>
      <g style="fill:#565656;" transform="translate(100.090866 251.780025)scale(0.12 -0.12)">
       <use xlink:href="#DejaVuSans-2212"/>
       <use x="83.789062" xlink:href="#DejaVuSans-31"/>
       <use x="147.412109" xlink:href="#DejaVuSans-30"/>
      </g>
     </g>
    </g>
    <g id="xtick_3">
     <g id="line2d_3"/>
     <g id="text_3">
      <!-- −5 -->
      <g style="fill:#565656;" transform="translate(146.29179 251.780025)scale(0.12 -0.12)">
       <use xlink:href="#DejaVuSans-2212"/>
       <use x="83.789062" xlink:href="#DejaVuSans-35"/>
      </g>
     </g>
    </g>
    <g id="xtick_4">
     <g id="line2d_4"/>
     <g id="text_4">
      <!-- 0 -->
      <g style="fill:#565656;" transform="translate(193.703026 251.780025)scale(0.12 -0.12)">
       <use xlink:href="#DejaVuSans-30"/>
      </g>
     </g>
    </g>
    <g id="xtick_5">
     <g id="line2d_5"/>
     <g id="text_5">
      <!-- 5 -->
      <g style="fill:#565656;" transform="translate(236.08645 251.780025)scale(0.12 -0.12)">
       <use xlink:href="#DejaVuSans-35"/>
      </g>
     </g>
    </g>
    <g id="xtick_6">
     <g id="line2d_6"/>
     <g id="text_6">
      <!-- 10 -->
      <g style="fill:#565656;" transform="translate(274.652373 251.780025)scale(0.12 -0.12)">
       <use xlink:href="#DejaVuSans-31"/>
       <use x="63.623047" xlink:href="#DejaVuSans-30"/>
      </g>
     </g>
    </g>
    <g id="xtick_7">
     <g id="line2d_7"/>
     <g id="text_7">
      <!-- 15 -->
      <g style="fill:#565656;" transform="translate(317.035797 251.780025)scale(0.12 -0.12)">
       <use xlink:href="#DejaVuSans-31"/>
       <use x="63.623047" xlink:href="#DejaVuSans-35"/>
      </g>
     </g>
    </g>
    <g id="text_8">
     <!-- t -->
     <defs>
      <path d="M 18.3125 70.21875 
L 18.3125 54.6875 
L 36.8125 54.6875 
L 36.8125 47.703125 
L 18.3125 47.703125 
L 18.3125 18.015625 
Q 18.3125 11.328125 20.140625 9.421875 
Q 21.96875 7.515625 27.59375 7.515625 
L 36.8125 7.515625 
L 36.8125 0 
L 27.59375 0 
Q 17.1875 0 13.234375 3.875 
Q 9.28125 7.765625 9.28125 18.015625 
L 9.28125 47.703125 
L 2.6875 47.703125 
L 2.6875 54.6875 
L 9.28125 54.6875 
L 9.28125 70.21875 
z
" id="DejaVuSans-74"/>
     </defs>
     <g transform="translate(194.123534 269.2174)scale(0.144 -0.144)">
      <use xlink:href="#DejaVuSans-74"/>
     </g>
    </g>
   </g>
   <g id="matplotlib.axis_2">
    <g id="ytick_1">
     <g id="line2d_8"/>
     <g id="text_9">
      <!-- 0.00 -->
      <defs>
       <path d="M 10.6875 12.40625 
L 21 12.40625 
L 21 0 
L 10.6875 0 
z
" id="DejaVuSans-2e"/>
      </defs>
      <g style="fill:#565656;" transform="translate(25.1365 241.220962)scale(0.12 -0.12)">
       <use xlink:href="#DejaVuSans-30"/>
       <use x="63.623047" xlink:href="#DejaVuSans-2e"/>
       <use x="95.410156" xlink:href="#DejaVuSans-30"/>
       <use x="159.033203" xlink:href="#DejaVuSans-30"/>
      </g>
     </g>
    </g>
    <g id="ytick_2">
     <g id="line2d_9"/>
     <g id="text_10">
      <!-- 0.02 -->
      <defs>
       <path d="M 19.1875 8.296875 
L 53.609375 8.296875 
L 53.609375 0 
L 7.328125 0 
L 7.328125 8.296875 
Q 12.9375 14.109375 22.625 23.890625 
Q 32.328125 33.6875 34.8125 36.53125 
Q 39.546875 41.84375 41.421875 45.53125 
Q 43.3125 49.21875 43.3125 52.78125 
Q 43.3125 58.59375 39.234375 62.25 
Q 35.15625 65.921875 28.609375 65.921875 
Q 23.96875 65.921875 18.8125 64.3125 
Q 13.671875 62.703125 7.8125 59.421875 
L 7.8125 69.390625 
Q 13.765625 71.78125 18.9375 73 
Q 24.125 74.21875 28.421875 74.21875 
Q 39.75 74.21875 46.484375 68.546875 
Q 53.21875 62.890625 53.21875 53.421875 
Q 53.21875 48.921875 51.53125 44.890625 
Q 49.859375 40.875 45.40625 35.40625 
Q 44.1875 33.984375 37.640625 27.21875 
Q 31.109375 20.453125 19.1875 8.296875 
" id="DejaVuSans-32"/>
      </defs>
      <g style="fill:#565656;" transform="translate(25.1365 205.289087)scale(0.12 -0.12)">
       <use xlink:href="#DejaVuSans-30"/>
       <use x="63.623047" xlink:href="#DejaVuSans-2e"/>
       <use x="95.410156" xlink:href="#DejaVuSans-30"/>
       <use x="159.033203" xlink:href="#DejaVuSans-32"/>
      </g>
     </g>
    </g>
    <g id="ytick_3">
     <g id="line2d_10"/>
     <g id="text_11">
      <!-- 0.04 -->
      <defs>
       <path d="M 37.796875 64.3125 
L 12.890625 25.390625 
L 37.796875 25.390625 
z
M 35.203125 72.90625 
L 47.609375 72.90625 
L 47.609375 25.390625 
L 58.015625 25.390625 
L 58.015625 17.1875 
L 47.609375 17.1875 
L 47.609375 0 
L 37.796875 0 
L 37.796875 17.1875 
L 4.890625 17.1875 
L 4.890625 26.703125 
z
" id="DejaVuSans-34"/>
      </defs>
      <g style="fill:#565656;" transform="translate(25.1365 169.357211)scale(0.12 -0.12)">
       <use xlink:href="#DejaVuSans-30"/>
       <use x="63.623047" xlink:href="#DejaVuSans-2e"/>
       <use x="95.410156" xlink:href="#DejaVuSans-30"/>
       <use x="159.033203" xlink:href="#DejaVuSans-34"/>
      </g>
     </g>
    </g>
    <g id="ytick_4">
     <g id="line2d_11"/>
     <g id="text_12">
      <!-- 0.06 -->
      <defs>
       <path d="M 33.015625 40.375 
Q 26.375 40.375 22.484375 35.828125 
Q 18.609375 31.296875 18.609375 23.390625 
Q 18.609375 15.53125 22.484375 10.953125 
Q 26.375 6.390625 33.015625 6.390625 
Q 39.65625 6.390625 43.53125 10.953125 
Q 47.40625 15.53125 47.40625 23.390625 
Q 47.40625 31.296875 43.53125 35.828125 
Q 39.65625 40.375 33.015625 40.375 
M 52.59375 71.296875 
L 52.59375 62.3125 
Q 48.875 64.0625 45.09375 64.984375 
Q 41.3125 65.921875 37.59375 65.921875 
Q 27.828125 65.921875 22.671875 59.328125 
Q 17.53125 52.734375 16.796875 39.40625 
Q 19.671875 43.65625 24.015625 45.921875 
Q 28.375 48.1875 33.59375 48.1875 
Q 44.578125 48.1875 50.953125 41.515625 
Q 57.328125 34.859375 57.328125 23.390625 
Q 57.328125 12.15625 50.6875 5.359375 
Q 44.046875 -1.421875 33.015625 -1.421875 
Q 20.359375 -1.421875 13.671875 8.265625 
Q 6.984375 17.96875 6.984375 36.375 
Q 6.984375 53.65625 15.1875 63.9375 
Q 23.390625 74.21875 37.203125 74.21875 
Q 40.921875 74.21875 44.703125 73.484375 
Q 48.484375 72.75 52.59375 71.296875 
" id="DejaVuSans-36"/>
      </defs>
      <g style="fill:#565656;" transform="translate(25.1365 133.425335)scale(0.12 -0.12)">
       <use xlink:href="#DejaVuSans-30"/>
       <use x="63.623047" xlink:href="#DejaVuSans-2e"/>
       <use x="95.410156" xlink:href="#DejaVuSans-30"/>
       <use x="159.033203" xlink:href="#DejaVuSans-36"/>
      </g>
     </g>
    </g>
    <g id="ytick_5">
     <g id="line2d_12"/>
     <g id="text_13">
      <!-- 0.08 -->
      <defs>
       <path d="M 31.78125 34.625 
Q 24.75 34.625 20.71875 30.859375 
Q 16.703125 27.09375 16.703125 20.515625 
Q 16.703125 13.921875 20.71875 10.15625 
Q 24.75 6.390625 31.78125 6.390625 
Q 38.8125 6.390625 42.859375 10.171875 
Q 46.921875 13.96875 46.921875 20.515625 
Q 46.921875 27.09375 42.890625 30.859375 
Q 38.875 34.625 31.78125 34.625 
M 21.921875 38.8125 
Q 15.578125 40.375 12.03125 44.71875 
Q 8.5 49.078125 8.5 55.328125 
Q 8.5 64.0625 14.71875 69.140625 
Q 20.953125 74.21875 31.78125 74.21875 
Q 42.671875 74.21875 48.875 69.140625 
Q 55.078125 64.0625 55.078125 55.328125 
Q 55.078125 49.078125 51.53125 44.71875 
Q 48 40.375 41.703125 38.8125 
Q 48.828125 37.15625 52.796875 32.3125 
Q 56.78125 27.484375 56.78125 20.515625 
Q 56.78125 9.90625 50.3125 4.234375 
Q 43.84375 -1.421875 31.78125 -1.421875 
Q 19.734375 -1.421875 13.25 4.234375 
Q 6.78125 9.90625 6.78125 20.515625 
Q 6.78125 27.484375 10.78125 32.3125 
Q 14.796875 37.15625 21.921875 38.8125 
M 18.3125 54.390625 
Q 18.3125 48.734375 21.84375 45.5625 
Q 25.390625 42.390625 31.78125 42.390625 
Q 38.140625 42.390625 41.71875 45.5625 
Q 45.3125 48.734375 45.3125 54.390625 
Q 45.3125 60.0625 41.71875 63.234375 
Q 38.140625 66.40625 31.78125 66.40625 
Q 25.390625 66.40625 21.84375 63.234375 
Q 18.3125 60.0625 18.3125 54.390625 
" id="DejaVuSans-38"/>
      </defs>
      <g style="fill:#565656;" transform="translate(25.1365 97.493459)scale(0.12 -0.12)">
       <use xlink:href="#DejaVuSans-30"/>
       <use x="63.623047" xlink:href="#DejaVuSans-2e"/>
       <use x="95.410156" xlink:href="#DejaVuSans-30"/>
       <use x="159.033203" xlink:href="#DejaVuSans-38"/>
      </g>
     </g>
    </g>
    <g id="ytick_6">
     <g id="line2d_13"/>
     <g id="text_14">
      <!-- 0.10 -->
      <g style="fill:#565656;" transform="translate(25.1365 61.561583)scale(0.12 -0.12)">
       <use xlink:href="#DejaVuSans-30"/>
       <use x="63.623047" xlink:href="#DejaVuSans-2e"/>
       <use x="95.410156" xlink:href="#DejaVuSans-31"/>
       <use x="159.033203" xlink:href="#DejaVuSans-30"/>
      </g>
     </g>
    </g>
    <g id="text_15">
     <!-- P(t) -->
     <defs>
      <path d="M 19.671875 64.796875 
L 19.671875 37.40625 
L 32.078125 37.40625 
Q 38.96875 37.40625 42.71875 40.96875 
Q 46.484375 44.53125 46.484375 51.125 
Q 46.484375 57.671875 42.71875 61.234375 
Q 38.96875 64.796875 32.078125 64.796875 
z
M 9.8125 72.90625 
L 32.078125 72.90625 
Q 44.34375 72.90625 50.609375 67.359375 
Q 56.890625 61.8125 56.890625 51.125 
Q 56.890625 40.328125 50.609375 34.8125 
Q 44.34375 29.296875 32.078125 29.296875 
L 19.671875 29.296875 
L 19.671875 0 
L 9.8125 0 
z
" id="DejaVuSans-50"/>
      <path d="M 31 75.875 
Q 24.46875 64.65625 21.28125 53.65625 
Q 18.109375 42.671875 18.109375 31.390625 
Q 18.109375 20.125 21.3125 9.0625 
Q 24.515625 -2 31 -13.1875 
L 23.1875 -13.1875 
Q 15.875 -1.703125 12.234375 9.375 
Q 8.59375 20.453125 8.59375 31.390625 
Q 8.59375 42.28125 12.203125 53.3125 
Q 15.828125 64.359375 23.1875 75.875 
z
" id="DejaVuSans-28"/>
      <path d="M 8.015625 75.875 
L 15.828125 75.875 
Q 23.140625 64.359375 26.78125 53.3125 
Q 30.421875 42.28125 30.421875 31.390625 
Q 30.421875 20.453125 26.78125 9.375 
Q 23.140625 -1.703125 15.828125 -13.1875 
L 8.015625 -13.1875 
Q 14.5 -2 17.703125 9.0625 
Q 20.90625 20.125 20.90625 31.390625 
Q 20.90625 42.671875 17.703125 53.65625 
Q 14.5 64.65625 8.015625 75.875 
" id="DejaVuSans-29"/>
     </defs>
     <g transform="translate(18.14175 144.32415)rotate(-90)scale(0.144 -0.144)">
      <use xlink:href="#DejaVuSans-50"/>
      <use x="60.302734" xlink:href="#DejaVuSans-28"/>
      <use x="99.316406" xlink:href="#DejaVuSans-74"/>
      <use x="138.525391" xlink:href="#DejaVuSans-29"/>
     </g>
    </g>
   </g>
   <g id="patch_3">
    <path clip-path="url(#pfc1e90e6aa)" d="M 70.499878 236.6619 
L 70.499878 230.73574 
L 95.789134 230.73574 
L 95.789134 227.583526 
L 121.07839 227.583526 
L 121.07839 205.644124 
L 146.367647 205.644124 
L 146.367647 36.433329 
L 171.656903 36.433329 
L 171.656903 118.390867 
L 196.946159 118.390867 
L 196.946159 121.795257 
L 222.235415 121.795257 
L 222.235415 148.02167 
L 247.524671 148.02167 
L 247.524671 215.479028 
L 272.813928 215.479028 
L 272.813928 228.844412 
L 298.103184 228.844412 
L 298.103184 231.492271 
L 323.39244 231.492271 
L 323.39244 236.6619 
L 298.103184 236.6619 
L 298.103184 236.6619 
L 272.813928 236.6619 
L 272.813928 236.6619 
L 247.524671 236.6619 
L 247.524671 236.6619 
L 222.235415 236.6619 
L 222.235415 236.6619 
L 196.946159 236.6619 
L 196.946159 236.6619 
L 171.656903 236.6619 
L 171.656903 236.6619 
L 146.367647 236.6619 
L 146.367647 236.6619 
L 121.07839 236.6619 
L 121.07839 236.6619 
L 95.789134 236.6619 
L 95.789134 236.6619 
z
" style="fill:#e24a33;opacity:0.2;"/>
   </g>
   <g id="patch_4">
    <path d="M 57.85525 236.6619 
L 57.85525 26.4219 
" style="fill:none;stroke:#aaaaaa;stroke-linecap:square;stroke-linejoin:miter;"/>
   </g>
   <g id="patch_5">
    <path d="M 336.037068 236.6619 
L 336.037068 26.4219 
" style="fill:none;stroke:#aaaaaa;stroke-linecap:square;stroke-linejoin:miter;"/>
   </g>
   <g id="patch_6">
    <path d="M 57.85525 236.6619 
L 336.037068 236.6619 
" style="fill:none;stroke:#aaaaaa;stroke-linecap:square;stroke-linejoin:miter;"/>
   </g>
   <g id="patch_7">
    <path d="M 57.85525 26.4219 
L 336.037068 26.4219 
" style="fill:none;stroke:#aaaaaa;stroke-linecap:square;stroke-linejoin:miter;"/>
   </g>
   <g id="text_16">
    <!-- plt.hist(t, bins=10) -->
    <defs>
     <path d="M 18.3125 6.890625 
L 18.3125 -20.796875 
L 9.28125 -20.796875 
L 9.28125 54.6875 
L 18.3125 54.6875 
L 18.3125 47.703125 
Q 20.5625 51.765625 24.296875 53.875 
Q 28.03125 56 32.90625 56 
Q 42.828125 56 48.46875 48.328125 
Q 54.109375 40.671875 54.109375 27.09375 
Q 54.109375 13.765625 48.4375 6.171875 
Q 42.78125 -1.421875 32.90625 -1.421875 
Q 27.9375 -1.421875 24.1875 0.703125 
Q 20.453125 2.828125 18.3125 6.890625 
M 44.671875 27.296875 
Q 44.671875 37.75 41.375 43.0625 
Q 38.09375 48.390625 31.59375 48.390625 
Q 25.046875 48.390625 21.671875 43.046875 
Q 18.3125 37.703125 18.3125 27.296875 
Q 18.3125 16.9375 21.671875 11.5625 
Q 25.046875 6.203125 31.59375 6.203125 
Q 38.09375 6.203125 41.375 11.515625 
Q 44.671875 16.84375 44.671875 27.296875 
" id="DejaVuSansMono-70"/>
     <path d="M 31.203125 19.828125 
Q 31.203125 13.765625 33.421875 10.6875 
Q 35.640625 7.625 39.984375 7.625 
L 50.484375 7.625 
L 50.484375 0 
L 39.109375 0 
Q 31.0625 0 26.640625 5.171875 
Q 22.21875 10.359375 22.21875 19.828125 
L 22.21875 69.484375 
L 7.8125 69.484375 
L 7.8125 76.515625 
L 31.203125 76.515625 
z
" id="DejaVuSansMono-6c"/>
     <path d="M 29.984375 70.21875 
L 29.984375 54.6875 
L 50.390625 54.6875 
L 50.390625 47.703125 
L 29.984375 47.703125 
L 29.984375 18.015625 
Q 29.984375 11.96875 32.28125 9.5625 
Q 34.578125 7.171875 40.28125 7.171875 
L 50.390625 7.171875 
L 50.390625 0 
L 39.40625 0 
Q 29.296875 0 25.140625 4.046875 
Q 21 8.109375 21 18.015625 
L 21 47.703125 
L 6.390625 47.703125 
L 6.390625 54.6875 
L 21 54.6875 
L 21 70.21875 
z
" id="DejaVuSansMono-74"/>
     <path d="M 23.875 14.890625 
L 36.1875 14.890625 
L 36.1875 0 
L 23.875 0 
z
" id="DejaVuSansMono-2e"/>
     <path d="M 51.3125 33.890625 
L 51.3125 0 
L 42.28125 0 
L 42.28125 33.890625 
Q 42.28125 41.265625 39.6875 44.71875 
Q 37.109375 48.1875 31.59375 48.1875 
Q 25.296875 48.1875 21.890625 43.71875 
Q 18.5 39.265625 18.5 30.90625 
L 18.5 0 
L 9.515625 0 
L 9.515625 75.984375 
L 18.5 75.984375 
L 18.5 46.484375 
Q 20.90625 51.171875 25 53.578125 
Q 29.109375 56 34.71875 56 
Q 43.0625 56 47.1875 50.5 
Q 51.3125 45.015625 51.3125 33.890625 
" id="DejaVuSansMono-68"/>
     <path d="M 12.5 54.6875 
L 35.5 54.6875 
L 35.5 6.984375 
L 53.328125 6.984375 
L 53.328125 0 
L 8.6875 0 
L 8.6875 6.984375 
L 26.515625 6.984375 
L 26.515625 47.703125 
L 12.5 47.703125 
z
M 26.515625 75.984375 
L 35.5 75.984375 
L 35.5 64.59375 
L 26.515625 64.59375 
z
" id="DejaVuSansMono-69"/>
     <path d="M 47.515625 52.78125 
L 47.515625 44 
Q 43.65625 46.234375 39.75 47.359375 
Q 35.84375 48.484375 31.78125 48.484375 
Q 25.6875 48.484375 22.671875 46.5 
Q 19.671875 44.53125 19.671875 40.484375 
Q 19.671875 36.8125 21.921875 35 
Q 24.171875 33.203125 33.109375 31.5 
L 36.71875 30.8125 
Q 43.40625 29.546875 46.84375 25.734375 
Q 50.296875 21.921875 50.296875 15.828125 
Q 50.296875 7.71875 44.53125 3.140625 
Q 38.765625 -1.421875 28.515625 -1.421875 
Q 24.46875 -1.421875 20.015625 -0.5625 
Q 15.578125 0.296875 10.40625 2 
L 10.40625 11.28125 
Q 15.4375 8.6875 20.015625 7.390625 
Q 24.609375 6.109375 28.71875 6.109375 
Q 34.671875 6.109375 37.9375 8.515625 
Q 41.21875 10.9375 41.21875 15.28125 
Q 41.21875 21.53125 29.25 23.921875 
L 28.859375 24.03125 
L 25.484375 24.703125 
Q 17.71875 26.21875 14.15625 29.8125 
Q 10.59375 33.40625 10.59375 39.59375 
Q 10.59375 47.46875 15.90625 51.734375 
Q 21.234375 56 31.109375 56 
Q 35.5 56 39.546875 55.1875 
Q 43.609375 54.390625 47.515625 52.78125 
" id="DejaVuSansMono-73"/>
     <path d="M 43.21875 75.875 
Q 36.71875 64.75 33.515625 53.6875 
Q 30.328125 42.625 30.328125 31.390625 
Q 30.328125 20.21875 33.515625 9.125 
Q 36.71875 -1.953125 43.21875 -13.1875 
L 35.40625 -13.1875 
Q 28.03125 -1.5625 24.40625 9.4375 
Q 20.796875 20.453125 20.796875 31.390625 
Q 20.796875 42.28125 24.40625 53.3125 
Q 28.03125 64.359375 35.40625 75.875 
z
" id="DejaVuSansMono-28"/>
     <path d="M 24.515625 14.796875 
L 36.8125 14.796875 
L 36.8125 4.6875 
L 27.203125 -14.015625 
L 19.671875 -14.015625 
L 24.515625 4.6875 
z
" id="DejaVuSansMono-2c"/>
     <path id="DejaVuSansMono-20"/>
     <path d="M 44.828125 27.296875 
Q 44.828125 37.75 41.5 43.0625 
Q 38.1875 48.390625 31.6875 48.390625 
Q 25.140625 48.390625 21.765625 43.046875 
Q 18.40625 37.703125 18.40625 27.296875 
Q 18.40625 16.9375 21.765625 11.5625 
Q 25.140625 6.203125 31.6875 6.203125 
Q 38.1875 6.203125 41.5 11.515625 
Q 44.828125 16.84375 44.828125 27.296875 
M 18.40625 47.703125 
Q 20.5625 51.703125 24.34375 53.84375 
Q 28.125 56 33.109375 56 
Q 42.96875 56 48.625 48.40625 
Q 54.296875 40.828125 54.296875 27.484375 
Q 54.296875 13.96875 48.609375 6.265625 
Q 42.921875 -1.421875 33.015625 -1.421875 
Q 28.125 -1.421875 24.390625 0.703125 
Q 20.65625 2.828125 18.40625 6.890625 
L 18.40625 0 
L 9.421875 0 
L 9.421875 75.984375 
L 18.40625 75.984375 
z
" id="DejaVuSansMono-62"/>
     <path d="M 51.3125 33.890625 
L 51.3125 0 
L 42.28125 0 
L 42.28125 33.890625 
Q 42.28125 41.265625 39.6875 44.71875 
Q 37.109375 48.1875 31.59375 48.1875 
Q 25.296875 48.1875 21.890625 43.71875 
Q 18.5 39.265625 18.5 30.90625 
L 18.5 0 
L 9.515625 0 
L 9.515625 54.6875 
L 18.5 54.6875 
L 18.5 46.484375 
Q 20.90625 51.171875 25 53.578125 
Q 29.109375 56 34.71875 56 
Q 43.0625 56 47.1875 50.5 
Q 51.3125 45.015625 51.3125 33.890625 
" id="DejaVuSansMono-6e"/>
     <path d="M 4.296875 25.59375 
L 55.90625 25.59375 
L 55.90625 17.1875 
L 4.296875 17.1875 
z
M 4.296875 45.40625 
L 55.90625 45.40625 
L 55.90625 37.109375 
L 4.296875 37.109375 
z
" id="DejaVuSansMono-3d"/>
     <path d="M 13.1875 8.296875 
L 28.515625 8.296875 
L 28.515625 64.015625 
L 12.015625 60.296875 
L 12.015625 69.28125 
L 28.421875 72.90625 
L 38.28125 72.90625 
L 38.28125 8.296875 
L 53.421875 8.296875 
L 53.421875 0 
L 13.1875 0 
z
" id="DejaVuSansMono-31"/>
     <path d="M 23.578125 36.625 
Q 23.578125 39.3125 25.453125 41.265625 
Q 27.34375 43.21875 29.984375 43.21875 
Q 32.71875 43.21875 34.671875 41.265625 
Q 36.625 39.3125 36.625 36.625 
Q 36.625 33.890625 34.6875 31.984375 
Q 32.765625 30.078125 29.984375 30.078125 
Q 27.25 30.078125 25.40625 31.9375 
Q 23.578125 33.796875 23.578125 36.625 
M 30.078125 66.40625 
Q 23.1875 66.40625 19.796875 58.984375 
Q 16.40625 51.5625 16.40625 36.375 
Q 16.40625 21.234375 19.796875 13.8125 
Q 23.1875 6.390625 30.078125 6.390625 
Q 37.015625 6.390625 40.40625 13.8125 
Q 43.796875 21.234375 43.796875 36.375 
Q 43.796875 51.5625 40.40625 58.984375 
Q 37.015625 66.40625 30.078125 66.40625 
M 30.078125 74.21875 
Q 41.75 74.21875 47.734375 64.640625 
Q 53.71875 55.078125 53.71875 36.375 
Q 53.71875 17.71875 47.734375 8.140625 
Q 41.75 -1.421875 30.078125 -1.421875 
Q 18.40625 -1.421875 12.453125 8.140625 
Q 6.5 17.71875 6.5 36.375 
Q 6.5 55.078125 12.453125 64.640625 
Q 18.40625 74.21875 30.078125 74.21875 
" id="DejaVuSansMono-30"/>
     <path d="M 17 75.875 
L 24.8125 75.875 
Q 32.171875 64.359375 35.78125 53.3125 
Q 39.40625 42.28125 39.40625 31.390625 
Q 39.40625 20.40625 35.78125 9.375 
Q 32.171875 -1.65625 24.8125 -13.1875 
L 17 -13.1875 
Q 23.484375 -1.859375 26.6875 9.21875 
Q 29.890625 20.3125 29.890625 31.390625 
Q 29.890625 42.53125 26.6875 53.609375 
Q 23.484375 64.703125 17 75.875 
" id="DejaVuSansMono-29"/>
    </defs>
    <g transform="translate(92.915159 20.4219)scale(0.1728 -0.1728)">
     <use xlink:href="#DejaVuSansMono-70"/>
     <use x="60.205078" xlink:href="#DejaVuSansMono-6c"/>
     <use x="120.410156" xlink:href="#DejaVuSansMono-74"/>
     <use x="180.615234" xlink:href="#DejaVuSansMono-2e"/>
     <use x="240.820312" xlink:href="#DejaVuSansMono-68"/>
     <use x="301.025391" xlink:href="#DejaVuSansMono-69"/>
     <use x="361.230469" xlink:href="#DejaVuSansMono-73"/>
     <use x="421.435547" xlink:href="#DejaVuSansMono-74"/>
     <use x="481.640625" xlink:href="#DejaVuSansMono-28"/>
     <use x="541.845703" xlink:href="#DejaVuSansMono-74"/>
     <use x="602.050781" xlink:href="#DejaVuSansMono-2c"/>
     <use x="662.255859" xlink:href="#DejaVuSansMono-20"/>
     <use x="722.460938" xlink:href="#DejaVuSansMono-62"/>
     <use x="782.666016" xlink:href="#DejaVuSansMono-69"/>
     <use x="842.871094" xlink:href="#DejaVuSansMono-6e"/>
     <use x="903.076172" xlink:href="#DejaVuSansMono-73"/>
     <use x="963.28125" xlink:href="#DejaVuSansMono-3d"/>
     <use x="1023.486328" xlink:href="#DejaVuSansMono-31"/>
     <use x="1083.691406" xlink:href="#DejaVuSansMono-30"/>
     <use x="1143.896484" xlink:href="#DejaVuSansMono-29"/>
    </g>
   </g>
  </g>
  <g id="axes_2">
   <g id="patch_8">
    <path d="M 391.673432 236.6619 
L 669.85525 236.6619 
L 669.85525 26.4219 
L 391.673432 26.4219 
z
" style="fill:#ffffff;"/>
   </g>
   <g id="matplotlib.axis_3">
    <g id="xtick_8">
     <g id="line2d_14"/>
     <g id="text_17">
      <!-- −15 -->
      <g style="fill:#565656;" transform="translate(391.525624 251.780025)scale(0.12 -0.12)">
       <use xlink:href="#DejaVuSans-2212"/>
       <use x="83.789062" xlink:href="#DejaVuSans-31"/>
       <use x="147.412109" xlink:href="#DejaVuSans-35"/>
      </g>
     </g>
    </g>
    <g id="xtick_9">
     <g id="line2d_15"/>
     <g id="text_18">
      <!-- −10 -->
      <g style="fill:#565656;" transform="translate(433.909048 251.780025)scale(0.12 -0.12)">
       <use xlink:href="#DejaVuSans-2212"/>
       <use x="83.789062" xlink:href="#DejaVuSans-31"/>
       <use x="147.412109" xlink:href="#DejaVuSans-30"/>
      </g>
     </g>
    </g>
    <g id="xtick_10">
     <g id="line2d_16"/>
     <g id="text_19">
      <!-- −5 -->
      <g style="fill:#565656;" transform="translate(480.109972 251.780025)scale(0.12 -0.12)">
       <use xlink:href="#DejaVuSans-2212"/>
       <use x="83.789062" xlink:href="#DejaVuSans-35"/>
      </g>
     </g>
    </g>
    <g id="xtick_11">
     <g id="line2d_17"/>
     <g id="text_20">
      <!-- 0 -->
      <g style="fill:#565656;" transform="translate(527.521208 251.780025)scale(0.12 -0.12)">
       <use xlink:href="#DejaVuSans-30"/>
      </g>
     </g>
    </g>
    <g id="xtick_12">
     <g id="line2d_18"/>
     <g id="text_21">
      <!-- 5 -->
      <g style="fill:#565656;" transform="translate(569.904631 251.780025)scale(0.12 -0.12)">
       <use xlink:href="#DejaVuSans-35"/>
      </g>
     </g>
    </g>
    <g id="xtick_13">
     <g id="line2d_19"/>
     <g id="text_22">
      <!-- 10 -->
      <g style="fill:#565656;" transform="translate(608.470555 251.780025)scale(0.12 -0.12)">
       <use xlink:href="#DejaVuSans-31"/>
       <use x="63.623047" xlink:href="#DejaVuSans-30"/>
      </g>
     </g>
    </g>
    <g id="xtick_14">
     <g id="line2d_20"/>
     <g id="text_23">
      <!-- 15 -->
      <g style="fill:#565656;" transform="translate(650.853979 251.780025)scale(0.12 -0.12)">
       <use xlink:href="#DejaVuSans-31"/>
       <use x="63.623047" xlink:href="#DejaVuSans-35"/>
      </g>
     </g>
    </g>
    <g id="text_24">
     <!-- t -->
     <g transform="translate(527.941716 269.2174)scale(0.144 -0.144)">
      <use xlink:href="#DejaVuSans-74"/>
     </g>
    </g>
   </g>
   <g id="matplotlib.axis_4">
    <g id="ytick_7">
     <g id="line2d_21"/>
     <g id="text_25">
      <!-- 0.00 -->
      <g style="fill:#565656;" transform="translate(358.954682 241.220962)scale(0.12 -0.12)">
       <use xlink:href="#DejaVuSans-30"/>
       <use x="63.623047" xlink:href="#DejaVuSans-2e"/>
       <use x="95.410156" xlink:href="#DejaVuSans-30"/>
       <use x="159.033203" xlink:href="#DejaVuSans-30"/>
      </g>
     </g>
    </g>
    <g id="ytick_8">
     <g id="line2d_22"/>
     <g id="text_26">
      <!-- 0.05 -->
      <g style="fill:#565656;" transform="translate(358.954682 193.986013)scale(0.12 -0.12)">
       <use xlink:href="#DejaVuSans-30"/>
       <use x="63.623047" xlink:href="#DejaVuSans-2e"/>
       <use x="95.410156" xlink:href="#DejaVuSans-30"/>
       <use x="159.033203" xlink:href="#DejaVuSans-35"/>
      </g>
     </g>
    </g>
    <g id="ytick_9">
     <g id="line2d_23"/>
     <g id="text_27">
      <!-- 0.10 -->
      <g style="fill:#565656;" transform="translate(358.954682 146.751064)scale(0.12 -0.12)">
       <use xlink:href="#DejaVuSans-30"/>
       <use x="63.623047" xlink:href="#DejaVuSans-2e"/>
       <use x="95.410156" xlink:href="#DejaVuSans-31"/>
       <use x="159.033203" xlink:href="#DejaVuSans-30"/>
      </g>
     </g>
    </g>
    <g id="ytick_10">
     <g id="line2d_24"/>
     <g id="text_28">
      <!-- 0.15 -->
      <g style="fill:#565656;" transform="translate(358.954682 99.516114)scale(0.12 -0.12)">
       <use xlink:href="#DejaVuSans-30"/>
       <use x="63.623047" xlink:href="#DejaVuSans-2e"/>
       <use x="95.410156" xlink:href="#DejaVuSans-31"/>
       <use x="159.033203" xlink:href="#DejaVuSans-35"/>
      </g>
     </g>
    </g>
    <g id="ytick_11">
     <g id="line2d_25"/>
     <g id="text_29">
      <!-- 0.20 -->
      <g style="fill:#565656;" transform="translate(358.954682 52.281165)scale(0.12 -0.12)">
       <use xlink:href="#DejaVuSans-30"/>
       <use x="63.623047" xlink:href="#DejaVuSans-2e"/>
       <use x="95.410156" xlink:href="#DejaVuSans-32"/>
       <use x="159.033203" xlink:href="#DejaVuSans-30"/>
      </g>
     </g>
    </g>
    <g id="text_30">
     <!-- P(t) -->
     <g transform="translate(351.959932 144.32415)rotate(-90)scale(0.144 -0.144)">
      <use xlink:href="#DejaVuSans-50"/>
      <use x="60.302734" xlink:href="#DejaVuSans-28"/>
      <use x="99.316406" xlink:href="#DejaVuSans-74"/>
      <use x="138.525391" xlink:href="#DejaVuSans-29"/>
     </g>
    </g>
   </g>
   <g id="patch_9">
    <path clip-path="url(#pa1ee35248e)" d="M 404.31806 236.6619 
L 404.31806 232.683849 
L 405.582523 232.683849 
L 405.582523 236.6619 
L 406.846986 236.6619 
L 406.846986 232.683849 
L 408.111448 232.683849 
L 408.111448 234.009866 
L 409.375911 234.009866 
L 409.375911 236.6619 
L 410.640374 236.6619 
L 410.640374 234.009866 
L 411.904837 234.009866 
L 411.904837 232.683849 
L 413.1693 232.683849 
L 413.1693 234.009866 
L 414.433762 234.009866 
L 414.433762 235.335883 
L 415.698225 235.335883 
L 415.698225 234.009866 
L 416.962688 234.009866 
L 416.962688 232.683849 
L 418.227151 232.683849 
L 418.227151 234.009866 
L 419.491614 234.009866 
L 419.491614 234.009866 
L 420.756076 234.009866 
L 420.756076 231.357832 
L 422.020539 231.357832 
L 422.020539 230.031815 
L 423.285002 230.031815 
L 423.285002 231.357832 
L 424.549465 231.357832 
L 424.549465 236.6619 
L 425.813928 236.6619 
L 425.813928 234.009866 
L 427.07839 234.009866 
L 427.07839 236.6619 
L 428.342853 236.6619 
L 428.342853 227.379781 
L 429.607316 227.379781 
L 429.607316 231.357832 
L 430.871779 231.357832 
L 430.871779 235.335883 
L 432.136242 235.335883 
L 432.136242 234.009866 
L 433.400705 234.009866 
L 433.400705 234.009866 
L 434.665167 234.009866 
L 434.665167 231.357832 
L 435.92963 231.357832 
L 435.92963 231.357832 
L 437.194093 231.357832 
L 437.194093 231.357832 
L 438.458556 231.357832 
L 438.458556 228.705798 
L 439.723019 228.705798 
L 439.723019 232.683849 
L 440.987481 232.683849 
L 440.987481 232.683849 
L 442.251944 232.683849 
L 442.251944 230.031815 
L 443.516407 230.031815 
L 443.516407 234.009866 
L 444.78087 234.009866 
L 444.78087 230.031815 
L 446.045333 230.031815 
L 446.045333 230.031815 
L 447.309795 230.031815 
L 447.309795 230.031815 
L 448.574258 230.031815 
L 448.574258 235.335883 
L 449.838721 235.335883 
L 449.838721 228.705798 
L 451.103184 228.705798 
L 451.103184 234.009866 
L 452.367647 234.009866 
L 452.367647 234.009866 
L 453.63211 234.009866 
L 453.63211 228.705798 
L 454.896572 228.705798 
L 454.896572 230.031815 
L 456.161035 230.031815 
L 456.161035 224.727747 
L 457.425498 224.727747 
L 457.425498 227.379781 
L 458.689961 227.379781 
L 458.689961 228.705798 
L 459.954424 228.705798 
L 459.954424 228.705798 
L 461.218886 228.705798 
L 461.218886 226.053764 
L 462.483349 226.053764 
L 462.483349 230.031815 
L 463.747812 230.031815 
L 463.747812 215.445628 
L 465.012275 215.445628 
L 465.012275 220.749696 
L 466.276738 220.749696 
L 466.276738 223.40173 
L 467.5412 223.40173 
L 467.5412 220.749696 
L 468.805663 220.749696 
L 468.805663 214.119611 
L 470.070126 214.119611 
L 470.070126 227.379781 
L 471.334589 227.379781 
L 471.334589 215.445628 
L 472.599052 215.445628 
L 472.599052 220.749696 
L 473.863514 220.749696 
L 473.863514 208.815542 
L 475.127977 208.815542 
L 475.127977 220.749696 
L 476.39244 220.749696 
L 476.39244 216.771645 
L 477.656903 216.771645 
L 477.656903 199.533423 
L 478.921366 199.533423 
L 478.921366 207.489525 
L 480.185829 207.489525 
L 480.185829 200.85944 
L 481.450291 200.85944 
L 481.450291 182.295202 
L 482.714754 182.295202 
L 482.714754 190.251304 
L 483.979217 190.251304 
L 483.979217 183.621219 
L 485.24368 183.621219 
L 485.24368 186.273253 
L 486.508143 186.273253 
L 486.508143 179.643168 
L 487.772605 179.643168 
L 487.772605 179.643168 
L 489.037068 179.643168 
L 489.037068 151.79681 
L 490.301531 151.79681 
L 490.301531 139.862657 
L 491.565994 139.862657 
L 491.565994 109.364265 
L 492.830457 109.364265 
L 492.830457 93.452061 
L 494.094919 93.452061 
L 494.094919 97.430112 
L 495.359382 97.430112 
L 495.359382 57.649601 
L 496.623845 57.649601 
L 496.623845 36.433329 
L 497.888308 36.433329 
L 497.888308 51.019516 
L 499.152771 51.019516 
L 499.152771 72.235788 
L 500.417233 72.235788 
L 500.417233 100.082146 
L 501.681696 100.082146 
L 501.681696 110.690282 
L 502.946159 110.690282 
L 502.946159 141.188674 
L 504.210622 141.188674 
L 504.210622 163.730963 
L 505.475085 163.730963 
L 505.475085 162.404946 
L 506.739548 162.404946 
L 506.739548 173.013083 
L 508.00401 173.013083 
L 508.00401 158.426895 
L 509.268473 158.426895 
L 509.268473 183.621219 
L 510.532936 183.621219 
L 510.532936 194.229355 
L 511.797399 194.229355 
L 511.797399 186.273253 
L 513.061862 186.273253 
L 513.061862 190.251304 
L 514.326324 190.251304 
L 514.326324 196.881389 
L 515.590787 196.881389 
L 515.590787 191.577321 
L 516.85525 191.577321 
L 516.85525 188.925287 
L 518.119713 188.925287 
L 518.119713 182.295202 
L 519.384176 182.295202 
L 519.384176 163.730963 
L 520.648638 163.730963 
L 520.648638 141.188674 
L 521.913101 141.188674 
L 521.913101 115.99435 
L 523.177564 115.99435 
L 523.177564 114.668333 
L 524.442027 114.668333 
L 524.442027 159.752912 
L 525.70649 159.752912 
L 525.70649 187.59927 
L 526.970952 187.59927 
L 526.970952 190.251304 
L 528.235415 190.251304 
L 528.235415 196.881389 
L 529.499878 196.881389 
L 529.499878 211.467576 
L 530.764341 211.467576 
L 530.764341 195.555372 
L 532.028804 195.555372 
L 532.028804 204.837491 
L 533.293267 204.837491 
L 533.293267 204.837491 
L 534.557729 204.837491 
L 534.557729 206.163508 
L 535.822192 206.163508 
L 535.822192 202.185457 
L 537.086655 202.185457 
L 537.086655 199.533423 
L 538.351118 199.533423 
L 538.351118 192.903338 
L 539.615581 192.903338 
L 539.615581 192.903338 
L 540.880043 192.903338 
L 540.880043 174.3391 
L 542.144506 174.3391 
L 542.144506 166.382997 
L 543.408969 166.382997 
L 543.408969 174.3391 
L 544.673432 174.3391 
L 544.673432 170.361049 
L 545.937895 170.361049 
L 545.937895 133.232572 
L 547.202357 133.232572 
L 547.202357 125.27647 
L 548.46682 125.27647 
L 548.46682 138.53664 
L 549.731283 138.53664 
L 549.731283 147.818759 
L 550.995746 147.818759 
L 550.995746 171.687066 
L 552.260209 171.687066 
L 552.260209 155.774861 
L 553.524671 155.774861 
L 553.524671 178.317151 
L 554.789134 178.317151 
L 554.789134 190.251304 
L 556.053597 190.251304 
L 556.053597 182.295202 
L 557.31806 182.295202 
L 557.31806 180.969185 
L 558.582523 180.969185 
L 558.582523 169.035032 
L 559.846986 169.035032 
L 559.846986 178.317151 
L 561.111448 178.317151 
L 561.111448 175.665117 
L 562.375911 175.665117 
L 562.375911 180.969185 
L 563.640374 180.969185 
L 563.640374 188.925287 
L 564.904837 188.925287 
L 564.904837 163.730963 
L 566.1693 163.730963 
L 566.1693 179.643168 
L 567.433762 179.643168 
L 567.433762 184.947236 
L 568.698225 184.947236 
L 568.698225 186.273253 
L 569.962688 186.273253 
L 569.962688 188.925287 
L 571.227151 188.925287 
L 571.227151 207.489525 
L 572.491614 207.489525 
L 572.491614 191.577321 
L 573.756076 191.577321 
L 573.756076 204.837491 
L 575.020539 204.837491 
L 575.020539 195.555372 
L 576.285002 195.555372 
L 576.285002 200.85944 
L 577.549465 200.85944 
L 577.549465 207.489525 
L 578.813928 207.489525 
L 578.813928 211.467576 
L 580.07839 211.467576 
L 580.07839 222.075713 
L 581.342853 222.075713 
L 581.342853 215.445628 
L 582.607316 215.445628 
L 582.607316 228.705798 
L 583.871779 228.705798 
L 583.871779 214.119611 
L 585.136242 214.119611 
L 585.136242 220.749696 
L 586.400705 220.749696 
L 586.400705 212.793593 
L 587.665167 212.793593 
L 587.665167 230.031815 
L 588.92963 230.031815 
L 588.92963 224.727747 
L 590.194093 224.727747 
L 590.194093 218.097662 
L 591.458556 218.097662 
L 591.458556 230.031815 
L 592.723019 230.031815 
L 592.723019 231.357832 
L 593.987481 231.357832 
L 593.987481 227.379781 
L 595.251944 227.379781 
L 595.251944 227.379781 
L 596.516407 227.379781 
L 596.516407 226.053764 
L 597.78087 226.053764 
L 597.78087 230.031815 
L 599.045333 230.031815 
L 599.045333 222.075713 
L 600.309795 222.075713 
L 600.309795 231.357832 
L 601.574258 231.357832 
L 601.574258 223.40173 
L 602.838721 223.40173 
L 602.838721 236.6619 
L 604.103184 236.6619 
L 604.103184 231.357832 
L 605.367647 231.357832 
L 605.367647 228.705798 
L 606.63211 228.705798 
L 606.63211 230.031815 
L 607.896572 230.031815 
L 607.896572 230.031815 
L 609.161035 230.031815 
L 609.161035 231.357832 
L 610.425498 231.357832 
L 610.425498 232.683849 
L 611.689961 232.683849 
L 611.689961 231.357832 
L 612.954424 231.357832 
L 612.954424 234.009866 
L 614.218886 234.009866 
L 614.218886 234.009866 
L 615.483349 234.009866 
L 615.483349 232.683849 
L 616.747812 232.683849 
L 616.747812 231.357832 
L 618.012275 231.357832 
L 618.012275 226.053764 
L 619.276738 226.053764 
L 619.276738 232.683849 
L 620.5412 232.683849 
L 620.5412 230.031815 
L 621.805663 230.031815 
L 621.805663 232.683849 
L 623.070126 232.683849 
L 623.070126 232.683849 
L 624.334589 232.683849 
L 624.334589 236.6619 
L 625.599052 236.6619 
L 625.599052 234.009866 
L 626.863514 234.009866 
L 626.863514 236.6619 
L 628.127977 236.6619 
L 628.127977 235.335883 
L 629.39244 235.335883 
L 629.39244 234.009866 
L 630.656903 234.009866 
L 630.656903 232.683849 
L 631.921366 232.683849 
L 631.921366 235.335883 
L 633.185829 235.335883 
L 633.185829 234.009866 
L 634.450291 234.009866 
L 634.450291 231.357832 
L 635.714754 231.357832 
L 635.714754 231.357832 
L 636.979217 231.357832 
L 636.979217 232.683849 
L 638.24368 232.683849 
L 638.24368 235.335883 
L 639.508143 235.335883 
L 639.508143 234.009866 
L 640.772605 234.009866 
L 640.772605 234.009866 
L 642.037068 234.009866 
L 642.037068 235.335883 
L 643.301531 235.335883 
L 643.301531 231.357832 
L 644.565994 231.357832 
L 644.565994 234.009866 
L 645.830457 234.009866 
L 645.830457 235.335883 
L 647.094919 235.335883 
L 647.094919 235.335883 
L 648.359382 235.335883 
L 648.359382 232.683849 
L 649.623845 232.683849 
L 649.623845 235.335883 
L 650.888308 235.335883 
L 650.888308 234.009866 
L 652.152771 234.009866 
L 652.152771 234.009866 
L 653.417233 234.009866 
L 653.417233 234.009866 
L 654.681696 234.009866 
L 654.681696 235.335883 
L 655.946159 235.335883 
L 655.946159 234.009866 
L 657.210622 234.009866 
L 657.210622 236.6619 
L 655.946159 236.6619 
L 655.946159 236.6619 
L 654.681696 236.6619 
L 654.681696 236.6619 
L 653.417233 236.6619 
L 653.417233 236.6619 
L 652.152771 236.6619 
L 652.152771 236.6619 
L 650.888308 236.6619 
L 650.888308 236.6619 
L 649.623845 236.6619 
L 649.623845 236.6619 
L 648.359382 236.6619 
L 648.359382 236.6619 
L 647.094919 236.6619 
L 647.094919 236.6619 
L 645.830457 236.6619 
L 645.830457 236.6619 
L 644.565994 236.6619 
L 644.565994 236.6619 
L 643.301531 236.6619 
L 643.301531 236.6619 
L 642.037068 236.6619 
L 642.037068 236.6619 
L 640.772605 236.6619 
L 640.772605 236.6619 
L 639.508143 236.6619 
L 639.508143 236.6619 
L 638.24368 236.6619 
L 638.24368 236.6619 
L 636.979217 236.6619 
L 636.979217 236.6619 
L 635.714754 236.6619 
L 635.714754 236.6619 
L 634.450291 236.6619 
L 634.450291 236.6619 
L 633.185829 236.6619 
L 633.185829 236.6619 
L 631.921366 236.6619 
L 631.921366 236.6619 
L 630.656903 236.6619 
L 630.656903 236.6619 
L 629.39244 236.6619 
L 629.39244 236.6619 
L 628.127977 236.6619 
L 628.127977 236.6619 
L 626.863514 236.6619 
L 626.863514 236.6619 
L 625.599052 236.6619 
L 625.599052 236.6619 
L 624.334589 236.6619 
L 624.334589 236.6619 
L 623.070126 236.6619 
L 623.070126 236.6619 
L 621.805663 236.6619 
L 621.805663 236.6619 
L 620.5412 236.6619 
L 620.5412 236.6619 
L 619.276738 236.6619 
L 619.276738 236.6619 
L 618.012275 236.6619 
L 618.012275 236.6619 
L 616.747812 236.6619 
L 616.747812 236.6619 
L 615.483349 236.6619 
L 615.483349 236.6619 
L 614.218886 236.6619 
L 614.218886 236.6619 
L 612.954424 236.6619 
L 612.954424 236.6619 
L 611.689961 236.6619 
L 611.689961 236.6619 
L 610.425498 236.6619 
L 610.425498 236.6619 
L 609.161035 236.6619 
L 609.161035 236.6619 
L 607.896572 236.6619 
L 607.896572 236.6619 
L 606.63211 236.6619 
L 606.63211 236.6619 
L 605.367647 236.6619 
L 605.367647 236.6619 
L 604.103184 236.6619 
L 604.103184 236.6619 
L 602.838721 236.6619 
L 602.838721 236.6619 
L 601.574258 236.6619 
L 601.574258 236.6619 
L 600.309795 236.6619 
L 600.309795 236.6619 
L 599.045333 236.6619 
L 599.045333 236.6619 
L 597.78087 236.6619 
L 597.78087 236.6619 
L 596.516407 236.6619 
L 596.516407 236.6619 
L 595.251944 236.6619 
L 595.251944 236.6619 
L 593.987481 236.6619 
L 593.987481 236.6619 
L 592.723019 236.6619 
L 592.723019 236.6619 
L 591.458556 236.6619 
L 591.458556 236.6619 
L 590.194093 236.6619 
L 590.194093 236.6619 
L 588.92963 236.6619 
L 588.92963 236.6619 
L 587.665167 236.6619 
L 587.665167 236.6619 
L 586.400705 236.6619 
L 586.400705 236.6619 
L 585.136242 236.6619 
L 585.136242 236.6619 
L 583.871779 236.6619 
L 583.871779 236.6619 
L 582.607316 236.6619 
L 582.607316 236.6619 
L 581.342853 236.6619 
L 581.342853 236.6619 
L 580.07839 236.6619 
L 580.07839 236.6619 
L 578.813928 236.6619 
L 578.813928 236.6619 
L 577.549465 236.6619 
L 577.549465 236.6619 
L 576.285002 236.6619 
L 576.285002 236.6619 
L 575.020539 236.6619 
L 575.020539 236.6619 
L 573.756076 236.6619 
L 573.756076 236.6619 
L 572.491614 236.6619 
L 572.491614 236.6619 
L 571.227151 236.6619 
L 571.227151 236.6619 
L 569.962688 236.6619 
L 569.962688 236.6619 
L 568.698225 236.6619 
L 568.698225 236.6619 
L 567.433762 236.6619 
L 567.433762 236.6619 
L 566.1693 236.6619 
L 566.1693 236.6619 
L 564.904837 236.6619 
L 564.904837 236.6619 
L 563.640374 236.6619 
L 563.640374 236.6619 
L 562.375911 236.6619 
L 562.375911 236.6619 
L 561.111448 236.6619 
L 561.111448 236.6619 
L 559.846986 236.6619 
L 559.846986 236.6619 
L 558.582523 236.6619 
L 558.582523 236.6619 
L 557.31806 236.6619 
L 557.31806 236.6619 
L 556.053597 236.6619 
L 556.053597 236.6619 
L 554.789134 236.6619 
L 554.789134 236.6619 
L 553.524671 236.6619 
L 553.524671 236.6619 
L 552.260209 236.6619 
L 552.260209 236.6619 
L 550.995746 236.6619 
L 550.995746 236.6619 
L 549.731283 236.6619 
L 549.731283 236.6619 
L 548.46682 236.6619 
L 548.46682 236.6619 
L 547.202357 236.6619 
L 547.202357 236.6619 
L 545.937895 236.6619 
L 545.937895 236.6619 
L 544.673432 236.6619 
L 544.673432 236.6619 
L 543.408969 236.6619 
L 543.408969 236.6619 
L 542.144506 236.6619 
L 542.144506 236.6619 
L 540.880043 236.6619 
L 540.880043 236.6619 
L 539.615581 236.6619 
L 539.615581 236.6619 
L 538.351118 236.6619 
L 538.351118 236.6619 
L 537.086655 236.6619 
L 537.086655 236.6619 
L 535.822192 236.6619 
L 535.822192 236.6619 
L 534.557729 236.6619 
L 534.557729 236.6619 
L 533.293267 236.6619 
L 533.293267 236.6619 
L 532.028804 236.6619 
L 532.028804 236.6619 
L 530.764341 236.6619 
L 530.764341 236.6619 
L 529.499878 236.6619 
L 529.499878 236.6619 
L 528.235415 236.6619 
L 528.235415 236.6619 
L 526.970952 236.6619 
L 526.970952 236.6619 
L 525.70649 236.6619 
L 525.70649 236.6619 
L 524.442027 236.6619 
L 524.442027 236.6619 
L 523.177564 236.6619 
L 523.177564 236.6619 
L 521.913101 236.6619 
L 521.913101 236.6619 
L 520.648638 236.6619 
L 520.648638 236.6619 
L 519.384176 236.6619 
L 519.384176 236.6619 
L 518.119713 236.6619 
L 518.119713 236.6619 
L 516.85525 236.6619 
L 516.85525 236.6619 
L 515.590787 236.6619 
L 515.590787 236.6619 
L 514.326324 236.6619 
L 514.326324 236.6619 
L 513.061862 236.6619 
L 513.061862 236.6619 
L 511.797399 236.6619 
L 511.797399 236.6619 
L 510.532936 236.6619 
L 510.532936 236.6619 
L 509.268473 236.6619 
L 509.268473 236.6619 
L 508.00401 236.6619 
L 508.00401 236.6619 
L 506.739548 236.6619 
L 506.739548 236.6619 
L 505.475085 236.6619 
L 505.475085 236.6619 
L 504.210622 236.6619 
L 504.210622 236.6619 
L 502.946159 236.6619 
L 502.946159 236.6619 
L 501.681696 236.6619 
L 501.681696 236.6619 
L 500.417233 236.6619 
L 500.417233 236.6619 
L 499.152771 236.6619 
L 499.152771 236.6619 
L 497.888308 236.6619 
L 497.888308 236.6619 
L 496.623845 236.6619 
L 496.623845 236.6619 
L 495.359382 236.6619 
L 495.359382 236.6619 
L 494.094919 236.6619 
L 494.094919 236.6619 
L 492.830457 236.6619 
L 492.830457 236.6619 
L 491.565994 236.6619 
L 491.565994 236.6619 
L 490.301531 236.6619 
L 490.301531 236.6619 
L 489.037068 236.6619 
L 489.037068 236.6619 
L 487.772605 236.6619 
L 487.772605 236.6619 
L 486.508143 236.6619 
L 486.508143 236.6619 
L 485.24368 236.6619 
L 485.24368 236.6619 
L 483.979217 236.6619 
L 483.979217 236.6619 
L 482.714754 236.6619 
L 482.714754 236.6619 
L 481.450291 236.6619 
L 481.450291 236.6619 
L 480.185829 236.6619 
L 480.185829 236.6619 
L 478.921366 236.6619 
L 478.921366 236.6619 
L 477.656903 236.6619 
L 477.656903 236.6619 
L 476.39244 236.6619 
L 476.39244 236.6619 
L 475.127977 236.6619 
L 475.127977 236.6619 
L 473.863514 236.6619 
L 473.863514 236.6619 
L 472.599052 236.6619 
L 472.599052 236.6619 
L 471.334589 236.6619 
L 471.334589 236.6619 
L 470.070126 236.6619 
L 470.070126 236.6619 
L 468.805663 236.6619 
L 468.805663 236.6619 
L 467.5412 236.6619 
L 467.5412 236.6619 
L 466.276738 236.6619 
L 466.276738 236.6619 
L 465.012275 236.6619 
L 465.012275 236.6619 
L 463.747812 236.6619 
L 463.747812 236.6619 
L 462.483349 236.6619 
L 462.483349 236.6619 
L 461.218886 236.6619 
L 461.218886 236.6619 
L 459.954424 236.6619 
L 459.954424 236.6619 
L 458.689961 236.6619 
L 458.689961 236.6619 
L 457.425498 236.6619 
L 457.425498 236.6619 
L 456.161035 236.6619 
L 456.161035 236.6619 
L 454.896572 236.6619 
L 454.896572 236.6619 
L 453.63211 236.6619 
L 453.63211 236.6619 
L 452.367647 236.6619 
L 452.367647 236.6619 
L 451.103184 236.6619 
L 451.103184 236.6619 
L 449.838721 236.6619 
L 449.838721 236.6619 
L 448.574258 236.6619 
L 448.574258 236.6619 
L 447.309795 236.6619 
L 447.309795 236.6619 
L 446.045333 236.6619 
L 446.045333 236.6619 
L 444.78087 236.6619 
L 444.78087 236.6619 
L 443.516407 236.6619 
L 443.516407 236.6619 
L 442.251944 236.6619 
L 442.251944 236.6619 
L 440.987481 236.6619 
L 440.987481 236.6619 
L 439.723019 236.6619 
L 439.723019 236.6619 
L 438.458556 236.6619 
L 438.458556 236.6619 
L 437.194093 236.6619 
L 437.194093 236.6619 
L 435.92963 236.6619 
L 435.92963 236.6619 
L 434.665167 236.6619 
L 434.665167 236.6619 
L 433.400705 236.6619 
L 433.400705 236.6619 
L 432.136242 236.6619 
L 432.136242 236.6619 
L 430.871779 236.6619 
L 430.871779 236.6619 
L 429.607316 236.6619 
L 429.607316 236.6619 
L 428.342853 236.6619 
L 428.342853 236.6619 
L 427.07839 236.6619 
L 427.07839 236.6619 
L 425.813928 236.6619 
L 425.813928 236.6619 
L 424.549465 236.6619 
L 424.549465 236.6619 
L 423.285002 236.6619 
L 423.285002 236.6619 
L 422.020539 236.6619 
L 422.020539 236.6619 
L 420.756076 236.6619 
L 420.756076 236.6619 
L 419.491614 236.6619 
L 419.491614 236.6619 
L 418.227151 236.6619 
L 418.227151 236.6619 
L 416.962688 236.6619 
L 416.962688 236.6619 
L 415.698225 236.6619 
L 415.698225 236.6619 
L 414.433762 236.6619 
L 414.433762 236.6619 
L 413.1693 236.6619 
L 413.1693 236.6619 
L 411.904837 236.6619 
L 411.904837 236.6619 
L 410.640374 236.6619 
L 410.640374 236.6619 
L 409.375911 236.6619 
L 409.375911 236.6619 
L 408.111448 236.6619 
L 408.111448 236.6619 
L 406.846986 236.6619 
L 406.846986 236.6619 
L 405.582523 236.6619 
L 405.582523 236.6619 
z
" style="fill:#e24a33;opacity:0.2;"/>
   </g>
   <g id="patch_10">
    <path d="M 391.673432 236.6619 
L 391.673432 26.4219 
" style="fill:none;stroke:#aaaaaa;stroke-linecap:square;stroke-linejoin:miter;"/>
   </g>
   <g id="patch_11">
    <path d="M 669.85525 236.6619 
L 669.85525 26.4219 
" style="fill:none;stroke:#aaaaaa;stroke-linecap:square;stroke-linejoin:miter;"/>
   </g>
   <g id="patch_12">
    <path d="M 391.673432 236.6619 
L 669.85525 236.6619 
" style="fill:none;stroke:#aaaaaa;stroke-linecap:square;stroke-linejoin:miter;"/>
   </g>
   <g id="patch_13">
    <path d="M 391.673432 26.4219 
L 669.85525 26.4219 
" style="fill:none;stroke:#aaaaaa;stroke-linecap:square;stroke-linejoin:miter;"/>
   </g>
   <g id="text_31">
    <!-- plt.hist(t, bins=200) -->
    <defs>
     <path d="M 18.21875 8.296875 
L 51.703125 8.296875 
L 51.703125 0 
L 7.421875 0 
L 7.421875 8.296875 
Q 16.546875 17.921875 23.375 25.296875 
Q 30.21875 32.671875 32.8125 35.6875 
Q 37.703125 41.65625 39.40625 45.34375 
Q 41.109375 49.03125 41.109375 52.875 
Q 41.109375 58.984375 37.515625 62.453125 
Q 33.9375 65.921875 27.6875 65.921875 
Q 23.25 65.921875 18.359375 64.3125 
Q 13.484375 62.703125 8.015625 59.421875 
L 8.015625 69.390625 
Q 13.03125 71.78125 17.890625 73 
Q 22.75 74.21875 27.484375 74.21875 
Q 38.1875 74.21875 44.703125 68.53125 
Q 51.21875 62.84375 51.21875 53.609375 
Q 51.21875 48.921875 49.046875 44.234375 
Q 46.875 39.546875 42 33.890625 
Q 39.265625 30.71875 34.0625 25.09375 
Q 28.859375 19.484375 18.21875 8.296875 
" id="DejaVuSansMono-32"/>
    </defs>
    <g transform="translate(421.531791 20.4219)scale(0.1728 -0.1728)">
     <use xlink:href="#DejaVuSansMono-70"/>
     <use x="60.205078" xlink:href="#DejaVuSansMono-6c"/>
     <use x="120.410156" xlink:href="#DejaVuSansMono-74"/>
     <use x="180.615234" xlink:href="#DejaVuSansMono-2e"/>
     <use x="240.820312" xlink:href="#DejaVuSansMono-68"/>
     <use x="301.025391" xlink:href="#DejaVuSansMono-69"/>
     <use x="361.230469" xlink:href="#DejaVuSansMono-73"/>
     <use x="421.435547" xlink:href="#DejaVuSansMono-74"/>
     <use x="481.640625" xlink:href="#DejaVuSansMono-28"/>
     <use x="541.845703" xlink:href="#DejaVuSansMono-74"/>
     <use x="602.050781" xlink:href="#DejaVuSansMono-2c"/>
     <use x="662.255859" xlink:href="#DejaVuSansMono-20"/>
     <use x="722.460938" xlink:href="#DejaVuSansMono-62"/>
     <use x="782.666016" xlink:href="#DejaVuSansMono-69"/>
     <use x="842.871094" xlink:href="#DejaVuSansMono-6e"/>
     <use x="903.076172" xlink:href="#DejaVuSansMono-73"/>
     <use x="963.28125" xlink:href="#DejaVuSansMono-3d"/>
     <use x="1023.486328" xlink:href="#DejaVuSansMono-32"/>
     <use x="1083.691406" xlink:href="#DejaVuSansMono-30"/>
     <use x="1143.896484" xlink:href="#DejaVuSansMono-30"/>
     <use x="1204.101562" xlink:href="#DejaVuSansMono-29"/>
    </g>
   </g>
  </g>
 </g>
 <defs>
  <clipPath id="pfc1e90e6aa">
   <rect height="210.24" width="278.181818" x="57.85525" y="26.4219"/>
  </clipPath>
  <clipPath id="pa1ee35248e">
   <rect height="210.24" width="278.181818" x="391.673432" y="26.4219"/>
  </clipPath>
 </defs>
</svg>
