<?xml version="1.0" encoding="utf-8" standalone="no"?>
<!DOCTYPE svg PUBLIC "-//W3C//DTD SVG 1.1//EN"
  "http://www.w3.org/Graphics/SVG/1.1/DTD/svg11.dtd">
<!-- Created with matplotlib (http://matplotlib.org/) -->
<svg height="298pt" version="1.1" viewBox="0 0 386 298" width="386pt" xmlns="http://www.w3.org/2000/svg" xmlns:xlink="http://www.w3.org/1999/xlink">
 <defs>
  <style type="text/css">
*{stroke-linecap:butt;stroke-linejoin:round;}
  </style>
 </defs>
 <g id="figure_1">
  <g id="patch_1">
   <path d="M 0 298.971094 
L 386.716875 298.971094 
L 386.716875 0 
L 0 0 
z
" style="fill:none;"/>
  </g>
  <g id="axes_1">
   <g id="patch_2">
    <path d="M 44.716875 260.479219 
L 379.516875 260.479219 
L 379.516875 10.999219 
L 44.716875 10.999219 
z
" style="fill:#e5e5e5;"/>
   </g>
   <g id="matplotlib.axis_1">
    <g id="xtick_1">
     <g id="line2d_1">
      <path clip-path="url(#p7debd083ce)" d="M 85.305252 260.479219 
L 85.305252 10.999219 
" style="fill:none;stroke:#ffffff;stroke-linecap:square;stroke-width:0.8;"/>
     </g>
     <g id="line2d_2"/>
     <g id="text_1">
      <!-- 0.25 -->
      <defs>
       <path d="M 31.78125 66.40625 
Q 24.171875 66.40625 20.328125 58.90625 
Q 16.5 51.421875 16.5 36.375 
Q 16.5 21.390625 20.328125 13.890625 
Q 24.171875 6.390625 31.78125 6.390625 
Q 39.453125 6.390625 43.28125 13.890625 
Q 47.125 21.390625 47.125 36.375 
Q 47.125 51.421875 43.28125 58.90625 
Q 39.453125 66.40625 31.78125 66.40625 
M 31.78125 74.21875 
Q 44.046875 74.21875 50.515625 64.515625 
Q 56.984375 54.828125 56.984375 36.375 
Q 56.984375 17.96875 50.515625 8.265625 
Q 44.046875 -1.421875 31.78125 -1.421875 
Q 19.53125 -1.421875 13.0625 8.265625 
Q 6.59375 17.96875 6.59375 36.375 
Q 6.59375 54.828125 13.0625 64.515625 
Q 19.53125 74.21875 31.78125 74.21875 
" id="DejaVuSans-30"/>
       <path d="M 10.6875 12.40625 
L 21 12.40625 
L 21 0 
L 10.6875 0 
z
" id="DejaVuSans-2e"/>
       <path d="M 19.1875 8.296875 
L 53.609375 8.296875 
L 53.609375 0 
L 7.328125 0 
L 7.328125 8.296875 
Q 12.9375 14.109375 22.625 23.890625 
Q 32.328125 33.6875 34.8125 36.53125 
Q 39.546875 41.84375 41.421875 45.53125 
Q 43.3125 49.21875 43.3125 52.78125 
Q 43.3125 58.59375 39.234375 62.25 
Q 35.15625 65.921875 28.609375 65.921875 
Q 23.96875 65.921875 18.8125 64.3125 
Q 13.671875 62.703125 7.8125 59.421875 
L 7.8125 69.390625 
Q 13.765625 71.78125 18.9375 73 
Q 24.125 74.21875 28.421875 74.21875 
Q 39.75 74.21875 46.484375 68.546875 
Q 53.21875 62.890625 53.21875 53.421875 
Q 53.21875 48.921875 51.53125 44.890625 
Q 49.859375 40.875 45.40625 35.40625 
Q 44.1875 33.984375 37.640625 27.21875 
Q 31.109375 20.453125 19.1875 8.296875 
" id="DejaVuSans-32"/>
       <path d="M 10.796875 72.90625 
L 49.515625 72.90625 
L 49.515625 64.59375 
L 19.828125 64.59375 
L 19.828125 46.734375 
Q 21.96875 47.46875 24.109375 47.828125 
Q 26.265625 48.1875 28.421875 48.1875 
Q 40.625 48.1875 47.75 41.5 
Q 54.890625 34.8125 54.890625 23.390625 
Q 54.890625 11.625 47.5625 5.09375 
Q 40.234375 -1.421875 26.90625 -1.421875 
Q 22.3125 -1.421875 17.546875 -0.640625 
Q 12.796875 0.140625 7.71875 1.703125 
L 7.71875 11.625 
Q 12.109375 9.234375 16.796875 8.0625 
Q 21.484375 6.890625 26.703125 6.890625 
Q 35.15625 6.890625 40.078125 11.328125 
Q 45.015625 15.765625 45.015625 23.390625 
Q 45.015625 31 40.078125 35.4375 
Q 35.15625 39.890625 26.703125 39.890625 
Q 22.75 39.890625 18.8125 39.015625 
Q 14.890625 38.140625 10.796875 36.28125 
z
" id="DejaVuSans-35"/>
      </defs>
      <g style="fill:#555555;" transform="translate(74.17244 274.077656)scale(0.1 -0.1)">
       <use xlink:href="#DejaVuSans-30"/>
       <use x="63.623047" xlink:href="#DejaVuSans-2e"/>
       <use x="95.410156" xlink:href="#DejaVuSans-32"/>
       <use x="159.033203" xlink:href="#DejaVuSans-35"/>
      </g>
     </g>
    </g>
    <g id="xtick_2">
     <g id="line2d_3">
      <path clip-path="url(#p7debd083ce)" d="M 127.588911 260.479219 
L 127.588911 10.999219 
" style="fill:none;stroke:#ffffff;stroke-linecap:square;stroke-width:0.8;"/>
     </g>
     <g id="line2d_4"/>
     <g id="text_2">
      <!-- 0.50 -->
      <g style="fill:#555555;" transform="translate(116.456098 274.077656)scale(0.1 -0.1)">
       <use xlink:href="#DejaVuSans-30"/>
       <use x="63.623047" xlink:href="#DejaVuSans-2e"/>
       <use x="95.410156" xlink:href="#DejaVuSans-35"/>
       <use x="159.033203" xlink:href="#DejaVuSans-30"/>
      </g>
     </g>
    </g>
    <g id="xtick_3">
     <g id="line2d_5">
      <path clip-path="url(#p7debd083ce)" d="M 169.872569 260.479219 
L 169.872569 10.999219 
" style="fill:none;stroke:#ffffff;stroke-linecap:square;stroke-width:0.8;"/>
     </g>
     <g id="line2d_6"/>
     <g id="text_3">
      <!-- 0.75 -->
      <defs>
       <path d="M 8.203125 72.90625 
L 55.078125 72.90625 
L 55.078125 68.703125 
L 28.609375 0 
L 18.3125 0 
L 43.21875 64.59375 
L 8.203125 64.59375 
z
" id="DejaVuSans-37"/>
      </defs>
      <g style="fill:#555555;" transform="translate(158.739757 274.077656)scale(0.1 -0.1)">
       <use xlink:href="#DejaVuSans-30"/>
       <use x="63.623047" xlink:href="#DejaVuSans-2e"/>
       <use x="95.410156" xlink:href="#DejaVuSans-37"/>
       <use x="159.033203" xlink:href="#DejaVuSans-35"/>
      </g>
     </g>
    </g>
    <g id="xtick_4">
     <g id="line2d_7">
      <path clip-path="url(#p7debd083ce)" d="M 212.156228 260.479219 
L 212.156228 10.999219 
" style="fill:none;stroke:#ffffff;stroke-linecap:square;stroke-width:0.8;"/>
     </g>
     <g id="line2d_8"/>
     <g id="text_4">
      <!-- 1.00 -->
      <defs>
       <path d="M 12.40625 8.296875 
L 28.515625 8.296875 
L 28.515625 63.921875 
L 10.984375 60.40625 
L 10.984375 69.390625 
L 28.421875 72.90625 
L 38.28125 72.90625 
L 38.28125 8.296875 
L 54.390625 8.296875 
L 54.390625 0 
L 12.40625 0 
z
" id="DejaVuSans-31"/>
      </defs>
      <g style="fill:#555555;" transform="translate(201.023416 274.077656)scale(0.1 -0.1)">
       <use xlink:href="#DejaVuSans-31"/>
       <use x="63.623047" xlink:href="#DejaVuSans-2e"/>
       <use x="95.410156" xlink:href="#DejaVuSans-30"/>
       <use x="159.033203" xlink:href="#DejaVuSans-30"/>
      </g>
     </g>
    </g>
    <g id="xtick_5">
     <g id="line2d_9">
      <path clip-path="url(#p7debd083ce)" d="M 254.439887 260.479219 
L 254.439887 10.999219 
" style="fill:none;stroke:#ffffff;stroke-linecap:square;stroke-width:0.8;"/>
     </g>
     <g id="line2d_10"/>
     <g id="text_5">
      <!-- 1.25 -->
      <g style="fill:#555555;" transform="translate(243.307074 274.077656)scale(0.1 -0.1)">
       <use xlink:href="#DejaVuSans-31"/>
       <use x="63.623047" xlink:href="#DejaVuSans-2e"/>
       <use x="95.410156" xlink:href="#DejaVuSans-32"/>
       <use x="159.033203" xlink:href="#DejaVuSans-35"/>
      </g>
     </g>
    </g>
    <g id="xtick_6">
     <g id="line2d_11">
      <path clip-path="url(#p7debd083ce)" d="M 296.723546 260.479219 
L 296.723546 10.999219 
" style="fill:none;stroke:#ffffff;stroke-linecap:square;stroke-width:0.8;"/>
     </g>
     <g id="line2d_12"/>
     <g id="text_6">
      <!-- 1.50 -->
      <g style="fill:#555555;" transform="translate(285.590733 274.077656)scale(0.1 -0.1)">
       <use xlink:href="#DejaVuSans-31"/>
       <use x="63.623047" xlink:href="#DejaVuSans-2e"/>
       <use x="95.410156" xlink:href="#DejaVuSans-35"/>
       <use x="159.033203" xlink:href="#DejaVuSans-30"/>
      </g>
     </g>
    </g>
    <g id="xtick_7">
     <g id="line2d_13">
      <path clip-path="url(#p7debd083ce)" d="M 339.007204 260.479219 
L 339.007204 10.999219 
" style="fill:none;stroke:#ffffff;stroke-linecap:square;stroke-width:0.8;"/>
     </g>
     <g id="line2d_14"/>
     <g id="text_7">
      <!-- 1.75 -->
      <g style="fill:#555555;" transform="translate(327.874392 274.077656)scale(0.1 -0.1)">
       <use xlink:href="#DejaVuSans-31"/>
       <use x="63.623047" xlink:href="#DejaVuSans-2e"/>
       <use x="95.410156" xlink:href="#DejaVuSans-37"/>
       <use x="159.033203" xlink:href="#DejaVuSans-35"/>
      </g>
     </g>
    </g>
    <g id="text_8">
     <!-- frequency -->
     <defs>
      <path d="M 37.109375 75.984375 
L 37.109375 68.5 
L 28.515625 68.5 
Q 23.6875 68.5 21.796875 66.546875 
Q 19.921875 64.59375 19.921875 59.515625 
L 19.921875 54.6875 
L 34.71875 54.6875 
L 34.71875 47.703125 
L 19.921875 47.703125 
L 19.921875 0 
L 10.890625 0 
L 10.890625 47.703125 
L 2.296875 47.703125 
L 2.296875 54.6875 
L 10.890625 54.6875 
L 10.890625 58.5 
Q 10.890625 67.625 15.140625 71.796875 
Q 19.390625 75.984375 28.609375 75.984375 
z
" id="DejaVuSans-66"/>
      <path d="M 41.109375 46.296875 
Q 39.59375 47.171875 37.8125 47.578125 
Q 36.03125 48 33.890625 48 
Q 26.265625 48 22.1875 43.046875 
Q 18.109375 38.09375 18.109375 28.8125 
L 18.109375 0 
L 9.078125 0 
L 9.078125 54.6875 
L 18.109375 54.6875 
L 18.109375 46.1875 
Q 20.953125 51.171875 25.484375 53.578125 
Q 30.03125 56 36.53125 56 
Q 37.453125 56 38.578125 55.875 
Q 39.703125 55.765625 41.0625 55.515625 
z
" id="DejaVuSans-72"/>
      <path d="M 56.203125 29.59375 
L 56.203125 25.203125 
L 14.890625 25.203125 
Q 15.484375 15.921875 20.484375 11.0625 
Q 25.484375 6.203125 34.421875 6.203125 
Q 39.59375 6.203125 44.453125 7.46875 
Q 49.3125 8.734375 54.109375 11.28125 
L 54.109375 2.78125 
Q 49.265625 0.734375 44.1875 -0.34375 
Q 39.109375 -1.421875 33.890625 -1.421875 
Q 20.796875 -1.421875 13.15625 6.1875 
Q 5.515625 13.8125 5.515625 26.8125 
Q 5.515625 40.234375 12.765625 48.109375 
Q 20.015625 56 32.328125 56 
Q 43.359375 56 49.78125 48.890625 
Q 56.203125 41.796875 56.203125 29.59375 
M 47.21875 32.234375 
Q 47.125 39.59375 43.09375 43.984375 
Q 39.0625 48.390625 32.421875 48.390625 
Q 24.90625 48.390625 20.390625 44.140625 
Q 15.875 39.890625 15.1875 32.171875 
z
" id="DejaVuSans-65"/>
      <path d="M 14.796875 27.296875 
Q 14.796875 17.390625 18.875 11.75 
Q 22.953125 6.109375 30.078125 6.109375 
Q 37.203125 6.109375 41.296875 11.75 
Q 45.40625 17.390625 45.40625 27.296875 
Q 45.40625 37.203125 41.296875 42.84375 
Q 37.203125 48.484375 30.078125 48.484375 
Q 22.953125 48.484375 18.875 42.84375 
Q 14.796875 37.203125 14.796875 27.296875 
M 45.40625 8.203125 
Q 42.578125 3.328125 38.25 0.953125 
Q 33.9375 -1.421875 27.875 -1.421875 
Q 17.96875 -1.421875 11.734375 6.484375 
Q 5.515625 14.40625 5.515625 27.296875 
Q 5.515625 40.1875 11.734375 48.09375 
Q 17.96875 56 27.875 56 
Q 33.9375 56 38.25 53.625 
Q 42.578125 51.265625 45.40625 46.390625 
L 45.40625 54.6875 
L 54.390625 54.6875 
L 54.390625 -20.796875 
L 45.40625 -20.796875 
z
" id="DejaVuSans-71"/>
      <path d="M 8.5 21.578125 
L 8.5 54.6875 
L 17.484375 54.6875 
L 17.484375 21.921875 
Q 17.484375 14.15625 20.5 10.265625 
Q 23.53125 6.390625 29.59375 6.390625 
Q 36.859375 6.390625 41.078125 11.03125 
Q 45.3125 15.671875 45.3125 23.6875 
L 45.3125 54.6875 
L 54.296875 54.6875 
L 54.296875 0 
L 45.3125 0 
L 45.3125 8.40625 
Q 42.046875 3.421875 37.71875 1 
Q 33.40625 -1.421875 27.6875 -1.421875 
Q 18.265625 -1.421875 13.375 4.4375 
Q 8.5 10.296875 8.5 21.578125 
M 31.109375 56 
z
" id="DejaVuSans-75"/>
      <path d="M 54.890625 33.015625 
L 54.890625 0 
L 45.90625 0 
L 45.90625 32.71875 
Q 45.90625 40.484375 42.875 44.328125 
Q 39.84375 48.1875 33.796875 48.1875 
Q 26.515625 48.1875 22.3125 43.546875 
Q 18.109375 38.921875 18.109375 30.90625 
L 18.109375 0 
L 9.078125 0 
L 9.078125 54.6875 
L 18.109375 54.6875 
L 18.109375 46.1875 
Q 21.34375 51.125 25.703125 53.5625 
Q 30.078125 56 35.796875 56 
Q 45.21875 56 50.046875 50.171875 
Q 54.890625 44.34375 54.890625 33.015625 
" id="DejaVuSans-6e"/>
      <path d="M 48.78125 52.59375 
L 48.78125 44.1875 
Q 44.96875 46.296875 41.140625 47.34375 
Q 37.3125 48.390625 33.40625 48.390625 
Q 24.65625 48.390625 19.8125 42.84375 
Q 14.984375 37.3125 14.984375 27.296875 
Q 14.984375 17.28125 19.8125 11.734375 
Q 24.65625 6.203125 33.40625 6.203125 
Q 37.3125 6.203125 41.140625 7.25 
Q 44.96875 8.296875 48.78125 10.40625 
L 48.78125 2.09375 
Q 45.015625 0.34375 40.984375 -0.53125 
Q 36.96875 -1.421875 32.421875 -1.421875 
Q 20.0625 -1.421875 12.78125 6.34375 
Q 5.515625 14.109375 5.515625 27.296875 
Q 5.515625 40.671875 12.859375 48.328125 
Q 20.21875 56 33.015625 56 
Q 37.15625 56 41.109375 55.140625 
Q 45.0625 54.296875 48.78125 52.59375 
" id="DejaVuSans-63"/>
      <path d="M 32.171875 -5.078125 
Q 28.375 -14.84375 24.75 -17.8125 
Q 21.140625 -20.796875 15.09375 -20.796875 
L 7.90625 -20.796875 
L 7.90625 -13.28125 
L 13.1875 -13.28125 
Q 16.890625 -13.28125 18.9375 -11.515625 
Q 21 -9.765625 23.484375 -3.21875 
L 25.09375 0.875 
L 2.984375 54.6875 
L 12.5 54.6875 
L 29.59375 11.921875 
L 46.6875 54.6875 
L 56.203125 54.6875 
z
" id="DejaVuSans-79"/>
     </defs>
     <g style="fill:#555555;" transform="translate(181.891875 289.275469)scale(0.12 -0.12)">
      <use xlink:href="#DejaVuSans-66"/>
      <use x="35.205078" xlink:href="#DejaVuSans-72"/>
      <use x="76.287109" xlink:href="#DejaVuSans-65"/>
      <use x="137.810547" xlink:href="#DejaVuSans-71"/>
      <use x="201.287109" xlink:href="#DejaVuSans-75"/>
      <use x="264.666016" xlink:href="#DejaVuSans-65"/>
      <use x="326.189453" xlink:href="#DejaVuSans-6e"/>
      <use x="389.568359" xlink:href="#DejaVuSans-63"/>
      <use x="444.548828" xlink:href="#DejaVuSans-79"/>
     </g>
    </g>
   </g>
   <g id="matplotlib.axis_2">
    <g id="ytick_1">
     <g id="line2d_15">
      <path clip-path="url(#p7debd083ce)" d="M 44.716875 260.479219 
L 379.516875 260.479219 
" style="fill:none;stroke:#ffffff;stroke-linecap:square;stroke-width:0.8;"/>
     </g>
     <g id="line2d_16"/>
     <g id="text_9">
      <!-- 0.0 -->
      <g style="fill:#555555;" transform="translate(22.81375 264.278437)scale(0.1 -0.1)">
       <use xlink:href="#DejaVuSans-30"/>
       <use x="63.623047" xlink:href="#DejaVuSans-2e"/>
       <use x="95.410156" xlink:href="#DejaVuSans-30"/>
      </g>
     </g>
    </g>
    <g id="ytick_2">
     <g id="line2d_17">
      <path clip-path="url(#p7debd083ce)" d="M 44.716875 210.583219 
L 379.516875 210.583219 
" style="fill:none;stroke:#ffffff;stroke-linecap:square;stroke-width:0.8;"/>
     </g>
     <g id="line2d_18"/>
     <g id="text_10">
      <!-- 0.2 -->
      <g style="fill:#555555;" transform="translate(22.81375 214.382438)scale(0.1 -0.1)">
       <use xlink:href="#DejaVuSans-30"/>
       <use x="63.623047" xlink:href="#DejaVuSans-2e"/>
       <use x="95.410156" xlink:href="#DejaVuSans-32"/>
      </g>
     </g>
    </g>
    <g id="ytick_3">
     <g id="line2d_19">
      <path clip-path="url(#p7debd083ce)" d="M 44.716875 160.687219 
L 379.516875 160.687219 
" style="fill:none;stroke:#ffffff;stroke-linecap:square;stroke-width:0.8;"/>
     </g>
     <g id="line2d_20"/>
     <g id="text_11">
      <!-- 0.4 -->
      <defs>
       <path d="M 37.796875 64.3125 
L 12.890625 25.390625 
L 37.796875 25.390625 
z
M 35.203125 72.90625 
L 47.609375 72.90625 
L 47.609375 25.390625 
L 58.015625 25.390625 
L 58.015625 17.1875 
L 47.609375 17.1875 
L 47.609375 0 
L 37.796875 0 
L 37.796875 17.1875 
L 4.890625 17.1875 
L 4.890625 26.703125 
z
" id="DejaVuSans-34"/>
      </defs>
      <g style="fill:#555555;" transform="translate(22.81375 164.486437)scale(0.1 -0.1)">
       <use xlink:href="#DejaVuSans-30"/>
       <use x="63.623047" xlink:href="#DejaVuSans-2e"/>
       <use x="95.410156" xlink:href="#DejaVuSans-34"/>
      </g>
     </g>
    </g>
    <g id="ytick_4">
     <g id="line2d_21">
      <path clip-path="url(#p7debd083ce)" d="M 44.716875 110.791219 
L 379.516875 110.791219 
" style="fill:none;stroke:#ffffff;stroke-linecap:square;stroke-width:0.8;"/>
     </g>
     <g id="line2d_22"/>
     <g id="text_12">
      <!-- 0.6 -->
      <defs>
       <path d="M 33.015625 40.375 
Q 26.375 40.375 22.484375 35.828125 
Q 18.609375 31.296875 18.609375 23.390625 
Q 18.609375 15.53125 22.484375 10.953125 
Q 26.375 6.390625 33.015625 6.390625 
Q 39.65625 6.390625 43.53125 10.953125 
Q 47.40625 15.53125 47.40625 23.390625 
Q 47.40625 31.296875 43.53125 35.828125 
Q 39.65625 40.375 33.015625 40.375 
M 52.59375 71.296875 
L 52.59375 62.3125 
Q 48.875 64.0625 45.09375 64.984375 
Q 41.3125 65.921875 37.59375 65.921875 
Q 27.828125 65.921875 22.671875 59.328125 
Q 17.53125 52.734375 16.796875 39.40625 
Q 19.671875 43.65625 24.015625 45.921875 
Q 28.375 48.1875 33.59375 48.1875 
Q 44.578125 48.1875 50.953125 41.515625 
Q 57.328125 34.859375 57.328125 23.390625 
Q 57.328125 12.15625 50.6875 5.359375 
Q 44.046875 -1.421875 33.015625 -1.421875 
Q 20.359375 -1.421875 13.671875 8.265625 
Q 6.984375 17.96875 6.984375 36.375 
Q 6.984375 53.65625 15.1875 63.9375 
Q 23.390625 74.21875 37.203125 74.21875 
Q 40.921875 74.21875 44.703125 73.484375 
Q 48.484375 72.75 52.59375 71.296875 
" id="DejaVuSans-36"/>
      </defs>
      <g style="fill:#555555;" transform="translate(22.81375 114.590437)scale(0.1 -0.1)">
       <use xlink:href="#DejaVuSans-30"/>
       <use x="63.623047" xlink:href="#DejaVuSans-2e"/>
       <use x="95.410156" xlink:href="#DejaVuSans-36"/>
      </g>
     </g>
    </g>
    <g id="ytick_5">
     <g id="line2d_23">
      <path clip-path="url(#p7debd083ce)" d="M 44.716875 60.895219 
L 379.516875 60.895219 
" style="fill:none;stroke:#ffffff;stroke-linecap:square;stroke-width:0.8;"/>
     </g>
     <g id="line2d_24"/>
     <g id="text_13">
      <!-- 0.8 -->
      <defs>
       <path d="M 31.78125 34.625 
Q 24.75 34.625 20.71875 30.859375 
Q 16.703125 27.09375 16.703125 20.515625 
Q 16.703125 13.921875 20.71875 10.15625 
Q 24.75 6.390625 31.78125 6.390625 
Q 38.8125 6.390625 42.859375 10.171875 
Q 46.921875 13.96875 46.921875 20.515625 
Q 46.921875 27.09375 42.890625 30.859375 
Q 38.875 34.625 31.78125 34.625 
M 21.921875 38.8125 
Q 15.578125 40.375 12.03125 44.71875 
Q 8.5 49.078125 8.5 55.328125 
Q 8.5 64.0625 14.71875 69.140625 
Q 20.953125 74.21875 31.78125 74.21875 
Q 42.671875 74.21875 48.875 69.140625 
Q 55.078125 64.0625 55.078125 55.328125 
Q 55.078125 49.078125 51.53125 44.71875 
Q 48 40.375 41.703125 38.8125 
Q 48.828125 37.15625 52.796875 32.3125 
Q 56.78125 27.484375 56.78125 20.515625 
Q 56.78125 9.90625 50.3125 4.234375 
Q 43.84375 -1.421875 31.78125 -1.421875 
Q 19.734375 -1.421875 13.25 4.234375 
Q 6.78125 9.90625 6.78125 20.515625 
Q 6.78125 27.484375 10.78125 32.3125 
Q 14.796875 37.15625 21.921875 38.8125 
M 18.3125 54.390625 
Q 18.3125 48.734375 21.84375 45.5625 
Q 25.390625 42.390625 31.78125 42.390625 
Q 38.140625 42.390625 41.71875 45.5625 
Q 45.3125 48.734375 45.3125 54.390625 
Q 45.3125 60.0625 41.71875 63.234375 
Q 38.140625 66.40625 31.78125 66.40625 
Q 25.390625 66.40625 21.84375 63.234375 
Q 18.3125 60.0625 18.3125 54.390625 
" id="DejaVuSans-38"/>
      </defs>
      <g style="fill:#555555;" transform="translate(22.81375 64.694437)scale(0.1 -0.1)">
       <use xlink:href="#DejaVuSans-30"/>
       <use x="63.623047" xlink:href="#DejaVuSans-2e"/>
       <use x="95.410156" xlink:href="#DejaVuSans-38"/>
      </g>
     </g>
    </g>
    <g id="ytick_6">
     <g id="line2d_25">
      <path clip-path="url(#p7debd083ce)" d="M 44.716875 10.999219 
L 379.516875 10.999219 
" style="fill:none;stroke:#ffffff;stroke-linecap:square;stroke-width:0.8;"/>
     </g>
     <g id="line2d_26"/>
     <g id="text_14">
      <!-- 1.0 -->
      <g style="fill:#555555;" transform="translate(22.81375 14.798438)scale(0.1 -0.1)">
       <use xlink:href="#DejaVuSans-31"/>
       <use x="63.623047" xlink:href="#DejaVuSans-2e"/>
       <use x="95.410156" xlink:href="#DejaVuSans-30"/>
      </g>
     </g>
    </g>
    <g id="text_15">
     <!-- Lomb-Scargle Power -->
     <defs>
      <path d="M 9.8125 72.90625 
L 19.671875 72.90625 
L 19.671875 8.296875 
L 55.171875 8.296875 
L 55.171875 0 
L 9.8125 0 
z
" id="DejaVuSans-4c"/>
      <path d="M 30.609375 48.390625 
Q 23.390625 48.390625 19.1875 42.75 
Q 14.984375 37.109375 14.984375 27.296875 
Q 14.984375 17.484375 19.15625 11.84375 
Q 23.34375 6.203125 30.609375 6.203125 
Q 37.796875 6.203125 41.984375 11.859375 
Q 46.1875 17.53125 46.1875 27.296875 
Q 46.1875 37.015625 41.984375 42.703125 
Q 37.796875 48.390625 30.609375 48.390625 
M 30.609375 56 
Q 42.328125 56 49.015625 48.375 
Q 55.71875 40.765625 55.71875 27.296875 
Q 55.71875 13.875 49.015625 6.21875 
Q 42.328125 -1.421875 30.609375 -1.421875 
Q 18.84375 -1.421875 12.171875 6.21875 
Q 5.515625 13.875 5.515625 27.296875 
Q 5.515625 40.765625 12.171875 48.375 
Q 18.84375 56 30.609375 56 
" id="DejaVuSans-6f"/>
      <path d="M 52 44.1875 
Q 55.375 50.25 60.0625 53.125 
Q 64.75 56 71.09375 56 
Q 79.640625 56 84.28125 50.015625 
Q 88.921875 44.046875 88.921875 33.015625 
L 88.921875 0 
L 79.890625 0 
L 79.890625 32.71875 
Q 79.890625 40.578125 77.09375 44.375 
Q 74.3125 48.1875 68.609375 48.1875 
Q 61.625 48.1875 57.5625 43.546875 
Q 53.515625 38.921875 53.515625 30.90625 
L 53.515625 0 
L 44.484375 0 
L 44.484375 32.71875 
Q 44.484375 40.625 41.703125 44.40625 
Q 38.921875 48.1875 33.109375 48.1875 
Q 26.21875 48.1875 22.15625 43.53125 
Q 18.109375 38.875 18.109375 30.90625 
L 18.109375 0 
L 9.078125 0 
L 9.078125 54.6875 
L 18.109375 54.6875 
L 18.109375 46.1875 
Q 21.1875 51.21875 25.484375 53.609375 
Q 29.78125 56 35.6875 56 
Q 41.65625 56 45.828125 52.96875 
Q 50 49.953125 52 44.1875 
" id="DejaVuSans-6d"/>
      <path d="M 48.6875 27.296875 
Q 48.6875 37.203125 44.609375 42.84375 
Q 40.53125 48.484375 33.40625 48.484375 
Q 26.265625 48.484375 22.1875 42.84375 
Q 18.109375 37.203125 18.109375 27.296875 
Q 18.109375 17.390625 22.1875 11.75 
Q 26.265625 6.109375 33.40625 6.109375 
Q 40.53125 6.109375 44.609375 11.75 
Q 48.6875 17.390625 48.6875 27.296875 
M 18.109375 46.390625 
Q 20.953125 51.265625 25.265625 53.625 
Q 29.59375 56 35.59375 56 
Q 45.5625 56 51.78125 48.09375 
Q 58.015625 40.1875 58.015625 27.296875 
Q 58.015625 14.40625 51.78125 6.484375 
Q 45.5625 -1.421875 35.59375 -1.421875 
Q 29.59375 -1.421875 25.265625 0.953125 
Q 20.953125 3.328125 18.109375 8.203125 
L 18.109375 0 
L 9.078125 0 
L 9.078125 75.984375 
L 18.109375 75.984375 
z
" id="DejaVuSans-62"/>
      <path d="M 4.890625 31.390625 
L 31.203125 31.390625 
L 31.203125 23.390625 
L 4.890625 23.390625 
z
" id="DejaVuSans-2d"/>
      <path d="M 53.515625 70.515625 
L 53.515625 60.890625 
Q 47.90625 63.578125 42.921875 64.890625 
Q 37.9375 66.21875 33.296875 66.21875 
Q 25.25 66.21875 20.875 63.09375 
Q 16.5 59.96875 16.5 54.203125 
Q 16.5 49.359375 19.40625 46.890625 
Q 22.3125 44.4375 30.421875 42.921875 
L 36.375 41.703125 
Q 47.40625 39.59375 52.65625 34.296875 
Q 57.90625 29 57.90625 20.125 
Q 57.90625 9.515625 50.796875 4.046875 
Q 43.703125 -1.421875 29.984375 -1.421875 
Q 24.8125 -1.421875 18.96875 -0.25 
Q 13.140625 0.921875 6.890625 3.21875 
L 6.890625 13.375 
Q 12.890625 10.015625 18.65625 8.296875 
Q 24.421875 6.59375 29.984375 6.59375 
Q 38.421875 6.59375 43.015625 9.90625 
Q 47.609375 13.234375 47.609375 19.390625 
Q 47.609375 24.75 44.3125 27.78125 
Q 41.015625 30.8125 33.5 32.328125 
L 27.484375 33.5 
Q 16.453125 35.6875 11.515625 40.375 
Q 6.59375 45.0625 6.59375 53.421875 
Q 6.59375 63.09375 13.40625 68.65625 
Q 20.21875 74.21875 32.171875 74.21875 
Q 37.3125 74.21875 42.625 73.28125 
Q 47.953125 72.359375 53.515625 70.515625 
" id="DejaVuSans-53"/>
      <path d="M 34.28125 27.484375 
Q 23.390625 27.484375 19.1875 25 
Q 14.984375 22.515625 14.984375 16.5 
Q 14.984375 11.71875 18.140625 8.90625 
Q 21.296875 6.109375 26.703125 6.109375 
Q 34.1875 6.109375 38.703125 11.40625 
Q 43.21875 16.703125 43.21875 25.484375 
L 43.21875 27.484375 
z
M 52.203125 31.203125 
L 52.203125 0 
L 43.21875 0 
L 43.21875 8.296875 
Q 40.140625 3.328125 35.546875 0.953125 
Q 30.953125 -1.421875 24.3125 -1.421875 
Q 15.921875 -1.421875 10.953125 3.296875 
Q 6 8.015625 6 15.921875 
Q 6 25.140625 12.171875 29.828125 
Q 18.359375 34.515625 30.609375 34.515625 
L 43.21875 34.515625 
L 43.21875 35.40625 
Q 43.21875 41.609375 39.140625 45 
Q 35.0625 48.390625 27.6875 48.390625 
Q 23 48.390625 18.546875 47.265625 
Q 14.109375 46.140625 10.015625 43.890625 
L 10.015625 52.203125 
Q 14.9375 54.109375 19.578125 55.046875 
Q 24.21875 56 28.609375 56 
Q 40.484375 56 46.34375 49.84375 
Q 52.203125 43.703125 52.203125 31.203125 
" id="DejaVuSans-61"/>
      <path d="M 45.40625 27.984375 
Q 45.40625 37.75 41.375 43.109375 
Q 37.359375 48.484375 30.078125 48.484375 
Q 22.859375 48.484375 18.828125 43.109375 
Q 14.796875 37.75 14.796875 27.984375 
Q 14.796875 18.265625 18.828125 12.890625 
Q 22.859375 7.515625 30.078125 7.515625 
Q 37.359375 7.515625 41.375 12.890625 
Q 45.40625 18.265625 45.40625 27.984375 
M 54.390625 6.78125 
Q 54.390625 -7.171875 48.1875 -13.984375 
Q 42 -20.796875 29.203125 -20.796875 
Q 24.46875 -20.796875 20.265625 -20.09375 
Q 16.0625 -19.390625 12.109375 -17.921875 
L 12.109375 -9.1875 
Q 16.0625 -11.328125 19.921875 -12.34375 
Q 23.78125 -13.375 27.78125 -13.375 
Q 36.625 -13.375 41.015625 -8.765625 
Q 45.40625 -4.15625 45.40625 5.171875 
L 45.40625 9.625 
Q 42.625 4.78125 38.28125 2.390625 
Q 33.9375 0 27.875 0 
Q 17.828125 0 11.671875 7.65625 
Q 5.515625 15.328125 5.515625 27.984375 
Q 5.515625 40.671875 11.671875 48.328125 
Q 17.828125 56 27.875 56 
Q 33.9375 56 38.28125 53.609375 
Q 42.625 51.21875 45.40625 46.390625 
L 45.40625 54.6875 
L 54.390625 54.6875 
z
" id="DejaVuSans-67"/>
      <path d="M 9.421875 75.984375 
L 18.40625 75.984375 
L 18.40625 0 
L 9.421875 0 
z
" id="DejaVuSans-6c"/>
      <path id="DejaVuSans-20"/>
      <path d="M 19.671875 64.796875 
L 19.671875 37.40625 
L 32.078125 37.40625 
Q 38.96875 37.40625 42.71875 40.96875 
Q 46.484375 44.53125 46.484375 51.125 
Q 46.484375 57.671875 42.71875 61.234375 
Q 38.96875 64.796875 32.078125 64.796875 
z
M 9.8125 72.90625 
L 32.078125 72.90625 
Q 44.34375 72.90625 50.609375 67.359375 
Q 56.890625 61.8125 56.890625 51.125 
Q 56.890625 40.328125 50.609375 34.8125 
Q 44.34375 29.296875 32.078125 29.296875 
L 19.671875 29.296875 
L 19.671875 0 
L 9.8125 0 
z
" id="DejaVuSans-50"/>
      <path d="M 4.203125 54.6875 
L 13.1875 54.6875 
L 24.421875 12.015625 
L 35.59375 54.6875 
L 46.1875 54.6875 
L 57.421875 12.015625 
L 68.609375 54.6875 
L 77.59375 54.6875 
L 63.28125 0 
L 52.6875 0 
L 40.921875 44.828125 
L 29.109375 0 
L 18.5 0 
z
" id="DejaVuSans-77"/>
     </defs>
     <g style="fill:#555555;" transform="translate(16.318125 197.247656)rotate(-90)scale(0.12 -0.12)">
      <use xlink:href="#DejaVuSans-4c"/>
      <use x="55.697266" xlink:href="#DejaVuSans-6f"/>
      <use x="116.878906" xlink:href="#DejaVuSans-6d"/>
      <use x="214.291016" xlink:href="#DejaVuSans-62"/>
      <use x="277.767578" xlink:href="#DejaVuSans-2d"/>
      <use x="313.851562" xlink:href="#DejaVuSans-53"/>
      <use x="377.328125" xlink:href="#DejaVuSans-63"/>
      <use x="432.308594" xlink:href="#DejaVuSans-61"/>
      <use x="493.587891" xlink:href="#DejaVuSans-72"/>
      <use x="534.685547" xlink:href="#DejaVuSans-67"/>
      <use x="598.162109" xlink:href="#DejaVuSans-6c"/>
      <use x="625.945312" xlink:href="#DejaVuSans-65"/>
      <use x="687.46875" xlink:href="#DejaVuSans-20"/>
      <use x="719.255859" xlink:href="#DejaVuSans-50"/>
      <use x="779.511719" xlink:href="#DejaVuSans-6f"/>
      <use x="840.693359" xlink:href="#DejaVuSans-77"/>
      <use x="922.480469" xlink:href="#DejaVuSans-65"/>
      <use x="984.003906" xlink:href="#DejaVuSans-72"/>
     </g>
    </g>
   </g>
   <g id="line2d_27">
    <path clip-path="url(#p7debd083ce)" d="M 59.935057 260.363675 
L 60.279749 260.133491 
L 60.624442 258.940957 
L 61.313828 254.591108 
L 61.65852 251.985622 
L 62.003213 250.386313 
L 62.347906 251.31231 
L 63.381984 259.909837 
L 63.726676 259.769366 
L 64.416062 255.092228 
L 64.760754 254.248639 
L 65.105447 255.218005 
L 65.794832 259.363064 
L 66.139525 260.163312 
L 66.82891 259.901295 
L 67.518296 260.450224 
L 67.862988 260.336351 
L 68.552374 259.155275 
L 68.897066 259.125034 
L 69.586452 260.426361 
L 69.931145 260.191541 
L 70.965223 256.325241 
L 71.309915 256.472394 
L 71.999301 259.835281 
L 72.343993 259.767529 
L 72.688686 257.915715 
L 73.378071 250.570063 
L 73.722764 248.844822 
L 74.067457 249.258869 
L 74.412149 249.887039 
L 74.756842 252.249893 
L 75.101535 255.9418 
L 75.446227 256.923839 
L 75.79092 255.301791 
L 76.135613 250.822029 
L 76.824998 233.086955 
L 77.169691 230.234903 
L 77.514383 233.977273 
L 78.548462 259.375605 
L 78.893154 260.338552 
L 79.927232 255.692921 
L 81.306003 255.796451 
L 81.650696 256.837762 
L 82.340081 259.856727 
L 82.684774 260.340443 
L 83.029466 260.382615 
L 83.718852 259.964043 
L 84.063544 259.688148 
L 84.408237 259.664017 
L 84.75293 259.867229 
L 85.097622 259.410904 
L 85.787008 255.734468 
L 86.476393 252.39865 
L 86.821086 253.673037 
L 87.165779 257.710863 
L 87.510471 260.267492 
L 87.855164 259.208177 
L 88.889242 248.000931 
L 89.233935 247.726288 
L 89.578627 249.97172 
L 90.268013 257.545534 
L 90.612705 258.564058 
L 90.957398 256.513486 
L 91.646783 247.755158 
L 91.991476 245.030269 
L 92.336169 244.650968 
L 92.680861 247.709301 
L 93.370247 257.201138 
L 93.714939 258.435811 
L 94.059632 257.549164 
L 94.749017 252.862811 
L 95.09371 252.03197 
L 96.127788 254.931446 
L 96.472481 254.512581 
L 96.817174 252.01838 
L 97.506559 243.70258 
L 97.851252 241.467519 
L 98.195944 242.212082 
L 98.540637 245.930238 
L 99.230022 257.277834 
L 99.574715 257.502216 
L 100.2641 253.862816 
L 100.608793 253.872846 
L 100.953486 256.060905 
L 101.298178 259.227814 
L 101.642871 260.169437 
L 101.987564 257.890875 
L 102.332256 254.093908 
L 102.676949 251.870689 
L 103.021642 253.096541 
L 103.711027 257.6513 
L 104.05572 258.487158 
L 104.400413 258.819809 
L 104.745105 258.725564 
L 105.089798 258.509419 
L 105.434491 258.128687 
L 105.779183 256.873066 
L 106.123876 255.064433 
L 106.468569 253.856349 
L 106.813261 253.846895 
L 107.847339 258.754585 
L 108.192032 257.970538 
L 109.22611 252.157 
L 109.570803 251.066399 
L 109.915495 250.787731 
L 110.260188 252.37247 
L 110.949573 258.162402 
L 111.294266 259.526766 
L 111.638959 259.857994 
L 112.328344 259.821998 
L 112.673037 259.507313 
L 113.01773 258.736384 
L 113.707115 256.510751 
L 114.051808 256.359286 
L 114.3965 257.133876 
L 114.741193 258.21852 
L 115.085886 258.861475 
L 115.430578 258.567314 
L 116.119964 256.204368 
L 116.464656 255.805806 
L 116.809349 256.879762 
L 117.498734 260.198209 
L 117.843427 260.453805 
L 118.18812 259.99418 
L 119.222198 257.787655 
L 119.911583 253.856992 
L 120.256276 253.343614 
L 120.600968 255.052503 
L 120.945661 257.370932 
L 121.290354 258.78028 
L 121.635047 258.646451 
L 121.979739 257.073313 
L 122.324432 253.89494 
L 122.669125 247.564389 
L 123.35851 232.805434 
L 123.703203 233.980508 
L 124.047895 240.585718 
L 124.737281 257.33166 
L 125.081973 259.226384 
L 125.426666 254.343265 
L 125.771359 247.710578 
L 126.116051 245.614009 
L 126.460744 247.534875 
L 127.150129 255.099271 
L 127.494822 258.71009 
L 127.839515 260.052994 
L 128.184207 259.413707 
L 128.873593 254.455769 
L 129.218285 254.100802 
L 129.562978 255.360392 
L 130.252364 259.245374 
L 130.597056 259.919235 
L 130.941749 259.868949 
L 131.286442 260.088763 
L 131.631134 260.451341 
L 131.975827 260.24357 
L 132.32052 259.480742 
L 132.665212 259.045085 
L 133.009905 259.395054 
L 133.354598 259.914042 
L 133.69929 259.009956 
L 134.733368 250.294323 
L 135.078061 251.999111 
L 135.767446 259.488231 
L 136.112139 260.418482 
L 136.456832 258.58265 
L 137.146217 252.404684 
L 138.180295 246.222955 
L 139.214373 239.101081 
L 139.559066 237.930957 
L 139.903759 239.589582 
L 141.282529 256.652911 
L 141.627222 258.331201 
L 142.6613 259.474982 
L 143.005993 260.037284 
L 143.350685 260.354426 
L 143.695378 260.391151 
L 144.040071 260.100225 
L 144.729456 258.868315 
L 145.074149 258.57963 
L 145.418841 258.931825 
L 145.763534 259.538221 
L 146.108227 259.25848 
L 146.452919 257.551146 
L 146.797612 255.213261 
L 147.142305 253.728034 
L 147.486998 254.362132 
L 148.176383 258.563192 
L 148.521076 258.639716 
L 148.865768 257.94605 
L 149.210461 257.6744 
L 149.555154 258.195143 
L 150.244539 260.014734 
L 150.589232 260.08296 
L 151.278617 258.890504 
L 151.62331 258.126564 
L 152.312695 255.714259 
L 152.657388 255.402943 
L 153.691466 258.146058 
L 154.036158 258.333024 
L 154.380851 257.27976 
L 154.725544 255.018521 
L 155.070236 253.539875 
L 155.414929 254.632801 
L 156.104315 259.253139 
L 156.449007 259.054013 
L 156.7937 254.569671 
L 157.138393 248.369218 
L 157.483085 246.787704 
L 157.827778 250.239328 
L 158.172471 254.942032 
L 158.517163 257.949639 
L 158.861856 257.324174 
L 159.551241 249.624356 
L 159.895934 250.087772 
L 160.585319 259.102768 
L 160.930012 260.422756 
L 161.274705 258.091768 
L 161.96409 248.809698 
L 162.308783 247.89948 
L 162.998168 251.682738 
L 164.032246 258.753654 
L 164.376939 259.548119 
L 165.066324 259.344536 
L 165.411017 259.657801 
L 165.75571 260.275462 
L 166.100402 260.415982 
L 166.445095 259.305736 
L 167.479173 251.528452 
L 167.823866 251.709286 
L 169.202636 259.56551 
L 169.547329 259.987468 
L 169.892022 259.510432 
L 170.581407 257.81718 
L 170.9261 257.57667 
L 171.615485 257.712581 
L 171.960178 257.953147 
L 172.994256 259.343591 
L 173.338949 259.16142 
L 173.683641 258.849701 
L 174.028334 258.802194 
L 175.751797 259.744607 
L 176.441183 260.30382 
L 176.785875 260.457811 
L 177.130568 260.464718 
L 177.475261 260.324177 
L 177.819953 259.922819 
L 178.509339 258.358143 
L 178.854031 258.306511 
L 179.543417 259.641239 
L 179.888109 259.698644 
L 180.232802 257.998 
L 180.577495 254.988166 
L 180.922187 253.275444 
L 181.26688 253.772752 
L 181.956266 256.398266 
L 182.300958 255.62209 
L 182.990344 249.415708 
L 183.335036 247.974933 
L 184.024422 248.62363 
L 184.369114 248.73056 
L 184.713807 250.396779 
L 185.403192 256.493699 
L 185.747885 258.832503 
L 186.092578 260.181515 
L 186.43727 259.614049 
L 187.126656 256.900977 
L 187.471348 257.211197 
L 188.160734 260.055459 
L 188.505426 260.185865 
L 189.194812 259.155379 
L 189.539504 259.291586 
L 189.884197 259.917118 
L 190.22889 260.087154 
L 190.573583 259.116334 
L 190.918275 256.91946 
L 191.607661 251.166993 
L 191.952353 249.572104 
L 192.297046 249.615382 
L 192.641739 251.155675 
L 193.675817 257.069207 
L 194.020509 258.391203 
L 194.365202 258.854161 
L 194.709895 258.362069 
L 195.054587 256.440947 
L 195.743973 248.974111 
L 196.088665 247.656806 
L 196.433358 249.8898 
L 197.122743 257.410263 
L 197.467436 259.922478 
L 197.812129 260.275093 
L 198.156821 257.969682 
L 198.846207 249.69244 
L 199.1909 248.391759 
L 200.224978 250.972337 
L 200.56967 252.843738 
L 201.259056 254.967298 
L 201.948441 259.581409 
L 202.293134 260.422436 
L 202.637826 259.799956 
L 202.982519 258.870666 
L 203.327212 258.678419 
L 204.016597 259.670592 
L 204.36129 259.166687 
L 204.705982 257.408036 
L 205.395368 252.498096 
L 205.74006 252.058826 
L 206.084753 253.580724 
L 206.774138 259.623561 
L 207.118831 260.373614 
L 207.463524 258.417254 
L 207.808217 255.583208 
L 208.152909 255.09172 
L 208.497602 257.741741 
L 208.842295 258.483756 
L 209.53168 252.746285 
L 209.876373 254.760797 
L 210.221065 259.319001 
L 210.565758 253.932676 
L 210.910451 226.702637 
L 211.255143 174.742769 
L 211.944529 31.742659 
L 212.289221 20.1789 
L 212.633914 78.40355 
L 213.323299 221.368126 
L 213.667992 255.295756 
L 214.012685 258.04628 
L 214.357377 246.688236 
L 214.70207 240.820774 
L 215.046763 243.592418 
L 215.736148 255.804476 
L 216.080841 257.384971 
L 216.425533 257.625914 
L 217.114919 260.107419 
L 217.459612 260.285573 
L 218.148997 257.608652 
L 218.49369 257.852799 
L 218.838382 258.6513 
L 219.183075 258.881261 
L 219.87246 257.951756 
L 220.217153 258.295092 
L 220.906538 260.403023 
L 221.251231 259.957461 
L 222.285309 253.892172 
L 222.630002 253.02098 
L 222.974694 252.677287 
L 223.319387 253.43623 
L 224.353465 259.114397 
L 224.698158 259.342145 
L 225.387543 256.543145 
L 225.732236 256.156885 
L 226.076929 257.334901 
L 226.421621 259.12225 
L 226.766314 259.051336 
L 227.111007 255.560438 
L 227.455699 250.306243 
L 227.800392 247.129477 
L 228.145085 247.56782 
L 228.489777 250.341266 
L 229.179163 257.430345 
L 229.523855 259.540099 
L 229.868548 260.40843 
L 230.213241 260.050223 
L 230.557933 258.222004 
L 231.936704 247.164507 
L 232.281397 247.498062 
L 232.626089 249.157927 
L 233.660167 256.731488 
L 234.349553 258.846863 
L 234.694246 259.729101 
L 235.038938 260.283577 
L 235.383631 260.41933 
L 235.728324 260.265388 
L 236.417709 259.699658 
L 237.107094 259.382352 
L 238.485865 258.110827 
L 239.519943 257.023665 
L 239.864636 257.096385 
L 240.209328 257.365536 
L 240.554021 257.370548 
L 240.898714 256.673015 
L 241.243406 254.787197 
L 242.277484 244.629729 
L 242.622177 244.201001 
L 242.96687 245.743297 
L 243.311563 249.542401 
L 244.000948 259.220872 
L 244.345641 259.92112 
L 244.690333 257.510526 
L 245.035026 254.057552 
L 245.379719 252.241369 
L 245.724411 252.86783 
L 246.413797 256.952421 
L 246.758489 258.962524 
L 247.103182 259.983865 
L 247.447875 260.091031 
L 248.13726 259.937129 
L 248.826645 259.883516 
L 249.171338 259.466926 
L 249.516031 258.866464 
L 249.860723 258.769603 
L 250.550109 260.138188 
L 250.894801 260.36836 
L 251.239494 259.761162 
L 251.92888 257.063877 
L 252.618265 255.938149 
L 252.962958 254.986545 
L 253.997036 250.359408 
L 254.341728 249.892964 
L 254.686421 251.349756 
L 255.720499 260.160792 
L 256.065192 260.392738 
L 256.754577 259.066721 
L 257.09927 259.158873 
L 257.443962 259.59418 
L 257.788655 259.149659 
L 258.133348 258.280524 
L 258.47804 258.293838 
L 259.167426 260.427137 
L 259.512118 259.205729 
L 259.856811 254.241973 
L 260.546197 242.596804 
L 260.890889 241.875496 
L 261.235582 244.870693 
L 261.924967 253.940494 
L 262.26966 256.781289 
L 262.614353 258.12548 
L 262.959045 258.340785 
L 263.303738 257.792229 
L 263.648431 257.026396 
L 263.993123 256.630975 
L 264.337816 256.713813 
L 265.027201 257.683274 
L 265.371894 256.754354 
L 265.716587 254.340034 
L 266.405972 247.413714 
L 266.750665 245.975902 
L 267.095357 248.546807 
L 267.784743 257.700365 
L 268.129435 260.391763 
L 268.474128 258.460164 
L 269.163514 245.092762 
L 269.508206 242.598974 
L 269.852899 246.316307 
L 270.197592 252.655645 
L 270.542284 256.54107 
L 270.886977 255.705112 
L 271.23167 252.501621 
L 271.576362 250.493649 
L 271.921055 250.759337 
L 272.265748 253.023486 
L 272.955133 259.827707 
L 273.299826 260.339847 
L 273.644518 259.786695 
L 273.989211 259.661726 
L 274.333904 260.044996 
L 274.678596 259.903468 
L 275.023289 257.805614 
L 275.712674 251.942889 
L 276.057367 250.411046 
L 276.40206 250.47867 
L 277.436138 255.77471 
L 278.125523 257.678288 
L 278.470216 258.980501 
L 278.814909 259.825623 
L 279.159601 258.781554 
L 279.848987 254.279193 
L 280.193679 254.4574 
L 280.883065 259.5253 
L 281.227757 260.193068 
L 281.57245 257.700969 
L 282.261835 247.96671 
L 282.606528 245.534953 
L 282.951221 247.021279 
L 283.640606 252.484022 
L 283.985299 253.953105 
L 284.329991 254.216144 
L 284.674684 252.910028 
L 285.364069 248.134857 
L 285.708762 247.26471 
L 286.053455 248.842027 
L 287.087533 258.011287 
L 287.432226 259.387906 
L 287.776918 259.676668 
L 288.810996 259.275951 
L 289.155689 259.522491 
L 289.500382 259.572388 
L 289.845074 258.830869 
L 290.53446 254.54058 
L 290.879152 253.742939 
L 291.568538 255.284138 
L 291.91323 254.740989 
L 292.602616 252.371464 
L 292.947308 251.975951 
L 293.292001 252.74511 
L 294.326079 256.797434 
L 294.670772 259.138402 
L 295.015465 260.234003 
L 295.360157 259.842306 
L 295.70485 258.277747 
L 296.049543 256.167194 
L 296.394235 255.184077 
L 296.738928 255.999865 
L 297.083621 256.208653 
L 297.428313 254.728476 
L 297.773006 253.851054 
L 298.117699 255.4024 
L 298.462391 258.486653 
L 298.807084 260.455577 
L 299.151777 258.870048 
L 299.841162 250.446833 
L 300.185855 247.835335 
L 300.530547 248.347012 
L 301.219933 255.996669 
L 301.564625 255.868399 
L 301.909318 253.413723 
L 302.254011 251.834683 
L 302.598703 252.137432 
L 302.943396 253.971052 
L 303.632782 258.708224 
L 303.977474 259.804809 
L 304.322167 260.070283 
L 304.66686 260.045762 
L 305.011552 259.75757 
L 305.356245 258.685458 
L 305.700938 256.461441 
L 306.390323 250.520275 
L 306.735016 249.716554 
L 307.079708 251.919644 
L 307.769094 258.421421 
L 308.113786 259.118505 
L 308.458479 258.603637 
L 308.803172 258.319601 
L 309.147864 258.754923 
L 309.492557 259.512661 
L 309.83725 259.90833 
L 310.181942 259.571659 
L 310.526635 258.838392 
L 310.871328 257.829432 
L 311.21602 255.900765 
L 312.250099 246.398785 
L 312.594791 246.81721 
L 313.628869 256.899858 
L 313.973562 258.057374 
L 314.318255 257.458828 
L 314.662947 256.197532 
L 315.00764 255.624544 
L 315.352333 256.092685 
L 316.041718 257.815911 
L 317.420489 260.184303 
L 317.765181 260.451044 
L 318.109874 259.671483 
L 318.454567 257.243034 
L 319.143952 250.412678 
L 319.488645 248.436413 
L 319.833337 249.113312 
L 320.522723 256.550251 
L 320.867416 256.815993 
L 321.556801 252.725631 
L 321.901494 251.36194 
L 322.246186 252.162014 
L 322.935572 257.924963 
L 323.280264 256.503749 
L 324.314342 244.465667 
L 324.659035 248.260696 
L 325.34842 259.269096 
L 325.693113 260.350134 
L 326.727191 254.811717 
L 327.071884 255.827196 
L 327.761269 260.319252 
L 328.105962 259.96594 
L 329.14004 253.609244 
L 329.484733 254.578463 
L 330.174118 258.468678 
L 330.518811 259.696598 
L 330.863503 260.295685 
L 331.208196 260.441137 
L 331.897581 260.26779 
L 332.586967 260.45656 
L 332.931659 260.261102 
L 333.276352 259.470028 
L 333.965737 257.022987 
L 334.655123 255.22609 
L 334.999815 253.4852 
L 335.689201 248.540103 
L 336.033893 249.353177 
L 336.723279 257.078877 
L 337.067971 258.493133 
L 337.412664 257.612597 
L 338.10205 253.467814 
L 338.446742 253.061806 
L 339.136128 253.793743 
L 339.48082 254.213219 
L 339.825513 253.637914 
L 340.859591 247.163993 
L 341.204284 247.659458 
L 341.548976 248.977675 
L 341.893669 248.876129 
L 342.238362 248.317807 
L 342.583054 249.948714 
L 343.27244 254.959861 
L 344.306518 259.793794 
L 344.65121 259.22175 
L 345.685288 253.26125 
L 346.029981 253.004745 
L 346.374674 253.47666 
L 347.753445 258.109046 
L 348.44283 259.445914 
L 349.132215 259.922916 
L 349.476908 260.085746 
L 349.821601 259.976803 
L 350.166293 259.094773 
L 350.510986 256.952205 
L 351.200371 249.906093 
L 351.545064 249.429974 
L 352.923835 256.039049 
L 353.268527 255.91844 
L 353.957913 255.108705 
L 354.647298 254.452546 
L 354.991991 254.282962 
L 355.336684 254.559192 
L 356.370762 257.47953 
L 357.060147 257.783712 
L 357.40484 258.231533 
L 358.094225 260.034608 
L 358.438918 260.467271 
L 358.78361 260.190762 
L 359.128303 258.906187 
L 359.817688 254.985031 
L 360.162381 253.872535 
L 360.507074 253.986535 
L 360.851766 255.950409 
L 361.196459 259.040344 
L 361.541152 260.325532 
L 361.885844 258.272247 
L 362.57523 250.845679 
L 362.919922 250.811974 
L 363.609308 259.839887 
L 363.954001 258.189115 
L 364.298693 251.987029 
L 364.298693 251.987029 
" style="fill:none;stroke:#e24a33;stroke-linecap:square;stroke-width:1.7;"/>
   </g>
   <g id="patch_3">
    <path d="M 44.716875 260.479219 
L 44.716875 10.999219 
" style="fill:none;stroke:#ffffff;stroke-linecap:square;stroke-linejoin:miter;"/>
   </g>
   <g id="patch_4">
    <path d="M 379.516875 260.479219 
L 379.516875 10.999219 
" style="fill:none;stroke:#ffffff;stroke-linecap:square;stroke-linejoin:miter;"/>
   </g>
   <g id="patch_5">
    <path d="M 44.716875 260.479219 
L 379.516875 260.479219 
" style="fill:none;stroke:#ffffff;stroke-linecap:square;stroke-linejoin:miter;"/>
   </g>
   <g id="patch_6">
    <path d="M 44.716875 10.999219 
L 379.516875 10.999219 
" style="fill:none;stroke:#ffffff;stroke-linecap:square;stroke-linejoin:miter;"/>
   </g>
  </g>
 </g>
 <defs>
  <clipPath id="p7debd083ce">
   <rect height="249.48" width="334.8" x="44.716875" y="10.999219"/>
  </clipPath>
 </defs>
</svg>
