<?xml version="1.0" encoding="utf-8" standalone="no"?>
<!DOCTYPE svg PUBLIC "-//W3C//DTD SVG 1.1//EN"
  "http://www.w3.org/Graphics/SVG/1.1/DTD/svg11.dtd">
<!-- Created with matplotlib (http://matplotlib.org/) -->
<svg height="312pt" version="1.1" viewBox="0 0 395 312" width="395pt" xmlns="http://www.w3.org/2000/svg" xmlns:xlink="http://www.w3.org/1999/xlink">
 <defs>
  <style type="text/css">
*{stroke-linecap:butt;stroke-linejoin:round;}
  </style>
 </defs>
 <g id="figure_1">
  <g id="patch_1">
   <path d="M 0 312.113625 
L 395.096563 312.113625 
L 395.096563 0 
L 0 0 
z
" style="fill:none;"/>
  </g>
  <g id="axes_1">
   <g id="patch_2">
    <path d="M 53.096563 273.62175 
L 387.896563 273.62175 
L 387.896563 24.14175 
L 53.096563 24.14175 
z
" style="fill:#e5e5e5;"/>
   </g>
   <g id="matplotlib.axis_1">
    <g id="xtick_1">
     <g id="line2d_1">
      <path clip-path="url(#p032ee38d97)" d="M 68.314744 273.62175 
L 68.314744 24.14175 
" style="fill:none;stroke:#ffffff;stroke-linecap:square;stroke-width:0.8;"/>
     </g>
     <g id="line2d_2"/>
     <g id="text_1">
      <!-- 0.0 -->
      <defs>
       <path d="M 31.78125 66.40625 
Q 24.171875 66.40625 20.328125 58.90625 
Q 16.5 51.421875 16.5 36.375 
Q 16.5 21.390625 20.328125 13.890625 
Q 24.171875 6.390625 31.78125 6.390625 
Q 39.453125 6.390625 43.28125 13.890625 
Q 47.125 21.390625 47.125 36.375 
Q 47.125 51.421875 43.28125 58.90625 
Q 39.453125 66.40625 31.78125 66.40625 
M 31.78125 74.21875 
Q 44.046875 74.21875 50.515625 64.515625 
Q 56.984375 54.828125 56.984375 36.375 
Q 56.984375 17.96875 50.515625 8.265625 
Q 44.046875 -1.421875 31.78125 -1.421875 
Q 19.53125 -1.421875 13.0625 8.265625 
Q 6.59375 17.96875 6.59375 36.375 
Q 6.59375 54.828125 13.0625 64.515625 
Q 19.53125 74.21875 31.78125 74.21875 
" id="DejaVuSans-30"/>
       <path d="M 10.6875 12.40625 
L 21 12.40625 
L 21 0 
L 10.6875 0 
z
" id="DejaVuSans-2e"/>
      </defs>
      <g style="fill:#555555;" transform="translate(60.363182 287.220187)scale(0.1 -0.1)">
       <use xlink:href="#DejaVuSans-30"/>
       <use x="63.623047" xlink:href="#DejaVuSans-2e"/>
       <use x="95.410156" xlink:href="#DejaVuSans-30"/>
      </g>
     </g>
    </g>
    <g id="xtick_2">
     <g id="line2d_3">
      <path clip-path="url(#p032ee38d97)" d="M 129.187472 273.62175 
L 129.187472 24.14175 
" style="fill:none;stroke:#ffffff;stroke-linecap:square;stroke-width:0.8;"/>
     </g>
     <g id="line2d_4"/>
     <g id="text_2">
      <!-- 0.2 -->
      <defs>
       <path d="M 19.1875 8.296875 
L 53.609375 8.296875 
L 53.609375 0 
L 7.328125 0 
L 7.328125 8.296875 
Q 12.9375 14.109375 22.625 23.890625 
Q 32.328125 33.6875 34.8125 36.53125 
Q 39.546875 41.84375 41.421875 45.53125 
Q 43.3125 49.21875 43.3125 52.78125 
Q 43.3125 58.59375 39.234375 62.25 
Q 35.15625 65.921875 28.609375 65.921875 
Q 23.96875 65.921875 18.8125 64.3125 
Q 13.671875 62.703125 7.8125 59.421875 
L 7.8125 69.390625 
Q 13.765625 71.78125 18.9375 73 
Q 24.125 74.21875 28.421875 74.21875 
Q 39.75 74.21875 46.484375 68.546875 
Q 53.21875 62.890625 53.21875 53.421875 
Q 53.21875 48.921875 51.53125 44.890625 
Q 49.859375 40.875 45.40625 35.40625 
Q 44.1875 33.984375 37.640625 27.21875 
Q 31.109375 20.453125 19.1875 8.296875 
" id="DejaVuSans-32"/>
      </defs>
      <g style="fill:#555555;" transform="translate(121.235909 287.220187)scale(0.1 -0.1)">
       <use xlink:href="#DejaVuSans-30"/>
       <use x="63.623047" xlink:href="#DejaVuSans-2e"/>
       <use x="95.410156" xlink:href="#DejaVuSans-32"/>
      </g>
     </g>
    </g>
    <g id="xtick_3">
     <g id="line2d_5">
      <path clip-path="url(#p032ee38d97)" d="M 190.060199 273.62175 
L 190.060199 24.14175 
" style="fill:none;stroke:#ffffff;stroke-linecap:square;stroke-width:0.8;"/>
     </g>
     <g id="line2d_6"/>
     <g id="text_3">
      <!-- 0.4 -->
      <defs>
       <path d="M 37.796875 64.3125 
L 12.890625 25.390625 
L 37.796875 25.390625 
z
M 35.203125 72.90625 
L 47.609375 72.90625 
L 47.609375 25.390625 
L 58.015625 25.390625 
L 58.015625 17.1875 
L 47.609375 17.1875 
L 47.609375 0 
L 37.796875 0 
L 37.796875 17.1875 
L 4.890625 17.1875 
L 4.890625 26.703125 
z
" id="DejaVuSans-34"/>
      </defs>
      <g style="fill:#555555;" transform="translate(182.108636 287.220187)scale(0.1 -0.1)">
       <use xlink:href="#DejaVuSans-30"/>
       <use x="63.623047" xlink:href="#DejaVuSans-2e"/>
       <use x="95.410156" xlink:href="#DejaVuSans-34"/>
      </g>
     </g>
    </g>
    <g id="xtick_4">
     <g id="line2d_7">
      <path clip-path="url(#p032ee38d97)" d="M 250.932926 273.62175 
L 250.932926 24.14175 
" style="fill:none;stroke:#ffffff;stroke-linecap:square;stroke-width:0.8;"/>
     </g>
     <g id="line2d_8"/>
     <g id="text_4">
      <!-- 0.6 -->
      <defs>
       <path d="M 33.015625 40.375 
Q 26.375 40.375 22.484375 35.828125 
Q 18.609375 31.296875 18.609375 23.390625 
Q 18.609375 15.53125 22.484375 10.953125 
Q 26.375 6.390625 33.015625 6.390625 
Q 39.65625 6.390625 43.53125 10.953125 
Q 47.40625 15.53125 47.40625 23.390625 
Q 47.40625 31.296875 43.53125 35.828125 
Q 39.65625 40.375 33.015625 40.375 
M 52.59375 71.296875 
L 52.59375 62.3125 
Q 48.875 64.0625 45.09375 64.984375 
Q 41.3125 65.921875 37.59375 65.921875 
Q 27.828125 65.921875 22.671875 59.328125 
Q 17.53125 52.734375 16.796875 39.40625 
Q 19.671875 43.65625 24.015625 45.921875 
Q 28.375 48.1875 33.59375 48.1875 
Q 44.578125 48.1875 50.953125 41.515625 
Q 57.328125 34.859375 57.328125 23.390625 
Q 57.328125 12.15625 50.6875 5.359375 
Q 44.046875 -1.421875 33.015625 -1.421875 
Q 20.359375 -1.421875 13.671875 8.265625 
Q 6.984375 17.96875 6.984375 36.375 
Q 6.984375 53.65625 15.1875 63.9375 
Q 23.390625 74.21875 37.203125 74.21875 
Q 40.921875 74.21875 44.703125 73.484375 
Q 48.484375 72.75 52.59375 71.296875 
" id="DejaVuSans-36"/>
      </defs>
      <g style="fill:#555555;" transform="translate(242.981364 287.220187)scale(0.1 -0.1)">
       <use xlink:href="#DejaVuSans-30"/>
       <use x="63.623047" xlink:href="#DejaVuSans-2e"/>
       <use x="95.410156" xlink:href="#DejaVuSans-36"/>
      </g>
     </g>
    </g>
    <g id="xtick_5">
     <g id="line2d_9">
      <path clip-path="url(#p032ee38d97)" d="M 311.805653 273.62175 
L 311.805653 24.14175 
" style="fill:none;stroke:#ffffff;stroke-linecap:square;stroke-width:0.8;"/>
     </g>
     <g id="line2d_10"/>
     <g id="text_5">
      <!-- 0.8 -->
      <defs>
       <path d="M 31.78125 34.625 
Q 24.75 34.625 20.71875 30.859375 
Q 16.703125 27.09375 16.703125 20.515625 
Q 16.703125 13.921875 20.71875 10.15625 
Q 24.75 6.390625 31.78125 6.390625 
Q 38.8125 6.390625 42.859375 10.171875 
Q 46.921875 13.96875 46.921875 20.515625 
Q 46.921875 27.09375 42.890625 30.859375 
Q 38.875 34.625 31.78125 34.625 
M 21.921875 38.8125 
Q 15.578125 40.375 12.03125 44.71875 
Q 8.5 49.078125 8.5 55.328125 
Q 8.5 64.0625 14.71875 69.140625 
Q 20.953125 74.21875 31.78125 74.21875 
Q 42.671875 74.21875 48.875 69.140625 
Q 55.078125 64.0625 55.078125 55.328125 
Q 55.078125 49.078125 51.53125 44.71875 
Q 48 40.375 41.703125 38.8125 
Q 48.828125 37.15625 52.796875 32.3125 
Q 56.78125 27.484375 56.78125 20.515625 
Q 56.78125 9.90625 50.3125 4.234375 
Q 43.84375 -1.421875 31.78125 -1.421875 
Q 19.734375 -1.421875 13.25 4.234375 
Q 6.78125 9.90625 6.78125 20.515625 
Q 6.78125 27.484375 10.78125 32.3125 
Q 14.796875 37.15625 21.921875 38.8125 
M 18.3125 54.390625 
Q 18.3125 48.734375 21.84375 45.5625 
Q 25.390625 42.390625 31.78125 42.390625 
Q 38.140625 42.390625 41.71875 45.5625 
Q 45.3125 48.734375 45.3125 54.390625 
Q 45.3125 60.0625 41.71875 63.234375 
Q 38.140625 66.40625 31.78125 66.40625 
Q 25.390625 66.40625 21.84375 63.234375 
Q 18.3125 60.0625 18.3125 54.390625 
" id="DejaVuSans-38"/>
      </defs>
      <g style="fill:#555555;" transform="translate(303.854091 287.220187)scale(0.1 -0.1)">
       <use xlink:href="#DejaVuSans-30"/>
       <use x="63.623047" xlink:href="#DejaVuSans-2e"/>
       <use x="95.410156" xlink:href="#DejaVuSans-38"/>
      </g>
     </g>
    </g>
    <g id="xtick_6">
     <g id="line2d_11">
      <path clip-path="url(#p032ee38d97)" d="M 372.678381 273.62175 
L 372.678381 24.14175 
" style="fill:none;stroke:#ffffff;stroke-linecap:square;stroke-width:0.8;"/>
     </g>
     <g id="line2d_12"/>
     <g id="text_6">
      <!-- 1.0 -->
      <defs>
       <path d="M 12.40625 8.296875 
L 28.515625 8.296875 
L 28.515625 63.921875 
L 10.984375 60.40625 
L 10.984375 69.390625 
L 28.421875 72.90625 
L 38.28125 72.90625 
L 38.28125 8.296875 
L 54.390625 8.296875 
L 54.390625 0 
L 12.40625 0 
z
" id="DejaVuSans-31"/>
      </defs>
      <g style="fill:#555555;" transform="translate(364.726818 287.220187)scale(0.1 -0.1)">
       <use xlink:href="#DejaVuSans-31"/>
       <use x="63.623047" xlink:href="#DejaVuSans-2e"/>
       <use x="95.410156" xlink:href="#DejaVuSans-30"/>
      </g>
     </g>
    </g>
    <g id="text_7">
     <!-- phase -->
     <defs>
      <path d="M 18.109375 8.203125 
L 18.109375 -20.796875 
L 9.078125 -20.796875 
L 9.078125 54.6875 
L 18.109375 54.6875 
L 18.109375 46.390625 
Q 20.953125 51.265625 25.265625 53.625 
Q 29.59375 56 35.59375 56 
Q 45.5625 56 51.78125 48.09375 
Q 58.015625 40.1875 58.015625 27.296875 
Q 58.015625 14.40625 51.78125 6.484375 
Q 45.5625 -1.421875 35.59375 -1.421875 
Q 29.59375 -1.421875 25.265625 0.953125 
Q 20.953125 3.328125 18.109375 8.203125 
M 48.6875 27.296875 
Q 48.6875 37.203125 44.609375 42.84375 
Q 40.53125 48.484375 33.40625 48.484375 
Q 26.265625 48.484375 22.1875 42.84375 
Q 18.109375 37.203125 18.109375 27.296875 
Q 18.109375 17.390625 22.1875 11.75 
Q 26.265625 6.109375 33.40625 6.109375 
Q 40.53125 6.109375 44.609375 11.75 
Q 48.6875 17.390625 48.6875 27.296875 
" id="DejaVuSans-70"/>
      <path d="M 54.890625 33.015625 
L 54.890625 0 
L 45.90625 0 
L 45.90625 32.71875 
Q 45.90625 40.484375 42.875 44.328125 
Q 39.84375 48.1875 33.796875 48.1875 
Q 26.515625 48.1875 22.3125 43.546875 
Q 18.109375 38.921875 18.109375 30.90625 
L 18.109375 0 
L 9.078125 0 
L 9.078125 75.984375 
L 18.109375 75.984375 
L 18.109375 46.1875 
Q 21.34375 51.125 25.703125 53.5625 
Q 30.078125 56 35.796875 56 
Q 45.21875 56 50.046875 50.171875 
Q 54.890625 44.34375 54.890625 33.015625 
" id="DejaVuSans-68"/>
      <path d="M 34.28125 27.484375 
Q 23.390625 27.484375 19.1875 25 
Q 14.984375 22.515625 14.984375 16.5 
Q 14.984375 11.71875 18.140625 8.90625 
Q 21.296875 6.109375 26.703125 6.109375 
Q 34.1875 6.109375 38.703125 11.40625 
Q 43.21875 16.703125 43.21875 25.484375 
L 43.21875 27.484375 
z
M 52.203125 31.203125 
L 52.203125 0 
L 43.21875 0 
L 43.21875 8.296875 
Q 40.140625 3.328125 35.546875 0.953125 
Q 30.953125 -1.421875 24.3125 -1.421875 
Q 15.921875 -1.421875 10.953125 3.296875 
Q 6 8.015625 6 15.921875 
Q 6 25.140625 12.171875 29.828125 
Q 18.359375 34.515625 30.609375 34.515625 
L 43.21875 34.515625 
L 43.21875 35.40625 
Q 43.21875 41.609375 39.140625 45 
Q 35.0625 48.390625 27.6875 48.390625 
Q 23 48.390625 18.546875 47.265625 
Q 14.109375 46.140625 10.015625 43.890625 
L 10.015625 52.203125 
Q 14.9375 54.109375 19.578125 55.046875 
Q 24.21875 56 28.609375 56 
Q 40.484375 56 46.34375 49.84375 
Q 52.203125 43.703125 52.203125 31.203125 
" id="DejaVuSans-61"/>
      <path d="M 44.28125 53.078125 
L 44.28125 44.578125 
Q 40.484375 46.53125 36.375 47.5 
Q 32.28125 48.484375 27.875 48.484375 
Q 21.1875 48.484375 17.84375 46.4375 
Q 14.5 44.390625 14.5 40.28125 
Q 14.5 37.15625 16.890625 35.375 
Q 19.28125 33.59375 26.515625 31.984375 
L 29.59375 31.296875 
Q 39.15625 29.25 43.1875 25.515625 
Q 47.21875 21.78125 47.21875 15.09375 
Q 47.21875 7.46875 41.1875 3.015625 
Q 35.15625 -1.421875 24.609375 -1.421875 
Q 20.21875 -1.421875 15.453125 -0.5625 
Q 10.6875 0.296875 5.421875 2 
L 5.421875 11.28125 
Q 10.40625 8.6875 15.234375 7.390625 
Q 20.0625 6.109375 24.8125 6.109375 
Q 31.15625 6.109375 34.5625 8.28125 
Q 37.984375 10.453125 37.984375 14.40625 
Q 37.984375 18.0625 35.515625 20.015625 
Q 33.0625 21.96875 24.703125 23.78125 
L 21.578125 24.515625 
Q 13.234375 26.265625 9.515625 29.90625 
Q 5.8125 33.546875 5.8125 39.890625 
Q 5.8125 47.609375 11.28125 51.796875 
Q 16.75 56 26.8125 56 
Q 31.78125 56 36.171875 55.265625 
Q 40.578125 54.546875 44.28125 53.078125 
" id="DejaVuSans-73"/>
      <path d="M 56.203125 29.59375 
L 56.203125 25.203125 
L 14.890625 25.203125 
Q 15.484375 15.921875 20.484375 11.0625 
Q 25.484375 6.203125 34.421875 6.203125 
Q 39.59375 6.203125 44.453125 7.46875 
Q 49.3125 8.734375 54.109375 11.28125 
L 54.109375 2.78125 
Q 49.265625 0.734375 44.1875 -0.34375 
Q 39.109375 -1.421875 33.890625 -1.421875 
Q 20.796875 -1.421875 13.15625 6.1875 
Q 5.515625 13.8125 5.515625 26.8125 
Q 5.515625 40.234375 12.765625 48.109375 
Q 20.015625 56 32.328125 56 
Q 43.359375 56 49.78125 48.890625 
Q 56.203125 41.796875 56.203125 29.59375 
M 47.21875 32.234375 
Q 47.125 39.59375 43.09375 43.984375 
Q 39.0625 48.390625 32.421875 48.390625 
Q 24.90625 48.390625 20.390625 44.140625 
Q 15.875 39.890625 15.1875 32.171875 
z
" id="DejaVuSans-65"/>
     </defs>
     <g style="fill:#555555;" transform="translate(202.390625 302.418)scale(0.12 -0.12)">
      <use xlink:href="#DejaVuSans-70"/>
      <use x="63.476562" xlink:href="#DejaVuSans-68"/>
      <use x="126.855469" xlink:href="#DejaVuSans-61"/>
      <use x="188.134766" xlink:href="#DejaVuSans-73"/>
      <use x="240.234375" xlink:href="#DejaVuSans-65"/>
     </g>
    </g>
   </g>
   <g id="matplotlib.axis_2">
    <g id="ytick_1">
     <g id="line2d_13">
      <path clip-path="url(#p032ee38d97)" d="M 53.096563 56.212796 
L 387.896563 56.212796 
" style="fill:none;stroke:#ffffff;stroke-linecap:square;stroke-width:0.8;"/>
     </g>
     <g id="line2d_14"/>
     <g id="text_8">
      <!-- −1.0 -->
      <defs>
       <path d="M 10.59375 35.5 
L 73.1875 35.5 
L 73.1875 27.203125 
L 10.59375 27.203125 
z
" id="DejaVuSans-2212"/>
      </defs>
      <g style="fill:#555555;" transform="translate(22.81375 60.012015)scale(0.1 -0.1)">
       <use xlink:href="#DejaVuSans-2212"/>
       <use x="83.789062" xlink:href="#DejaVuSans-31"/>
       <use x="147.412109" xlink:href="#DejaVuSans-2e"/>
       <use x="179.199219" xlink:href="#DejaVuSans-30"/>
      </g>
     </g>
    </g>
    <g id="ytick_2">
     <g id="line2d_15">
      <path clip-path="url(#p032ee38d97)" d="M 53.096563 102.559286 
L 387.896563 102.559286 
" style="fill:none;stroke:#ffffff;stroke-linecap:square;stroke-width:0.8;"/>
     </g>
     <g id="line2d_16"/>
     <g id="text_9">
      <!-- −0.5 -->
      <defs>
       <path d="M 10.796875 72.90625 
L 49.515625 72.90625 
L 49.515625 64.59375 
L 19.828125 64.59375 
L 19.828125 46.734375 
Q 21.96875 47.46875 24.109375 47.828125 
Q 26.265625 48.1875 28.421875 48.1875 
Q 40.625 48.1875 47.75 41.5 
Q 54.890625 34.8125 54.890625 23.390625 
Q 54.890625 11.625 47.5625 5.09375 
Q 40.234375 -1.421875 26.90625 -1.421875 
Q 22.3125 -1.421875 17.546875 -0.640625 
Q 12.796875 0.140625 7.71875 1.703125 
L 7.71875 11.625 
Q 12.109375 9.234375 16.796875 8.0625 
Q 21.484375 6.890625 26.703125 6.890625 
Q 35.15625 6.890625 40.078125 11.328125 
Q 45.015625 15.765625 45.015625 23.390625 
Q 45.015625 31 40.078125 35.4375 
Q 35.15625 39.890625 26.703125 39.890625 
Q 22.75 39.890625 18.8125 39.015625 
Q 14.890625 38.140625 10.796875 36.28125 
z
" id="DejaVuSans-35"/>
      </defs>
      <g style="fill:#555555;" transform="translate(22.81375 106.358505)scale(0.1 -0.1)">
       <use xlink:href="#DejaVuSans-2212"/>
       <use x="83.789062" xlink:href="#DejaVuSans-30"/>
       <use x="147.412109" xlink:href="#DejaVuSans-2e"/>
       <use x="179.199219" xlink:href="#DejaVuSans-35"/>
      </g>
     </g>
    </g>
    <g id="ytick_3">
     <g id="line2d_17">
      <path clip-path="url(#p032ee38d97)" d="M 53.096563 148.905776 
L 387.896563 148.905776 
" style="fill:none;stroke:#ffffff;stroke-linecap:square;stroke-width:0.8;"/>
     </g>
     <g id="line2d_18"/>
     <g id="text_10">
      <!-- 0.0 -->
      <g style="fill:#555555;" transform="translate(31.193438 152.704995)scale(0.1 -0.1)">
       <use xlink:href="#DejaVuSans-30"/>
       <use x="63.623047" xlink:href="#DejaVuSans-2e"/>
       <use x="95.410156" xlink:href="#DejaVuSans-30"/>
      </g>
     </g>
    </g>
    <g id="ytick_4">
     <g id="line2d_19">
      <path clip-path="url(#p032ee38d97)" d="M 53.096563 195.252266 
L 387.896563 195.252266 
" style="fill:none;stroke:#ffffff;stroke-linecap:square;stroke-width:0.8;"/>
     </g>
     <g id="line2d_20"/>
     <g id="text_11">
      <!-- 0.5 -->
      <g style="fill:#555555;" transform="translate(31.193438 199.051484)scale(0.1 -0.1)">
       <use xlink:href="#DejaVuSans-30"/>
       <use x="63.623047" xlink:href="#DejaVuSans-2e"/>
       <use x="95.410156" xlink:href="#DejaVuSans-35"/>
      </g>
     </g>
    </g>
    <g id="ytick_5">
     <g id="line2d_21">
      <path clip-path="url(#p032ee38d97)" d="M 53.096563 241.598756 
L 387.896563 241.598756 
" style="fill:none;stroke:#ffffff;stroke-linecap:square;stroke-width:0.8;"/>
     </g>
     <g id="line2d_22"/>
     <g id="text_12">
      <!-- 1.0 -->
      <g style="fill:#555555;" transform="translate(31.193438 245.397974)scale(0.1 -0.1)">
       <use xlink:href="#DejaVuSans-31"/>
       <use x="63.623047" xlink:href="#DejaVuSans-2e"/>
       <use x="95.410156" xlink:href="#DejaVuSans-30"/>
      </g>
     </g>
    </g>
    <g id="text_13">
     <!-- magnitude -->
     <defs>
      <path d="M 52 44.1875 
Q 55.375 50.25 60.0625 53.125 
Q 64.75 56 71.09375 56 
Q 79.640625 56 84.28125 50.015625 
Q 88.921875 44.046875 88.921875 33.015625 
L 88.921875 0 
L 79.890625 0 
L 79.890625 32.71875 
Q 79.890625 40.578125 77.09375 44.375 
Q 74.3125 48.1875 68.609375 48.1875 
Q 61.625 48.1875 57.5625 43.546875 
Q 53.515625 38.921875 53.515625 30.90625 
L 53.515625 0 
L 44.484375 0 
L 44.484375 32.71875 
Q 44.484375 40.625 41.703125 44.40625 
Q 38.921875 48.1875 33.109375 48.1875 
Q 26.21875 48.1875 22.15625 43.53125 
Q 18.109375 38.875 18.109375 30.90625 
L 18.109375 0 
L 9.078125 0 
L 9.078125 54.6875 
L 18.109375 54.6875 
L 18.109375 46.1875 
Q 21.1875 51.21875 25.484375 53.609375 
Q 29.78125 56 35.6875 56 
Q 41.65625 56 45.828125 52.96875 
Q 50 49.953125 52 44.1875 
" id="DejaVuSans-6d"/>
      <path d="M 45.40625 27.984375 
Q 45.40625 37.75 41.375 43.109375 
Q 37.359375 48.484375 30.078125 48.484375 
Q 22.859375 48.484375 18.828125 43.109375 
Q 14.796875 37.75 14.796875 27.984375 
Q 14.796875 18.265625 18.828125 12.890625 
Q 22.859375 7.515625 30.078125 7.515625 
Q 37.359375 7.515625 41.375 12.890625 
Q 45.40625 18.265625 45.40625 27.984375 
M 54.390625 6.78125 
Q 54.390625 -7.171875 48.1875 -13.984375 
Q 42 -20.796875 29.203125 -20.796875 
Q 24.46875 -20.796875 20.265625 -20.09375 
Q 16.0625 -19.390625 12.109375 -17.921875 
L 12.109375 -9.1875 
Q 16.0625 -11.328125 19.921875 -12.34375 
Q 23.78125 -13.375 27.78125 -13.375 
Q 36.625 -13.375 41.015625 -8.765625 
Q 45.40625 -4.15625 45.40625 5.171875 
L 45.40625 9.625 
Q 42.625 4.78125 38.28125 2.390625 
Q 33.9375 0 27.875 0 
Q 17.828125 0 11.671875 7.65625 
Q 5.515625 15.328125 5.515625 27.984375 
Q 5.515625 40.671875 11.671875 48.328125 
Q 17.828125 56 27.875 56 
Q 33.9375 56 38.28125 53.609375 
Q 42.625 51.21875 45.40625 46.390625 
L 45.40625 54.6875 
L 54.390625 54.6875 
z
" id="DejaVuSans-67"/>
      <path d="M 54.890625 33.015625 
L 54.890625 0 
L 45.90625 0 
L 45.90625 32.71875 
Q 45.90625 40.484375 42.875 44.328125 
Q 39.84375 48.1875 33.796875 48.1875 
Q 26.515625 48.1875 22.3125 43.546875 
Q 18.109375 38.921875 18.109375 30.90625 
L 18.109375 0 
L 9.078125 0 
L 9.078125 54.6875 
L 18.109375 54.6875 
L 18.109375 46.1875 
Q 21.34375 51.125 25.703125 53.5625 
Q 30.078125 56 35.796875 56 
Q 45.21875 56 50.046875 50.171875 
Q 54.890625 44.34375 54.890625 33.015625 
" id="DejaVuSans-6e"/>
      <path d="M 9.421875 54.6875 
L 18.40625 54.6875 
L 18.40625 0 
L 9.421875 0 
z
M 9.421875 75.984375 
L 18.40625 75.984375 
L 18.40625 64.59375 
L 9.421875 64.59375 
z
" id="DejaVuSans-69"/>
      <path d="M 18.3125 70.21875 
L 18.3125 54.6875 
L 36.8125 54.6875 
L 36.8125 47.703125 
L 18.3125 47.703125 
L 18.3125 18.015625 
Q 18.3125 11.328125 20.140625 9.421875 
Q 21.96875 7.515625 27.59375 7.515625 
L 36.8125 7.515625 
L 36.8125 0 
L 27.59375 0 
Q 17.1875 0 13.234375 3.875 
Q 9.28125 7.765625 9.28125 18.015625 
L 9.28125 47.703125 
L 2.6875 47.703125 
L 2.6875 54.6875 
L 9.28125 54.6875 
L 9.28125 70.21875 
z
" id="DejaVuSans-74"/>
      <path d="M 8.5 21.578125 
L 8.5 54.6875 
L 17.484375 54.6875 
L 17.484375 21.921875 
Q 17.484375 14.15625 20.5 10.265625 
Q 23.53125 6.390625 29.59375 6.390625 
Q 36.859375 6.390625 41.078125 11.03125 
Q 45.3125 15.671875 45.3125 23.6875 
L 45.3125 54.6875 
L 54.296875 54.6875 
L 54.296875 0 
L 45.3125 0 
L 45.3125 8.40625 
Q 42.046875 3.421875 37.71875 1 
Q 33.40625 -1.421875 27.6875 -1.421875 
Q 18.265625 -1.421875 13.375 4.4375 
Q 8.5 10.296875 8.5 21.578125 
M 31.109375 56 
z
" id="DejaVuSans-75"/>
      <path d="M 45.40625 46.390625 
L 45.40625 75.984375 
L 54.390625 75.984375 
L 54.390625 0 
L 45.40625 0 
L 45.40625 8.203125 
Q 42.578125 3.328125 38.25 0.953125 
Q 33.9375 -1.421875 27.875 -1.421875 
Q 17.96875 -1.421875 11.734375 6.484375 
Q 5.515625 14.40625 5.515625 27.296875 
Q 5.515625 40.1875 11.734375 48.09375 
Q 17.96875 56 27.875 56 
Q 33.9375 56 38.25 53.625 
Q 42.578125 51.265625 45.40625 46.390625 
M 14.796875 27.296875 
Q 14.796875 17.390625 18.875 11.75 
Q 22.953125 6.109375 30.078125 6.109375 
Q 37.203125 6.109375 41.296875 11.75 
Q 45.40625 17.390625 45.40625 27.296875 
Q 45.40625 37.203125 41.296875 42.84375 
Q 37.203125 48.484375 30.078125 48.484375 
Q 22.953125 48.484375 18.875 42.84375 
Q 14.796875 37.203125 14.796875 27.296875 
" id="DejaVuSans-64"/>
     </defs>
     <g style="fill:#555555;" transform="translate(16.318125 181.337062)rotate(-90)scale(0.12 -0.12)">
      <use xlink:href="#DejaVuSans-6d"/>
      <use x="97.412109" xlink:href="#DejaVuSans-61"/>
      <use x="158.691406" xlink:href="#DejaVuSans-67"/>
      <use x="222.167969" xlink:href="#DejaVuSans-6e"/>
      <use x="285.546875" xlink:href="#DejaVuSans-69"/>
      <use x="313.330078" xlink:href="#DejaVuSans-74"/>
      <use x="352.539062" xlink:href="#DejaVuSans-75"/>
      <use x="415.917969" xlink:href="#DejaVuSans-64"/>
      <use x="479.394531" xlink:href="#DejaVuSans-65"/>
     </g>
    </g>
   </g>
   <g id="LineCollection_1">
    <path clip-path="url(#p032ee38d97)" d="M 215.463167 166.855993 
L 215.463167 185.394589 
" style="fill:none;stroke:#e24a33;stroke-width:1.5;"/>
    <path clip-path="url(#p032ee38d97)" d="M 112.808687 177.083952 
L 112.808687 195.622548 
" style="fill:none;stroke:#e24a33;stroke-width:1.5;"/>
    <path clip-path="url(#p032ee38d97)" d="M 146.521592 228.533628 
L 146.521592 247.072224 
" style="fill:none;stroke:#e24a33;stroke-width:1.5;"/>
    <path clip-path="url(#p032ee38d97)" d="M 346.174965 52.010837 
L 346.174965 70.549433 
" style="fill:none;stroke:#e24a33;stroke-width:1.5;"/>
    <path clip-path="url(#p032ee38d97)" d="M 255.234203 82.242169 
L 255.234203 100.780765 
" style="fill:none;stroke:#e24a33;stroke-width:1.5;"/>
    <path clip-path="url(#p032ee38d97)" d="M 254.499498 88.721606 
L 254.499498 107.260202 
" style="fill:none;stroke:#e24a33;stroke-width:1.5;"/>
    <path clip-path="url(#p032ee38d97)" d="M 315.740595 66.804987 
L 315.740595 85.343583 
" style="fill:none;stroke:#e24a33;stroke-width:1.5;"/>
    <path clip-path="url(#p032ee38d97)" d="M 277.024 72.399601 
L 277.024 90.938197 
" style="fill:none;stroke:#e24a33;stroke-width:1.5;"/>
    <path clip-path="url(#p032ee38d97)" d="M 116.637885 191.898056 
L 116.637885 210.436652 
" style="fill:none;stroke:#e24a33;stroke-width:1.5;"/>
    <path clip-path="url(#p032ee38d97)" d="M 330.960667 48.226683 
L 330.960667 66.765279 
" style="fill:none;stroke:#e24a33;stroke-width:1.5;"/>
    <path clip-path="url(#p032ee38d97)" d="M 86.597265 181.402921 
L 86.597265 199.941517 
" style="fill:none;stroke:#e24a33;stroke-width:1.5;"/>
    <path clip-path="url(#p032ee38d97)" d="M 88.783424 137.436302 
L 88.783424 155.974898 
" style="fill:none;stroke:#e24a33;stroke-width:1.5;"/>
    <path clip-path="url(#p032ee38d97)" d="M 162.582354 227.358761 
L 162.582354 245.897357 
" style="fill:none;stroke:#e24a33;stroke-width:1.5;"/>
    <path clip-path="url(#p032ee38d97)" d="M 144.590592 236.613869 
L 144.590592 255.152465 
" style="fill:none;stroke:#e24a33;stroke-width:1.5;"/>
    <path clip-path="url(#p032ee38d97)" d="M 128.211652 225.016218 
L 128.211652 243.554814 
" style="fill:none;stroke:#e24a33;stroke-width:1.5;"/>
    <path clip-path="url(#p032ee38d97)" d="M 176.324989 226.737356 
L 176.324989 245.275952 
" style="fill:none;stroke:#e24a33;stroke-width:1.5;"/>
    <path clip-path="url(#p032ee38d97)" d="M 204.714498 175.612704 
L 204.714498 194.1513 
" style="fill:none;stroke:#e24a33;stroke-width:1.5;"/>
    <path clip-path="url(#p032ee38d97)" d="M 225.642006 150.729568 
L 225.642006 169.268164 
" style="fill:none;stroke:#e24a33;stroke-width:1.5;"/>
    <path clip-path="url(#p032ee38d97)" d="M 137.851601 223.116252 
L 137.851601 241.654848 
" style="fill:none;stroke:#e24a33;stroke-width:1.5;"/>
    <path clip-path="url(#p032ee38d97)" d="M 112.695169 190.749894 
L 112.695169 209.28849 
" style="fill:none;stroke:#e24a33;stroke-width:1.5;"/>
    <path clip-path="url(#p032ee38d97)" d="M 139.353345 227.517531 
L 139.353345 246.056127 
" style="fill:none;stroke:#e24a33;stroke-width:1.5;"/>
    <path clip-path="url(#p032ee38d97)" d="M 360.611788 113.072725 
L 360.611788 131.611321 
" style="fill:none;stroke:#e24a33;stroke-width:1.5;"/>
    <path clip-path="url(#p032ee38d97)" d="M 140.581824 230.076008 
L 140.581824 248.614604 
" style="fill:none;stroke:#e24a33;stroke-width:1.5;"/>
    <path clip-path="url(#p032ee38d97)" d="M 270.714107 67.477771 
L 270.714107 86.016367 
" style="fill:none;stroke:#e24a33;stroke-width:1.5;"/>
    <path clip-path="url(#p032ee38d97)" d="M 263.977926 68.789649 
L 263.977926 87.328245 
" style="fill:none;stroke:#e24a33;stroke-width:1.5;"/>
    <path clip-path="url(#p032ee38d97)" d="M 244.64348 125.510138 
L 244.64348 144.048734 
" style="fill:none;stroke:#e24a33;stroke-width:1.5;"/>
    <path clip-path="url(#p032ee38d97)" d="M 367.528206 117.593347 
L 367.528206 136.131943 
" style="fill:none;stroke:#e24a33;stroke-width:1.5;"/>
    <path clip-path="url(#p032ee38d97)" d="M 209.502612 175.087174 
L 209.502612 193.62577 
" style="fill:none;stroke:#e24a33;stroke-width:1.5;"/>
    <path clip-path="url(#p032ee38d97)" d="M 155.983454 230.700945 
L 155.983454 249.239541 
" style="fill:none;stroke:#e24a33;stroke-width:1.5;"/>
    <path clip-path="url(#p032ee38d97)" d="M 265.75353 70.125193 
L 265.75353 88.663789 
" style="fill:none;stroke:#e24a33;stroke-width:1.5;"/>
    <path clip-path="url(#p032ee38d97)" d="M 312.492721 64.463922 
L 312.492721 83.002518 
" style="fill:none;stroke:#e24a33;stroke-width:1.5;"/>
    <path clip-path="url(#p032ee38d97)" d="M 88.348247 171.231272 
L 88.348247 189.769868 
" style="fill:none;stroke:#e24a33;stroke-width:1.5;"/>
    <path clip-path="url(#p032ee38d97)" d="M 223.623718 139.019503 
L 223.623718 157.558099 
" style="fill:none;stroke:#e24a33;stroke-width:1.5;"/>
    <path clip-path="url(#p032ee38d97)" d="M 361.467474 79.215117 
L 361.467474 97.753712 
" style="fill:none;stroke:#e24a33;stroke-width:1.5;"/>
    <path clip-path="url(#p032ee38d97)" d="M 262.843424 86.000664 
L 262.843424 104.53926 
" style="fill:none;stroke:#e24a33;stroke-width:1.5;"/>
    <path clip-path="url(#p032ee38d97)" d="M 343.246526 61.044793 
L 343.246526 79.583389 
" style="fill:none;stroke:#e24a33;stroke-width:1.5;"/>
    <path clip-path="url(#p032ee38d97)" d="M 216.031296 162.468991 
L 216.031296 181.007587 
" style="fill:none;stroke:#e24a33;stroke-width:1.5;"/>
    <path clip-path="url(#p032ee38d97)" d="M 304.163543 70.317507 
L 304.163543 88.856103 
" style="fill:none;stroke:#e24a33;stroke-width:1.5;"/>
    <path clip-path="url(#p032ee38d97)" d="M 213.528145 180.813552 
L 213.528145 199.352148 
" style="fill:none;stroke:#e24a33;stroke-width:1.5;"/>
    <path clip-path="url(#p032ee38d97)" d="M 83.490087 151.299372 
L 83.490087 169.837968 
" style="fill:none;stroke:#e24a33;stroke-width:1.5;"/>
    <path clip-path="url(#p032ee38d97)" d="M 133.271892 228.133609 
L 133.271892 246.672205 
" style="fill:none;stroke:#e24a33;stroke-width:1.5;"/>
    <path clip-path="url(#p032ee38d97)" d="M 237.731928 118.521485 
L 237.731928 137.060081 
" style="fill:none;stroke:#e24a33;stroke-width:1.5;"/>
    <path clip-path="url(#p032ee38d97)" d="M 202.708375 184.972903 
L 202.708375 203.511499 
" style="fill:none;stroke:#e24a33;stroke-width:1.5;"/>
    <path clip-path="url(#p032ee38d97)" d="M 69.392645 108.217975 
L 69.392645 126.756571 
" style="fill:none;stroke:#e24a33;stroke-width:1.5;"/>
    <path clip-path="url(#p032ee38d97)" d="M 341.738732 82.671225 
L 341.738732 101.209821 
" style="fill:none;stroke:#e24a33;stroke-width:1.5;"/>
    <path clip-path="url(#p032ee38d97)" d="M 160.939781 223.890988 
L 160.939781 242.429584 
" style="fill:none;stroke:#e24a33;stroke-width:1.5;"/>
    <path clip-path="url(#p032ee38d97)" d="M 127.853731 234.175674 
L 127.853731 252.71427 
" style="fill:none;stroke:#e24a33;stroke-width:1.5;"/>
    <path clip-path="url(#p032ee38d97)" d="M 82.831635 130.602699 
L 82.831635 149.141295 
" style="fill:none;stroke:#e24a33;stroke-width:1.5;"/>
    <path clip-path="url(#p032ee38d97)" d="M 285.635438 63.562035 
L 285.635438 82.100631 
" style="fill:none;stroke:#e24a33;stroke-width:1.5;"/>
    <path clip-path="url(#p032ee38d97)" d="M 220.490763 168.405269 
L 220.490763 186.943864 
" style="fill:none;stroke:#e24a33;stroke-width:1.5;"/>
    <path clip-path="url(#p032ee38d97)" d="M 78.876993 106.537021 
L 78.876993 125.075617 
" style="fill:none;stroke:#e24a33;stroke-width:1.5;"/>
    <path clip-path="url(#p032ee38d97)" d="M 243.090157 126.660544 
L 243.090157 145.19914 
" style="fill:none;stroke:#e24a33;stroke-width:1.5;"/>
    <path clip-path="url(#p032ee38d97)" d="M 75.548988 111.857849 
L 75.548988 130.396445 
" style="fill:none;stroke:#e24a33;stroke-width:1.5;"/>
    <path clip-path="url(#p032ee38d97)" d="M 236.657271 145.005137 
L 236.657271 163.543733 
" style="fill:none;stroke:#e24a33;stroke-width:1.5;"/>
    <path clip-path="url(#p032ee38d97)" d="M 323.070666 35.48175 
L 323.070666 54.020346 
" style="fill:none;stroke:#e24a33;stroke-width:1.5;"/>
    <path clip-path="url(#p032ee38d97)" d="M 147.422479 225.892096 
L 147.422479 244.430692 
" style="fill:none;stroke:#e24a33;stroke-width:1.5;"/>
    <path clip-path="url(#p032ee38d97)" d="M 328.91348 54.543628 
L 328.91348 73.082224 
" style="fill:none;stroke:#e24a33;stroke-width:1.5;"/>
    <path clip-path="url(#p032ee38d97)" d="M 255.101698 90.353407 
L 255.101698 108.892003 
" style="fill:none;stroke:#e24a33;stroke-width:1.5;"/>
    <path clip-path="url(#p032ee38d97)" d="M 228.496816 117.921541 
L 228.496816 136.460137 
" style="fill:none;stroke:#e24a33;stroke-width:1.5;"/>
    <path clip-path="url(#p032ee38d97)" d="M 238.336626 134.902412 
L 238.336626 153.441008 
" style="fill:none;stroke:#e24a33;stroke-width:1.5;"/>
    <path clip-path="url(#p032ee38d97)" d="M 341.721942 63.907479 
L 341.721942 82.446075 
" style="fill:none;stroke:#e24a33;stroke-width:1.5;"/>
    <path clip-path="url(#p032ee38d97)" d="M 115.86845 206.14392 
L 115.86845 224.682516 
" style="fill:none;stroke:#e24a33;stroke-width:1.5;"/>
    <path clip-path="url(#p032ee38d97)" d="M 354.086583 81.120997 
L 354.086583 99.659593 
" style="fill:none;stroke:#e24a33;stroke-width:1.5;"/>
    <path clip-path="url(#p032ee38d97)" d="M 282.399482 45.5494 
L 282.399482 64.087996 
" style="fill:none;stroke:#e24a33;stroke-width:1.5;"/>
    <path clip-path="url(#p032ee38d97)" d="M 103.481311 193.097434 
L 103.481311 211.63603 
" style="fill:none;stroke:#e24a33;stroke-width:1.5;"/>
    <path clip-path="url(#p032ee38d97)" d="M 163.361833 243.743154 
L 163.361833 262.28175 
" style="fill:none;stroke:#e24a33;stroke-width:1.5;"/>
    <path clip-path="url(#p032ee38d97)" d="M 99.817473 175.589065 
L 99.817473 194.127661 
" style="fill:none;stroke:#e24a33;stroke-width:1.5;"/>
    <path clip-path="url(#p032ee38d97)" d="M 154.381499 232.365923 
L 154.381499 250.904519 
" style="fill:none;stroke:#e24a33;stroke-width:1.5;"/>
    <path clip-path="url(#p032ee38d97)" d="M 208.60398 167.869924 
L 208.60398 186.40852 
" style="fill:none;stroke:#e24a33;stroke-width:1.5;"/>
    <path clip-path="url(#p032ee38d97)" d="M 301.546809 60.982651 
L 301.546809 79.521247 
" style="fill:none;stroke:#e24a33;stroke-width:1.5;"/>
    <path clip-path="url(#p032ee38d97)" d="M 155.119175 219.674438 
L 155.119175 238.213034 
" style="fill:none;stroke:#e24a33;stroke-width:1.5;"/>
    <path clip-path="url(#p032ee38d97)" d="M 338.344177 60.454967 
L 338.344177 78.993563 
" style="fill:none;stroke:#e24a33;stroke-width:1.5;"/>
    <path clip-path="url(#p032ee38d97)" d="M 236.520068 114.608537 
L 236.520068 133.147133 
" style="fill:none;stroke:#e24a33;stroke-width:1.5;"/>
    <path clip-path="url(#p032ee38d97)" d="M 254.056869 115.8903 
L 254.056869 134.428896 
" style="fill:none;stroke:#e24a33;stroke-width:1.5;"/>
    <path clip-path="url(#p032ee38d97)" d="M 293.944281 56.720001 
L 293.944281 75.258597 
" style="fill:none;stroke:#e24a33;stroke-width:1.5;"/>
    <path clip-path="url(#p032ee38d97)" d="M 359.907214 88.702536 
L 359.907214 107.241132 
" style="fill:none;stroke:#e24a33;stroke-width:1.5;"/>
    <path clip-path="url(#p032ee38d97)" d="M 125.437973 199.709507 
L 125.437973 218.248103 
" style="fill:none;stroke:#e24a33;stroke-width:1.5;"/>
    <path clip-path="url(#p032ee38d97)" d="M 193.191315 194.14782 
L 193.191315 212.686416 
" style="fill:none;stroke:#e24a33;stroke-width:1.5;"/>
    <path clip-path="url(#p032ee38d97)" d="M 334.559749 66.207118 
L 334.559749 84.745714 
" style="fill:none;stroke:#e24a33;stroke-width:1.5;"/>
    <path clip-path="url(#p032ee38d97)" d="M 249.720621 84.878324 
L 249.720621 103.41692 
" style="fill:none;stroke:#e24a33;stroke-width:1.5;"/>
    <path clip-path="url(#p032ee38d97)" d="M 183.428041 243.041001 
L 183.428041 261.579597 
" style="fill:none;stroke:#e24a33;stroke-width:1.5;"/>
    <path clip-path="url(#p032ee38d97)" d="M 183.614869 225.308554 
L 183.614869 243.84715 
" style="fill:none;stroke:#e24a33;stroke-width:1.5;"/>
    <path clip-path="url(#p032ee38d97)" d="M 103.566601 178.164148 
L 103.566601 196.702744 
" style="fill:none;stroke:#e24a33;stroke-width:1.5;"/>
    <path clip-path="url(#p032ee38d97)" d="M 178.139103 218.665012 
L 178.139103 237.203608 
" style="fill:none;stroke:#e24a33;stroke-width:1.5;"/>
    <path clip-path="url(#p032ee38d97)" d="M 105.655657 184.249125 
L 105.655657 202.787721 
" style="fill:none;stroke:#e24a33;stroke-width:1.5;"/>
    <path clip-path="url(#p032ee38d97)" d="M 233.858697 136.278987 
L 233.858697 154.817583 
" style="fill:none;stroke:#e24a33;stroke-width:1.5;"/>
    <path clip-path="url(#p032ee38d97)" d="M 73.789609 127.672738 
L 73.789609 146.211334 
" style="fill:none;stroke:#e24a33;stroke-width:1.5;"/>
    <path clip-path="url(#p032ee38d97)" d="M 313.595091 39.396776 
L 313.595091 57.935372 
" style="fill:none;stroke:#e24a33;stroke-width:1.5;"/>
    <path clip-path="url(#p032ee38d97)" d="M 309.077697 57.379023 
L 309.077697 75.917619 
" style="fill:none;stroke:#e24a33;stroke-width:1.5;"/>
    <path clip-path="url(#p032ee38d97)" d="M 147.030337 234.672675 
L 147.030337 253.211271 
" style="fill:none;stroke:#e24a33;stroke-width:1.5;"/>
    <path clip-path="url(#p032ee38d97)" d="M 363.190902 123.880151 
L 363.190902 142.418747 
" style="fill:none;stroke:#e24a33;stroke-width:1.5;"/>
    <path clip-path="url(#p032ee38d97)" d="M 184.144062 239.945853 
L 184.144062 258.484449 
" style="fill:none;stroke:#e24a33;stroke-width:1.5;"/>
    <path clip-path="url(#p032ee38d97)" d="M 110.416324 181.252057 
L 110.416324 199.790653 
" style="fill:none;stroke:#e24a33;stroke-width:1.5;"/>
    <path clip-path="url(#p032ee38d97)" d="M 120.62081 199.304144 
L 120.62081 217.84274 
" style="fill:none;stroke:#e24a33;stroke-width:1.5;"/>
    <path clip-path="url(#p032ee38d97)" d="M 116.203425 184.31699 
L 116.203425 202.855586 
" style="fill:none;stroke:#e24a33;stroke-width:1.5;"/>
    <path clip-path="url(#p032ee38d97)" d="M 195.656702 195.713916 
L 195.656702 214.252512 
" style="fill:none;stroke:#e24a33;stroke-width:1.5;"/>
    <path clip-path="url(#p032ee38d97)" d="M 164.002482 230.624683 
L 164.002482 249.163279 
" style="fill:none;stroke:#e24a33;stroke-width:1.5;"/>
    <path clip-path="url(#p032ee38d97)" d="M 308.068084 50.13652 
L 308.068084 68.675116 
" style="fill:none;stroke:#e24a33;stroke-width:1.5;"/>
    <path clip-path="url(#p032ee38d97)" d="M 233.861602 118.072133 
L 233.861602 136.610729 
" style="fill:none;stroke:#e24a33;stroke-width:1.5;"/>
    <path clip-path="url(#p032ee38d97)" d="M 311.083207 57.400159 
L 311.083207 75.938755 
" style="fill:none;stroke:#e24a33;stroke-width:1.5;"/>
   </g>
   <g id="line2d_23">
    <path clip-path="url(#p032ee38d97)" d="M 68.314744 126.129485 
L 74.526247 137.687251 
L 80.73775 149.402417 
L 86.949253 161.08262 
L 93.160755 172.536071 
L 99.372258 183.574705 
L 105.583761 194.017267 
L 111.795264 203.692292 
L 118.006767 212.440916 
L 124.218269 220.119486 
L 130.429772 226.601921 
L 136.641275 231.781779 
L 142.852778 235.574007 
L 149.06428 237.916336 
L 155.275783 238.770307 
L 161.487286 238.121896 
L 167.698789 235.98175 
L 173.910292 232.385011 
L 180.121794 227.390738 
L 186.333297 221.080935 
L 192.5448 213.559209 
L 198.756303 204.949068 
L 204.967806 195.391889 
L 211.179308 185.044601 
L 217.390811 174.077106 
L 223.602314 162.669491 
L 229.813817 151.009067 
L 236.025319 139.287299 
L 242.236822 127.696658 
L 248.448325 116.427462 
L 254.659828 105.66475 
L 260.871331 95.585247 
L 267.082833 86.354457 
L 273.294336 78.12395 
L 279.505839 71.02887 
L 285.717342 65.185718 
L 291.928845 60.690439 
L 298.140347 57.616845 
L 304.35185 56.015405 
L 310.563353 55.912414 
L 316.774856 57.309562 
L 322.986358 60.18391 
L 329.197861 64.48826 
L 335.409364 70.151935 
L 341.620867 77.081938 
L 347.83237 85.164478 
L 354.043872 94.26684 
L 360.255375 104.239563 
L 366.466878 114.918897 
L 372.678381 126.129485 
" style="fill:none;stroke:#000000;stroke-linecap:square;stroke-width:1.7;"/>
   </g>
   <g id="line2d_24">
    <defs>
     <path d="M 0 3 
C 0.795609 3 1.55874 2.683901 2.12132 2.12132 
C 2.683901 1.55874 3 0.795609 3 0 
C 3 -0.795609 2.683901 -1.55874 2.12132 -2.12132 
C 1.55874 -2.683901 0.795609 -3 0 -3 
C -0.795609 -3 -1.55874 -2.683901 -2.12132 -2.12132 
C -2.683901 -1.55874 -3 -0.795609 -3 0 
C -3 0.795609 -2.683901 1.55874 -2.12132 2.12132 
C -1.55874 2.683901 -0.795609 3 0 3 
z
" id="m268bb9ddf7"/>
    </defs>
    <g clip-path="url(#p032ee38d97)">
     <use style="fill:#e24a33;" x="215.463167" xlink:href="#m268bb9ddf7" y="176.125291"/>
     <use style="fill:#e24a33;" x="112.808687" xlink:href="#m268bb9ddf7" y="186.35325"/>
     <use style="fill:#e24a33;" x="146.521592" xlink:href="#m268bb9ddf7" y="237.802926"/>
     <use style="fill:#e24a33;" x="346.174965" xlink:href="#m268bb9ddf7" y="61.280135"/>
     <use style="fill:#e24a33;" x="255.234203" xlink:href="#m268bb9ddf7" y="91.511467"/>
     <use style="fill:#e24a33;" x="254.499498" xlink:href="#m268bb9ddf7" y="97.990904"/>
     <use style="fill:#e24a33;" x="315.740595" xlink:href="#m268bb9ddf7" y="76.074285"/>
     <use style="fill:#e24a33;" x="277.024" xlink:href="#m268bb9ddf7" y="81.668899"/>
     <use style="fill:#e24a33;" x="116.637885" xlink:href="#m268bb9ddf7" y="201.167354"/>
     <use style="fill:#e24a33;" x="330.960667" xlink:href="#m268bb9ddf7" y="57.495981"/>
     <use style="fill:#e24a33;" x="86.597265" xlink:href="#m268bb9ddf7" y="190.672219"/>
     <use style="fill:#e24a33;" x="88.783424" xlink:href="#m268bb9ddf7" y="146.7056"/>
     <use style="fill:#e24a33;" x="162.582354" xlink:href="#m268bb9ddf7" y="236.628059"/>
     <use style="fill:#e24a33;" x="144.590592" xlink:href="#m268bb9ddf7" y="245.883167"/>
     <use style="fill:#e24a33;" x="128.211652" xlink:href="#m268bb9ddf7" y="234.285516"/>
     <use style="fill:#e24a33;" x="176.324989" xlink:href="#m268bb9ddf7" y="236.006654"/>
     <use style="fill:#e24a33;" x="204.714498" xlink:href="#m268bb9ddf7" y="184.882002"/>
     <use style="fill:#e24a33;" x="225.642006" xlink:href="#m268bb9ddf7" y="159.998866"/>
     <use style="fill:#e24a33;" x="137.851601" xlink:href="#m268bb9ddf7" y="232.38555"/>
     <use style="fill:#e24a33;" x="112.695169" xlink:href="#m268bb9ddf7" y="200.019192"/>
     <use style="fill:#e24a33;" x="139.353345" xlink:href="#m268bb9ddf7" y="236.786829"/>
     <use style="fill:#e24a33;" x="360.611788" xlink:href="#m268bb9ddf7" y="122.342023"/>
     <use style="fill:#e24a33;" x="140.581824" xlink:href="#m268bb9ddf7" y="239.345306"/>
     <use style="fill:#e24a33;" x="270.714107" xlink:href="#m268bb9ddf7" y="76.747069"/>
     <use style="fill:#e24a33;" x="263.977926" xlink:href="#m268bb9ddf7" y="78.058947"/>
     <use style="fill:#e24a33;" x="244.64348" xlink:href="#m268bb9ddf7" y="134.779436"/>
     <use style="fill:#e24a33;" x="367.528206" xlink:href="#m268bb9ddf7" y="126.862645"/>
     <use style="fill:#e24a33;" x="209.502612" xlink:href="#m268bb9ddf7" y="184.356472"/>
     <use style="fill:#e24a33;" x="155.983454" xlink:href="#m268bb9ddf7" y="239.970243"/>
     <use style="fill:#e24a33;" x="265.75353" xlink:href="#m268bb9ddf7" y="79.394491"/>
     <use style="fill:#e24a33;" x="312.492721" xlink:href="#m268bb9ddf7" y="73.73322"/>
     <use style="fill:#e24a33;" x="88.348247" xlink:href="#m268bb9ddf7" y="180.50057"/>
     <use style="fill:#e24a33;" x="223.623718" xlink:href="#m268bb9ddf7" y="148.288801"/>
     <use style="fill:#e24a33;" x="361.467474" xlink:href="#m268bb9ddf7" y="88.484415"/>
     <use style="fill:#e24a33;" x="262.843424" xlink:href="#m268bb9ddf7" y="95.269962"/>
     <use style="fill:#e24a33;" x="343.246526" xlink:href="#m268bb9ddf7" y="70.314091"/>
     <use style="fill:#e24a33;" x="216.031296" xlink:href="#m268bb9ddf7" y="171.738289"/>
     <use style="fill:#e24a33;" x="304.163543" xlink:href="#m268bb9ddf7" y="79.586805"/>
     <use style="fill:#e24a33;" x="213.528145" xlink:href="#m268bb9ddf7" y="190.08285"/>
     <use style="fill:#e24a33;" x="83.490087" xlink:href="#m268bb9ddf7" y="160.56867"/>
     <use style="fill:#e24a33;" x="133.271892" xlink:href="#m268bb9ddf7" y="237.402907"/>
     <use style="fill:#e24a33;" x="237.731928" xlink:href="#m268bb9ddf7" y="127.790783"/>
     <use style="fill:#e24a33;" x="202.708375" xlink:href="#m268bb9ddf7" y="194.242201"/>
     <use style="fill:#e24a33;" x="69.392645" xlink:href="#m268bb9ddf7" y="117.487273"/>
     <use style="fill:#e24a33;" x="341.738732" xlink:href="#m268bb9ddf7" y="91.940523"/>
     <use style="fill:#e24a33;" x="160.939781" xlink:href="#m268bb9ddf7" y="233.160286"/>
     <use style="fill:#e24a33;" x="127.853731" xlink:href="#m268bb9ddf7" y="243.444972"/>
     <use style="fill:#e24a33;" x="82.831635" xlink:href="#m268bb9ddf7" y="139.871997"/>
     <use style="fill:#e24a33;" x="285.635438" xlink:href="#m268bb9ddf7" y="72.831333"/>
     <use style="fill:#e24a33;" x="220.490763" xlink:href="#m268bb9ddf7" y="177.674567"/>
     <use style="fill:#e24a33;" x="78.876993" xlink:href="#m268bb9ddf7" y="115.806319"/>
     <use style="fill:#e24a33;" x="243.090157" xlink:href="#m268bb9ddf7" y="135.929842"/>
     <use style="fill:#e24a33;" x="75.548988" xlink:href="#m268bb9ddf7" y="121.127147"/>
     <use style="fill:#e24a33;" x="236.657271" xlink:href="#m268bb9ddf7" y="154.274435"/>
     <use style="fill:#e24a33;" x="323.070666" xlink:href="#m268bb9ddf7" y="44.751048"/>
     <use style="fill:#e24a33;" x="147.422479" xlink:href="#m268bb9ddf7" y="235.161394"/>
     <use style="fill:#e24a33;" x="328.91348" xlink:href="#m268bb9ddf7" y="63.812926"/>
     <use style="fill:#e24a33;" x="255.101698" xlink:href="#m268bb9ddf7" y="99.622705"/>
     <use style="fill:#e24a33;" x="228.496816" xlink:href="#m268bb9ddf7" y="127.190839"/>
     <use style="fill:#e24a33;" x="238.336626" xlink:href="#m268bb9ddf7" y="144.17171"/>
     <use style="fill:#e24a33;" x="341.721942" xlink:href="#m268bb9ddf7" y="73.176777"/>
     <use style="fill:#e24a33;" x="115.86845" xlink:href="#m268bb9ddf7" y="215.413218"/>
     <use style="fill:#e24a33;" x="354.086583" xlink:href="#m268bb9ddf7" y="90.390295"/>
     <use style="fill:#e24a33;" x="282.399482" xlink:href="#m268bb9ddf7" y="54.818698"/>
     <use style="fill:#e24a33;" x="103.481311" xlink:href="#m268bb9ddf7" y="202.366732"/>
     <use style="fill:#e24a33;" x="163.361833" xlink:href="#m268bb9ddf7" y="253.012452"/>
     <use style="fill:#e24a33;" x="99.817473" xlink:href="#m268bb9ddf7" y="184.858363"/>
     <use style="fill:#e24a33;" x="154.381499" xlink:href="#m268bb9ddf7" y="241.635221"/>
     <use style="fill:#e24a33;" x="208.60398" xlink:href="#m268bb9ddf7" y="177.139222"/>
     <use style="fill:#e24a33;" x="301.546809" xlink:href="#m268bb9ddf7" y="70.251949"/>
     <use style="fill:#e24a33;" x="155.119175" xlink:href="#m268bb9ddf7" y="228.943736"/>
     <use style="fill:#e24a33;" x="338.344177" xlink:href="#m268bb9ddf7" y="69.724265"/>
     <use style="fill:#e24a33;" x="236.520068" xlink:href="#m268bb9ddf7" y="123.877835"/>
     <use style="fill:#e24a33;" x="254.056869" xlink:href="#m268bb9ddf7" y="125.159598"/>
     <use style="fill:#e24a33;" x="293.944281" xlink:href="#m268bb9ddf7" y="65.989299"/>
     <use style="fill:#e24a33;" x="359.907214" xlink:href="#m268bb9ddf7" y="97.971834"/>
     <use style="fill:#e24a33;" x="125.437973" xlink:href="#m268bb9ddf7" y="208.978805"/>
     <use style="fill:#e24a33;" x="193.191315" xlink:href="#m268bb9ddf7" y="203.417118"/>
     <use style="fill:#e24a33;" x="334.559749" xlink:href="#m268bb9ddf7" y="75.476416"/>
     <use style="fill:#e24a33;" x="249.720621" xlink:href="#m268bb9ddf7" y="94.147622"/>
     <use style="fill:#e24a33;" x="183.428041" xlink:href="#m268bb9ddf7" y="252.310299"/>
     <use style="fill:#e24a33;" x="183.614869" xlink:href="#m268bb9ddf7" y="234.577852"/>
     <use style="fill:#e24a33;" x="103.566601" xlink:href="#m268bb9ddf7" y="187.433446"/>
     <use style="fill:#e24a33;" x="178.139103" xlink:href="#m268bb9ddf7" y="227.93431"/>
     <use style="fill:#e24a33;" x="105.655657" xlink:href="#m268bb9ddf7" y="193.518423"/>
     <use style="fill:#e24a33;" x="233.858697" xlink:href="#m268bb9ddf7" y="145.548285"/>
     <use style="fill:#e24a33;" x="73.789609" xlink:href="#m268bb9ddf7" y="136.942036"/>
     <use style="fill:#e24a33;" x="313.595091" xlink:href="#m268bb9ddf7" y="48.666074"/>
     <use style="fill:#e24a33;" x="309.077697" xlink:href="#m268bb9ddf7" y="66.648321"/>
     <use style="fill:#e24a33;" x="147.030337" xlink:href="#m268bb9ddf7" y="243.941973"/>
     <use style="fill:#e24a33;" x="363.190902" xlink:href="#m268bb9ddf7" y="133.149449"/>
     <use style="fill:#e24a33;" x="184.144062" xlink:href="#m268bb9ddf7" y="249.215151"/>
     <use style="fill:#e24a33;" x="110.416324" xlink:href="#m268bb9ddf7" y="190.521355"/>
     <use style="fill:#e24a33;" x="120.62081" xlink:href="#m268bb9ddf7" y="208.573442"/>
     <use style="fill:#e24a33;" x="116.203425" xlink:href="#m268bb9ddf7" y="193.586288"/>
     <use style="fill:#e24a33;" x="195.656702" xlink:href="#m268bb9ddf7" y="204.983214"/>
     <use style="fill:#e24a33;" x="164.002482" xlink:href="#m268bb9ddf7" y="239.893981"/>
     <use style="fill:#e24a33;" x="308.068084" xlink:href="#m268bb9ddf7" y="59.405818"/>
     <use style="fill:#e24a33;" x="233.861602" xlink:href="#m268bb9ddf7" y="127.341431"/>
     <use style="fill:#e24a33;" x="311.083207" xlink:href="#m268bb9ddf7" y="66.669457"/>
    </g>
   </g>
   <g id="patch_3">
    <path d="M 53.096563 273.62175 
L 53.096563 24.14175 
" style="fill:none;stroke:#ffffff;stroke-linecap:square;stroke-linejoin:miter;"/>
   </g>
   <g id="patch_4">
    <path d="M 387.896563 273.62175 
L 387.896563 24.14175 
" style="fill:none;stroke:#ffffff;stroke-linecap:square;stroke-linejoin:miter;"/>
   </g>
   <g id="patch_5">
    <path d="M 53.096563 273.62175 
L 387.896563 273.62175 
" style="fill:none;stroke:#ffffff;stroke-linecap:square;stroke-linejoin:miter;"/>
   </g>
   <g id="patch_6">
    <path d="M 53.096563 24.14175 
L 387.896563 24.14175 
" style="fill:none;stroke:#ffffff;stroke-linecap:square;stroke-linejoin:miter;"/>
   </g>
   <g id="text_14">
    <!-- phased data at frequency=1.00 -->
    <defs>
     <path id="DejaVuSans-20"/>
     <path d="M 37.109375 75.984375 
L 37.109375 68.5 
L 28.515625 68.5 
Q 23.6875 68.5 21.796875 66.546875 
Q 19.921875 64.59375 19.921875 59.515625 
L 19.921875 54.6875 
L 34.71875 54.6875 
L 34.71875 47.703125 
L 19.921875 47.703125 
L 19.921875 0 
L 10.890625 0 
L 10.890625 47.703125 
L 2.296875 47.703125 
L 2.296875 54.6875 
L 10.890625 54.6875 
L 10.890625 58.5 
Q 10.890625 67.625 15.140625 71.796875 
Q 19.390625 75.984375 28.609375 75.984375 
z
" id="DejaVuSans-66"/>
     <path d="M 41.109375 46.296875 
Q 39.59375 47.171875 37.8125 47.578125 
Q 36.03125 48 33.890625 48 
Q 26.265625 48 22.1875 43.046875 
Q 18.109375 38.09375 18.109375 28.8125 
L 18.109375 0 
L 9.078125 0 
L 9.078125 54.6875 
L 18.109375 54.6875 
L 18.109375 46.1875 
Q 20.953125 51.171875 25.484375 53.578125 
Q 30.03125 56 36.53125 56 
Q 37.453125 56 38.578125 55.875 
Q 39.703125 55.765625 41.0625 55.515625 
z
" id="DejaVuSans-72"/>
     <path d="M 14.796875 27.296875 
Q 14.796875 17.390625 18.875 11.75 
Q 22.953125 6.109375 30.078125 6.109375 
Q 37.203125 6.109375 41.296875 11.75 
Q 45.40625 17.390625 45.40625 27.296875 
Q 45.40625 37.203125 41.296875 42.84375 
Q 37.203125 48.484375 30.078125 48.484375 
Q 22.953125 48.484375 18.875 42.84375 
Q 14.796875 37.203125 14.796875 27.296875 
M 45.40625 8.203125 
Q 42.578125 3.328125 38.25 0.953125 
Q 33.9375 -1.421875 27.875 -1.421875 
Q 17.96875 -1.421875 11.734375 6.484375 
Q 5.515625 14.40625 5.515625 27.296875 
Q 5.515625 40.1875 11.734375 48.09375 
Q 17.96875 56 27.875 56 
Q 33.9375 56 38.25 53.625 
Q 42.578125 51.265625 45.40625 46.390625 
L 45.40625 54.6875 
L 54.390625 54.6875 
L 54.390625 -20.796875 
L 45.40625 -20.796875 
z
" id="DejaVuSans-71"/>
     <path d="M 48.78125 52.59375 
L 48.78125 44.1875 
Q 44.96875 46.296875 41.140625 47.34375 
Q 37.3125 48.390625 33.40625 48.390625 
Q 24.65625 48.390625 19.8125 42.84375 
Q 14.984375 37.3125 14.984375 27.296875 
Q 14.984375 17.28125 19.8125 11.734375 
Q 24.65625 6.203125 33.40625 6.203125 
Q 37.3125 6.203125 41.140625 7.25 
Q 44.96875 8.296875 48.78125 10.40625 
L 48.78125 2.09375 
Q 45.015625 0.34375 40.984375 -0.53125 
Q 36.96875 -1.421875 32.421875 -1.421875 
Q 20.0625 -1.421875 12.78125 6.34375 
Q 5.515625 14.109375 5.515625 27.296875 
Q 5.515625 40.671875 12.859375 48.328125 
Q 20.21875 56 33.015625 56 
Q 37.15625 56 41.109375 55.140625 
Q 45.0625 54.296875 48.78125 52.59375 
" id="DejaVuSans-63"/>
     <path d="M 32.171875 -5.078125 
Q 28.375 -14.84375 24.75 -17.8125 
Q 21.140625 -20.796875 15.09375 -20.796875 
L 7.90625 -20.796875 
L 7.90625 -13.28125 
L 13.1875 -13.28125 
Q 16.890625 -13.28125 18.9375 -11.515625 
Q 21 -9.765625 23.484375 -3.21875 
L 25.09375 0.875 
L 2.984375 54.6875 
L 12.5 54.6875 
L 29.59375 11.921875 
L 46.6875 54.6875 
L 56.203125 54.6875 
z
" id="DejaVuSans-79"/>
     <path d="M 10.59375 45.40625 
L 73.1875 45.40625 
L 73.1875 37.203125 
L 10.59375 37.203125 
z
M 10.59375 25.484375 
L 73.1875 25.484375 
L 73.1875 17.1875 
L 10.59375 17.1875 
z
" id="DejaVuSans-3d"/>
    </defs>
    <g transform="translate(105.546313 18.14175)scale(0.144 -0.144)">
     <use xlink:href="#DejaVuSans-70"/>
     <use x="63.476562" xlink:href="#DejaVuSans-68"/>
     <use x="126.855469" xlink:href="#DejaVuSans-61"/>
     <use x="188.134766" xlink:href="#DejaVuSans-73"/>
     <use x="240.234375" xlink:href="#DejaVuSans-65"/>
     <use x="301.757812" xlink:href="#DejaVuSans-64"/>
     <use x="365.234375" xlink:href="#DejaVuSans-20"/>
     <use x="397.021484" xlink:href="#DejaVuSans-64"/>
     <use x="460.498047" xlink:href="#DejaVuSans-61"/>
     <use x="521.777344" xlink:href="#DejaVuSans-74"/>
     <use x="560.986328" xlink:href="#DejaVuSans-61"/>
     <use x="622.265625" xlink:href="#DejaVuSans-20"/>
     <use x="654.052734" xlink:href="#DejaVuSans-61"/>
     <use x="715.332031" xlink:href="#DejaVuSans-74"/>
     <use x="754.541016" xlink:href="#DejaVuSans-20"/>
     <use x="786.328125" xlink:href="#DejaVuSans-66"/>
     <use x="821.533203" xlink:href="#DejaVuSans-72"/>
     <use x="862.615234" xlink:href="#DejaVuSans-65"/>
     <use x="924.138672" xlink:href="#DejaVuSans-71"/>
     <use x="987.615234" xlink:href="#DejaVuSans-75"/>
     <use x="1050.994141" xlink:href="#DejaVuSans-65"/>
     <use x="1112.517578" xlink:href="#DejaVuSans-6e"/>
     <use x="1175.896484" xlink:href="#DejaVuSans-63"/>
     <use x="1230.876953" xlink:href="#DejaVuSans-79"/>
     <use x="1290.056641" xlink:href="#DejaVuSans-3d"/>
     <use x="1373.845703" xlink:href="#DejaVuSans-31"/>
     <use x="1437.46875" xlink:href="#DejaVuSans-2e"/>
     <use x="1469.255859" xlink:href="#DejaVuSans-30"/>
     <use x="1532.878906" xlink:href="#DejaVuSans-30"/>
    </g>
   </g>
  </g>
 </g>
 <defs>
  <clipPath id="p032ee38d97">
   <rect height="249.48" width="334.8" x="53.096563" y="24.14175"/>
  </clipPath>
 </defs>
</svg>
