<?xml version="1.0" encoding="utf-8" standalone="no"?>
<!DOCTYPE svg PUBLIC "-//W3C//DTD SVG 1.1//EN"
  "http://www.w3.org/Graphics/SVG/1.1/DTD/svg11.dtd">
<!-- Created with matplotlib (http://matplotlib.org/) -->
<svg height="279pt" version="1.1" viewBox="0 0 371 279" width="371pt" xmlns="http://www.w3.org/2000/svg" xmlns:xlink="http://www.w3.org/1999/xlink">
 <defs>
  <style type="text/css">
*{stroke-linecap:butt;stroke-linejoin:round;}
  </style>
 </defs>
 <g id="figure_1">
  <g id="patch_1">
   <path d="M 0 279.558125 
L 371.103125 279.558125 
L 371.103125 0 
L 0 0 
z
" style="fill:none;"/>
  </g>
  <g id="axes_1">
   <g id="patch_2">
    <path d="M 29.103125 256.68 
L 363.903125 256.68 
L 363.903125 7.2 
L 29.103125 7.2 
z
" style="fill:#e5e5e5;"/>
   </g>
   <g id="matplotlib.axis_1">
    <g id="xtick_1">
     <g id="line2d_1">
      <path clip-path="url(#pb2c26f15d1)" d="M 44.199464 256.68 
L 44.199464 7.2 
" style="fill:none;stroke:#ffffff;stroke-linecap:square;stroke-width:0.8;"/>
     </g>
     <g id="line2d_2"/>
     <g id="text_1">
      <!-- 0.0 -->
      <defs>
       <path d="M 31.78125 66.40625 
Q 24.171875 66.40625 20.328125 58.90625 
Q 16.5 51.421875 16.5 36.375 
Q 16.5 21.390625 20.328125 13.890625 
Q 24.171875 6.390625 31.78125 6.390625 
Q 39.453125 6.390625 43.28125 13.890625 
Q 47.125 21.390625 47.125 36.375 
Q 47.125 51.421875 43.28125 58.90625 
Q 39.453125 66.40625 31.78125 66.40625 
M 31.78125 74.21875 
Q 44.046875 74.21875 50.515625 64.515625 
Q 56.984375 54.828125 56.984375 36.375 
Q 56.984375 17.96875 50.515625 8.265625 
Q 44.046875 -1.421875 31.78125 -1.421875 
Q 19.53125 -1.421875 13.0625 8.265625 
Q 6.59375 17.96875 6.59375 36.375 
Q 6.59375 54.828125 13.0625 64.515625 
Q 19.53125 74.21875 31.78125 74.21875 
" id="DejaVuSans-30"/>
       <path d="M 10.6875 12.40625 
L 21 12.40625 
L 21 0 
L 10.6875 0 
z
" id="DejaVuSans-2e"/>
      </defs>
      <g style="fill:#555555;" transform="translate(36.247901 270.278437)scale(0.1 -0.1)">
       <use xlink:href="#DejaVuSans-30"/>
       <use x="63.623047" xlink:href="#DejaVuSans-2e"/>
       <use x="95.410156" xlink:href="#DejaVuSans-30"/>
      </g>
     </g>
    </g>
    <g id="xtick_2">
     <g id="line2d_3">
      <path clip-path="url(#pb2c26f15d1)" d="M 103.985646 256.68 
L 103.985646 7.2 
" style="fill:none;stroke:#ffffff;stroke-linecap:square;stroke-width:0.8;"/>
     </g>
     <g id="line2d_4"/>
     <g id="text_2">
      <!-- 0.5 -->
      <defs>
       <path d="M 10.796875 72.90625 
L 49.515625 72.90625 
L 49.515625 64.59375 
L 19.828125 64.59375 
L 19.828125 46.734375 
Q 21.96875 47.46875 24.109375 47.828125 
Q 26.265625 48.1875 28.421875 48.1875 
Q 40.625 48.1875 47.75 41.5 
Q 54.890625 34.8125 54.890625 23.390625 
Q 54.890625 11.625 47.5625 5.09375 
Q 40.234375 -1.421875 26.90625 -1.421875 
Q 22.3125 -1.421875 17.546875 -0.640625 
Q 12.796875 0.140625 7.71875 1.703125 
L 7.71875 11.625 
Q 12.109375 9.234375 16.796875 8.0625 
Q 21.484375 6.890625 26.703125 6.890625 
Q 35.15625 6.890625 40.078125 11.328125 
Q 45.015625 15.765625 45.015625 23.390625 
Q 45.015625 31 40.078125 35.4375 
Q 35.15625 39.890625 26.703125 39.890625 
Q 22.75 39.890625 18.8125 39.015625 
Q 14.890625 38.140625 10.796875 36.28125 
z
" id="DejaVuSans-35"/>
      </defs>
      <g style="fill:#555555;" transform="translate(96.034083 270.278437)scale(0.1 -0.1)">
       <use xlink:href="#DejaVuSans-30"/>
       <use x="63.623047" xlink:href="#DejaVuSans-2e"/>
       <use x="95.410156" xlink:href="#DejaVuSans-35"/>
      </g>
     </g>
    </g>
    <g id="xtick_3">
     <g id="line2d_5">
      <path clip-path="url(#pb2c26f15d1)" d="M 163.771828 256.68 
L 163.771828 7.2 
" style="fill:none;stroke:#ffffff;stroke-linecap:square;stroke-width:0.8;"/>
     </g>
     <g id="line2d_6"/>
     <g id="text_3">
      <!-- 1.0 -->
      <defs>
       <path d="M 12.40625 8.296875 
L 28.515625 8.296875 
L 28.515625 63.921875 
L 10.984375 60.40625 
L 10.984375 69.390625 
L 28.421875 72.90625 
L 38.28125 72.90625 
L 38.28125 8.296875 
L 54.390625 8.296875 
L 54.390625 0 
L 12.40625 0 
z
" id="DejaVuSans-31"/>
      </defs>
      <g style="fill:#555555;" transform="translate(155.820265 270.278437)scale(0.1 -0.1)">
       <use xlink:href="#DejaVuSans-31"/>
       <use x="63.623047" xlink:href="#DejaVuSans-2e"/>
       <use x="95.410156" xlink:href="#DejaVuSans-30"/>
      </g>
     </g>
    </g>
    <g id="xtick_4">
     <g id="line2d_7">
      <path clip-path="url(#pb2c26f15d1)" d="M 223.55801 256.68 
L 223.55801 7.2 
" style="fill:none;stroke:#ffffff;stroke-linecap:square;stroke-width:0.8;"/>
     </g>
     <g id="line2d_8"/>
     <g id="text_4">
      <!-- 1.5 -->
      <g style="fill:#555555;" transform="translate(215.606447 270.278437)scale(0.1 -0.1)">
       <use xlink:href="#DejaVuSans-31"/>
       <use x="63.623047" xlink:href="#DejaVuSans-2e"/>
       <use x="95.410156" xlink:href="#DejaVuSans-35"/>
      </g>
     </g>
    </g>
    <g id="xtick_5">
     <g id="line2d_9">
      <path clip-path="url(#pb2c26f15d1)" d="M 283.344192 256.68 
L 283.344192 7.2 
" style="fill:none;stroke:#ffffff;stroke-linecap:square;stroke-width:0.8;"/>
     </g>
     <g id="line2d_10"/>
     <g id="text_5">
      <!-- 2.0 -->
      <defs>
       <path d="M 19.1875 8.296875 
L 53.609375 8.296875 
L 53.609375 0 
L 7.328125 0 
L 7.328125 8.296875 
Q 12.9375 14.109375 22.625 23.890625 
Q 32.328125 33.6875 34.8125 36.53125 
Q 39.546875 41.84375 41.421875 45.53125 
Q 43.3125 49.21875 43.3125 52.78125 
Q 43.3125 58.59375 39.234375 62.25 
Q 35.15625 65.921875 28.609375 65.921875 
Q 23.96875 65.921875 18.8125 64.3125 
Q 13.671875 62.703125 7.8125 59.421875 
L 7.8125 69.390625 
Q 13.765625 71.78125 18.9375 73 
Q 24.125 74.21875 28.421875 74.21875 
Q 39.75 74.21875 46.484375 68.546875 
Q 53.21875 62.890625 53.21875 53.421875 
Q 53.21875 48.921875 51.53125 44.890625 
Q 49.859375 40.875 45.40625 35.40625 
Q 44.1875 33.984375 37.640625 27.21875 
Q 31.109375 20.453125 19.1875 8.296875 
" id="DejaVuSans-32"/>
      </defs>
      <g style="fill:#555555;" transform="translate(275.392629 270.278437)scale(0.1 -0.1)">
       <use xlink:href="#DejaVuSans-32"/>
       <use x="63.623047" xlink:href="#DejaVuSans-2e"/>
       <use x="95.410156" xlink:href="#DejaVuSans-30"/>
      </g>
     </g>
    </g>
    <g id="xtick_6">
     <g id="line2d_11">
      <path clip-path="url(#pb2c26f15d1)" d="M 343.130374 256.68 
L 343.130374 7.2 
" style="fill:none;stroke:#ffffff;stroke-linecap:square;stroke-width:0.8;"/>
     </g>
     <g id="line2d_12"/>
     <g id="text_6">
      <!-- 2.5 -->
      <g style="fill:#555555;" transform="translate(335.178811 270.278437)scale(0.1 -0.1)">
       <use xlink:href="#DejaVuSans-32"/>
       <use x="63.623047" xlink:href="#DejaVuSans-2e"/>
       <use x="95.410156" xlink:href="#DejaVuSans-35"/>
      </g>
     </g>
    </g>
   </g>
   <g id="matplotlib.axis_2">
    <g id="ytick_1">
     <g id="line2d_13">
      <path clip-path="url(#pb2c26f15d1)" d="M 29.103125 245.341177 
L 363.903125 245.341177 
" style="fill:none;stroke:#ffffff;stroke-linecap:square;stroke-width:0.8;"/>
     </g>
     <g id="line2d_14"/>
     <g id="text_7">
      <!-- 0.0 -->
      <g style="fill:#555555;" transform="translate(7.2 249.140395)scale(0.1 -0.1)">
       <use xlink:href="#DejaVuSans-30"/>
       <use x="63.623047" xlink:href="#DejaVuSans-2e"/>
       <use x="95.410156" xlink:href="#DejaVuSans-30"/>
      </g>
     </g>
    </g>
    <g id="ytick_2">
     <g id="line2d_15">
      <path clip-path="url(#pb2c26f15d1)" d="M 29.103125 198.889659 
L 363.903125 198.889659 
" style="fill:none;stroke:#ffffff;stroke-linecap:square;stroke-width:0.8;"/>
     </g>
     <g id="line2d_16"/>
     <g id="text_8">
      <!-- 0.2 -->
      <g style="fill:#555555;" transform="translate(7.2 202.688877)scale(0.1 -0.1)">
       <use xlink:href="#DejaVuSans-30"/>
       <use x="63.623047" xlink:href="#DejaVuSans-2e"/>
       <use x="95.410156" xlink:href="#DejaVuSans-32"/>
      </g>
     </g>
    </g>
    <g id="ytick_3">
     <g id="line2d_17">
      <path clip-path="url(#pb2c26f15d1)" d="M 29.103125 152.438141 
L 363.903125 152.438141 
" style="fill:none;stroke:#ffffff;stroke-linecap:square;stroke-width:0.8;"/>
     </g>
     <g id="line2d_18"/>
     <g id="text_9">
      <!-- 0.4 -->
      <defs>
       <path d="M 37.796875 64.3125 
L 12.890625 25.390625 
L 37.796875 25.390625 
z
M 35.203125 72.90625 
L 47.609375 72.90625 
L 47.609375 25.390625 
L 58.015625 25.390625 
L 58.015625 17.1875 
L 47.609375 17.1875 
L 47.609375 0 
L 37.796875 0 
L 37.796875 17.1875 
L 4.890625 17.1875 
L 4.890625 26.703125 
z
" id="DejaVuSans-34"/>
      </defs>
      <g style="fill:#555555;" transform="translate(7.2 156.237359)scale(0.1 -0.1)">
       <use xlink:href="#DejaVuSans-30"/>
       <use x="63.623047" xlink:href="#DejaVuSans-2e"/>
       <use x="95.410156" xlink:href="#DejaVuSans-34"/>
      </g>
     </g>
    </g>
    <g id="ytick_4">
     <g id="line2d_19">
      <path clip-path="url(#pb2c26f15d1)" d="M 29.103125 105.986623 
L 363.903125 105.986623 
" style="fill:none;stroke:#ffffff;stroke-linecap:square;stroke-width:0.8;"/>
     </g>
     <g id="line2d_20"/>
     <g id="text_10">
      <!-- 0.6 -->
      <defs>
       <path d="M 33.015625 40.375 
Q 26.375 40.375 22.484375 35.828125 
Q 18.609375 31.296875 18.609375 23.390625 
Q 18.609375 15.53125 22.484375 10.953125 
Q 26.375 6.390625 33.015625 6.390625 
Q 39.65625 6.390625 43.53125 10.953125 
Q 47.40625 15.53125 47.40625 23.390625 
Q 47.40625 31.296875 43.53125 35.828125 
Q 39.65625 40.375 33.015625 40.375 
M 52.59375 71.296875 
L 52.59375 62.3125 
Q 48.875 64.0625 45.09375 64.984375 
Q 41.3125 65.921875 37.59375 65.921875 
Q 27.828125 65.921875 22.671875 59.328125 
Q 17.53125 52.734375 16.796875 39.40625 
Q 19.671875 43.65625 24.015625 45.921875 
Q 28.375 48.1875 33.59375 48.1875 
Q 44.578125 48.1875 50.953125 41.515625 
Q 57.328125 34.859375 57.328125 23.390625 
Q 57.328125 12.15625 50.6875 5.359375 
Q 44.046875 -1.421875 33.015625 -1.421875 
Q 20.359375 -1.421875 13.671875 8.265625 
Q 6.984375 17.96875 6.984375 36.375 
Q 6.984375 53.65625 15.1875 63.9375 
Q 23.390625 74.21875 37.203125 74.21875 
Q 40.921875 74.21875 44.703125 73.484375 
Q 48.484375 72.75 52.59375 71.296875 
" id="DejaVuSans-36"/>
      </defs>
      <g style="fill:#555555;" transform="translate(7.2 109.785842)scale(0.1 -0.1)">
       <use xlink:href="#DejaVuSans-30"/>
       <use x="63.623047" xlink:href="#DejaVuSans-2e"/>
       <use x="95.410156" xlink:href="#DejaVuSans-36"/>
      </g>
     </g>
    </g>
    <g id="ytick_5">
     <g id="line2d_21">
      <path clip-path="url(#pb2c26f15d1)" d="M 29.103125 59.535105 
L 363.903125 59.535105 
" style="fill:none;stroke:#ffffff;stroke-linecap:square;stroke-width:0.8;"/>
     </g>
     <g id="line2d_22"/>
     <g id="text_11">
      <!-- 0.8 -->
      <defs>
       <path d="M 31.78125 34.625 
Q 24.75 34.625 20.71875 30.859375 
Q 16.703125 27.09375 16.703125 20.515625 
Q 16.703125 13.921875 20.71875 10.15625 
Q 24.75 6.390625 31.78125 6.390625 
Q 38.8125 6.390625 42.859375 10.171875 
Q 46.921875 13.96875 46.921875 20.515625 
Q 46.921875 27.09375 42.890625 30.859375 
Q 38.875 34.625 31.78125 34.625 
M 21.921875 38.8125 
Q 15.578125 40.375 12.03125 44.71875 
Q 8.5 49.078125 8.5 55.328125 
Q 8.5 64.0625 14.71875 69.140625 
Q 20.953125 74.21875 31.78125 74.21875 
Q 42.671875 74.21875 48.875 69.140625 
Q 55.078125 64.0625 55.078125 55.328125 
Q 55.078125 49.078125 51.53125 44.71875 
Q 48 40.375 41.703125 38.8125 
Q 48.828125 37.15625 52.796875 32.3125 
Q 56.78125 27.484375 56.78125 20.515625 
Q 56.78125 9.90625 50.3125 4.234375 
Q 43.84375 -1.421875 31.78125 -1.421875 
Q 19.734375 -1.421875 13.25 4.234375 
Q 6.78125 9.90625 6.78125 20.515625 
Q 6.78125 27.484375 10.78125 32.3125 
Q 14.796875 37.15625 21.921875 38.8125 
M 18.3125 54.390625 
Q 18.3125 48.734375 21.84375 45.5625 
Q 25.390625 42.390625 31.78125 42.390625 
Q 38.140625 42.390625 41.71875 45.5625 
Q 45.3125 48.734375 45.3125 54.390625 
Q 45.3125 60.0625 41.71875 63.234375 
Q 38.140625 66.40625 31.78125 66.40625 
Q 25.390625 66.40625 21.84375 63.234375 
Q 18.3125 60.0625 18.3125 54.390625 
" id="DejaVuSans-38"/>
      </defs>
      <g style="fill:#555555;" transform="translate(7.2 63.334324)scale(0.1 -0.1)">
       <use xlink:href="#DejaVuSans-30"/>
       <use x="63.623047" xlink:href="#DejaVuSans-2e"/>
       <use x="95.410156" xlink:href="#DejaVuSans-38"/>
      </g>
     </g>
    </g>
    <g id="ytick_6">
     <g id="line2d_23">
      <path clip-path="url(#pb2c26f15d1)" d="M 29.103125 13.083587 
L 363.903125 13.083587 
" style="fill:none;stroke:#ffffff;stroke-linecap:square;stroke-width:0.8;"/>
     </g>
     <g id="line2d_24"/>
     <g id="text_12">
      <!-- 1.0 -->
      <g style="fill:#555555;" transform="translate(7.2 16.882806)scale(0.1 -0.1)">
       <use xlink:href="#DejaVuSans-31"/>
       <use x="63.623047" xlink:href="#DejaVuSans-2e"/>
       <use x="95.410156" xlink:href="#DejaVuSans-30"/>
      </g>
     </g>
    </g>
   </g>
   <g id="line2d_25">
    <path clip-path="url(#pb2c26f15d1)" d="M 44.321307 239.967021 
L 44.564993 240.079151 
L 44.808679 240.324307 
L 45.052364 240.746617 
L 45.29605 241.413507 
L 45.539736 242.429384 
L 46.027108 245.22816 
L 46.270794 244.227955 
L 46.758165 240.467879 
L 47.001851 240.905353 
L 47.489223 244.540969 
L 47.732909 242.461032 
L 48.220281 230.915418 
L 48.463966 228.302448 
L 48.707652 229.984935 
L 49.195024 239.326098 
L 49.43871 241.914266 
L 49.682396 242.846477 
L 50.169767 243.202702 
L 50.657139 243.463066 
L 51.144511 243.881189 
L 51.388197 243.525894 
L 51.631883 241.9837 
L 52.119254 238.208278 
L 52.36294 239.145624 
L 52.850312 244.133684 
L 53.093998 244.465799 
L 53.337684 241.407582 
L 53.825055 232.875011 
L 54.068741 232.412006 
L 54.312427 234.138464 
L 55.043485 240.784802 
L 56.018228 245.002564 
L 56.261914 245.247227 
L 56.5056 244.647651 
L 56.992971 241.173077 
L 57.480343 236.57091 
L 57.724029 236.00346 
L 57.967715 237.852509 
L 58.455087 243.793449 
L 58.698772 245.075569 
L 58.942458 243.903643 
L 59.42983 239.772038 
L 59.673516 239.741458 
L 60.648259 245.049296 
L 60.891945 244.834504 
L 61.135631 244.865883 
L 61.623003 245.33135 
L 61.866689 245.011243 
L 62.35406 244.008357 
L 62.597746 244.288233 
L 62.841432 245.008695 
L 63.085118 245.323995 
L 63.328804 244.67545 
L 63.816175 241.970174 
L 64.059861 241.346886 
L 64.303547 242.151748 
L 64.547233 243.977216 
L 64.790919 244.945945 
L 65.034605 244.115685 
L 65.278291 241.749573 
L 65.765662 235.06955 
L 66.009348 234.577746 
L 66.253034 235.111123 
L 66.49672 236.113069 
L 66.984092 241.921244 
L 67.227777 241.587423 
L 67.471463 239.209329 
L 67.715149 233.147907 
L 68.202521 217.902685 
L 68.446207 217.970419 
L 68.689893 223.910362 
L 69.177264 241.89766 
L 69.42095 245.140722 
L 69.664636 244.70833 
L 70.152008 241.175208 
L 70.395694 240.854525 
L 70.883065 240.910623 
L 71.126751 240.880394 
L 71.370437 241.256745 
L 72.101495 245.02821 
L 72.34518 245.261419 
L 72.588866 245.205884 
L 73.319924 244.552703 
L 73.807296 244.725782 
L 74.050981 243.79207 
L 74.782039 238.375435 
L 75.025725 237.916717 
L 75.756782 245.118134 
L 76.000468 242.83995 
L 76.48784 234.945983 
L 76.731526 233.325524 
L 76.975212 234.083886 
L 77.706269 243.35636 
L 77.949955 243.083008 
L 78.437327 235.666664 
L 78.681013 232.187487 
L 78.924699 230.468244 
L 79.168384 231.428631 
L 79.899442 243.09015 
L 80.143128 243.277683 
L 80.386814 241.819379 
L 80.874185 237.667737 
L 81.117871 237.726386 
L 81.605243 239.902463 
L 81.848929 240.181967 
L 82.092615 239.062127 
L 83.067358 227.567966 
L 83.311044 229.517613 
L 84.042102 242.963218 
L 84.285787 241.788826 
L 84.529473 239.866976 
L 84.773159 238.967308 
L 85.016845 239.817045 
L 85.504217 244.940183 
L 85.747903 244.450964 
L 86.235274 238.14524 
L 86.47896 237.465548 
L 87.210018 243.123198 
L 87.453704 243.669316 
L 87.69739 243.800144 
L 88.184761 243.412046 
L 88.428447 242.769778 
L 88.915819 239.70994 
L 89.159505 238.993892 
L 89.403191 239.685455 
L 89.890562 243.52219 
L 90.134248 243.567659 
L 90.377934 242.352185 
L 91.108992 237.111771 
L 91.352677 236.309442 
L 91.596363 236.715589 
L 92.571107 244.666087 
L 93.058478 244.766421 
L 93.302164 244.64731 
L 93.54585 244.183561 
L 94.276908 241.462676 
L 94.520594 241.73671 
L 95.007965 243.581844 
L 95.251651 243.833534 
L 95.495337 243.174618 
L 95.982709 241.055543 
L 96.226395 241.251434 
L 96.957452 245.294952 
L 97.201138 245.187273 
L 97.932196 243.365338 
L 98.175881 242.22934 
L 98.663253 238.694518 
L 98.906939 239.191119 
L 99.394311 243.166672 
L 99.637997 243.892443 
L 99.881682 243.145022 
L 100.125368 241.14806 
L 100.369054 237.08429 
L 100.856426 222.150798 
L 101.100112 219.180836 
L 101.343798 222.932858 
L 102.074855 243.998772 
L 102.318541 242.857064 
L 102.805913 231.983605 
L 103.049599 231.995819 
L 103.53697 238.011936 
L 104.024342 244.488701 
L 104.268028 244.907199 
L 104.511714 243.524677 
L 104.999085 239.318146 
L 105.242771 239.803327 
L 105.973829 244.618654 
L 106.217515 244.809686 
L 106.461201 244.813442 
L 106.948572 245.324956 
L 107.67963 244.066063 
L 107.923316 244.592505 
L 108.167002 244.7103 
L 108.410687 242.906599 
L 108.898059 236.395166 
L 109.141745 236.179836 
L 109.872803 245.147791 
L 110.116488 244.811208 
L 111.334918 233.394998 
L 112.309661 224.74234 
L 112.553347 224.634935 
L 112.797033 227.438561 
L 113.52809 240.173968 
L 113.771776 242.659204 
L 114.015462 243.564959 
L 114.259148 243.714689 
L 114.502834 244.080684 
L 114.990206 245.088524 
L 115.233891 245.273401 
L 115.477577 245.18222 
L 115.964949 244.166763 
L 116.208635 243.661927 
L 116.452321 243.641216 
L 116.939692 244.513624 
L 117.183378 243.661728 
L 117.67075 239.658146 
L 117.914436 239.037143 
L 118.158122 240.505081 
L 118.401808 242.774061 
L 118.645493 243.764293 
L 119.132865 242.788508 
L 119.376551 242.851717 
L 120.107609 245.022497 
L 120.351294 244.814071 
L 120.838666 243.572139 
L 121.082352 242.759439 
L 121.569724 240.614224 
L 121.81341 240.874303 
L 122.300781 242.798867 
L 122.544467 243.341569 
L 122.788153 243.094533 
L 123.519211 239.040225 
L 124.250268 244.529814 
L 124.493954 242.71003 
L 124.981326 232.697387 
L 125.225012 233.609183 
L 125.712383 241.718059 
L 125.956069 243.203246 
L 126.199755 241.061858 
L 126.443441 236.936236 
L 126.687127 234.821608 
L 126.930813 237.220465 
L 127.418184 245.017665 
L 127.66187 244.740636 
L 128.392928 233.65768 
L 128.636614 234.16287 
L 129.123985 238.116511 
L 129.611357 242.858087 
L 129.855043 244.176556 
L 130.098729 244.517525 
L 130.342415 244.332338 
L 130.5861 244.350045 
L 131.073472 245.31338 
L 131.317158 245.003274 
L 131.560844 243.3915 
L 132.048216 238.007177 
L 132.291901 236.767586 
L 132.535587 237.903262 
L 133.266645 243.856006 
L 133.510331 244.778284 
L 133.754017 244.773584 
L 134.485074 242.706921 
L 134.72876 242.648898 
L 135.216132 242.832505 
L 135.459818 243.167504 
L 135.947189 244.186469 
L 136.190875 244.255086 
L 136.678247 243.767633 
L 137.165619 244.006522 
L 137.896676 244.514609 
L 138.627734 245.256581 
L 138.87142 245.34 
L 139.115105 245.290618 
L 139.358791 245.076547 
L 139.602477 244.54388 
L 140.089849 243.248039 
L 140.333535 243.512584 
L 140.820906 244.72082 
L 141.064592 244.171507 
L 141.551964 239.27552 
L 141.79565 238.622265 
L 142.526708 241.495355 
L 142.770393 239.838745 
L 143.257765 234.185998 
L 143.501451 233.730053 
L 143.745137 234.221837 
L 143.988823 234.278752 
L 144.232509 234.819862 
L 145.207252 244.54246 
L 145.450938 245.041192 
L 146.181995 241.946392 
L 146.425681 242.851522 
L 146.669367 244.389448 
L 146.913053 245.118939 
L 147.156739 244.886554 
L 147.400425 244.323969 
L 147.644111 244.075324 
L 148.131482 244.989583 
L 148.375168 244.732134 
L 148.618854 243.315676 
L 149.349912 235.857498 
L 149.593597 235.0059 
L 149.837283 235.710005 
L 150.812027 242.779583 
L 151.055713 243.687281 
L 151.299398 243.752967 
L 151.543084 242.797959 
L 151.78677 240.290754 
L 152.274142 233.676634 
L 152.517828 233.958307 
L 153.492571 245.281553 
L 153.736257 244.485937 
L 154.467315 234.359933 
L 154.711 234.387357 
L 155.442058 237.230319 
L 155.685744 238.80426 
L 155.92943 239.557028 
L 156.173116 241.010942 
L 156.660487 245.040453 
L 156.904173 245.159518 
L 157.391545 243.662752 
L 157.635231 243.816594 
L 157.878917 244.387148 
L 158.122602 244.536686 
L 158.366288 243.540991 
L 159.097346 237.489301 
L 159.341032 237.908634 
L 159.584718 239.996043 
L 160.072089 245.199255 
L 160.315775 244.694047 
L 160.803147 240.13382 
L 161.046833 241.235979 
L 161.290519 243.59019 
L 161.534204 242.50416 
L 161.77789 239.170371 
L 162.021576 238.332488 
L 162.508948 244.089364 
L 162.752634 231.083318 
L 162.99632 195.827923 
L 163.727377 18.54 
L 163.971063 39.18463 
L 164.702121 226.320188 
L 164.945806 244.680942 
L 165.189492 238.738918 
L 165.433178 229.030816 
L 165.676864 227.361833 
L 166.407922 241.995003 
L 166.895293 243.013733 
L 167.382665 245.277538 
L 167.626351 244.675634 
L 167.870037 243.12383 
L 168.113723 242.63252 
L 168.601094 243.833996 
L 168.84478 243.705565 
L 169.088466 243.166344 
L 169.332152 243.013756 
L 169.575838 243.70749 
L 169.819524 244.845882 
L 170.063209 245.305395 
L 170.306895 244.144294 
L 170.794267 239.915628 
L 171.281639 238.169663 
L 171.525325 238.234504 
L 171.76901 239.424258 
L 172.500068 244.363359 
L 172.743754 243.89277 
L 173.231126 241.340798 
L 173.474811 241.627884 
L 173.962183 244.404364 
L 174.205869 242.981486 
L 174.693241 234.173089 
L 174.936927 232.718702 
L 175.180612 234.246001 
L 175.91167 243.508538 
L 176.155356 244.943349 
L 176.399042 245.289904 
L 176.642728 244.370667 
L 177.130099 239.078432 
L 177.617471 233.528082 
L 177.861157 232.888895 
L 178.104843 233.791426 
L 178.592214 238.468401 
L 179.079586 242.388746 
L 179.810644 244.915673 
L 180.05433 245.255926 
L 180.298015 245.248556 
L 182.003816 243.614696 
L 183.222246 242.108761 
L 183.709617 242.498929 
L 183.953303 242.269748 
L 184.196989 241.204447 
L 184.440675 238.825215 
L 184.928047 231.699793 
L 185.171733 230.175971 
L 185.415418 230.562776 
L 185.659104 232.873892 
L 186.390162 244.883109 
L 186.633848 244.118753 
L 187.121219 238.326771 
L 187.364905 237.699125 
L 187.608591 238.904395 
L 188.339649 244.469538 
L 188.583335 244.992336 
L 189.314392 244.847444 
L 189.558078 244.854835 
L 189.801764 244.663437 
L 190.289136 243.705822 
L 190.532821 243.950449 
L 191.020193 245.192079 
L 191.263879 245.104714 
L 191.507565 244.159985 
L 191.994937 241.85798 
L 192.482308 240.789825 
L 192.96968 238.22683 
L 193.457052 235.548305 
L 193.700738 235.83023 
L 193.944423 237.976984 
L 194.431795 244.176715 
L 194.675481 245.312296 
L 194.919167 245.026689 
L 195.162853 244.314073 
L 195.406539 243.959517 
L 195.650224 244.326877 
L 195.89391 244.459285 
L 196.381282 243.159393 
L 196.624968 243.6452 
L 196.868654 244.832003 
L 197.11234 245.198135 
L 197.356026 242.56213 
L 198.087083 227.900037 
L 198.330769 228.879758 
L 199.305512 242.588199 
L 199.549198 243.345646 
L 199.792884 243.193136 
L 200.280256 241.908026 
L 200.523942 241.742392 
L 200.767628 241.997315 
L 201.011313 242.579513 
L 201.254999 242.567719 
L 201.498685 241.024223 
L 202.229743 232.149744 
L 202.473429 232.463549 
L 203.448172 245.103236 
L 203.691858 241.217756 
L 204.17923 229.284838 
L 204.422915 229.568596 
L 204.910287 240.112935 
L 205.153973 241.838098 
L 205.885031 235.894149 
L 206.128716 236.988898 
L 206.859774 245.207608 
L 207.10346 244.990521 
L 207.347146 244.568914 
L 207.590832 244.704983 
L 207.834517 245.034956 
L 208.078203 244.203679 
L 208.809261 236.624639 
L 209.052947 235.776863 
L 209.296633 236.578875 
L 209.784004 240.316286 
L 210.758748 244.41471 
L 211.002434 244.580705 
L 211.733491 239.373044 
L 211.977177 240.438717 
L 212.464549 245.091753 
L 212.708235 244.391769 
L 213.195606 236.270365 
L 213.439292 232.245682 
L 213.682978 231.640693 
L 214.414036 238.590203 
L 214.657721 239.533555 
L 214.901407 239.154528 
L 215.632465 233.24008 
L 215.876151 233.384444 
L 216.363522 238.968936 
L 216.850894 243.737866 
L 217.09458 244.533208 
L 217.338266 244.550911 
L 217.825638 244.195057 
L 218.313009 244.525888 
L 218.556695 244.319977 
L 218.800381 243.167537 
L 219.287753 239.225328 
L 219.531439 239.334579 
L 219.775124 240.279649 
L 220.01881 240.407979 
L 220.749868 237.502234 
L 220.993554 237.60248 
L 221.724611 240.816785 
L 222.211983 244.725732 
L 222.455669 245.102796 
L 222.699355 244.23715 
L 223.186726 240.693551 
L 223.430412 240.620123 
L 223.674098 241.464892 
L 223.917784 240.882952 
L 224.16147 239.402964 
L 224.405156 239.510161 
L 224.892527 244.579034 
L 225.136213 245.123703 
L 225.379899 242.288284 
L 225.867271 234.678614 
L 226.110957 233.324734 
L 226.354643 235.317294 
L 226.598328 239.478464 
L 226.842014 241.582263 
L 227.0857 240.116842 
L 227.329386 237.920872 
L 227.573072 237.201151 
L 227.816758 238.167492 
L 228.547815 244.260349 
L 228.791501 244.880084 
L 229.035187 244.966527 
L 229.278873 244.873734 
L 229.522559 244.360405 
L 229.766245 242.907288 
L 230.497302 235.40274 
L 230.740988 235.883429 
L 231.472046 243.929811 
L 231.715731 243.916297 
L 231.959417 243.399352 
L 232.203103 243.431582 
L 232.690475 244.675821 
L 232.934161 244.749819 
L 233.421532 243.463543 
L 233.665218 242.234416 
L 234.15259 236.694848 
L 234.396276 233.387866 
L 234.639962 231.97319 
L 234.883648 233.693051 
L 235.371019 240.61991 
L 235.614705 242.689617 
L 235.858391 243.004883 
L 236.345763 240.996605 
L 236.589449 240.907329 
L 237.807878 244.204067 
L 238.29525 245.239008 
L 238.538935 245.172473 
L 238.782621 243.797312 
L 239.513679 234.928734 
L 239.757365 234.024525 
L 240.001051 235.935103 
L 240.488422 242.229157 
L 240.732108 241.192033 
L 241.21948 237.440157 
L 241.463166 236.810814 
L 241.706852 238.792068 
L 241.950537 242.080041 
L 242.194223 242.820157 
L 242.437909 240.10189 
L 242.925281 230.919882 
L 243.168967 231.328055 
L 243.900024 245.09123 
L 244.14371 244.658812 
L 244.631082 240.395381 
L 244.874768 240.227536 
L 245.605825 245.31915 
L 245.849511 244.128697 
L 246.336883 239.413936 
L 246.580569 239.097427 
L 247.555312 244.917405 
L 247.798998 245.267964 
L 248.042684 245.286332 
L 248.530056 245.154064 
L 249.017427 245.297952 
L 249.261113 244.8922 
L 250.479542 239.868062 
L 251.2106 234.086717 
L 251.454286 236.357517 
L 251.941658 243.04236 
L 252.185344 243.364157 
L 252.916401 238.490608 
L 253.160087 238.52407 
L 253.891145 239.451026 
L 254.13483 238.230059 
L 254.622202 233.538877 
L 254.865888 232.899045 
L 255.35326 234.785928 
L 255.596946 234.174259 
L 255.840631 234.367903 
L 256.571689 240.865516 
L 257.059061 244.25121 
L 257.302747 244.681598 
L 257.546432 243.454026 
L 258.033804 239.215732 
L 258.27749 238.412819 
L 258.521176 238.496459 
L 258.764862 239.216804 
L 259.495919 242.753816 
L 260.226977 244.508759 
L 260.958034 244.984495 
L 261.20172 244.633352 
L 261.445406 243.355818 
L 262.176464 234.915329 
L 262.42015 235.608306 
L 263.151207 240.729304 
L 263.394893 241.274492 
L 264.125951 240.202245 
L 264.613322 239.621062 
L 264.857008 239.594795 
L 265.100694 240.144441 
L 265.588066 242.228262 
L 265.831752 242.668902 
L 266.319123 242.949122 
L 266.806495 244.477663 
L 267.050181 245.169691 
L 267.293867 245.314489 
L 267.537553 244.678711 
L 268.26861 239.653919 
L 268.512296 239.036698 
L 268.755982 239.840883 
L 269.243354 244.882687 
L 269.487039 244.717308 
L 270.218097 235.774713 
L 270.461783 237.814625 
L 270.705469 242.97025 
L 270.949155 244.79921 
L 271.19284 241.004225 
L 271.680212 230.273899 
L 271.923898 231.268025 
L 272.41127 242.046105 
L 272.654956 244.073083 
L 273.142327 242.310509 
L 273.386013 243.203171 
L 273.629699 244.862825 
L 273.873385 244.62919 
L 274.360757 239.812669 
L 274.604442 241.147817 
L 274.848128 244.554852 
L 275.091814 244.520345 
L 275.3355 236.849893 
L 275.822872 213.77001 
L 276.066558 212.276853 
L 276.310243 219.341486 
L 276.797615 240.051446 
L 277.041301 244.594043 
L 277.284987 244.606545 
L 277.528673 243.054543 
L 277.772359 242.551052 
L 278.25973 244.935625 
L 278.503416 244.911692 
L 279.234474 241.073665 
L 279.47816 241.024291 
L 280.209217 244.541224 
L 280.452903 242.950524 
L 280.940275 236.976346 
L 281.183961 237.201066 
L 281.915018 245.276787 
L 282.158704 244.059402 
L 282.646076 238.240984 
L 282.889762 237.381688 
L 283.133447 237.268495 
L 283.377133 237.871955 
L 283.864505 241.397595 
L 284.351877 245.016144 
L 284.595563 245.175596 
L 284.839248 243.959706 
L 285.32662 240.36501 
L 285.570306 240.109391 
L 285.813992 241.042179 
L 286.057678 241.069386 
L 286.301364 239.126577 
L 286.788735 233.779657 
L 287.032421 232.302661 
L 287.276107 232.0647 
L 287.519793 233.019141 
L 288.981908 243.056014 
L 289.225594 242.889865 
L 290.200337 235.303661 
L 290.444023 235.280695 
L 290.687709 236.933984 
L 291.418767 244.616964 
L 291.662452 245.308774 
L 291.906138 245.259487 
L 292.39351 244.628697 
L 292.880882 242.971155 
L 293.124568 242.136983 
L 293.368253 242.075688 
L 293.611939 243.036417 
L 293.855625 244.481903 
L 294.099311 245.207101 
L 294.342997 244.690123 
L 294.830369 243.268433 
L 295.074054 243.488418 
L 295.31774 243.993046 
L 295.561426 243.561894 
L 296.048798 240.366072 
L 296.292484 239.662638 
L 296.53617 239.973342 
L 296.779855 240.56818 
L 297.267227 240.355113 
L 297.510913 241.096379 
L 298.241971 244.320552 
L 298.485656 244.972633 
L 298.729342 245.243616 
L 298.973028 245.041445 
L 299.4604 244.099399 
L 299.704086 243.894431 
L 300.191457 243.912689 
L 300.435143 242.913881 
L 301.166201 234.745015 
L 301.409887 234.874418 
L 301.653573 237.110189 
L 302.140944 243.350695 
L 302.38463 244.979327 
L 302.628316 245.103513 
L 303.115688 243.889603 
L 303.846745 243.591903 
L 304.334117 243.531131 
L 304.577803 243.845725 
L 305.065175 245.044002 
L 305.30886 245.294238 
L 305.796232 245.117422 
L 306.039918 245.243941 
L 306.283604 245.157267 
L 306.52729 244.085014 
L 307.258347 236.65661 
L 307.502033 236.620231 
L 308.233091 243.745555 
L 308.476777 243.813078 
L 308.964148 241.779798 
L 309.207834 241.720534 
L 309.938892 245.240424 
L 310.182578 244.247807 
L 310.913635 238.908372 
L 311.157321 236.133306 
L 311.644693 228.106821 
L 311.888379 227.630913 
L 312.132065 230.885482 
L 312.863122 244.88555 
L 313.106808 245.092216 
L 313.59418 241.505855 
L 313.837866 241.015838 
L 314.325237 242.514278 
L 314.568923 242.078456 
L 315.056295 240.062566 
L 315.299981 240.11864 
L 315.543667 241.980027 
L 315.787352 244.798003 
L 316.031038 244.438889 
L 316.274724 237.886579 
L 316.762096 219.821774 
L 317.005782 216.557855 
L 317.249468 221.149769 
L 317.493153 230.012976 
L 317.736839 233.600519 
L 318.467897 224.108977 
L 318.711583 225.188394 
L 319.44264 244.038546 
L 319.686326 244.785769 
L 320.173698 244.49065 
L 320.417384 243.841578 
L 320.904755 238.199571 
L 321.148441 235.485557 
L 321.392127 234.051486 
L 321.635813 233.920704 
L 321.879499 235.323765 
L 322.610556 242.317191 
L 322.854242 243.270773 
L 323.097928 242.602534 
L 323.341614 241.439607 
L 323.5853 241.286726 
L 324.560043 245.198967 
L 325.047415 245.298115 
L 325.291101 244.874084 
L 326.022158 240.417872 
L 326.265844 240.466795 
L 326.50953 241.535115 
L 326.996902 244.466332 
L 327.240588 244.45186 
L 327.484274 243.668649 
L 327.727959 243.404149 
L 327.971645 243.883864 
L 328.459017 245.231515 
L 328.702703 245.194135 
L 328.946389 245.033467 
L 329.43376 245.338281 
L 329.677446 244.60727 
L 330.65219 234.033691 
L 330.895876 233.387092 
L 331.383247 237.744976 
L 331.870619 239.454588 
L 332.357991 238.503354 
L 332.601677 239.742236 
L 333.089048 244.687864 
L 333.332734 245.173771 
L 333.57642 242.652184 
L 334.063792 236.183517 
L 334.307478 236.835342 
L 334.794849 243.364064 
L 335.038535 244.614851 
L 335.525907 243.281252 
L 335.769593 243.586337 
L 336.013279 244.571829 
L 336.256964 244.795732 
L 336.988022 241.936907 
L 337.231708 242.773461 
L 337.71908 245.131588 
L 337.962765 245.137193 
L 338.450137 243.26035 
L 339.181195 239.154598 
L 339.424881 239.363424 
L 339.668566 240.471351 
L 340.399624 245.105876 
L 340.64331 245.125661 
L 341.130682 244.230429 
L 341.374367 244.047365 
L 341.618053 244.099122 
L 342.105425 244.509127 
L 342.349111 244.392012 
L 342.836483 243.940741 
L 343.323854 244.290684 
L 343.56754 244.248153 
L 344.298598 243.25538 
L 344.542284 243.511872 
L 345.029655 245.211869 
L 345.273341 244.786427 
L 345.517027 241.719771 
L 346.248085 227.534458 
L 346.49177 224.031198 
L 346.735456 222.156797 
L 346.979142 223.946755 
L 347.466514 230.319609 
L 347.7102 231.500805 
L 347.953886 233.899708 
L 348.441257 241.882998 
L 348.684943 241.766887 
L 348.684943 241.766887 
" style="fill:none;stroke:#e24a33;stroke-linecap:square;stroke-width:1.7;"/>
   </g>
   <g id="patch_3">
    <path d="M 29.103125 256.68 
L 29.103125 7.2 
" style="fill:none;stroke:#ffffff;stroke-linecap:square;stroke-linejoin:miter;"/>
   </g>
   <g id="patch_4">
    <path d="M 363.903125 256.68 
L 363.903125 7.2 
" style="fill:none;stroke:#ffffff;stroke-linecap:square;stroke-linejoin:miter;"/>
   </g>
   <g id="patch_5">
    <path d="M 29.103125 256.68 
L 363.903125 256.68 
" style="fill:none;stroke:#ffffff;stroke-linecap:square;stroke-linejoin:miter;"/>
   </g>
   <g id="patch_6">
    <path d="M 29.103125 7.2 
L 363.903125 7.2 
" style="fill:none;stroke:#ffffff;stroke-linecap:square;stroke-linejoin:miter;"/>
   </g>
  </g>
 </g>
 <defs>
  <clipPath id="pb2c26f15d1">
   <rect height="249.48" width="334.8" x="29.103125" y="7.2"/>
  </clipPath>
 </defs>
</svg>
