<?xml version="1.0" encoding="utf-8" standalone="no"?>
<!DOCTYPE svg PUBLIC "-//W3C//DTD SVG 1.1//EN"
  "http://www.w3.org/Graphics/SVG/1.1/DTD/svg11.dtd">
<!-- Created with matplotlib (http://matplotlib.org/) -->
<svg height="364pt" version="1.1" viewBox="0 0 381 364" width="381pt" xmlns="http://www.w3.org/2000/svg" xmlns:xlink="http://www.w3.org/1999/xlink">
 <defs>
  <style type="text/css">
*{stroke-linecap:butt;stroke-linejoin:round;}
  </style>
 </defs>
 <g id="figure_1">
  <g id="patch_1">
   <path d="M 0 364.65375 
L 381.91875 364.65375 
L 381.91875 0 
L 0 0 
z
" style="fill:none;"/>
  </g>
  <g id="axes_1">
   <g id="patch_2">
    <path d="M 39.91875 339.84 
L 374.71875 339.84 
L 374.71875 7.2 
L 39.91875 7.2 
z
" style="fill:#ffffff;"/>
   </g>
   <g id="matplotlib.axis_1">
    <g id="xtick_1">
     <g id="line2d_1"/>
     <g id="text_1">
      <!-- 0.0 -->
      <defs>
       <path d="M 31.78125 66.40625 
Q 24.171875 66.40625 20.328125 58.90625 
Q 16.5 51.421875 16.5 36.375 
Q 16.5 21.390625 20.328125 13.890625 
Q 24.171875 6.390625 31.78125 6.390625 
Q 39.453125 6.390625 43.28125 13.890625 
Q 47.125 21.390625 47.125 36.375 
Q 47.125 51.421875 43.28125 58.90625 
Q 39.453125 66.40625 31.78125 66.40625 
M 31.78125 74.21875 
Q 44.046875 74.21875 50.515625 64.515625 
Q 56.984375 54.828125 56.984375 36.375 
Q 56.984375 17.96875 50.515625 8.265625 
Q 44.046875 -1.421875 31.78125 -1.421875 
Q 19.53125 -1.421875 13.0625 8.265625 
Q 6.59375 17.96875 6.59375 36.375 
Q 6.59375 54.828125 13.0625 64.515625 
Q 19.53125 74.21875 31.78125 74.21875 
" id="DejaVuSans-30"/>
       <path d="M 10.6875 12.40625 
L 21 12.40625 
L 21 0 
L 10.6875 0 
z
" id="DejaVuSans-2e"/>
      </defs>
      <g style="fill:#565656;" transform="translate(45.595057 354.958125)scale(0.12 -0.12)">
       <use xlink:href="#DejaVuSans-30"/>
       <use x="63.623047" xlink:href="#DejaVuSans-2e"/>
       <use x="95.410156" xlink:href="#DejaVuSans-30"/>
      </g>
     </g>
    </g>
    <g id="xtick_2">
     <g id="line2d_2"/>
     <g id="text_2">
      <!-- 0.5 -->
      <defs>
       <path d="M 10.796875 72.90625 
L 49.515625 72.90625 
L 49.515625 64.59375 
L 19.828125 64.59375 
L 19.828125 46.734375 
Q 21.96875 47.46875 24.109375 47.828125 
Q 26.265625 48.1875 28.421875 48.1875 
Q 40.625 48.1875 47.75 41.5 
Q 54.890625 34.8125 54.890625 23.390625 
Q 54.890625 11.625 47.5625 5.09375 
Q 40.234375 -1.421875 26.90625 -1.421875 
Q 22.3125 -1.421875 17.546875 -0.640625 
Q 12.796875 0.140625 7.71875 1.703125 
L 7.71875 11.625 
Q 12.109375 9.234375 16.796875 8.0625 
Q 21.484375 6.890625 26.703125 6.890625 
Q 35.15625 6.890625 40.078125 11.328125 
Q 45.015625 15.765625 45.015625 23.390625 
Q 45.015625 31 40.078125 35.4375 
Q 35.15625 39.890625 26.703125 39.890625 
Q 22.75 39.890625 18.8125 39.015625 
Q 14.890625 38.140625 10.796875 36.28125 
z
" id="DejaVuSans-35"/>
      </defs>
      <g style="fill:#565656;" transform="translate(106.467784 354.958125)scale(0.12 -0.12)">
       <use xlink:href="#DejaVuSans-30"/>
       <use x="63.623047" xlink:href="#DejaVuSans-2e"/>
       <use x="95.410156" xlink:href="#DejaVuSans-35"/>
      </g>
     </g>
    </g>
    <g id="xtick_3">
     <g id="line2d_3"/>
     <g id="text_3">
      <!-- 1.0 -->
      <defs>
       <path d="M 12.40625 8.296875 
L 28.515625 8.296875 
L 28.515625 63.921875 
L 10.984375 60.40625 
L 10.984375 69.390625 
L 28.421875 72.90625 
L 38.28125 72.90625 
L 38.28125 8.296875 
L 54.390625 8.296875 
L 54.390625 0 
L 12.40625 0 
z
" id="DejaVuSans-31"/>
      </defs>
      <g style="fill:#565656;" transform="translate(167.340511 354.958125)scale(0.12 -0.12)">
       <use xlink:href="#DejaVuSans-31"/>
       <use x="63.623047" xlink:href="#DejaVuSans-2e"/>
       <use x="95.410156" xlink:href="#DejaVuSans-30"/>
      </g>
     </g>
    </g>
    <g id="xtick_4">
     <g id="line2d_4"/>
     <g id="text_4">
      <!-- 1.5 -->
      <g style="fill:#565656;" transform="translate(228.213239 354.958125)scale(0.12 -0.12)">
       <use xlink:href="#DejaVuSans-31"/>
       <use x="63.623047" xlink:href="#DejaVuSans-2e"/>
       <use x="95.410156" xlink:href="#DejaVuSans-35"/>
      </g>
     </g>
    </g>
    <g id="xtick_5">
     <g id="line2d_5"/>
     <g id="text_5">
      <!-- 2.0 -->
      <defs>
       <path d="M 19.1875 8.296875 
L 53.609375 8.296875 
L 53.609375 0 
L 7.328125 0 
L 7.328125 8.296875 
Q 12.9375 14.109375 22.625 23.890625 
Q 32.328125 33.6875 34.8125 36.53125 
Q 39.546875 41.84375 41.421875 45.53125 
Q 43.3125 49.21875 43.3125 52.78125 
Q 43.3125 58.59375 39.234375 62.25 
Q 35.15625 65.921875 28.609375 65.921875 
Q 23.96875 65.921875 18.8125 64.3125 
Q 13.671875 62.703125 7.8125 59.421875 
L 7.8125 69.390625 
Q 13.765625 71.78125 18.9375 73 
Q 24.125 74.21875 28.421875 74.21875 
Q 39.75 74.21875 46.484375 68.546875 
Q 53.21875 62.890625 53.21875 53.421875 
Q 53.21875 48.921875 51.53125 44.890625 
Q 49.859375 40.875 45.40625 35.40625 
Q 44.1875 33.984375 37.640625 27.21875 
Q 31.109375 20.453125 19.1875 8.296875 
" id="DejaVuSans-32"/>
      </defs>
      <g style="fill:#565656;" transform="translate(289.085966 354.958125)scale(0.12 -0.12)">
       <use xlink:href="#DejaVuSans-32"/>
       <use x="63.623047" xlink:href="#DejaVuSans-2e"/>
       <use x="95.410156" xlink:href="#DejaVuSans-30"/>
      </g>
     </g>
    </g>
    <g id="xtick_6">
     <g id="line2d_6"/>
     <g id="text_6">
      <!-- 2.5 -->
      <g style="fill:#565656;" transform="translate(349.958693 354.958125)scale(0.12 -0.12)">
       <use xlink:href="#DejaVuSans-32"/>
       <use x="63.623047" xlink:href="#DejaVuSans-2e"/>
       <use x="95.410156" xlink:href="#DejaVuSans-35"/>
      </g>
     </g>
    </g>
   </g>
   <g id="matplotlib.axis_2">
    <g id="ytick_1">
     <g id="line2d_7"/>
     <g id="text_7">
      <!-- 0.0 -->
      <g style="fill:#565656;" transform="translate(14.835 329.279063)scale(0.12 -0.12)">
       <use xlink:href="#DejaVuSans-30"/>
       <use x="63.623047" xlink:href="#DejaVuSans-2e"/>
       <use x="95.410156" xlink:href="#DejaVuSans-30"/>
      </g>
     </g>
    </g>
    <g id="ytick_2">
     <g id="line2d_8"/>
     <g id="text_8">
      <!-- 2.5 -->
      <g style="fill:#565656;" transform="translate(14.835 290.776299)scale(0.12 -0.12)">
       <use xlink:href="#DejaVuSans-32"/>
       <use x="63.623047" xlink:href="#DejaVuSans-2e"/>
       <use x="95.410156" xlink:href="#DejaVuSans-35"/>
      </g>
     </g>
    </g>
    <g id="ytick_3">
     <g id="line2d_9"/>
     <g id="text_9">
      <!-- 5.0 -->
      <g style="fill:#565656;" transform="translate(14.835 252.273535)scale(0.12 -0.12)">
       <use xlink:href="#DejaVuSans-35"/>
       <use x="63.623047" xlink:href="#DejaVuSans-2e"/>
       <use x="95.410156" xlink:href="#DejaVuSans-30"/>
      </g>
     </g>
    </g>
    <g id="ytick_4">
     <g id="line2d_10"/>
     <g id="text_10">
      <!-- 7.5 -->
      <defs>
       <path d="M 8.203125 72.90625 
L 55.078125 72.90625 
L 55.078125 68.703125 
L 28.609375 0 
L 18.3125 0 
L 43.21875 64.59375 
L 8.203125 64.59375 
z
" id="DejaVuSans-37"/>
      </defs>
      <g style="fill:#565656;" transform="translate(14.835 213.770771)scale(0.12 -0.12)">
       <use xlink:href="#DejaVuSans-37"/>
       <use x="63.623047" xlink:href="#DejaVuSans-2e"/>
       <use x="95.410156" xlink:href="#DejaVuSans-35"/>
      </g>
     </g>
    </g>
    <g id="ytick_5">
     <g id="line2d_11"/>
     <g id="text_11">
      <!-- 10.0 -->
      <g style="fill:#565656;" transform="translate(7.2 175.268007)scale(0.12 -0.12)">
       <use xlink:href="#DejaVuSans-31"/>
       <use x="63.623047" xlink:href="#DejaVuSans-30"/>
       <use x="127.246094" xlink:href="#DejaVuSans-2e"/>
       <use x="159.033203" xlink:href="#DejaVuSans-30"/>
      </g>
     </g>
    </g>
    <g id="ytick_6">
     <g id="line2d_12"/>
     <g id="text_12">
      <!-- 12.5 -->
      <g style="fill:#565656;" transform="translate(7.2 136.765243)scale(0.12 -0.12)">
       <use xlink:href="#DejaVuSans-31"/>
       <use x="63.623047" xlink:href="#DejaVuSans-32"/>
       <use x="127.246094" xlink:href="#DejaVuSans-2e"/>
       <use x="159.033203" xlink:href="#DejaVuSans-35"/>
      </g>
     </g>
    </g>
    <g id="ytick_7">
     <g id="line2d_13"/>
     <g id="text_13">
      <!-- 15.0 -->
      <g style="fill:#565656;" transform="translate(7.2 98.26248)scale(0.12 -0.12)">
       <use xlink:href="#DejaVuSans-31"/>
       <use x="63.623047" xlink:href="#DejaVuSans-35"/>
       <use x="127.246094" xlink:href="#DejaVuSans-2e"/>
       <use x="159.033203" xlink:href="#DejaVuSans-30"/>
      </g>
     </g>
    </g>
    <g id="ytick_8">
     <g id="line2d_14"/>
     <g id="text_14">
      <!-- 17.5 -->
      <g style="fill:#565656;" transform="translate(7.2 59.759716)scale(0.12 -0.12)">
       <use xlink:href="#DejaVuSans-31"/>
       <use x="63.623047" xlink:href="#DejaVuSans-37"/>
       <use x="127.246094" xlink:href="#DejaVuSans-2e"/>
       <use x="159.033203" xlink:href="#DejaVuSans-35"/>
      </g>
     </g>
    </g>
    <g id="ytick_9">
     <g id="line2d_15"/>
     <g id="text_15">
      <!-- 20.0 -->
      <g style="fill:#565656;" transform="translate(7.2 21.256952)scale(0.12 -0.12)">
       <use xlink:href="#DejaVuSans-32"/>
       <use x="63.623047" xlink:href="#DejaVuSans-30"/>
       <use x="127.246094" xlink:href="#DejaVuSans-2e"/>
       <use x="159.033203" xlink:href="#DejaVuSans-30"/>
      </g>
     </g>
    </g>
   </g>
   <g id="line2d_16">
    <path clip-path="url(#p8f8bec7998)" d="M 55.136932 324.72 
L 58.211312 324.689146 
L 61.285692 324.596584 
L 64.360072 324.442314 
L 67.434452 324.226336 
L 70.508833 323.94865 
L 73.583213 323.609256 
L 76.657593 323.208154 
L 79.731973 322.745344 
L 82.806353 322.220826 
L 85.880733 321.634601 
L 88.955114 320.986667 
L 92.029494 320.277025 
L 95.103874 319.505675 
L 98.178254 318.672617 
L 101.252634 317.777851 
L 104.327014 316.821377 
L 107.401395 315.803196 
L 110.475775 314.723306 
L 113.550155 313.581708 
L 116.624535 312.378402 
L 119.698915 311.113388 
L 122.773295 309.786667 
L 125.847676 308.398237 
L 128.922056 306.948099 
L 131.996436 305.436253 
L 135.070816 303.8627 
L 138.145196 302.227438 
L 141.219576 300.530468 
L 144.293957 298.771791 
L 147.368337 296.951405 
L 150.442717 295.069311 
L 153.517097 293.12551 
L 156.591477 291.12 
L 159.665857 289.052782 
L 162.740238 286.923857 
L 165.814618 284.733223 
L 168.888998 282.480882 
L 171.963378 280.166832 
L 175.037758 277.791074 
L 178.112138 275.353609 
L 181.186519 272.854435 
L 184.260899 270.293554 
L 187.335279 267.670964 
L 190.409659 264.986667 
L 193.484039 262.240661 
L 196.558419 259.432948 
L 199.6328 256.563526 
L 202.70718 253.632397 
L 205.78156 250.639559 
L 208.85594 247.585014 
L 211.93032 244.46876 
L 215.0047 241.290799 
L 218.079081 238.051129 
L 221.153461 234.749752 
L 224.227841 231.386667 
L 227.302221 227.961873 
L 230.376601 224.475372 
L 233.450981 220.927163 
L 236.525362 217.317245 
L 239.599742 213.64562 
L 242.674122 209.912287 
L 245.748502 206.117245 
L 248.822882 202.260496 
L 251.897262 198.342039 
L 254.971643 194.361873 
L 258.046023 190.32 
L 261.120403 186.216419 
L 264.194783 182.051129 
L 267.269163 177.824132 
L 270.343543 173.535427 
L 273.417924 169.185014 
L 276.492304 164.772893 
L 279.566684 160.299063 
L 282.641064 155.763526 
L 285.715444 151.166281 
L 288.789824 146.507328 
L 291.864205 141.786667 
L 294.938585 137.004298 
L 298.012965 132.16022 
L 301.087345 127.254435 
L 304.161725 122.286942 
L 307.236105 117.257741 
L 310.310486 112.166832 
L 313.384866 107.014215 
L 316.459246 101.79989 
L 319.533626 96.523857 
L 322.608006 91.186116 
L 325.682386 85.786667 
L 328.756767 80.32551 
L 331.831147 74.802645 
L 334.905527 69.218072 
L 337.979907 63.571791 
L 341.054287 57.863802 
L 344.128667 52.094105 
L 347.203048 46.2627 
L 350.277428 40.369587 
L 353.351808 34.414766 
L 356.426188 28.398237 
L 359.500568 22.32 
" style="fill:none;stroke:#008000;stroke-dasharray:2.2,2.2;stroke-dashoffset:0;stroke-width:1.7;"/>
   </g>
   <g id="line2d_17">
    <path clip-path="url(#p8f8bec7998)" d="M 55.136932 324.72 
L 58.211312 324.72 
L 61.285692 324.72 
L 64.360072 324.642217 
L 67.434452 324.48665 
L 70.508833 324.331083 
L 73.583213 324.097733 
L 76.657593 323.475466 
L 79.731973 323.164333 
L 82.806353 322.853199 
L 85.880733 322.308716 
L 88.955114 321.764232 
L 92.029494 320.986399 
L 95.103874 319.897432 
L 98.178254 319.197381 
L 101.252634 318.030631 
L 104.327014 316.863881 
L 107.401395 316.086047 
L 110.475775 315.308213 
L 113.550155 314.452596 
L 116.624535 313.985896 
L 119.698915 312.819146 
L 122.773295 311.807962 
L 125.847676 311.107912 
L 128.922056 310.018945 
L 131.996436 308.774411 
L 135.070816 307.607661 
L 138.145196 306.596477 
L 141.219576 304.496326 
L 144.293957 303.485142 
L 147.368337 302.240609 
L 150.442717 300.762725 
L 153.517097 299.129274 
L 156.591477 297.806957 
L 159.665857 296.173506 
L 162.740238 294.773406 
L 165.814618 292.906605 
L 168.888998 291.350938 
L 171.963378 289.250787 
L 175.037758 288.16182 
L 178.112138 286.917286 
L 181.186519 284.739352 
L 184.260899 282.405851 
L 187.335279 280.616834 
L 190.409659 278.20555 
L 193.484039 276.105399 
L 196.558419 274.394165 
L 199.6328 272.605148 
L 202.70718 270.11608 
L 205.78156 268.093713 
L 208.85594 266.382479 
L 211.93032 265.293512 
L 215.0047 262.960011 
L 218.079081 261.170994 
L 221.153461 258.059659 
L 224.227841 255.803942 
L 227.302221 253.470441 
L 230.376601 251.292507 
L 233.450981 249.659056 
L 236.525362 247.714472 
L 239.599742 245.536538 
L 242.674122 243.203037 
L 245.748502 239.936136 
L 248.822882 237.524852 
L 251.897262 234.569084 
L 254.971643 231.768883 
L 258.046023 229.124249 
L 261.120403 227.490798 
L 264.194783 225.079514 
L 267.269163 223.36828 
L 270.343543 220.490296 
L 273.417924 218.390145 
L 276.492304 215.823294 
L 279.566684 213.800927 
L 282.641064 211.311859 
L 285.715444 208.511658 
L 288.789824 205.08919 
L 291.864205 202.911256 
L 294.938585 200.188839 
L 298.012965 197.233071 
L 301.087345 194.121736 
L 304.161725 191.632669 
L 307.236105 188.287984 
L 310.310486 185.098867 
L 313.384866 182.843149 
L 316.459246 179.809598 
L 319.533626 177.476097 
L 322.608006 175.298163 
L 325.682386 173.042446 
L 328.756767 170.397811 
L 331.831147 168.06431 
L 334.905527 165.030759 
L 337.979907 161.919425 
L 341.054287 159.585924 
L 344.128667 156.085673 
L 347.203048 153.285472 
L 350.277428 150.718621 
L 353.351808 147.996203 
L 356.426188 145.273786 
L 359.500568 143.018068 
" style="fill:none;stroke:#ff0000;stroke-dasharray:5.6,2.4;stroke-dashoffset:0;stroke-width:1.7;"/>
   </g>
   <g id="line2d_18">
    <path clip-path="url(#p8f8bec7998)" d="M 55.136932 324.72 
L 58.211312 324.72 
L 61.285692 324.72 
L 64.360072 324.640742 
L 67.434452 324.481244 
L 70.508833 324.321072 
L 73.583213 324.078949 
L 76.657593 323.427764 
L 79.731973 323.100804 
L 82.806353 322.77084 
L 85.880733 322.189808 
L 88.955114 321.605521 
L 92.029494 320.768073 
L 95.103874 319.585436 
L 98.178254 318.821021 
L 101.252634 317.535953 
L 104.327014 316.242215 
L 107.401395 315.3698 
L 110.475775 314.497247 
L 113.550155 313.525531 
L 116.624535 312.993158 
L 119.698915 311.652768 
L 122.773295 310.487141 
L 125.847676 309.67509 
L 128.922056 308.39663 
L 131.996436 306.934315 
L 135.070816 305.551671 
L 138.145196 304.342648 
L 141.219576 301.796809 
L 144.293957 300.570729 
L 147.368337 299.061418 
L 150.442717 297.242357 
L 153.517097 295.228525 
L 156.591477 293.579831 
L 159.665857 291.535487 
L 162.740238 289.752867 
L 165.814618 287.358811 
L 168.888998 285.342599 
L 171.963378 282.641334 
L 175.037758 281.223243 
L 178.112138 279.57888 
L 181.186519 276.67891 
L 184.260899 273.534548 
L 187.335279 271.115364 
L 190.409659 267.818711 
L 193.484039 264.946979 
L 196.558419 262.590293 
L 199.6328 260.096886 
L 202.70718 256.604737 
L 205.78156 253.741409 
L 208.85594 251.282764 
L 211.93032 249.724889 
L 215.0047 246.301791 
L 218.079081 243.671408 
L 221.153461 239.06442 
L 224.227841 235.697419 
L 227.302221 232.174347 
L 230.376601 228.872077 
L 233.450981 226.400077 
L 236.525362 223.415315 
L 239.599742 220.043337 
L 242.674122 216.364713 
L 245.748502 211.249709 
L 248.822882 207.374428 
L 251.897262 202.658985 
L 254.971643 198.162413 
L 258.046023 193.815248 
L 261.120403 191.125082 
L 264.194783 187.16894 
L 267.269163 184.288253 
L 270.343543 179.465016 
L 273.417924 175.984408 
L 276.492304 171.553935 
L 279.566684 168.059955 
L 282.641064 163.708213 
L 285.715444 158.754057 
L 288.789824 152.673235 
L 291.864205 148.749522 
L 294.938585 143.802504 
L 298.012965 138.385061 
L 301.087345 132.578288 
L 304.161725 127.898255 
L 307.236105 121.651196 
L 310.310486 115.575454 
L 313.384866 111.303866 
L 316.459246 105.436066 
L 319.533626 100.946643 
L 322.608006 96.635977 
L 325.682386 92.117448 
L 328.756767 86.782501 
L 331.831147 82.033777 
L 334.905527 75.76233 
L 337.979907 69.237285 
L 341.054287 64.338046 
L 344.128667 56.888057 
L 347.203048 50.928129 
L 350.277428 45.385313 
L 353.351808 39.374694 
L 356.426188 33.274025 
L 359.500568 28.233826 
" style="fill:none;stroke:#000000;stroke-linecap:square;stroke-width:1.7;"/>
   </g>
   <g id="line2d_19">
    <path clip-path="url(#p8f8bec7998)" d="M 55.136932 324.72 
L 58.211312 324.72 
L 61.285692 324.72 
L 64.360072 324.640741 
L 67.434452 324.481529 
L 70.508833 324.321745 
L 73.583213 324.079971 
L 76.657593 323.430096 
L 79.731973 323.103352 
L 82.806353 322.774851 
L 85.880733 322.195262 
L 88.955114 321.612268 
L 92.029494 320.77329 
L 95.103874 319.59024 
L 98.178254 318.825426 
L 101.252634 317.541538 
L 104.327014 316.249217 
L 107.401395 315.380871 
L 110.475775 314.507481 
L 113.550155 313.539077 
L 116.624535 313.007756 
L 119.698915 311.67022 
L 122.773295 310.502693 
L 125.847676 309.68814 
L 128.922056 308.411947 
L 131.996436 306.942646 
L 135.070816 305.555436 
L 138.145196 304.345477 
L 141.219576 301.813181 
L 144.293957 300.584205 
L 147.368337 299.060396 
L 150.442717 297.239338 
L 153.517097 295.212011 
L 156.591477 293.557984 
L 159.665857 291.500158 
L 162.740238 289.723573 
L 165.814618 287.338528 
L 168.888998 285.334127 
L 171.963378 282.608905 
L 175.037758 281.184074 
L 178.112138 279.544195 
L 181.186519 276.65015 
L 184.260899 273.527901 
L 187.335279 271.114963 
L 190.409659 267.836144 
L 193.484039 264.959929 
L 196.558419 262.596841 
L 199.6328 260.109077 
L 202.70718 256.614972 
L 205.78156 253.754107 
L 208.85594 251.314397 
L 211.93032 249.750507 
L 215.0047 246.368654 
L 218.079081 243.755861 
L 221.153461 239.175373 
L 224.227841 235.82579 
L 227.302221 232.332955 
L 230.376601 229.047451 
L 233.450981 226.564052 
L 236.525362 223.578454 
L 239.599742 220.208279 
L 242.674122 216.568178 
L 245.748502 211.424699 
L 248.822882 207.594711 
L 251.897262 202.860123 
L 254.971643 198.33975 
L 258.046023 194.028675 
L 261.120403 191.343835 
L 264.194783 187.345336 
L 267.269163 184.48279 
L 270.343543 179.626018 
L 273.417924 176.050981 
L 276.492304 171.639287 
L 279.566684 168.131361 
L 282.641064 163.773391 
L 285.715444 158.827947 
L 288.789824 152.729695 
L 291.864205 148.814133 
L 294.938585 143.867467 
L 298.012965 138.443767 
L 301.087345 132.684372 
L 304.161725 128.031697 
L 307.236105 121.721776 
L 310.310486 115.639293 
L 313.384866 111.298334 
L 316.459246 105.402356 
L 319.533626 100.821094 
L 322.608006 96.504752 
L 325.682386 91.988199 
L 328.756767 86.644194 
L 331.831147 81.876809 
L 334.905527 75.614974 
L 337.979907 69.124856 
L 341.054287 64.209817 
L 344.128667 56.755688 
L 347.203048 50.735123 
L 350.277428 45.156937 
L 353.351808 39.174289 
L 356.426188 33.126871 
L 359.500568 28.062663 
" style="fill:none;stroke:#0000ff;stroke-dasharray:9.6,2.4,1.6,2.4;stroke-dashoffset:0;stroke-width:1.7;"/>
   </g>
   <g id="line2d_20">
    <path clip-path="url(#p8f8bec7998)" d="M 55.136932 324.72 
L 58.211312 324.72 
L 61.285692 324.72 
L 64.360072 324.636298 
L 67.434452 324.457481 
L 70.508833 324.272293 
L 73.583213 324.085837 
L 76.657593 323.574084 
L 79.731973 323.264408 
L 82.806353 322.888771 
L 85.880733 322.380592 
L 88.955114 321.807611 
L 92.029494 321.07237 
L 95.103874 319.704508 
L 98.178254 318.918214 
L 101.252634 317.453281 
L 104.327014 316.170122 
L 107.401395 315.360867 
L 110.475775 314.452596 
L 113.550155 313.479677 
L 116.624535 312.982867 
L 119.698915 311.802944 
L 122.773295 311.11569 
L 125.847676 310.513808 
L 128.922056 309.589089 
L 131.996436 308.035469 
L 135.070816 306.894646 
L 138.145196 305.320531 
L 141.219576 303.052758 
L 144.293957 302.15738 
L 147.368337 300.717213 
L 150.442717 299.274695 
L 153.517097 296.99801 
L 156.591477 295.017868 
L 159.665857 293.001056 
L 162.740238 291.992651 
L 165.814618 290.168836 
L 168.888998 288.818774 
L 171.963378 286.003332 
L 175.037758 284.078194 
L 178.112138 282.593447 
L 181.186519 279.479252 
L 184.260899 276.281039 
L 187.335279 273.978858 
L 190.409659 269.991071 
L 193.484039 266.553325 
L 196.558419 264.826812 
L 199.6328 262.653545 
L 202.70718 258.341235 
L 205.78156 255.917235 
L 208.85594 253.573589 
L 211.93032 252.066959 
L 215.0047 249.723312 
L 218.079081 245.964347 
L 221.153461 241.169002 
L 224.227841 237.176874 
L 227.302221 234.238505 
L 230.376601 230.388229 
L 233.450981 228.46309 
L 236.525362 225.334741 
L 239.599742 220.281253 
L 242.674122 216.912261 
L 245.748502 214.54286 
L 248.822882 211.284934 
L 251.897262 206.546133 
L 254.971643 201.511156 
L 258.046023 198.010904 
L 261.120403 195.735741 
L 264.194783 188.676901 
L 267.269163 185.682242 
L 270.343543 179.372067 
L 273.417924 175.52179 
L 276.492304 171.671514 
L 279.566684 167.339953 
L 282.641064 161.358273 
L 285.715444 156.84795 
L 288.789824 148.569855 
L 291.864205 144.719579 
L 294.938585 147.607286 
L 298.012965 142.473585 
L 301.087345 133.489606 
L 304.161725 137.981595 
L 307.236105 124.505628 
L 310.310486 118.730213 
L 313.384866 114.879937 
L 316.459246 111.029661 
L 319.533626 105.254246 
L 322.608006 101.40397 
L 325.682386 101.40397 
L 328.756767 89.853141 
L 331.831147 324.72 
L 334.905527 324.72 
L 337.979907 324.72 
L 341.054287 324.72 
L 344.128667 324.72 
L 347.203048 324.72 
L 350.277428 324.72 
L 353.351808 324.72 
L 356.426188 324.72 
L 359.500568 324.72 
" style="fill:none;stroke:#008000;stroke-linecap:square;stroke-width:1.7;"/>
   </g>
   <g id="line2d_21">
    <path clip-path="url(#p8f8bec7998)" d="M 55.136932 324.72 
L 58.211312 324.72 
L 61.285692 324.72 
L 64.360072 324.642217 
L 67.434452 324.48665 
L 70.508833 324.331083 
L 73.583213 324.082442 
L 76.657593 323.329639 
L 79.731973 323.018505 
L 82.806353 322.707372 
L 85.880733 322.138715 
L 88.955114 321.581128 
L 92.029494 320.65604 
L 95.103874 319.52399 
L 98.178254 318.72131 
L 101.252634 317.49732 
L 104.327014 316.070984 
L 107.401395 315.063704 
L 110.475775 314.137101 
L 113.550155 313.2492 
L 116.624535 312.631849 
L 119.698915 311.24898 
L 122.773295 310.085018 
L 125.847676 309.309367 
L 128.922056 308.102582 
L 131.996436 306.589883 
L 135.070816 305.34042 
L 138.145196 304.252938 
L 141.219576 301.673603 
L 144.293957 300.479826 
L 147.368337 298.945256 
L 150.442717 296.956307 
L 153.517097 294.917273 
L 156.591477 293.214406 
L 159.665857 291.174967 
L 162.740238 289.281828 
L 165.814618 286.851261 
L 168.888998 284.859789 
L 171.963378 282.104157 
L 175.037758 280.830081 
L 178.112138 278.971251 
L 181.186519 276.209966 
L 184.260899 273.086097 
L 187.335279 270.680273 
L 190.409659 267.560252 
L 193.484039 264.714953 
L 196.558419 262.180542 
L 199.6328 259.740392 
L 202.70718 256.423787 
L 205.78156 253.435267 
L 208.85594 250.843934 
L 211.93032 249.374855 
L 215.0047 245.971175 
L 218.079081 243.468959 
L 221.153461 239.373714 
L 224.227841 235.73466 
L 227.302221 232.54967 
L 230.376601 229.067276 
L 233.450981 226.360367 
L 236.525362 223.292972 
L 239.599742 219.858521 
L 242.674122 215.825141 
L 245.748502 210.056021 
L 248.822882 206.187084 
L 251.897262 201.638728 
L 254.971643 196.844644 
L 258.046023 192.325856 
L 261.120403 189.594509 
L 264.194783 185.658575 
L 267.269163 182.686949 
L 270.343543 177.958035 
L 273.417924 174.935143 
L 276.492304 170.301249 
L 279.566684 167.128496 
L 282.641064 162.561947 
L 285.715444 157.349827 
L 288.789824 151.19743 
L 291.864205 146.956973 
L 294.938585 141.624234 
L 298.012965 135.913602 
L 301.087345 130.299191 
L 304.161725 125.48762 
L 307.236105 119.090984 
L 310.310486 113.103646 
L 313.384866 108.526962 
L 316.459246 102.5185 
L 319.533626 98.167271 
L 322.608006 93.681354 
L 325.682386 89.134556 
L 328.756767 83.457596 
L 331.831147 78.827313 
L 334.905527 72.487935 
L 337.979907 65.924658 
L 341.054287 60.562884 
L 344.128667 53.840346 
L 347.203048 47.77667 
L 350.277428 41.976064 
L 353.351808 36.289505 
L 356.426188 30.174545 
L 359.500568 25.035862 
" style="fill:none;stroke:#ffff00;stroke-linecap:square;stroke-width:1.7;"/>
   </g>
   <g id="patch_3">
    <path d="M 39.91875 339.84 
L 39.91875 7.2 
" style="fill:none;stroke:#aaaaaa;stroke-linecap:square;stroke-linejoin:miter;"/>
   </g>
   <g id="patch_4">
    <path d="M 374.71875 339.84 
L 374.71875 7.2 
" style="fill:none;stroke:#aaaaaa;stroke-linecap:square;stroke-linejoin:miter;"/>
   </g>
   <g id="patch_5">
    <path d="M 39.91875 339.84 
L 374.71875 339.84 
" style="fill:none;stroke:#aaaaaa;stroke-linecap:square;stroke-linejoin:miter;"/>
   </g>
   <g id="patch_6">
    <path d="M 39.91875 7.2 
L 374.71875 7.2 
" style="fill:none;stroke:#aaaaaa;stroke-linecap:square;stroke-linejoin:miter;"/>
   </g>
  </g>
 </g>
 <defs>
  <clipPath id="p8f8bec7998">
   <rect height="332.64" width="334.8" x="39.91875" y="7.2"/>
  </clipPath>
 </defs>
</svg>
