<?xml version="1.0" encoding="utf-8" standalone="no"?>
<!DOCTYPE svg PUBLIC "-//W3C//DTD SVG 1.1//EN"
  "http://www.w3.org/Graphics/SVG/1.1/DTD/svg11.dtd">
<!-- Created with matplotlib (http://matplotlib.org/) -->
<svg height="369pt" version="1.1" viewBox="0 0 372 369" width="372pt" xmlns="http://www.w3.org/2000/svg" xmlns:xlink="http://www.w3.org/1999/xlink">
 <defs>
  <style type="text/css">
*{stroke-linecap:butt;stroke-linejoin:round;}
  </style>
 </defs>
 <g id="figure_1">
  <g id="patch_1">
   <path d="M 0 369.212812 
L 372.890625 369.212812 
L 372.890625 0 
L 0 0 
z
" style="fill:none;"/>
  </g>
  <g id="axes_1">
   <g id="patch_2">
    <path d="M 30.890625 344.399062 
L 365.690625 344.399062 
L 365.690625 11.759062 
L 30.890625 11.759062 
z
" style="fill:#ffffff;"/>
   </g>
   <g id="matplotlib.axis_1">
    <g id="xtick_1">
     <g id="line2d_1"/>
     <g id="text_1">
      <!-- −4 -->
      <defs>
       <path d="M 10.59375 35.5 
L 73.1875 35.5 
L 73.1875 27.203125 
L 10.59375 27.203125 
z
" id="DejaVuSans-2212"/>
       <path d="M 37.796875 64.3125 
L 12.890625 25.390625 
L 37.796875 25.390625 
z
M 35.203125 72.90625 
L 47.609375 72.90625 
L 47.609375 25.390625 
L 58.015625 25.390625 
L 58.015625 17.1875 
L 47.609375 17.1875 
L 47.609375 0 
L 37.796875 0 
L 37.796875 17.1875 
L 4.890625 17.1875 
L 4.890625 26.703125 
z
" id="DejaVuSans-34"/>
      </defs>
      <g style="fill:#565656;" transform="translate(55.525312 359.517187)scale(0.12 -0.12)">
       <use xlink:href="#DejaVuSans-2212"/>
       <use x="83.789062" xlink:href="#DejaVuSans-34"/>
      </g>
     </g>
    </g>
    <g id="xtick_2">
     <g id="line2d_2"/>
     <g id="text_2">
      <!-- −2 -->
      <defs>
       <path d="M 19.1875 8.296875 
L 53.609375 8.296875 
L 53.609375 0 
L 7.328125 0 
L 7.328125 8.296875 
Q 12.9375 14.109375 22.625 23.890625 
Q 32.328125 33.6875 34.8125 36.53125 
Q 39.546875 41.84375 41.421875 45.53125 
Q 43.3125 49.21875 43.3125 52.78125 
Q 43.3125 58.59375 39.234375 62.25 
Q 35.15625 65.921875 28.609375 65.921875 
Q 23.96875 65.921875 18.8125 64.3125 
Q 13.671875 62.703125 7.8125 59.421875 
L 7.8125 69.390625 
Q 13.765625 71.78125 18.9375 73 
Q 24.125 74.21875 28.421875 74.21875 
Q 39.75 74.21875 46.484375 68.546875 
Q 53.21875 62.890625 53.21875 53.421875 
Q 53.21875 48.921875 51.53125 44.890625 
Q 49.859375 40.875 45.40625 35.40625 
Q 44.1875 33.984375 37.640625 27.21875 
Q 31.109375 20.453125 19.1875 8.296875 
" id="DejaVuSans-32"/>
      </defs>
      <g style="fill:#565656;" transform="translate(122.485312 359.517187)scale(0.12 -0.12)">
       <use xlink:href="#DejaVuSans-2212"/>
       <use x="83.789062" xlink:href="#DejaVuSans-32"/>
      </g>
     </g>
    </g>
    <g id="xtick_3">
     <g id="line2d_3"/>
     <g id="text_3">
      <!-- 0 -->
      <defs>
       <path d="M 31.78125 66.40625 
Q 24.171875 66.40625 20.328125 58.90625 
Q 16.5 51.421875 16.5 36.375 
Q 16.5 21.390625 20.328125 13.890625 
Q 24.171875 6.390625 31.78125 6.390625 
Q 39.453125 6.390625 43.28125 13.890625 
Q 47.125 21.390625 47.125 36.375 
Q 47.125 51.421875 43.28125 58.90625 
Q 39.453125 66.40625 31.78125 66.40625 
M 31.78125 74.21875 
Q 44.046875 74.21875 50.515625 64.515625 
Q 56.984375 54.828125 56.984375 36.375 
Q 56.984375 17.96875 50.515625 8.265625 
Q 44.046875 -1.421875 31.78125 -1.421875 
Q 19.53125 -1.421875 13.0625 8.265625 
Q 6.59375 17.96875 6.59375 36.375 
Q 6.59375 54.828125 13.0625 64.515625 
Q 19.53125 74.21875 31.78125 74.21875 
" id="DejaVuSans-30"/>
      </defs>
      <g style="fill:#565656;" transform="translate(194.473125 359.517187)scale(0.12 -0.12)">
       <use xlink:href="#DejaVuSans-30"/>
      </g>
     </g>
    </g>
    <g id="xtick_4">
     <g id="line2d_4"/>
     <g id="text_4">
      <!-- 2 -->
      <g style="fill:#565656;" transform="translate(261.433125 359.517187)scale(0.12 -0.12)">
       <use xlink:href="#DejaVuSans-32"/>
      </g>
     </g>
    </g>
    <g id="xtick_5">
     <g id="line2d_5"/>
     <g id="text_5">
      <!-- 4 -->
      <g style="fill:#565656;" transform="translate(328.393125 359.517187)scale(0.12 -0.12)">
       <use xlink:href="#DejaVuSans-34"/>
      </g>
     </g>
    </g>
   </g>
   <g id="matplotlib.axis_2">
    <g id="ytick_1">
     <g id="line2d_6"/>
     <g id="text_6">
      <!-- −2 -->
      <g style="fill:#565656;" transform="translate(7.2 348.958125)scale(0.12 -0.12)">
       <use xlink:href="#DejaVuSans-2212"/>
       <use x="83.789062" xlink:href="#DejaVuSans-32"/>
      </g>
     </g>
    </g>
    <g id="ytick_2">
     <g id="line2d_7"/>
     <g id="text_7">
      <!-- −1 -->
      <defs>
       <path d="M 12.40625 8.296875 
L 28.515625 8.296875 
L 28.515625 63.921875 
L 10.984375 60.40625 
L 10.984375 69.390625 
L 28.421875 72.90625 
L 38.28125 72.90625 
L 38.28125 8.296875 
L 54.390625 8.296875 
L 54.390625 0 
L 12.40625 0 
z
" id="DejaVuSans-31"/>
      </defs>
      <g style="fill:#565656;" transform="translate(7.2 293.518125)scale(0.12 -0.12)">
       <use xlink:href="#DejaVuSans-2212"/>
       <use x="83.789062" xlink:href="#DejaVuSans-31"/>
      </g>
     </g>
    </g>
    <g id="ytick_3">
     <g id="line2d_8"/>
     <g id="text_8">
      <!-- 0 -->
      <g style="fill:#565656;" transform="translate(17.255625 238.078125)scale(0.12 -0.12)">
       <use xlink:href="#DejaVuSans-30"/>
      </g>
     </g>
    </g>
    <g id="ytick_4">
     <g id="line2d_9"/>
     <g id="text_9">
      <!-- 1 -->
      <g style="fill:#565656;" transform="translate(17.255625 182.638125)scale(0.12 -0.12)">
       <use xlink:href="#DejaVuSans-31"/>
      </g>
     </g>
    </g>
    <g id="ytick_5">
     <g id="line2d_10"/>
     <g id="text_10">
      <!-- 2 -->
      <g style="fill:#565656;" transform="translate(17.255625 127.198125)scale(0.12 -0.12)">
       <use xlink:href="#DejaVuSans-32"/>
      </g>
     </g>
    </g>
    <g id="ytick_6">
     <g id="line2d_11"/>
     <g id="text_11">
      <!-- 3 -->
      <defs>
       <path d="M 40.578125 39.3125 
Q 47.65625 37.796875 51.625 33 
Q 55.609375 28.21875 55.609375 21.1875 
Q 55.609375 10.40625 48.1875 4.484375 
Q 40.765625 -1.421875 27.09375 -1.421875 
Q 22.515625 -1.421875 17.65625 -0.515625 
Q 12.796875 0.390625 7.625 2.203125 
L 7.625 11.71875 
Q 11.71875 9.328125 16.59375 8.109375 
Q 21.484375 6.890625 26.8125 6.890625 
Q 36.078125 6.890625 40.9375 10.546875 
Q 45.796875 14.203125 45.796875 21.1875 
Q 45.796875 27.640625 41.28125 31.265625 
Q 36.765625 34.90625 28.71875 34.90625 
L 20.21875 34.90625 
L 20.21875 43.015625 
L 29.109375 43.015625 
Q 36.375 43.015625 40.234375 45.921875 
Q 44.09375 48.828125 44.09375 54.296875 
Q 44.09375 59.90625 40.109375 62.90625 
Q 36.140625 65.921875 28.71875 65.921875 
Q 24.65625 65.921875 20.015625 65.03125 
Q 15.375 64.15625 9.8125 62.3125 
L 9.8125 71.09375 
Q 15.4375 72.65625 20.34375 73.4375 
Q 25.25 74.21875 29.59375 74.21875 
Q 40.828125 74.21875 47.359375 69.109375 
Q 53.90625 64.015625 53.90625 55.328125 
Q 53.90625 49.265625 50.4375 45.09375 
Q 46.96875 40.921875 40.578125 39.3125 
" id="DejaVuSans-33"/>
      </defs>
      <g style="fill:#565656;" transform="translate(17.255625 71.758125)scale(0.12 -0.12)">
       <use xlink:href="#DejaVuSans-33"/>
      </g>
     </g>
    </g>
    <g id="ytick_7">
     <g id="line2d_12"/>
     <g id="text_12">
      <!-- 4 -->
      <g style="fill:#565656;" transform="translate(17.255625 16.318125)scale(0.12 -0.12)">
       <use xlink:href="#DejaVuSans-34"/>
      </g>
     </g>
    </g>
   </g>
   <g id="line2d_13">
    <path clip-path="url(#pa19839b6c4)" d="M 30.890625 233.524021 
L 57.339825 233.650411 
L 67.718625 233.911353 
L 74.749425 234.291832 
L 80.441025 234.806781 
L 85.463025 235.482122 
L 89.815425 236.285445 
L 93.833025 237.245194 
L 97.515825 238.336188 
L 101.198625 239.648677 
L 104.881425 241.193024 
L 108.564225 242.967108 
L 112.581825 245.141619 
L 117.603825 248.126829 
L 127.647825 254.179778 
L 130.995825 255.876114 
L 133.674225 256.97874 
L 136.017825 257.69844 
L 138.026625 258.095231 
L 140.035425 258.2574 
L 141.709425 258.19254 
L 143.383425 257.929069 
L 145.057425 257.452499 
L 146.731425 256.74987 
L 148.405425 255.810089 
L 150.079425 254.62425 
L 151.753425 253.185946 
L 153.427425 251.491559 
L 155.436225 249.11969 
L 157.445025 246.383681 
L 159.453825 243.296018 
L 161.797425 239.276369 
L 164.475825 234.188188 
L 167.489025 227.941801 
L 171.506625 219.02629 
L 179.876625 200.277579 
L 182.889825 194.198341 
L 185.233425 189.953858 
L 187.242225 186.734526 
L 189.251025 183.960378 
L 190.925025 182.023746 
L 192.599025 180.453641 
L 193.938225 179.474609 
L 195.277425 178.750389 
L 196.616625 178.286746 
L 197.955825 178.087378 
L 199.295025 178.153878 
L 200.634225 178.485716 
L 201.973425 179.08024 
L 203.312625 179.932713 
L 204.651825 181.03636 
L 206.325825 182.755649 
L 207.999825 184.83249 
L 209.673825 187.241579 
L 211.682625 190.529903 
L 214.026225 194.842435 
L 216.704625 200.277579 
L 220.052625 207.599331 
L 230.766225 231.472161 
L 233.779425 237.426167 
L 236.457825 242.191885 
L 238.801425 245.893045 
L 240.810225 248.68873 
L 242.819025 251.121845 
L 244.827825 253.185946 
L 246.501825 254.62425 
L 248.175825 255.810089 
L 249.849825 256.74987 
L 251.523825 257.452499 
L 253.197825 257.929069 
L 254.871825 258.19254 
L 256.545825 258.2574 
L 258.554625 258.095231 
L 260.563425 257.69844 
L 262.907025 256.97874 
L 265.250625 256.028027 
L 268.263825 254.541706 
L 271.946625 252.44955 
L 279.647025 247.716849 
L 285.003825 244.576879 
L 289.021425 242.461217 
L 293.039025 240.604433 
L 296.721825 239.144901 
L 300.404625 237.91468 
L 304.422225 236.817651 
L 308.439825 235.949545 
L 312.792225 235.229944 
L 317.814225 234.631185 
L 323.505825 234.179731 
L 330.536625 233.850354 
L 340.245825 233.636529 
L 356.651025 233.535486 
L 365.355825 233.524253 
L 365.355825 233.524253 
" style="fill:none;stroke:#404040;stroke-linecap:square;stroke-width:2;"/>
   </g>
   <g id="line2d_14">
    <path clip-path="url(#pa19839b6c4)" d="M 30.890625 233.52898 
L 52.317825 233.667819 
L 61.692225 233.94032 
L 68.053425 234.330334 
L 73.075425 234.840399 
L 77.427825 235.492894 
L 81.445425 236.327235 
L 84.793425 237.23645 
L 88.141425 238.380028 
L 91.154625 239.641684 
L 94.167825 241.15228 
L 97.181025 242.937111 
L 99.859425 244.77074 
L 102.537825 246.847397 
L 105.551025 249.478544 
L 108.564225 252.415154 
L 111.912225 256.008285 
L 115.595025 260.292641 
L 121.956225 268.122466 
L 126.308625 273.338809 
L 129.321825 276.610847 
L 131.665425 278.833314 
L 133.674225 280.438417 
L 135.348225 281.519276 
L 137.022225 282.329573 
L 138.361425 282.759629 
L 139.700625 282.976744 
L 141.039825 282.963861 
L 142.379025 282.704591 
L 143.718225 282.183422 
L 145.057425 281.385935 
L 146.396625 280.299022 
L 147.735825 278.911101 
L 149.075025 277.212333 
L 150.414225 275.194825 
L 152.088225 272.216175 
L 153.762225 268.724628 
L 155.436225 264.720317 
L 157.445025 259.2483 
L 159.453825 253.072973 
L 161.797425 245.033676 
L 164.141025 236.181716 
L 166.819425 225.221799 
L 170.167425 210.580197 
L 180.881025 162.851286 
L 183.559425 152.354953 
L 185.568225 145.258248 
L 187.577025 138.960648 
L 189.251025 134.401694 
L 190.925025 130.52843 
L 192.264225 127.955629 
L 193.603425 125.872434 
L 194.607825 124.641417 
L 195.612225 123.700676 
L 196.616625 123.05443 
L 197.621025 122.705579 
L 198.625425 122.655694 
L 199.629825 122.904997 
L 200.634225 123.452369 
L 201.638625 124.295349 
L 202.643025 125.430156 
L 203.647425 126.851708 
L 204.986625 129.182011 
L 206.325825 131.992235 
L 207.999825 136.145918 
L 209.673825 140.964096 
L 211.682625 147.540744 
L 213.691425 154.877619 
L 216.035025 164.233006 
L 219.048225 177.196756 
L 224.405025 201.487102 
L 229.092225 222.364539 
L 232.105425 234.857313 
L 234.783825 245.033676 
L 237.127425 253.072973 
L 239.136225 259.2483 
L 241.145025 264.720317 
L 242.819025 268.724628 
L 244.493025 272.216175 
L 246.167025 275.194825 
L 247.841025 277.666634 
L 249.180225 279.286871 
L 250.519425 280.598545 
L 251.858625 281.611953 
L 253.197825 282.339076 
L 254.537025 282.793372 
L 255.876225 282.989553 
L 257.215425 282.943371 
L 258.554625 282.6714 
L 259.893825 282.190833 
L 261.567825 281.323632 
L 263.241825 280.19285 
L 265.250625 278.536991 
L 267.594225 276.26759 
L 270.272625 273.338809 
L 273.955425 268.946531 
L 283.999425 256.764175 
L 287.347425 253.107301 
L 290.360625 250.105248 
L 293.373825 247.405137 
L 296.387025 245.016888 
L 299.400225 242.937111 
L 302.413425 241.15228 
L 305.426625 239.641684 
L 308.439825 238.380028 
L 311.787825 237.23645 
L 315.135825 236.327235 
L 318.818625 235.553087 
L 323.171025 234.882795 
L 328.193025 234.357835 
L 334.219425 233.97129 
L 341.919825 233.713646 
L 353.637825 233.567162 
L 365.355825 233.529444 
L 365.355825 233.529444 
" style="fill:none;stroke:#808080;stroke-linecap:square;stroke-width:2;"/>
   </g>
   <g id="line2d_15">
    <path clip-path="url(#pa19839b6c4)" d="M 30.890625 233.533938 
L 49.639425 233.682123 
L 58.344225 233.95923 
L 64.370625 234.355975 
L 69.392625 234.908587 
L 73.410225 235.564661 
L 77.093025 236.39185 
L 80.441025 237.382219 
L 83.454225 238.510652 
L 86.132625 239.735859 
L 88.811025 241.200889 
L 91.489425 242.935586 
L 94.167825 244.968889 
L 96.511425 247.013913 
L 98.855025 249.323066 
L 101.533425 252.300136 
L 104.211825 255.646529 
L 106.890225 259.360861 
L 109.903425 263.960159 
L 113.251425 269.537206 
L 117.269025 276.726432 
L 126.978225 294.38747 
L 129.656625 298.662749 
L 131.665425 301.49044 
L 133.339425 303.529744 
L 135.013425 305.225916 
L 136.352625 306.300701 
L 137.691825 307.095667 
L 139.031025 307.584293 
L 140.035425 307.734076 
L 141.039825 307.68626 
L 142.044225 307.430527 
L 143.048625 306.956978 
L 144.053025 306.256205 
L 145.057425 305.319371 
L 146.061825 304.138287 
L 147.401025 302.170775 
L 148.740225 299.74042 
L 150.079425 296.834624 
L 151.418625 293.443935 
L 153.092625 288.514864 
L 154.766625 282.815409 
L 156.440625 276.351663 
L 158.449425 267.610082 
L 160.458225 257.840661 
L 162.801825 245.240377 
L 165.480225 229.444402 
L 168.493425 210.249049 
L 172.845825 180.887757 
L 178.872225 140.236059 
L 181.885425 121.429837 
L 184.229025 108.102169 
L 186.237825 97.837425 
L 187.911825 90.235288 
L 189.585825 83.596296 
L 190.925025 79.033114 
L 192.264225 75.173913 
L 193.603425 72.049119 
L 194.607825 70.202594 
L 195.612225 68.791483 
L 196.616625 67.822113 
L 197.286225 67.42351 
L 197.955825 67.224009 
L 198.625425 67.224009 
L 199.295025 67.42351 
L 199.964625 67.822113 
L 200.634225 68.419022 
L 201.638625 69.683492 
L 202.643025 71.385702 
L 203.647425 73.518031 
L 204.986625 77.013485 
L 206.325825 81.228822 
L 207.665025 86.130902 
L 209.339025 93.165453 
L 211.013025 101.127841 
L 213.021825 111.772898 
L 215.365425 125.465894 
L 218.378625 144.608892 
L 222.731025 174.002673 
L 228.757425 214.621721 
L 231.770625 233.519062 
L 234.449025 248.965106 
L 236.792625 261.207406 
L 238.801425 270.641011 
L 240.810225 279.028065 
L 242.484225 285.187471 
L 244.158225 290.578947 
L 245.832225 295.200351 
L 247.171425 298.34762 
L 248.510625 301.01431 
L 249.849825 303.211484 
L 251.189025 304.9532 
L 252.528225 306.256205 
L 253.532625 306.956978 
L 254.537025 307.430527 
L 255.541425 307.68626 
L 256.545825 307.734076 
L 257.550225 307.584293 
L 258.554625 307.247569 
L 259.893825 306.526718 
L 261.233025 305.519383 
L 262.572225 304.252305 
L 264.246225 302.344017 
L 266.255025 299.646587 
L 268.598625 296.04778 
L 271.277025 291.499709 
L 275.294625 284.182291 
L 282.660225 270.703301 
L 286.008225 265.038796 
L 289.021425 260.345527 
L 291.699825 256.540947 
L 294.378225 253.101959 
L 297.056625 250.033064 
L 299.735025 247.327307 
L 302.413425 244.968889 
L 305.091825 242.935586 
L 307.770225 241.200889 
L 310.448625 239.735859 
L 313.127025 238.510652 
L 316.140225 237.382219 
L 319.488225 236.39185 
L 322.836225 235.630047 
L 326.853825 234.955021 
L 331.541025 234.415853 
L 337.232625 234.010246 
L 344.598225 233.733702 
L 355.311825 233.5775 
L 365.355825 233.534635 
L 365.355825 233.534635 
" style="fill:none;stroke:#bfbfbf;stroke-linecap:square;stroke-width:2;"/>
   </g>
   <g id="patch_3">
    <path d="M 30.890625 344.399062 
L 30.890625 11.759062 
" style="fill:none;stroke:#aaaaaa;stroke-linecap:square;stroke-linejoin:miter;"/>
   </g>
   <g id="patch_4">
    <path d="M 365.690625 344.399062 
L 365.690625 11.759062 
" style="fill:none;stroke:#aaaaaa;stroke-linecap:square;stroke-linejoin:miter;"/>
   </g>
   <g id="patch_5">
    <path d="M 30.890625 344.399062 
L 365.690625 344.399062 
" style="fill:none;stroke:#aaaaaa;stroke-linecap:square;stroke-linejoin:miter;"/>
   </g>
   <g id="patch_6">
    <path d="M 30.890625 11.759062 
L 365.690625 11.759062 
" style="fill:none;stroke:#aaaaaa;stroke-linecap:square;stroke-linejoin:miter;"/>
   </g>
  </g>
 </g>
 <defs>
  <clipPath id="pa19839b6c4">
   <rect height="332.64" width="334.8" x="30.890625" y="11.759062"/>
  </clipPath>
 </defs>
</svg>
