<?xml version="1.0" encoding="utf-8" standalone="no"?>
<!DOCTYPE svg PUBLIC "-//W3C//DTD SVG 1.1//EN"
  "http://www.w3.org/Graphics/SVG/1.1/DTD/svg11.dtd">
<!-- Created with matplotlib (http://matplotlib.org/) -->
<svg height="383pt" version="1.1" viewBox="0 0 457 383" width="457pt" xmlns="http://www.w3.org/2000/svg" xmlns:xlink="http://www.w3.org/1999/xlink">
 <defs>
  <style type="text/css">
*{stroke-linecap:butt;stroke-linejoin:round;}
  </style>
 </defs>
 <g id="figure_1">
  <g id="patch_1">
   <path d="M 0 383.78385 
L 457.0326 383.78385 
L 457.0326 0 
L 0 0 
z
" style="fill:none;"/>
  </g>
  <g id="axes_1">
   <g id="patch_2">
    <path d="M 61.1163 358.9701 
L 395.9163 358.9701 
L 395.9163 26.3301 
L 61.1163 26.3301 
z
" style="fill:#ffffff;"/>
   </g>
   <g id="matplotlib.axis_1">
    <g id="xtick_1">
     <g id="line2d_1">
      <path clip-path="url(#p9768096fa0)" d="M 123.8913 358.9701 
L 123.8913 26.3301 
" style="fill:none;stroke:#b0b0b0;stroke-linecap:square;stroke-width:0.8;"/>
     </g>
     <g id="line2d_2"/>
     <g id="text_1">
      <!-- ${10^{1}}$ -->
      <defs>
       <path d="M 12.40625 8.296875 
L 28.515625 8.296875 
L 28.515625 63.921875 
L 10.984375 60.40625 
L 10.984375 69.390625 
L 28.421875 72.90625 
L 38.28125 72.90625 
L 38.28125 8.296875 
L 54.390625 8.296875 
L 54.390625 0 
L 12.40625 0 
z
" id="DejaVuSans-31"/>
       <path d="M 31.78125 66.40625 
Q 24.171875 66.40625 20.328125 58.90625 
Q 16.5 51.421875 16.5 36.375 
Q 16.5 21.390625 20.328125 13.890625 
Q 24.171875 6.390625 31.78125 6.390625 
Q 39.453125 6.390625 43.28125 13.890625 
Q 47.125 21.390625 47.125 36.375 
Q 47.125 51.421875 43.28125 58.90625 
Q 39.453125 66.40625 31.78125 66.40625 
M 31.78125 74.21875 
Q 44.046875 74.21875 50.515625 64.515625 
Q 56.984375 54.828125 56.984375 36.375 
Q 56.984375 17.96875 50.515625 8.265625 
Q 44.046875 -1.421875 31.78125 -1.421875 
Q 19.53125 -1.421875 13.0625 8.265625 
Q 6.59375 17.96875 6.59375 36.375 
Q 6.59375 54.828125 13.0625 64.515625 
Q 19.53125 74.21875 31.78125 74.21875 
" id="DejaVuSans-30"/>
      </defs>
      <g style="fill:#565656;" transform="translate(113.3313 374.088225)scale(0.12 -0.12)">
       <use transform="translate(0 0.684375)" xlink:href="#DejaVuSans-31"/>
       <use transform="translate(63.623047 0.684375)" xlink:href="#DejaVuSans-30"/>
       <use transform="translate(128.203125 38.965625)scale(0.7)" xlink:href="#DejaVuSans-31"/>
      </g>
     </g>
    </g>
    <g id="xtick_2">
     <g id="line2d_3">
      <path clip-path="url(#p9768096fa0)" d="M 333.1413 358.9701 
L 333.1413 26.3301 
" style="fill:none;stroke:#b0b0b0;stroke-linecap:square;stroke-width:0.8;"/>
     </g>
     <g id="line2d_4"/>
     <g id="text_2">
      <!-- ${10^{2}}$ -->
      <defs>
       <path d="M 19.1875 8.296875 
L 53.609375 8.296875 
L 53.609375 0 
L 7.328125 0 
L 7.328125 8.296875 
Q 12.9375 14.109375 22.625 23.890625 
Q 32.328125 33.6875 34.8125 36.53125 
Q 39.546875 41.84375 41.421875 45.53125 
Q 43.3125 49.21875 43.3125 52.78125 
Q 43.3125 58.59375 39.234375 62.25 
Q 35.15625 65.921875 28.609375 65.921875 
Q 23.96875 65.921875 18.8125 64.3125 
Q 13.671875 62.703125 7.8125 59.421875 
L 7.8125 69.390625 
Q 13.765625 71.78125 18.9375 73 
Q 24.125 74.21875 28.421875 74.21875 
Q 39.75 74.21875 46.484375 68.546875 
Q 53.21875 62.890625 53.21875 53.421875 
Q 53.21875 48.921875 51.53125 44.890625 
Q 49.859375 40.875 45.40625 35.40625 
Q 44.1875 33.984375 37.640625 27.21875 
Q 31.109375 20.453125 19.1875 8.296875 
" id="DejaVuSans-32"/>
      </defs>
      <g style="fill:#565656;" transform="translate(322.5813 374.088225)scale(0.12 -0.12)">
       <use transform="translate(0 0.765625)" xlink:href="#DejaVuSans-31"/>
       <use transform="translate(63.623047 0.765625)" xlink:href="#DejaVuSans-30"/>
       <use transform="translate(128.203125 39.046875)scale(0.7)" xlink:href="#DejaVuSans-32"/>
      </g>
     </g>
    </g>
    <g id="xtick_3">
     <g id="line2d_5"/>
    </g>
    <g id="xtick_4">
     <g id="line2d_6"/>
    </g>
    <g id="xtick_5">
     <g id="line2d_7"/>
    </g>
    <g id="xtick_6">
     <g id="line2d_8"/>
    </g>
    <g id="xtick_7">
     <g id="line2d_9"/>
    </g>
    <g id="xtick_8">
     <g id="line2d_10"/>
    </g>
    <g id="xtick_9">
     <g id="line2d_11"/>
    </g>
    <g id="xtick_10">
     <g id="line2d_12"/>
    </g>
    <g id="xtick_11">
     <g id="line2d_13"/>
    </g>
    <g id="xtick_12">
     <g id="line2d_14"/>
    </g>
    <g id="xtick_13">
     <g id="line2d_15"/>
    </g>
    <g id="xtick_14">
     <g id="line2d_16"/>
    </g>
    <g id="xtick_15">
     <g id="line2d_17"/>
    </g>
    <g id="xtick_16">
     <g id="line2d_18"/>
    </g>
   </g>
   <g id="matplotlib.axis_2">
    <g id="ytick_1">
     <g id="line2d_19">
      <path clip-path="url(#p9768096fa0)" d="M 61.1163 358.9701 
L 395.9163 358.9701 
" style="fill:none;stroke:#b0b0b0;stroke-linecap:square;stroke-width:0.8;"/>
     </g>
     <g id="line2d_20"/>
     <g id="text_3">
      <!-- ${10^{-1}}$ -->
      <defs>
       <path d="M 10.59375 35.5 
L 73.1875 35.5 
L 73.1875 27.203125 
L 10.59375 27.203125 
z
" id="DejaVuSans-2212"/>
      </defs>
      <g style="fill:#565656;" transform="translate(26.9163 363.529163)scale(0.12 -0.12)">
       <use transform="translate(0 0.684375)" xlink:href="#DejaVuSans-31"/>
       <use transform="translate(63.623047 0.684375)" xlink:href="#DejaVuSans-30"/>
       <use transform="translate(128.203125 38.965625)scale(0.7)" xlink:href="#DejaVuSans-2212"/>
       <use transform="translate(186.855469 38.965625)scale(0.7)" xlink:href="#DejaVuSans-31"/>
      </g>
     </g>
    </g>
    <g id="ytick_2">
     <g id="line2d_21">
      <path clip-path="url(#p9768096fa0)" d="M 61.1163 39.551686 
L 395.9163 39.551686 
" style="fill:none;stroke:#b0b0b0;stroke-linecap:square;stroke-width:0.8;"/>
     </g>
     <g id="line2d_22"/>
     <g id="text_4">
      <!-- ${10^{0}}$ -->
      <g style="fill:#565656;" transform="translate(33.9963 44.110748)scale(0.12 -0.12)">
       <use transform="translate(0 0.765625)" xlink:href="#DejaVuSans-31"/>
       <use transform="translate(63.623047 0.765625)" xlink:href="#DejaVuSans-30"/>
       <use transform="translate(128.203125 39.046875)scale(0.7)" xlink:href="#DejaVuSans-30"/>
      </g>
     </g>
    </g>
    <g id="ytick_3">
     <g id="line2d_23"/>
    </g>
    <g id="ytick_4">
     <g id="line2d_24"/>
    </g>
    <g id="ytick_5">
     <g id="line2d_25"/>
    </g>
    <g id="ytick_6">
     <g id="line2d_26"/>
    </g>
    <g id="ytick_7">
     <g id="line2d_27"/>
    </g>
    <g id="ytick_8">
     <g id="line2d_28"/>
    </g>
    <g id="ytick_9">
     <g id="line2d_29"/>
    </g>
    <g id="ytick_10">
     <g id="line2d_30"/>
    </g>
   </g>
   <g id="line2d_31">
    <path clip-path="url(#p9768096fa0)" d="M 61.1163 248.100215 
L 69.838544 224.918979 
L 77.889847 204.115645 
L 85.270208 185.628456 
L 91.979627 169.374256 
L 98.689045 153.713712 
L 104.727522 140.185263 
L 110.095058 128.656249 
L 115.462593 117.636533 
L 120.159186 108.445105 
L 124.855779 99.704691 
L 129.552372 91.444597 
L 133.578023 84.769133 
L 137.603675 78.486641 
L 141.629326 72.615313 
L 145.654977 67.172913 
L 149.009687 62.977626 
L 152.364396 59.101635 
L 155.719106 55.553981 
L 159.073815 52.343163 
L 162.428524 49.477066 
L 165.112292 47.437243 
L 167.79606 45.625994 
L 170.479827 44.04632 
L 173.163595 42.700873 
L 175.847362 41.591934 
L 178.53113 40.7214 
L 181.214897 40.090773 
L 183.898665 39.701144 
L 186.582432 39.553192 
L 189.2662 39.647173 
L 191.949967 39.982924 
L 194.633735 40.559861 
L 197.317502 41.376983 
L 200.00127 42.432881 
L 202.685037 43.725744 
L 205.368805 45.253376 
L 208.052573 47.013205 
L 210.73634 49.002307 
L 214.091049 51.806098 
L 217.445759 54.955944 
L 220.800468 58.444082 
L 224.155178 62.262116 
L 227.509887 66.401096 
L 230.864597 70.851592 
L 234.890248 76.589524 
L 238.915899 82.744278 
L 242.941551 89.297778 
L 247.638144 97.422959 
L 252.334737 106.036419 
L 257.03133 115.108786 
L 262.398865 126.001919 
L 267.7664 137.41418 
L 273.804877 150.822556 
L 279.843354 164.780451 
L 286.552773 180.869918 
L 293.933134 199.197104 
L 301.984436 219.84882 
L 310.706681 242.889779 
L 320.099867 268.36166 
L 330.834937 298.165719 
L 342.911891 332.409035 
L 356.330729 371.150435 
L 361.004869 384.78385 
L 361.004869 384.78385 
" style="fill:none;stroke:#e24a33;stroke-dasharray:5.6,2.4;stroke-dashoffset:0;stroke-width:1.7;"/>
   </g>
   <g id="line2d_32">
    <path clip-path="url(#p9768096fa0)" d="M 61.1163 309.769766 
L 77.218905 261.920278 
L 89.295859 226.673959 
L 99.359987 197.95306 
L 108.082232 173.740529 
L 115.462593 153.910256 
L 122.172011 136.550158 
L 127.539546 123.221505 
L 132.907082 110.484047 
L 137.603675 99.900191 
L 141.629326 91.301865 
L 145.654977 83.190984 
L 149.680629 75.61736 
L 153.035338 69.753252 
L 156.390047 64.327496 
L 159.744757 59.369578 
L 162.428524 55.759396 
L 165.112292 52.481079 
L 167.79606 49.547945 
L 170.479827 46.972363 
L 173.163595 44.765558 
L 175.17642 43.358472 
L 177.189246 42.16805 
L 179.202072 41.197412 
L 181.214897 40.449133 
L 183.227723 39.92522 
L 185.240548 39.627089 
L 187.253374 39.555551 
L 189.2662 39.710798 
L 191.279025 40.09241 
L 193.291851 40.699351 
L 195.304677 41.529985 
L 197.317502 42.582092 
L 199.330328 43.852893 
L 201.343154 45.339076 
L 204.026921 47.649041 
L 206.710689 50.324799 
L 209.394456 53.354791 
L 212.078224 56.726366 
L 214.761991 60.425977 
L 218.116701 65.490034 
L 221.47141 71.015448 
L 224.82612 76.972626 
L 228.851771 84.649241 
L 232.877422 92.853797 
L 236.903074 101.536806 
L 241.599667 112.208689 
L 246.967202 125.033585 
L 252.334737 138.436967 
L 258.373214 154.100668 
L 265.082633 172.106884 
L 273.133935 194.38408 
L 282.527122 221.082037 
L 293.933134 254.241245 
L 308.022913 295.953458 
L 326.138344 350.317985 
L 337.539739 384.78385 
L 337.539739 384.78385 
" style="fill:none;stroke:#348abd;stroke-dasharray:9.6,2.4,1.6,2.4;stroke-dashoffset:0;stroke-width:1.7;"/>
   </g>
   <g id="line2d_33">
    <path clip-path="url(#p9768096fa0)" d="M 61.203486 384.78385 
L 140.958384 141.646702 
L 151.022512 111.630286 
L 157.731931 92.284419 
L 162.428524 79.386737 
L 166.454176 69.026838 
L 169.137943 62.625321 
L 171.821711 56.751809 
L 173.834536 52.767173 
L 175.847362 49.205312 
L 177.860188 46.12389 
L 179.873013 43.579069 
L 181.214897 42.206267 
L 182.556781 41.108151 
L 183.898665 40.29578 
L 185.240548 39.777624 
L 186.582432 39.559214 
L 187.924316 39.642912 
L 189.2662 40.027811 
L 190.608084 40.709773 
L 191.949967 41.681602 
L 193.291851 42.933347 
L 194.633735 44.452689 
L 195.975619 46.225401 
L 197.988444 49.325034 
L 200.00127 52.903047 
L 202.014096 56.901776 
L 204.697863 62.791041 
L 207.381631 69.205182 
L 210.73634 77.798175 
L 214.761991 88.730511 
L 220.129526 104.006348 
L 227.509887 125.757824 
L 239.586841 162.165223 
L 268.437342 250.084557 
L 312.560167 384.78385 
L 312.560167 384.78385 
" style="fill:none;stroke:#467821;stroke-linecap:square;stroke-width:1.7;"/>
   </g>
   <g id="patch_3">
    <path d="M 61.1163 358.9701 
L 61.1163 26.3301 
" style="fill:none;stroke:#aaaaaa;stroke-linecap:square;stroke-linejoin:miter;"/>
   </g>
   <g id="patch_4">
    <path d="M 395.9163 358.9701 
L 395.9163 26.3301 
" style="fill:none;stroke:#aaaaaa;stroke-linecap:square;stroke-linejoin:miter;"/>
   </g>
   <g id="patch_5">
    <path d="M 61.1163 358.9701 
L 395.9163 358.9701 
" style="fill:none;stroke:#aaaaaa;stroke-linecap:square;stroke-linejoin:miter;"/>
   </g>
   <g id="patch_6">
    <path d="M 61.1163 26.3301 
L 395.9163 26.3301 
" style="fill:none;stroke:#aaaaaa;stroke-linecap:square;stroke-linejoin:miter;"/>
   </g>
   <g id="text_5">
    <!-- amplitude=1, x_break=20, alpha_1=-2, alpha_2=2 -->
    <defs>
     <path d="M 34.28125 27.484375 
Q 23.390625 27.484375 19.1875 25 
Q 14.984375 22.515625 14.984375 16.5 
Q 14.984375 11.71875 18.140625 8.90625 
Q 21.296875 6.109375 26.703125 6.109375 
Q 34.1875 6.109375 38.703125 11.40625 
Q 43.21875 16.703125 43.21875 25.484375 
L 43.21875 27.484375 
z
M 52.203125 31.203125 
L 52.203125 0 
L 43.21875 0 
L 43.21875 8.296875 
Q 40.140625 3.328125 35.546875 0.953125 
Q 30.953125 -1.421875 24.3125 -1.421875 
Q 15.921875 -1.421875 10.953125 3.296875 
Q 6 8.015625 6 15.921875 
Q 6 25.140625 12.171875 29.828125 
Q 18.359375 34.515625 30.609375 34.515625 
L 43.21875 34.515625 
L 43.21875 35.40625 
Q 43.21875 41.609375 39.140625 45 
Q 35.0625 48.390625 27.6875 48.390625 
Q 23 48.390625 18.546875 47.265625 
Q 14.109375 46.140625 10.015625 43.890625 
L 10.015625 52.203125 
Q 14.9375 54.109375 19.578125 55.046875 
Q 24.21875 56 28.609375 56 
Q 40.484375 56 46.34375 49.84375 
Q 52.203125 43.703125 52.203125 31.203125 
" id="DejaVuSans-61"/>
     <path d="M 52 44.1875 
Q 55.375 50.25 60.0625 53.125 
Q 64.75 56 71.09375 56 
Q 79.640625 56 84.28125 50.015625 
Q 88.921875 44.046875 88.921875 33.015625 
L 88.921875 0 
L 79.890625 0 
L 79.890625 32.71875 
Q 79.890625 40.578125 77.09375 44.375 
Q 74.3125 48.1875 68.609375 48.1875 
Q 61.625 48.1875 57.5625 43.546875 
Q 53.515625 38.921875 53.515625 30.90625 
L 53.515625 0 
L 44.484375 0 
L 44.484375 32.71875 
Q 44.484375 40.625 41.703125 44.40625 
Q 38.921875 48.1875 33.109375 48.1875 
Q 26.21875 48.1875 22.15625 43.53125 
Q 18.109375 38.875 18.109375 30.90625 
L 18.109375 0 
L 9.078125 0 
L 9.078125 54.6875 
L 18.109375 54.6875 
L 18.109375 46.1875 
Q 21.1875 51.21875 25.484375 53.609375 
Q 29.78125 56 35.6875 56 
Q 41.65625 56 45.828125 52.96875 
Q 50 49.953125 52 44.1875 
" id="DejaVuSans-6d"/>
     <path d="M 18.109375 8.203125 
L 18.109375 -20.796875 
L 9.078125 -20.796875 
L 9.078125 54.6875 
L 18.109375 54.6875 
L 18.109375 46.390625 
Q 20.953125 51.265625 25.265625 53.625 
Q 29.59375 56 35.59375 56 
Q 45.5625 56 51.78125 48.09375 
Q 58.015625 40.1875 58.015625 27.296875 
Q 58.015625 14.40625 51.78125 6.484375 
Q 45.5625 -1.421875 35.59375 -1.421875 
Q 29.59375 -1.421875 25.265625 0.953125 
Q 20.953125 3.328125 18.109375 8.203125 
M 48.6875 27.296875 
Q 48.6875 37.203125 44.609375 42.84375 
Q 40.53125 48.484375 33.40625 48.484375 
Q 26.265625 48.484375 22.1875 42.84375 
Q 18.109375 37.203125 18.109375 27.296875 
Q 18.109375 17.390625 22.1875 11.75 
Q 26.265625 6.109375 33.40625 6.109375 
Q 40.53125 6.109375 44.609375 11.75 
Q 48.6875 17.390625 48.6875 27.296875 
" id="DejaVuSans-70"/>
     <path d="M 9.421875 75.984375 
L 18.40625 75.984375 
L 18.40625 0 
L 9.421875 0 
z
" id="DejaVuSans-6c"/>
     <path d="M 9.421875 54.6875 
L 18.40625 54.6875 
L 18.40625 0 
L 9.421875 0 
z
M 9.421875 75.984375 
L 18.40625 75.984375 
L 18.40625 64.59375 
L 9.421875 64.59375 
z
" id="DejaVuSans-69"/>
     <path d="M 18.3125 70.21875 
L 18.3125 54.6875 
L 36.8125 54.6875 
L 36.8125 47.703125 
L 18.3125 47.703125 
L 18.3125 18.015625 
Q 18.3125 11.328125 20.140625 9.421875 
Q 21.96875 7.515625 27.59375 7.515625 
L 36.8125 7.515625 
L 36.8125 0 
L 27.59375 0 
Q 17.1875 0 13.234375 3.875 
Q 9.28125 7.765625 9.28125 18.015625 
L 9.28125 47.703125 
L 2.6875 47.703125 
L 2.6875 54.6875 
L 9.28125 54.6875 
L 9.28125 70.21875 
z
" id="DejaVuSans-74"/>
     <path d="M 8.5 21.578125 
L 8.5 54.6875 
L 17.484375 54.6875 
L 17.484375 21.921875 
Q 17.484375 14.15625 20.5 10.265625 
Q 23.53125 6.390625 29.59375 6.390625 
Q 36.859375 6.390625 41.078125 11.03125 
Q 45.3125 15.671875 45.3125 23.6875 
L 45.3125 54.6875 
L 54.296875 54.6875 
L 54.296875 0 
L 45.3125 0 
L 45.3125 8.40625 
Q 42.046875 3.421875 37.71875 1 
Q 33.40625 -1.421875 27.6875 -1.421875 
Q 18.265625 -1.421875 13.375 4.4375 
Q 8.5 10.296875 8.5 21.578125 
M 31.109375 56 
z
" id="DejaVuSans-75"/>
     <path d="M 45.40625 46.390625 
L 45.40625 75.984375 
L 54.390625 75.984375 
L 54.390625 0 
L 45.40625 0 
L 45.40625 8.203125 
Q 42.578125 3.328125 38.25 0.953125 
Q 33.9375 -1.421875 27.875 -1.421875 
Q 17.96875 -1.421875 11.734375 6.484375 
Q 5.515625 14.40625 5.515625 27.296875 
Q 5.515625 40.1875 11.734375 48.09375 
Q 17.96875 56 27.875 56 
Q 33.9375 56 38.25 53.625 
Q 42.578125 51.265625 45.40625 46.390625 
M 14.796875 27.296875 
Q 14.796875 17.390625 18.875 11.75 
Q 22.953125 6.109375 30.078125 6.109375 
Q 37.203125 6.109375 41.296875 11.75 
Q 45.40625 17.390625 45.40625 27.296875 
Q 45.40625 37.203125 41.296875 42.84375 
Q 37.203125 48.484375 30.078125 48.484375 
Q 22.953125 48.484375 18.875 42.84375 
Q 14.796875 37.203125 14.796875 27.296875 
" id="DejaVuSans-64"/>
     <path d="M 56.203125 29.59375 
L 56.203125 25.203125 
L 14.890625 25.203125 
Q 15.484375 15.921875 20.484375 11.0625 
Q 25.484375 6.203125 34.421875 6.203125 
Q 39.59375 6.203125 44.453125 7.46875 
Q 49.3125 8.734375 54.109375 11.28125 
L 54.109375 2.78125 
Q 49.265625 0.734375 44.1875 -0.34375 
Q 39.109375 -1.421875 33.890625 -1.421875 
Q 20.796875 -1.421875 13.15625 6.1875 
Q 5.515625 13.8125 5.515625 26.8125 
Q 5.515625 40.234375 12.765625 48.109375 
Q 20.015625 56 32.328125 56 
Q 43.359375 56 49.78125 48.890625 
Q 56.203125 41.796875 56.203125 29.59375 
M 47.21875 32.234375 
Q 47.125 39.59375 43.09375 43.984375 
Q 39.0625 48.390625 32.421875 48.390625 
Q 24.90625 48.390625 20.390625 44.140625 
Q 15.875 39.890625 15.1875 32.171875 
z
" id="DejaVuSans-65"/>
     <path d="M 10.59375 45.40625 
L 73.1875 45.40625 
L 73.1875 37.203125 
L 10.59375 37.203125 
z
M 10.59375 25.484375 
L 73.1875 25.484375 
L 73.1875 17.1875 
L 10.59375 17.1875 
z
" id="DejaVuSans-3d"/>
     <path d="M 11.71875 12.40625 
L 22.015625 12.40625 
L 22.015625 4 
L 14.015625 -11.625 
L 7.71875 -11.625 
L 11.71875 4 
z
" id="DejaVuSans-2c"/>
     <path id="DejaVuSans-20"/>
     <path d="M 54.890625 54.6875 
L 35.109375 28.078125 
L 55.90625 0 
L 45.3125 0 
L 29.390625 21.484375 
L 13.484375 0 
L 2.875 0 
L 24.125 28.609375 
L 4.6875 54.6875 
L 15.28125 54.6875 
L 29.78125 35.203125 
L 44.28125 54.6875 
z
" id="DejaVuSans-78"/>
     <path d="M 50.984375 -16.609375 
L 50.984375 -23.578125 
L -0.984375 -23.578125 
L -0.984375 -16.609375 
z
" id="DejaVuSans-5f"/>
     <path d="M 48.6875 27.296875 
Q 48.6875 37.203125 44.609375 42.84375 
Q 40.53125 48.484375 33.40625 48.484375 
Q 26.265625 48.484375 22.1875 42.84375 
Q 18.109375 37.203125 18.109375 27.296875 
Q 18.109375 17.390625 22.1875 11.75 
Q 26.265625 6.109375 33.40625 6.109375 
Q 40.53125 6.109375 44.609375 11.75 
Q 48.6875 17.390625 48.6875 27.296875 
M 18.109375 46.390625 
Q 20.953125 51.265625 25.265625 53.625 
Q 29.59375 56 35.59375 56 
Q 45.5625 56 51.78125 48.09375 
Q 58.015625 40.1875 58.015625 27.296875 
Q 58.015625 14.40625 51.78125 6.484375 
Q 45.5625 -1.421875 35.59375 -1.421875 
Q 29.59375 -1.421875 25.265625 0.953125 
Q 20.953125 3.328125 18.109375 8.203125 
L 18.109375 0 
L 9.078125 0 
L 9.078125 75.984375 
L 18.109375 75.984375 
z
" id="DejaVuSans-62"/>
     <path d="M 41.109375 46.296875 
Q 39.59375 47.171875 37.8125 47.578125 
Q 36.03125 48 33.890625 48 
Q 26.265625 48 22.1875 43.046875 
Q 18.109375 38.09375 18.109375 28.8125 
L 18.109375 0 
L 9.078125 0 
L 9.078125 54.6875 
L 18.109375 54.6875 
L 18.109375 46.1875 
Q 20.953125 51.171875 25.484375 53.578125 
Q 30.03125 56 36.53125 56 
Q 37.453125 56 38.578125 55.875 
Q 39.703125 55.765625 41.0625 55.515625 
z
" id="DejaVuSans-72"/>
     <path d="M 9.078125 75.984375 
L 18.109375 75.984375 
L 18.109375 31.109375 
L 44.921875 54.6875 
L 56.390625 54.6875 
L 27.390625 29.109375 
L 57.625 0 
L 45.90625 0 
L 18.109375 26.703125 
L 18.109375 0 
L 9.078125 0 
z
" id="DejaVuSans-6b"/>
     <path d="M 54.890625 33.015625 
L 54.890625 0 
L 45.90625 0 
L 45.90625 32.71875 
Q 45.90625 40.484375 42.875 44.328125 
Q 39.84375 48.1875 33.796875 48.1875 
Q 26.515625 48.1875 22.3125 43.546875 
Q 18.109375 38.921875 18.109375 30.90625 
L 18.109375 0 
L 9.078125 0 
L 9.078125 75.984375 
L 18.109375 75.984375 
L 18.109375 46.1875 
Q 21.34375 51.125 25.703125 53.5625 
Q 30.078125 56 35.796875 56 
Q 45.21875 56 50.046875 50.171875 
Q 54.890625 44.34375 54.890625 33.015625 
" id="DejaVuSans-68"/>
     <path d="M 4.890625 31.390625 
L 31.203125 31.390625 
L 31.203125 23.390625 
L 4.890625 23.390625 
z
" id="DejaVuSans-2d"/>
    </defs>
    <g transform="translate(7.2 20.3301)scale(0.1728 -0.1728)">
     <use xlink:href="#DejaVuSans-61"/>
     <use x="61.279297" xlink:href="#DejaVuSans-6d"/>
     <use x="158.691406" xlink:href="#DejaVuSans-70"/>
     <use x="222.167969" xlink:href="#DejaVuSans-6c"/>
     <use x="249.951172" xlink:href="#DejaVuSans-69"/>
     <use x="277.734375" xlink:href="#DejaVuSans-74"/>
     <use x="316.943359" xlink:href="#DejaVuSans-75"/>
     <use x="380.322266" xlink:href="#DejaVuSans-64"/>
     <use x="443.798828" xlink:href="#DejaVuSans-65"/>
     <use x="505.322266" xlink:href="#DejaVuSans-3d"/>
     <use x="589.111328" xlink:href="#DejaVuSans-31"/>
     <use x="652.734375" xlink:href="#DejaVuSans-2c"/>
     <use x="684.521484" xlink:href="#DejaVuSans-20"/>
     <use x="716.308594" xlink:href="#DejaVuSans-78"/>
     <use x="775.488281" xlink:href="#DejaVuSans-5f"/>
     <use x="825.488281" xlink:href="#DejaVuSans-62"/>
     <use x="888.964844" xlink:href="#DejaVuSans-72"/>
     <use x="930.046875" xlink:href="#DejaVuSans-65"/>
     <use x="991.570312" xlink:href="#DejaVuSans-61"/>
     <use x="1052.849609" xlink:href="#DejaVuSans-6b"/>
     <use x="1110.759766" xlink:href="#DejaVuSans-3d"/>
     <use x="1194.548828" xlink:href="#DejaVuSans-32"/>
     <use x="1258.171875" xlink:href="#DejaVuSans-30"/>
     <use x="1321.794922" xlink:href="#DejaVuSans-2c"/>
     <use x="1353.582031" xlink:href="#DejaVuSans-20"/>
     <use x="1385.369141" xlink:href="#DejaVuSans-61"/>
     <use x="1446.648438" xlink:href="#DejaVuSans-6c"/>
     <use x="1474.431641" xlink:href="#DejaVuSans-70"/>
     <use x="1537.908203" xlink:href="#DejaVuSans-68"/>
     <use x="1601.287109" xlink:href="#DejaVuSans-61"/>
     <use x="1662.566406" xlink:href="#DejaVuSans-5f"/>
     <use x="1712.566406" xlink:href="#DejaVuSans-31"/>
     <use x="1776.189453" xlink:href="#DejaVuSans-3d"/>
     <use x="1859.978516" xlink:href="#DejaVuSans-2d"/>
     <use x="1896.0625" xlink:href="#DejaVuSans-32"/>
     <use x="1959.685547" xlink:href="#DejaVuSans-2c"/>
     <use x="1991.472656" xlink:href="#DejaVuSans-20"/>
     <use x="2023.259766" xlink:href="#DejaVuSans-61"/>
     <use x="2084.539062" xlink:href="#DejaVuSans-6c"/>
     <use x="2112.322266" xlink:href="#DejaVuSans-70"/>
     <use x="2175.798828" xlink:href="#DejaVuSans-68"/>
     <use x="2239.177734" xlink:href="#DejaVuSans-61"/>
     <use x="2300.457031" xlink:href="#DejaVuSans-5f"/>
     <use x="2350.457031" xlink:href="#DejaVuSans-32"/>
     <use x="2414.080078" xlink:href="#DejaVuSans-3d"/>
     <use x="2497.869141" xlink:href="#DejaVuSans-32"/>
    </g>
   </g>
   <g id="legend_1">
    <g id="patch_7">
     <path d="M 179.549738 352.9701 
L 277.482863 352.9701 
Q 279.882862 352.9701 279.882862 350.5701 
L 279.882862 298.92885 
Q 279.882862 296.52885 277.482863 296.52885 
L 179.549738 296.52885 
Q 177.149738 296.52885 177.149738 298.92885 
L 177.149738 350.5701 
Q 177.149738 352.9701 179.549738 352.9701 
z
" style="fill:#ffffff;opacity:0.8;stroke:#cccccc;stroke-linejoin:miter;"/>
    </g>
    <g id="line2d_34">
     <path d="M 181.949738 306.246975 
L 205.949738 306.246975 
" style="fill:none;stroke:#e24a33;stroke-dasharray:5.6,2.4;stroke-dashoffset:0;stroke-width:1.7;"/>
    </g>
    <g id="line2d_35"/>
    <g id="text_6">
     <!-- delta=0.5 -->
     <defs>
      <path d="M 10.6875 12.40625 
L 21 12.40625 
L 21 0 
L 10.6875 0 
z
" id="DejaVuSans-2e"/>
      <path d="M 10.796875 72.90625 
L 49.515625 72.90625 
L 49.515625 64.59375 
L 19.828125 64.59375 
L 19.828125 46.734375 
Q 21.96875 47.46875 24.109375 47.828125 
Q 26.265625 48.1875 28.421875 48.1875 
Q 40.625 48.1875 47.75 41.5 
Q 54.890625 34.8125 54.890625 23.390625 
Q 54.890625 11.625 47.5625 5.09375 
Q 40.234375 -1.421875 26.90625 -1.421875 
Q 22.3125 -1.421875 17.546875 -0.640625 
Q 12.796875 0.140625 7.71875 1.703125 
L 7.71875 11.625 
Q 12.109375 9.234375 16.796875 8.0625 
Q 21.484375 6.890625 26.703125 6.890625 
Q 35.15625 6.890625 40.078125 11.328125 
Q 45.015625 15.765625 45.015625 23.390625 
Q 45.015625 31 40.078125 35.4375 
Q 35.15625 39.890625 26.703125 39.890625 
Q 22.75 39.890625 18.8125 39.015625 
Q 14.890625 38.140625 10.796875 36.28125 
z
" id="DejaVuSans-35"/>
     </defs>
     <g transform="translate(215.549738 310.446975)scale(0.12 -0.12)">
      <use xlink:href="#DejaVuSans-64"/>
      <use x="63.476562" xlink:href="#DejaVuSans-65"/>
      <use x="125" xlink:href="#DejaVuSans-6c"/>
      <use x="152.783203" xlink:href="#DejaVuSans-74"/>
      <use x="191.992188" xlink:href="#DejaVuSans-61"/>
      <use x="253.271484" xlink:href="#DejaVuSans-3d"/>
      <use x="337.060547" xlink:href="#DejaVuSans-30"/>
      <use x="400.683594" xlink:href="#DejaVuSans-2e"/>
      <use x="432.470703" xlink:href="#DejaVuSans-35"/>
     </g>
    </g>
    <g id="line2d_36">
     <path d="M 181.949738 323.860725 
L 205.949738 323.860725 
" style="fill:none;stroke:#348abd;stroke-dasharray:9.6,2.4,1.6,2.4;stroke-dashoffset:0;stroke-width:1.7;"/>
    </g>
    <g id="line2d_37"/>
    <g id="text_7">
     <!-- delta=0.3 -->
     <defs>
      <path d="M 40.578125 39.3125 
Q 47.65625 37.796875 51.625 33 
Q 55.609375 28.21875 55.609375 21.1875 
Q 55.609375 10.40625 48.1875 4.484375 
Q 40.765625 -1.421875 27.09375 -1.421875 
Q 22.515625 -1.421875 17.65625 -0.515625 
Q 12.796875 0.390625 7.625 2.203125 
L 7.625 11.71875 
Q 11.71875 9.328125 16.59375 8.109375 
Q 21.484375 6.890625 26.8125 6.890625 
Q 36.078125 6.890625 40.9375 10.546875 
Q 45.796875 14.203125 45.796875 21.1875 
Q 45.796875 27.640625 41.28125 31.265625 
Q 36.765625 34.90625 28.71875 34.90625 
L 20.21875 34.90625 
L 20.21875 43.015625 
L 29.109375 43.015625 
Q 36.375 43.015625 40.234375 45.921875 
Q 44.09375 48.828125 44.09375 54.296875 
Q 44.09375 59.90625 40.109375 62.90625 
Q 36.140625 65.921875 28.71875 65.921875 
Q 24.65625 65.921875 20.015625 65.03125 
Q 15.375 64.15625 9.8125 62.3125 
L 9.8125 71.09375 
Q 15.4375 72.65625 20.34375 73.4375 
Q 25.25 74.21875 29.59375 74.21875 
Q 40.828125 74.21875 47.359375 69.109375 
Q 53.90625 64.015625 53.90625 55.328125 
Q 53.90625 49.265625 50.4375 45.09375 
Q 46.96875 40.921875 40.578125 39.3125 
" id="DejaVuSans-33"/>
     </defs>
     <g transform="translate(215.549738 328.060725)scale(0.12 -0.12)">
      <use xlink:href="#DejaVuSans-64"/>
      <use x="63.476562" xlink:href="#DejaVuSans-65"/>
      <use x="125" xlink:href="#DejaVuSans-6c"/>
      <use x="152.783203" xlink:href="#DejaVuSans-74"/>
      <use x="191.992188" xlink:href="#DejaVuSans-61"/>
      <use x="253.271484" xlink:href="#DejaVuSans-3d"/>
      <use x="337.060547" xlink:href="#DejaVuSans-30"/>
      <use x="400.683594" xlink:href="#DejaVuSans-2e"/>
      <use x="432.470703" xlink:href="#DejaVuSans-33"/>
     </g>
    </g>
    <g id="line2d_38">
     <path d="M 181.949738 341.474475 
L 205.949738 341.474475 
" style="fill:none;stroke:#467821;stroke-linecap:square;stroke-width:1.7;"/>
    </g>
    <g id="line2d_39"/>
    <g id="text_8">
     <!-- delta=0.1 -->
     <g transform="translate(215.549738 345.674475)scale(0.12 -0.12)">
      <use xlink:href="#DejaVuSans-64"/>
      <use x="63.476562" xlink:href="#DejaVuSans-65"/>
      <use x="125" xlink:href="#DejaVuSans-6c"/>
      <use x="152.783203" xlink:href="#DejaVuSans-74"/>
      <use x="191.992188" xlink:href="#DejaVuSans-61"/>
      <use x="253.271484" xlink:href="#DejaVuSans-3d"/>
      <use x="337.060547" xlink:href="#DejaVuSans-30"/>
      <use x="400.683594" xlink:href="#DejaVuSans-2e"/>
      <use x="432.470703" xlink:href="#DejaVuSans-31"/>
     </g>
    </g>
   </g>
  </g>
 </g>
 <defs>
  <clipPath id="p9768096fa0">
   <rect height="332.64" width="334.8" x="61.1163" y="26.3301"/>
  </clipPath>
 </defs>
</svg>
