<?xml version="1.0" encoding="utf-8" standalone="no"?>
<!DOCTYPE svg PUBLIC "-//W3C//DTD SVG 1.1//EN"
  "http://www.w3.org/Graphics/SVG/1.1/DTD/svg11.dtd">
<!-- Created with matplotlib (http://matplotlib.org/) -->
<svg height="369pt" version="1.1" viewBox="0 0 372 369" width="372pt" xmlns="http://www.w3.org/2000/svg" xmlns:xlink="http://www.w3.org/1999/xlink">
 <defs>
  <style type="text/css">
*{stroke-linecap:butt;stroke-linejoin:round;}
  </style>
 </defs>
 <g id="figure_1">
  <g id="patch_1">
   <path d="M 0 369.212812 
L 372.890625 369.212812 
L 372.890625 0 
L 0 0 
z
" style="fill:none;"/>
  </g>
  <g id="axes_1">
   <g id="patch_2">
    <path d="M 30.890625 344.399062 
L 365.690625 344.399062 
L 365.690625 11.759062 
L 30.890625 11.759062 
z
" style="fill:#ffffff;"/>
   </g>
   <g id="matplotlib.axis_1">
    <g id="xtick_1">
     <g id="line2d_1"/>
     <g id="text_1">
      <!-- −4 -->
      <defs>
       <path d="M 10.59375 35.5 
L 73.1875 35.5 
L 73.1875 27.203125 
L 10.59375 27.203125 
z
" id="DejaVuSans-2212"/>
       <path d="M 37.796875 64.3125 
L 12.890625 25.390625 
L 37.796875 25.390625 
z
M 35.203125 72.90625 
L 47.609375 72.90625 
L 47.609375 25.390625 
L 58.015625 25.390625 
L 58.015625 17.1875 
L 47.609375 17.1875 
L 47.609375 0 
L 37.796875 0 
L 37.796875 17.1875 
L 4.890625 17.1875 
L 4.890625 26.703125 
z
" id="DejaVuSans-34"/>
      </defs>
      <g style="fill:#565656;" transform="translate(55.525312 359.517187)scale(0.12 -0.12)">
       <use xlink:href="#DejaVuSans-2212"/>
       <use x="83.789062" xlink:href="#DejaVuSans-34"/>
      </g>
     </g>
    </g>
    <g id="xtick_2">
     <g id="line2d_2"/>
     <g id="text_2">
      <!-- −2 -->
      <defs>
       <path d="M 19.1875 8.296875 
L 53.609375 8.296875 
L 53.609375 0 
L 7.328125 0 
L 7.328125 8.296875 
Q 12.9375 14.109375 22.625 23.890625 
Q 32.328125 33.6875 34.8125 36.53125 
Q 39.546875 41.84375 41.421875 45.53125 
Q 43.3125 49.21875 43.3125 52.78125 
Q 43.3125 58.59375 39.234375 62.25 
Q 35.15625 65.921875 28.609375 65.921875 
Q 23.96875 65.921875 18.8125 64.3125 
Q 13.671875 62.703125 7.8125 59.421875 
L 7.8125 69.390625 
Q 13.765625 71.78125 18.9375 73 
Q 24.125 74.21875 28.421875 74.21875 
Q 39.75 74.21875 46.484375 68.546875 
Q 53.21875 62.890625 53.21875 53.421875 
Q 53.21875 48.921875 51.53125 44.890625 
Q 49.859375 40.875 45.40625 35.40625 
Q 44.1875 33.984375 37.640625 27.21875 
Q 31.109375 20.453125 19.1875 8.296875 
" id="DejaVuSans-32"/>
      </defs>
      <g style="fill:#565656;" transform="translate(122.485312 359.517187)scale(0.12 -0.12)">
       <use xlink:href="#DejaVuSans-2212"/>
       <use x="83.789062" xlink:href="#DejaVuSans-32"/>
      </g>
     </g>
    </g>
    <g id="xtick_3">
     <g id="line2d_3"/>
     <g id="text_3">
      <!-- 0 -->
      <defs>
       <path d="M 31.78125 66.40625 
Q 24.171875 66.40625 20.328125 58.90625 
Q 16.5 51.421875 16.5 36.375 
Q 16.5 21.390625 20.328125 13.890625 
Q 24.171875 6.390625 31.78125 6.390625 
Q 39.453125 6.390625 43.28125 13.890625 
Q 47.125 21.390625 47.125 36.375 
Q 47.125 51.421875 43.28125 58.90625 
Q 39.453125 66.40625 31.78125 66.40625 
M 31.78125 74.21875 
Q 44.046875 74.21875 50.515625 64.515625 
Q 56.984375 54.828125 56.984375 36.375 
Q 56.984375 17.96875 50.515625 8.265625 
Q 44.046875 -1.421875 31.78125 -1.421875 
Q 19.53125 -1.421875 13.0625 8.265625 
Q 6.59375 17.96875 6.59375 36.375 
Q 6.59375 54.828125 13.0625 64.515625 
Q 19.53125 74.21875 31.78125 74.21875 
" id="DejaVuSans-30"/>
      </defs>
      <g style="fill:#565656;" transform="translate(194.473125 359.517187)scale(0.12 -0.12)">
       <use xlink:href="#DejaVuSans-30"/>
      </g>
     </g>
    </g>
    <g id="xtick_4">
     <g id="line2d_4"/>
     <g id="text_4">
      <!-- 2 -->
      <g style="fill:#565656;" transform="translate(261.433125 359.517187)scale(0.12 -0.12)">
       <use xlink:href="#DejaVuSans-32"/>
      </g>
     </g>
    </g>
    <g id="xtick_5">
     <g id="line2d_5"/>
     <g id="text_5">
      <!-- 4 -->
      <g style="fill:#565656;" transform="translate(328.393125 359.517187)scale(0.12 -0.12)">
       <use xlink:href="#DejaVuSans-34"/>
      </g>
     </g>
    </g>
   </g>
   <g id="matplotlib.axis_2">
    <g id="ytick_1">
     <g id="line2d_6"/>
     <g id="text_6">
      <!-- −1 -->
      <defs>
       <path d="M 12.40625 8.296875 
L 28.515625 8.296875 
L 28.515625 63.921875 
L 10.984375 60.40625 
L 10.984375 69.390625 
L 28.421875 72.90625 
L 38.28125 72.90625 
L 38.28125 8.296875 
L 54.390625 8.296875 
L 54.390625 0 
L 12.40625 0 
z
" id="DejaVuSans-31"/>
      </defs>
      <g style="fill:#565656;" transform="translate(7.2 348.958125)scale(0.12 -0.12)">
       <use xlink:href="#DejaVuSans-2212"/>
       <use x="83.789062" xlink:href="#DejaVuSans-31"/>
      </g>
     </g>
    </g>
    <g id="ytick_2">
     <g id="line2d_7"/>
     <g id="text_7">
      <!-- 0 -->
      <g style="fill:#565656;" transform="translate(17.255625 282.430125)scale(0.12 -0.12)">
       <use xlink:href="#DejaVuSans-30"/>
      </g>
     </g>
    </g>
    <g id="ytick_3">
     <g id="line2d_8"/>
     <g id="text_8">
      <!-- 1 -->
      <g style="fill:#565656;" transform="translate(17.255625 215.902125)scale(0.12 -0.12)">
       <use xlink:href="#DejaVuSans-31"/>
      </g>
     </g>
    </g>
    <g id="ytick_4">
     <g id="line2d_9"/>
     <g id="text_9">
      <!-- 2 -->
      <g style="fill:#565656;" transform="translate(17.255625 149.374125)scale(0.12 -0.12)">
       <use xlink:href="#DejaVuSans-32"/>
      </g>
     </g>
    </g>
    <g id="ytick_5">
     <g id="line2d_10"/>
     <g id="text_10">
      <!-- 3 -->
      <defs>
       <path d="M 40.578125 39.3125 
Q 47.65625 37.796875 51.625 33 
Q 55.609375 28.21875 55.609375 21.1875 
Q 55.609375 10.40625 48.1875 4.484375 
Q 40.765625 -1.421875 27.09375 -1.421875 
Q 22.515625 -1.421875 17.65625 -0.515625 
Q 12.796875 0.390625 7.625 2.203125 
L 7.625 11.71875 
Q 11.71875 9.328125 16.59375 8.109375 
Q 21.484375 6.890625 26.8125 6.890625 
Q 36.078125 6.890625 40.9375 10.546875 
Q 45.796875 14.203125 45.796875 21.1875 
Q 45.796875 27.640625 41.28125 31.265625 
Q 36.765625 34.90625 28.71875 34.90625 
L 20.21875 34.90625 
L 20.21875 43.015625 
L 29.109375 43.015625 
Q 36.375 43.015625 40.234375 45.921875 
Q 44.09375 48.828125 44.09375 54.296875 
Q 44.09375 59.90625 40.109375 62.90625 
Q 36.140625 65.921875 28.71875 65.921875 
Q 24.65625 65.921875 20.015625 65.03125 
Q 15.375 64.15625 9.8125 62.3125 
L 9.8125 71.09375 
Q 15.4375 72.65625 20.34375 73.4375 
Q 25.25 74.21875 29.59375 74.21875 
Q 40.828125 74.21875 47.359375 69.109375 
Q 53.90625 64.015625 53.90625 55.328125 
Q 53.90625 49.265625 50.4375 45.09375 
Q 46.96875 40.921875 40.578125 39.3125 
" id="DejaVuSans-33"/>
      </defs>
      <g style="fill:#565656;" transform="translate(17.255625 82.846125)scale(0.12 -0.12)">
       <use xlink:href="#DejaVuSans-33"/>
      </g>
     </g>
    </g>
    <g id="ytick_6">
     <g id="line2d_11"/>
     <g id="text_11">
      <!-- 4 -->
      <g style="fill:#565656;" transform="translate(17.255625 16.318125)scale(0.12 -0.12)">
       <use xlink:href="#DejaVuSans-34"/>
      </g>
     </g>
    </g>
   </g>
   <g id="line2d_12">
    <path clip-path="url(#pe17bebf385)" d="M 30.890625 275.312293 
L 50.309025 274.631546 
L 66.044625 273.863955 
L 78.767025 273.030867 
L 89.480625 272.11729 
L 98.855025 271.096938 
L 106.890225 270.000628 
L 113.921025 268.820126 
L 120.282225 267.522791 
L 125.973825 266.128617 
L 130.995825 264.671324 
L 135.683025 263.076871 
L 140.035425 261.353037 
L 144.053025 259.515473 
L 147.735825 257.588754 
L 151.418625 255.395387 
L 154.766625 253.139464 
L 158.114625 250.605489 
L 161.462625 247.767895 
L 164.810625 244.607063 
L 168.158625 241.115261 
L 171.506625 237.305209 
L 175.524225 232.378721 
L 186.237825 218.975878 
L 188.581425 216.50403 
L 190.590225 214.685575 
L 192.264225 213.430923 
L 193.938225 212.4487 
L 195.277425 211.877609 
L 196.616625 211.508968 
L 197.955825 211.349715 
L 199.295025 211.402884 
L 200.634225 211.66746 
L 201.973425 212.138427 
L 203.647425 213.003668 
L 205.321425 214.153028 
L 206.995425 215.555589 
L 209.004225 217.522732 
L 211.347825 220.126075 
L 214.695825 224.223776 
L 225.744225 238.091106 
L 229.427025 242.1973 
L 232.775025 245.59002 
L 236.123025 248.652388 
L 239.471025 251.396471 
L 242.819025 253.844193 
L 246.167025 256.022069 
L 249.849825 258.139184 
L 253.532625 259.999202 
L 257.550225 261.773891 
L 261.902625 263.439826 
L 266.589825 264.982036 
L 271.611825 266.393 
L 276.968625 267.671292 
L 282.995025 268.881886 
L 289.691025 270.000628 
L 297.391425 271.055786 
L 306.096225 272.019052 
L 316.140225 272.902727 
L 327.858225 273.707051 
L 341.919825 274.442509 
L 358.994625 275.103675 
L 365.355825 275.302424 
L 365.355825 275.302424 
" style="fill:none;stroke:#404040;stroke-linecap:square;stroke-width:2;"/>
   </g>
   <g id="line2d_13">
    <path clip-path="url(#pe17bebf385)" d="M 30.890625 272.753524 
L 44.952225 271.816568 
L 57.005025 270.796777 
L 67.383825 269.702154 
L 76.423425 268.533537 
L 84.458625 267.277432 
L 91.489425 265.965657 
L 97.850625 264.565463 
L 103.877025 263.008456 
L 109.233825 261.394764 
L 114.255825 259.644463 
L 118.943025 257.762552 
L 123.295425 255.759922 
L 127.313025 253.654406 
L 130.995825 251.471586 
L 134.343825 249.245172 
L 137.691825 246.754858 
L 140.705025 244.257481 
L 143.718225 241.486146 
L 146.731425 238.407306 
L 149.744625 234.984358 
L 152.423025 231.62128 
L 155.101425 227.926991 
L 157.779825 223.873254 
L 160.458225 219.433713 
L 163.136625 214.586401 
L 165.815025 209.317299 
L 168.828225 202.884588 
L 172.176225 195.145372 
L 175.859025 186.038638 
L 185.568225 161.604023 
L 187.911825 156.480678 
L 189.920625 152.641886 
L 191.594625 149.932601 
L 192.933825 148.136273 
L 194.273025 146.70387 
L 195.277425 145.884156 
L 196.281825 145.292346 
L 197.286225 144.934705 
L 198.290625 144.815062 
L 199.295025 144.934705 
L 200.299425 145.292346 
L 201.303825 145.884156 
L 202.308225 146.70387 
L 203.647425 148.136273 
L 204.986625 149.932601 
L 206.660625 152.641886 
L 208.334625 155.801338 
L 210.343425 160.080694 
L 213.021825 166.396532 
L 217.039425 176.579954 
L 223.400625 192.715222 
L 226.748625 200.625199 
L 229.761825 207.231861 
L 232.775025 213.308978 
L 235.788225 218.850481 
L 238.466625 223.339915 
L 241.145025 227.440499 
L 243.823425 231.178193 
L 246.836625 234.984358 
L 249.849825 238.407306 
L 252.863025 241.486146 
L 255.876225 244.257481 
L 259.224225 247.016782 
L 262.572225 249.47912 
L 265.920225 251.680999 
L 269.603025 253.840287 
L 273.620625 255.923681 
L 277.638225 257.762552 
L 281.990625 259.518511 
L 286.677825 261.17562 
L 291.699825 262.723694 
L 297.391425 264.24051 
L 303.417825 265.618678 
L 310.113825 266.924996 
L 317.814225 268.190672 
L 326.184225 269.337674 
L 335.893425 270.434484 
L 346.941825 271.447457 
L 359.664225 272.380232 
L 365.355825 272.733785 
L 365.355825 272.733785 
" style="fill:none;stroke:#808080;stroke-linecap:square;stroke-width:2;"/>
   </g>
   <g id="line2d_14">
    <path clip-path="url(#pe17bebf385)" d="M 30.890625 270.194755 
L 42.608625 269.048695 
L 52.652625 267.853043 
L 61.692225 266.56088 
L 69.727425 265.195521 
L 77.093025 263.720585 
L 83.789025 262.151331 
L 89.815425 260.512309 
L 95.172225 258.838411 
L 100.194225 257.04831 
L 104.881425 255.15001 
L 109.233825 253.156614 
L 113.251425 251.087016 
L 117.269025 248.761909 
L 120.951825 246.37156 
L 124.299825 243.951857 
L 127.647825 241.26425 
L 130.995825 238.271848 
L 134.009025 235.283149 
L 137.022225 231.978078 
L 140.035425 228.316986 
L 142.713825 224.728023 
L 145.392225 220.788349 
L 148.070625 216.460601 
L 150.749025 211.704772 
L 153.427425 206.478875 
L 156.105825 200.74013 
L 158.784225 194.446886 
L 161.462625 187.56156 
L 164.141025 180.054948 
L 166.819425 171.91226 
L 169.832625 162.002267 
L 173.180625 150.137303 
L 177.198225 134.994693 
L 184.563825 107.008979 
L 186.907425 98.96823 
L 188.916225 92.796879 
L 190.590225 88.314599 
L 191.929425 85.241007 
L 193.268625 82.678886 
L 194.607825 80.673157 
L 195.612225 79.556277 
L 196.616625 78.784778 
L 197.621025 78.366864 
L 198.290625 78.287062 
L 198.960225 78.366864 
L 199.629825 78.605887 
L 200.634225 79.260255 
L 201.638625 80.263142 
L 202.643025 81.603976 
L 203.647425 83.268878 
L 204.986625 85.96337 
L 206.325825 89.156993 
L 207.999825 93.769965 
L 210.008625 100.067944 
L 212.352225 108.214483 
L 215.700225 120.767788 
L 224.070225 152.575061 
L 227.418225 164.270971 
L 230.431425 174.007615 
L 233.444625 182.944071 
L 236.123025 190.215039 
L 238.801425 196.87435 
L 241.479825 202.954956 
L 244.158225 208.496388 
L 246.836625 213.541006 
L 249.515025 218.131471 
L 252.193425 222.309135 
L 254.871825 226.113069 
L 257.885025 229.990821 
L 260.898225 233.488488 
L 263.911425 236.648326 
L 266.924625 239.507968 
L 270.272625 242.373686 
L 273.620625 244.94999 
L 277.303425 247.491131 
L 280.986225 249.764203 
L 285.003825 251.9783 
L 289.356225 254.106536 
L 293.708625 255.992849 
L 298.395825 257.792391 
L 303.417825 259.492485 
L 309.109425 261.177994 
L 315.135825 262.728234 
L 321.831825 264.215984 
L 329.197425 265.6177 
L 337.232625 266.918449 
L 346.272225 268.152514 
L 356.316225 269.297277 
L 365.355825 270.165146 
L 365.355825 270.165146 
" style="fill:none;stroke:#bfbfbf;stroke-linecap:square;stroke-width:2;"/>
   </g>
   <g id="patch_3">
    <path d="M 30.890625 344.399062 
L 30.890625 11.759062 
" style="fill:none;stroke:#aaaaaa;stroke-linecap:square;stroke-linejoin:miter;"/>
   </g>
   <g id="patch_4">
    <path d="M 365.690625 344.399062 
L 365.690625 11.759062 
" style="fill:none;stroke:#aaaaaa;stroke-linecap:square;stroke-linejoin:miter;"/>
   </g>
   <g id="patch_5">
    <path d="M 30.890625 344.399062 
L 365.690625 344.399062 
" style="fill:none;stroke:#aaaaaa;stroke-linecap:square;stroke-linejoin:miter;"/>
   </g>
   <g id="patch_6">
    <path d="M 30.890625 11.759062 
L 365.690625 11.759062 
" style="fill:none;stroke:#aaaaaa;stroke-linecap:square;stroke-linejoin:miter;"/>
   </g>
  </g>
 </g>
 <defs>
  <clipPath id="pe17bebf385">
   <rect height="332.64" width="334.8" x="30.890625" y="11.759062"/>
  </clipPath>
 </defs>
</svg>
