<?xml version="1.0" encoding="utf-8" standalone="no"?>
<!DOCTYPE svg PUBLIC "-//W3C//DTD SVG 1.1//EN"
  "http://www.w3.org/Graphics/SVG/1.1/DTD/svg11.dtd">
<!-- Created with matplotlib (http://matplotlib.org/) -->
<svg height="370pt" version="1.1" viewBox="0 0 373 370" width="373pt" xmlns="http://www.w3.org/2000/svg" xmlns:xlink="http://www.w3.org/1999/xlink">
 <defs>
  <style type="text/css">
*{stroke-linecap:butt;stroke-linejoin:round;}
  </style>
 </defs>
 <g id="figure_1">
  <g id="patch_1">
   <path d="M 0 370.9765 
L 373.1365 370.9765 
L 373.1365 -0 
L 0 -0 
z
" style="fill:none;"/>
  </g>
  <g id="axes_1">
   <g id="patch_2">
    <path d="M 31.1365 339.84 
L 365.9365 339.84 
L 365.9365 7.2 
L 31.1365 7.2 
z
" style="fill:#ffffff;"/>
   </g>
   <g id="matplotlib.axis_1">
    <g id="xtick_1">
     <g id="line2d_1"/>
    </g>
    <g id="xtick_2">
     <g id="line2d_2"/>
    </g>
    <g id="xtick_3">
     <g id="line2d_3"/>
    </g>
    <g id="xtick_4">
     <g id="line2d_4"/>
    </g>
    <g id="xtick_5">
     <g id="line2d_5"/>
    </g>
    <g id="xtick_6">
     <g id="line2d_6"/>
    </g>
    <g id="xtick_7">
     <g id="line2d_7"/>
    </g>
    <g id="xtick_8">
     <g id="line2d_8"/>
    </g>
    <g id="xtick_9">
     <g id="line2d_9"/>
    </g>
    <g id="xtick_10">
     <g id="line2d_10"/>
    </g>
    <g id="xtick_11">
     <g id="line2d_11"/>
    </g>
    <g id="xtick_12">
     <g id="line2d_12"/>
    </g>
    <g id="xtick_13">
     <g id="line2d_13"/>
    </g>
    <g id="xtick_14">
     <g id="line2d_14"/>
    </g>
    <g id="xtick_15">
     <g id="line2d_15"/>
    </g>
    <g id="xtick_16">
     <g id="line2d_16"/>
    </g>
    <g id="xtick_17">
     <g id="line2d_17"/>
    </g>
    <g id="xtick_18">
     <g id="line2d_18"/>
    </g>
    <g id="text_1">
     <!-- log Radius -->
     <defs>
      <path d="M 9.421875 75.984375 
L 18.40625 75.984375 
L 18.40625 0 
L 9.421875 0 
z
" id="DejaVuSans-6c"/>
      <path d="M 30.609375 48.390625 
Q 23.390625 48.390625 19.1875 42.75 
Q 14.984375 37.109375 14.984375 27.296875 
Q 14.984375 17.484375 19.15625 11.84375 
Q 23.34375 6.203125 30.609375 6.203125 
Q 37.796875 6.203125 41.984375 11.859375 
Q 46.1875 17.53125 46.1875 27.296875 
Q 46.1875 37.015625 41.984375 42.703125 
Q 37.796875 48.390625 30.609375 48.390625 
M 30.609375 56 
Q 42.328125 56 49.015625 48.375 
Q 55.71875 40.765625 55.71875 27.296875 
Q 55.71875 13.875 49.015625 6.21875 
Q 42.328125 -1.421875 30.609375 -1.421875 
Q 18.84375 -1.421875 12.171875 6.21875 
Q 5.515625 13.875 5.515625 27.296875 
Q 5.515625 40.765625 12.171875 48.375 
Q 18.84375 56 30.609375 56 
" id="DejaVuSans-6f"/>
      <path d="M 45.40625 27.984375 
Q 45.40625 37.75 41.375 43.109375 
Q 37.359375 48.484375 30.078125 48.484375 
Q 22.859375 48.484375 18.828125 43.109375 
Q 14.796875 37.75 14.796875 27.984375 
Q 14.796875 18.265625 18.828125 12.890625 
Q 22.859375 7.515625 30.078125 7.515625 
Q 37.359375 7.515625 41.375 12.890625 
Q 45.40625 18.265625 45.40625 27.984375 
M 54.390625 6.78125 
Q 54.390625 -7.171875 48.1875 -13.984375 
Q 42 -20.796875 29.203125 -20.796875 
Q 24.46875 -20.796875 20.265625 -20.09375 
Q 16.0625 -19.390625 12.109375 -17.921875 
L 12.109375 -9.1875 
Q 16.0625 -11.328125 19.921875 -12.34375 
Q 23.78125 -13.375 27.78125 -13.375 
Q 36.625 -13.375 41.015625 -8.765625 
Q 45.40625 -4.15625 45.40625 5.171875 
L 45.40625 9.625 
Q 42.625 4.78125 38.28125 2.390625 
Q 33.9375 0 27.875 0 
Q 17.828125 0 11.671875 7.65625 
Q 5.515625 15.328125 5.515625 27.984375 
Q 5.515625 40.671875 11.671875 48.328125 
Q 17.828125 56 27.875 56 
Q 33.9375 56 38.28125 53.609375 
Q 42.625 51.21875 45.40625 46.390625 
L 45.40625 54.6875 
L 54.390625 54.6875 
z
" id="DejaVuSans-67"/>
      <path id="DejaVuSans-20"/>
      <path d="M 44.390625 34.1875 
Q 47.5625 33.109375 50.5625 29.59375 
Q 53.5625 26.078125 56.59375 19.921875 
L 66.609375 0 
L 56 0 
L 46.6875 18.703125 
Q 43.0625 26.03125 39.671875 28.421875 
Q 36.28125 30.8125 30.421875 30.8125 
L 19.671875 30.8125 
L 19.671875 0 
L 9.8125 0 
L 9.8125 72.90625 
L 32.078125 72.90625 
Q 44.578125 72.90625 50.734375 67.671875 
Q 56.890625 62.453125 56.890625 51.90625 
Q 56.890625 45.015625 53.6875 40.46875 
Q 50.484375 35.9375 44.390625 34.1875 
M 19.671875 64.796875 
L 19.671875 38.921875 
L 32.078125 38.921875 
Q 39.203125 38.921875 42.84375 42.21875 
Q 46.484375 45.515625 46.484375 51.90625 
Q 46.484375 58.296875 42.84375 61.546875 
Q 39.203125 64.796875 32.078125 64.796875 
z
" id="DejaVuSans-52"/>
      <path d="M 34.28125 27.484375 
Q 23.390625 27.484375 19.1875 25 
Q 14.984375 22.515625 14.984375 16.5 
Q 14.984375 11.71875 18.140625 8.90625 
Q 21.296875 6.109375 26.703125 6.109375 
Q 34.1875 6.109375 38.703125 11.40625 
Q 43.21875 16.703125 43.21875 25.484375 
L 43.21875 27.484375 
z
M 52.203125 31.203125 
L 52.203125 0 
L 43.21875 0 
L 43.21875 8.296875 
Q 40.140625 3.328125 35.546875 0.953125 
Q 30.953125 -1.421875 24.3125 -1.421875 
Q 15.921875 -1.421875 10.953125 3.296875 
Q 6 8.015625 6 15.921875 
Q 6 25.140625 12.171875 29.828125 
Q 18.359375 34.515625 30.609375 34.515625 
L 43.21875 34.515625 
L 43.21875 35.40625 
Q 43.21875 41.609375 39.140625 45 
Q 35.0625 48.390625 27.6875 48.390625 
Q 23 48.390625 18.546875 47.265625 
Q 14.109375 46.140625 10.015625 43.890625 
L 10.015625 52.203125 
Q 14.9375 54.109375 19.578125 55.046875 
Q 24.21875 56 28.609375 56 
Q 40.484375 56 46.34375 49.84375 
Q 52.203125 43.703125 52.203125 31.203125 
" id="DejaVuSans-61"/>
      <path d="M 45.40625 46.390625 
L 45.40625 75.984375 
L 54.390625 75.984375 
L 54.390625 0 
L 45.40625 0 
L 45.40625 8.203125 
Q 42.578125 3.328125 38.25 0.953125 
Q 33.9375 -1.421875 27.875 -1.421875 
Q 17.96875 -1.421875 11.734375 6.484375 
Q 5.515625 14.40625 5.515625 27.296875 
Q 5.515625 40.1875 11.734375 48.09375 
Q 17.96875 56 27.875 56 
Q 33.9375 56 38.25 53.625 
Q 42.578125 51.265625 45.40625 46.390625 
M 14.796875 27.296875 
Q 14.796875 17.390625 18.875 11.75 
Q 22.953125 6.109375 30.078125 6.109375 
Q 37.203125 6.109375 41.296875 11.75 
Q 45.40625 17.390625 45.40625 27.296875 
Q 45.40625 37.203125 41.296875 42.84375 
Q 37.203125 48.484375 30.078125 48.484375 
Q 22.953125 48.484375 18.875 42.84375 
Q 14.796875 37.203125 14.796875 27.296875 
" id="DejaVuSans-64"/>
      <path d="M 9.421875 54.6875 
L 18.40625 54.6875 
L 18.40625 0 
L 9.421875 0 
z
M 9.421875 75.984375 
L 18.40625 75.984375 
L 18.40625 64.59375 
L 9.421875 64.59375 
z
" id="DejaVuSans-69"/>
      <path d="M 8.5 21.578125 
L 8.5 54.6875 
L 17.484375 54.6875 
L 17.484375 21.921875 
Q 17.484375 14.15625 20.5 10.265625 
Q 23.53125 6.390625 29.59375 6.390625 
Q 36.859375 6.390625 41.078125 11.03125 
Q 45.3125 15.671875 45.3125 23.6875 
L 45.3125 54.6875 
L 54.296875 54.6875 
L 54.296875 0 
L 45.3125 0 
L 45.3125 8.40625 
Q 42.046875 3.421875 37.71875 1 
Q 33.40625 -1.421875 27.6875 -1.421875 
Q 18.265625 -1.421875 13.375 4.4375 
Q 8.5 10.296875 8.5 21.578125 
M 31.109375 56 
z
" id="DejaVuSans-75"/>
      <path d="M 44.28125 53.078125 
L 44.28125 44.578125 
Q 40.484375 46.53125 36.375 47.5 
Q 32.28125 48.484375 27.875 48.484375 
Q 21.1875 48.484375 17.84375 46.4375 
Q 14.5 44.390625 14.5 40.28125 
Q 14.5 37.15625 16.890625 35.375 
Q 19.28125 33.59375 26.515625 31.984375 
L 29.59375 31.296875 
Q 39.15625 29.25 43.1875 25.515625 
Q 47.21875 21.78125 47.21875 15.09375 
Q 47.21875 7.46875 41.1875 3.015625 
Q 35.15625 -1.421875 24.609375 -1.421875 
Q 20.21875 -1.421875 15.453125 -0.5625 
Q 10.6875 0.296875 5.421875 2 
L 5.421875 11.28125 
Q 10.40625 8.6875 15.234375 7.390625 
Q 20.0625 6.109375 24.8125 6.109375 
Q 31.15625 6.109375 34.5625 8.28125 
Q 37.984375 10.453125 37.984375 14.40625 
Q 37.984375 18.0625 35.515625 20.015625 
Q 33.0625 21.96875 24.703125 23.78125 
L 21.578125 24.515625 
Q 13.234375 26.265625 9.515625 29.90625 
Q 5.8125 33.546875 5.8125 39.890625 
Q 5.8125 47.609375 11.28125 51.796875 
Q 16.75 56 26.8125 56 
Q 31.78125 56 36.171875 55.265625 
Q 40.578125 54.546875 44.28125 53.078125 
" id="DejaVuSans-73"/>
     </defs>
     <g transform="translate(160.973875 360.78175)scale(0.144 -0.144)">
      <use xlink:href="#DejaVuSans-6c"/>
      <use x="27.783203" xlink:href="#DejaVuSans-6f"/>
      <use x="88.964844" xlink:href="#DejaVuSans-67"/>
      <use x="152.441406" xlink:href="#DejaVuSans-20"/>
      <use x="184.228516" xlink:href="#DejaVuSans-52"/>
      <use x="253.679688" xlink:href="#DejaVuSans-61"/>
      <use x="314.958984" xlink:href="#DejaVuSans-64"/>
      <use x="378.435547" xlink:href="#DejaVuSans-69"/>
      <use x="406.21875" xlink:href="#DejaVuSans-75"/>
      <use x="469.597656" xlink:href="#DejaVuSans-73"/>
     </g>
    </g>
   </g>
   <g id="matplotlib.axis_2">
    <g id="ytick_1">
     <g id="line2d_19"/>
    </g>
    <g id="ytick_2">
     <g id="line2d_20"/>
    </g>
    <g id="ytick_3">
     <g id="line2d_21"/>
    </g>
    <g id="ytick_4">
     <g id="line2d_22"/>
    </g>
    <g id="ytick_5">
     <g id="line2d_23"/>
    </g>
    <g id="ytick_6">
     <g id="line2d_24"/>
    </g>
    <g id="ytick_7">
     <g id="line2d_25"/>
    </g>
    <g id="ytick_8">
     <g id="line2d_26"/>
    </g>
    <g id="ytick_9">
     <g id="line2d_27"/>
    </g>
    <g id="ytick_10">
     <g id="line2d_28"/>
    </g>
    <g id="ytick_11">
     <g id="line2d_29"/>
    </g>
    <g id="ytick_12">
     <g id="line2d_30"/>
    </g>
    <g id="ytick_13">
     <g id="line2d_31"/>
    </g>
    <g id="ytick_14">
     <g id="line2d_32"/>
    </g>
    <g id="ytick_15">
     <g id="line2d_33"/>
    </g>
    <g id="ytick_16">
     <g id="line2d_34"/>
    </g>
    <g id="ytick_17">
     <g id="line2d_35"/>
    </g>
    <g id="ytick_18">
     <g id="line2d_36"/>
    </g>
    <g id="ytick_19">
     <g id="line2d_37"/>
    </g>
    <g id="ytick_20">
     <g id="line2d_38"/>
    </g>
    <g id="ytick_21">
     <g id="line2d_39"/>
    </g>
    <g id="ytick_22">
     <g id="line2d_40"/>
    </g>
    <g id="ytick_23">
     <g id="line2d_41"/>
    </g>
    <g id="ytick_24">
     <g id="line2d_42"/>
    </g>
    <g id="ytick_25">
     <g id="line2d_43"/>
    </g>
    <g id="ytick_26">
     <g id="line2d_44"/>
    </g>
    <g id="ytick_27">
     <g id="line2d_45"/>
    </g>
    <g id="ytick_28">
     <g id="line2d_46"/>
    </g>
    <g id="ytick_29">
     <g id="line2d_47"/>
    </g>
    <g id="ytick_30">
     <g id="line2d_48"/>
    </g>
    <g id="ytick_31">
     <g id="line2d_49"/>
    </g>
    <g id="ytick_32">
     <g id="line2d_50"/>
    </g>
    <g id="ytick_33">
     <g id="line2d_51"/>
    </g>
    <g id="ytick_34">
     <g id="line2d_52"/>
    </g>
    <g id="ytick_35">
     <g id="line2d_53"/>
    </g>
    <g id="ytick_36">
     <g id="line2d_54"/>
    </g>
    <g id="ytick_37">
     <g id="line2d_55"/>
    </g>
    <g id="ytick_38">
     <g id="line2d_56"/>
    </g>
    <g id="ytick_39">
     <g id="line2d_57"/>
    </g>
    <g id="ytick_40">
     <g id="line2d_58"/>
    </g>
    <g id="text_2">
     <!-- log Surface Brightness -->
     <defs>
      <path d="M 53.515625 70.515625 
L 53.515625 60.890625 
Q 47.90625 63.578125 42.921875 64.890625 
Q 37.9375 66.21875 33.296875 66.21875 
Q 25.25 66.21875 20.875 63.09375 
Q 16.5 59.96875 16.5 54.203125 
Q 16.5 49.359375 19.40625 46.890625 
Q 22.3125 44.4375 30.421875 42.921875 
L 36.375 41.703125 
Q 47.40625 39.59375 52.65625 34.296875 
Q 57.90625 29 57.90625 20.125 
Q 57.90625 9.515625 50.796875 4.046875 
Q 43.703125 -1.421875 29.984375 -1.421875 
Q 24.8125 -1.421875 18.96875 -0.25 
Q 13.140625 0.921875 6.890625 3.21875 
L 6.890625 13.375 
Q 12.890625 10.015625 18.65625 8.296875 
Q 24.421875 6.59375 29.984375 6.59375 
Q 38.421875 6.59375 43.015625 9.90625 
Q 47.609375 13.234375 47.609375 19.390625 
Q 47.609375 24.75 44.3125 27.78125 
Q 41.015625 30.8125 33.5 32.328125 
L 27.484375 33.5 
Q 16.453125 35.6875 11.515625 40.375 
Q 6.59375 45.0625 6.59375 53.421875 
Q 6.59375 63.09375 13.40625 68.65625 
Q 20.21875 74.21875 32.171875 74.21875 
Q 37.3125 74.21875 42.625 73.28125 
Q 47.953125 72.359375 53.515625 70.515625 
" id="DejaVuSans-53"/>
      <path d="M 41.109375 46.296875 
Q 39.59375 47.171875 37.8125 47.578125 
Q 36.03125 48 33.890625 48 
Q 26.265625 48 22.1875 43.046875 
Q 18.109375 38.09375 18.109375 28.8125 
L 18.109375 0 
L 9.078125 0 
L 9.078125 54.6875 
L 18.109375 54.6875 
L 18.109375 46.1875 
Q 20.953125 51.171875 25.484375 53.578125 
Q 30.03125 56 36.53125 56 
Q 37.453125 56 38.578125 55.875 
Q 39.703125 55.765625 41.0625 55.515625 
z
" id="DejaVuSans-72"/>
      <path d="M 37.109375 75.984375 
L 37.109375 68.5 
L 28.515625 68.5 
Q 23.6875 68.5 21.796875 66.546875 
Q 19.921875 64.59375 19.921875 59.515625 
L 19.921875 54.6875 
L 34.71875 54.6875 
L 34.71875 47.703125 
L 19.921875 47.703125 
L 19.921875 0 
L 10.890625 0 
L 10.890625 47.703125 
L 2.296875 47.703125 
L 2.296875 54.6875 
L 10.890625 54.6875 
L 10.890625 58.5 
Q 10.890625 67.625 15.140625 71.796875 
Q 19.390625 75.984375 28.609375 75.984375 
z
" id="DejaVuSans-66"/>
      <path d="M 48.78125 52.59375 
L 48.78125 44.1875 
Q 44.96875 46.296875 41.140625 47.34375 
Q 37.3125 48.390625 33.40625 48.390625 
Q 24.65625 48.390625 19.8125 42.84375 
Q 14.984375 37.3125 14.984375 27.296875 
Q 14.984375 17.28125 19.8125 11.734375 
Q 24.65625 6.203125 33.40625 6.203125 
Q 37.3125 6.203125 41.140625 7.25 
Q 44.96875 8.296875 48.78125 10.40625 
L 48.78125 2.09375 
Q 45.015625 0.34375 40.984375 -0.53125 
Q 36.96875 -1.421875 32.421875 -1.421875 
Q 20.0625 -1.421875 12.78125 6.34375 
Q 5.515625 14.109375 5.515625 27.296875 
Q 5.515625 40.671875 12.859375 48.328125 
Q 20.21875 56 33.015625 56 
Q 37.15625 56 41.109375 55.140625 
Q 45.0625 54.296875 48.78125 52.59375 
" id="DejaVuSans-63"/>
      <path d="M 56.203125 29.59375 
L 56.203125 25.203125 
L 14.890625 25.203125 
Q 15.484375 15.921875 20.484375 11.0625 
Q 25.484375 6.203125 34.421875 6.203125 
Q 39.59375 6.203125 44.453125 7.46875 
Q 49.3125 8.734375 54.109375 11.28125 
L 54.109375 2.78125 
Q 49.265625 0.734375 44.1875 -0.34375 
Q 39.109375 -1.421875 33.890625 -1.421875 
Q 20.796875 -1.421875 13.15625 6.1875 
Q 5.515625 13.8125 5.515625 26.8125 
Q 5.515625 40.234375 12.765625 48.109375 
Q 20.015625 56 32.328125 56 
Q 43.359375 56 49.78125 48.890625 
Q 56.203125 41.796875 56.203125 29.59375 
M 47.21875 32.234375 
Q 47.125 39.59375 43.09375 43.984375 
Q 39.0625 48.390625 32.421875 48.390625 
Q 24.90625 48.390625 20.390625 44.140625 
Q 15.875 39.890625 15.1875 32.171875 
z
" id="DejaVuSans-65"/>
      <path d="M 19.671875 34.8125 
L 19.671875 8.109375 
L 35.5 8.109375 
Q 43.453125 8.109375 47.28125 11.40625 
Q 51.125 14.703125 51.125 21.484375 
Q 51.125 28.328125 47.28125 31.5625 
Q 43.453125 34.8125 35.5 34.8125 
z
M 19.671875 64.796875 
L 19.671875 42.828125 
L 34.28125 42.828125 
Q 41.5 42.828125 45.03125 45.53125 
Q 48.578125 48.25 48.578125 53.8125 
Q 48.578125 59.328125 45.03125 62.0625 
Q 41.5 64.796875 34.28125 64.796875 
z
M 9.8125 72.90625 
L 35.015625 72.90625 
Q 46.296875 72.90625 52.390625 68.21875 
Q 58.5 63.53125 58.5 54.890625 
Q 58.5 48.1875 55.375 44.234375 
Q 52.25 40.28125 46.1875 39.3125 
Q 53.46875 37.75 57.5 32.78125 
Q 61.53125 27.828125 61.53125 20.40625 
Q 61.53125 10.640625 54.890625 5.3125 
Q 48.25 0 35.984375 0 
L 9.8125 0 
z
" id="DejaVuSans-42"/>
      <path d="M 54.890625 33.015625 
L 54.890625 0 
L 45.90625 0 
L 45.90625 32.71875 
Q 45.90625 40.484375 42.875 44.328125 
Q 39.84375 48.1875 33.796875 48.1875 
Q 26.515625 48.1875 22.3125 43.546875 
Q 18.109375 38.921875 18.109375 30.90625 
L 18.109375 0 
L 9.078125 0 
L 9.078125 75.984375 
L 18.109375 75.984375 
L 18.109375 46.1875 
Q 21.34375 51.125 25.703125 53.5625 
Q 30.078125 56 35.796875 56 
Q 45.21875 56 50.046875 50.171875 
Q 54.890625 44.34375 54.890625 33.015625 
" id="DejaVuSans-68"/>
      <path d="M 18.3125 70.21875 
L 18.3125 54.6875 
L 36.8125 54.6875 
L 36.8125 47.703125 
L 18.3125 47.703125 
L 18.3125 18.015625 
Q 18.3125 11.328125 20.140625 9.421875 
Q 21.96875 7.515625 27.59375 7.515625 
L 36.8125 7.515625 
L 36.8125 0 
L 27.59375 0 
Q 17.1875 0 13.234375 3.875 
Q 9.28125 7.765625 9.28125 18.015625 
L 9.28125 47.703125 
L 2.6875 47.703125 
L 2.6875 54.6875 
L 9.28125 54.6875 
L 9.28125 70.21875 
z
" id="DejaVuSans-74"/>
      <path d="M 54.890625 33.015625 
L 54.890625 0 
L 45.90625 0 
L 45.90625 32.71875 
Q 45.90625 40.484375 42.875 44.328125 
Q 39.84375 48.1875 33.796875 48.1875 
Q 26.515625 48.1875 22.3125 43.546875 
Q 18.109375 38.921875 18.109375 30.90625 
L 18.109375 0 
L 9.078125 0 
L 9.078125 54.6875 
L 18.109375 54.6875 
L 18.109375 46.1875 
Q 21.34375 51.125 25.703125 53.5625 
Q 30.078125 56 35.796875 56 
Q 45.21875 56 50.046875 50.171875 
Q 54.890625 44.34375 54.890625 33.015625 
" id="DejaVuSans-6e"/>
     </defs>
     <g transform="translate(18.14175 254.854125)rotate(-90)scale(0.144 -0.144)">
      <use xlink:href="#DejaVuSans-6c"/>
      <use x="27.783203" xlink:href="#DejaVuSans-6f"/>
      <use x="88.964844" xlink:href="#DejaVuSans-67"/>
      <use x="152.441406" xlink:href="#DejaVuSans-20"/>
      <use x="184.228516" xlink:href="#DejaVuSans-53"/>
      <use x="247.705078" xlink:href="#DejaVuSans-75"/>
      <use x="311.083984" xlink:href="#DejaVuSans-72"/>
      <use x="352.197266" xlink:href="#DejaVuSans-66"/>
      <use x="387.402344" xlink:href="#DejaVuSans-61"/>
      <use x="448.681641" xlink:href="#DejaVuSans-63"/>
      <use x="503.662109" xlink:href="#DejaVuSans-65"/>
      <use x="565.185547" xlink:href="#DejaVuSans-20"/>
      <use x="596.972656" xlink:href="#DejaVuSans-42"/>
      <use x="665.576172" xlink:href="#DejaVuSans-72"/>
      <use x="706.689453" xlink:href="#DejaVuSans-69"/>
      <use x="734.472656" xlink:href="#DejaVuSans-67"/>
      <use x="797.949219" xlink:href="#DejaVuSans-68"/>
      <use x="861.328125" xlink:href="#DejaVuSans-74"/>
      <use x="900.537109" xlink:href="#DejaVuSans-6e"/>
      <use x="963.916016" xlink:href="#DejaVuSans-65"/>
      <use x="1025.439453" xlink:href="#DejaVuSans-73"/>
      <use x="1077.539062" xlink:href="#DejaVuSans-73"/>
     </g>
    </g>
   </g>
   <g id="line2d_59">
    <path clip-path="url(#pe166e21170)" d="M -1 158.854353 
L 24.95206 159.164808 
L 50.886711 159.649729 
L 74.686657 160.328617 
L 93.632774 161.10449 
L 109.498247 161.977347 
L 123.210946 162.947188 
L 135.322459 164.014013 
L 146.189929 165.177822 
L 156.75387 166.5356 
L 166.293388 167.990361 
L 175.005329 169.542107 
L 183.03279 171.190836 
L 190.483355 172.93655 
L 197.784417 174.876232 
L 204.5835 176.912898 
L 210.951085 179.046548 
L 217.190358 181.374166 
L 223.0533 183.798769 
L 228.789662 186.41734 
L 234.199874 189.132894 
L 239.491553 192.042417 
L 244.500463 195.048924 
L 249.400982 198.249399 
L 254.186929 201.643843 
L 258.854956 205.232254 
L 263.40384 209.014634 
L 267.833934 212.990982 
L 272.146734 217.161298 
L 276.434518 221.622567 
L 280.598003 226.277804 
L 284.720265 231.223993 
L 288.790812 236.461134 
L 292.801694 241.989227 
L 296.747046 247.808273 
L 300.6822 254.015255 
L 304.537342 260.51319 
L 308.363892 267.399061 
L 312.152167 274.672868 
L 315.940442 282.431596 
L 319.714385 290.675244 
L 323.462331 299.403813 
L 327.174916 308.617302 
L 330.880293 318.412696 
L 334.566264 328.789995 
L 338.254287 339.846182 
L 341.93075 351.581258 
L 345.584497 363.995222 
L 347.818899 371.9765 
L 347.818899 371.9765 
" style="fill:none;stroke:#111111;stroke-linecap:square;stroke-width:1.7;"/>
   </g>
   <g id="line2d_60">
    <path clip-path="url(#pe166e21170)" d="M -1 112.106679 
L 10.200433 113.241529 
L 24.95206 114.922351 
L 41.838391 117.124399 
L 54.936447 119.064442 
L 68.811969 121.369991 
L 80.026509 123.443129 
L 91.572988 125.794966 
L 102.969536 128.35452 
L 113.958459 131.069336 
L 124.421254 133.901364 
L 134.319052 136.823056 
L 143.655814 139.814329 
L 152.456984 142.860381 
L 161.399063 146.198166 
L 169.71365 149.538316 
L 177.965514 153.095604 
L 186.043599 156.828769 
L 193.88161 160.705001 
L 201.443827 164.698313 
L 208.714705 168.788112 
L 215.944071 173.113607 
L 222.829689 177.488633 
L 229.593756 182.043663 
L 236.374119 186.880815 
L 242.930907 191.831825 
L 249.400982 196.996064 
L 255.741931 202.341039 
L 262.041352 207.944706 
L 268.248762 213.768613 
L 274.329769 219.780453 
L 280.346261 226.043 
L 286.26098 232.52053 
L 292.117562 239.264132 
L 297.943077 246.314147 
L 303.695982 253.628205 
L 309.398243 261.240335 
L 315.062614 269.176946 
L 320.652888 277.394323 
L 326.220458 285.97663 
L 331.727421 294.875488 
L 337.210319 304.160019 
L 342.662471 313.832633 
L 348.07689 323.893308 
L 353.470918 334.388264 
L 358.831805 345.307619 
L 364.168776 356.685009 
L 369.485829 368.546119 
L 370.979738 371.9765 
L 370.979738 371.9765 
" style="fill:none;stroke:#222222;stroke-linecap:square;stroke-width:1.7;"/>
   </g>
   <g id="line2d_61">
    <path clip-path="url(#pe166e21170)" d="M -1 80.01966 
L 10.200433 82.442008 
L 24.95206 85.89218 
L 36.731007 88.862321 
L 50.886711 92.704866 
L 62.283259 96.030918 
L 74.686657 99.90402 
L 87.223006 104.105917 
L 97.547417 107.798246 
L 107.932877 111.73737 
L 118.103561 115.826868 
L 127.909284 119.99968 
L 138.233695 124.651724 
L 147.820531 129.222589 
L 157.440403 134.06629 
L 166.877451 139.082109 
L 176.008736 144.198121 
L 184.772114 149.363877 
L 193.513597 154.779309 
L 202.085341 160.357135 
L 210.399927 166.033327 
L 218.651791 171.938009 
L 226.729876 177.992647 
L 234.751032 184.285807 
L 242.611896 190.737673 
L 250.389899 197.411381 
L 257.999821 204.23246 
L 265.606646 211.351816 
L 273.105871 218.678045 
L 280.514209 226.228395 
L 287.836353 234.009631 
L 295.06985 242.021001 
L 302.266347 250.324738 
L 309.398243 258.895623 
L 316.442722 267.70916 
L 323.462331 276.849387 
L 330.416275 286.270583 
L 337.337854 296.024747 
L 344.21253 306.099849 
L 351.025334 316.479938 
L 357.807072 327.219335 
L 364.550651 338.316384 
L 371.26359 349.793249 
L 374.1365 354.840232 
L 374.1365 354.840232 
" style="fill:none;stroke:#333333;stroke-linecap:square;stroke-width:1.7;"/>
   </g>
   <g id="line2d_62">
    <path clip-path="url(#pe166e21170)" d="M -1 57.880535 
L 1.152113 58.537677 
L 18.038444 64.006586 
L 31.1365 68.527915 
L 46.536729 74.176824 
L 58.724722 78.917666 
L 71.822777 84.294462 
L 82.524668 88.915824 
L 93.632774 93.940676 
L 104.671044 99.175064 
L 115.372935 104.490384 
L 125.607111 109.805116 
L 136.309001 115.61617 
L 147.010892 121.698223 
L 157.440403 127.898273 
L 167.45576 134.117027 
L 177.482401 140.614258 
L 187.288123 147.242418 
L 196.745489 153.902765 
L 206.092527 160.754353 
L 215.438052 167.883028 
L 224.595172 175.148688 
L 233.643492 182.611813 
L 242.611896 190.298343 
L 251.500058 198.211345 
L 260.292527 206.339493 
L 268.96773 214.66316 
L 277.591602 223.248078 
L 286.108716 232.041917 
L 294.543997 241.071416 
L 302.89968 250.341309 
L 311.215347 259.900215 
L 319.455803 269.712583 
L 327.627601 279.789293 
L 335.756127 290.166681 
L 343.814577 300.815415 
L 351.827025 311.771984 
L 359.795524 323.045664 
L 367.7285 334.655648 
L 374.1365 344.324481 
L 374.1365 344.324481 
" style="fill:none;stroke:#444444;stroke-linecap:square;stroke-width:1.7;"/>
   </g>
   <g id="line2d_63">
    <path clip-path="url(#pe166e21170)" d="M -1 41.941419 
L 1.152113 42.771982 
L 18.038444 49.603077 
L 31.1365 55.179079 
L 46.536729 62.061517 
L 58.724722 67.770264 
L 71.822777 74.175408 
L 84.920833 80.87288 
L 97.547417 87.618479 
L 109.498247 94.276016 
L 120.712786 100.774814 
L 132.259265 107.730552 
L 143.655814 114.869617 
L 154.644737 122.020897 
L 165.703454 129.493061 
L 176.50408 137.067713 
L 186.876207 144.608991 
L 197.440147 152.568644 
L 207.853596 160.700372 
L 218.168678 169.044813 
L 228.17928 177.428248 
L 238.126424 186.046641 
L 247.958701 194.857452 
L 257.75319 203.932835 
L 267.416153 213.188105 
L 277.060396 222.734335 
L 286.639922 232.532186 
L 296.107629 242.535038 
L 305.476528 252.756289 
L 314.782655 263.237259 
L 324.024422 273.979887 
L 333.215275 285.004138 
L 342.341637 296.298021 
L 351.427548 307.896172 
L 360.46513 319.794382 
L 369.448982 331.990608 
L 374.1365 338.504023 
L 374.1365 338.504023 
" style="fill:none;stroke:#555555;stroke-linecap:square;stroke-width:1.7;"/>
   </g>
   <g id="line2d_64">
    <path clip-path="url(#pe166e21170)" d="M -1 29.992443 
L 10.200433 35.161385 
L 24.95206 42.24106 
L 36.731007 48.1109 
L 50.886711 55.429883 
L 65.638337 63.37655 
L 77.417284 69.965222 
L 89.438284 76.920383 
L 101.217231 83.969691 
L 113.958459 91.865073 
L 125.607111 99.33767 
L 137.279237 107.077382 
L 149.407057 115.39566 
L 161.399063 123.907306 
L 172.945543 132.381196 
L 184.342091 141.021957 
L 195.687841 149.906475 
L 206.979665 159.037556 
L 218.168678 168.378923 
L 229.193086 177.877739 
L 239.995401 187.47811 
L 250.808673 197.387702 
L 261.464181 207.454915 
L 272.049953 217.762434 
L 282.573996 228.3216 
L 293.005389 239.103852 
L 303.356032 250.122994 
L 313.649274 261.406935 
L 323.864373 272.936045 
L 333.995889 284.705934 
L 344.070713 296.750576 
L 354.09665 309.083744 
L 364.067869 321.702816 
L 373.986906 334.615371 
L 374.1365 334.812909 
L 374.1365 334.812909 
" style="fill:none;stroke:#666666;stroke-linecap:square;stroke-width:1.7;"/>
   </g>
   <g id="line2d_65">
    <path clip-path="url(#pe166e21170)" d="M -1 20.729026 
L 10.200433 26.488915 
L 24.95206 34.333994 
L 41.838391 43.666969 
L 54.936447 51.174996 
L 68.811969 59.394124 
L 82.524668 67.794116 
L 95.622724 76.08365 
L 109.498247 85.158304 
L 121.975155 93.584094 
L 134.319052 102.175674 
L 147.010892 111.282715 
L 159.453099 120.487899 
L 171.887895 129.970355 
L 183.908895 139.414144 
L 196.042512 149.230756 
L 208.142038 159.312751 
L 220.077721 169.553396 
L 231.749847 179.859765 
L 243.406196 190.448572 
L 254.969579 201.253962 
L 266.465132 212.301654 
L 277.855413 223.557309 
L 289.153818 235.034719 
L 300.384089 246.759991 
L 311.562233 258.753459 
L 322.649891 270.976573 
L 333.657766 283.442442 
L 344.607804 296.178616 
L 355.515685 309.207743 
L 366.345954 322.490929 
L 374.1365 332.26478 
L 374.1365 332.26478 
" style="fill:none;stroke:#777777;stroke-linecap:square;stroke-width:1.7;"/>
   </g>
   <g id="line2d_66">
    <path clip-path="url(#pe166e21170)" d="M -1 13.348672 
L 10.200433 19.595676 
L 24.95206 28.068598 
L 41.838391 38.100062 
L 54.936447 46.133327 
L 68.811969 54.891422 
L 82.524668 63.804759 
L 95.622724 72.565096 
L 109.498247 82.115866 
L 123.210946 91.835929 
L 136.309001 101.389145 
L 149.407057 111.212579 
L 162.661432 121.436139 
L 175.509177 131.625319 
L 188.506809 142.220989 
L 201.443827 153.062532 
L 214.153583 164.008479 
L 226.729876 175.135053 
L 239.153236 186.422819 
L 251.500058 197.940853 
L 263.739577 209.661638 
L 275.98334 221.696161 
L 288.131689 233.951085 
L 300.144506 246.385079 
L 312.103232 259.08309 
L 323.984451 272.023136 
L 335.821528 285.244832 
L 347.570756 298.702157 
L 359.271822 312.44317 
L 370.905128 326.448289 
L 374.1365 330.400445 
L 374.1365 330.400445 
" style="fill:none;stroke:#888888;stroke-linecap:square;stroke-width:1.7;"/>
   </g>
   <g id="line2d_67">
    <path clip-path="url(#pe166e21170)" d="M -1 7.335564 
L 10.200433 13.989724 
L 24.95206 22.985481 
L 41.838391 33.596135 
L 58.724722 44.551433 
L 74.686657 55.233975 
L 89.438284 65.397661 
L 104.671044 76.194976 
L 119.422671 86.952221 
L 133.298193 97.348453 
L 147.010892 107.894488 
L 160.75755 118.745007 
L 174.497119 129.875761 
L 188.103385 141.18753 
L 201.443827 152.564789 
L 214.927632 164.36001 
L 228.17928 176.249209 
L 241.318226 188.335437 
L 254.448974 200.718204 
L 267.416153 213.252528 
L 280.346261 226.06115 
L 293.208379 239.117279 
L 305.967727 252.387 
L 318.629365 265.875767 
L 331.23475 279.629616 
L 343.786048 293.654433 
L 356.258706 307.925401 
L 368.669795 322.464334 
L 374.1365 328.97745 
L 374.1365 328.97745 
" style="fill:none;stroke:#999999;stroke-linecap:square;stroke-width:1.7;"/>
   </g>
   <g id="patch_3">
    <path d="M 31.1365 339.84 
L 31.1365 7.2 
" style="fill:none;stroke:#aaaaaa;stroke-linecap:square;stroke-linejoin:miter;"/>
   </g>
   <g id="patch_4">
    <path d="M 365.9365 339.84 
L 365.9365 7.2 
" style="fill:none;stroke:#aaaaaa;stroke-linecap:square;stroke-linejoin:miter;"/>
   </g>
   <g id="patch_5">
    <path d="M 31.1365 339.84 
L 365.9365 339.84 
" style="fill:none;stroke:#aaaaaa;stroke-linecap:square;stroke-linejoin:miter;"/>
   </g>
   <g id="patch_6">
    <path d="M 31.1365 7.2 
L 365.9365 7.2 
" style="fill:none;stroke:#aaaaaa;stroke-linecap:square;stroke-linejoin:miter;"/>
   </g>
   <g id="text_3">
    <!-- n=1 -->
    <defs>
     <path d="M 10.59375 45.40625 
L 73.1875 45.40625 
L 73.1875 37.203125 
L 10.59375 37.203125 
z
M 10.59375 25.484375 
L 73.1875 25.484375 
L 73.1875 17.1875 
L 10.59375 17.1875 
z
" id="DejaVuSans-3d"/>
     <path d="M 12.40625 8.296875 
L 28.515625 8.296875 
L 28.515625 63.921875 
L 10.984375 60.40625 
L 10.984375 69.390625 
L 28.421875 72.90625 
L 38.28125 72.90625 
L 38.28125 8.296875 
L 54.390625 8.296875 
L 54.390625 0 
L 12.40625 0 
z
" id="DejaVuSans-31"/>
    </defs>
    <g transform="translate(84.920833 195.069001)scale(0.12 -0.12)">
     <use xlink:href="#DejaVuSans-6e"/>
     <use x="63.378906" xlink:href="#DejaVuSans-3d"/>
     <use x="147.167969" xlink:href="#DejaVuSans-31"/>
    </g>
   </g>
   <g id="text_4">
    <!-- n=10 -->
    <defs>
     <path d="M 31.78125 66.40625 
Q 24.171875 66.40625 20.328125 58.90625 
Q 16.5 51.421875 16.5 36.375 
Q 16.5 21.390625 20.328125 13.890625 
Q 24.171875 6.390625 31.78125 6.390625 
Q 39.453125 6.390625 43.28125 13.890625 
Q 47.125 21.390625 47.125 36.375 
Q 47.125 51.421875 43.28125 58.90625 
Q 39.453125 66.40625 31.78125 66.40625 
M 31.78125 74.21875 
Q 44.046875 74.21875 50.515625 64.515625 
Q 56.984375 54.828125 56.984375 36.375 
Q 56.984375 17.96875 50.515625 8.265625 
Q 44.046875 -1.421875 31.78125 -1.421875 
Q 19.53125 -1.421875 13.0625 8.265625 
Q 6.59375 17.96875 6.59375 36.375 
Q 6.59375 54.828125 13.0625 64.515625 
Q 19.53125 74.21875 31.78125 74.21875 
" id="DejaVuSans-30"/>
    </defs>
    <g transform="translate(84.920833 41.986077)scale(0.12 -0.12)">
     <use xlink:href="#DejaVuSans-6e"/>
     <use x="63.378906" xlink:href="#DejaVuSans-3d"/>
     <use x="147.167969" xlink:href="#DejaVuSans-31"/>
     <use x="210.791016" xlink:href="#DejaVuSans-30"/>
    </g>
   </g>
  </g>
 </g>
 <defs>
  <clipPath id="pe166e21170">
   <rect height="332.64" width="334.8" x="31.1365" y="7.2"/>
  </clipPath>
 </defs>
</svg>
