<?xml version="1.0" encoding="utf-8" standalone="no"?>
<!DOCTYPE svg PUBLIC "-//W3C//DTD SVG 1.1//EN"
  "http://www.w3.org/Graphics/SVG/1.1/DTD/svg11.dtd">
<!-- Created with matplotlib (http://matplotlib.org/) -->
<svg height="369pt" version="1.1" viewBox="0 0 372 369" width="372pt" xmlns="http://www.w3.org/2000/svg" xmlns:xlink="http://www.w3.org/1999/xlink">
 <defs>
  <style type="text/css">
*{stroke-linecap:butt;stroke-linejoin:round;}
  </style>
 </defs>
 <g id="figure_1">
  <g id="patch_1">
   <path d="M 0 369.212812 
L 372.890625 369.212812 
L 372.890625 0 
L 0 0 
z
" style="fill:none;"/>
  </g>
  <g id="axes_1">
   <g id="patch_2">
    <path d="M 30.890625 344.399062 
L 365.690625 344.399062 
L 365.690625 11.759062 
L 30.890625 11.759062 
z
" style="fill:#ffffff;"/>
   </g>
   <g id="matplotlib.axis_1">
    <g id="xtick_1">
     <g id="line2d_1"/>
     <g id="text_1">
      <!-- −4 -->
      <defs>
       <path d="M 10.59375 35.5 
L 73.1875 35.5 
L 73.1875 27.203125 
L 10.59375 27.203125 
z
" id="DejaVuSans-2212"/>
       <path d="M 37.796875 64.3125 
L 12.890625 25.390625 
L 37.796875 25.390625 
z
M 35.203125 72.90625 
L 47.609375 72.90625 
L 47.609375 25.390625 
L 58.015625 25.390625 
L 58.015625 17.1875 
L 47.609375 17.1875 
L 47.609375 0 
L 37.796875 0 
L 37.796875 17.1875 
L 4.890625 17.1875 
L 4.890625 26.703125 
z
" id="DejaVuSans-34"/>
      </defs>
      <g style="fill:#565656;" transform="translate(55.525312 359.517187)scale(0.12 -0.12)">
       <use xlink:href="#DejaVuSans-2212"/>
       <use x="83.789062" xlink:href="#DejaVuSans-34"/>
      </g>
     </g>
    </g>
    <g id="xtick_2">
     <g id="line2d_2"/>
     <g id="text_2">
      <!-- −2 -->
      <defs>
       <path d="M 19.1875 8.296875 
L 53.609375 8.296875 
L 53.609375 0 
L 7.328125 0 
L 7.328125 8.296875 
Q 12.9375 14.109375 22.625 23.890625 
Q 32.328125 33.6875 34.8125 36.53125 
Q 39.546875 41.84375 41.421875 45.53125 
Q 43.3125 49.21875 43.3125 52.78125 
Q 43.3125 58.59375 39.234375 62.25 
Q 35.15625 65.921875 28.609375 65.921875 
Q 23.96875 65.921875 18.8125 64.3125 
Q 13.671875 62.703125 7.8125 59.421875 
L 7.8125 69.390625 
Q 13.765625 71.78125 18.9375 73 
Q 24.125 74.21875 28.421875 74.21875 
Q 39.75 74.21875 46.484375 68.546875 
Q 53.21875 62.890625 53.21875 53.421875 
Q 53.21875 48.921875 51.53125 44.890625 
Q 49.859375 40.875 45.40625 35.40625 
Q 44.1875 33.984375 37.640625 27.21875 
Q 31.109375 20.453125 19.1875 8.296875 
" id="DejaVuSans-32"/>
      </defs>
      <g style="fill:#565656;" transform="translate(122.485312 359.517187)scale(0.12 -0.12)">
       <use xlink:href="#DejaVuSans-2212"/>
       <use x="83.789062" xlink:href="#DejaVuSans-32"/>
      </g>
     </g>
    </g>
    <g id="xtick_3">
     <g id="line2d_3"/>
     <g id="text_3">
      <!-- 0 -->
      <defs>
       <path d="M 31.78125 66.40625 
Q 24.171875 66.40625 20.328125 58.90625 
Q 16.5 51.421875 16.5 36.375 
Q 16.5 21.390625 20.328125 13.890625 
Q 24.171875 6.390625 31.78125 6.390625 
Q 39.453125 6.390625 43.28125 13.890625 
Q 47.125 21.390625 47.125 36.375 
Q 47.125 51.421875 43.28125 58.90625 
Q 39.453125 66.40625 31.78125 66.40625 
M 31.78125 74.21875 
Q 44.046875 74.21875 50.515625 64.515625 
Q 56.984375 54.828125 56.984375 36.375 
Q 56.984375 17.96875 50.515625 8.265625 
Q 44.046875 -1.421875 31.78125 -1.421875 
Q 19.53125 -1.421875 13.0625 8.265625 
Q 6.59375 17.96875 6.59375 36.375 
Q 6.59375 54.828125 13.0625 64.515625 
Q 19.53125 74.21875 31.78125 74.21875 
" id="DejaVuSans-30"/>
      </defs>
      <g style="fill:#565656;" transform="translate(194.473125 359.517187)scale(0.12 -0.12)">
       <use xlink:href="#DejaVuSans-30"/>
      </g>
     </g>
    </g>
    <g id="xtick_4">
     <g id="line2d_4"/>
     <g id="text_4">
      <!-- 2 -->
      <g style="fill:#565656;" transform="translate(261.433125 359.517187)scale(0.12 -0.12)">
       <use xlink:href="#DejaVuSans-32"/>
      </g>
     </g>
    </g>
    <g id="xtick_5">
     <g id="line2d_5"/>
     <g id="text_5">
      <!-- 4 -->
      <g style="fill:#565656;" transform="translate(328.393125 359.517187)scale(0.12 -0.12)">
       <use xlink:href="#DejaVuSans-34"/>
      </g>
     </g>
    </g>
   </g>
   <g id="matplotlib.axis_2">
    <g id="ytick_1">
     <g id="line2d_6"/>
     <g id="text_6">
      <!-- −1 -->
      <defs>
       <path d="M 12.40625 8.296875 
L 28.515625 8.296875 
L 28.515625 63.921875 
L 10.984375 60.40625 
L 10.984375 69.390625 
L 28.421875 72.90625 
L 38.28125 72.90625 
L 38.28125 8.296875 
L 54.390625 8.296875 
L 54.390625 0 
L 12.40625 0 
z
" id="DejaVuSans-31"/>
      </defs>
      <g style="fill:#565656;" transform="translate(7.2 348.958125)scale(0.12 -0.12)">
       <use xlink:href="#DejaVuSans-2212"/>
       <use x="83.789062" xlink:href="#DejaVuSans-31"/>
      </g>
     </g>
    </g>
    <g id="ytick_2">
     <g id="line2d_7"/>
     <g id="text_7">
      <!-- 0 -->
      <g style="fill:#565656;" transform="translate(17.255625 282.430125)scale(0.12 -0.12)">
       <use xlink:href="#DejaVuSans-30"/>
      </g>
     </g>
    </g>
    <g id="ytick_3">
     <g id="line2d_8"/>
     <g id="text_8">
      <!-- 1 -->
      <g style="fill:#565656;" transform="translate(17.255625 215.902125)scale(0.12 -0.12)">
       <use xlink:href="#DejaVuSans-31"/>
      </g>
     </g>
    </g>
    <g id="ytick_4">
     <g id="line2d_9"/>
     <g id="text_9">
      <!-- 2 -->
      <g style="fill:#565656;" transform="translate(17.255625 149.374125)scale(0.12 -0.12)">
       <use xlink:href="#DejaVuSans-32"/>
      </g>
     </g>
    </g>
    <g id="ytick_5">
     <g id="line2d_10"/>
     <g id="text_10">
      <!-- 3 -->
      <defs>
       <path d="M 40.578125 39.3125 
Q 47.65625 37.796875 51.625 33 
Q 55.609375 28.21875 55.609375 21.1875 
Q 55.609375 10.40625 48.1875 4.484375 
Q 40.765625 -1.421875 27.09375 -1.421875 
Q 22.515625 -1.421875 17.65625 -0.515625 
Q 12.796875 0.390625 7.625 2.203125 
L 7.625 11.71875 
Q 11.71875 9.328125 16.59375 8.109375 
Q 21.484375 6.890625 26.8125 6.890625 
Q 36.078125 6.890625 40.9375 10.546875 
Q 45.796875 14.203125 45.796875 21.1875 
Q 45.796875 27.640625 41.28125 31.265625 
Q 36.765625 34.90625 28.71875 34.90625 
L 20.21875 34.90625 
L 20.21875 43.015625 
L 29.109375 43.015625 
Q 36.375 43.015625 40.234375 45.921875 
Q 44.09375 48.828125 44.09375 54.296875 
Q 44.09375 59.90625 40.109375 62.90625 
Q 36.140625 65.921875 28.71875 65.921875 
Q 24.65625 65.921875 20.015625 65.03125 
Q 15.375 64.15625 9.8125 62.3125 
L 9.8125 71.09375 
Q 15.4375 72.65625 20.34375 73.4375 
Q 25.25 74.21875 29.59375 74.21875 
Q 40.828125 74.21875 47.359375 69.109375 
Q 53.90625 64.015625 53.90625 55.328125 
Q 53.90625 49.265625 50.4375 45.09375 
Q 46.96875 40.921875 40.578125 39.3125 
" id="DejaVuSans-33"/>
      </defs>
      <g style="fill:#565656;" transform="translate(17.255625 82.846125)scale(0.12 -0.12)">
       <use xlink:href="#DejaVuSans-33"/>
      </g>
     </g>
    </g>
    <g id="ytick_6">
     <g id="line2d_11"/>
     <g id="text_11">
      <!-- 4 -->
      <g style="fill:#565656;" transform="translate(17.255625 16.318125)scale(0.12 -0.12)">
       <use xlink:href="#DejaVuSans-34"/>
      </g>
     </g>
    </g>
   </g>
   <g id="line2d_12">
    <path clip-path="url(#p38db9a0098)" d="M 30.890625 277.870815 
L 78.432225 277.761425 
L 89.815425 277.521536 
L 97.515825 277.153882 
L 103.542225 276.65797 
L 108.564225 276.037203 
L 112.916625 275.294714 
L 116.934225 274.397527 
L 120.617025 273.360495 
L 124.299825 272.0843 
L 127.647825 270.689098 
L 130.995825 269.046201 
L 134.343825 267.135381 
L 137.691825 264.940769 
L 141.039825 262.452488 
L 144.387825 259.668308 
L 147.735825 256.595206 
L 151.418625 252.902366 
L 155.436225 248.546575 
L 160.458225 242.736936 
L 174.854625 225.799295 
L 178.202625 222.302206 
L 181.215825 219.45605 
L 183.894225 217.217831 
L 186.237825 215.517369 
L 188.581425 214.082563 
L 190.925025 212.933716 
L 192.933825 212.189194 
L 194.942625 211.674872 
L 196.951425 211.396264 
L 198.960225 211.356367 
L 200.969025 211.555612 
L 202.977825 211.991853 
L 204.986625 212.660405 
L 206.995425 213.554131 
L 209.339025 214.868657 
L 211.682625 216.457978 
L 214.026225 218.299822 
L 216.704625 220.681414 
L 219.717825 223.663365 
L 223.400625 227.653093 
L 228.087825 233.099512 
L 241.814625 249.293471 
L 245.832225 253.596648 
L 249.515025 257.23226 
L 252.863025 260.248626 
L 256.211025 262.973868 
L 259.559025 265.402968 
L 262.907025 267.539816 
L 266.255025 269.39562 
L 269.603025 270.987248 
L 272.951025 272.335612 
L 276.633825 273.565865 
L 280.316625 274.562966 
L 284.334225 275.423304 
L 288.686625 276.133257 
L 293.708625 276.724953 
L 299.735025 277.195917 
L 307.100625 277.532696 
L 317.144625 277.749049 
L 333.884625 277.852813 
L 365.355825 277.870802 
L 365.355825 277.870802 
" style="fill:none;stroke:#404040;stroke-linecap:square;stroke-width:2;"/>
   </g>
   <g id="line2d_13">
    <path clip-path="url(#p38db9a0098)" d="M 30.890625 277.870567 
L 72.405825 277.757798 
L 83.119425 277.512635 
L 90.150225 277.149026 
L 95.841825 276.638654 
L 100.529025 275.998009 
L 104.546625 275.231086 
L 108.229425 274.300511 
L 111.577425 273.221747 
L 114.590625 272.02499 
L 117.603825 270.579484 
L 120.282225 269.05725 
L 122.960625 267.285193 
L 125.639025 265.237966 
L 128.317425 262.891001 
L 130.995825 260.221339 
L 133.674225 257.20857 
L 136.352625 253.835846 
L 139.031025 250.090958 
L 141.709425 245.967423 
L 144.387825 241.465554 
L 147.401025 235.95915 
L 150.749025 229.322233 
L 154.431825 221.456908 
L 158.449425 212.327166 
L 164.141025 198.782356 
L 171.841425 180.481398 
L 175.524225 172.280384 
L 178.537425 166.070109 
L 181.215825 161.041038 
L 183.559425 157.091137 
L 185.568225 154.083104 
L 187.577025 151.456069 
L 189.251025 149.577629 
L 190.925025 147.996369 
L 192.599025 146.723897 
L 194.273025 145.769625 
L 195.612225 145.240161 
L 196.951425 144.921465 
L 198.290625 144.815062 
L 199.629825 144.921465 
L 200.969025 145.240161 
L 202.308225 145.769625 
L 203.647425 146.507326 
L 205.321425 147.716838 
L 206.995425 149.2372 
L 208.669425 151.057234 
L 210.678225 153.618027 
L 212.687025 156.5646 
L 215.030625 160.449555 
L 217.374225 164.765666 
L 220.052625 170.152697 
L 223.400625 177.435124 
L 227.418225 186.738052 
L 242.484225 222.193898 
L 246.167025 230.009148 
L 249.515025 236.593458 
L 252.528225 242.048781 
L 255.541425 247.033914 
L 258.219825 251.062533 
L 260.898225 254.71353 
L 263.576625 257.994921 
L 266.255025 260.920177 
L 268.933425 263.507134 
L 271.611825 265.776934 
L 274.290225 267.753021 
L 276.968625 269.460233 
L 279.647025 270.923992 
L 282.660225 272.311218 
L 285.673425 273.457333 
L 289.021425 274.488207 
L 292.704225 275.37536 
L 296.721825 276.104616 
L 301.409025 276.712048 
L 306.765825 277.17201 
L 313.461825 277.512635 
L 322.501425 277.734542 
L 337.567425 277.847826 
L 365.355825 277.870541 
L 365.355825 277.870541 
" style="fill:none;stroke:#808080;stroke-linecap:square;stroke-width:2;"/>
   </g>
   <g id="line2d_14">
    <path clip-path="url(#p38db9a0098)" d="M 30.890625 277.870319 
L 69.057825 277.754993 
L 79.436625 277.505023 
L 86.467425 277.11646 
L 91.824225 276.599769 
L 96.176625 275.965104 
L 99.859425 275.221392 
L 103.207425 274.33351 
L 106.220625 273.321709 
L 109.233825 272.067713 
L 111.912225 270.714461 
L 114.590625 269.101954 
L 116.934225 267.450456 
L 119.277825 265.54846 
L 121.621425 263.370533 
L 123.965025 260.891079 
L 126.308625 258.084853 
L 128.652225 254.92755 
L 130.995825 251.396478 
L 133.339425 247.471288 
L 135.683025 243.134764 
L 138.026625 238.373649 
L 140.705025 232.401861 
L 143.383425 225.861104 
L 146.061825 218.758989 
L 149.075025 210.123722 
L 152.423025 199.78706 
L 156.105825 187.634454 
L 160.458225 172.468684 
L 174.519825 122.753205 
L 177.533025 113.185957 
L 180.211425 105.364514 
L 182.555025 99.157342 
L 184.563825 94.37647 
L 186.572625 90.144734 
L 188.246625 87.069261 
L 189.920625 84.427617 
L 191.594625 82.23909 
L 192.933825 80.825457 
L 194.273025 79.718906 
L 195.612225 78.924711 
L 196.951425 78.446666 
L 197.955825 78.297041 
L 198.960225 78.326975 
L 199.964625 78.536387 
L 200.969025 78.924711 
L 202.308225 79.718906 
L 203.647425 80.825457 
L 204.986625 82.23909 
L 206.325825 83.953099 
L 207.999825 86.505565 
L 209.673825 89.49596 
L 211.347825 92.902625 
L 213.356625 97.505589 
L 215.700225 103.526218 
L 218.043825 110.169632 
L 220.722225 118.412323 
L 224.070225 129.489779 
L 228.422625 144.753163 
L 240.810225 188.768758 
L 244.493025 200.853368 
L 247.841025 211.115662 
L 250.854225 219.676891 
L 253.867425 227.549423 
L 256.545825 233.94819 
L 259.224225 239.777885 
L 261.902625 245.044593 
L 264.246225 249.202957 
L 266.589825 252.95693 
L 268.933425 256.32517 
L 271.277025 259.329122 
L 273.620625 261.992258 
L 275.964225 264.339361 
L 278.307825 266.395897 
L 280.651425 268.187448 
L 283.329825 269.94279 
L 286.008225 271.421352 
L 288.686625 272.657647 
L 291.699825 273.798855 
L 295.047825 274.805641 
L 298.730625 275.653885 
L 302.748225 276.335287 
L 307.435425 276.888474 
L 313.127025 277.314633 
L 320.157825 277.606205 
L 330.536625 277.789388 
L 349.955025 277.864079 
L 365.355825 277.870281 
L 365.355825 277.870281 
" style="fill:none;stroke:#bfbfbf;stroke-linecap:square;stroke-width:2;"/>
   </g>
   <g id="patch_3">
    <path d="M 30.890625 344.399062 
L 30.890625 11.759062 
" style="fill:none;stroke:#aaaaaa;stroke-linecap:square;stroke-linejoin:miter;"/>
   </g>
   <g id="patch_4">
    <path d="M 365.690625 344.399062 
L 365.690625 11.759062 
" style="fill:none;stroke:#aaaaaa;stroke-linecap:square;stroke-linejoin:miter;"/>
   </g>
   <g id="patch_5">
    <path d="M 30.890625 344.399062 
L 365.690625 344.399062 
" style="fill:none;stroke:#aaaaaa;stroke-linecap:square;stroke-linejoin:miter;"/>
   </g>
   <g id="patch_6">
    <path d="M 30.890625 11.759062 
L 365.690625 11.759062 
" style="fill:none;stroke:#aaaaaa;stroke-linecap:square;stroke-linejoin:miter;"/>
   </g>
  </g>
 </g>
 <defs>
  <clipPath id="p38db9a0098">
   <rect height="332.64" width="334.8" x="30.890625" y="11.759062"/>
  </clipPath>
 </defs>
</svg>
