<?xml version="1.0" encoding="utf-8" standalone="no"?>
<!DOCTYPE svg PUBLIC "-//W3C//DTD SVG 1.1//EN"
  "http://www.w3.org/Graphics/SVG/1.1/DTD/svg11.dtd">
<!-- Created with matplotlib (http://matplotlib.org/) -->
<svg height="369pt" version="1.1" viewBox="0 0 372 369" width="372pt" xmlns="http://www.w3.org/2000/svg" xmlns:xlink="http://www.w3.org/1999/xlink">
 <defs>
  <style type="text/css">
*{stroke-linecap:butt;stroke-linejoin:round;}
  </style>
 </defs>
 <g id="figure_1">
  <g id="patch_1">
   <path d="M 0 369.212812 
L 372.890625 369.212812 
L 372.890625 0 
L 0 0 
z
" style="fill:none;"/>
  </g>
  <g id="axes_1">
   <g id="patch_2">
    <path d="M 30.890625 344.399062 
L 365.690625 344.399062 
L 365.690625 11.759062 
L 30.890625 11.759062 
z
" style="fill:#ffffff;"/>
   </g>
   <g id="matplotlib.axis_1">
    <g id="xtick_1">
     <g id="line2d_1"/>
     <g id="text_1">
      <!-- −4 -->
      <defs>
       <path d="M 10.59375 35.5 
L 73.1875 35.5 
L 73.1875 27.203125 
L 10.59375 27.203125 
z
" id="DejaVuSans-2212"/>
       <path d="M 37.796875 64.3125 
L 12.890625 25.390625 
L 37.796875 25.390625 
z
M 35.203125 72.90625 
L 47.609375 72.90625 
L 47.609375 25.390625 
L 58.015625 25.390625 
L 58.015625 17.1875 
L 47.609375 17.1875 
L 47.609375 0 
L 37.796875 0 
L 37.796875 17.1875 
L 4.890625 17.1875 
L 4.890625 26.703125 
z
" id="DejaVuSans-34"/>
      </defs>
      <g style="fill:#565656;" transform="translate(55.525312 359.517187)scale(0.12 -0.12)">
       <use xlink:href="#DejaVuSans-2212"/>
       <use x="83.789062" xlink:href="#DejaVuSans-34"/>
      </g>
     </g>
    </g>
    <g id="xtick_2">
     <g id="line2d_2"/>
     <g id="text_2">
      <!-- −2 -->
      <defs>
       <path d="M 19.1875 8.296875 
L 53.609375 8.296875 
L 53.609375 0 
L 7.328125 0 
L 7.328125 8.296875 
Q 12.9375 14.109375 22.625 23.890625 
Q 32.328125 33.6875 34.8125 36.53125 
Q 39.546875 41.84375 41.421875 45.53125 
Q 43.3125 49.21875 43.3125 52.78125 
Q 43.3125 58.59375 39.234375 62.25 
Q 35.15625 65.921875 28.609375 65.921875 
Q 23.96875 65.921875 18.8125 64.3125 
Q 13.671875 62.703125 7.8125 59.421875 
L 7.8125 69.390625 
Q 13.765625 71.78125 18.9375 73 
Q 24.125 74.21875 28.421875 74.21875 
Q 39.75 74.21875 46.484375 68.546875 
Q 53.21875 62.890625 53.21875 53.421875 
Q 53.21875 48.921875 51.53125 44.890625 
Q 49.859375 40.875 45.40625 35.40625 
Q 44.1875 33.984375 37.640625 27.21875 
Q 31.109375 20.453125 19.1875 8.296875 
" id="DejaVuSans-32"/>
      </defs>
      <g style="fill:#565656;" transform="translate(122.485312 359.517187)scale(0.12 -0.12)">
       <use xlink:href="#DejaVuSans-2212"/>
       <use x="83.789062" xlink:href="#DejaVuSans-32"/>
      </g>
     </g>
    </g>
    <g id="xtick_3">
     <g id="line2d_3"/>
     <g id="text_3">
      <!-- 0 -->
      <defs>
       <path d="M 31.78125 66.40625 
Q 24.171875 66.40625 20.328125 58.90625 
Q 16.5 51.421875 16.5 36.375 
Q 16.5 21.390625 20.328125 13.890625 
Q 24.171875 6.390625 31.78125 6.390625 
Q 39.453125 6.390625 43.28125 13.890625 
Q 47.125 21.390625 47.125 36.375 
Q 47.125 51.421875 43.28125 58.90625 
Q 39.453125 66.40625 31.78125 66.40625 
M 31.78125 74.21875 
Q 44.046875 74.21875 50.515625 64.515625 
Q 56.984375 54.828125 56.984375 36.375 
Q 56.984375 17.96875 50.515625 8.265625 
Q 44.046875 -1.421875 31.78125 -1.421875 
Q 19.53125 -1.421875 13.0625 8.265625 
Q 6.59375 17.96875 6.59375 36.375 
Q 6.59375 54.828125 13.0625 64.515625 
Q 19.53125 74.21875 31.78125 74.21875 
" id="DejaVuSans-30"/>
      </defs>
      <g style="fill:#565656;" transform="translate(194.473125 359.517187)scale(0.12 -0.12)">
       <use xlink:href="#DejaVuSans-30"/>
      </g>
     </g>
    </g>
    <g id="xtick_4">
     <g id="line2d_4"/>
     <g id="text_4">
      <!-- 2 -->
      <g style="fill:#565656;" transform="translate(261.433125 359.517187)scale(0.12 -0.12)">
       <use xlink:href="#DejaVuSans-32"/>
      </g>
     </g>
    </g>
    <g id="xtick_5">
     <g id="line2d_5"/>
     <g id="text_5">
      <!-- 4 -->
      <g style="fill:#565656;" transform="translate(328.393125 359.517187)scale(0.12 -0.12)">
       <use xlink:href="#DejaVuSans-34"/>
      </g>
     </g>
    </g>
   </g>
   <g id="matplotlib.axis_2">
    <g id="ytick_1">
     <g id="line2d_6"/>
     <g id="text_6">
      <!-- −1 -->
      <defs>
       <path d="M 12.40625 8.296875 
L 28.515625 8.296875 
L 28.515625 63.921875 
L 10.984375 60.40625 
L 10.984375 69.390625 
L 28.421875 72.90625 
L 38.28125 72.90625 
L 38.28125 8.296875 
L 54.390625 8.296875 
L 54.390625 0 
L 12.40625 0 
z
" id="DejaVuSans-31"/>
      </defs>
      <g style="fill:#565656;" transform="translate(7.2 348.958125)scale(0.12 -0.12)">
       <use xlink:href="#DejaVuSans-2212"/>
       <use x="83.789062" xlink:href="#DejaVuSans-31"/>
      </g>
     </g>
    </g>
    <g id="ytick_2">
     <g id="line2d_7"/>
     <g id="text_7">
      <!-- 0 -->
      <g style="fill:#565656;" transform="translate(17.255625 282.430125)scale(0.12 -0.12)">
       <use xlink:href="#DejaVuSans-30"/>
      </g>
     </g>
    </g>
    <g id="ytick_3">
     <g id="line2d_8"/>
     <g id="text_8">
      <!-- 1 -->
      <g style="fill:#565656;" transform="translate(17.255625 215.902125)scale(0.12 -0.12)">
       <use xlink:href="#DejaVuSans-31"/>
      </g>
     </g>
    </g>
    <g id="ytick_4">
     <g id="line2d_9"/>
     <g id="text_9">
      <!-- 2 -->
      <g style="fill:#565656;" transform="translate(17.255625 149.374125)scale(0.12 -0.12)">
       <use xlink:href="#DejaVuSans-32"/>
      </g>
     </g>
    </g>
    <g id="ytick_5">
     <g id="line2d_10"/>
     <g id="text_10">
      <!-- 3 -->
      <defs>
       <path d="M 40.578125 39.3125 
Q 47.65625 37.796875 51.625 33 
Q 55.609375 28.21875 55.609375 21.1875 
Q 55.609375 10.40625 48.1875 4.484375 
Q 40.765625 -1.421875 27.09375 -1.421875 
Q 22.515625 -1.421875 17.65625 -0.515625 
Q 12.796875 0.390625 7.625 2.203125 
L 7.625 11.71875 
Q 11.71875 9.328125 16.59375 8.109375 
Q 21.484375 6.890625 26.8125 6.890625 
Q 36.078125 6.890625 40.9375 10.546875 
Q 45.796875 14.203125 45.796875 21.1875 
Q 45.796875 27.640625 41.28125 31.265625 
Q 36.765625 34.90625 28.71875 34.90625 
L 20.21875 34.90625 
L 20.21875 43.015625 
L 29.109375 43.015625 
Q 36.375 43.015625 40.234375 45.921875 
Q 44.09375 48.828125 44.09375 54.296875 
Q 44.09375 59.90625 40.109375 62.90625 
Q 36.140625 65.921875 28.71875 65.921875 
Q 24.65625 65.921875 20.015625 65.03125 
Q 15.375 64.15625 9.8125 62.3125 
L 9.8125 71.09375 
Q 15.4375 72.65625 20.34375 73.4375 
Q 25.25 74.21875 29.59375 74.21875 
Q 40.828125 74.21875 47.359375 69.109375 
Q 53.90625 64.015625 53.90625 55.328125 
Q 53.90625 49.265625 50.4375 45.09375 
Q 46.96875 40.921875 40.578125 39.3125 
" id="DejaVuSans-33"/>
      </defs>
      <g style="fill:#565656;" transform="translate(17.255625 82.846125)scale(0.12 -0.12)">
       <use xlink:href="#DejaVuSans-33"/>
      </g>
     </g>
    </g>
    <g id="ytick_6">
     <g id="line2d_11"/>
     <g id="text_11">
      <!-- 4 -->
      <g style="fill:#565656;" transform="translate(17.255625 16.318125)scale(0.12 -0.12)">
       <use xlink:href="#DejaVuSans-34"/>
      </g>
     </g>
    </g>
   </g>
   <g id="line2d_12">
    <path clip-path="url(#pd55bd87f7d)" d="M 30.890625 277.212369 
L 65.375025 276.83227 
L 87.806625 276.378064 
L 103.877025 275.843363 
L 115.929825 275.231733 
L 125.304225 274.546258 
L 133.004625 273.766929 
L 139.365825 272.902727 
L 144.722625 271.952201 
L 149.409825 270.887522 
L 153.427425 269.740441 
L 156.775425 268.566968 
L 159.788625 267.294274 
L 162.467025 265.947627 
L 165.145425 264.350211 
L 167.489025 262.701416 
L 169.832625 260.768749 
L 171.841425 258.843491 
L 173.850225 256.62697 
L 175.859025 254.073667 
L 177.867825 251.135811 
L 179.876625 247.767895 
L 181.885425 243.935131 
L 183.894225 239.627788 
L 186.237825 234.056521 
L 192.933825 217.522732 
L 194.273025 214.966373 
L 195.277425 213.430923 
L 196.281825 212.287466 
L 196.951425 211.766134 
L 197.621025 211.449337 
L 198.290625 211.343062 
L 198.960225 211.449337 
L 199.629825 211.766134 
L 200.299425 212.287466 
L 201.303825 213.430923 
L 202.308225 214.966373 
L 203.647425 217.522732 
L 205.321425 221.318869 
L 207.999825 228.08956 
L 211.682625 237.305209 
L 214.026225 242.551462 
L 216.035025 246.543129 
L 218.043825 250.063004 
L 220.052625 253.139464 
L 222.061425 255.815632 
L 224.070225 258.139184 
L 226.079025 260.156716 
L 228.422625 262.180496 
L 230.766225 263.905154 
L 233.444625 265.573835 
L 236.123025 266.978404 
L 239.136225 268.303644 
L 242.484225 269.523341 
L 246.167025 270.623688 
L 250.519425 271.673418 
L 255.206625 272.574247 
L 260.898225 273.432193 
L 267.594225 274.203506 
L 275.629425 274.893672 
L 285.338625 275.498452 
L 297.726225 276.037507 
L 313.796625 276.502455 
L 335.558625 276.89615 
L 365.355825 277.209753 
L 365.355825 277.209753 
" style="fill:none;stroke:#404040;stroke-linecap:square;stroke-width:2;"/>
   </g>
   <g id="line2d_13">
    <path clip-path="url(#pd55bd87f7d)" d="M 30.890625 276.553676 
L 56.335425 276.046138 
L 75.084225 275.4593 
L 89.480625 274.794623 
L 100.863825 274.055552 
L 110.238225 273.229725 
L 117.938625 272.336287 
L 124.634625 271.335896 
L 130.326225 270.260731 
L 135.348225 269.081294 
L 139.700625 267.8291 
L 143.383425 266.555237 
L 146.731425 265.182628 
L 149.744625 263.731211 
L 152.757825 262.028045 
L 155.436225 260.25615 
L 157.779825 258.46496 
L 160.123425 256.404878 
L 162.467025 254.024192 
L 164.475825 251.680999 
L 166.484625 249.00859 
L 168.493425 245.950901 
L 170.502225 242.442369 
L 172.511025 238.407306 
L 174.185025 234.581109 
L 175.859025 230.276271 
L 177.533025 225.437267 
L 179.207025 220.010565 
L 181.215825 212.66032 
L 183.224625 204.35946 
L 185.233425 195.145372 
L 187.911825 181.760112 
L 191.929425 161.604023 
L 193.603425 154.488273 
L 194.607825 150.957671 
L 195.612225 148.136273 
L 196.281825 146.70387 
L 196.951425 145.661206 
L 197.621025 145.027612 
L 198.290625 144.815062 
L 198.960225 145.027612 
L 199.629825 145.661206 
L 200.299425 146.70387 
L 200.969025 148.136273 
L 201.973425 150.957671 
L 202.977825 154.488273 
L 204.317025 160.080694 
L 206.325825 169.73062 
L 212.687025 201.384514 
L 214.695825 209.9992 
L 216.704625 217.664728 
L 218.713425 224.400559 
L 220.722225 230.276271 
L 222.731025 235.382878 
L 224.739825 239.81592 
L 226.748625 243.666435 
L 228.757425 247.016782 
L 230.766225 249.939246 
L 232.775025 252.496129 
L 235.118625 255.087501 
L 237.462225 257.323777 
L 239.805825 259.262873 
L 242.484225 261.17562 
L 245.162625 262.819479 
L 248.175825 264.404401 
L 251.523825 265.897411 
L 255.206625 267.277432 
L 259.224225 268.533537 
L 263.576625 269.662796 
L 268.598625 270.732865 
L 274.290225 271.714369 
L 280.986225 272.63338 
L 288.686625 273.459391 
L 298.061025 274.227849 
L 309.109425 274.902679 
L 322.836225 275.509971 
L 340.245825 276.046138 
L 363.012225 276.510928 
L 365.355825 276.548444 
L 365.355825 276.548444 
" style="fill:none;stroke:#808080;stroke-linecap:square;stroke-width:2;"/>
   </g>
   <g id="line2d_14">
    <path clip-path="url(#pd55bd87f7d)" d="M 30.890625 275.894983 
L 51.983025 275.292045 
L 68.388225 274.610824 
L 81.445425 273.856936 
L 92.159025 273.026273 
L 101.198625 272.1094 
L 108.899025 271.109079 
L 115.595025 270.014538 
L 121.286625 268.864564 
L 126.308625 267.630734 
L 130.661025 266.348801 
L 134.678625 264.944638 
L 138.361425 263.425621 
L 141.709425 261.807188 
L 144.722625 260.114479 
L 147.735825 258.150103 
L 150.414225 256.128939 
L 152.757825 254.106536 
L 155.101425 251.803459 
L 157.445025 249.168808 
L 159.453825 246.600067 
L 161.462625 243.69572 
L 163.471425 240.400351 
L 165.480225 236.648326 
L 167.489025 232.362124 
L 169.497825 227.450691 
L 171.171825 222.804293 
L 172.845825 217.581067 
L 174.519825 211.704772 
L 176.193825 205.093933 
L 177.867825 197.665308 
L 179.541825 189.34019 
L 181.550625 178.079063 
L 183.559425 165.391351 
L 185.903025 148.907506 
L 189.251025 123.346442 
L 191.929425 103.470503 
L 193.603425 92.796879 
L 194.607825 87.500975 
L 195.612225 83.268878 
L 196.281825 81.120274 
L 196.951425 79.556277 
L 197.621025 78.605887 
L 197.955825 78.366864 
L 198.290625 78.287062 
L 198.625425 78.366864 
L 198.960225 78.605887 
L 199.629825 79.556277 
L 200.299425 81.120274 
L 200.969025 83.268878 
L 201.973425 87.500975 
L 202.977825 92.796879 
L 204.317025 101.18551 
L 206.325825 115.660399 
L 212.687025 163.14124 
L 214.695825 176.063268 
L 216.704625 187.56156 
L 218.713425 197.665308 
L 220.722225 206.478875 
L 222.731025 214.138785 
L 224.739825 220.788349 
L 226.748625 226.564122 
L 228.757425 231.589641 
L 230.766225 235.973338 
L 232.775025 239.808663 
L 234.783825 243.175283 
L 236.792625 246.140697 
L 239.136225 249.168808 
L 241.479825 251.803459 
L 243.823425 254.106536 
L 246.501825 256.397487 
L 249.180225 258.383482 
L 252.193425 260.31503 
L 255.206625 261.980617 
L 258.554625 263.574214 
L 262.237425 265.07098 
L 266.255025 266.455565 
L 270.607425 267.720521 
L 275.629425 268.938892 
L 281.321025 270.0753 
L 287.682225 271.109079 
L 295.047825 272.070618 
L 303.417825 272.935556 
L 313.461825 273.741829 
L 325.514625 274.474466 
L 340.245825 275.133675 
L 358.325025 275.710913 
L 365.355825 275.887134 
L 365.355825 275.887134 
" style="fill:none;stroke:#bfbfbf;stroke-linecap:square;stroke-width:2;"/>
   </g>
   <g id="patch_3">
    <path d="M 30.890625 344.399062 
L 30.890625 11.759062 
" style="fill:none;stroke:#aaaaaa;stroke-linecap:square;stroke-linejoin:miter;"/>
   </g>
   <g id="patch_4">
    <path d="M 365.690625 344.399062 
L 365.690625 11.759062 
" style="fill:none;stroke:#aaaaaa;stroke-linecap:square;stroke-linejoin:miter;"/>
   </g>
   <g id="patch_5">
    <path d="M 30.890625 344.399062 
L 365.690625 344.399062 
" style="fill:none;stroke:#aaaaaa;stroke-linecap:square;stroke-linejoin:miter;"/>
   </g>
   <g id="patch_6">
    <path d="M 30.890625 11.759062 
L 365.690625 11.759062 
" style="fill:none;stroke:#aaaaaa;stroke-linecap:square;stroke-linejoin:miter;"/>
   </g>
  </g>
 </g>
 <defs>
  <clipPath id="pd55bd87f7d">
   <rect height="332.64" width="334.8" x="30.890625" y="11.759062"/>
  </clipPath>
 </defs>
</svg>
