<?xml version="1.0" encoding="utf-8" standalone="no"?>
<!DOCTYPE svg PUBLIC "-//W3C//DTD SVG 1.1//EN"
  "http://www.w3.org/Graphics/SVG/1.1/DTD/svg11.dtd">
<!-- Created with matplotlib (http://matplotlib.org/) -->
<svg height="364pt" version="1.1" viewBox="0 0 380 364" width="380pt" xmlns="http://www.w3.org/2000/svg" xmlns:xlink="http://www.w3.org/1999/xlink">
 <defs>
  <style type="text/css">
*{stroke-linecap:butt;stroke-linejoin:round;}
  </style>
 </defs>
 <g id="figure_1">
  <g id="patch_1">
   <path d="M 0 364.65375 
L 380.525625 364.65375 
L 380.525625 0 
L 0 0 
z
" style="fill:none;"/>
  </g>
  <g id="axes_1">
   <g id="patch_2">
    <path d="M 30.890625 339.84 
L 365.690625 339.84 
L 365.690625 7.2 
L 30.890625 7.2 
z
" style="fill:#ffffff;"/>
   </g>
   <g id="matplotlib.axis_1">
    <g id="xtick_1">
     <g id="line2d_1"/>
     <g id="text_1">
      <!-- 0 -->
      <defs>
       <path d="M 31.78125 66.40625 
Q 24.171875 66.40625 20.328125 58.90625 
Q 16.5 51.421875 16.5 36.375 
Q 16.5 21.390625 20.328125 13.890625 
Q 24.171875 6.390625 31.78125 6.390625 
Q 39.453125 6.390625 43.28125 13.890625 
Q 47.125 21.390625 47.125 36.375 
Q 47.125 51.421875 43.28125 58.90625 
Q 39.453125 66.40625 31.78125 66.40625 
M 31.78125 74.21875 
Q 44.046875 74.21875 50.515625 64.515625 
Q 56.984375 54.828125 56.984375 36.375 
Q 56.984375 17.96875 50.515625 8.265625 
Q 44.046875 -1.421875 31.78125 -1.421875 
Q 19.53125 -1.421875 13.0625 8.265625 
Q 6.59375 17.96875 6.59375 36.375 
Q 6.59375 54.828125 13.0625 64.515625 
Q 19.53125 74.21875 31.78125 74.21875 
" id="DejaVuSans-30"/>
      </defs>
      <g style="fill:#565656;" transform="translate(27.073125 354.958125)scale(0.12 -0.12)">
       <use xlink:href="#DejaVuSans-30"/>
      </g>
     </g>
    </g>
    <g id="xtick_2">
     <g id="line2d_2"/>
     <g id="text_2">
      <!-- 2 -->
      <defs>
       <path d="M 19.1875 8.296875 
L 53.609375 8.296875 
L 53.609375 0 
L 7.328125 0 
L 7.328125 8.296875 
Q 12.9375 14.109375 22.625 23.890625 
Q 32.328125 33.6875 34.8125 36.53125 
Q 39.546875 41.84375 41.421875 45.53125 
Q 43.3125 49.21875 43.3125 52.78125 
Q 43.3125 58.59375 39.234375 62.25 
Q 35.15625 65.921875 28.609375 65.921875 
Q 23.96875 65.921875 18.8125 64.3125 
Q 13.671875 62.703125 7.8125 59.421875 
L 7.8125 69.390625 
Q 13.765625 71.78125 18.9375 73 
Q 24.125 74.21875 28.421875 74.21875 
Q 39.75 74.21875 46.484375 68.546875 
Q 53.21875 62.890625 53.21875 53.421875 
Q 53.21875 48.921875 51.53125 44.890625 
Q 49.859375 40.875 45.40625 35.40625 
Q 44.1875 33.984375 37.640625 27.21875 
Q 31.109375 20.453125 19.1875 8.296875 
" id="DejaVuSans-32"/>
      </defs>
      <g style="fill:#565656;" transform="translate(94.033125 354.958125)scale(0.12 -0.12)">
       <use xlink:href="#DejaVuSans-32"/>
      </g>
     </g>
    </g>
    <g id="xtick_3">
     <g id="line2d_3"/>
     <g id="text_3">
      <!-- 4 -->
      <defs>
       <path d="M 37.796875 64.3125 
L 12.890625 25.390625 
L 37.796875 25.390625 
z
M 35.203125 72.90625 
L 47.609375 72.90625 
L 47.609375 25.390625 
L 58.015625 25.390625 
L 58.015625 17.1875 
L 47.609375 17.1875 
L 47.609375 0 
L 37.796875 0 
L 37.796875 17.1875 
L 4.890625 17.1875 
L 4.890625 26.703125 
z
" id="DejaVuSans-34"/>
      </defs>
      <g style="fill:#565656;" transform="translate(160.993125 354.958125)scale(0.12 -0.12)">
       <use xlink:href="#DejaVuSans-34"/>
      </g>
     </g>
    </g>
    <g id="xtick_4">
     <g id="line2d_4"/>
     <g id="text_4">
      <!-- 6 -->
      <defs>
       <path d="M 33.015625 40.375 
Q 26.375 40.375 22.484375 35.828125 
Q 18.609375 31.296875 18.609375 23.390625 
Q 18.609375 15.53125 22.484375 10.953125 
Q 26.375 6.390625 33.015625 6.390625 
Q 39.65625 6.390625 43.53125 10.953125 
Q 47.40625 15.53125 47.40625 23.390625 
Q 47.40625 31.296875 43.53125 35.828125 
Q 39.65625 40.375 33.015625 40.375 
M 52.59375 71.296875 
L 52.59375 62.3125 
Q 48.875 64.0625 45.09375 64.984375 
Q 41.3125 65.921875 37.59375 65.921875 
Q 27.828125 65.921875 22.671875 59.328125 
Q 17.53125 52.734375 16.796875 39.40625 
Q 19.671875 43.65625 24.015625 45.921875 
Q 28.375 48.1875 33.59375 48.1875 
Q 44.578125 48.1875 50.953125 41.515625 
Q 57.328125 34.859375 57.328125 23.390625 
Q 57.328125 12.15625 50.6875 5.359375 
Q 44.046875 -1.421875 33.015625 -1.421875 
Q 20.359375 -1.421875 13.671875 8.265625 
Q 6.984375 17.96875 6.984375 36.375 
Q 6.984375 53.65625 15.1875 63.9375 
Q 23.390625 74.21875 37.203125 74.21875 
Q 40.921875 74.21875 44.703125 73.484375 
Q 48.484375 72.75 52.59375 71.296875 
" id="DejaVuSans-36"/>
      </defs>
      <g style="fill:#565656;" transform="translate(227.953125 354.958125)scale(0.12 -0.12)">
       <use xlink:href="#DejaVuSans-36"/>
      </g>
     </g>
    </g>
    <g id="xtick_5">
     <g id="line2d_5"/>
     <g id="text_5">
      <!-- 8 -->
      <defs>
       <path d="M 31.78125 34.625 
Q 24.75 34.625 20.71875 30.859375 
Q 16.703125 27.09375 16.703125 20.515625 
Q 16.703125 13.921875 20.71875 10.15625 
Q 24.75 6.390625 31.78125 6.390625 
Q 38.8125 6.390625 42.859375 10.171875 
Q 46.921875 13.96875 46.921875 20.515625 
Q 46.921875 27.09375 42.890625 30.859375 
Q 38.875 34.625 31.78125 34.625 
M 21.921875 38.8125 
Q 15.578125 40.375 12.03125 44.71875 
Q 8.5 49.078125 8.5 55.328125 
Q 8.5 64.0625 14.71875 69.140625 
Q 20.953125 74.21875 31.78125 74.21875 
Q 42.671875 74.21875 48.875 69.140625 
Q 55.078125 64.0625 55.078125 55.328125 
Q 55.078125 49.078125 51.53125 44.71875 
Q 48 40.375 41.703125 38.8125 
Q 48.828125 37.15625 52.796875 32.3125 
Q 56.78125 27.484375 56.78125 20.515625 
Q 56.78125 9.90625 50.3125 4.234375 
Q 43.84375 -1.421875 31.78125 -1.421875 
Q 19.734375 -1.421875 13.25 4.234375 
Q 6.78125 9.90625 6.78125 20.515625 
Q 6.78125 27.484375 10.78125 32.3125 
Q 14.796875 37.15625 21.921875 38.8125 
M 18.3125 54.390625 
Q 18.3125 48.734375 21.84375 45.5625 
Q 25.390625 42.390625 31.78125 42.390625 
Q 38.140625 42.390625 41.71875 45.5625 
Q 45.3125 48.734375 45.3125 54.390625 
Q 45.3125 60.0625 41.71875 63.234375 
Q 38.140625 66.40625 31.78125 66.40625 
Q 25.390625 66.40625 21.84375 63.234375 
Q 18.3125 60.0625 18.3125 54.390625 
" id="DejaVuSans-38"/>
      </defs>
      <g style="fill:#565656;" transform="translate(294.913125 354.958125)scale(0.12 -0.12)">
       <use xlink:href="#DejaVuSans-38"/>
      </g>
     </g>
    </g>
    <g id="xtick_6">
     <g id="line2d_6"/>
     <g id="text_6">
      <!-- 10 -->
      <defs>
       <path d="M 12.40625 8.296875 
L 28.515625 8.296875 
L 28.515625 63.921875 
L 10.984375 60.40625 
L 10.984375 69.390625 
L 28.421875 72.90625 
L 38.28125 72.90625 
L 38.28125 8.296875 
L 54.390625 8.296875 
L 54.390625 0 
L 12.40625 0 
z
" id="DejaVuSans-31"/>
      </defs>
      <g style="fill:#565656;" transform="translate(358.055625 354.958125)scale(0.12 -0.12)">
       <use xlink:href="#DejaVuSans-31"/>
       <use x="63.623047" xlink:href="#DejaVuSans-30"/>
      </g>
     </g>
    </g>
   </g>
   <g id="matplotlib.axis_2">
    <g id="ytick_1">
     <g id="line2d_7"/>
     <g id="text_7">
      <!-- −4 -->
      <defs>
       <path d="M 10.59375 35.5 
L 73.1875 35.5 
L 73.1875 27.203125 
L 10.59375 27.203125 
z
" id="DejaVuSans-2212"/>
      </defs>
      <g style="fill:#565656;" transform="translate(7.2 311.135063)scale(0.12 -0.12)">
       <use xlink:href="#DejaVuSans-2212"/>
       <use x="83.789062" xlink:href="#DejaVuSans-34"/>
      </g>
     </g>
    </g>
    <g id="ytick_2">
     <g id="line2d_8"/>
     <g id="text_8">
      <!-- −2 -->
      <g style="fill:#565656;" transform="translate(7.2 244.607063)scale(0.12 -0.12)">
       <use xlink:href="#DejaVuSans-2212"/>
       <use x="83.789062" xlink:href="#DejaVuSans-32"/>
      </g>
     </g>
    </g>
    <g id="ytick_3">
     <g id="line2d_9"/>
     <g id="text_9">
      <!-- 0 -->
      <g style="fill:#565656;" transform="translate(17.255625 178.079063)scale(0.12 -0.12)">
       <use xlink:href="#DejaVuSans-30"/>
      </g>
     </g>
    </g>
    <g id="ytick_4">
     <g id="line2d_10"/>
     <g id="text_10">
      <!-- 2 -->
      <g style="fill:#565656;" transform="translate(17.255625 111.551063)scale(0.12 -0.12)">
       <use xlink:href="#DejaVuSans-32"/>
      </g>
     </g>
    </g>
    <g id="ytick_5">
     <g id="line2d_11"/>
     <g id="text_11">
      <!-- 4 -->
      <g style="fill:#565656;" transform="translate(17.255625 45.023063)scale(0.12 -0.12)">
       <use xlink:href="#DejaVuSans-34"/>
      </g>
     </g>
    </g>
   </g>
   <g id="line2d_12">
    <path clip-path="url(#pa076de41cd)" d="M 30.890625 173.52 
L 37.921425 162.745211 
L 41.604225 157.494946 
L 44.617425 153.547622 
L 47.295825 150.371157 
L 49.639425 147.889647 
L 51.983025 145.717704 
L 53.991825 144.12242 
L 56.000625 142.788071 
L 58.009425 141.726501 
L 60.018225 140.947132 
L 61.692225 140.518297 
L 63.366225 140.292927 
L 65.040225 140.272414 
L 66.714225 140.456883 
L 68.388225 140.845197 
L 70.062225 141.434962 
L 72.071025 142.40339 
L 74.079825 143.648011 
L 76.088625 145.157778 
L 78.432225 147.236284 
L 80.775825 149.632247 
L 83.454225 152.721928 
L 86.467425 156.587246 
L 89.815425 161.274705 
L 94.167825 167.80095 
L 106.890225 187.208614 
L 110.238225 191.782695 
L 113.251425 195.517878 
L 115.929825 198.471695 
L 118.273425 200.734932 
L 120.617025 202.669465 
L 122.625825 204.04819 
L 124.634625 205.155944 
L 126.643425 205.982895 
L 128.317425 206.452147 
L 129.991425 206.718361 
L 131.665425 206.779896 
L 133.339425 206.636373 
L 135.013425 206.288677 
L 136.687425 205.73895 
L 138.696225 204.817458 
L 140.705025 203.618167 
L 142.713825 202.151723 
L 144.722625 200.431141 
L 147.066225 198.123089 
L 149.409825 195.517878 
L 152.088225 192.217141 
L 155.101425 188.154137 
L 158.784225 182.80036 
L 164.141025 174.564847 
L 171.841425 162.745211 
L 175.524225 157.494946 
L 178.537425 153.547622 
L 181.215825 150.371157 
L 183.559425 147.889647 
L 185.903025 145.717704 
L 187.911825 144.12242 
L 189.920625 142.788071 
L 191.929425 141.726501 
L 193.938225 140.947132 
L 195.612225 140.518297 
L 197.286225 140.292927 
L 198.960225 140.272414 
L 200.634225 140.456883 
L 202.308225 140.845197 
L 203.982225 141.434962 
L 205.991025 142.40339 
L 207.999825 143.648011 
L 210.008625 145.157778 
L 212.352225 147.236284 
L 214.695825 149.632247 
L 217.374225 152.721928 
L 220.387425 156.587246 
L 223.735425 161.274705 
L 228.087825 167.80095 
L 240.810225 187.208614 
L 244.158225 191.782695 
L 247.171425 195.517878 
L 249.849825 198.471695 
L 252.193425 200.734932 
L 254.537025 202.669465 
L 256.545825 204.04819 
L 258.554625 205.155944 
L 260.563425 205.982895 
L 262.237425 206.452147 
L 263.911425 206.718361 
L 265.585425 206.779896 
L 267.259425 206.636373 
L 268.933425 206.288677 
L 270.607425 205.73895 
L 272.616225 204.817458 
L 274.625025 203.618167 
L 276.633825 202.151723 
L 278.642625 200.431141 
L 280.986225 198.123089 
L 283.329825 195.517878 
L 286.008225 192.217141 
L 289.021425 188.154137 
L 292.704225 182.80036 
L 298.061025 174.564847 
L 305.761425 162.745211 
L 309.444225 157.494946 
L 312.457425 153.547622 
L 315.135825 150.371157 
L 317.479425 147.889647 
L 319.823025 145.717704 
L 321.831825 144.12242 
L 323.840625 142.788071 
L 325.849425 141.726501 
L 327.858225 140.947132 
L 329.532225 140.518297 
L 331.206225 140.292927 
L 332.880225 140.272414 
L 334.554225 140.456883 
L 336.228225 140.845197 
L 337.902225 141.434962 
L 339.911025 142.40339 
L 341.919825 143.648011 
L 343.928625 145.157778 
L 346.272225 147.236284 
L 348.615825 149.632247 
L 351.294225 152.721928 
L 354.307425 156.587246 
L 357.655425 161.274705 
L 362.007825 167.80095 
L 365.355825 172.997512 
L 365.355825 172.997512 
" style="fill:none;stroke:#404040;stroke-linecap:square;stroke-width:2;"/>
   </g>
   <g id="line2d_13">
    <path clip-path="url(#pa076de41cd)" d="M 30.890625 173.52 
L 37.586625 152.961717 
L 41.269425 142.389565 
L 44.282625 134.415823 
L 46.961025 127.97845 
L 49.304625 122.931712 
L 51.313425 119.090136 
L 53.322225 115.731683 
L 54.996225 113.323666 
L 56.670225 111.28678 
L 58.344225 109.633582 
L 59.683425 108.59421 
L 61.022625 107.81107 
L 62.361825 107.287254 
L 63.701025 107.024828 
L 65.040225 107.024828 
L 66.379425 107.287254 
L 67.718625 107.81107 
L 69.057825 108.59421 
L 70.397025 109.633582 
L 71.736225 110.925084 
L 73.410225 112.886163 
L 75.084225 115.221069 
L 76.758225 117.915408 
L 78.767025 121.599526 
L 80.775825 125.744494 
L 83.119425 131.113457 
L 85.797825 137.872515 
L 88.811025 146.142773 
L 92.493825 156.975159 
L 98.185425 174.564976 
L 104.546625 194.078283 
L 108.229425 204.650435 
L 111.242625 212.624177 
L 113.921025 219.06155 
L 116.264625 224.108288 
L 118.273425 227.949864 
L 120.282225 231.308317 
L 121.956225 233.716334 
L 123.630225 235.75322 
L 125.304225 237.406418 
L 126.643425 238.44579 
L 127.982625 239.22893 
L 129.321825 239.752746 
L 130.661025 240.015172 
L 132.000225 240.015172 
L 133.339425 239.752746 
L 134.678625 239.22893 
L 136.017825 238.44579 
L 137.357025 237.406418 
L 138.696225 236.114916 
L 140.370225 234.153837 
L 142.044225 231.818931 
L 143.718225 229.124592 
L 145.727025 225.440474 
L 147.735825 221.295506 
L 150.079425 215.926543 
L 152.757825 209.167485 
L 155.771025 200.897227 
L 159.453825 190.064841 
L 165.145425 172.475024 
L 171.506625 152.961717 
L 175.189425 142.389565 
L 178.202625 134.415823 
L 180.881025 127.97845 
L 183.224625 122.931712 
L 185.233425 119.090136 
L 187.242225 115.731683 
L 188.916225 113.323666 
L 190.590225 111.28678 
L 192.264225 109.633582 
L 193.603425 108.59421 
L 194.942625 107.81107 
L 196.281825 107.287254 
L 197.621025 107.024828 
L 198.960225 107.024828 
L 200.299425 107.287254 
L 201.638625 107.81107 
L 202.977825 108.59421 
L 204.317025 109.633582 
L 205.656225 110.925084 
L 207.330225 112.886163 
L 209.004225 115.221069 
L 210.678225 117.915408 
L 212.687025 121.599526 
L 214.695825 125.744494 
L 217.039425 131.113457 
L 219.717825 137.872515 
L 222.731025 146.142773 
L 226.413825 156.975159 
L 232.105425 174.564976 
L 238.466625 194.078283 
L 242.149425 204.650435 
L 245.162625 212.624177 
L 247.841025 219.06155 
L 250.184625 224.108288 
L 252.193425 227.949864 
L 254.202225 231.308317 
L 255.876225 233.716334 
L 257.550225 235.75322 
L 259.224225 237.406418 
L 260.563425 238.44579 
L 261.902625 239.22893 
L 263.241825 239.752746 
L 264.581025 240.015172 
L 265.920225 240.015172 
L 267.259425 239.752746 
L 268.598625 239.22893 
L 269.937825 238.44579 
L 271.277025 237.406418 
L 272.616225 236.114916 
L 274.290225 234.153837 
L 275.964225 231.818931 
L 277.638225 229.124592 
L 279.647025 225.440474 
L 281.655825 221.295506 
L 283.999425 215.926543 
L 286.677825 209.167485 
L 289.691025 200.897227 
L 293.373825 190.064841 
L 299.065425 172.475024 
L 305.426625 152.961717 
L 309.109425 142.389565 
L 312.122625 134.415823 
L 314.801025 127.97845 
L 317.144625 122.931712 
L 319.153425 119.090136 
L 321.162225 115.731683 
L 322.836225 113.323666 
L 324.510225 111.28678 
L 326.184225 109.633582 
L 327.523425 108.59421 
L 328.862625 107.81107 
L 330.201825 107.287254 
L 331.541025 107.024828 
L 332.880225 107.024828 
L 334.219425 107.287254 
L 335.558625 107.81107 
L 336.897825 108.59421 
L 338.237025 109.633582 
L 339.576225 110.925084 
L 341.250225 112.886163 
L 342.924225 115.221069 
L 344.598225 117.915408 
L 346.607025 121.599526 
L 348.615825 125.744494 
L 350.959425 131.113457 
L 353.637825 137.872515 
L 356.651025 146.142773 
L 360.333825 156.975159 
L 365.355825 172.475024 
L 365.355825 172.475024 
" style="fill:none;stroke:#808080;stroke-linecap:square;stroke-width:2;"/>
   </g>
   <g id="line2d_14">
    <path clip-path="url(#pa076de41cd)" d="M 30.890625 173.52 
L 37.586625 142.682576 
L 41.269425 126.824348 
L 44.282625 114.863734 
L 46.961025 105.207675 
L 49.304625 97.637568 
L 51.313425 91.875203 
L 53.322225 86.837524 
L 54.996225 83.225499 
L 56.670225 80.170169 
L 58.009425 78.139503 
L 59.348625 76.485261 
L 60.687825 75.21397 
L 61.692225 74.51489 
L 62.696625 74.035625 
L 63.701025 73.777241 
L 64.705425 73.740311 
L 65.709825 73.924917 
L 66.714225 74.330648 
L 67.718625 74.956605 
L 68.723025 75.801397 
L 70.062225 77.264886 
L 71.401425 79.10825 
L 72.740625 81.324214 
L 74.414625 84.604677 
L 76.088625 88.433333 
L 77.762625 92.786576 
L 79.771425 98.664916 
L 81.780225 105.207675 
L 84.123825 113.602865 
L 86.802225 124.077189 
L 89.815425 136.784115 
L 93.833025 154.820844 
L 107.225025 216.009367 
L 110.238225 228.308085 
L 112.916625 238.32972 
L 115.260225 246.265237 
L 117.269025 252.371149 
L 119.277825 257.777172 
L 120.951825 261.71274 
L 122.625825 265.10457 
L 124.299825 267.93175 
L 125.639025 269.775114 
L 126.978225 271.238603 
L 128.317425 272.316441 
L 129.321825 272.86912 
L 130.326225 273.201218 
L 131.330625 273.312 
L 132.335025 273.201218 
L 133.339425 272.86912 
L 134.343825 272.316441 
L 135.348225 271.544409 
L 136.687425 270.176851 
L 138.026625 268.427832 
L 139.365825 266.304255 
L 140.705025 263.814501 
L 142.379025 260.202476 
L 144.053025 256.056025 
L 146.061825 250.411058 
L 148.070625 244.0836 
L 150.414225 235.914215 
L 153.092625 225.661177 
L 156.105825 213.152182 
L 159.788625 196.81598 
L 165.815025 168.819153 
L 171.506625 142.682576 
L 175.189425 126.824348 
L 178.202625 114.863734 
L 180.881025 105.207675 
L 183.224625 97.637568 
L 185.233425 91.875203 
L 187.242225 86.837524 
L 188.916225 83.225499 
L 190.590225 80.170169 
L 191.929425 78.139503 
L 193.268625 76.485261 
L 194.607825 75.21397 
L 195.612225 74.51489 
L 196.616625 74.035625 
L 197.621025 73.777241 
L 198.625425 73.740311 
L 199.629825 73.924917 
L 200.634225 74.330648 
L 201.638625 74.956605 
L 202.643025 75.801397 
L 203.982225 77.264886 
L 205.321425 79.10825 
L 206.660625 81.324214 
L 208.334625 84.604677 
L 210.008625 88.433333 
L 211.682625 92.786576 
L 213.691425 98.664916 
L 215.700225 105.207675 
L 218.043825 113.602865 
L 220.722225 124.077189 
L 223.735425 136.784115 
L 227.753025 154.820844 
L 241.145025 216.009367 
L 244.158225 228.308085 
L 246.836625 238.32972 
L 249.180225 246.265237 
L 251.189025 252.371149 
L 253.197825 257.777172 
L 254.871825 261.71274 
L 256.545825 265.10457 
L 258.219825 267.93175 
L 259.559025 269.775114 
L 260.898225 271.238603 
L 262.237425 272.316441 
L 263.241825 272.86912 
L 264.246225 273.201218 
L 265.250625 273.312 
L 266.255025 273.201218 
L 267.259425 272.86912 
L 268.263825 272.316441 
L 269.268225 271.544409 
L 270.607425 270.176851 
L 271.946625 268.427832 
L 273.285825 266.304255 
L 274.625025 263.814501 
L 276.299025 260.202476 
L 277.973025 256.056025 
L 279.981825 250.411058 
L 281.990625 244.0836 
L 284.334225 235.914215 
L 287.012625 225.661177 
L 290.025825 213.152182 
L 293.708625 196.81598 
L 299.735025 168.819153 
L 305.426625 142.682576 
L 309.109425 126.824348 
L 312.122625 114.863734 
L 314.801025 105.207675 
L 317.144625 97.637568 
L 319.153425 91.875203 
L 321.162225 86.837524 
L 322.836225 83.225499 
L 324.510225 80.170169 
L 325.849425 78.139503 
L 327.188625 76.485261 
L 328.527825 75.21397 
L 329.532225 74.51489 
L 330.536625 74.035625 
L 331.541025 73.777241 
L 332.545425 73.740311 
L 333.549825 73.924917 
L 334.554225 74.330648 
L 335.558625 74.956605 
L 336.563025 75.801397 
L 337.902225 77.264886 
L 339.241425 79.10825 
L 340.580625 81.324214 
L 342.254625 84.604677 
L 343.928625 88.433333 
L 345.602625 92.786576 
L 347.611425 98.664916 
L 349.620225 105.207675 
L 351.963825 113.602865 
L 354.642225 124.077189 
L 357.655425 136.784115 
L 361.673025 154.820844 
L 365.355825 171.952535 
L 365.355825 171.952535 
" style="fill:none;stroke:#bfbfbf;stroke-linecap:square;stroke-width:2;"/>
   </g>
   <g id="patch_3">
    <path d="M 30.890625 339.84 
L 30.890625 7.2 
" style="fill:none;stroke:#aaaaaa;stroke-linecap:square;stroke-linejoin:miter;"/>
   </g>
   <g id="patch_4">
    <path d="M 365.690625 339.84 
L 365.690625 7.2 
" style="fill:none;stroke:#aaaaaa;stroke-linecap:square;stroke-linejoin:miter;"/>
   </g>
   <g id="patch_5">
    <path d="M 30.890625 339.84 
L 365.690625 339.84 
" style="fill:none;stroke:#aaaaaa;stroke-linecap:square;stroke-linejoin:miter;"/>
   </g>
   <g id="patch_6">
    <path d="M 30.890625 7.2 
L 365.690625 7.2 
" style="fill:none;stroke:#aaaaaa;stroke-linecap:square;stroke-linejoin:miter;"/>
   </g>
  </g>
 </g>
 <defs>
  <clipPath id="pa076de41cd">
   <rect height="332.64" width="334.8" x="30.890625" y="7.2"/>
  </clipPath>
 </defs>
</svg>
