<?xml version="1.0" encoding="utf-8" standalone="no"?>
<!DOCTYPE svg PUBLIC "-//W3C//DTD SVG 1.1//EN"
  "http://www.w3.org/Graphics/SVG/1.1/DTD/svg11.dtd">
<!-- Created with matplotlib (http://matplotlib.org/) -->
<svg height="369pt" version="1.1" viewBox="0 0 372 369" width="372pt" xmlns="http://www.w3.org/2000/svg" xmlns:xlink="http://www.w3.org/1999/xlink">
 <defs>
  <style type="text/css">
*{stroke-linecap:butt;stroke-linejoin:round;}
  </style>
 </defs>
 <g id="figure_1">
  <g id="patch_1">
   <path d="M 0 369.212812 
L 372.890625 369.212812 
L 372.890625 0 
L 0 0 
z
" style="fill:none;"/>
  </g>
  <g id="axes_1">
   <g id="patch_2">
    <path d="M 30.890625 344.399063 
L 365.690625 344.399063 
L 365.690625 11.759063 
L 30.890625 11.759063 
z
" style="fill:#ffffff;"/>
   </g>
   <g id="matplotlib.axis_1">
    <g id="xtick_1">
     <g id="line2d_1"/>
     <g id="text_1">
      <!-- −4 -->
      <defs>
       <path d="M 10.59375 35.5 
L 73.1875 35.5 
L 73.1875 27.203125 
L 10.59375 27.203125 
z
" id="DejaVuSans-2212"/>
       <path d="M 37.796875 64.3125 
L 12.890625 25.390625 
L 37.796875 25.390625 
z
M 35.203125 72.90625 
L 47.609375 72.90625 
L 47.609375 25.390625 
L 58.015625 25.390625 
L 58.015625 17.1875 
L 47.609375 17.1875 
L 47.609375 0 
L 37.796875 0 
L 37.796875 17.1875 
L 4.890625 17.1875 
L 4.890625 26.703125 
z
" id="DejaVuSans-34"/>
      </defs>
      <g style="fill:#565656;" transform="translate(55.525312 359.517187)scale(0.12 -0.12)">
       <use xlink:href="#DejaVuSans-2212"/>
       <use x="83.789062" xlink:href="#DejaVuSans-34"/>
      </g>
     </g>
    </g>
    <g id="xtick_2">
     <g id="line2d_2"/>
     <g id="text_2">
      <!-- −2 -->
      <defs>
       <path d="M 19.1875 8.296875 
L 53.609375 8.296875 
L 53.609375 0 
L 7.328125 0 
L 7.328125 8.296875 
Q 12.9375 14.109375 22.625 23.890625 
Q 32.328125 33.6875 34.8125 36.53125 
Q 39.546875 41.84375 41.421875 45.53125 
Q 43.3125 49.21875 43.3125 52.78125 
Q 43.3125 58.59375 39.234375 62.25 
Q 35.15625 65.921875 28.609375 65.921875 
Q 23.96875 65.921875 18.8125 64.3125 
Q 13.671875 62.703125 7.8125 59.421875 
L 7.8125 69.390625 
Q 13.765625 71.78125 18.9375 73 
Q 24.125 74.21875 28.421875 74.21875 
Q 39.75 74.21875 46.484375 68.546875 
Q 53.21875 62.890625 53.21875 53.421875 
Q 53.21875 48.921875 51.53125 44.890625 
Q 49.859375 40.875 45.40625 35.40625 
Q 44.1875 33.984375 37.640625 27.21875 
Q 31.109375 20.453125 19.1875 8.296875 
" id="DejaVuSans-32"/>
      </defs>
      <g style="fill:#565656;" transform="translate(122.485312 359.517187)scale(0.12 -0.12)">
       <use xlink:href="#DejaVuSans-2212"/>
       <use x="83.789062" xlink:href="#DejaVuSans-32"/>
      </g>
     </g>
    </g>
    <g id="xtick_3">
     <g id="line2d_3"/>
     <g id="text_3">
      <!-- 0 -->
      <defs>
       <path d="M 31.78125 66.40625 
Q 24.171875 66.40625 20.328125 58.90625 
Q 16.5 51.421875 16.5 36.375 
Q 16.5 21.390625 20.328125 13.890625 
Q 24.171875 6.390625 31.78125 6.390625 
Q 39.453125 6.390625 43.28125 13.890625 
Q 47.125 21.390625 47.125 36.375 
Q 47.125 51.421875 43.28125 58.90625 
Q 39.453125 66.40625 31.78125 66.40625 
M 31.78125 74.21875 
Q 44.046875 74.21875 50.515625 64.515625 
Q 56.984375 54.828125 56.984375 36.375 
Q 56.984375 17.96875 50.515625 8.265625 
Q 44.046875 -1.421875 31.78125 -1.421875 
Q 19.53125 -1.421875 13.0625 8.265625 
Q 6.59375 17.96875 6.59375 36.375 
Q 6.59375 54.828125 13.0625 64.515625 
Q 19.53125 74.21875 31.78125 74.21875 
" id="DejaVuSans-30"/>
      </defs>
      <g style="fill:#565656;" transform="translate(194.473125 359.517187)scale(0.12 -0.12)">
       <use xlink:href="#DejaVuSans-30"/>
      </g>
     </g>
    </g>
    <g id="xtick_4">
     <g id="line2d_4"/>
     <g id="text_4">
      <!-- 2 -->
      <g style="fill:#565656;" transform="translate(261.433125 359.517187)scale(0.12 -0.12)">
       <use xlink:href="#DejaVuSans-32"/>
      </g>
     </g>
    </g>
    <g id="xtick_5">
     <g id="line2d_5"/>
     <g id="text_5">
      <!-- 4 -->
      <g style="fill:#565656;" transform="translate(328.393125 359.517187)scale(0.12 -0.12)">
       <use xlink:href="#DejaVuSans-34"/>
      </g>
     </g>
    </g>
   </g>
   <g id="matplotlib.axis_2">
    <g id="ytick_1">
     <g id="line2d_6"/>
     <g id="text_6">
      <!-- −3 -->
      <defs>
       <path d="M 40.578125 39.3125 
Q 47.65625 37.796875 51.625 33 
Q 55.609375 28.21875 55.609375 21.1875 
Q 55.609375 10.40625 48.1875 4.484375 
Q 40.765625 -1.421875 27.09375 -1.421875 
Q 22.515625 -1.421875 17.65625 -0.515625 
Q 12.796875 0.390625 7.625 2.203125 
L 7.625 11.71875 
Q 11.71875 9.328125 16.59375 8.109375 
Q 21.484375 6.890625 26.8125 6.890625 
Q 36.078125 6.890625 40.9375 10.546875 
Q 45.796875 14.203125 45.796875 21.1875 
Q 45.796875 27.640625 41.28125 31.265625 
Q 36.765625 34.90625 28.71875 34.90625 
L 20.21875 34.90625 
L 20.21875 43.015625 
L 29.109375 43.015625 
Q 36.375 43.015625 40.234375 45.921875 
Q 44.09375 48.828125 44.09375 54.296875 
Q 44.09375 59.90625 40.109375 62.90625 
Q 36.140625 65.921875 28.71875 65.921875 
Q 24.65625 65.921875 20.015625 65.03125 
Q 15.375 64.15625 9.8125 62.3125 
L 9.8125 71.09375 
Q 15.4375 72.65625 20.34375 73.4375 
Q 25.25 74.21875 29.59375 74.21875 
Q 40.828125 74.21875 47.359375 69.109375 
Q 53.90625 64.015625 53.90625 55.328125 
Q 53.90625 49.265625 50.4375 45.09375 
Q 46.96875 40.921875 40.578125 39.3125 
" id="DejaVuSans-33"/>
      </defs>
      <g style="fill:#565656;" transform="translate(7.2 348.958125)scale(0.12 -0.12)">
       <use xlink:href="#DejaVuSans-2212"/>
       <use x="83.789062" xlink:href="#DejaVuSans-33"/>
      </g>
     </g>
    </g>
    <g id="ytick_2">
     <g id="line2d_7"/>
     <g id="text_7">
      <!-- −2 -->
      <g style="fill:#565656;" transform="translate(7.2 282.430125)scale(0.12 -0.12)">
       <use xlink:href="#DejaVuSans-2212"/>
       <use x="83.789062" xlink:href="#DejaVuSans-32"/>
      </g>
     </g>
    </g>
    <g id="ytick_3">
     <g id="line2d_8"/>
     <g id="text_8">
      <!-- −1 -->
      <defs>
       <path d="M 12.40625 8.296875 
L 28.515625 8.296875 
L 28.515625 63.921875 
L 10.984375 60.40625 
L 10.984375 69.390625 
L 28.421875 72.90625 
L 38.28125 72.90625 
L 38.28125 8.296875 
L 54.390625 8.296875 
L 54.390625 0 
L 12.40625 0 
z
" id="DejaVuSans-31"/>
      </defs>
      <g style="fill:#565656;" transform="translate(7.2 215.902125)scale(0.12 -0.12)">
       <use xlink:href="#DejaVuSans-2212"/>
       <use x="83.789062" xlink:href="#DejaVuSans-31"/>
      </g>
     </g>
    </g>
    <g id="ytick_4">
     <g id="line2d_9"/>
     <g id="text_9">
      <!-- 0 -->
      <g style="fill:#565656;" transform="translate(17.255625 149.374125)scale(0.12 -0.12)">
       <use xlink:href="#DejaVuSans-30"/>
      </g>
     </g>
    </g>
    <g id="ytick_5">
     <g id="line2d_10"/>
     <g id="text_10">
      <!-- 1 -->
      <g style="fill:#565656;" transform="translate(17.255625 82.846125)scale(0.12 -0.12)">
       <use xlink:href="#DejaVuSans-31"/>
      </g>
     </g>
    </g>
    <g id="ytick_6">
     <g id="line2d_11"/>
     <g id="text_11">
      <!-- 2 -->
      <g style="fill:#565656;" transform="translate(17.255625 16.318125)scale(0.12 -0.12)">
       <use xlink:href="#DejaVuSans-32"/>
      </g>
     </g>
    </g>
   </g>
   <g id="line2d_12">
    <path clip-path="url(#p3e11134005)" d="M 30.890625 78.28731 
L 78.432225 78.3967 
L 89.815425 78.636589 
L 97.515825 79.004243 
L 103.542225 79.500155 
L 108.564225 80.120922 
L 112.916625 80.863411 
L 116.934225 81.760598 
L 120.617025 82.79763 
L 124.299825 84.073825 
L 127.647825 85.469027 
L 130.995825 87.111924 
L 134.343825 89.022744 
L 137.691825 91.217356 
L 141.039825 93.705637 
L 144.387825 96.489817 
L 147.735825 99.562919 
L 151.418625 103.255759 
L 155.436225 107.61155 
L 160.458225 113.421189 
L 174.854625 130.35883 
L 178.202625 133.855919 
L 181.215825 136.702075 
L 183.894225 138.940294 
L 186.237825 140.640756 
L 188.581425 142.075562 
L 190.925025 143.224409 
L 192.933825 143.968931 
L 194.942625 144.483253 
L 196.951425 144.761861 
L 198.960225 144.801758 
L 200.969025 144.602513 
L 202.977825 144.166272 
L 204.986625 143.49772 
L 206.995425 142.603994 
L 209.339025 141.289468 
L 211.682625 139.700147 
L 214.026225 137.858303 
L 216.704625 135.476711 
L 219.717825 132.49476 
L 223.400625 128.505032 
L 228.087825 123.058613 
L 241.814625 106.864654 
L 245.832225 102.561477 
L 249.515025 98.925865 
L 252.863025 95.909499 
L 256.211025 93.184257 
L 259.559025 90.755157 
L 262.907025 88.618309 
L 266.255025 86.762505 
L 269.603025 85.170877 
L 272.951025 83.822513 
L 276.633825 82.59226 
L 280.316625 81.595159 
L 284.334225 80.734821 
L 288.686625 80.024868 
L 293.708625 79.433172 
L 299.735025 78.962208 
L 307.100625 78.625429 
L 317.144625 78.409076 
L 333.884625 78.305312 
L 365.355825 78.287323 
L 365.355825 78.287323 
" style="fill:none;stroke:#404040;stroke-linecap:square;stroke-width:2;"/>
   </g>
   <g id="line2d_13">
    <path clip-path="url(#p3e11134005)" d="M 30.890625 78.287558 
L 72.405825 78.400327 
L 83.119425 78.64549 
L 90.150225 79.009099 
L 95.841825 79.519471 
L 100.529025 80.160116 
L 104.546625 80.927039 
L 108.229425 81.857614 
L 111.577425 82.936378 
L 114.590625 84.133135 
L 117.603825 85.578641 
L 120.282225 87.100875 
L 122.960625 88.872932 
L 125.639025 90.920159 
L 128.317425 93.267124 
L 130.995825 95.936786 
L 133.674225 98.949555 
L 136.352625 102.322279 
L 139.031025 106.067167 
L 141.709425 110.190702 
L 144.387825 114.692571 
L 147.401025 120.198975 
L 150.749025 126.835892 
L 154.431825 134.701217 
L 158.449425 143.830959 
L 164.141025 157.375769 
L 171.841425 175.676727 
L 175.524225 183.877741 
L 178.537425 190.088016 
L 181.215825 195.117087 
L 183.559425 199.066988 
L 185.568225 202.075021 
L 187.577025 204.702056 
L 189.251025 206.580496 
L 190.925025 208.161756 
L 192.599025 209.434228 
L 194.273025 210.3885 
L 195.612225 210.917964 
L 196.951425 211.23666 
L 198.290625 211.343062 
L 199.629825 211.23666 
L 200.969025 210.917964 
L 202.308225 210.3885 
L 203.647425 209.650799 
L 205.321425 208.441287 
L 206.995425 206.920925 
L 208.669425 205.100891 
L 210.678225 202.540098 
L 212.687025 199.593525 
L 215.030625 195.70857 
L 217.374225 191.392459 
L 220.052625 186.005428 
L 223.400625 178.723001 
L 227.418225 169.420073 
L 242.484225 133.964227 
L 246.167025 126.148977 
L 249.515025 119.564667 
L 252.528225 114.109344 
L 255.541425 109.124211 
L 258.219825 105.095592 
L 260.898225 101.444595 
L 263.576625 98.163204 
L 266.255025 95.237948 
L 268.933425 92.650991 
L 271.611825 90.381191 
L 274.290225 88.405104 
L 276.968625 86.697892 
L 279.647025 85.234133 
L 282.660225 83.846907 
L 285.673425 82.700792 
L 289.021425 81.669918 
L 292.704225 80.782765 
L 296.721825 80.053509 
L 301.409025 79.446077 
L 306.765825 78.986115 
L 313.461825 78.64549 
L 322.501425 78.423583 
L 337.567425 78.310299 
L 365.355825 78.287584 
L 365.355825 78.287584 
" style="fill:none;stroke:#808080;stroke-linecap:square;stroke-width:2;"/>
   </g>
   <g id="line2d_14">
    <path clip-path="url(#p3e11134005)" d="M 30.890625 78.287806 
L 69.057825 78.403132 
L 79.436625 78.653102 
L 86.467425 79.041665 
L 91.824225 79.558356 
L 96.176625 80.193021 
L 99.859425 80.936733 
L 103.207425 81.824615 
L 106.220625 82.836416 
L 109.233825 84.090412 
L 111.912225 85.443664 
L 114.590625 87.056171 
L 116.934225 88.707669 
L 119.277825 90.609665 
L 121.621425 92.787592 
L 123.965025 95.267046 
L 126.308625 98.073272 
L 128.652225 101.230575 
L 130.995825 104.761647 
L 133.339425 108.686837 
L 135.683025 113.023361 
L 138.026625 117.784476 
L 140.705025 123.756264 
L 143.383425 130.297021 
L 146.061825 137.399136 
L 149.075025 146.034403 
L 152.423025 156.371065 
L 156.105825 168.523671 
L 160.458225 183.689441 
L 174.519825 233.40492 
L 177.533025 242.972168 
L 180.211425 250.793611 
L 182.555025 257.000783 
L 184.563825 261.781655 
L 186.572625 266.013391 
L 188.246625 269.088864 
L 189.920625 271.730508 
L 191.594625 273.919035 
L 192.933825 275.332668 
L 194.273025 276.439219 
L 195.612225 277.233414 
L 196.951425 277.711459 
L 197.955825 277.861084 
L 198.960225 277.83115 
L 199.964625 277.621738 
L 200.969025 277.233414 
L 202.308225 276.439219 
L 203.647425 275.332668 
L 204.986625 273.919035 
L 206.325825 272.205026 
L 207.999825 269.65256 
L 209.673825 266.662165 
L 211.347825 263.2555 
L 213.356625 258.652536 
L 215.700225 252.631907 
L 218.043825 245.988493 
L 220.722225 237.745802 
L 224.070225 226.668346 
L 228.422625 211.404962 
L 240.810225 167.389367 
L 244.493025 155.304757 
L 247.841025 145.042463 
L 250.854225 136.481234 
L 253.867425 128.608702 
L 256.545825 122.209935 
L 259.224225 116.38024 
L 261.902625 111.113532 
L 264.246225 106.955168 
L 266.589825 103.201195 
L 268.933425 99.832955 
L 271.277025 96.829003 
L 273.620625 94.165867 
L 275.964225 91.818764 
L 278.307825 89.762228 
L 280.651425 87.970677 
L 283.329825 86.215335 
L 286.008225 84.736773 
L 288.686625 83.500478 
L 291.699825 82.35927 
L 295.047825 81.352484 
L 298.730625 80.50424 
L 302.748225 79.822838 
L 307.435425 79.269651 
L 313.127025 78.843492 
L 320.157825 78.55192 
L 330.536625 78.368737 
L 349.955025 78.294046 
L 365.355825 78.287844 
L 365.355825 78.287844 
" style="fill:none;stroke:#bfbfbf;stroke-linecap:square;stroke-width:2;"/>
   </g>
   <g id="patch_3">
    <path d="M 30.890625 344.399062 
L 30.890625 11.759062 
" style="fill:none;stroke:#aaaaaa;stroke-linecap:square;stroke-linejoin:miter;"/>
   </g>
   <g id="patch_4">
    <path d="M 365.690625 344.399062 
L 365.690625 11.759062 
" style="fill:none;stroke:#aaaaaa;stroke-linecap:square;stroke-linejoin:miter;"/>
   </g>
   <g id="patch_5">
    <path d="M 30.890625 344.399063 
L 365.690625 344.399063 
" style="fill:none;stroke:#aaaaaa;stroke-linecap:square;stroke-linejoin:miter;"/>
   </g>
   <g id="patch_6">
    <path d="M 30.890625 11.759063 
L 365.690625 11.759063 
" style="fill:none;stroke:#aaaaaa;stroke-linecap:square;stroke-linejoin:miter;"/>
   </g>
  </g>
 </g>
 <defs>
  <clipPath id="p3e11134005">
   <rect height="332.64" width="334.8" x="30.890625" y="11.759062"/>
  </clipPath>
 </defs>
</svg>
