<?xml version="1.0" encoding="utf-8" standalone="no"?>
<!DOCTYPE svg PUBLIC "-//W3C//DTD SVG 1.1//EN"
  "http://www.w3.org/Graphics/SVG/1.1/DTD/svg11.dtd">
<!-- Created with matplotlib (http://matplotlib.org/) -->
<svg height="401pt" version="1.1" viewBox="0 0 392 401" width="392pt" xmlns="http://www.w3.org/2000/svg" xmlns:xlink="http://www.w3.org/1999/xlink">
 <defs>
  <style type="text/css">
*{stroke-linecap:butt;stroke-linejoin:round;}
  </style>
 </defs>
 <g id="figure_1">
  <g id="patch_1">
   <path d="M 0 401.72035 
L 392.22025 401.72035 
L 392.22025 0 
L 0 0 
z
" style="fill:none;"/>
  </g>
  <g id="axes_1">
   <g id="patch_2">
    <path d="M 50.22025 358.9701 
L 385.02025 358.9701 
L 385.02025 26.3301 
L 50.22025 26.3301 
z
" style="fill:#ffffff;"/>
   </g>
   <g id="matplotlib.axis_1">
    <g id="xtick_1">
     <g id="line2d_1"/>
     <g id="text_1">
      <!-- 20 -->
      <defs>
       <path d="M 19.1875 8.296875 
L 53.609375 8.296875 
L 53.609375 0 
L 7.328125 0 
L 7.328125 8.296875 
Q 12.9375 14.109375 22.625 23.890625 
Q 32.328125 33.6875 34.8125 36.53125 
Q 39.546875 41.84375 41.421875 45.53125 
Q 43.3125 49.21875 43.3125 52.78125 
Q 43.3125 58.59375 39.234375 62.25 
Q 35.15625 65.921875 28.609375 65.921875 
Q 23.96875 65.921875 18.8125 64.3125 
Q 13.671875 62.703125 7.8125 59.421875 
L 7.8125 69.390625 
Q 13.765625 71.78125 18.9375 73 
Q 24.125 74.21875 28.421875 74.21875 
Q 39.75 74.21875 46.484375 68.546875 
Q 53.21875 62.890625 53.21875 53.421875 
Q 53.21875 48.921875 51.53125 44.890625 
Q 49.859375 40.875 45.40625 35.40625 
Q 44.1875 33.984375 37.640625 27.21875 
Q 31.109375 20.453125 19.1875 8.296875 
" id="DejaVuSans-32"/>
       <path d="M 31.78125 66.40625 
Q 24.171875 66.40625 20.328125 58.90625 
Q 16.5 51.421875 16.5 36.375 
Q 16.5 21.390625 20.328125 13.890625 
Q 24.171875 6.390625 31.78125 6.390625 
Q 39.453125 6.390625 43.28125 13.890625 
Q 47.125 21.390625 47.125 36.375 
Q 47.125 51.421875 43.28125 58.90625 
Q 39.453125 66.40625 31.78125 66.40625 
M 31.78125 74.21875 
Q 44.046875 74.21875 50.515625 64.515625 
Q 56.984375 54.828125 56.984375 36.375 
Q 56.984375 17.96875 50.515625 8.265625 
Q 44.046875 -1.421875 31.78125 -1.421875 
Q 19.53125 -1.421875 13.0625 8.265625 
Q 6.59375 17.96875 6.59375 36.375 
Q 6.59375 54.828125 13.0625 64.515625 
Q 19.53125 74.21875 31.78125 74.21875 
" id="DejaVuSans-30"/>
      </defs>
      <g style="fill:#565656;" transform="translate(57.803432 374.088225)scale(0.12 -0.12)">
       <use xlink:href="#DejaVuSans-32"/>
       <use x="63.623047" xlink:href="#DejaVuSans-30"/>
      </g>
     </g>
    </g>
    <g id="xtick_2">
     <g id="line2d_2"/>
     <g id="text_2">
      <!-- 22 -->
      <g style="fill:#565656;" transform="translate(118.676159 374.088225)scale(0.12 -0.12)">
       <use xlink:href="#DejaVuSans-32"/>
       <use x="63.623047" xlink:href="#DejaVuSans-32"/>
      </g>
     </g>
    </g>
    <g id="xtick_3">
     <g id="line2d_3"/>
     <g id="text_3">
      <!-- 24 -->
      <defs>
       <path d="M 37.796875 64.3125 
L 12.890625 25.390625 
L 37.796875 25.390625 
z
M 35.203125 72.90625 
L 47.609375 72.90625 
L 47.609375 25.390625 
L 58.015625 25.390625 
L 58.015625 17.1875 
L 47.609375 17.1875 
L 47.609375 0 
L 37.796875 0 
L 37.796875 17.1875 
L 4.890625 17.1875 
L 4.890625 26.703125 
z
" id="DejaVuSans-34"/>
      </defs>
      <g style="fill:#565656;" transform="translate(179.548886 374.088225)scale(0.12 -0.12)">
       <use xlink:href="#DejaVuSans-32"/>
       <use x="63.623047" xlink:href="#DejaVuSans-34"/>
      </g>
     </g>
    </g>
    <g id="xtick_4">
     <g id="line2d_4"/>
     <g id="text_4">
      <!-- 26 -->
      <defs>
       <path d="M 33.015625 40.375 
Q 26.375 40.375 22.484375 35.828125 
Q 18.609375 31.296875 18.609375 23.390625 
Q 18.609375 15.53125 22.484375 10.953125 
Q 26.375 6.390625 33.015625 6.390625 
Q 39.65625 6.390625 43.53125 10.953125 
Q 47.40625 15.53125 47.40625 23.390625 
Q 47.40625 31.296875 43.53125 35.828125 
Q 39.65625 40.375 33.015625 40.375 
M 52.59375 71.296875 
L 52.59375 62.3125 
Q 48.875 64.0625 45.09375 64.984375 
Q 41.3125 65.921875 37.59375 65.921875 
Q 27.828125 65.921875 22.671875 59.328125 
Q 17.53125 52.734375 16.796875 39.40625 
Q 19.671875 43.65625 24.015625 45.921875 
Q 28.375 48.1875 33.59375 48.1875 
Q 44.578125 48.1875 50.953125 41.515625 
Q 57.328125 34.859375 57.328125 23.390625 
Q 57.328125 12.15625 50.6875 5.359375 
Q 44.046875 -1.421875 33.015625 -1.421875 
Q 20.359375 -1.421875 13.671875 8.265625 
Q 6.984375 17.96875 6.984375 36.375 
Q 6.984375 53.65625 15.1875 63.9375 
Q 23.390625 74.21875 37.203125 74.21875 
Q 40.921875 74.21875 44.703125 73.484375 
Q 48.484375 72.75 52.59375 71.296875 
" id="DejaVuSans-36"/>
      </defs>
      <g style="fill:#565656;" transform="translate(240.421614 374.088225)scale(0.12 -0.12)">
       <use xlink:href="#DejaVuSans-32"/>
       <use x="63.623047" xlink:href="#DejaVuSans-36"/>
      </g>
     </g>
    </g>
    <g id="xtick_5">
     <g id="line2d_5"/>
     <g id="text_5">
      <!-- 28 -->
      <defs>
       <path d="M 31.78125 34.625 
Q 24.75 34.625 20.71875 30.859375 
Q 16.703125 27.09375 16.703125 20.515625 
Q 16.703125 13.921875 20.71875 10.15625 
Q 24.75 6.390625 31.78125 6.390625 
Q 38.8125 6.390625 42.859375 10.171875 
Q 46.921875 13.96875 46.921875 20.515625 
Q 46.921875 27.09375 42.890625 30.859375 
Q 38.875 34.625 31.78125 34.625 
M 21.921875 38.8125 
Q 15.578125 40.375 12.03125 44.71875 
Q 8.5 49.078125 8.5 55.328125 
Q 8.5 64.0625 14.71875 69.140625 
Q 20.953125 74.21875 31.78125 74.21875 
Q 42.671875 74.21875 48.875 69.140625 
Q 55.078125 64.0625 55.078125 55.328125 
Q 55.078125 49.078125 51.53125 44.71875 
Q 48 40.375 41.703125 38.8125 
Q 48.828125 37.15625 52.796875 32.3125 
Q 56.78125 27.484375 56.78125 20.515625 
Q 56.78125 9.90625 50.3125 4.234375 
Q 43.84375 -1.421875 31.78125 -1.421875 
Q 19.734375 -1.421875 13.25 4.234375 
Q 6.78125 9.90625 6.78125 20.515625 
Q 6.78125 27.484375 10.78125 32.3125 
Q 14.796875 37.15625 21.921875 38.8125 
M 18.3125 54.390625 
Q 18.3125 48.734375 21.84375 45.5625 
Q 25.390625 42.390625 31.78125 42.390625 
Q 38.140625 42.390625 41.71875 45.5625 
Q 45.3125 48.734375 45.3125 54.390625 
Q 45.3125 60.0625 41.71875 63.234375 
Q 38.140625 66.40625 31.78125 66.40625 
Q 25.390625 66.40625 21.84375 63.234375 
Q 18.3125 60.0625 18.3125 54.390625 
" id="DejaVuSans-38"/>
      </defs>
      <g style="fill:#565656;" transform="translate(301.294341 374.088225)scale(0.12 -0.12)">
       <use xlink:href="#DejaVuSans-32"/>
       <use x="63.623047" xlink:href="#DejaVuSans-38"/>
      </g>
     </g>
    </g>
    <g id="xtick_6">
     <g id="line2d_6"/>
     <g id="text_6">
      <!-- 30 -->
      <defs>
       <path d="M 40.578125 39.3125 
Q 47.65625 37.796875 51.625 33 
Q 55.609375 28.21875 55.609375 21.1875 
Q 55.609375 10.40625 48.1875 4.484375 
Q 40.765625 -1.421875 27.09375 -1.421875 
Q 22.515625 -1.421875 17.65625 -0.515625 
Q 12.796875 0.390625 7.625 2.203125 
L 7.625 11.71875 
Q 11.71875 9.328125 16.59375 8.109375 
Q 21.484375 6.890625 26.8125 6.890625 
Q 36.078125 6.890625 40.9375 10.546875 
Q 45.796875 14.203125 45.796875 21.1875 
Q 45.796875 27.640625 41.28125 31.265625 
Q 36.765625 34.90625 28.71875 34.90625 
L 20.21875 34.90625 
L 20.21875 43.015625 
L 29.109375 43.015625 
Q 36.375 43.015625 40.234375 45.921875 
Q 44.09375 48.828125 44.09375 54.296875 
Q 44.09375 59.90625 40.109375 62.90625 
Q 36.140625 65.921875 28.71875 65.921875 
Q 24.65625 65.921875 20.015625 65.03125 
Q 15.375 64.15625 9.8125 62.3125 
L 9.8125 71.09375 
Q 15.4375 72.65625 20.34375 73.4375 
Q 25.25 74.21875 29.59375 74.21875 
Q 40.828125 74.21875 47.359375 69.109375 
Q 53.90625 64.015625 53.90625 55.328125 
Q 53.90625 49.265625 50.4375 45.09375 
Q 46.96875 40.921875 40.578125 39.3125 
" id="DejaVuSans-33"/>
      </defs>
      <g style="fill:#565656;" transform="translate(362.167068 374.088225)scale(0.12 -0.12)">
       <use xlink:href="#DejaVuSans-33"/>
       <use x="63.623047" xlink:href="#DejaVuSans-30"/>
      </g>
     </g>
    </g>
    <g id="text_7">
     <!-- Magnitude -->
     <defs>
      <path d="M 9.8125 72.90625 
L 24.515625 72.90625 
L 43.109375 23.296875 
L 61.8125 72.90625 
L 76.515625 72.90625 
L 76.515625 0 
L 66.890625 0 
L 66.890625 64.015625 
L 48.09375 14.015625 
L 38.1875 14.015625 
L 19.390625 64.015625 
L 19.390625 0 
L 9.8125 0 
z
" id="DejaVuSans-4d"/>
      <path d="M 34.28125 27.484375 
Q 23.390625 27.484375 19.1875 25 
Q 14.984375 22.515625 14.984375 16.5 
Q 14.984375 11.71875 18.140625 8.90625 
Q 21.296875 6.109375 26.703125 6.109375 
Q 34.1875 6.109375 38.703125 11.40625 
Q 43.21875 16.703125 43.21875 25.484375 
L 43.21875 27.484375 
z
M 52.203125 31.203125 
L 52.203125 0 
L 43.21875 0 
L 43.21875 8.296875 
Q 40.140625 3.328125 35.546875 0.953125 
Q 30.953125 -1.421875 24.3125 -1.421875 
Q 15.921875 -1.421875 10.953125 3.296875 
Q 6 8.015625 6 15.921875 
Q 6 25.140625 12.171875 29.828125 
Q 18.359375 34.515625 30.609375 34.515625 
L 43.21875 34.515625 
L 43.21875 35.40625 
Q 43.21875 41.609375 39.140625 45 
Q 35.0625 48.390625 27.6875 48.390625 
Q 23 48.390625 18.546875 47.265625 
Q 14.109375 46.140625 10.015625 43.890625 
L 10.015625 52.203125 
Q 14.9375 54.109375 19.578125 55.046875 
Q 24.21875 56 28.609375 56 
Q 40.484375 56 46.34375 49.84375 
Q 52.203125 43.703125 52.203125 31.203125 
" id="DejaVuSans-61"/>
      <path d="M 45.40625 27.984375 
Q 45.40625 37.75 41.375 43.109375 
Q 37.359375 48.484375 30.078125 48.484375 
Q 22.859375 48.484375 18.828125 43.109375 
Q 14.796875 37.75 14.796875 27.984375 
Q 14.796875 18.265625 18.828125 12.890625 
Q 22.859375 7.515625 30.078125 7.515625 
Q 37.359375 7.515625 41.375 12.890625 
Q 45.40625 18.265625 45.40625 27.984375 
M 54.390625 6.78125 
Q 54.390625 -7.171875 48.1875 -13.984375 
Q 42 -20.796875 29.203125 -20.796875 
Q 24.46875 -20.796875 20.265625 -20.09375 
Q 16.0625 -19.390625 12.109375 -17.921875 
L 12.109375 -9.1875 
Q 16.0625 -11.328125 19.921875 -12.34375 
Q 23.78125 -13.375 27.78125 -13.375 
Q 36.625 -13.375 41.015625 -8.765625 
Q 45.40625 -4.15625 45.40625 5.171875 
L 45.40625 9.625 
Q 42.625 4.78125 38.28125 2.390625 
Q 33.9375 0 27.875 0 
Q 17.828125 0 11.671875 7.65625 
Q 5.515625 15.328125 5.515625 27.984375 
Q 5.515625 40.671875 11.671875 48.328125 
Q 17.828125 56 27.875 56 
Q 33.9375 56 38.28125 53.609375 
Q 42.625 51.21875 45.40625 46.390625 
L 45.40625 54.6875 
L 54.390625 54.6875 
z
" id="DejaVuSans-67"/>
      <path d="M 54.890625 33.015625 
L 54.890625 0 
L 45.90625 0 
L 45.90625 32.71875 
Q 45.90625 40.484375 42.875 44.328125 
Q 39.84375 48.1875 33.796875 48.1875 
Q 26.515625 48.1875 22.3125 43.546875 
Q 18.109375 38.921875 18.109375 30.90625 
L 18.109375 0 
L 9.078125 0 
L 9.078125 54.6875 
L 18.109375 54.6875 
L 18.109375 46.1875 
Q 21.34375 51.125 25.703125 53.5625 
Q 30.078125 56 35.796875 56 
Q 45.21875 56 50.046875 50.171875 
Q 54.890625 44.34375 54.890625 33.015625 
" id="DejaVuSans-6e"/>
      <path d="M 9.421875 54.6875 
L 18.40625 54.6875 
L 18.40625 0 
L 9.421875 0 
z
M 9.421875 75.984375 
L 18.40625 75.984375 
L 18.40625 64.59375 
L 9.421875 64.59375 
z
" id="DejaVuSans-69"/>
      <path d="M 18.3125 70.21875 
L 18.3125 54.6875 
L 36.8125 54.6875 
L 36.8125 47.703125 
L 18.3125 47.703125 
L 18.3125 18.015625 
Q 18.3125 11.328125 20.140625 9.421875 
Q 21.96875 7.515625 27.59375 7.515625 
L 36.8125 7.515625 
L 36.8125 0 
L 27.59375 0 
Q 17.1875 0 13.234375 3.875 
Q 9.28125 7.765625 9.28125 18.015625 
L 9.28125 47.703125 
L 2.6875 47.703125 
L 2.6875 54.6875 
L 9.28125 54.6875 
L 9.28125 70.21875 
z
" id="DejaVuSans-74"/>
      <path d="M 8.5 21.578125 
L 8.5 54.6875 
L 17.484375 54.6875 
L 17.484375 21.921875 
Q 17.484375 14.15625 20.5 10.265625 
Q 23.53125 6.390625 29.59375 6.390625 
Q 36.859375 6.390625 41.078125 11.03125 
Q 45.3125 15.671875 45.3125 23.6875 
L 45.3125 54.6875 
L 54.296875 54.6875 
L 54.296875 0 
L 45.3125 0 
L 45.3125 8.40625 
Q 42.046875 3.421875 37.71875 1 
Q 33.40625 -1.421875 27.6875 -1.421875 
Q 18.265625 -1.421875 13.375 4.4375 
Q 8.5 10.296875 8.5 21.578125 
M 31.109375 56 
z
" id="DejaVuSans-75"/>
      <path d="M 45.40625 46.390625 
L 45.40625 75.984375 
L 54.390625 75.984375 
L 54.390625 0 
L 45.40625 0 
L 45.40625 8.203125 
Q 42.578125 3.328125 38.25 0.953125 
Q 33.9375 -1.421875 27.875 -1.421875 
Q 17.96875 -1.421875 11.734375 6.484375 
Q 5.515625 14.40625 5.515625 27.296875 
Q 5.515625 40.1875 11.734375 48.09375 
Q 17.96875 56 27.875 56 
Q 33.9375 56 38.25 53.625 
Q 42.578125 51.265625 45.40625 46.390625 
M 14.796875 27.296875 
Q 14.796875 17.390625 18.875 11.75 
Q 22.953125 6.109375 30.078125 6.109375 
Q 37.203125 6.109375 41.296875 11.75 
Q 45.40625 17.390625 45.40625 27.296875 
Q 45.40625 37.203125 41.296875 42.84375 
Q 37.203125 48.484375 30.078125 48.484375 
Q 22.953125 48.484375 18.875 42.84375 
Q 14.796875 37.203125 14.796875 27.296875 
" id="DejaVuSans-64"/>
      <path d="M 56.203125 29.59375 
L 56.203125 25.203125 
L 14.890625 25.203125 
Q 15.484375 15.921875 20.484375 11.0625 
Q 25.484375 6.203125 34.421875 6.203125 
Q 39.59375 6.203125 44.453125 7.46875 
Q 49.3125 8.734375 54.109375 11.28125 
L 54.109375 2.78125 
Q 49.265625 0.734375 44.1875 -0.34375 
Q 39.109375 -1.421875 33.890625 -1.421875 
Q 20.796875 -1.421875 13.15625 6.1875 
Q 5.515625 13.8125 5.515625 26.8125 
Q 5.515625 40.234375 12.765625 48.109375 
Q 20.015625 56 32.328125 56 
Q 43.359375 56 49.78125 48.890625 
Q 56.203125 41.796875 56.203125 29.59375 
M 47.21875 32.234375 
Q 47.125 39.59375 43.09375 43.984375 
Q 39.0625 48.390625 32.421875 48.390625 
Q 24.90625 48.390625 20.390625 44.140625 
Q 15.875 39.890625 15.1875 32.171875 
z
" id="DejaVuSans-65"/>
     </defs>
     <g transform="translate(179.474875 391.5256)scale(0.144 -0.144)">
      <use xlink:href="#DejaVuSans-4d"/>
      <use x="86.279297" xlink:href="#DejaVuSans-61"/>
      <use x="147.558594" xlink:href="#DejaVuSans-67"/>
      <use x="211.035156" xlink:href="#DejaVuSans-6e"/>
      <use x="274.414062" xlink:href="#DejaVuSans-69"/>
      <use x="302.197266" xlink:href="#DejaVuSans-74"/>
      <use x="341.40625" xlink:href="#DejaVuSans-75"/>
      <use x="404.785156" xlink:href="#DejaVuSans-64"/>
      <use x="468.261719" xlink:href="#DejaVuSans-65"/>
     </g>
    </g>
   </g>
   <g id="matplotlib.axis_2">
    <g id="ytick_1">
     <g id="line2d_7"/>
     <g id="text_8">
      <!-- 0.0 -->
      <defs>
       <path d="M 10.6875 12.40625 
L 21 12.40625 
L 21 0 
L 10.6875 0 
z
" id="DejaVuSans-2e"/>
      </defs>
      <g style="fill:#565656;" transform="translate(25.1365 363.529163)scale(0.12 -0.12)">
       <use xlink:href="#DejaVuSans-30"/>
       <use x="63.623047" xlink:href="#DejaVuSans-2e"/>
       <use x="95.410156" xlink:href="#DejaVuSans-30"/>
      </g>
     </g>
    </g>
    <g id="ytick_2">
     <g id="line2d_8"/>
     <g id="text_9">
      <!-- 0.2 -->
      <g style="fill:#565656;" transform="translate(25.1365 297.001163)scale(0.12 -0.12)">
       <use xlink:href="#DejaVuSans-30"/>
       <use x="63.623047" xlink:href="#DejaVuSans-2e"/>
       <use x="95.410156" xlink:href="#DejaVuSans-32"/>
      </g>
     </g>
    </g>
    <g id="ytick_3">
     <g id="line2d_9"/>
     <g id="text_10">
      <!-- 0.4 -->
      <g style="fill:#565656;" transform="translate(25.1365 230.473163)scale(0.12 -0.12)">
       <use xlink:href="#DejaVuSans-30"/>
       <use x="63.623047" xlink:href="#DejaVuSans-2e"/>
       <use x="95.410156" xlink:href="#DejaVuSans-34"/>
      </g>
     </g>
    </g>
    <g id="ytick_4">
     <g id="line2d_10"/>
     <g id="text_11">
      <!-- 0.6 -->
      <g style="fill:#565656;" transform="translate(25.1365 163.945163)scale(0.12 -0.12)">
       <use xlink:href="#DejaVuSans-30"/>
       <use x="63.623047" xlink:href="#DejaVuSans-2e"/>
       <use x="95.410156" xlink:href="#DejaVuSans-36"/>
      </g>
     </g>
    </g>
    <g id="ytick_5">
     <g id="line2d_11"/>
     <g id="text_12">
      <!-- 0.8 -->
      <g style="fill:#565656;" transform="translate(25.1365 97.417163)scale(0.12 -0.12)">
       <use xlink:href="#DejaVuSans-30"/>
       <use x="63.623047" xlink:href="#DejaVuSans-2e"/>
       <use x="95.410156" xlink:href="#DejaVuSans-38"/>
      </g>
     </g>
    </g>
    <g id="ytick_6">
     <g id="line2d_12"/>
     <g id="text_13">
      <!-- 1.0 -->
      <defs>
       <path d="M 12.40625 8.296875 
L 28.515625 8.296875 
L 28.515625 63.921875 
L 10.984375 60.40625 
L 10.984375 69.390625 
L 28.421875 72.90625 
L 38.28125 72.90625 
L 38.28125 8.296875 
L 54.390625 8.296875 
L 54.390625 0 
L 12.40625 0 
z
" id="DejaVuSans-31"/>
      </defs>
      <g style="fill:#565656;" transform="translate(25.1365 30.889162)scale(0.12 -0.12)">
       <use xlink:href="#DejaVuSans-31"/>
       <use x="63.623047" xlink:href="#DejaVuSans-2e"/>
       <use x="95.410156" xlink:href="#DejaVuSans-30"/>
      </g>
     </g>
    </g>
    <g id="text_14">
     <!-- Detection efficiency -->
     <defs>
      <path d="M 19.671875 64.796875 
L 19.671875 8.109375 
L 31.59375 8.109375 
Q 46.6875 8.109375 53.6875 14.9375 
Q 60.6875 21.78125 60.6875 36.53125 
Q 60.6875 51.171875 53.6875 57.984375 
Q 46.6875 64.796875 31.59375 64.796875 
z
M 9.8125 72.90625 
L 30.078125 72.90625 
Q 51.265625 72.90625 61.171875 64.09375 
Q 71.09375 55.28125 71.09375 36.53125 
Q 71.09375 17.671875 61.125 8.828125 
Q 51.171875 0 30.078125 0 
L 9.8125 0 
z
" id="DejaVuSans-44"/>
      <path d="M 48.78125 52.59375 
L 48.78125 44.1875 
Q 44.96875 46.296875 41.140625 47.34375 
Q 37.3125 48.390625 33.40625 48.390625 
Q 24.65625 48.390625 19.8125 42.84375 
Q 14.984375 37.3125 14.984375 27.296875 
Q 14.984375 17.28125 19.8125 11.734375 
Q 24.65625 6.203125 33.40625 6.203125 
Q 37.3125 6.203125 41.140625 7.25 
Q 44.96875 8.296875 48.78125 10.40625 
L 48.78125 2.09375 
Q 45.015625 0.34375 40.984375 -0.53125 
Q 36.96875 -1.421875 32.421875 -1.421875 
Q 20.0625 -1.421875 12.78125 6.34375 
Q 5.515625 14.109375 5.515625 27.296875 
Q 5.515625 40.671875 12.859375 48.328125 
Q 20.21875 56 33.015625 56 
Q 37.15625 56 41.109375 55.140625 
Q 45.0625 54.296875 48.78125 52.59375 
" id="DejaVuSans-63"/>
      <path d="M 30.609375 48.390625 
Q 23.390625 48.390625 19.1875 42.75 
Q 14.984375 37.109375 14.984375 27.296875 
Q 14.984375 17.484375 19.15625 11.84375 
Q 23.34375 6.203125 30.609375 6.203125 
Q 37.796875 6.203125 41.984375 11.859375 
Q 46.1875 17.53125 46.1875 27.296875 
Q 46.1875 37.015625 41.984375 42.703125 
Q 37.796875 48.390625 30.609375 48.390625 
M 30.609375 56 
Q 42.328125 56 49.015625 48.375 
Q 55.71875 40.765625 55.71875 27.296875 
Q 55.71875 13.875 49.015625 6.21875 
Q 42.328125 -1.421875 30.609375 -1.421875 
Q 18.84375 -1.421875 12.171875 6.21875 
Q 5.515625 13.875 5.515625 27.296875 
Q 5.515625 40.765625 12.171875 48.375 
Q 18.84375 56 30.609375 56 
" id="DejaVuSans-6f"/>
      <path id="DejaVuSans-20"/>
      <path d="M 37.109375 75.984375 
L 37.109375 68.5 
L 28.515625 68.5 
Q 23.6875 68.5 21.796875 66.546875 
Q 19.921875 64.59375 19.921875 59.515625 
L 19.921875 54.6875 
L 34.71875 54.6875 
L 34.71875 47.703125 
L 19.921875 47.703125 
L 19.921875 0 
L 10.890625 0 
L 10.890625 47.703125 
L 2.296875 47.703125 
L 2.296875 54.6875 
L 10.890625 54.6875 
L 10.890625 58.5 
Q 10.890625 67.625 15.140625 71.796875 
Q 19.390625 75.984375 28.609375 75.984375 
z
" id="DejaVuSans-66"/>
      <path d="M 32.171875 -5.078125 
Q 28.375 -14.84375 24.75 -17.8125 
Q 21.140625 -20.796875 15.09375 -20.796875 
L 7.90625 -20.796875 
L 7.90625 -13.28125 
L 13.1875 -13.28125 
Q 16.890625 -13.28125 18.9375 -11.515625 
Q 21 -9.765625 23.484375 -3.21875 
L 25.09375 0.875 
L 2.984375 54.6875 
L 12.5 54.6875 
L 29.59375 11.921875 
L 46.6875 54.6875 
L 56.203125 54.6875 
z
" id="DejaVuSans-79"/>
     </defs>
     <g transform="translate(18.14175 264.588225)rotate(-90)scale(0.144 -0.144)">
      <use xlink:href="#DejaVuSans-44"/>
      <use x="77.001953" xlink:href="#DejaVuSans-65"/>
      <use x="138.525391" xlink:href="#DejaVuSans-74"/>
      <use x="177.734375" xlink:href="#DejaVuSans-65"/>
      <use x="239.257812" xlink:href="#DejaVuSans-63"/>
      <use x="294.238281" xlink:href="#DejaVuSans-74"/>
      <use x="333.447266" xlink:href="#DejaVuSans-69"/>
      <use x="361.230469" xlink:href="#DejaVuSans-6f"/>
      <use x="422.412109" xlink:href="#DejaVuSans-6e"/>
      <use x="485.791016" xlink:href="#DejaVuSans-20"/>
      <use x="517.578125" xlink:href="#DejaVuSans-65"/>
      <use x="579.101562" xlink:href="#DejaVuSans-66"/>
      <use x="614.306641" xlink:href="#DejaVuSans-66"/>
      <use x="649.511719" xlink:href="#DejaVuSans-69"/>
      <use x="677.294922" xlink:href="#DejaVuSans-63"/>
      <use x="732.275391" xlink:href="#DejaVuSans-69"/>
      <use x="760.058594" xlink:href="#DejaVuSans-65"/>
      <use x="821.582031" xlink:href="#DejaVuSans-6e"/>
      <use x="884.960938" xlink:href="#DejaVuSans-63"/>
      <use x="939.941406" xlink:href="#DejaVuSans-79"/>
     </g>
    </g>
   </g>
   <g id="LineCollection_1">
    <path clip-path="url(#pd077801782)" d="M 65.630449 26.3301 
L 80.798272 26.3301 
" style="fill:none;stroke:#e24a33;stroke-width:1.7;"/>
    <path clip-path="url(#pd077801782)" d="M 80.798272 26.3301 
L 95.966096 26.3301 
" style="fill:none;stroke:#e24a33;stroke-width:1.7;"/>
    <path clip-path="url(#pd077801782)" d="M 95.966096 26.3301 
L 111.133919 26.3301 
" style="fill:none;stroke:#e24a33;stroke-width:1.7;"/>
    <path clip-path="url(#pd077801782)" d="M 111.133919 26.3301 
L 126.301743 26.3301 
" style="fill:none;stroke:#e24a33;stroke-width:1.7;"/>
    <path clip-path="url(#pd077801782)" d="M 126.301743 26.3301 
L 141.469566 26.3301 
" style="fill:none;stroke:#e24a33;stroke-width:1.7;"/>
    <path clip-path="url(#pd077801782)" d="M 141.469566 26.3301 
L 156.637389 26.3301 
" style="fill:none;stroke:#e24a33;stroke-width:1.7;"/>
    <path clip-path="url(#pd077801782)" d="M 156.637389 137.2101 
L 171.805213 137.2101 
" style="fill:none;stroke:#e24a33;stroke-width:1.7;"/>
    <path clip-path="url(#pd077801782)" d="M 171.805213 192.6501 
L 186.973036 192.6501 
" style="fill:none;stroke:#e24a33;stroke-width:1.7;"/>
    <path clip-path="url(#pd077801782)" d="M 186.973036 26.3301 
L 202.140859 26.3301 
" style="fill:none;stroke:#e24a33;stroke-width:1.7;"/>
    <path clip-path="url(#pd077801782)" d="M 202.140859 137.2101 
L 217.308683 137.2101 
" style="fill:none;stroke:#e24a33;stroke-width:1.7;"/>
    <path clip-path="url(#pd077801782)" d="M 217.308683 292.4421 
L 232.476506 292.4421 
" style="fill:none;stroke:#e24a33;stroke-width:1.7;"/>
    <path clip-path="url(#pd077801782)" d="M 232.476506 275.8101 
L 247.644329 275.8101 
" style="fill:none;stroke:#e24a33;stroke-width:1.7;"/>
    <path clip-path="url(#pd077801782)" d="M 247.644329 311.4501 
L 262.812153 311.4501 
" style="fill:none;stroke:#e24a33;stroke-width:1.7;"/>
    <path clip-path="url(#pd077801782)" d="M 262.812153 358.9701 
L 277.979976 358.9701 
" style="fill:none;stroke:#e24a33;stroke-width:1.7;"/>
    <path clip-path="url(#pd077801782)" d="M 277.979976 275.8101 
L 293.147799 275.8101 
" style="fill:none;stroke:#e24a33;stroke-width:1.7;"/>
    <path clip-path="url(#pd077801782)" d="M 293.147799 358.9701 
L 308.315623 358.9701 
" style="fill:none;stroke:#e24a33;stroke-width:1.7;"/>
    <path clip-path="url(#pd077801782)" d="M 308.315623 358.9701 
L 323.483446 358.9701 
" style="fill:none;stroke:#e24a33;stroke-width:1.7;"/>
    <path clip-path="url(#pd077801782)" d="M 323.483446 358.9701 
L 338.65127 358.9701 
" style="fill:none;stroke:#e24a33;stroke-width:1.7;"/>
    <path clip-path="url(#pd077801782)" d="M 338.65127 358.9701 
L 353.819093 358.9701 
" style="fill:none;stroke:#e24a33;stroke-width:1.7;"/>
    <path clip-path="url(#pd077801782)" d="M 353.819093 358.9701 
L 368.986916 358.9701 
" style="fill:none;stroke:#e24a33;stroke-width:1.7;"/>
   </g>
   <g id="LineCollection_2">
    <path clip-path="url(#pd077801782)" d="M 73.214361 73.850185 
L 73.214361 26.3301 
" style="fill:none;stroke:#e24a33;stroke-width:1.7;"/>
    <path clip-path="url(#pd077801782)" d="M 88.382184 81.770197 
L 88.382184 26.3301 
" style="fill:none;stroke:#e24a33;stroke-width:1.7;"/>
    <path clip-path="url(#pd077801782)" d="M 103.550007 81.770197 
L 103.550007 26.3301 
" style="fill:none;stroke:#e24a33;stroke-width:1.7;"/>
    <path clip-path="url(#pd077801782)" d="M 118.717831 92.858212 
L 118.717831 26.3301 
" style="fill:none;stroke:#e24a33;stroke-width:1.7;"/>
    <path clip-path="url(#pd077801782)" d="M 133.885654 73.850185 
L 133.885654 26.3301 
" style="fill:none;stroke:#e24a33;stroke-width:1.7;"/>
    <path clip-path="url(#pd077801782)" d="M 149.053478 92.858212 
L 149.053478 26.3301 
" style="fill:none;stroke:#e24a33;stroke-width:1.7;"/>
    <path clip-path="url(#pd077801782)" d="M 164.221301 230.689825 
L 164.221301 71.450419 
" style="fill:none;stroke:#e24a33;stroke-width:1.7;"/>
    <path clip-path="url(#pd077801782)" d="M 179.389124 267.030728 
L 179.389124 118.269472 
" style="fill:none;stroke:#e24a33;stroke-width:1.7;"/>
    <path clip-path="url(#pd077801782)" d="M 194.556948 92.858212 
L 194.556948 26.3301 
" style="fill:none;stroke:#e24a33;stroke-width:1.7;"/>
    <path clip-path="url(#pd077801782)" d="M 209.724771 230.689825 
L 209.724771 71.450419 
" style="fill:none;stroke:#e24a33;stroke-width:1.7;"/>
    <path clip-path="url(#pd077801782)" d="M 224.892594 332.61922 
L 224.892594 219.000922 
" style="fill:none;stroke:#e24a33;stroke-width:1.7;"/>
    <path clip-path="url(#pd077801782)" d="M 240.060418 315.463614 
L 240.060418 217.676551 
" style="fill:none;stroke:#e24a33;stroke-width:1.7;"/>
    <path clip-path="url(#pd077801782)" d="M 255.228241 340.35095 
L 255.228241 252.849196 
" style="fill:none;stroke:#e24a33;stroke-width:1.7;"/>
    <path clip-path="url(#pd077801782)" d="M 270.396064 358.9701 
L 270.396064 311.450015 
" style="fill:none;stroke:#e24a33;stroke-width:1.7;"/>
    <path clip-path="url(#pd077801782)" d="M 285.563888 325.706131 
L 285.563888 192.650013 
" style="fill:none;stroke:#e24a33;stroke-width:1.7;"/>
    <path clip-path="url(#pd077801782)" d="M 300.731711 358.9701 
L 300.731711 311.450015 
" style="fill:none;stroke:#e24a33;stroke-width:1.7;"/>
    <path clip-path="url(#pd077801782)" d="M 315.899535 358.9701 
L 315.899535 303.530003 
" style="fill:none;stroke:#e24a33;stroke-width:1.7;"/>
    <path clip-path="url(#pd077801782)" d="M 331.067358 358.9701 
L 331.067358 292.441988 
" style="fill:none;stroke:#e24a33;stroke-width:1.7;"/>
    <path clip-path="url(#pd077801782)" d="M 346.235181 358.9701 
L 346.235181 292.441988 
" style="fill:none;stroke:#e24a33;stroke-width:1.7;"/>
    <path clip-path="url(#pd077801782)" d="M 361.403005 358.9701 
L 361.403005 317.390024 
" style="fill:none;stroke:#e24a33;stroke-width:1.7;"/>
   </g>
   <g id="line2d_13">
    <path clip-path="url(#pd077801782)" d="M 65.438432 26.397784 
L 82.195189 26.605171 
L 92.553911 26.939787 
L 100.475287 27.410799 
L 106.873321 28.007414 
L 112.357351 28.735947 
L 117.232044 29.60454 
L 121.4974 30.5777 
L 125.458088 31.696052 
L 129.114107 32.9435 
L 132.770127 34.428841 
L 136.121479 36.027248 
L 139.47283 37.879408 
L 142.519513 39.806367 
L 145.566196 41.986505 
L 148.612879 44.440767 
L 151.659562 47.189816 
L 154.706245 50.25368 
L 157.752928 53.651352 
L 160.799611 57.400379 
L 163.846294 61.516429 
L 166.892977 66.012859 
L 169.93966 70.900285 
L 172.986343 76.186169 
L 176.337695 82.465432 
L 179.689046 89.231292 
L 183.040397 96.477416 
L 186.696417 104.914816 
L 190.657105 114.653034 
L 194.922461 125.784485 
L 199.492486 138.370867 
L 204.671847 153.323876 
L 211.069881 172.532841 
L 233.005999 239.093685 
L 238.185361 253.721064 
L 242.755385 265.954652 
L 246.716073 275.965746 
L 250.676761 285.37354 
L 254.332781 293.488991 
L 257.684132 300.430558 
L 261.035483 306.887103 
L 264.386835 312.856238 
L 267.738186 318.341422 
L 270.784869 322.915297 
L 273.831552 327.106436 
L 276.878235 330.927682 
L 279.924918 334.394275 
L 282.971601 337.523421 
L 286.018284 340.333859 
L 289.064967 342.84544 
L 292.11165 345.078731 
L 295.158334 347.054649 
L 298.509685 348.955861 
L 301.861036 350.598408 
L 305.517056 352.126521 
L 309.173076 353.411435 
L 313.133764 354.564814 
L 317.39912 355.569808 
L 321.969144 356.41885 
L 327.148506 357.150476 
L 332.937203 357.74224 
L 339.944574 358.224172 
L 348.475287 358.576706 
L 360.052682 358.814393 
L 369.802068 358.902416 
L 369.802068 358.902416 
" style="fill:none;stroke:#348abd;stroke-linecap:square;stroke-width:1.7;"/>
   </g>
   <g id="line2d_14">
    <defs>
     <path d="M 0 3 
C 0.795609 3 1.55874 2.683901 2.12132 2.12132 
C 2.683901 1.55874 3 0.795609 3 0 
C 3 -0.795609 2.683901 -1.55874 2.12132 -2.12132 
C 1.55874 -2.683901 0.795609 -3 0 -3 
C -0.795609 -3 -1.55874 -2.683901 -2.12132 -2.12132 
C -2.683901 -1.55874 -3 -0.795609 -3 0 
C -3 0.795609 -2.683901 1.55874 -2.12132 2.12132 
C -1.55874 2.683901 -0.795609 3 0 3 
z
" id="m13cb34b037" style="stroke:#e24a33;"/>
    </defs>
    <g clip-path="url(#pd077801782)">
     <use style="fill:#e24a33;stroke:#e24a33;" x="73.214361" xlink:href="#m13cb34b037" y="26.3301"/>
     <use style="fill:#e24a33;stroke:#e24a33;" x="88.382184" xlink:href="#m13cb34b037" y="26.3301"/>
     <use style="fill:#e24a33;stroke:#e24a33;" x="103.550007" xlink:href="#m13cb34b037" y="26.3301"/>
     <use style="fill:#e24a33;stroke:#e24a33;" x="118.717831" xlink:href="#m13cb34b037" y="26.3301"/>
     <use style="fill:#e24a33;stroke:#e24a33;" x="133.885654" xlink:href="#m13cb34b037" y="26.3301"/>
     <use style="fill:#e24a33;stroke:#e24a33;" x="149.053478" xlink:href="#m13cb34b037" y="26.3301"/>
     <use style="fill:#e24a33;stroke:#e24a33;" x="164.221301" xlink:href="#m13cb34b037" y="137.2101"/>
     <use style="fill:#e24a33;stroke:#e24a33;" x="179.389124" xlink:href="#m13cb34b037" y="192.6501"/>
     <use style="fill:#e24a33;stroke:#e24a33;" x="194.556948" xlink:href="#m13cb34b037" y="26.3301"/>
     <use style="fill:#e24a33;stroke:#e24a33;" x="209.724771" xlink:href="#m13cb34b037" y="137.2101"/>
     <use style="fill:#e24a33;stroke:#e24a33;" x="224.892594" xlink:href="#m13cb34b037" y="292.4421"/>
     <use style="fill:#e24a33;stroke:#e24a33;" x="240.060418" xlink:href="#m13cb34b037" y="275.8101"/>
     <use style="fill:#e24a33;stroke:#e24a33;" x="255.228241" xlink:href="#m13cb34b037" y="311.4501"/>
     <use style="fill:#e24a33;stroke:#e24a33;" x="270.396064" xlink:href="#m13cb34b037" y="358.9701"/>
     <use style="fill:#e24a33;stroke:#e24a33;" x="285.563888" xlink:href="#m13cb34b037" y="275.8101"/>
     <use style="fill:#e24a33;stroke:#e24a33;" x="300.731711" xlink:href="#m13cb34b037" y="358.9701"/>
     <use style="fill:#e24a33;stroke:#e24a33;" x="315.899535" xlink:href="#m13cb34b037" y="358.9701"/>
     <use style="fill:#e24a33;stroke:#e24a33;" x="331.067358" xlink:href="#m13cb34b037" y="358.9701"/>
     <use style="fill:#e24a33;stroke:#e24a33;" x="346.235181" xlink:href="#m13cb34b037" y="358.9701"/>
     <use style="fill:#e24a33;stroke:#e24a33;" x="361.403005" xlink:href="#m13cb34b037" y="358.9701"/>
    </g>
   </g>
   <g id="patch_3">
    <path d="M 50.22025 358.9701 
L 50.22025 26.3301 
" style="fill:none;stroke:#aaaaaa;stroke-linecap:square;stroke-linejoin:miter;"/>
   </g>
   <g id="patch_4">
    <path d="M 385.02025 358.9701 
L 385.02025 26.3301 
" style="fill:none;stroke:#aaaaaa;stroke-linecap:square;stroke-linejoin:miter;"/>
   </g>
   <g id="patch_5">
    <path d="M 50.22025 358.9701 
L 385.02025 358.9701 
" style="fill:none;stroke:#aaaaaa;stroke-linecap:square;stroke-linejoin:miter;"/>
   </g>
   <g id="patch_6">
    <path d="M 50.22025 26.3301 
L 385.02025 26.3301 
" style="fill:none;stroke:#aaaaaa;stroke-linecap:square;stroke-linejoin:miter;"/>
   </g>
   <g id="text_15">
    <!-- Detection efficiency vs magnitude -->
    <defs>
     <path d="M 2.984375 54.6875 
L 12.5 54.6875 
L 29.59375 8.796875 
L 46.6875 54.6875 
L 56.203125 54.6875 
L 35.6875 0 
L 23.484375 0 
z
" id="DejaVuSans-76"/>
     <path d="M 44.28125 53.078125 
L 44.28125 44.578125 
Q 40.484375 46.53125 36.375 47.5 
Q 32.28125 48.484375 27.875 48.484375 
Q 21.1875 48.484375 17.84375 46.4375 
Q 14.5 44.390625 14.5 40.28125 
Q 14.5 37.15625 16.890625 35.375 
Q 19.28125 33.59375 26.515625 31.984375 
L 29.59375 31.296875 
Q 39.15625 29.25 43.1875 25.515625 
Q 47.21875 21.78125 47.21875 15.09375 
Q 47.21875 7.46875 41.1875 3.015625 
Q 35.15625 -1.421875 24.609375 -1.421875 
Q 20.21875 -1.421875 15.453125 -0.5625 
Q 10.6875 0.296875 5.421875 2 
L 5.421875 11.28125 
Q 10.40625 8.6875 15.234375 7.390625 
Q 20.0625 6.109375 24.8125 6.109375 
Q 31.15625 6.109375 34.5625 8.28125 
Q 37.984375 10.453125 37.984375 14.40625 
Q 37.984375 18.0625 35.515625 20.015625 
Q 33.0625 21.96875 24.703125 23.78125 
L 21.578125 24.515625 
Q 13.234375 26.265625 9.515625 29.90625 
Q 5.8125 33.546875 5.8125 39.890625 
Q 5.8125 47.609375 11.28125 51.796875 
Q 16.75 56 26.8125 56 
Q 31.78125 56 36.171875 55.265625 
Q 40.578125 54.546875 44.28125 53.078125 
" id="DejaVuSans-73"/>
     <path d="M 52 44.1875 
Q 55.375 50.25 60.0625 53.125 
Q 64.75 56 71.09375 56 
Q 79.640625 56 84.28125 50.015625 
Q 88.921875 44.046875 88.921875 33.015625 
L 88.921875 0 
L 79.890625 0 
L 79.890625 32.71875 
Q 79.890625 40.578125 77.09375 44.375 
Q 74.3125 48.1875 68.609375 48.1875 
Q 61.625 48.1875 57.5625 43.546875 
Q 53.515625 38.921875 53.515625 30.90625 
L 53.515625 0 
L 44.484375 0 
L 44.484375 32.71875 
Q 44.484375 40.625 41.703125 44.40625 
Q 38.921875 48.1875 33.109375 48.1875 
Q 26.21875 48.1875 22.15625 43.53125 
Q 18.109375 38.875 18.109375 30.90625 
L 18.109375 0 
L 9.078125 0 
L 9.078125 54.6875 
L 18.109375 54.6875 
L 18.109375 46.1875 
Q 21.1875 51.21875 25.484375 53.609375 
Q 29.78125 56 35.6875 56 
Q 41.65625 56 45.828125 52.96875 
Q 50 49.953125 52 44.1875 
" id="DejaVuSans-6d"/>
    </defs>
    <g transform="translate(69.45235 20.3301)scale(0.1728 -0.1728)">
     <use xlink:href="#DejaVuSans-44"/>
     <use x="77.001953" xlink:href="#DejaVuSans-65"/>
     <use x="138.525391" xlink:href="#DejaVuSans-74"/>
     <use x="177.734375" xlink:href="#DejaVuSans-65"/>
     <use x="239.257812" xlink:href="#DejaVuSans-63"/>
     <use x="294.238281" xlink:href="#DejaVuSans-74"/>
     <use x="333.447266" xlink:href="#DejaVuSans-69"/>
     <use x="361.230469" xlink:href="#DejaVuSans-6f"/>
     <use x="422.412109" xlink:href="#DejaVuSans-6e"/>
     <use x="485.791016" xlink:href="#DejaVuSans-20"/>
     <use x="517.578125" xlink:href="#DejaVuSans-65"/>
     <use x="579.101562" xlink:href="#DejaVuSans-66"/>
     <use x="614.306641" xlink:href="#DejaVuSans-66"/>
     <use x="649.511719" xlink:href="#DejaVuSans-69"/>
     <use x="677.294922" xlink:href="#DejaVuSans-63"/>
     <use x="732.275391" xlink:href="#DejaVuSans-69"/>
     <use x="760.058594" xlink:href="#DejaVuSans-65"/>
     <use x="821.582031" xlink:href="#DejaVuSans-6e"/>
     <use x="884.960938" xlink:href="#DejaVuSans-63"/>
     <use x="939.941406" xlink:href="#DejaVuSans-79"/>
     <use x="999.121094" xlink:href="#DejaVuSans-20"/>
     <use x="1030.908203" xlink:href="#DejaVuSans-76"/>
     <use x="1090.087891" xlink:href="#DejaVuSans-73"/>
     <use x="1142.1875" xlink:href="#DejaVuSans-20"/>
     <use x="1173.974609" xlink:href="#DejaVuSans-6d"/>
     <use x="1271.386719" xlink:href="#DejaVuSans-61"/>
     <use x="1332.666016" xlink:href="#DejaVuSans-67"/>
     <use x="1396.142578" xlink:href="#DejaVuSans-6e"/>
     <use x="1459.521484" xlink:href="#DejaVuSans-69"/>
     <use x="1487.304688" xlink:href="#DejaVuSans-74"/>
     <use x="1526.513672" xlink:href="#DejaVuSans-75"/>
     <use x="1589.892578" xlink:href="#DejaVuSans-64"/>
     <use x="1653.369141" xlink:href="#DejaVuSans-65"/>
    </g>
   </g>
   <g id="legend_1">
    <g id="patch_7">
     <path d="M 251.99275 71.1576 
L 376.62025 71.1576 
Q 379.02025 71.1576 379.02025 68.7576 
L 379.02025 34.7301 
Q 379.02025 32.3301 376.62025 32.3301 
L 251.99275 32.3301 
Q 249.59275 32.3301 249.59275 34.7301 
L 249.59275 68.7576 
Q 249.59275 71.1576 251.99275 71.1576 
z
" style="fill:#ffffff;opacity:0.8;stroke:#cccccc;stroke-linejoin:miter;"/>
    </g>
    <g id="line2d_15">
     <path d="M 254.39275 42.048225 
L 278.39275 42.048225 
" style="fill:none;stroke:#348abd;stroke-linecap:square;stroke-width:1.7;"/>
    </g>
    <g id="line2d_16"/>
    <g id="text_16">
     <!-- true efficiency -->
     <defs>
      <path d="M 41.109375 46.296875 
Q 39.59375 47.171875 37.8125 47.578125 
Q 36.03125 48 33.890625 48 
Q 26.265625 48 22.1875 43.046875 
Q 18.109375 38.09375 18.109375 28.8125 
L 18.109375 0 
L 9.078125 0 
L 9.078125 54.6875 
L 18.109375 54.6875 
L 18.109375 46.1875 
Q 20.953125 51.171875 25.484375 53.578125 
Q 30.03125 56 36.53125 56 
Q 37.453125 56 38.578125 55.875 
Q 39.703125 55.765625 41.0625 55.515625 
z
" id="DejaVuSans-72"/>
     </defs>
     <g transform="translate(287.99275 46.248225)scale(0.12 -0.12)">
      <use xlink:href="#DejaVuSans-74"/>
      <use x="39.208984" xlink:href="#DejaVuSans-72"/>
      <use x="80.322266" xlink:href="#DejaVuSans-75"/>
      <use x="143.701172" xlink:href="#DejaVuSans-65"/>
      <use x="205.224609" xlink:href="#DejaVuSans-20"/>
      <use x="237.011719" xlink:href="#DejaVuSans-65"/>
      <use x="298.535156" xlink:href="#DejaVuSans-66"/>
      <use x="333.740234" xlink:href="#DejaVuSans-66"/>
      <use x="368.945312" xlink:href="#DejaVuSans-69"/>
      <use x="396.728516" xlink:href="#DejaVuSans-63"/>
      <use x="451.708984" xlink:href="#DejaVuSans-69"/>
      <use x="479.492188" xlink:href="#DejaVuSans-65"/>
      <use x="541.015625" xlink:href="#DejaVuSans-6e"/>
      <use x="604.394531" xlink:href="#DejaVuSans-63"/>
      <use x="659.375" xlink:href="#DejaVuSans-79"/>
     </g>
    </g>
    <g id="LineCollection_3">
     <path d="M 260.39275 59.661975 
L 272.39275 59.661975 
" style="fill:none;stroke:#e24a33;stroke-width:1.7;"/>
    </g>
    <g id="LineCollection_4">
     <path d="M 266.39275 65.661975 
L 266.39275 53.661975 
" style="fill:none;stroke:#e24a33;stroke-width:1.7;"/>
    </g>
    <g id="line2d_17"/>
    <g id="line2d_18">
     <g>
      <use style="fill:#e24a33;stroke:#e24a33;" x="266.39275" xlink:href="#m13cb34b037" y="59.661975"/>
     </g>
    </g>
    <g id="text_17">
     <!-- estimate -->
     <g transform="translate(287.99275 63.861975)scale(0.12 -0.12)">
      <use xlink:href="#DejaVuSans-65"/>
      <use x="61.523438" xlink:href="#DejaVuSans-73"/>
      <use x="113.623047" xlink:href="#DejaVuSans-74"/>
      <use x="152.832031" xlink:href="#DejaVuSans-69"/>
      <use x="180.615234" xlink:href="#DejaVuSans-6d"/>
      <use x="278.027344" xlink:href="#DejaVuSans-61"/>
      <use x="339.306641" xlink:href="#DejaVuSans-74"/>
      <use x="378.515625" xlink:href="#DejaVuSans-65"/>
     </g>
    </g>
   </g>
  </g>
 </g>
 <defs>
  <clipPath id="pd077801782">
   <rect height="332.64" width="334.8" x="50.22025" y="26.3301"/>
  </clipPath>
 </defs>
</svg>
